G04 MADE WITH FRITZING*
G04 WWW.FRITZING.ORG*
G04 DOUBLE SIDED*
G04 HOLES PLATED*
G04 CONTOUR ON CENTER OF CONTOUR VECTOR*
%ASAXBY*%
%FSLAX23Y23*%
%MOIN*%
%OFA0B0*%
%SFA1.0B1.0*%
%ADD10C,0.078889*%
%ADD11C,0.088000*%
%ADD12C,0.049370*%
%ADD13C,0.096614*%
%ADD14C,0.084000*%
%ADD15C,0.150000*%
%ADD16C,0.090000*%
%ADD17R,0.072992X0.084803*%
%ADD18R,0.057244X0.088740*%
%ADD19R,0.058000X0.098000*%
%ADD20R,0.151732X0.096614*%
%ADD21R,0.090000X0.090000*%
%ADD22R,0.285591X0.285591*%
%ADD23R,0.069055X0.116299*%
%LNMASK1*%
G90*
G70*
G54D10*
X728Y1501D03*
X728Y1245D03*
X584Y1501D03*
X584Y1245D03*
G54D11*
X1111Y1881D03*
X1111Y1781D03*
X1111Y1681D03*
X1111Y1581D03*
X1111Y1481D03*
X1111Y1381D03*
X1111Y1281D03*
X1111Y1181D03*
X1111Y1081D03*
X1111Y1881D03*
X1111Y1781D03*
X1111Y1681D03*
X1111Y1581D03*
X1111Y1481D03*
X1111Y1381D03*
X1111Y1281D03*
X1111Y1181D03*
X1111Y1081D03*
X1011Y1681D03*
X1011Y1581D03*
X1011Y1481D03*
X1011Y1381D03*
X1011Y1281D03*
X1011Y1181D03*
X1011Y1081D03*
X1011Y1681D03*
X1011Y1581D03*
X1011Y1481D03*
X1011Y1381D03*
X1011Y1281D03*
X1011Y1181D03*
X1011Y1081D03*
X911Y1081D03*
X911Y1181D03*
X911Y1281D03*
X911Y1381D03*
X911Y1481D03*
X911Y1581D03*
X911Y1681D03*
X1011Y1681D03*
X1011Y1581D03*
X1011Y1481D03*
X1011Y1381D03*
X1011Y1281D03*
X1011Y1181D03*
X1011Y1081D03*
X1011Y1681D03*
X1011Y1581D03*
X1011Y1481D03*
X1011Y1381D03*
X1011Y1281D03*
X1011Y1181D03*
X1011Y1081D03*
X911Y1081D03*
X911Y1181D03*
X911Y1281D03*
X911Y1381D03*
X911Y1481D03*
X911Y1581D03*
X911Y1681D03*
G54D12*
X1141Y725D03*
X178Y681D03*
X123Y1001D03*
X224Y823D03*
X294Y1041D03*
X114Y620D03*
X83Y959D03*
G54D11*
X1411Y483D03*
X1411Y383D03*
X1411Y283D03*
X1411Y183D03*
G54D12*
X461Y726D03*
X461Y649D03*
X459Y568D03*
X461Y806D03*
G54D13*
X1491Y78D03*
X75Y80D03*
G54D14*
X112Y531D03*
X112Y431D03*
X112Y331D03*
X112Y531D03*
X112Y431D03*
X112Y331D03*
G54D15*
X379Y1690D03*
X139Y1690D03*
X259Y1500D03*
G54D16*
X829Y1835D03*
X967Y1835D03*
X545Y1834D03*
X683Y1834D03*
G54D12*
X1125Y646D03*
X954Y954D03*
G54D11*
X1511Y1881D03*
X1511Y1781D03*
X1511Y1681D03*
X1511Y1581D03*
X1511Y1481D03*
X1511Y1381D03*
X1511Y1281D03*
X1511Y1181D03*
X1511Y1081D03*
X1511Y981D03*
X1511Y881D03*
X1511Y781D03*
X1511Y681D03*
X1511Y1881D03*
X1511Y1781D03*
X1511Y1681D03*
X1511Y1581D03*
X1511Y1481D03*
X1511Y1381D03*
X1511Y1281D03*
X1511Y1181D03*
X1511Y1081D03*
X1511Y981D03*
X1511Y881D03*
X1511Y781D03*
X1511Y681D03*
X1411Y1881D03*
X1411Y1781D03*
X1411Y1681D03*
X1411Y1581D03*
X1411Y1481D03*
X1411Y1381D03*
X1411Y1281D03*
X1411Y1181D03*
X1411Y1081D03*
X1411Y981D03*
X1411Y881D03*
X1411Y781D03*
X1411Y681D03*
X1411Y1881D03*
X1411Y1781D03*
X1411Y1681D03*
X1411Y1581D03*
X1411Y1481D03*
X1411Y1381D03*
X1411Y1281D03*
X1411Y1181D03*
X1411Y1081D03*
X1411Y981D03*
X1411Y881D03*
X1411Y781D03*
X1411Y681D03*
X1311Y681D03*
X1311Y781D03*
X1311Y881D03*
X1311Y981D03*
X1311Y1081D03*
X1311Y1181D03*
X1311Y1281D03*
X1311Y1381D03*
X1311Y1481D03*
X1311Y1581D03*
X1311Y1681D03*
X1311Y1781D03*
X1311Y1881D03*
X1411Y1881D03*
X1411Y1781D03*
X1411Y1681D03*
X1411Y1581D03*
X1411Y1481D03*
X1411Y1381D03*
X1411Y1281D03*
X1411Y1181D03*
X1411Y1081D03*
X1411Y981D03*
X1411Y881D03*
X1411Y781D03*
X1411Y681D03*
X1411Y1881D03*
X1411Y1781D03*
X1411Y1681D03*
X1411Y1581D03*
X1411Y1481D03*
X1411Y1381D03*
X1411Y1281D03*
X1411Y1181D03*
X1411Y1081D03*
X1411Y981D03*
X1411Y881D03*
X1411Y781D03*
X1411Y681D03*
X1311Y681D03*
X1311Y781D03*
X1311Y881D03*
X1311Y981D03*
X1311Y1081D03*
X1311Y1181D03*
X1311Y1281D03*
X1311Y1381D03*
X1311Y1481D03*
X1311Y1581D03*
X1311Y1681D03*
X1311Y1781D03*
X1311Y1881D03*
X1211Y1881D03*
X1211Y1781D03*
X1211Y1681D03*
X1211Y1581D03*
X1211Y1481D03*
X1211Y1381D03*
X1211Y1281D03*
X1211Y1181D03*
X1211Y1081D03*
X1211Y981D03*
X1211Y881D03*
X1211Y781D03*
X1211Y681D03*
X1211Y1881D03*
X1211Y1781D03*
X1211Y1681D03*
X1211Y1581D03*
X1211Y1481D03*
X1211Y1381D03*
X1211Y1281D03*
X1211Y1181D03*
X1211Y1081D03*
X1211Y981D03*
X1211Y881D03*
X1211Y781D03*
X1211Y681D03*
G54D17*
X994Y831D03*
X872Y831D03*
X994Y664D03*
X872Y664D03*
X716Y662D03*
X594Y662D03*
X593Y830D03*
X715Y830D03*
G54D18*
X364Y1222D03*
X364Y1333D03*
G54D19*
X246Y1334D03*
X155Y1334D03*
X64Y1334D03*
G54D20*
X155Y1090D03*
G54D21*
X829Y1835D03*
X545Y1834D03*
G54D22*
X463Y239D03*
G54D23*
X365Y513D03*
X562Y513D03*
G54D22*
X815Y241D03*
G54D23*
X717Y515D03*
X913Y515D03*
G54D22*
X1165Y242D03*
G54D23*
X1067Y516D03*
X1264Y516D03*
G04 End of Mask1*
M02*