G04 MADE WITH FRITZING*
G04 WWW.FRITZING.ORG*
G04 DOUBLE SIDED*
G04 HOLES PLATED*
G04 CONTOUR ON CENTER OF CONTOUR VECTOR*
%ASAXBY*%
%FSLAX23Y23*%
%MOIN*%
%OFA0B0*%
%SFA1.0B1.0*%
%ADD10C,0.075000*%
%ADD11C,0.068889*%
%ADD12C,0.078000*%
%ADD13C,0.039370*%
%ADD14C,0.074000*%
%ADD15C,0.140000*%
%ADD16C,0.080000*%
%ADD17R,0.080000X0.080000*%
%ADD18R,0.074803X0.062992*%
%ADD19C,0.024000*%
%ADD20C,0.016000*%
%ADD21R,0.001000X0.001000*%
%LNCOPPER0*%
G90*
G70*
G54D10*
X117Y1827D03*
X797Y1582D03*
X1220Y483D03*
X117Y211D03*
X547Y712D03*
G54D11*
X728Y1501D03*
X728Y1245D03*
X584Y1501D03*
X584Y1245D03*
G54D12*
X1411Y1881D03*
X1411Y1781D03*
X1411Y1681D03*
X1411Y1581D03*
X1411Y1481D03*
X1411Y1381D03*
X1411Y1281D03*
X1411Y1181D03*
X1411Y1081D03*
X1411Y981D03*
X1411Y881D03*
X1411Y781D03*
X1411Y681D03*
X1411Y1881D03*
X1411Y1781D03*
X1411Y1681D03*
X1411Y1581D03*
X1411Y1481D03*
X1411Y1381D03*
X1411Y1281D03*
X1411Y1181D03*
X1411Y1081D03*
X1411Y981D03*
X1411Y881D03*
X1411Y781D03*
X1411Y681D03*
X1311Y681D03*
X1311Y781D03*
X1311Y881D03*
X1311Y981D03*
X1311Y1081D03*
X1311Y1181D03*
X1311Y1281D03*
X1311Y1381D03*
X1311Y1481D03*
X1311Y1581D03*
X1311Y1681D03*
X1311Y1781D03*
X1311Y1881D03*
X1411Y1881D03*
X1411Y1781D03*
X1411Y1681D03*
X1411Y1581D03*
X1411Y1481D03*
X1411Y1381D03*
X1411Y1281D03*
X1411Y1181D03*
X1411Y1081D03*
X1411Y981D03*
X1411Y881D03*
X1411Y781D03*
X1411Y681D03*
X1411Y1881D03*
X1411Y1781D03*
X1411Y1681D03*
X1411Y1581D03*
X1411Y1481D03*
X1411Y1381D03*
X1411Y1281D03*
X1411Y1181D03*
X1411Y1081D03*
X1411Y981D03*
X1411Y881D03*
X1411Y781D03*
X1411Y681D03*
X1311Y681D03*
X1311Y781D03*
X1311Y881D03*
X1311Y981D03*
X1311Y1081D03*
X1311Y1181D03*
X1311Y1281D03*
X1311Y1381D03*
X1311Y1481D03*
X1311Y1581D03*
X1311Y1681D03*
X1311Y1781D03*
X1311Y1881D03*
X1211Y1881D03*
X1211Y1781D03*
X1211Y1681D03*
X1211Y1581D03*
X1211Y1481D03*
X1211Y1381D03*
X1211Y1281D03*
X1211Y1181D03*
X1211Y1081D03*
X1211Y981D03*
X1211Y881D03*
X1211Y781D03*
X1211Y681D03*
X1211Y1881D03*
X1211Y1781D03*
X1211Y1681D03*
X1211Y1581D03*
X1211Y1481D03*
X1211Y1381D03*
X1211Y1281D03*
X1211Y1181D03*
X1211Y1081D03*
X1211Y981D03*
X1211Y881D03*
X1211Y781D03*
X1211Y681D03*
X1511Y1881D03*
X1511Y1781D03*
X1511Y1681D03*
X1511Y1581D03*
X1511Y1481D03*
X1511Y1381D03*
X1511Y1281D03*
X1511Y1181D03*
X1511Y1081D03*
X1511Y981D03*
X1511Y881D03*
X1511Y781D03*
X1511Y681D03*
X1511Y1881D03*
X1511Y1781D03*
X1511Y1681D03*
X1511Y1581D03*
X1511Y1481D03*
X1511Y1381D03*
X1511Y1281D03*
X1511Y1181D03*
X1511Y1081D03*
X1511Y981D03*
X1511Y881D03*
X1511Y781D03*
X1511Y681D03*
X1111Y1881D03*
X1111Y1781D03*
X1111Y1681D03*
X1111Y1581D03*
X1111Y1481D03*
X1111Y1381D03*
X1111Y1281D03*
X1111Y1181D03*
X1111Y1081D03*
X1111Y1881D03*
X1111Y1781D03*
X1111Y1681D03*
X1111Y1581D03*
X1111Y1481D03*
X1111Y1381D03*
X1111Y1281D03*
X1111Y1181D03*
X1111Y1081D03*
X1011Y1681D03*
X1011Y1581D03*
X1011Y1481D03*
X1011Y1381D03*
X1011Y1281D03*
X1011Y1181D03*
X1011Y1081D03*
X1011Y1681D03*
X1011Y1581D03*
X1011Y1481D03*
X1011Y1381D03*
X1011Y1281D03*
X1011Y1181D03*
X1011Y1081D03*
X911Y1081D03*
X911Y1181D03*
X911Y1281D03*
X911Y1381D03*
X911Y1481D03*
X911Y1581D03*
X911Y1681D03*
X1011Y1681D03*
X1011Y1581D03*
X1011Y1481D03*
X1011Y1381D03*
X1011Y1281D03*
X1011Y1181D03*
X1011Y1081D03*
X1011Y1681D03*
X1011Y1581D03*
X1011Y1481D03*
X1011Y1381D03*
X1011Y1281D03*
X1011Y1181D03*
X1011Y1081D03*
X911Y1081D03*
X911Y1181D03*
X911Y1281D03*
X911Y1381D03*
X911Y1481D03*
X911Y1581D03*
X911Y1681D03*
G54D13*
X1141Y725D03*
X178Y681D03*
X123Y1001D03*
X224Y823D03*
X294Y1041D03*
X114Y620D03*
X83Y959D03*
G54D12*
X1411Y483D03*
X1411Y383D03*
X1411Y283D03*
X1411Y183D03*
G54D13*
X461Y726D03*
X461Y649D03*
X459Y568D03*
X461Y806D03*
G54D14*
X112Y531D03*
X112Y431D03*
X112Y331D03*
G54D15*
X379Y1690D03*
X139Y1690D03*
X259Y1500D03*
G54D16*
X829Y1835D03*
X967Y1835D03*
X545Y1834D03*
X683Y1834D03*
G54D13*
X1125Y646D03*
X954Y954D03*
G54D17*
X829Y1835D03*
X545Y1834D03*
G54D18*
X1110Y928D03*
X1110Y806D03*
X144Y884D03*
X144Y762D03*
G54D19*
X453Y70D02*
X134Y408D01*
D02*
X1298Y70D02*
X453Y70D01*
D02*
X1390Y162D02*
X1298Y70D01*
G54D20*
D02*
X640Y1316D02*
X567Y1316D01*
D02*
X894Y1563D02*
X640Y1316D01*
D02*
X522Y1124D02*
X438Y1041D01*
D02*
X520Y1269D02*
X522Y1124D01*
D02*
X567Y1316D02*
X520Y1269D01*
D02*
X438Y1041D02*
X308Y1041D01*
D02*
X234Y814D02*
X246Y804D01*
D02*
X246Y804D02*
X316Y804D01*
D02*
X445Y1088D02*
X216Y1088D01*
D02*
X216Y1088D02*
X132Y1010D01*
D02*
X487Y1131D02*
X445Y1088D01*
D02*
X487Y1282D02*
X487Y1131D01*
D02*
X655Y1539D02*
X654Y1448D01*
D02*
X654Y1448D02*
X487Y1282D01*
D02*
X887Y1681D02*
X786Y1681D01*
D02*
X786Y1681D02*
X655Y1539D01*
D02*
X258Y603D02*
X256Y456D01*
D02*
X188Y672D02*
X258Y603D01*
D02*
X256Y456D02*
X300Y414D01*
D02*
X300Y414D02*
X316Y413D01*
D02*
X1128Y725D02*
X993Y725D01*
G54D19*
D02*
X320Y1500D02*
X553Y1501D01*
D02*
X1363Y334D02*
X993Y332D01*
D02*
X1341Y413D02*
X993Y411D01*
D02*
X1390Y462D02*
X1341Y413D01*
D02*
X1390Y362D02*
X1363Y334D01*
D02*
X416Y1711D02*
X522Y1812D01*
D02*
X432Y1720D02*
X416Y1711D01*
D02*
X393Y726D02*
X442Y726D01*
D02*
X393Y647D02*
X442Y648D01*
D02*
X440Y568D02*
X393Y568D01*
G54D20*
D02*
X226Y386D02*
X278Y333D01*
D02*
X278Y333D02*
X316Y332D01*
D02*
X123Y610D02*
X226Y507D01*
D02*
X226Y507D02*
X226Y386D01*
D02*
X416Y998D02*
X374Y961D01*
D02*
X450Y999D02*
X416Y998D01*
D02*
X374Y961D02*
X97Y959D01*
D02*
X584Y1137D02*
X450Y999D01*
D02*
X584Y1219D02*
X584Y1137D01*
G54D19*
D02*
X1062Y882D02*
X1083Y902D01*
D02*
X993Y882D02*
X1062Y882D01*
D02*
X1078Y806D02*
X993Y805D01*
G54D20*
D02*
X1111Y646D02*
X993Y647D01*
G54D19*
D02*
X39Y780D02*
X40Y505D01*
D02*
X40Y505D02*
X91Y453D01*
D02*
X118Y859D02*
X39Y780D01*
D02*
X381Y882D02*
X447Y819D01*
D02*
X354Y883D02*
X381Y882D01*
G54D20*
D02*
X289Y633D02*
X173Y737D01*
D02*
X289Y506D02*
X289Y633D01*
D02*
X315Y486D02*
X289Y506D01*
D02*
X316Y486D02*
X315Y486D01*
D02*
X316Y883D02*
X175Y884D01*
G54D19*
D02*
X954Y935D02*
X954Y901D01*
G54D20*
D02*
X973Y1006D02*
X883Y1006D01*
D02*
X1008Y1043D02*
X973Y1006D01*
D02*
X854Y973D02*
X853Y953D01*
D02*
X883Y1006D02*
X854Y973D01*
D02*
X1009Y1056D02*
X1008Y1043D01*
D02*
X773Y1043D02*
X773Y953D01*
D02*
X813Y1081D02*
X773Y1043D01*
D02*
X887Y1081D02*
X813Y1081D01*
D02*
X864Y1181D02*
X887Y1181D01*
D02*
X694Y953D02*
X694Y1014D01*
D02*
X694Y1014D02*
X864Y1181D01*
D02*
X615Y985D02*
X894Y1263D01*
D02*
X615Y953D02*
X615Y985D01*
D02*
X796Y1227D02*
X795Y1263D01*
D02*
X795Y1263D02*
X894Y1363D01*
D02*
X536Y967D02*
X796Y1227D01*
D02*
X536Y953D02*
X536Y967D01*
D02*
X456Y961D02*
X658Y1163D01*
D02*
X658Y1163D02*
X657Y1284D01*
D02*
X857Y1481D02*
X887Y1481D01*
D02*
X657Y1284D02*
X857Y1481D01*
D02*
X457Y953D02*
X456Y961D01*
D02*
X1121Y489D02*
X993Y489D01*
D02*
X1293Y664D02*
X1121Y489D01*
D02*
X1212Y657D02*
X1213Y632D01*
D02*
X1149Y568D02*
X993Y568D01*
D02*
X1213Y632D02*
X1149Y568D01*
G36*
X1350Y1857D02*
X1350Y1853D01*
X1348Y1853D01*
X1348Y1851D01*
X1346Y1851D01*
X1346Y1849D01*
X1344Y1849D01*
X1344Y1847D01*
X1342Y1847D01*
X1342Y1845D01*
X1340Y1845D01*
X1340Y1843D01*
X1338Y1843D01*
X1338Y1841D01*
X1336Y1841D01*
X1336Y1821D01*
X1338Y1821D01*
X1338Y1819D01*
X1340Y1819D01*
X1340Y1817D01*
X1344Y1817D01*
X1344Y1815D01*
X1346Y1815D01*
X1346Y1811D01*
X1348Y1811D01*
X1348Y1809D01*
X1350Y1809D01*
X1350Y1807D01*
X1372Y1807D01*
X1372Y1811D01*
X1374Y1811D01*
X1374Y1813D01*
X1376Y1813D01*
X1376Y1815D01*
X1378Y1815D01*
X1378Y1817D01*
X1380Y1817D01*
X1380Y1819D01*
X1382Y1819D01*
X1382Y1821D01*
X1386Y1821D01*
X1386Y1841D01*
X1384Y1841D01*
X1384Y1843D01*
X1382Y1843D01*
X1382Y1845D01*
X1380Y1845D01*
X1380Y1847D01*
X1378Y1847D01*
X1378Y1849D01*
X1376Y1849D01*
X1376Y1851D01*
X1374Y1851D01*
X1374Y1853D01*
X1372Y1853D01*
X1372Y1855D01*
X1370Y1855D01*
X1370Y1857D01*
X1350Y1857D01*
G37*
D02*
G36*
X1450Y1857D02*
X1450Y1853D01*
X1448Y1853D01*
X1448Y1851D01*
X1446Y1851D01*
X1446Y1849D01*
X1444Y1849D01*
X1444Y1847D01*
X1442Y1847D01*
X1442Y1845D01*
X1440Y1845D01*
X1440Y1843D01*
X1438Y1843D01*
X1438Y1841D01*
X1436Y1841D01*
X1436Y1821D01*
X1438Y1821D01*
X1438Y1819D01*
X1440Y1819D01*
X1440Y1817D01*
X1444Y1817D01*
X1444Y1815D01*
X1446Y1815D01*
X1446Y1811D01*
X1448Y1811D01*
X1448Y1809D01*
X1450Y1809D01*
X1450Y1807D01*
X1472Y1807D01*
X1472Y1809D01*
X1474Y1809D01*
X1474Y1811D01*
X1476Y1811D01*
X1476Y1815D01*
X1478Y1815D01*
X1478Y1817D01*
X1482Y1817D01*
X1482Y1819D01*
X1484Y1819D01*
X1484Y1821D01*
X1486Y1821D01*
X1486Y1841D01*
X1484Y1841D01*
X1484Y1843D01*
X1482Y1843D01*
X1482Y1845D01*
X1480Y1845D01*
X1480Y1847D01*
X1478Y1847D01*
X1478Y1849D01*
X1476Y1849D01*
X1476Y1851D01*
X1474Y1851D01*
X1474Y1853D01*
X1472Y1853D01*
X1472Y1855D01*
X1470Y1855D01*
X1470Y1857D01*
X1450Y1857D01*
G37*
D02*
G36*
X1150Y1855D02*
X1150Y1853D01*
X1148Y1853D01*
X1148Y1851D01*
X1146Y1851D01*
X1146Y1849D01*
X1144Y1849D01*
X1144Y1847D01*
X1142Y1847D01*
X1142Y1845D01*
X1140Y1845D01*
X1140Y1843D01*
X1138Y1843D01*
X1138Y1841D01*
X1136Y1841D01*
X1136Y1821D01*
X1138Y1821D01*
X1138Y1819D01*
X1140Y1819D01*
X1140Y1817D01*
X1144Y1817D01*
X1144Y1815D01*
X1146Y1815D01*
X1146Y1811D01*
X1148Y1811D01*
X1148Y1809D01*
X1150Y1809D01*
X1150Y1807D01*
X1172Y1807D01*
X1172Y1811D01*
X1174Y1811D01*
X1174Y1813D01*
X1176Y1813D01*
X1176Y1815D01*
X1178Y1815D01*
X1178Y1817D01*
X1180Y1817D01*
X1180Y1819D01*
X1182Y1819D01*
X1182Y1821D01*
X1186Y1821D01*
X1186Y1841D01*
X1184Y1841D01*
X1184Y1843D01*
X1182Y1843D01*
X1182Y1845D01*
X1180Y1845D01*
X1180Y1847D01*
X1178Y1847D01*
X1178Y1849D01*
X1176Y1849D01*
X1176Y1851D01*
X1174Y1851D01*
X1174Y1853D01*
X1172Y1853D01*
X1172Y1855D01*
X1150Y1855D01*
G37*
D02*
G36*
X1250Y1855D02*
X1250Y1853D01*
X1248Y1853D01*
X1248Y1851D01*
X1246Y1851D01*
X1246Y1849D01*
X1244Y1849D01*
X1244Y1847D01*
X1242Y1847D01*
X1242Y1845D01*
X1240Y1845D01*
X1240Y1843D01*
X1238Y1843D01*
X1238Y1841D01*
X1236Y1841D01*
X1236Y1821D01*
X1240Y1821D01*
X1240Y1819D01*
X1242Y1819D01*
X1242Y1817D01*
X1244Y1817D01*
X1244Y1815D01*
X1246Y1815D01*
X1246Y1813D01*
X1248Y1813D01*
X1248Y1811D01*
X1250Y1811D01*
X1250Y1807D01*
X1272Y1807D01*
X1272Y1811D01*
X1274Y1811D01*
X1274Y1813D01*
X1276Y1813D01*
X1276Y1815D01*
X1278Y1815D01*
X1278Y1817D01*
X1280Y1817D01*
X1280Y1819D01*
X1282Y1819D01*
X1282Y1821D01*
X1286Y1821D01*
X1286Y1841D01*
X1284Y1841D01*
X1284Y1843D01*
X1282Y1843D01*
X1282Y1845D01*
X1280Y1845D01*
X1280Y1847D01*
X1278Y1847D01*
X1278Y1849D01*
X1276Y1849D01*
X1276Y1851D01*
X1274Y1851D01*
X1274Y1853D01*
X1272Y1853D01*
X1272Y1855D01*
X1250Y1855D01*
G37*
D02*
G36*
X1350Y1757D02*
X1350Y1753D01*
X1348Y1753D01*
X1348Y1751D01*
X1346Y1751D01*
X1346Y1749D01*
X1344Y1749D01*
X1344Y1747D01*
X1342Y1747D01*
X1342Y1745D01*
X1340Y1745D01*
X1340Y1743D01*
X1338Y1743D01*
X1338Y1741D01*
X1336Y1741D01*
X1336Y1721D01*
X1338Y1721D01*
X1338Y1719D01*
X1340Y1719D01*
X1340Y1717D01*
X1344Y1717D01*
X1344Y1715D01*
X1346Y1715D01*
X1346Y1711D01*
X1348Y1711D01*
X1348Y1709D01*
X1350Y1709D01*
X1350Y1707D01*
X1372Y1707D01*
X1372Y1711D01*
X1374Y1711D01*
X1374Y1713D01*
X1376Y1713D01*
X1376Y1715D01*
X1378Y1715D01*
X1378Y1717D01*
X1380Y1717D01*
X1380Y1719D01*
X1382Y1719D01*
X1382Y1721D01*
X1386Y1721D01*
X1386Y1741D01*
X1384Y1741D01*
X1384Y1743D01*
X1382Y1743D01*
X1382Y1745D01*
X1380Y1745D01*
X1380Y1747D01*
X1378Y1747D01*
X1378Y1749D01*
X1376Y1749D01*
X1376Y1751D01*
X1374Y1751D01*
X1374Y1753D01*
X1372Y1753D01*
X1372Y1755D01*
X1370Y1755D01*
X1370Y1757D01*
X1350Y1757D01*
G37*
D02*
G36*
X1450Y1757D02*
X1450Y1753D01*
X1448Y1753D01*
X1448Y1751D01*
X1446Y1751D01*
X1446Y1749D01*
X1444Y1749D01*
X1444Y1747D01*
X1442Y1747D01*
X1442Y1745D01*
X1440Y1745D01*
X1440Y1743D01*
X1438Y1743D01*
X1438Y1741D01*
X1436Y1741D01*
X1436Y1721D01*
X1438Y1721D01*
X1438Y1719D01*
X1440Y1719D01*
X1440Y1717D01*
X1444Y1717D01*
X1444Y1715D01*
X1446Y1715D01*
X1446Y1711D01*
X1448Y1711D01*
X1448Y1709D01*
X1450Y1709D01*
X1450Y1707D01*
X1472Y1707D01*
X1472Y1709D01*
X1474Y1709D01*
X1474Y1711D01*
X1476Y1711D01*
X1476Y1715D01*
X1478Y1715D01*
X1478Y1717D01*
X1482Y1717D01*
X1482Y1719D01*
X1484Y1719D01*
X1484Y1721D01*
X1486Y1721D01*
X1486Y1741D01*
X1484Y1741D01*
X1484Y1743D01*
X1482Y1743D01*
X1482Y1745D01*
X1480Y1745D01*
X1480Y1747D01*
X1478Y1747D01*
X1478Y1749D01*
X1476Y1749D01*
X1476Y1751D01*
X1474Y1751D01*
X1474Y1753D01*
X1472Y1753D01*
X1472Y1755D01*
X1470Y1755D01*
X1470Y1757D01*
X1450Y1757D01*
G37*
D02*
G36*
X1150Y1755D02*
X1150Y1753D01*
X1148Y1753D01*
X1148Y1751D01*
X1146Y1751D01*
X1146Y1749D01*
X1144Y1749D01*
X1144Y1747D01*
X1142Y1747D01*
X1142Y1745D01*
X1140Y1745D01*
X1140Y1743D01*
X1138Y1743D01*
X1138Y1741D01*
X1136Y1741D01*
X1136Y1721D01*
X1138Y1721D01*
X1138Y1719D01*
X1140Y1719D01*
X1140Y1717D01*
X1144Y1717D01*
X1144Y1715D01*
X1146Y1715D01*
X1146Y1711D01*
X1148Y1711D01*
X1148Y1709D01*
X1150Y1709D01*
X1150Y1707D01*
X1172Y1707D01*
X1172Y1711D01*
X1174Y1711D01*
X1174Y1713D01*
X1176Y1713D01*
X1176Y1715D01*
X1178Y1715D01*
X1178Y1717D01*
X1180Y1717D01*
X1180Y1719D01*
X1182Y1719D01*
X1182Y1721D01*
X1186Y1721D01*
X1186Y1741D01*
X1184Y1741D01*
X1184Y1743D01*
X1182Y1743D01*
X1182Y1745D01*
X1180Y1745D01*
X1180Y1747D01*
X1178Y1747D01*
X1178Y1749D01*
X1176Y1749D01*
X1176Y1751D01*
X1174Y1751D01*
X1174Y1753D01*
X1172Y1753D01*
X1172Y1755D01*
X1150Y1755D01*
G37*
D02*
G36*
X1250Y1755D02*
X1250Y1753D01*
X1248Y1753D01*
X1248Y1751D01*
X1246Y1751D01*
X1246Y1749D01*
X1244Y1749D01*
X1244Y1747D01*
X1242Y1747D01*
X1242Y1745D01*
X1240Y1745D01*
X1240Y1743D01*
X1238Y1743D01*
X1238Y1741D01*
X1236Y1741D01*
X1236Y1721D01*
X1240Y1721D01*
X1240Y1719D01*
X1242Y1719D01*
X1242Y1717D01*
X1244Y1717D01*
X1244Y1715D01*
X1246Y1715D01*
X1246Y1713D01*
X1248Y1713D01*
X1248Y1711D01*
X1250Y1711D01*
X1250Y1707D01*
X1272Y1707D01*
X1272Y1711D01*
X1274Y1711D01*
X1274Y1713D01*
X1276Y1713D01*
X1276Y1715D01*
X1278Y1715D01*
X1278Y1717D01*
X1280Y1717D01*
X1280Y1719D01*
X1282Y1719D01*
X1282Y1721D01*
X1286Y1721D01*
X1286Y1741D01*
X1284Y1741D01*
X1284Y1743D01*
X1282Y1743D01*
X1282Y1745D01*
X1280Y1745D01*
X1280Y1747D01*
X1278Y1747D01*
X1278Y1749D01*
X1276Y1749D01*
X1276Y1751D01*
X1274Y1751D01*
X1274Y1753D01*
X1272Y1753D01*
X1272Y1755D01*
X1250Y1755D01*
G37*
D02*
G36*
X40Y1929D02*
X40Y1885D01*
X978Y1885D01*
X978Y1883D01*
X984Y1883D01*
X984Y1881D01*
X988Y1881D01*
X988Y1879D01*
X990Y1879D01*
X990Y1877D01*
X994Y1877D01*
X994Y1875D01*
X996Y1875D01*
X996Y1873D01*
X998Y1873D01*
X998Y1871D01*
X1002Y1871D01*
X1002Y1867D01*
X1004Y1867D01*
X1004Y1865D01*
X1006Y1865D01*
X1006Y1863D01*
X1008Y1863D01*
X1008Y1861D01*
X1010Y1861D01*
X1010Y1857D01*
X1012Y1857D01*
X1012Y1853D01*
X1014Y1853D01*
X1014Y1849D01*
X1016Y1849D01*
X1016Y1839D01*
X1018Y1839D01*
X1018Y1833D01*
X1016Y1833D01*
X1016Y1823D01*
X1014Y1823D01*
X1014Y1817D01*
X1012Y1817D01*
X1012Y1813D01*
X1010Y1813D01*
X1010Y1811D01*
X1008Y1811D01*
X1008Y1807D01*
X1006Y1807D01*
X1006Y1805D01*
X1004Y1805D01*
X1004Y1803D01*
X1002Y1803D01*
X1002Y1801D01*
X1000Y1801D01*
X1000Y1799D01*
X998Y1799D01*
X998Y1797D01*
X996Y1797D01*
X996Y1795D01*
X992Y1795D01*
X992Y1793D01*
X990Y1793D01*
X990Y1791D01*
X986Y1791D01*
X986Y1789D01*
X982Y1789D01*
X982Y1787D01*
X974Y1787D01*
X974Y1785D01*
X1062Y1785D01*
X1062Y1791D01*
X1064Y1791D01*
X1064Y1797D01*
X1066Y1797D01*
X1066Y1801D01*
X1068Y1801D01*
X1068Y1805D01*
X1070Y1805D01*
X1070Y1807D01*
X1072Y1807D01*
X1072Y1811D01*
X1074Y1811D01*
X1074Y1813D01*
X1076Y1813D01*
X1076Y1815D01*
X1078Y1815D01*
X1078Y1817D01*
X1080Y1817D01*
X1080Y1819D01*
X1084Y1819D01*
X1084Y1821D01*
X1086Y1821D01*
X1086Y1841D01*
X1084Y1841D01*
X1084Y1843D01*
X1082Y1843D01*
X1082Y1845D01*
X1080Y1845D01*
X1080Y1847D01*
X1076Y1847D01*
X1076Y1851D01*
X1074Y1851D01*
X1074Y1853D01*
X1072Y1853D01*
X1072Y1855D01*
X1070Y1855D01*
X1070Y1859D01*
X1068Y1859D01*
X1068Y1861D01*
X1066Y1861D01*
X1066Y1865D01*
X1064Y1865D01*
X1064Y1871D01*
X1062Y1871D01*
X1062Y1891D01*
X1064Y1891D01*
X1064Y1897D01*
X1066Y1897D01*
X1066Y1901D01*
X1068Y1901D01*
X1068Y1905D01*
X1070Y1905D01*
X1070Y1907D01*
X1072Y1907D01*
X1072Y1929D01*
X40Y1929D01*
G37*
D02*
G36*
X40Y1885D02*
X40Y1771D01*
X388Y1771D01*
X388Y1769D01*
X398Y1769D01*
X398Y1767D01*
X404Y1767D01*
X404Y1765D01*
X408Y1765D01*
X408Y1763D01*
X412Y1763D01*
X412Y1761D01*
X436Y1761D01*
X436Y1763D01*
X440Y1763D01*
X440Y1765D01*
X442Y1765D01*
X442Y1767D01*
X444Y1767D01*
X444Y1769D01*
X446Y1769D01*
X446Y1771D01*
X448Y1771D01*
X448Y1773D01*
X450Y1773D01*
X450Y1775D01*
X452Y1775D01*
X452Y1777D01*
X454Y1777D01*
X454Y1779D01*
X456Y1779D01*
X456Y1781D01*
X458Y1781D01*
X458Y1783D01*
X460Y1783D01*
X460Y1785D01*
X462Y1785D01*
X462Y1787D01*
X464Y1787D01*
X464Y1789D01*
X466Y1789D01*
X466Y1791D01*
X468Y1791D01*
X468Y1793D01*
X470Y1793D01*
X470Y1795D01*
X472Y1795D01*
X472Y1797D01*
X474Y1797D01*
X474Y1799D01*
X476Y1799D01*
X476Y1801D01*
X478Y1801D01*
X478Y1803D01*
X482Y1803D01*
X482Y1805D01*
X484Y1805D01*
X484Y1807D01*
X486Y1807D01*
X486Y1809D01*
X488Y1809D01*
X488Y1811D01*
X490Y1811D01*
X490Y1813D01*
X492Y1813D01*
X492Y1815D01*
X494Y1815D01*
X494Y1883D01*
X496Y1883D01*
X496Y1885D01*
X40Y1885D01*
G37*
D02*
G36*
X594Y1885D02*
X594Y1785D01*
X672Y1785D01*
X672Y1787D01*
X666Y1787D01*
X666Y1789D01*
X662Y1789D01*
X662Y1791D01*
X658Y1791D01*
X658Y1793D01*
X656Y1793D01*
X656Y1795D01*
X654Y1795D01*
X654Y1797D01*
X650Y1797D01*
X650Y1799D01*
X648Y1799D01*
X648Y1801D01*
X646Y1801D01*
X646Y1805D01*
X644Y1805D01*
X644Y1807D01*
X642Y1807D01*
X642Y1809D01*
X640Y1809D01*
X640Y1813D01*
X638Y1813D01*
X638Y1817D01*
X636Y1817D01*
X636Y1821D01*
X634Y1821D01*
X634Y1831D01*
X632Y1831D01*
X632Y1839D01*
X634Y1839D01*
X634Y1847D01*
X636Y1847D01*
X636Y1853D01*
X638Y1853D01*
X638Y1857D01*
X640Y1857D01*
X640Y1859D01*
X642Y1859D01*
X642Y1863D01*
X644Y1863D01*
X644Y1865D01*
X646Y1865D01*
X646Y1867D01*
X648Y1867D01*
X648Y1869D01*
X650Y1869D01*
X650Y1871D01*
X652Y1871D01*
X652Y1873D01*
X654Y1873D01*
X654Y1875D01*
X658Y1875D01*
X658Y1877D01*
X660Y1877D01*
X660Y1879D01*
X664Y1879D01*
X664Y1881D01*
X670Y1881D01*
X670Y1883D01*
X678Y1883D01*
X678Y1885D01*
X594Y1885D01*
G37*
D02*
G36*
X688Y1885D02*
X688Y1883D01*
X696Y1883D01*
X696Y1881D01*
X702Y1881D01*
X702Y1879D01*
X704Y1879D01*
X704Y1877D01*
X708Y1877D01*
X708Y1875D01*
X710Y1875D01*
X710Y1873D01*
X714Y1873D01*
X714Y1871D01*
X716Y1871D01*
X716Y1869D01*
X718Y1869D01*
X718Y1867D01*
X720Y1867D01*
X720Y1865D01*
X722Y1865D01*
X722Y1861D01*
X724Y1861D01*
X724Y1859D01*
X726Y1859D01*
X726Y1855D01*
X728Y1855D01*
X728Y1851D01*
X730Y1851D01*
X730Y1845D01*
X732Y1845D01*
X732Y1823D01*
X730Y1823D01*
X730Y1817D01*
X728Y1817D01*
X728Y1813D01*
X726Y1813D01*
X726Y1811D01*
X724Y1811D01*
X724Y1807D01*
X722Y1807D01*
X722Y1805D01*
X720Y1805D01*
X720Y1803D01*
X718Y1803D01*
X718Y1801D01*
X716Y1801D01*
X716Y1799D01*
X714Y1799D01*
X714Y1797D01*
X712Y1797D01*
X712Y1795D01*
X710Y1795D01*
X710Y1793D01*
X706Y1793D01*
X706Y1791D01*
X704Y1791D01*
X704Y1789D01*
X700Y1789D01*
X700Y1787D01*
X694Y1787D01*
X694Y1785D01*
X780Y1785D01*
X780Y1885D01*
X688Y1885D01*
G37*
D02*
G36*
X880Y1885D02*
X880Y1785D01*
X960Y1785D01*
X960Y1787D01*
X952Y1787D01*
X952Y1789D01*
X948Y1789D01*
X948Y1791D01*
X944Y1791D01*
X944Y1793D01*
X942Y1793D01*
X942Y1795D01*
X938Y1795D01*
X938Y1797D01*
X936Y1797D01*
X936Y1799D01*
X934Y1799D01*
X934Y1801D01*
X932Y1801D01*
X932Y1803D01*
X930Y1803D01*
X930Y1805D01*
X928Y1805D01*
X928Y1807D01*
X926Y1807D01*
X926Y1811D01*
X924Y1811D01*
X924Y1815D01*
X922Y1815D01*
X922Y1819D01*
X920Y1819D01*
X920Y1823D01*
X918Y1823D01*
X918Y1847D01*
X920Y1847D01*
X920Y1853D01*
X922Y1853D01*
X922Y1857D01*
X924Y1857D01*
X924Y1859D01*
X926Y1859D01*
X926Y1863D01*
X928Y1863D01*
X928Y1865D01*
X930Y1865D01*
X930Y1867D01*
X932Y1867D01*
X932Y1869D01*
X934Y1869D01*
X934Y1871D01*
X936Y1871D01*
X936Y1873D01*
X938Y1873D01*
X938Y1875D01*
X940Y1875D01*
X940Y1877D01*
X944Y1877D01*
X944Y1879D01*
X948Y1879D01*
X948Y1881D01*
X952Y1881D01*
X952Y1883D01*
X958Y1883D01*
X958Y1885D01*
X880Y1885D01*
G37*
D02*
G36*
X524Y1785D02*
X524Y1783D01*
X1062Y1783D01*
X1062Y1785D01*
X524Y1785D01*
G37*
D02*
G36*
X524Y1785D02*
X524Y1783D01*
X1062Y1783D01*
X1062Y1785D01*
X524Y1785D01*
G37*
D02*
G36*
X524Y1785D02*
X524Y1783D01*
X1062Y1783D01*
X1062Y1785D01*
X524Y1785D01*
G37*
D02*
G36*
X524Y1785D02*
X524Y1783D01*
X1062Y1783D01*
X1062Y1785D01*
X524Y1785D01*
G37*
D02*
G36*
X522Y1783D02*
X522Y1781D01*
X520Y1781D01*
X520Y1779D01*
X518Y1779D01*
X518Y1777D01*
X516Y1777D01*
X516Y1775D01*
X514Y1775D01*
X514Y1773D01*
X512Y1773D01*
X512Y1771D01*
X510Y1771D01*
X510Y1769D01*
X508Y1769D01*
X508Y1767D01*
X504Y1767D01*
X504Y1765D01*
X502Y1765D01*
X502Y1763D01*
X500Y1763D01*
X500Y1761D01*
X498Y1761D01*
X498Y1759D01*
X496Y1759D01*
X496Y1757D01*
X494Y1757D01*
X494Y1755D01*
X492Y1755D01*
X492Y1753D01*
X490Y1753D01*
X490Y1751D01*
X488Y1751D01*
X488Y1749D01*
X486Y1749D01*
X486Y1747D01*
X484Y1747D01*
X484Y1745D01*
X482Y1745D01*
X482Y1743D01*
X480Y1743D01*
X480Y1741D01*
X478Y1741D01*
X478Y1739D01*
X476Y1739D01*
X476Y1737D01*
X474Y1737D01*
X474Y1735D01*
X472Y1735D01*
X472Y1733D01*
X470Y1733D01*
X470Y1731D01*
X468Y1731D01*
X468Y1729D01*
X1022Y1729D01*
X1022Y1727D01*
X1028Y1727D01*
X1028Y1725D01*
X1032Y1725D01*
X1032Y1723D01*
X1036Y1723D01*
X1036Y1721D01*
X1038Y1721D01*
X1038Y1719D01*
X1040Y1719D01*
X1040Y1717D01*
X1044Y1717D01*
X1044Y1715D01*
X1046Y1715D01*
X1046Y1713D01*
X1048Y1713D01*
X1048Y1709D01*
X1050Y1709D01*
X1050Y1707D01*
X1072Y1707D01*
X1072Y1711D01*
X1074Y1711D01*
X1074Y1713D01*
X1076Y1713D01*
X1076Y1715D01*
X1078Y1715D01*
X1078Y1717D01*
X1080Y1717D01*
X1080Y1719D01*
X1084Y1719D01*
X1084Y1721D01*
X1086Y1721D01*
X1086Y1741D01*
X1084Y1741D01*
X1084Y1743D01*
X1082Y1743D01*
X1082Y1745D01*
X1080Y1745D01*
X1080Y1747D01*
X1076Y1747D01*
X1076Y1751D01*
X1074Y1751D01*
X1074Y1753D01*
X1072Y1753D01*
X1072Y1755D01*
X1070Y1755D01*
X1070Y1759D01*
X1068Y1759D01*
X1068Y1761D01*
X1066Y1761D01*
X1066Y1765D01*
X1064Y1765D01*
X1064Y1771D01*
X1062Y1771D01*
X1062Y1783D01*
X522Y1783D01*
G37*
D02*
G36*
X40Y1771D02*
X40Y1697D01*
X60Y1697D01*
X60Y1709D01*
X62Y1709D01*
X62Y1715D01*
X64Y1715D01*
X64Y1721D01*
X66Y1721D01*
X66Y1725D01*
X68Y1725D01*
X68Y1727D01*
X70Y1727D01*
X70Y1731D01*
X72Y1731D01*
X72Y1735D01*
X74Y1735D01*
X74Y1737D01*
X76Y1737D01*
X76Y1739D01*
X78Y1739D01*
X78Y1741D01*
X80Y1741D01*
X80Y1745D01*
X82Y1745D01*
X82Y1747D01*
X84Y1747D01*
X84Y1749D01*
X88Y1749D01*
X88Y1751D01*
X90Y1751D01*
X90Y1753D01*
X92Y1753D01*
X92Y1755D01*
X94Y1755D01*
X94Y1757D01*
X98Y1757D01*
X98Y1759D01*
X100Y1759D01*
X100Y1761D01*
X104Y1761D01*
X104Y1763D01*
X108Y1763D01*
X108Y1765D01*
X114Y1765D01*
X114Y1767D01*
X120Y1767D01*
X120Y1769D01*
X130Y1769D01*
X130Y1771D01*
X40Y1771D01*
G37*
D02*
G36*
X148Y1771D02*
X148Y1769D01*
X158Y1769D01*
X158Y1767D01*
X164Y1767D01*
X164Y1765D01*
X168Y1765D01*
X168Y1763D01*
X172Y1763D01*
X172Y1761D01*
X176Y1761D01*
X176Y1759D01*
X180Y1759D01*
X180Y1757D01*
X182Y1757D01*
X182Y1755D01*
X186Y1755D01*
X186Y1753D01*
X188Y1753D01*
X188Y1751D01*
X190Y1751D01*
X190Y1749D01*
X192Y1749D01*
X192Y1747D01*
X194Y1747D01*
X194Y1745D01*
X196Y1745D01*
X196Y1743D01*
X198Y1743D01*
X198Y1741D01*
X200Y1741D01*
X200Y1739D01*
X202Y1739D01*
X202Y1735D01*
X204Y1735D01*
X204Y1733D01*
X206Y1733D01*
X206Y1729D01*
X208Y1729D01*
X208Y1727D01*
X210Y1727D01*
X210Y1723D01*
X212Y1723D01*
X212Y1717D01*
X214Y1717D01*
X214Y1713D01*
X216Y1713D01*
X216Y1705D01*
X218Y1705D01*
X218Y1677D01*
X216Y1677D01*
X216Y1669D01*
X214Y1669D01*
X214Y1663D01*
X212Y1663D01*
X212Y1659D01*
X210Y1659D01*
X210Y1655D01*
X208Y1655D01*
X208Y1651D01*
X206Y1651D01*
X206Y1649D01*
X204Y1649D01*
X204Y1645D01*
X202Y1645D01*
X202Y1643D01*
X200Y1643D01*
X200Y1641D01*
X198Y1641D01*
X198Y1639D01*
X196Y1639D01*
X196Y1637D01*
X194Y1637D01*
X194Y1635D01*
X192Y1635D01*
X192Y1633D01*
X190Y1633D01*
X190Y1631D01*
X188Y1631D01*
X188Y1629D01*
X186Y1629D01*
X186Y1627D01*
X184Y1627D01*
X184Y1625D01*
X180Y1625D01*
X180Y1623D01*
X178Y1623D01*
X178Y1621D01*
X174Y1621D01*
X174Y1619D01*
X170Y1619D01*
X170Y1617D01*
X166Y1617D01*
X166Y1615D01*
X160Y1615D01*
X160Y1613D01*
X152Y1613D01*
X152Y1611D01*
X366Y1611D01*
X366Y1613D01*
X358Y1613D01*
X358Y1615D01*
X352Y1615D01*
X352Y1617D01*
X348Y1617D01*
X348Y1619D01*
X344Y1619D01*
X344Y1621D01*
X340Y1621D01*
X340Y1623D01*
X336Y1623D01*
X336Y1625D01*
X334Y1625D01*
X334Y1627D01*
X332Y1627D01*
X332Y1629D01*
X328Y1629D01*
X328Y1631D01*
X326Y1631D01*
X326Y1633D01*
X324Y1633D01*
X324Y1635D01*
X322Y1635D01*
X322Y1637D01*
X320Y1637D01*
X320Y1639D01*
X318Y1639D01*
X318Y1641D01*
X316Y1641D01*
X316Y1645D01*
X314Y1645D01*
X314Y1647D01*
X312Y1647D01*
X312Y1651D01*
X310Y1651D01*
X310Y1653D01*
X308Y1653D01*
X308Y1657D01*
X306Y1657D01*
X306Y1661D01*
X304Y1661D01*
X304Y1667D01*
X302Y1667D01*
X302Y1673D01*
X300Y1673D01*
X300Y1683D01*
X298Y1683D01*
X298Y1697D01*
X300Y1697D01*
X300Y1709D01*
X302Y1709D01*
X302Y1715D01*
X304Y1715D01*
X304Y1721D01*
X306Y1721D01*
X306Y1725D01*
X308Y1725D01*
X308Y1727D01*
X310Y1727D01*
X310Y1731D01*
X312Y1731D01*
X312Y1735D01*
X314Y1735D01*
X314Y1737D01*
X316Y1737D01*
X316Y1739D01*
X318Y1739D01*
X318Y1741D01*
X320Y1741D01*
X320Y1745D01*
X322Y1745D01*
X322Y1747D01*
X324Y1747D01*
X324Y1749D01*
X328Y1749D01*
X328Y1751D01*
X330Y1751D01*
X330Y1753D01*
X332Y1753D01*
X332Y1755D01*
X334Y1755D01*
X334Y1757D01*
X338Y1757D01*
X338Y1759D01*
X340Y1759D01*
X340Y1761D01*
X344Y1761D01*
X344Y1763D01*
X348Y1763D01*
X348Y1765D01*
X354Y1765D01*
X354Y1767D01*
X360Y1767D01*
X360Y1769D01*
X370Y1769D01*
X370Y1771D01*
X148Y1771D01*
G37*
D02*
G36*
X466Y1729D02*
X466Y1727D01*
X462Y1727D01*
X462Y1725D01*
X460Y1725D01*
X460Y1723D01*
X458Y1723D01*
X458Y1677D01*
X456Y1677D01*
X456Y1669D01*
X454Y1669D01*
X454Y1663D01*
X452Y1663D01*
X452Y1659D01*
X450Y1659D01*
X450Y1655D01*
X448Y1655D01*
X448Y1651D01*
X446Y1651D01*
X446Y1649D01*
X444Y1649D01*
X444Y1645D01*
X442Y1645D01*
X442Y1643D01*
X440Y1643D01*
X440Y1641D01*
X438Y1641D01*
X438Y1639D01*
X436Y1639D01*
X436Y1637D01*
X434Y1637D01*
X434Y1635D01*
X432Y1635D01*
X432Y1633D01*
X430Y1633D01*
X430Y1631D01*
X428Y1631D01*
X428Y1629D01*
X426Y1629D01*
X426Y1627D01*
X424Y1627D01*
X424Y1625D01*
X420Y1625D01*
X420Y1623D01*
X418Y1623D01*
X418Y1621D01*
X414Y1621D01*
X414Y1619D01*
X410Y1619D01*
X410Y1617D01*
X406Y1617D01*
X406Y1615D01*
X400Y1615D01*
X400Y1613D01*
X392Y1613D01*
X392Y1611D01*
X698Y1611D01*
X698Y1613D01*
X700Y1613D01*
X700Y1617D01*
X702Y1617D01*
X702Y1619D01*
X704Y1619D01*
X704Y1621D01*
X706Y1621D01*
X706Y1623D01*
X708Y1623D01*
X708Y1625D01*
X710Y1625D01*
X710Y1627D01*
X712Y1627D01*
X712Y1629D01*
X714Y1629D01*
X714Y1631D01*
X716Y1631D01*
X716Y1633D01*
X718Y1633D01*
X718Y1635D01*
X720Y1635D01*
X720Y1637D01*
X722Y1637D01*
X722Y1639D01*
X724Y1639D01*
X724Y1643D01*
X726Y1643D01*
X726Y1645D01*
X728Y1645D01*
X728Y1647D01*
X730Y1647D01*
X730Y1649D01*
X732Y1649D01*
X732Y1651D01*
X734Y1651D01*
X734Y1653D01*
X736Y1653D01*
X736Y1655D01*
X738Y1655D01*
X738Y1657D01*
X740Y1657D01*
X740Y1659D01*
X742Y1659D01*
X742Y1661D01*
X744Y1661D01*
X744Y1663D01*
X746Y1663D01*
X746Y1665D01*
X748Y1665D01*
X748Y1669D01*
X750Y1669D01*
X750Y1671D01*
X752Y1671D01*
X752Y1673D01*
X754Y1673D01*
X754Y1675D01*
X756Y1675D01*
X756Y1677D01*
X758Y1677D01*
X758Y1679D01*
X760Y1679D01*
X760Y1681D01*
X762Y1681D01*
X762Y1683D01*
X764Y1683D01*
X764Y1685D01*
X766Y1685D01*
X766Y1687D01*
X768Y1687D01*
X768Y1689D01*
X770Y1689D01*
X770Y1693D01*
X772Y1693D01*
X772Y1695D01*
X776Y1695D01*
X776Y1697D01*
X778Y1697D01*
X778Y1699D01*
X868Y1699D01*
X868Y1703D01*
X870Y1703D01*
X870Y1707D01*
X872Y1707D01*
X872Y1709D01*
X874Y1709D01*
X874Y1711D01*
X876Y1711D01*
X876Y1713D01*
X878Y1713D01*
X878Y1715D01*
X880Y1715D01*
X880Y1717D01*
X882Y1717D01*
X882Y1719D01*
X884Y1719D01*
X884Y1721D01*
X886Y1721D01*
X886Y1723D01*
X890Y1723D01*
X890Y1725D01*
X894Y1725D01*
X894Y1727D01*
X900Y1727D01*
X900Y1729D01*
X466Y1729D01*
G37*
D02*
G36*
X922Y1729D02*
X922Y1727D01*
X928Y1727D01*
X928Y1725D01*
X932Y1725D01*
X932Y1723D01*
X936Y1723D01*
X936Y1721D01*
X938Y1721D01*
X938Y1719D01*
X940Y1719D01*
X940Y1717D01*
X944Y1717D01*
X944Y1715D01*
X946Y1715D01*
X946Y1713D01*
X948Y1713D01*
X948Y1709D01*
X950Y1709D01*
X950Y1707D01*
X972Y1707D01*
X972Y1709D01*
X974Y1709D01*
X974Y1711D01*
X976Y1711D01*
X976Y1713D01*
X978Y1713D01*
X978Y1715D01*
X980Y1715D01*
X980Y1717D01*
X982Y1717D01*
X982Y1719D01*
X984Y1719D01*
X984Y1721D01*
X986Y1721D01*
X986Y1723D01*
X990Y1723D01*
X990Y1725D01*
X994Y1725D01*
X994Y1727D01*
X1000Y1727D01*
X1000Y1729D01*
X922Y1729D01*
G37*
D02*
G36*
X40Y1683D02*
X40Y1611D01*
X126Y1611D01*
X126Y1613D01*
X118Y1613D01*
X118Y1615D01*
X112Y1615D01*
X112Y1617D01*
X108Y1617D01*
X108Y1619D01*
X104Y1619D01*
X104Y1621D01*
X100Y1621D01*
X100Y1623D01*
X96Y1623D01*
X96Y1625D01*
X94Y1625D01*
X94Y1627D01*
X92Y1627D01*
X92Y1629D01*
X88Y1629D01*
X88Y1631D01*
X86Y1631D01*
X86Y1633D01*
X84Y1633D01*
X84Y1635D01*
X82Y1635D01*
X82Y1637D01*
X80Y1637D01*
X80Y1639D01*
X78Y1639D01*
X78Y1641D01*
X76Y1641D01*
X76Y1645D01*
X74Y1645D01*
X74Y1647D01*
X72Y1647D01*
X72Y1651D01*
X70Y1651D01*
X70Y1653D01*
X68Y1653D01*
X68Y1657D01*
X66Y1657D01*
X66Y1661D01*
X64Y1661D01*
X64Y1667D01*
X62Y1667D01*
X62Y1673D01*
X60Y1673D01*
X60Y1683D01*
X40Y1683D01*
G37*
D02*
G36*
X40Y1611D02*
X40Y1609D01*
X696Y1609D01*
X696Y1611D01*
X40Y1611D01*
G37*
D02*
G36*
X40Y1611D02*
X40Y1609D01*
X696Y1609D01*
X696Y1611D01*
X40Y1611D01*
G37*
D02*
G36*
X40Y1611D02*
X40Y1609D01*
X696Y1609D01*
X696Y1611D01*
X40Y1611D01*
G37*
D02*
G36*
X40Y1609D02*
X40Y1581D01*
X268Y1581D01*
X268Y1579D01*
X278Y1579D01*
X278Y1577D01*
X284Y1577D01*
X284Y1575D01*
X288Y1575D01*
X288Y1573D01*
X292Y1573D01*
X292Y1571D01*
X296Y1571D01*
X296Y1569D01*
X300Y1569D01*
X300Y1567D01*
X302Y1567D01*
X302Y1565D01*
X306Y1565D01*
X306Y1563D01*
X308Y1563D01*
X308Y1561D01*
X310Y1561D01*
X310Y1559D01*
X312Y1559D01*
X312Y1557D01*
X314Y1557D01*
X314Y1555D01*
X316Y1555D01*
X316Y1553D01*
X318Y1553D01*
X318Y1551D01*
X320Y1551D01*
X320Y1549D01*
X322Y1549D01*
X322Y1545D01*
X596Y1545D01*
X596Y1543D01*
X600Y1543D01*
X600Y1541D01*
X604Y1541D01*
X604Y1539D01*
X608Y1539D01*
X608Y1537D01*
X610Y1537D01*
X610Y1535D01*
X612Y1535D01*
X612Y1533D01*
X614Y1533D01*
X614Y1531D01*
X616Y1531D01*
X616Y1529D01*
X636Y1529D01*
X636Y1539D01*
X638Y1539D01*
X638Y1547D01*
X640Y1547D01*
X640Y1551D01*
X642Y1551D01*
X642Y1553D01*
X644Y1553D01*
X644Y1555D01*
X646Y1555D01*
X646Y1557D01*
X648Y1557D01*
X648Y1559D01*
X650Y1559D01*
X650Y1561D01*
X652Y1561D01*
X652Y1563D01*
X654Y1563D01*
X654Y1567D01*
X656Y1567D01*
X656Y1569D01*
X658Y1569D01*
X658Y1571D01*
X660Y1571D01*
X660Y1573D01*
X662Y1573D01*
X662Y1575D01*
X664Y1575D01*
X664Y1577D01*
X666Y1577D01*
X666Y1579D01*
X668Y1579D01*
X668Y1581D01*
X670Y1581D01*
X670Y1583D01*
X672Y1583D01*
X672Y1585D01*
X674Y1585D01*
X674Y1587D01*
X676Y1587D01*
X676Y1591D01*
X678Y1591D01*
X678Y1593D01*
X680Y1593D01*
X680Y1595D01*
X682Y1595D01*
X682Y1597D01*
X684Y1597D01*
X684Y1599D01*
X686Y1599D01*
X686Y1601D01*
X688Y1601D01*
X688Y1603D01*
X690Y1603D01*
X690Y1605D01*
X692Y1605D01*
X692Y1607D01*
X694Y1607D01*
X694Y1609D01*
X40Y1609D01*
G37*
D02*
G36*
X40Y1581D02*
X40Y1421D01*
X246Y1421D01*
X246Y1423D01*
X238Y1423D01*
X238Y1425D01*
X232Y1425D01*
X232Y1427D01*
X228Y1427D01*
X228Y1429D01*
X224Y1429D01*
X224Y1431D01*
X220Y1431D01*
X220Y1433D01*
X216Y1433D01*
X216Y1435D01*
X214Y1435D01*
X214Y1437D01*
X212Y1437D01*
X212Y1439D01*
X208Y1439D01*
X208Y1441D01*
X206Y1441D01*
X206Y1443D01*
X204Y1443D01*
X204Y1445D01*
X202Y1445D01*
X202Y1447D01*
X200Y1447D01*
X200Y1449D01*
X198Y1449D01*
X198Y1451D01*
X196Y1451D01*
X196Y1455D01*
X194Y1455D01*
X194Y1457D01*
X192Y1457D01*
X192Y1461D01*
X190Y1461D01*
X190Y1463D01*
X188Y1463D01*
X188Y1467D01*
X186Y1467D01*
X186Y1471D01*
X184Y1471D01*
X184Y1477D01*
X182Y1477D01*
X182Y1483D01*
X180Y1483D01*
X180Y1493D01*
X178Y1493D01*
X178Y1507D01*
X180Y1507D01*
X180Y1519D01*
X182Y1519D01*
X182Y1525D01*
X184Y1525D01*
X184Y1531D01*
X186Y1531D01*
X186Y1535D01*
X188Y1535D01*
X188Y1537D01*
X190Y1537D01*
X190Y1541D01*
X192Y1541D01*
X192Y1545D01*
X194Y1545D01*
X194Y1547D01*
X196Y1547D01*
X196Y1549D01*
X198Y1549D01*
X198Y1551D01*
X200Y1551D01*
X200Y1555D01*
X202Y1555D01*
X202Y1557D01*
X204Y1557D01*
X204Y1559D01*
X208Y1559D01*
X208Y1561D01*
X210Y1561D01*
X210Y1563D01*
X212Y1563D01*
X212Y1565D01*
X214Y1565D01*
X214Y1567D01*
X218Y1567D01*
X218Y1569D01*
X220Y1569D01*
X220Y1571D01*
X224Y1571D01*
X224Y1573D01*
X228Y1573D01*
X228Y1575D01*
X234Y1575D01*
X234Y1577D01*
X240Y1577D01*
X240Y1579D01*
X250Y1579D01*
X250Y1581D01*
X40Y1581D01*
G37*
D02*
G36*
X324Y1545D02*
X324Y1543D01*
X326Y1543D01*
X326Y1539D01*
X328Y1539D01*
X328Y1537D01*
X330Y1537D01*
X330Y1533D01*
X332Y1533D01*
X332Y1527D01*
X334Y1527D01*
X334Y1523D01*
X336Y1523D01*
X336Y1515D01*
X338Y1515D01*
X338Y1487D01*
X336Y1487D01*
X336Y1479D01*
X334Y1479D01*
X334Y1473D01*
X332Y1473D01*
X332Y1469D01*
X330Y1469D01*
X330Y1465D01*
X328Y1465D01*
X328Y1461D01*
X326Y1461D01*
X326Y1459D01*
X324Y1459D01*
X324Y1457D01*
X576Y1457D01*
X576Y1459D01*
X570Y1459D01*
X570Y1461D01*
X566Y1461D01*
X566Y1463D01*
X562Y1463D01*
X562Y1465D01*
X560Y1465D01*
X560Y1467D01*
X558Y1467D01*
X558Y1469D01*
X554Y1469D01*
X554Y1471D01*
X552Y1471D01*
X552Y1475D01*
X550Y1475D01*
X550Y1477D01*
X548Y1477D01*
X548Y1479D01*
X546Y1479D01*
X546Y1483D01*
X544Y1483D01*
X544Y1487D01*
X542Y1487D01*
X542Y1493D01*
X540Y1493D01*
X540Y1511D01*
X542Y1511D01*
X542Y1517D01*
X544Y1517D01*
X544Y1521D01*
X546Y1521D01*
X546Y1523D01*
X548Y1523D01*
X548Y1527D01*
X550Y1527D01*
X550Y1529D01*
X552Y1529D01*
X552Y1531D01*
X554Y1531D01*
X554Y1533D01*
X556Y1533D01*
X556Y1535D01*
X558Y1535D01*
X558Y1537D01*
X560Y1537D01*
X560Y1539D01*
X564Y1539D01*
X564Y1541D01*
X568Y1541D01*
X568Y1543D01*
X574Y1543D01*
X574Y1545D01*
X324Y1545D01*
G37*
D02*
G36*
X616Y1473D02*
X616Y1471D01*
X614Y1471D01*
X614Y1469D01*
X612Y1469D01*
X612Y1467D01*
X608Y1467D01*
X608Y1465D01*
X606Y1465D01*
X606Y1463D01*
X602Y1463D01*
X602Y1461D01*
X598Y1461D01*
X598Y1459D01*
X592Y1459D01*
X592Y1457D01*
X636Y1457D01*
X636Y1473D01*
X616Y1473D01*
G37*
D02*
G36*
X324Y1457D02*
X324Y1455D01*
X636Y1455D01*
X636Y1457D01*
X324Y1457D01*
G37*
D02*
G36*
X324Y1457D02*
X324Y1455D01*
X636Y1455D01*
X636Y1457D01*
X324Y1457D01*
G37*
D02*
G36*
X322Y1455D02*
X322Y1453D01*
X320Y1453D01*
X320Y1451D01*
X318Y1451D01*
X318Y1449D01*
X316Y1449D01*
X316Y1447D01*
X314Y1447D01*
X314Y1445D01*
X312Y1445D01*
X312Y1443D01*
X310Y1443D01*
X310Y1441D01*
X308Y1441D01*
X308Y1439D01*
X306Y1439D01*
X306Y1437D01*
X304Y1437D01*
X304Y1435D01*
X300Y1435D01*
X300Y1433D01*
X298Y1433D01*
X298Y1431D01*
X294Y1431D01*
X294Y1429D01*
X290Y1429D01*
X290Y1427D01*
X286Y1427D01*
X286Y1425D01*
X280Y1425D01*
X280Y1423D01*
X272Y1423D01*
X272Y1421D01*
X602Y1421D01*
X602Y1423D01*
X604Y1423D01*
X604Y1425D01*
X606Y1425D01*
X606Y1427D01*
X608Y1427D01*
X608Y1429D01*
X610Y1429D01*
X610Y1431D01*
X612Y1431D01*
X612Y1433D01*
X614Y1433D01*
X614Y1435D01*
X616Y1435D01*
X616Y1437D01*
X618Y1437D01*
X618Y1439D01*
X620Y1439D01*
X620Y1441D01*
X622Y1441D01*
X622Y1443D01*
X624Y1443D01*
X624Y1445D01*
X626Y1445D01*
X626Y1447D01*
X628Y1447D01*
X628Y1449D01*
X630Y1449D01*
X630Y1451D01*
X632Y1451D01*
X632Y1453D01*
X634Y1453D01*
X634Y1455D01*
X322Y1455D01*
G37*
D02*
G36*
X40Y1421D02*
X40Y1419D01*
X600Y1419D01*
X600Y1421D01*
X40Y1421D01*
G37*
D02*
G36*
X40Y1421D02*
X40Y1419D01*
X600Y1419D01*
X600Y1421D01*
X40Y1421D01*
G37*
D02*
G36*
X40Y1419D02*
X40Y975D01*
X60Y975D01*
X60Y977D01*
X62Y977D01*
X62Y979D01*
X64Y979D01*
X64Y981D01*
X66Y981D01*
X66Y983D01*
X68Y983D01*
X68Y985D01*
X72Y985D01*
X72Y987D01*
X76Y987D01*
X76Y989D01*
X94Y989D01*
X94Y1011D01*
X96Y1011D01*
X96Y1015D01*
X98Y1015D01*
X98Y1017D01*
X100Y1017D01*
X100Y1019D01*
X102Y1019D01*
X102Y1021D01*
X104Y1021D01*
X104Y1023D01*
X106Y1023D01*
X106Y1025D01*
X108Y1025D01*
X108Y1027D01*
X112Y1027D01*
X112Y1029D01*
X116Y1029D01*
X116Y1031D01*
X130Y1031D01*
X130Y1033D01*
X132Y1033D01*
X132Y1035D01*
X134Y1035D01*
X134Y1037D01*
X136Y1037D01*
X136Y1039D01*
X138Y1039D01*
X138Y1041D01*
X140Y1041D01*
X140Y1043D01*
X142Y1043D01*
X142Y1045D01*
X144Y1045D01*
X144Y1047D01*
X146Y1047D01*
X146Y1049D01*
X148Y1049D01*
X148Y1051D01*
X150Y1051D01*
X150Y1053D01*
X152Y1053D01*
X152Y1055D01*
X154Y1055D01*
X154Y1057D01*
X158Y1057D01*
X158Y1059D01*
X160Y1059D01*
X160Y1061D01*
X162Y1061D01*
X162Y1063D01*
X164Y1063D01*
X164Y1065D01*
X166Y1065D01*
X166Y1067D01*
X168Y1067D01*
X168Y1069D01*
X170Y1069D01*
X170Y1071D01*
X172Y1071D01*
X172Y1073D01*
X174Y1073D01*
X174Y1075D01*
X176Y1075D01*
X176Y1077D01*
X178Y1077D01*
X178Y1079D01*
X180Y1079D01*
X180Y1081D01*
X182Y1081D01*
X182Y1083D01*
X186Y1083D01*
X186Y1085D01*
X188Y1085D01*
X188Y1087D01*
X190Y1087D01*
X190Y1089D01*
X192Y1089D01*
X192Y1091D01*
X194Y1091D01*
X194Y1093D01*
X196Y1093D01*
X196Y1095D01*
X198Y1095D01*
X198Y1097D01*
X200Y1097D01*
X200Y1099D01*
X202Y1099D01*
X202Y1101D01*
X204Y1101D01*
X204Y1103D01*
X208Y1103D01*
X208Y1105D01*
X212Y1105D01*
X212Y1107D01*
X438Y1107D01*
X438Y1109D01*
X440Y1109D01*
X440Y1111D01*
X442Y1111D01*
X442Y1113D01*
X444Y1113D01*
X444Y1115D01*
X446Y1115D01*
X446Y1117D01*
X448Y1117D01*
X448Y1119D01*
X450Y1119D01*
X450Y1121D01*
X452Y1121D01*
X452Y1123D01*
X454Y1123D01*
X454Y1125D01*
X456Y1125D01*
X456Y1127D01*
X458Y1127D01*
X458Y1129D01*
X460Y1129D01*
X460Y1131D01*
X462Y1131D01*
X462Y1133D01*
X464Y1133D01*
X464Y1135D01*
X466Y1135D01*
X466Y1137D01*
X468Y1137D01*
X468Y1285D01*
X470Y1285D01*
X470Y1291D01*
X472Y1291D01*
X472Y1293D01*
X474Y1293D01*
X474Y1297D01*
X476Y1297D01*
X476Y1299D01*
X478Y1299D01*
X478Y1301D01*
X480Y1301D01*
X480Y1303D01*
X482Y1303D01*
X482Y1305D01*
X484Y1305D01*
X484Y1307D01*
X486Y1307D01*
X486Y1309D01*
X488Y1309D01*
X488Y1311D01*
X490Y1311D01*
X490Y1313D01*
X494Y1313D01*
X494Y1315D01*
X496Y1315D01*
X496Y1317D01*
X498Y1317D01*
X498Y1319D01*
X500Y1319D01*
X500Y1321D01*
X502Y1321D01*
X502Y1323D01*
X504Y1323D01*
X504Y1325D01*
X506Y1325D01*
X506Y1327D01*
X508Y1327D01*
X508Y1329D01*
X510Y1329D01*
X510Y1331D01*
X512Y1331D01*
X512Y1333D01*
X514Y1333D01*
X514Y1335D01*
X516Y1335D01*
X516Y1337D01*
X518Y1337D01*
X518Y1339D01*
X520Y1339D01*
X520Y1341D01*
X522Y1341D01*
X522Y1343D01*
X524Y1343D01*
X524Y1345D01*
X526Y1345D01*
X526Y1347D01*
X528Y1347D01*
X528Y1349D01*
X530Y1349D01*
X530Y1351D01*
X532Y1351D01*
X532Y1353D01*
X534Y1353D01*
X534Y1355D01*
X536Y1355D01*
X536Y1357D01*
X538Y1357D01*
X538Y1359D01*
X540Y1359D01*
X540Y1361D01*
X542Y1361D01*
X542Y1363D01*
X544Y1363D01*
X544Y1365D01*
X546Y1365D01*
X546Y1367D01*
X548Y1367D01*
X548Y1369D01*
X550Y1369D01*
X550Y1371D01*
X552Y1371D01*
X552Y1373D01*
X554Y1373D01*
X554Y1375D01*
X556Y1375D01*
X556Y1377D01*
X558Y1377D01*
X558Y1379D01*
X560Y1379D01*
X560Y1381D01*
X562Y1381D01*
X562Y1383D01*
X564Y1383D01*
X564Y1385D01*
X566Y1385D01*
X566Y1387D01*
X568Y1387D01*
X568Y1389D01*
X570Y1389D01*
X570Y1391D01*
X572Y1391D01*
X572Y1393D01*
X574Y1393D01*
X574Y1395D01*
X576Y1395D01*
X576Y1397D01*
X578Y1397D01*
X578Y1399D01*
X580Y1399D01*
X580Y1401D01*
X582Y1401D01*
X582Y1403D01*
X584Y1403D01*
X584Y1405D01*
X586Y1405D01*
X586Y1407D01*
X588Y1407D01*
X588Y1409D01*
X590Y1409D01*
X590Y1411D01*
X592Y1411D01*
X592Y1413D01*
X594Y1413D01*
X594Y1415D01*
X596Y1415D01*
X596Y1417D01*
X598Y1417D01*
X598Y1419D01*
X40Y1419D01*
G37*
D02*
G36*
X792Y1663D02*
X792Y1661D01*
X790Y1661D01*
X790Y1659D01*
X788Y1659D01*
X788Y1657D01*
X786Y1657D01*
X786Y1655D01*
X784Y1655D01*
X784Y1651D01*
X782Y1651D01*
X782Y1649D01*
X780Y1649D01*
X780Y1647D01*
X778Y1647D01*
X778Y1645D01*
X776Y1645D01*
X776Y1643D01*
X774Y1643D01*
X774Y1641D01*
X772Y1641D01*
X772Y1639D01*
X770Y1639D01*
X770Y1637D01*
X768Y1637D01*
X768Y1635D01*
X766Y1635D01*
X766Y1633D01*
X764Y1633D01*
X764Y1631D01*
X762Y1631D01*
X762Y1629D01*
X760Y1629D01*
X760Y1625D01*
X758Y1625D01*
X758Y1623D01*
X756Y1623D01*
X756Y1621D01*
X754Y1621D01*
X754Y1619D01*
X752Y1619D01*
X752Y1617D01*
X750Y1617D01*
X750Y1615D01*
X748Y1615D01*
X748Y1613D01*
X746Y1613D01*
X746Y1611D01*
X744Y1611D01*
X744Y1609D01*
X742Y1609D01*
X742Y1607D01*
X740Y1607D01*
X740Y1605D01*
X738Y1605D01*
X738Y1603D01*
X736Y1603D01*
X736Y1599D01*
X734Y1599D01*
X734Y1597D01*
X732Y1597D01*
X732Y1595D01*
X730Y1595D01*
X730Y1593D01*
X728Y1593D01*
X728Y1591D01*
X726Y1591D01*
X726Y1589D01*
X724Y1589D01*
X724Y1587D01*
X722Y1587D01*
X722Y1585D01*
X720Y1585D01*
X720Y1583D01*
X718Y1583D01*
X718Y1581D01*
X716Y1581D01*
X716Y1579D01*
X714Y1579D01*
X714Y1575D01*
X712Y1575D01*
X712Y1573D01*
X710Y1573D01*
X710Y1571D01*
X708Y1571D01*
X708Y1569D01*
X706Y1569D01*
X706Y1567D01*
X704Y1567D01*
X704Y1565D01*
X702Y1565D01*
X702Y1563D01*
X700Y1563D01*
X700Y1561D01*
X698Y1561D01*
X698Y1559D01*
X696Y1559D01*
X696Y1557D01*
X694Y1557D01*
X694Y1555D01*
X692Y1555D01*
X692Y1553D01*
X690Y1553D01*
X690Y1549D01*
X688Y1549D01*
X688Y1547D01*
X686Y1547D01*
X686Y1545D01*
X740Y1545D01*
X740Y1543D01*
X744Y1543D01*
X744Y1541D01*
X748Y1541D01*
X748Y1539D01*
X752Y1539D01*
X752Y1537D01*
X754Y1537D01*
X754Y1535D01*
X756Y1535D01*
X756Y1533D01*
X758Y1533D01*
X758Y1531D01*
X760Y1531D01*
X760Y1529D01*
X762Y1529D01*
X762Y1527D01*
X764Y1527D01*
X764Y1523D01*
X766Y1523D01*
X766Y1521D01*
X768Y1521D01*
X768Y1517D01*
X770Y1517D01*
X770Y1511D01*
X772Y1511D01*
X772Y1493D01*
X770Y1493D01*
X770Y1487D01*
X768Y1487D01*
X768Y1485D01*
X788Y1485D01*
X788Y1487D01*
X790Y1487D01*
X790Y1489D01*
X792Y1489D01*
X792Y1491D01*
X794Y1491D01*
X794Y1493D01*
X796Y1493D01*
X796Y1495D01*
X798Y1495D01*
X798Y1497D01*
X800Y1497D01*
X800Y1499D01*
X802Y1499D01*
X802Y1501D01*
X804Y1501D01*
X804Y1503D01*
X806Y1503D01*
X806Y1505D01*
X808Y1505D01*
X808Y1507D01*
X810Y1507D01*
X810Y1509D01*
X812Y1509D01*
X812Y1511D01*
X814Y1511D01*
X814Y1513D01*
X816Y1513D01*
X816Y1515D01*
X818Y1515D01*
X818Y1517D01*
X820Y1517D01*
X820Y1519D01*
X822Y1519D01*
X822Y1521D01*
X824Y1521D01*
X824Y1523D01*
X826Y1523D01*
X826Y1525D01*
X828Y1525D01*
X828Y1527D01*
X830Y1527D01*
X830Y1529D01*
X834Y1529D01*
X834Y1531D01*
X836Y1531D01*
X836Y1533D01*
X838Y1533D01*
X838Y1535D01*
X840Y1535D01*
X840Y1537D01*
X842Y1537D01*
X842Y1539D01*
X844Y1539D01*
X844Y1541D01*
X846Y1541D01*
X846Y1543D01*
X848Y1543D01*
X848Y1545D01*
X850Y1545D01*
X850Y1547D01*
X852Y1547D01*
X852Y1549D01*
X854Y1549D01*
X854Y1551D01*
X856Y1551D01*
X856Y1553D01*
X858Y1553D01*
X858Y1555D01*
X860Y1555D01*
X860Y1557D01*
X862Y1557D01*
X862Y1589D01*
X864Y1589D01*
X864Y1595D01*
X866Y1595D01*
X866Y1599D01*
X868Y1599D01*
X868Y1603D01*
X870Y1603D01*
X870Y1607D01*
X872Y1607D01*
X872Y1609D01*
X874Y1609D01*
X874Y1611D01*
X876Y1611D01*
X876Y1613D01*
X878Y1613D01*
X878Y1615D01*
X880Y1615D01*
X880Y1617D01*
X882Y1617D01*
X882Y1619D01*
X884Y1619D01*
X884Y1621D01*
X886Y1621D01*
X886Y1641D01*
X884Y1641D01*
X884Y1643D01*
X882Y1643D01*
X882Y1645D01*
X880Y1645D01*
X880Y1647D01*
X878Y1647D01*
X878Y1649D01*
X876Y1649D01*
X876Y1651D01*
X874Y1651D01*
X874Y1653D01*
X872Y1653D01*
X872Y1655D01*
X870Y1655D01*
X870Y1659D01*
X868Y1659D01*
X868Y1663D01*
X792Y1663D01*
G37*
D02*
G36*
X684Y1545D02*
X684Y1543D01*
X682Y1543D01*
X682Y1541D01*
X680Y1541D01*
X680Y1539D01*
X678Y1539D01*
X678Y1537D01*
X676Y1537D01*
X676Y1535D01*
X674Y1535D01*
X674Y1533D01*
X672Y1533D01*
X672Y1525D01*
X692Y1525D01*
X692Y1527D01*
X694Y1527D01*
X694Y1529D01*
X696Y1529D01*
X696Y1531D01*
X698Y1531D01*
X698Y1533D01*
X700Y1533D01*
X700Y1535D01*
X702Y1535D01*
X702Y1537D01*
X704Y1537D01*
X704Y1539D01*
X708Y1539D01*
X708Y1541D01*
X712Y1541D01*
X712Y1543D01*
X716Y1543D01*
X716Y1545D01*
X684Y1545D01*
G37*
D02*
G36*
X1350Y1657D02*
X1350Y1653D01*
X1348Y1653D01*
X1348Y1651D01*
X1346Y1651D01*
X1346Y1649D01*
X1344Y1649D01*
X1344Y1647D01*
X1342Y1647D01*
X1342Y1645D01*
X1340Y1645D01*
X1340Y1643D01*
X1338Y1643D01*
X1338Y1641D01*
X1336Y1641D01*
X1336Y1621D01*
X1338Y1621D01*
X1338Y1619D01*
X1340Y1619D01*
X1340Y1617D01*
X1344Y1617D01*
X1344Y1615D01*
X1346Y1615D01*
X1346Y1611D01*
X1348Y1611D01*
X1348Y1609D01*
X1350Y1609D01*
X1350Y1607D01*
X1372Y1607D01*
X1372Y1611D01*
X1374Y1611D01*
X1374Y1613D01*
X1376Y1613D01*
X1376Y1615D01*
X1378Y1615D01*
X1378Y1617D01*
X1380Y1617D01*
X1380Y1619D01*
X1382Y1619D01*
X1382Y1621D01*
X1386Y1621D01*
X1386Y1641D01*
X1384Y1641D01*
X1384Y1643D01*
X1382Y1643D01*
X1382Y1645D01*
X1380Y1645D01*
X1380Y1647D01*
X1378Y1647D01*
X1378Y1649D01*
X1376Y1649D01*
X1376Y1651D01*
X1374Y1651D01*
X1374Y1653D01*
X1372Y1653D01*
X1372Y1655D01*
X1370Y1655D01*
X1370Y1657D01*
X1350Y1657D01*
G37*
D02*
G36*
X1450Y1657D02*
X1450Y1653D01*
X1448Y1653D01*
X1448Y1651D01*
X1446Y1651D01*
X1446Y1649D01*
X1444Y1649D01*
X1444Y1647D01*
X1442Y1647D01*
X1442Y1645D01*
X1440Y1645D01*
X1440Y1643D01*
X1438Y1643D01*
X1438Y1641D01*
X1436Y1641D01*
X1436Y1621D01*
X1438Y1621D01*
X1438Y1619D01*
X1440Y1619D01*
X1440Y1617D01*
X1444Y1617D01*
X1444Y1615D01*
X1446Y1615D01*
X1446Y1611D01*
X1448Y1611D01*
X1448Y1609D01*
X1450Y1609D01*
X1450Y1607D01*
X1472Y1607D01*
X1472Y1609D01*
X1474Y1609D01*
X1474Y1611D01*
X1476Y1611D01*
X1476Y1615D01*
X1478Y1615D01*
X1478Y1617D01*
X1482Y1617D01*
X1482Y1619D01*
X1484Y1619D01*
X1484Y1621D01*
X1486Y1621D01*
X1486Y1641D01*
X1484Y1641D01*
X1484Y1643D01*
X1482Y1643D01*
X1482Y1645D01*
X1480Y1645D01*
X1480Y1647D01*
X1478Y1647D01*
X1478Y1649D01*
X1476Y1649D01*
X1476Y1651D01*
X1474Y1651D01*
X1474Y1653D01*
X1472Y1653D01*
X1472Y1655D01*
X1470Y1655D01*
X1470Y1657D01*
X1450Y1657D01*
G37*
D02*
G36*
X950Y1655D02*
X950Y1653D01*
X948Y1653D01*
X948Y1649D01*
X946Y1649D01*
X946Y1647D01*
X944Y1647D01*
X944Y1645D01*
X940Y1645D01*
X940Y1643D01*
X938Y1643D01*
X938Y1641D01*
X936Y1641D01*
X936Y1621D01*
X938Y1621D01*
X938Y1619D01*
X940Y1619D01*
X940Y1617D01*
X944Y1617D01*
X944Y1615D01*
X946Y1615D01*
X946Y1613D01*
X948Y1613D01*
X948Y1609D01*
X950Y1609D01*
X950Y1607D01*
X972Y1607D01*
X972Y1609D01*
X974Y1609D01*
X974Y1611D01*
X976Y1611D01*
X976Y1613D01*
X978Y1613D01*
X978Y1615D01*
X980Y1615D01*
X980Y1617D01*
X982Y1617D01*
X982Y1619D01*
X984Y1619D01*
X984Y1621D01*
X986Y1621D01*
X986Y1641D01*
X984Y1641D01*
X984Y1643D01*
X982Y1643D01*
X982Y1645D01*
X980Y1645D01*
X980Y1647D01*
X978Y1647D01*
X978Y1649D01*
X976Y1649D01*
X976Y1651D01*
X974Y1651D01*
X974Y1653D01*
X972Y1653D01*
X972Y1655D01*
X950Y1655D01*
G37*
D02*
G36*
X1050Y1655D02*
X1050Y1653D01*
X1048Y1653D01*
X1048Y1649D01*
X1046Y1649D01*
X1046Y1647D01*
X1044Y1647D01*
X1044Y1645D01*
X1040Y1645D01*
X1040Y1643D01*
X1038Y1643D01*
X1038Y1641D01*
X1036Y1641D01*
X1036Y1621D01*
X1038Y1621D01*
X1038Y1619D01*
X1040Y1619D01*
X1040Y1617D01*
X1044Y1617D01*
X1044Y1615D01*
X1046Y1615D01*
X1046Y1613D01*
X1048Y1613D01*
X1048Y1609D01*
X1050Y1609D01*
X1050Y1607D01*
X1072Y1607D01*
X1072Y1611D01*
X1074Y1611D01*
X1074Y1613D01*
X1076Y1613D01*
X1076Y1615D01*
X1078Y1615D01*
X1078Y1617D01*
X1080Y1617D01*
X1080Y1619D01*
X1084Y1619D01*
X1084Y1621D01*
X1086Y1621D01*
X1086Y1641D01*
X1084Y1641D01*
X1084Y1643D01*
X1082Y1643D01*
X1082Y1645D01*
X1080Y1645D01*
X1080Y1647D01*
X1076Y1647D01*
X1076Y1651D01*
X1074Y1651D01*
X1074Y1653D01*
X1072Y1653D01*
X1072Y1655D01*
X1050Y1655D01*
G37*
D02*
G36*
X1150Y1655D02*
X1150Y1653D01*
X1148Y1653D01*
X1148Y1651D01*
X1146Y1651D01*
X1146Y1649D01*
X1144Y1649D01*
X1144Y1647D01*
X1142Y1647D01*
X1142Y1645D01*
X1140Y1645D01*
X1140Y1643D01*
X1138Y1643D01*
X1138Y1641D01*
X1136Y1641D01*
X1136Y1621D01*
X1138Y1621D01*
X1138Y1619D01*
X1140Y1619D01*
X1140Y1617D01*
X1144Y1617D01*
X1144Y1615D01*
X1146Y1615D01*
X1146Y1611D01*
X1148Y1611D01*
X1148Y1609D01*
X1150Y1609D01*
X1150Y1607D01*
X1172Y1607D01*
X1172Y1611D01*
X1174Y1611D01*
X1174Y1613D01*
X1176Y1613D01*
X1176Y1615D01*
X1178Y1615D01*
X1178Y1617D01*
X1180Y1617D01*
X1180Y1619D01*
X1182Y1619D01*
X1182Y1621D01*
X1186Y1621D01*
X1186Y1641D01*
X1184Y1641D01*
X1184Y1643D01*
X1182Y1643D01*
X1182Y1645D01*
X1180Y1645D01*
X1180Y1647D01*
X1178Y1647D01*
X1178Y1649D01*
X1176Y1649D01*
X1176Y1651D01*
X1174Y1651D01*
X1174Y1653D01*
X1172Y1653D01*
X1172Y1655D01*
X1150Y1655D01*
G37*
D02*
G36*
X1250Y1655D02*
X1250Y1653D01*
X1248Y1653D01*
X1248Y1651D01*
X1246Y1651D01*
X1246Y1649D01*
X1244Y1649D01*
X1244Y1647D01*
X1242Y1647D01*
X1242Y1645D01*
X1240Y1645D01*
X1240Y1643D01*
X1238Y1643D01*
X1238Y1641D01*
X1236Y1641D01*
X1236Y1621D01*
X1240Y1621D01*
X1240Y1619D01*
X1242Y1619D01*
X1242Y1617D01*
X1244Y1617D01*
X1244Y1615D01*
X1246Y1615D01*
X1246Y1613D01*
X1248Y1613D01*
X1248Y1611D01*
X1250Y1611D01*
X1250Y1607D01*
X1272Y1607D01*
X1272Y1611D01*
X1274Y1611D01*
X1274Y1613D01*
X1276Y1613D01*
X1276Y1615D01*
X1278Y1615D01*
X1278Y1617D01*
X1280Y1617D01*
X1280Y1619D01*
X1282Y1619D01*
X1282Y1621D01*
X1286Y1621D01*
X1286Y1641D01*
X1284Y1641D01*
X1284Y1643D01*
X1282Y1643D01*
X1282Y1645D01*
X1280Y1645D01*
X1280Y1647D01*
X1278Y1647D01*
X1278Y1649D01*
X1276Y1649D01*
X1276Y1651D01*
X1274Y1651D01*
X1274Y1653D01*
X1272Y1653D01*
X1272Y1655D01*
X1250Y1655D01*
G37*
D02*
G36*
X1350Y1557D02*
X1350Y1553D01*
X1348Y1553D01*
X1348Y1551D01*
X1346Y1551D01*
X1346Y1549D01*
X1344Y1549D01*
X1344Y1547D01*
X1342Y1547D01*
X1342Y1545D01*
X1340Y1545D01*
X1340Y1543D01*
X1338Y1543D01*
X1338Y1541D01*
X1336Y1541D01*
X1336Y1521D01*
X1338Y1521D01*
X1338Y1519D01*
X1340Y1519D01*
X1340Y1517D01*
X1344Y1517D01*
X1344Y1515D01*
X1346Y1515D01*
X1346Y1511D01*
X1348Y1511D01*
X1348Y1509D01*
X1350Y1509D01*
X1350Y1507D01*
X1372Y1507D01*
X1372Y1511D01*
X1374Y1511D01*
X1374Y1513D01*
X1376Y1513D01*
X1376Y1515D01*
X1378Y1515D01*
X1378Y1517D01*
X1380Y1517D01*
X1380Y1519D01*
X1382Y1519D01*
X1382Y1521D01*
X1386Y1521D01*
X1386Y1541D01*
X1384Y1541D01*
X1384Y1543D01*
X1382Y1543D01*
X1382Y1545D01*
X1380Y1545D01*
X1380Y1547D01*
X1378Y1547D01*
X1378Y1549D01*
X1376Y1549D01*
X1376Y1551D01*
X1374Y1551D01*
X1374Y1553D01*
X1372Y1553D01*
X1372Y1555D01*
X1370Y1555D01*
X1370Y1557D01*
X1350Y1557D01*
G37*
D02*
G36*
X1450Y1557D02*
X1450Y1553D01*
X1448Y1553D01*
X1448Y1551D01*
X1446Y1551D01*
X1446Y1549D01*
X1444Y1549D01*
X1444Y1547D01*
X1442Y1547D01*
X1442Y1545D01*
X1440Y1545D01*
X1440Y1543D01*
X1438Y1543D01*
X1438Y1541D01*
X1436Y1541D01*
X1436Y1521D01*
X1438Y1521D01*
X1438Y1519D01*
X1440Y1519D01*
X1440Y1517D01*
X1444Y1517D01*
X1444Y1515D01*
X1446Y1515D01*
X1446Y1511D01*
X1448Y1511D01*
X1448Y1509D01*
X1450Y1509D01*
X1450Y1507D01*
X1472Y1507D01*
X1472Y1509D01*
X1474Y1509D01*
X1474Y1511D01*
X1476Y1511D01*
X1476Y1515D01*
X1478Y1515D01*
X1478Y1517D01*
X1482Y1517D01*
X1482Y1519D01*
X1484Y1519D01*
X1484Y1521D01*
X1486Y1521D01*
X1486Y1541D01*
X1484Y1541D01*
X1484Y1543D01*
X1482Y1543D01*
X1482Y1545D01*
X1480Y1545D01*
X1480Y1547D01*
X1478Y1547D01*
X1478Y1549D01*
X1476Y1549D01*
X1476Y1551D01*
X1474Y1551D01*
X1474Y1553D01*
X1472Y1553D01*
X1472Y1555D01*
X1470Y1555D01*
X1470Y1557D01*
X1450Y1557D01*
G37*
D02*
G36*
X950Y1555D02*
X950Y1553D01*
X948Y1553D01*
X948Y1549D01*
X946Y1549D01*
X946Y1547D01*
X944Y1547D01*
X944Y1545D01*
X940Y1545D01*
X940Y1543D01*
X938Y1543D01*
X938Y1541D01*
X936Y1541D01*
X936Y1521D01*
X938Y1521D01*
X938Y1519D01*
X940Y1519D01*
X940Y1517D01*
X944Y1517D01*
X944Y1515D01*
X946Y1515D01*
X946Y1513D01*
X948Y1513D01*
X948Y1509D01*
X950Y1509D01*
X950Y1507D01*
X972Y1507D01*
X972Y1509D01*
X974Y1509D01*
X974Y1511D01*
X976Y1511D01*
X976Y1513D01*
X978Y1513D01*
X978Y1515D01*
X980Y1515D01*
X980Y1517D01*
X982Y1517D01*
X982Y1519D01*
X984Y1519D01*
X984Y1521D01*
X986Y1521D01*
X986Y1541D01*
X984Y1541D01*
X984Y1543D01*
X982Y1543D01*
X982Y1545D01*
X980Y1545D01*
X980Y1547D01*
X978Y1547D01*
X978Y1549D01*
X976Y1549D01*
X976Y1551D01*
X974Y1551D01*
X974Y1553D01*
X972Y1553D01*
X972Y1555D01*
X950Y1555D01*
G37*
D02*
G36*
X1050Y1555D02*
X1050Y1553D01*
X1048Y1553D01*
X1048Y1549D01*
X1046Y1549D01*
X1046Y1547D01*
X1044Y1547D01*
X1044Y1545D01*
X1040Y1545D01*
X1040Y1543D01*
X1038Y1543D01*
X1038Y1541D01*
X1036Y1541D01*
X1036Y1521D01*
X1038Y1521D01*
X1038Y1519D01*
X1040Y1519D01*
X1040Y1517D01*
X1044Y1517D01*
X1044Y1515D01*
X1046Y1515D01*
X1046Y1513D01*
X1048Y1513D01*
X1048Y1509D01*
X1050Y1509D01*
X1050Y1507D01*
X1072Y1507D01*
X1072Y1511D01*
X1074Y1511D01*
X1074Y1513D01*
X1076Y1513D01*
X1076Y1515D01*
X1078Y1515D01*
X1078Y1517D01*
X1080Y1517D01*
X1080Y1519D01*
X1084Y1519D01*
X1084Y1521D01*
X1086Y1521D01*
X1086Y1541D01*
X1084Y1541D01*
X1084Y1543D01*
X1082Y1543D01*
X1082Y1545D01*
X1080Y1545D01*
X1080Y1547D01*
X1076Y1547D01*
X1076Y1551D01*
X1074Y1551D01*
X1074Y1553D01*
X1072Y1553D01*
X1072Y1555D01*
X1050Y1555D01*
G37*
D02*
G36*
X1150Y1555D02*
X1150Y1553D01*
X1148Y1553D01*
X1148Y1551D01*
X1146Y1551D01*
X1146Y1549D01*
X1144Y1549D01*
X1144Y1547D01*
X1142Y1547D01*
X1142Y1545D01*
X1140Y1545D01*
X1140Y1543D01*
X1138Y1543D01*
X1138Y1541D01*
X1136Y1541D01*
X1136Y1521D01*
X1138Y1521D01*
X1138Y1519D01*
X1140Y1519D01*
X1140Y1517D01*
X1144Y1517D01*
X1144Y1515D01*
X1146Y1515D01*
X1146Y1511D01*
X1148Y1511D01*
X1148Y1509D01*
X1150Y1509D01*
X1150Y1507D01*
X1172Y1507D01*
X1172Y1511D01*
X1174Y1511D01*
X1174Y1513D01*
X1176Y1513D01*
X1176Y1515D01*
X1178Y1515D01*
X1178Y1517D01*
X1180Y1517D01*
X1180Y1519D01*
X1182Y1519D01*
X1182Y1521D01*
X1186Y1521D01*
X1186Y1541D01*
X1184Y1541D01*
X1184Y1543D01*
X1182Y1543D01*
X1182Y1545D01*
X1180Y1545D01*
X1180Y1547D01*
X1178Y1547D01*
X1178Y1549D01*
X1176Y1549D01*
X1176Y1551D01*
X1174Y1551D01*
X1174Y1553D01*
X1172Y1553D01*
X1172Y1555D01*
X1150Y1555D01*
G37*
D02*
G36*
X1250Y1555D02*
X1250Y1553D01*
X1248Y1553D01*
X1248Y1551D01*
X1246Y1551D01*
X1246Y1549D01*
X1244Y1549D01*
X1244Y1547D01*
X1242Y1547D01*
X1242Y1545D01*
X1240Y1545D01*
X1240Y1543D01*
X1238Y1543D01*
X1238Y1541D01*
X1236Y1541D01*
X1236Y1521D01*
X1240Y1521D01*
X1240Y1519D01*
X1242Y1519D01*
X1242Y1517D01*
X1244Y1517D01*
X1244Y1515D01*
X1246Y1515D01*
X1246Y1513D01*
X1248Y1513D01*
X1248Y1511D01*
X1250Y1511D01*
X1250Y1507D01*
X1272Y1507D01*
X1272Y1511D01*
X1274Y1511D01*
X1274Y1513D01*
X1276Y1513D01*
X1276Y1515D01*
X1278Y1515D01*
X1278Y1517D01*
X1280Y1517D01*
X1280Y1519D01*
X1282Y1519D01*
X1282Y1521D01*
X1286Y1521D01*
X1286Y1541D01*
X1284Y1541D01*
X1284Y1543D01*
X1282Y1543D01*
X1282Y1545D01*
X1280Y1545D01*
X1280Y1547D01*
X1278Y1547D01*
X1278Y1549D01*
X1276Y1549D01*
X1276Y1551D01*
X1274Y1551D01*
X1274Y1553D01*
X1272Y1553D01*
X1272Y1555D01*
X1250Y1555D01*
G37*
D02*
G36*
X672Y1479D02*
X672Y1443D01*
X670Y1443D01*
X670Y1439D01*
X668Y1439D01*
X668Y1435D01*
X666Y1435D01*
X666Y1433D01*
X664Y1433D01*
X664Y1431D01*
X662Y1431D01*
X662Y1429D01*
X660Y1429D01*
X660Y1427D01*
X658Y1427D01*
X658Y1425D01*
X656Y1425D01*
X656Y1423D01*
X654Y1423D01*
X654Y1421D01*
X652Y1421D01*
X652Y1419D01*
X650Y1419D01*
X650Y1417D01*
X648Y1417D01*
X648Y1415D01*
X646Y1415D01*
X646Y1413D01*
X644Y1413D01*
X644Y1411D01*
X642Y1411D01*
X642Y1409D01*
X640Y1409D01*
X640Y1407D01*
X638Y1407D01*
X638Y1405D01*
X636Y1405D01*
X636Y1403D01*
X634Y1403D01*
X634Y1401D01*
X630Y1401D01*
X630Y1399D01*
X628Y1399D01*
X628Y1397D01*
X626Y1397D01*
X626Y1395D01*
X624Y1395D01*
X624Y1393D01*
X622Y1393D01*
X622Y1391D01*
X620Y1391D01*
X620Y1389D01*
X618Y1389D01*
X618Y1387D01*
X616Y1387D01*
X616Y1385D01*
X614Y1385D01*
X614Y1383D01*
X612Y1383D01*
X612Y1381D01*
X610Y1381D01*
X610Y1379D01*
X608Y1379D01*
X608Y1377D01*
X606Y1377D01*
X606Y1375D01*
X604Y1375D01*
X604Y1373D01*
X602Y1373D01*
X602Y1371D01*
X600Y1371D01*
X600Y1369D01*
X598Y1369D01*
X598Y1367D01*
X596Y1367D01*
X596Y1365D01*
X594Y1365D01*
X594Y1363D01*
X592Y1363D01*
X592Y1361D01*
X590Y1361D01*
X590Y1359D01*
X588Y1359D01*
X588Y1357D01*
X586Y1357D01*
X586Y1355D01*
X584Y1355D01*
X584Y1335D01*
X634Y1335D01*
X634Y1337D01*
X636Y1337D01*
X636Y1339D01*
X638Y1339D01*
X638Y1341D01*
X640Y1341D01*
X640Y1343D01*
X642Y1343D01*
X642Y1345D01*
X644Y1345D01*
X644Y1347D01*
X646Y1347D01*
X646Y1349D01*
X648Y1349D01*
X648Y1351D01*
X650Y1351D01*
X650Y1353D01*
X652Y1353D01*
X652Y1355D01*
X654Y1355D01*
X654Y1357D01*
X656Y1357D01*
X656Y1359D01*
X658Y1359D01*
X658Y1361D01*
X660Y1361D01*
X660Y1363D01*
X662Y1363D01*
X662Y1365D01*
X664Y1365D01*
X664Y1367D01*
X666Y1367D01*
X666Y1369D01*
X668Y1369D01*
X668Y1371D01*
X670Y1371D01*
X670Y1373D01*
X672Y1373D01*
X672Y1375D01*
X674Y1375D01*
X674Y1377D01*
X676Y1377D01*
X676Y1379D01*
X680Y1379D01*
X680Y1381D01*
X682Y1381D01*
X682Y1383D01*
X684Y1383D01*
X684Y1385D01*
X686Y1385D01*
X686Y1387D01*
X688Y1387D01*
X688Y1389D01*
X690Y1389D01*
X690Y1391D01*
X692Y1391D01*
X692Y1393D01*
X694Y1393D01*
X694Y1395D01*
X696Y1395D01*
X696Y1397D01*
X698Y1397D01*
X698Y1399D01*
X700Y1399D01*
X700Y1401D01*
X702Y1401D01*
X702Y1403D01*
X704Y1403D01*
X704Y1405D01*
X706Y1405D01*
X706Y1407D01*
X708Y1407D01*
X708Y1409D01*
X710Y1409D01*
X710Y1411D01*
X712Y1411D01*
X712Y1413D01*
X714Y1413D01*
X714Y1415D01*
X716Y1415D01*
X716Y1417D01*
X718Y1417D01*
X718Y1419D01*
X720Y1419D01*
X720Y1421D01*
X722Y1421D01*
X722Y1423D01*
X724Y1423D01*
X724Y1425D01*
X726Y1425D01*
X726Y1427D01*
X728Y1427D01*
X728Y1429D01*
X730Y1429D01*
X730Y1431D01*
X732Y1431D01*
X732Y1433D01*
X734Y1433D01*
X734Y1435D01*
X736Y1435D01*
X736Y1437D01*
X738Y1437D01*
X738Y1439D01*
X740Y1439D01*
X740Y1457D01*
X720Y1457D01*
X720Y1459D01*
X714Y1459D01*
X714Y1461D01*
X710Y1461D01*
X710Y1463D01*
X706Y1463D01*
X706Y1465D01*
X704Y1465D01*
X704Y1467D01*
X700Y1467D01*
X700Y1469D01*
X698Y1469D01*
X698Y1471D01*
X696Y1471D01*
X696Y1473D01*
X694Y1473D01*
X694Y1477D01*
X692Y1477D01*
X692Y1479D01*
X672Y1479D01*
G37*
D02*
G36*
X1350Y1457D02*
X1350Y1453D01*
X1348Y1453D01*
X1348Y1451D01*
X1346Y1451D01*
X1346Y1449D01*
X1344Y1449D01*
X1344Y1447D01*
X1342Y1447D01*
X1342Y1445D01*
X1340Y1445D01*
X1340Y1443D01*
X1338Y1443D01*
X1338Y1441D01*
X1336Y1441D01*
X1336Y1421D01*
X1338Y1421D01*
X1338Y1419D01*
X1340Y1419D01*
X1340Y1417D01*
X1344Y1417D01*
X1344Y1415D01*
X1346Y1415D01*
X1346Y1411D01*
X1348Y1411D01*
X1348Y1409D01*
X1350Y1409D01*
X1350Y1407D01*
X1372Y1407D01*
X1372Y1411D01*
X1374Y1411D01*
X1374Y1413D01*
X1376Y1413D01*
X1376Y1415D01*
X1378Y1415D01*
X1378Y1417D01*
X1380Y1417D01*
X1380Y1419D01*
X1382Y1419D01*
X1382Y1421D01*
X1386Y1421D01*
X1386Y1441D01*
X1384Y1441D01*
X1384Y1443D01*
X1382Y1443D01*
X1382Y1445D01*
X1380Y1445D01*
X1380Y1447D01*
X1378Y1447D01*
X1378Y1449D01*
X1376Y1449D01*
X1376Y1451D01*
X1374Y1451D01*
X1374Y1453D01*
X1372Y1453D01*
X1372Y1455D01*
X1370Y1455D01*
X1370Y1457D01*
X1350Y1457D01*
G37*
D02*
G36*
X1450Y1457D02*
X1450Y1453D01*
X1448Y1453D01*
X1448Y1451D01*
X1446Y1451D01*
X1446Y1449D01*
X1444Y1449D01*
X1444Y1447D01*
X1442Y1447D01*
X1442Y1445D01*
X1440Y1445D01*
X1440Y1443D01*
X1438Y1443D01*
X1438Y1441D01*
X1436Y1441D01*
X1436Y1421D01*
X1438Y1421D01*
X1438Y1419D01*
X1440Y1419D01*
X1440Y1417D01*
X1444Y1417D01*
X1444Y1415D01*
X1446Y1415D01*
X1446Y1411D01*
X1448Y1411D01*
X1448Y1409D01*
X1450Y1409D01*
X1450Y1407D01*
X1472Y1407D01*
X1472Y1409D01*
X1474Y1409D01*
X1474Y1411D01*
X1476Y1411D01*
X1476Y1415D01*
X1478Y1415D01*
X1478Y1417D01*
X1482Y1417D01*
X1482Y1419D01*
X1484Y1419D01*
X1484Y1421D01*
X1486Y1421D01*
X1486Y1441D01*
X1484Y1441D01*
X1484Y1443D01*
X1482Y1443D01*
X1482Y1445D01*
X1480Y1445D01*
X1480Y1447D01*
X1478Y1447D01*
X1478Y1449D01*
X1476Y1449D01*
X1476Y1451D01*
X1474Y1451D01*
X1474Y1453D01*
X1472Y1453D01*
X1472Y1455D01*
X1470Y1455D01*
X1470Y1457D01*
X1450Y1457D01*
G37*
D02*
G36*
X950Y1455D02*
X950Y1453D01*
X948Y1453D01*
X948Y1449D01*
X946Y1449D01*
X946Y1447D01*
X944Y1447D01*
X944Y1445D01*
X940Y1445D01*
X940Y1443D01*
X938Y1443D01*
X938Y1441D01*
X936Y1441D01*
X936Y1421D01*
X938Y1421D01*
X938Y1419D01*
X940Y1419D01*
X940Y1417D01*
X944Y1417D01*
X944Y1415D01*
X946Y1415D01*
X946Y1413D01*
X948Y1413D01*
X948Y1409D01*
X950Y1409D01*
X950Y1407D01*
X972Y1407D01*
X972Y1409D01*
X974Y1409D01*
X974Y1411D01*
X976Y1411D01*
X976Y1413D01*
X978Y1413D01*
X978Y1415D01*
X980Y1415D01*
X980Y1417D01*
X982Y1417D01*
X982Y1419D01*
X984Y1419D01*
X984Y1421D01*
X986Y1421D01*
X986Y1441D01*
X984Y1441D01*
X984Y1443D01*
X982Y1443D01*
X982Y1445D01*
X980Y1445D01*
X980Y1447D01*
X978Y1447D01*
X978Y1449D01*
X976Y1449D01*
X976Y1451D01*
X974Y1451D01*
X974Y1453D01*
X972Y1453D01*
X972Y1455D01*
X950Y1455D01*
G37*
D02*
G36*
X1050Y1455D02*
X1050Y1453D01*
X1048Y1453D01*
X1048Y1449D01*
X1046Y1449D01*
X1046Y1447D01*
X1044Y1447D01*
X1044Y1445D01*
X1040Y1445D01*
X1040Y1443D01*
X1038Y1443D01*
X1038Y1441D01*
X1036Y1441D01*
X1036Y1421D01*
X1038Y1421D01*
X1038Y1419D01*
X1040Y1419D01*
X1040Y1417D01*
X1044Y1417D01*
X1044Y1415D01*
X1046Y1415D01*
X1046Y1413D01*
X1048Y1413D01*
X1048Y1409D01*
X1050Y1409D01*
X1050Y1407D01*
X1072Y1407D01*
X1072Y1411D01*
X1074Y1411D01*
X1074Y1413D01*
X1076Y1413D01*
X1076Y1415D01*
X1078Y1415D01*
X1078Y1417D01*
X1080Y1417D01*
X1080Y1419D01*
X1084Y1419D01*
X1084Y1421D01*
X1086Y1421D01*
X1086Y1441D01*
X1084Y1441D01*
X1084Y1443D01*
X1082Y1443D01*
X1082Y1445D01*
X1080Y1445D01*
X1080Y1447D01*
X1076Y1447D01*
X1076Y1451D01*
X1074Y1451D01*
X1074Y1453D01*
X1072Y1453D01*
X1072Y1455D01*
X1050Y1455D01*
G37*
D02*
G36*
X1150Y1455D02*
X1150Y1453D01*
X1148Y1453D01*
X1148Y1451D01*
X1146Y1451D01*
X1146Y1449D01*
X1144Y1449D01*
X1144Y1447D01*
X1142Y1447D01*
X1142Y1445D01*
X1140Y1445D01*
X1140Y1443D01*
X1138Y1443D01*
X1138Y1441D01*
X1136Y1441D01*
X1136Y1421D01*
X1138Y1421D01*
X1138Y1419D01*
X1140Y1419D01*
X1140Y1417D01*
X1144Y1417D01*
X1144Y1415D01*
X1146Y1415D01*
X1146Y1411D01*
X1148Y1411D01*
X1148Y1409D01*
X1150Y1409D01*
X1150Y1407D01*
X1172Y1407D01*
X1172Y1411D01*
X1174Y1411D01*
X1174Y1413D01*
X1176Y1413D01*
X1176Y1415D01*
X1178Y1415D01*
X1178Y1417D01*
X1180Y1417D01*
X1180Y1419D01*
X1182Y1419D01*
X1182Y1421D01*
X1186Y1421D01*
X1186Y1441D01*
X1184Y1441D01*
X1184Y1443D01*
X1182Y1443D01*
X1182Y1445D01*
X1180Y1445D01*
X1180Y1447D01*
X1178Y1447D01*
X1178Y1449D01*
X1176Y1449D01*
X1176Y1451D01*
X1174Y1451D01*
X1174Y1453D01*
X1172Y1453D01*
X1172Y1455D01*
X1150Y1455D01*
G37*
D02*
G36*
X1250Y1455D02*
X1250Y1453D01*
X1248Y1453D01*
X1248Y1451D01*
X1246Y1451D01*
X1246Y1449D01*
X1244Y1449D01*
X1244Y1447D01*
X1242Y1447D01*
X1242Y1445D01*
X1240Y1445D01*
X1240Y1443D01*
X1238Y1443D01*
X1238Y1441D01*
X1236Y1441D01*
X1236Y1421D01*
X1240Y1421D01*
X1240Y1419D01*
X1242Y1419D01*
X1242Y1417D01*
X1244Y1417D01*
X1244Y1415D01*
X1246Y1415D01*
X1246Y1413D01*
X1248Y1413D01*
X1248Y1411D01*
X1250Y1411D01*
X1250Y1407D01*
X1272Y1407D01*
X1272Y1411D01*
X1274Y1411D01*
X1274Y1413D01*
X1276Y1413D01*
X1276Y1415D01*
X1278Y1415D01*
X1278Y1417D01*
X1280Y1417D01*
X1280Y1419D01*
X1282Y1419D01*
X1282Y1421D01*
X1286Y1421D01*
X1286Y1441D01*
X1284Y1441D01*
X1284Y1443D01*
X1282Y1443D01*
X1282Y1445D01*
X1280Y1445D01*
X1280Y1447D01*
X1278Y1447D01*
X1278Y1449D01*
X1276Y1449D01*
X1276Y1451D01*
X1274Y1451D01*
X1274Y1453D01*
X1272Y1453D01*
X1272Y1455D01*
X1250Y1455D01*
G37*
D02*
G36*
X854Y1453D02*
X854Y1451D01*
X852Y1451D01*
X852Y1449D01*
X850Y1449D01*
X850Y1447D01*
X848Y1447D01*
X848Y1445D01*
X846Y1445D01*
X846Y1443D01*
X844Y1443D01*
X844Y1441D01*
X842Y1441D01*
X842Y1439D01*
X840Y1439D01*
X840Y1437D01*
X838Y1437D01*
X838Y1435D01*
X836Y1435D01*
X836Y1433D01*
X834Y1433D01*
X834Y1431D01*
X830Y1431D01*
X830Y1429D01*
X828Y1429D01*
X828Y1427D01*
X826Y1427D01*
X826Y1425D01*
X824Y1425D01*
X824Y1423D01*
X822Y1423D01*
X822Y1421D01*
X820Y1421D01*
X820Y1419D01*
X818Y1419D01*
X818Y1417D01*
X816Y1417D01*
X816Y1415D01*
X814Y1415D01*
X814Y1413D01*
X812Y1413D01*
X812Y1411D01*
X810Y1411D01*
X810Y1409D01*
X808Y1409D01*
X808Y1407D01*
X806Y1407D01*
X806Y1405D01*
X804Y1405D01*
X804Y1403D01*
X802Y1403D01*
X802Y1401D01*
X800Y1401D01*
X800Y1399D01*
X798Y1399D01*
X798Y1397D01*
X796Y1397D01*
X796Y1395D01*
X794Y1395D01*
X794Y1393D01*
X792Y1393D01*
X792Y1391D01*
X790Y1391D01*
X790Y1389D01*
X788Y1389D01*
X788Y1387D01*
X786Y1387D01*
X786Y1385D01*
X784Y1385D01*
X784Y1383D01*
X782Y1383D01*
X782Y1381D01*
X780Y1381D01*
X780Y1379D01*
X778Y1379D01*
X778Y1377D01*
X776Y1377D01*
X776Y1375D01*
X774Y1375D01*
X774Y1373D01*
X772Y1373D01*
X772Y1371D01*
X770Y1371D01*
X770Y1369D01*
X768Y1369D01*
X768Y1367D01*
X766Y1367D01*
X766Y1365D01*
X764Y1365D01*
X764Y1363D01*
X762Y1363D01*
X762Y1361D01*
X760Y1361D01*
X760Y1359D01*
X758Y1359D01*
X758Y1357D01*
X756Y1357D01*
X756Y1355D01*
X754Y1355D01*
X754Y1353D01*
X752Y1353D01*
X752Y1351D01*
X750Y1351D01*
X750Y1349D01*
X748Y1349D01*
X748Y1347D01*
X746Y1347D01*
X746Y1345D01*
X744Y1345D01*
X744Y1343D01*
X742Y1343D01*
X742Y1341D01*
X740Y1341D01*
X740Y1339D01*
X738Y1339D01*
X738Y1337D01*
X736Y1337D01*
X736Y1335D01*
X734Y1335D01*
X734Y1333D01*
X732Y1333D01*
X732Y1331D01*
X730Y1331D01*
X730Y1329D01*
X728Y1329D01*
X728Y1327D01*
X726Y1327D01*
X726Y1325D01*
X722Y1325D01*
X722Y1323D01*
X720Y1323D01*
X720Y1321D01*
X718Y1321D01*
X718Y1319D01*
X716Y1319D01*
X716Y1317D01*
X714Y1317D01*
X714Y1315D01*
X712Y1315D01*
X712Y1313D01*
X710Y1313D01*
X710Y1311D01*
X708Y1311D01*
X708Y1309D01*
X706Y1309D01*
X706Y1307D01*
X704Y1307D01*
X704Y1305D01*
X702Y1305D01*
X702Y1303D01*
X700Y1303D01*
X700Y1301D01*
X698Y1301D01*
X698Y1299D01*
X696Y1299D01*
X696Y1297D01*
X694Y1297D01*
X694Y1295D01*
X692Y1295D01*
X692Y1293D01*
X690Y1293D01*
X690Y1291D01*
X730Y1291D01*
X730Y1289D01*
X740Y1289D01*
X740Y1287D01*
X744Y1287D01*
X744Y1285D01*
X748Y1285D01*
X748Y1283D01*
X752Y1283D01*
X752Y1281D01*
X754Y1281D01*
X754Y1279D01*
X756Y1279D01*
X756Y1277D01*
X758Y1277D01*
X758Y1275D01*
X760Y1275D01*
X760Y1273D01*
X780Y1273D01*
X780Y1275D01*
X782Y1275D01*
X782Y1277D01*
X784Y1277D01*
X784Y1279D01*
X786Y1279D01*
X786Y1281D01*
X788Y1281D01*
X788Y1283D01*
X790Y1283D01*
X790Y1285D01*
X792Y1285D01*
X792Y1287D01*
X794Y1287D01*
X794Y1289D01*
X796Y1289D01*
X796Y1291D01*
X798Y1291D01*
X798Y1293D01*
X800Y1293D01*
X800Y1295D01*
X802Y1295D01*
X802Y1297D01*
X804Y1297D01*
X804Y1299D01*
X806Y1299D01*
X806Y1301D01*
X808Y1301D01*
X808Y1303D01*
X810Y1303D01*
X810Y1305D01*
X812Y1305D01*
X812Y1307D01*
X814Y1307D01*
X814Y1309D01*
X816Y1309D01*
X816Y1311D01*
X818Y1311D01*
X818Y1313D01*
X820Y1313D01*
X820Y1315D01*
X822Y1315D01*
X822Y1317D01*
X824Y1317D01*
X824Y1319D01*
X826Y1319D01*
X826Y1321D01*
X828Y1321D01*
X828Y1323D01*
X830Y1323D01*
X830Y1325D01*
X832Y1325D01*
X832Y1327D01*
X834Y1327D01*
X834Y1329D01*
X836Y1329D01*
X836Y1331D01*
X838Y1331D01*
X838Y1333D01*
X840Y1333D01*
X840Y1335D01*
X842Y1335D01*
X842Y1337D01*
X844Y1337D01*
X844Y1339D01*
X846Y1339D01*
X846Y1341D01*
X848Y1341D01*
X848Y1343D01*
X850Y1343D01*
X850Y1345D01*
X852Y1345D01*
X852Y1347D01*
X854Y1347D01*
X854Y1349D01*
X856Y1349D01*
X856Y1351D01*
X858Y1351D01*
X858Y1353D01*
X860Y1353D01*
X860Y1355D01*
X862Y1355D01*
X862Y1389D01*
X864Y1389D01*
X864Y1395D01*
X866Y1395D01*
X866Y1399D01*
X868Y1399D01*
X868Y1403D01*
X870Y1403D01*
X870Y1407D01*
X872Y1407D01*
X872Y1409D01*
X874Y1409D01*
X874Y1411D01*
X876Y1411D01*
X876Y1413D01*
X878Y1413D01*
X878Y1415D01*
X880Y1415D01*
X880Y1417D01*
X882Y1417D01*
X882Y1419D01*
X884Y1419D01*
X884Y1421D01*
X886Y1421D01*
X886Y1441D01*
X884Y1441D01*
X884Y1443D01*
X882Y1443D01*
X882Y1445D01*
X880Y1445D01*
X880Y1447D01*
X878Y1447D01*
X878Y1449D01*
X876Y1449D01*
X876Y1451D01*
X874Y1451D01*
X874Y1453D01*
X854Y1453D01*
G37*
D02*
G36*
X688Y1291D02*
X688Y1289D01*
X686Y1289D01*
X686Y1287D01*
X684Y1287D01*
X684Y1285D01*
X682Y1285D01*
X682Y1283D01*
X680Y1283D01*
X680Y1281D01*
X678Y1281D01*
X678Y1279D01*
X676Y1279D01*
X676Y1273D01*
X696Y1273D01*
X696Y1275D01*
X698Y1275D01*
X698Y1277D01*
X700Y1277D01*
X700Y1279D01*
X702Y1279D01*
X702Y1281D01*
X704Y1281D01*
X704Y1283D01*
X708Y1283D01*
X708Y1285D01*
X712Y1285D01*
X712Y1287D01*
X716Y1287D01*
X716Y1289D01*
X726Y1289D01*
X726Y1291D01*
X688Y1291D01*
G37*
D02*
G36*
X1350Y1357D02*
X1350Y1353D01*
X1348Y1353D01*
X1348Y1351D01*
X1346Y1351D01*
X1346Y1349D01*
X1344Y1349D01*
X1344Y1347D01*
X1342Y1347D01*
X1342Y1345D01*
X1340Y1345D01*
X1340Y1343D01*
X1338Y1343D01*
X1338Y1341D01*
X1336Y1341D01*
X1336Y1321D01*
X1338Y1321D01*
X1338Y1319D01*
X1340Y1319D01*
X1340Y1317D01*
X1344Y1317D01*
X1344Y1315D01*
X1346Y1315D01*
X1346Y1311D01*
X1348Y1311D01*
X1348Y1309D01*
X1350Y1309D01*
X1350Y1307D01*
X1372Y1307D01*
X1372Y1311D01*
X1374Y1311D01*
X1374Y1313D01*
X1376Y1313D01*
X1376Y1315D01*
X1378Y1315D01*
X1378Y1317D01*
X1380Y1317D01*
X1380Y1319D01*
X1382Y1319D01*
X1382Y1321D01*
X1386Y1321D01*
X1386Y1341D01*
X1384Y1341D01*
X1384Y1343D01*
X1382Y1343D01*
X1382Y1345D01*
X1380Y1345D01*
X1380Y1347D01*
X1378Y1347D01*
X1378Y1349D01*
X1376Y1349D01*
X1376Y1351D01*
X1374Y1351D01*
X1374Y1353D01*
X1372Y1353D01*
X1372Y1355D01*
X1370Y1355D01*
X1370Y1357D01*
X1350Y1357D01*
G37*
D02*
G36*
X1450Y1357D02*
X1450Y1353D01*
X1448Y1353D01*
X1448Y1351D01*
X1446Y1351D01*
X1446Y1349D01*
X1444Y1349D01*
X1444Y1347D01*
X1442Y1347D01*
X1442Y1345D01*
X1440Y1345D01*
X1440Y1343D01*
X1438Y1343D01*
X1438Y1341D01*
X1436Y1341D01*
X1436Y1321D01*
X1438Y1321D01*
X1438Y1319D01*
X1440Y1319D01*
X1440Y1317D01*
X1444Y1317D01*
X1444Y1315D01*
X1446Y1315D01*
X1446Y1311D01*
X1448Y1311D01*
X1448Y1309D01*
X1450Y1309D01*
X1450Y1307D01*
X1472Y1307D01*
X1472Y1309D01*
X1474Y1309D01*
X1474Y1311D01*
X1476Y1311D01*
X1476Y1315D01*
X1478Y1315D01*
X1478Y1317D01*
X1482Y1317D01*
X1482Y1319D01*
X1484Y1319D01*
X1484Y1321D01*
X1486Y1321D01*
X1486Y1341D01*
X1484Y1341D01*
X1484Y1343D01*
X1482Y1343D01*
X1482Y1345D01*
X1480Y1345D01*
X1480Y1347D01*
X1478Y1347D01*
X1478Y1349D01*
X1476Y1349D01*
X1476Y1351D01*
X1474Y1351D01*
X1474Y1353D01*
X1472Y1353D01*
X1472Y1355D01*
X1470Y1355D01*
X1470Y1357D01*
X1450Y1357D01*
G37*
D02*
G36*
X950Y1355D02*
X950Y1353D01*
X948Y1353D01*
X948Y1349D01*
X946Y1349D01*
X946Y1347D01*
X944Y1347D01*
X944Y1345D01*
X940Y1345D01*
X940Y1343D01*
X938Y1343D01*
X938Y1341D01*
X936Y1341D01*
X936Y1321D01*
X938Y1321D01*
X938Y1319D01*
X940Y1319D01*
X940Y1317D01*
X944Y1317D01*
X944Y1315D01*
X946Y1315D01*
X946Y1313D01*
X948Y1313D01*
X948Y1309D01*
X950Y1309D01*
X950Y1307D01*
X972Y1307D01*
X972Y1309D01*
X974Y1309D01*
X974Y1311D01*
X976Y1311D01*
X976Y1313D01*
X978Y1313D01*
X978Y1315D01*
X980Y1315D01*
X980Y1317D01*
X982Y1317D01*
X982Y1319D01*
X984Y1319D01*
X984Y1321D01*
X986Y1321D01*
X986Y1341D01*
X984Y1341D01*
X984Y1343D01*
X982Y1343D01*
X982Y1345D01*
X980Y1345D01*
X980Y1347D01*
X978Y1347D01*
X978Y1349D01*
X976Y1349D01*
X976Y1351D01*
X974Y1351D01*
X974Y1353D01*
X972Y1353D01*
X972Y1355D01*
X950Y1355D01*
G37*
D02*
G36*
X1050Y1355D02*
X1050Y1353D01*
X1048Y1353D01*
X1048Y1349D01*
X1046Y1349D01*
X1046Y1347D01*
X1044Y1347D01*
X1044Y1345D01*
X1040Y1345D01*
X1040Y1343D01*
X1038Y1343D01*
X1038Y1341D01*
X1036Y1341D01*
X1036Y1321D01*
X1038Y1321D01*
X1038Y1319D01*
X1040Y1319D01*
X1040Y1317D01*
X1044Y1317D01*
X1044Y1315D01*
X1046Y1315D01*
X1046Y1313D01*
X1048Y1313D01*
X1048Y1309D01*
X1050Y1309D01*
X1050Y1307D01*
X1072Y1307D01*
X1072Y1311D01*
X1074Y1311D01*
X1074Y1313D01*
X1076Y1313D01*
X1076Y1315D01*
X1078Y1315D01*
X1078Y1317D01*
X1080Y1317D01*
X1080Y1319D01*
X1084Y1319D01*
X1084Y1321D01*
X1086Y1321D01*
X1086Y1341D01*
X1084Y1341D01*
X1084Y1343D01*
X1082Y1343D01*
X1082Y1345D01*
X1080Y1345D01*
X1080Y1347D01*
X1076Y1347D01*
X1076Y1351D01*
X1074Y1351D01*
X1074Y1353D01*
X1072Y1353D01*
X1072Y1355D01*
X1050Y1355D01*
G37*
D02*
G36*
X1150Y1355D02*
X1150Y1353D01*
X1148Y1353D01*
X1148Y1351D01*
X1146Y1351D01*
X1146Y1349D01*
X1144Y1349D01*
X1144Y1347D01*
X1142Y1347D01*
X1142Y1345D01*
X1140Y1345D01*
X1140Y1343D01*
X1138Y1343D01*
X1138Y1341D01*
X1136Y1341D01*
X1136Y1321D01*
X1138Y1321D01*
X1138Y1319D01*
X1140Y1319D01*
X1140Y1317D01*
X1144Y1317D01*
X1144Y1315D01*
X1146Y1315D01*
X1146Y1311D01*
X1148Y1311D01*
X1148Y1309D01*
X1150Y1309D01*
X1150Y1307D01*
X1172Y1307D01*
X1172Y1311D01*
X1174Y1311D01*
X1174Y1313D01*
X1176Y1313D01*
X1176Y1315D01*
X1178Y1315D01*
X1178Y1317D01*
X1180Y1317D01*
X1180Y1319D01*
X1182Y1319D01*
X1182Y1321D01*
X1186Y1321D01*
X1186Y1341D01*
X1184Y1341D01*
X1184Y1343D01*
X1182Y1343D01*
X1182Y1345D01*
X1180Y1345D01*
X1180Y1347D01*
X1178Y1347D01*
X1178Y1349D01*
X1176Y1349D01*
X1176Y1351D01*
X1174Y1351D01*
X1174Y1353D01*
X1172Y1353D01*
X1172Y1355D01*
X1150Y1355D01*
G37*
D02*
G36*
X1250Y1355D02*
X1250Y1353D01*
X1248Y1353D01*
X1248Y1351D01*
X1246Y1351D01*
X1246Y1349D01*
X1244Y1349D01*
X1244Y1347D01*
X1242Y1347D01*
X1242Y1345D01*
X1240Y1345D01*
X1240Y1343D01*
X1238Y1343D01*
X1238Y1341D01*
X1236Y1341D01*
X1236Y1321D01*
X1240Y1321D01*
X1240Y1319D01*
X1242Y1319D01*
X1242Y1317D01*
X1244Y1317D01*
X1244Y1315D01*
X1246Y1315D01*
X1246Y1313D01*
X1248Y1313D01*
X1248Y1311D01*
X1250Y1311D01*
X1250Y1307D01*
X1272Y1307D01*
X1272Y1311D01*
X1274Y1311D01*
X1274Y1313D01*
X1276Y1313D01*
X1276Y1315D01*
X1278Y1315D01*
X1278Y1317D01*
X1280Y1317D01*
X1280Y1319D01*
X1282Y1319D01*
X1282Y1321D01*
X1286Y1321D01*
X1286Y1341D01*
X1284Y1341D01*
X1284Y1343D01*
X1282Y1343D01*
X1282Y1345D01*
X1280Y1345D01*
X1280Y1347D01*
X1278Y1347D01*
X1278Y1349D01*
X1276Y1349D01*
X1276Y1351D01*
X1274Y1351D01*
X1274Y1353D01*
X1272Y1353D01*
X1272Y1355D01*
X1250Y1355D01*
G37*
D02*
G36*
X842Y1287D02*
X842Y1285D01*
X840Y1285D01*
X840Y1283D01*
X838Y1283D01*
X838Y1281D01*
X836Y1281D01*
X836Y1279D01*
X834Y1279D01*
X834Y1277D01*
X832Y1277D01*
X832Y1275D01*
X830Y1275D01*
X830Y1273D01*
X828Y1273D01*
X828Y1271D01*
X826Y1271D01*
X826Y1269D01*
X824Y1269D01*
X824Y1267D01*
X822Y1267D01*
X822Y1265D01*
X820Y1265D01*
X820Y1263D01*
X818Y1263D01*
X818Y1261D01*
X816Y1261D01*
X816Y1259D01*
X814Y1259D01*
X814Y1229D01*
X834Y1229D01*
X834Y1231D01*
X836Y1231D01*
X836Y1233D01*
X838Y1233D01*
X838Y1235D01*
X840Y1235D01*
X840Y1237D01*
X842Y1237D01*
X842Y1239D01*
X844Y1239D01*
X844Y1241D01*
X846Y1241D01*
X846Y1243D01*
X848Y1243D01*
X848Y1245D01*
X850Y1245D01*
X850Y1247D01*
X852Y1247D01*
X852Y1249D01*
X854Y1249D01*
X854Y1251D01*
X856Y1251D01*
X856Y1253D01*
X858Y1253D01*
X858Y1255D01*
X860Y1255D01*
X860Y1257D01*
X862Y1257D01*
X862Y1287D01*
X842Y1287D01*
G37*
D02*
G36*
X1350Y1257D02*
X1350Y1253D01*
X1348Y1253D01*
X1348Y1251D01*
X1346Y1251D01*
X1346Y1249D01*
X1344Y1249D01*
X1344Y1247D01*
X1342Y1247D01*
X1342Y1245D01*
X1340Y1245D01*
X1340Y1243D01*
X1338Y1243D01*
X1338Y1241D01*
X1336Y1241D01*
X1336Y1221D01*
X1338Y1221D01*
X1338Y1219D01*
X1340Y1219D01*
X1340Y1217D01*
X1344Y1217D01*
X1344Y1215D01*
X1346Y1215D01*
X1346Y1211D01*
X1348Y1211D01*
X1348Y1209D01*
X1350Y1209D01*
X1350Y1207D01*
X1372Y1207D01*
X1372Y1211D01*
X1374Y1211D01*
X1374Y1213D01*
X1376Y1213D01*
X1376Y1215D01*
X1378Y1215D01*
X1378Y1217D01*
X1380Y1217D01*
X1380Y1219D01*
X1382Y1219D01*
X1382Y1221D01*
X1386Y1221D01*
X1386Y1241D01*
X1384Y1241D01*
X1384Y1243D01*
X1382Y1243D01*
X1382Y1245D01*
X1380Y1245D01*
X1380Y1247D01*
X1378Y1247D01*
X1378Y1249D01*
X1376Y1249D01*
X1376Y1251D01*
X1374Y1251D01*
X1374Y1253D01*
X1372Y1253D01*
X1372Y1255D01*
X1370Y1255D01*
X1370Y1257D01*
X1350Y1257D01*
G37*
D02*
G36*
X1450Y1257D02*
X1450Y1253D01*
X1448Y1253D01*
X1448Y1251D01*
X1446Y1251D01*
X1446Y1249D01*
X1444Y1249D01*
X1444Y1247D01*
X1442Y1247D01*
X1442Y1245D01*
X1440Y1245D01*
X1440Y1243D01*
X1438Y1243D01*
X1438Y1241D01*
X1436Y1241D01*
X1436Y1221D01*
X1438Y1221D01*
X1438Y1219D01*
X1440Y1219D01*
X1440Y1217D01*
X1444Y1217D01*
X1444Y1215D01*
X1446Y1215D01*
X1446Y1211D01*
X1448Y1211D01*
X1448Y1209D01*
X1450Y1209D01*
X1450Y1207D01*
X1472Y1207D01*
X1472Y1209D01*
X1474Y1209D01*
X1474Y1211D01*
X1476Y1211D01*
X1476Y1215D01*
X1478Y1215D01*
X1478Y1217D01*
X1482Y1217D01*
X1482Y1219D01*
X1484Y1219D01*
X1484Y1221D01*
X1486Y1221D01*
X1486Y1241D01*
X1484Y1241D01*
X1484Y1243D01*
X1482Y1243D01*
X1482Y1245D01*
X1480Y1245D01*
X1480Y1247D01*
X1478Y1247D01*
X1478Y1249D01*
X1476Y1249D01*
X1476Y1251D01*
X1474Y1251D01*
X1474Y1253D01*
X1472Y1253D01*
X1472Y1255D01*
X1470Y1255D01*
X1470Y1257D01*
X1450Y1257D01*
G37*
D02*
G36*
X950Y1255D02*
X950Y1253D01*
X948Y1253D01*
X948Y1249D01*
X946Y1249D01*
X946Y1247D01*
X944Y1247D01*
X944Y1245D01*
X940Y1245D01*
X940Y1243D01*
X938Y1243D01*
X938Y1241D01*
X936Y1241D01*
X936Y1221D01*
X938Y1221D01*
X938Y1219D01*
X940Y1219D01*
X940Y1217D01*
X944Y1217D01*
X944Y1215D01*
X946Y1215D01*
X946Y1213D01*
X948Y1213D01*
X948Y1209D01*
X950Y1209D01*
X950Y1207D01*
X972Y1207D01*
X972Y1209D01*
X974Y1209D01*
X974Y1211D01*
X976Y1211D01*
X976Y1213D01*
X978Y1213D01*
X978Y1215D01*
X980Y1215D01*
X980Y1217D01*
X982Y1217D01*
X982Y1219D01*
X984Y1219D01*
X984Y1221D01*
X986Y1221D01*
X986Y1241D01*
X984Y1241D01*
X984Y1243D01*
X982Y1243D01*
X982Y1245D01*
X980Y1245D01*
X980Y1247D01*
X978Y1247D01*
X978Y1249D01*
X976Y1249D01*
X976Y1251D01*
X974Y1251D01*
X974Y1253D01*
X972Y1253D01*
X972Y1255D01*
X950Y1255D01*
G37*
D02*
G36*
X1050Y1255D02*
X1050Y1253D01*
X1048Y1253D01*
X1048Y1249D01*
X1046Y1249D01*
X1046Y1247D01*
X1044Y1247D01*
X1044Y1245D01*
X1040Y1245D01*
X1040Y1243D01*
X1038Y1243D01*
X1038Y1241D01*
X1036Y1241D01*
X1036Y1221D01*
X1038Y1221D01*
X1038Y1219D01*
X1040Y1219D01*
X1040Y1217D01*
X1044Y1217D01*
X1044Y1215D01*
X1046Y1215D01*
X1046Y1213D01*
X1048Y1213D01*
X1048Y1209D01*
X1050Y1209D01*
X1050Y1207D01*
X1072Y1207D01*
X1072Y1211D01*
X1074Y1211D01*
X1074Y1213D01*
X1076Y1213D01*
X1076Y1215D01*
X1078Y1215D01*
X1078Y1217D01*
X1080Y1217D01*
X1080Y1219D01*
X1084Y1219D01*
X1084Y1221D01*
X1086Y1221D01*
X1086Y1241D01*
X1084Y1241D01*
X1084Y1243D01*
X1082Y1243D01*
X1082Y1245D01*
X1080Y1245D01*
X1080Y1247D01*
X1076Y1247D01*
X1076Y1251D01*
X1074Y1251D01*
X1074Y1253D01*
X1072Y1253D01*
X1072Y1255D01*
X1050Y1255D01*
G37*
D02*
G36*
X1150Y1255D02*
X1150Y1253D01*
X1148Y1253D01*
X1148Y1251D01*
X1146Y1251D01*
X1146Y1249D01*
X1144Y1249D01*
X1144Y1247D01*
X1142Y1247D01*
X1142Y1245D01*
X1140Y1245D01*
X1140Y1243D01*
X1138Y1243D01*
X1138Y1241D01*
X1136Y1241D01*
X1136Y1221D01*
X1138Y1221D01*
X1138Y1219D01*
X1140Y1219D01*
X1140Y1217D01*
X1144Y1217D01*
X1144Y1215D01*
X1146Y1215D01*
X1146Y1211D01*
X1148Y1211D01*
X1148Y1209D01*
X1150Y1209D01*
X1150Y1207D01*
X1172Y1207D01*
X1172Y1211D01*
X1174Y1211D01*
X1174Y1213D01*
X1176Y1213D01*
X1176Y1215D01*
X1178Y1215D01*
X1178Y1217D01*
X1180Y1217D01*
X1180Y1219D01*
X1182Y1219D01*
X1182Y1221D01*
X1186Y1221D01*
X1186Y1241D01*
X1184Y1241D01*
X1184Y1243D01*
X1182Y1243D01*
X1182Y1245D01*
X1180Y1245D01*
X1180Y1247D01*
X1178Y1247D01*
X1178Y1249D01*
X1176Y1249D01*
X1176Y1251D01*
X1174Y1251D01*
X1174Y1253D01*
X1172Y1253D01*
X1172Y1255D01*
X1150Y1255D01*
G37*
D02*
G36*
X1250Y1255D02*
X1250Y1253D01*
X1248Y1253D01*
X1248Y1251D01*
X1246Y1251D01*
X1246Y1249D01*
X1244Y1249D01*
X1244Y1247D01*
X1242Y1247D01*
X1242Y1245D01*
X1240Y1245D01*
X1240Y1243D01*
X1238Y1243D01*
X1238Y1241D01*
X1236Y1241D01*
X1236Y1221D01*
X1240Y1221D01*
X1240Y1219D01*
X1242Y1219D01*
X1242Y1217D01*
X1244Y1217D01*
X1244Y1215D01*
X1246Y1215D01*
X1246Y1213D01*
X1248Y1213D01*
X1248Y1211D01*
X1250Y1211D01*
X1250Y1207D01*
X1272Y1207D01*
X1272Y1211D01*
X1274Y1211D01*
X1274Y1213D01*
X1276Y1213D01*
X1276Y1215D01*
X1278Y1215D01*
X1278Y1217D01*
X1280Y1217D01*
X1280Y1219D01*
X1282Y1219D01*
X1282Y1221D01*
X1286Y1221D01*
X1286Y1241D01*
X1284Y1241D01*
X1284Y1243D01*
X1282Y1243D01*
X1282Y1245D01*
X1280Y1245D01*
X1280Y1247D01*
X1278Y1247D01*
X1278Y1249D01*
X1276Y1249D01*
X1276Y1251D01*
X1274Y1251D01*
X1274Y1253D01*
X1272Y1253D01*
X1272Y1255D01*
X1250Y1255D01*
G37*
D02*
G36*
X620Y1223D02*
X620Y1221D01*
X618Y1221D01*
X618Y1217D01*
X616Y1217D01*
X616Y1215D01*
X614Y1215D01*
X614Y1213D01*
X612Y1213D01*
X612Y1211D01*
X608Y1211D01*
X608Y1209D01*
X606Y1209D01*
X606Y1207D01*
X602Y1207D01*
X602Y1151D01*
X622Y1151D01*
X622Y1153D01*
X624Y1153D01*
X624Y1155D01*
X626Y1155D01*
X626Y1157D01*
X628Y1157D01*
X628Y1159D01*
X630Y1159D01*
X630Y1161D01*
X632Y1161D01*
X632Y1163D01*
X634Y1163D01*
X634Y1165D01*
X636Y1165D01*
X636Y1167D01*
X638Y1167D01*
X638Y1169D01*
X640Y1169D01*
X640Y1223D01*
X620Y1223D01*
G37*
D02*
G36*
X676Y1217D02*
X676Y1157D01*
X674Y1157D01*
X674Y1153D01*
X672Y1153D01*
X672Y1151D01*
X670Y1151D01*
X670Y1149D01*
X668Y1149D01*
X668Y1147D01*
X666Y1147D01*
X666Y1145D01*
X664Y1145D01*
X664Y1143D01*
X662Y1143D01*
X662Y1141D01*
X660Y1141D01*
X660Y1139D01*
X658Y1139D01*
X658Y1137D01*
X656Y1137D01*
X656Y1135D01*
X654Y1135D01*
X654Y1133D01*
X652Y1133D01*
X652Y1131D01*
X650Y1131D01*
X650Y1129D01*
X648Y1129D01*
X648Y1127D01*
X646Y1127D01*
X646Y1125D01*
X644Y1125D01*
X644Y1123D01*
X642Y1123D01*
X642Y1121D01*
X640Y1121D01*
X640Y1119D01*
X638Y1119D01*
X638Y1117D01*
X636Y1117D01*
X636Y1115D01*
X634Y1115D01*
X634Y1113D01*
X632Y1113D01*
X632Y1111D01*
X630Y1111D01*
X630Y1109D01*
X628Y1109D01*
X628Y1107D01*
X626Y1107D01*
X626Y1105D01*
X624Y1105D01*
X624Y1103D01*
X622Y1103D01*
X622Y1101D01*
X620Y1101D01*
X620Y1099D01*
X618Y1099D01*
X618Y1097D01*
X616Y1097D01*
X616Y1095D01*
X614Y1095D01*
X614Y1093D01*
X612Y1093D01*
X612Y1091D01*
X610Y1091D01*
X610Y1089D01*
X608Y1089D01*
X608Y1087D01*
X606Y1087D01*
X606Y1085D01*
X604Y1085D01*
X604Y1083D01*
X602Y1083D01*
X602Y1081D01*
X600Y1081D01*
X600Y1079D01*
X598Y1079D01*
X598Y1077D01*
X596Y1077D01*
X596Y1075D01*
X594Y1075D01*
X594Y1073D01*
X592Y1073D01*
X592Y1071D01*
X590Y1071D01*
X590Y1069D01*
X588Y1069D01*
X588Y1067D01*
X586Y1067D01*
X586Y1065D01*
X584Y1065D01*
X584Y1063D01*
X582Y1063D01*
X582Y1061D01*
X580Y1061D01*
X580Y1059D01*
X578Y1059D01*
X578Y1057D01*
X576Y1057D01*
X576Y1055D01*
X574Y1055D01*
X574Y1053D01*
X572Y1053D01*
X572Y1051D01*
X570Y1051D01*
X570Y1049D01*
X568Y1049D01*
X568Y1047D01*
X566Y1047D01*
X566Y1045D01*
X564Y1045D01*
X564Y1043D01*
X562Y1043D01*
X562Y1041D01*
X560Y1041D01*
X560Y1039D01*
X558Y1039D01*
X558Y1037D01*
X556Y1037D01*
X556Y1035D01*
X554Y1035D01*
X554Y1033D01*
X552Y1033D01*
X552Y1031D01*
X550Y1031D01*
X550Y1029D01*
X548Y1029D01*
X548Y1027D01*
X546Y1027D01*
X546Y1025D01*
X544Y1025D01*
X544Y1023D01*
X542Y1023D01*
X542Y1021D01*
X540Y1021D01*
X540Y1019D01*
X538Y1019D01*
X538Y1017D01*
X536Y1017D01*
X536Y1015D01*
X534Y1015D01*
X534Y1013D01*
X532Y1013D01*
X532Y1011D01*
X530Y1011D01*
X530Y1009D01*
X528Y1009D01*
X528Y1007D01*
X526Y1007D01*
X526Y1005D01*
X524Y1005D01*
X524Y1003D01*
X522Y1003D01*
X522Y1001D01*
X520Y1001D01*
X520Y999D01*
X518Y999D01*
X518Y997D01*
X516Y997D01*
X516Y995D01*
X514Y995D01*
X514Y993D01*
X512Y993D01*
X512Y991D01*
X510Y991D01*
X510Y989D01*
X508Y989D01*
X508Y983D01*
X528Y983D01*
X528Y985D01*
X530Y985D01*
X530Y987D01*
X532Y987D01*
X532Y989D01*
X534Y989D01*
X534Y991D01*
X536Y991D01*
X536Y993D01*
X538Y993D01*
X538Y995D01*
X540Y995D01*
X540Y997D01*
X542Y997D01*
X542Y999D01*
X544Y999D01*
X544Y1001D01*
X546Y1001D01*
X546Y1003D01*
X548Y1003D01*
X548Y1005D01*
X550Y1005D01*
X550Y1007D01*
X552Y1007D01*
X552Y1009D01*
X554Y1009D01*
X554Y1011D01*
X556Y1011D01*
X556Y1013D01*
X558Y1013D01*
X558Y1015D01*
X560Y1015D01*
X560Y1017D01*
X562Y1017D01*
X562Y1019D01*
X564Y1019D01*
X564Y1021D01*
X566Y1021D01*
X566Y1023D01*
X568Y1023D01*
X568Y1025D01*
X570Y1025D01*
X570Y1027D01*
X572Y1027D01*
X572Y1029D01*
X574Y1029D01*
X574Y1031D01*
X576Y1031D01*
X576Y1033D01*
X578Y1033D01*
X578Y1035D01*
X580Y1035D01*
X580Y1037D01*
X582Y1037D01*
X582Y1039D01*
X584Y1039D01*
X584Y1041D01*
X586Y1041D01*
X586Y1043D01*
X588Y1043D01*
X588Y1045D01*
X590Y1045D01*
X590Y1047D01*
X592Y1047D01*
X592Y1049D01*
X594Y1049D01*
X594Y1051D01*
X596Y1051D01*
X596Y1053D01*
X598Y1053D01*
X598Y1055D01*
X600Y1055D01*
X600Y1057D01*
X602Y1057D01*
X602Y1059D01*
X604Y1059D01*
X604Y1061D01*
X606Y1061D01*
X606Y1063D01*
X608Y1063D01*
X608Y1065D01*
X610Y1065D01*
X610Y1067D01*
X612Y1067D01*
X612Y1069D01*
X614Y1069D01*
X614Y1071D01*
X616Y1071D01*
X616Y1073D01*
X618Y1073D01*
X618Y1075D01*
X620Y1075D01*
X620Y1077D01*
X622Y1077D01*
X622Y1079D01*
X624Y1079D01*
X624Y1081D01*
X626Y1081D01*
X626Y1083D01*
X628Y1083D01*
X628Y1085D01*
X630Y1085D01*
X630Y1087D01*
X632Y1087D01*
X632Y1089D01*
X634Y1089D01*
X634Y1091D01*
X636Y1091D01*
X636Y1093D01*
X638Y1093D01*
X638Y1095D01*
X640Y1095D01*
X640Y1097D01*
X642Y1097D01*
X642Y1099D01*
X644Y1099D01*
X644Y1101D01*
X646Y1101D01*
X646Y1103D01*
X648Y1103D01*
X648Y1105D01*
X650Y1105D01*
X650Y1107D01*
X652Y1107D01*
X652Y1109D01*
X654Y1109D01*
X654Y1111D01*
X656Y1111D01*
X656Y1113D01*
X658Y1113D01*
X658Y1115D01*
X660Y1115D01*
X660Y1117D01*
X662Y1117D01*
X662Y1119D01*
X664Y1119D01*
X664Y1121D01*
X666Y1121D01*
X666Y1123D01*
X668Y1123D01*
X668Y1125D01*
X670Y1125D01*
X670Y1127D01*
X672Y1127D01*
X672Y1129D01*
X674Y1129D01*
X674Y1131D01*
X676Y1131D01*
X676Y1133D01*
X678Y1133D01*
X678Y1135D01*
X680Y1135D01*
X680Y1137D01*
X682Y1137D01*
X682Y1139D01*
X684Y1139D01*
X684Y1141D01*
X686Y1141D01*
X686Y1143D01*
X688Y1143D01*
X688Y1145D01*
X690Y1145D01*
X690Y1147D01*
X692Y1147D01*
X692Y1149D01*
X694Y1149D01*
X694Y1151D01*
X696Y1151D01*
X696Y1153D01*
X698Y1153D01*
X698Y1155D01*
X700Y1155D01*
X700Y1157D01*
X702Y1157D01*
X702Y1159D01*
X704Y1159D01*
X704Y1161D01*
X706Y1161D01*
X706Y1163D01*
X708Y1163D01*
X708Y1165D01*
X710Y1165D01*
X710Y1167D01*
X712Y1167D01*
X712Y1169D01*
X714Y1169D01*
X714Y1171D01*
X716Y1171D01*
X716Y1173D01*
X718Y1173D01*
X718Y1175D01*
X720Y1175D01*
X720Y1177D01*
X722Y1177D01*
X722Y1179D01*
X724Y1179D01*
X724Y1181D01*
X726Y1181D01*
X726Y1201D01*
X720Y1201D01*
X720Y1203D01*
X714Y1203D01*
X714Y1205D01*
X710Y1205D01*
X710Y1207D01*
X706Y1207D01*
X706Y1209D01*
X704Y1209D01*
X704Y1211D01*
X700Y1211D01*
X700Y1213D01*
X698Y1213D01*
X698Y1215D01*
X696Y1215D01*
X696Y1217D01*
X676Y1217D01*
G37*
D02*
G36*
X540Y1211D02*
X540Y1137D01*
X560Y1137D01*
X560Y1139D01*
X562Y1139D01*
X562Y1141D01*
X564Y1141D01*
X564Y1143D01*
X566Y1143D01*
X566Y1207D01*
X562Y1207D01*
X562Y1209D01*
X560Y1209D01*
X560Y1211D01*
X540Y1211D01*
G37*
D02*
G36*
X1350Y1157D02*
X1350Y1153D01*
X1348Y1153D01*
X1348Y1151D01*
X1346Y1151D01*
X1346Y1149D01*
X1344Y1149D01*
X1344Y1147D01*
X1342Y1147D01*
X1342Y1145D01*
X1340Y1145D01*
X1340Y1143D01*
X1338Y1143D01*
X1338Y1141D01*
X1336Y1141D01*
X1336Y1121D01*
X1338Y1121D01*
X1338Y1119D01*
X1340Y1119D01*
X1340Y1117D01*
X1344Y1117D01*
X1344Y1115D01*
X1346Y1115D01*
X1346Y1111D01*
X1348Y1111D01*
X1348Y1109D01*
X1350Y1109D01*
X1350Y1107D01*
X1372Y1107D01*
X1372Y1111D01*
X1374Y1111D01*
X1374Y1113D01*
X1376Y1113D01*
X1376Y1115D01*
X1378Y1115D01*
X1378Y1117D01*
X1380Y1117D01*
X1380Y1119D01*
X1382Y1119D01*
X1382Y1121D01*
X1386Y1121D01*
X1386Y1141D01*
X1384Y1141D01*
X1384Y1143D01*
X1382Y1143D01*
X1382Y1145D01*
X1380Y1145D01*
X1380Y1147D01*
X1378Y1147D01*
X1378Y1149D01*
X1376Y1149D01*
X1376Y1151D01*
X1374Y1151D01*
X1374Y1153D01*
X1372Y1153D01*
X1372Y1155D01*
X1370Y1155D01*
X1370Y1157D01*
X1350Y1157D01*
G37*
D02*
G36*
X1450Y1157D02*
X1450Y1153D01*
X1448Y1153D01*
X1448Y1151D01*
X1446Y1151D01*
X1446Y1149D01*
X1444Y1149D01*
X1444Y1147D01*
X1442Y1147D01*
X1442Y1145D01*
X1440Y1145D01*
X1440Y1143D01*
X1438Y1143D01*
X1438Y1141D01*
X1436Y1141D01*
X1436Y1121D01*
X1438Y1121D01*
X1438Y1119D01*
X1440Y1119D01*
X1440Y1117D01*
X1444Y1117D01*
X1444Y1115D01*
X1446Y1115D01*
X1446Y1111D01*
X1448Y1111D01*
X1448Y1109D01*
X1450Y1109D01*
X1450Y1107D01*
X1472Y1107D01*
X1472Y1109D01*
X1474Y1109D01*
X1474Y1111D01*
X1476Y1111D01*
X1476Y1115D01*
X1478Y1115D01*
X1478Y1117D01*
X1482Y1117D01*
X1482Y1119D01*
X1484Y1119D01*
X1484Y1121D01*
X1486Y1121D01*
X1486Y1141D01*
X1484Y1141D01*
X1484Y1143D01*
X1482Y1143D01*
X1482Y1145D01*
X1480Y1145D01*
X1480Y1147D01*
X1478Y1147D01*
X1478Y1149D01*
X1476Y1149D01*
X1476Y1151D01*
X1474Y1151D01*
X1474Y1153D01*
X1472Y1153D01*
X1472Y1155D01*
X1470Y1155D01*
X1470Y1157D01*
X1450Y1157D01*
G37*
D02*
G36*
X950Y1155D02*
X950Y1153D01*
X948Y1153D01*
X948Y1149D01*
X946Y1149D01*
X946Y1147D01*
X944Y1147D01*
X944Y1145D01*
X940Y1145D01*
X940Y1143D01*
X938Y1143D01*
X938Y1141D01*
X936Y1141D01*
X936Y1121D01*
X938Y1121D01*
X938Y1119D01*
X940Y1119D01*
X940Y1117D01*
X944Y1117D01*
X944Y1115D01*
X946Y1115D01*
X946Y1113D01*
X948Y1113D01*
X948Y1109D01*
X950Y1109D01*
X950Y1107D01*
X972Y1107D01*
X972Y1109D01*
X974Y1109D01*
X974Y1111D01*
X976Y1111D01*
X976Y1113D01*
X978Y1113D01*
X978Y1115D01*
X980Y1115D01*
X980Y1117D01*
X982Y1117D01*
X982Y1119D01*
X984Y1119D01*
X984Y1121D01*
X986Y1121D01*
X986Y1141D01*
X984Y1141D01*
X984Y1143D01*
X982Y1143D01*
X982Y1145D01*
X980Y1145D01*
X980Y1147D01*
X978Y1147D01*
X978Y1149D01*
X976Y1149D01*
X976Y1151D01*
X974Y1151D01*
X974Y1153D01*
X972Y1153D01*
X972Y1155D01*
X950Y1155D01*
G37*
D02*
G36*
X1050Y1155D02*
X1050Y1153D01*
X1048Y1153D01*
X1048Y1149D01*
X1046Y1149D01*
X1046Y1147D01*
X1044Y1147D01*
X1044Y1145D01*
X1040Y1145D01*
X1040Y1143D01*
X1038Y1143D01*
X1038Y1141D01*
X1036Y1141D01*
X1036Y1121D01*
X1038Y1121D01*
X1038Y1119D01*
X1040Y1119D01*
X1040Y1117D01*
X1044Y1117D01*
X1044Y1115D01*
X1046Y1115D01*
X1046Y1113D01*
X1048Y1113D01*
X1048Y1109D01*
X1050Y1109D01*
X1050Y1107D01*
X1072Y1107D01*
X1072Y1111D01*
X1074Y1111D01*
X1074Y1113D01*
X1076Y1113D01*
X1076Y1115D01*
X1078Y1115D01*
X1078Y1117D01*
X1080Y1117D01*
X1080Y1119D01*
X1084Y1119D01*
X1084Y1121D01*
X1086Y1121D01*
X1086Y1141D01*
X1084Y1141D01*
X1084Y1143D01*
X1082Y1143D01*
X1082Y1145D01*
X1080Y1145D01*
X1080Y1147D01*
X1076Y1147D01*
X1076Y1151D01*
X1074Y1151D01*
X1074Y1153D01*
X1072Y1153D01*
X1072Y1155D01*
X1050Y1155D01*
G37*
D02*
G36*
X1150Y1155D02*
X1150Y1153D01*
X1148Y1153D01*
X1148Y1151D01*
X1146Y1151D01*
X1146Y1149D01*
X1144Y1149D01*
X1144Y1147D01*
X1142Y1147D01*
X1142Y1145D01*
X1140Y1145D01*
X1140Y1143D01*
X1138Y1143D01*
X1138Y1141D01*
X1136Y1141D01*
X1136Y1121D01*
X1138Y1121D01*
X1138Y1119D01*
X1140Y1119D01*
X1140Y1117D01*
X1144Y1117D01*
X1144Y1115D01*
X1146Y1115D01*
X1146Y1111D01*
X1148Y1111D01*
X1148Y1109D01*
X1150Y1109D01*
X1150Y1107D01*
X1172Y1107D01*
X1172Y1111D01*
X1174Y1111D01*
X1174Y1113D01*
X1176Y1113D01*
X1176Y1115D01*
X1178Y1115D01*
X1178Y1117D01*
X1180Y1117D01*
X1180Y1119D01*
X1182Y1119D01*
X1182Y1121D01*
X1186Y1121D01*
X1186Y1141D01*
X1184Y1141D01*
X1184Y1143D01*
X1182Y1143D01*
X1182Y1145D01*
X1180Y1145D01*
X1180Y1147D01*
X1178Y1147D01*
X1178Y1149D01*
X1176Y1149D01*
X1176Y1151D01*
X1174Y1151D01*
X1174Y1153D01*
X1172Y1153D01*
X1172Y1155D01*
X1150Y1155D01*
G37*
D02*
G36*
X1250Y1155D02*
X1250Y1153D01*
X1248Y1153D01*
X1248Y1151D01*
X1246Y1151D01*
X1246Y1149D01*
X1244Y1149D01*
X1244Y1147D01*
X1242Y1147D01*
X1242Y1145D01*
X1240Y1145D01*
X1240Y1143D01*
X1238Y1143D01*
X1238Y1141D01*
X1236Y1141D01*
X1236Y1121D01*
X1240Y1121D01*
X1240Y1119D01*
X1242Y1119D01*
X1242Y1117D01*
X1244Y1117D01*
X1244Y1115D01*
X1246Y1115D01*
X1246Y1113D01*
X1248Y1113D01*
X1248Y1111D01*
X1250Y1111D01*
X1250Y1107D01*
X1272Y1107D01*
X1272Y1111D01*
X1274Y1111D01*
X1274Y1113D01*
X1276Y1113D01*
X1276Y1115D01*
X1278Y1115D01*
X1278Y1117D01*
X1280Y1117D01*
X1280Y1119D01*
X1282Y1119D01*
X1282Y1121D01*
X1286Y1121D01*
X1286Y1141D01*
X1284Y1141D01*
X1284Y1143D01*
X1282Y1143D01*
X1282Y1145D01*
X1280Y1145D01*
X1280Y1147D01*
X1278Y1147D01*
X1278Y1149D01*
X1276Y1149D01*
X1276Y1151D01*
X1274Y1151D01*
X1274Y1153D01*
X1272Y1153D01*
X1272Y1155D01*
X1250Y1155D01*
G37*
D02*
G36*
X856Y1149D02*
X856Y1147D01*
X854Y1147D01*
X854Y1145D01*
X852Y1145D01*
X852Y1143D01*
X850Y1143D01*
X850Y1141D01*
X848Y1141D01*
X848Y1139D01*
X846Y1139D01*
X846Y1137D01*
X844Y1137D01*
X844Y1135D01*
X842Y1135D01*
X842Y1133D01*
X840Y1133D01*
X840Y1131D01*
X838Y1131D01*
X838Y1129D01*
X836Y1129D01*
X836Y1127D01*
X834Y1127D01*
X834Y1125D01*
X832Y1125D01*
X832Y1123D01*
X830Y1123D01*
X830Y1121D01*
X826Y1121D01*
X826Y1119D01*
X824Y1119D01*
X824Y1099D01*
X868Y1099D01*
X868Y1103D01*
X870Y1103D01*
X870Y1107D01*
X872Y1107D01*
X872Y1109D01*
X874Y1109D01*
X874Y1111D01*
X876Y1111D01*
X876Y1113D01*
X878Y1113D01*
X878Y1115D01*
X880Y1115D01*
X880Y1117D01*
X882Y1117D01*
X882Y1119D01*
X884Y1119D01*
X884Y1121D01*
X886Y1121D01*
X886Y1141D01*
X884Y1141D01*
X884Y1143D01*
X882Y1143D01*
X882Y1145D01*
X880Y1145D01*
X880Y1147D01*
X878Y1147D01*
X878Y1149D01*
X856Y1149D01*
G37*
D02*
G36*
X222Y1071D02*
X222Y1069D01*
X220Y1069D01*
X220Y1067D01*
X218Y1067D01*
X218Y1065D01*
X216Y1065D01*
X216Y1063D01*
X214Y1063D01*
X214Y1061D01*
X212Y1061D01*
X212Y1059D01*
X210Y1059D01*
X210Y1057D01*
X208Y1057D01*
X208Y1055D01*
X206Y1055D01*
X206Y1053D01*
X204Y1053D01*
X204Y1051D01*
X202Y1051D01*
X202Y1049D01*
X200Y1049D01*
X200Y1047D01*
X198Y1047D01*
X198Y1045D01*
X194Y1045D01*
X194Y1043D01*
X192Y1043D01*
X192Y1041D01*
X190Y1041D01*
X190Y1039D01*
X188Y1039D01*
X188Y1037D01*
X186Y1037D01*
X186Y1035D01*
X184Y1035D01*
X184Y1033D01*
X182Y1033D01*
X182Y1031D01*
X180Y1031D01*
X180Y1029D01*
X178Y1029D01*
X178Y1027D01*
X176Y1027D01*
X176Y1025D01*
X174Y1025D01*
X174Y1023D01*
X172Y1023D01*
X172Y1021D01*
X170Y1021D01*
X170Y1019D01*
X168Y1019D01*
X168Y1017D01*
X164Y1017D01*
X164Y1015D01*
X162Y1015D01*
X162Y1013D01*
X160Y1013D01*
X160Y1011D01*
X292Y1011D01*
X292Y1013D01*
X284Y1013D01*
X284Y1015D01*
X280Y1015D01*
X280Y1017D01*
X278Y1017D01*
X278Y1019D01*
X276Y1019D01*
X276Y1021D01*
X274Y1021D01*
X274Y1023D01*
X272Y1023D01*
X272Y1025D01*
X270Y1025D01*
X270Y1027D01*
X268Y1027D01*
X268Y1031D01*
X266Y1031D01*
X266Y1039D01*
X264Y1039D01*
X264Y1045D01*
X266Y1045D01*
X266Y1051D01*
X268Y1051D01*
X268Y1071D01*
X222Y1071D01*
G37*
D02*
G36*
X316Y1023D02*
X316Y1021D01*
X312Y1021D01*
X312Y1019D01*
X310Y1019D01*
X310Y1017D01*
X308Y1017D01*
X308Y1015D01*
X304Y1015D01*
X304Y1013D01*
X296Y1013D01*
X296Y1011D01*
X396Y1011D01*
X396Y1023D01*
X316Y1023D01*
G37*
D02*
G36*
X158Y1011D02*
X158Y1009D01*
X396Y1009D01*
X396Y1011D01*
X158Y1011D01*
G37*
D02*
G36*
X158Y1011D02*
X158Y1009D01*
X396Y1009D01*
X396Y1011D01*
X158Y1011D01*
G37*
D02*
G36*
X156Y1009D02*
X156Y1007D01*
X154Y1007D01*
X154Y1005D01*
X152Y1005D01*
X152Y979D01*
X368Y979D01*
X368Y981D01*
X370Y981D01*
X370Y983D01*
X372Y983D01*
X372Y985D01*
X376Y985D01*
X376Y987D01*
X378Y987D01*
X378Y989D01*
X380Y989D01*
X380Y991D01*
X382Y991D01*
X382Y993D01*
X384Y993D01*
X384Y995D01*
X386Y995D01*
X386Y997D01*
X388Y997D01*
X388Y999D01*
X390Y999D01*
X390Y1001D01*
X394Y1001D01*
X394Y1003D01*
X396Y1003D01*
X396Y1009D01*
X156Y1009D01*
G37*
D02*
G36*
X818Y1063D02*
X818Y1061D01*
X816Y1061D01*
X816Y1059D01*
X814Y1059D01*
X814Y1057D01*
X812Y1057D01*
X812Y1055D01*
X810Y1055D01*
X810Y1053D01*
X808Y1053D01*
X808Y1051D01*
X806Y1051D01*
X806Y1049D01*
X804Y1049D01*
X804Y1047D01*
X802Y1047D01*
X802Y1045D01*
X800Y1045D01*
X800Y1043D01*
X798Y1043D01*
X798Y1041D01*
X796Y1041D01*
X796Y1039D01*
X794Y1039D01*
X794Y1037D01*
X792Y1037D01*
X792Y1025D01*
X790Y1025D01*
X790Y969D01*
X836Y969D01*
X836Y979D01*
X838Y979D01*
X838Y983D01*
X840Y983D01*
X840Y987D01*
X842Y987D01*
X842Y989D01*
X844Y989D01*
X844Y991D01*
X846Y991D01*
X846Y993D01*
X848Y993D01*
X848Y995D01*
X850Y995D01*
X850Y997D01*
X852Y997D01*
X852Y1001D01*
X854Y1001D01*
X854Y1003D01*
X856Y1003D01*
X856Y1005D01*
X858Y1005D01*
X858Y1007D01*
X860Y1007D01*
X860Y1009D01*
X862Y1009D01*
X862Y1011D01*
X864Y1011D01*
X864Y1015D01*
X866Y1015D01*
X866Y1017D01*
X868Y1017D01*
X868Y1019D01*
X870Y1019D01*
X870Y1021D01*
X872Y1021D01*
X872Y1023D01*
X878Y1023D01*
X878Y1025D01*
X882Y1025D01*
X882Y1045D01*
X880Y1045D01*
X880Y1047D01*
X878Y1047D01*
X878Y1049D01*
X876Y1049D01*
X876Y1051D01*
X874Y1051D01*
X874Y1053D01*
X872Y1053D01*
X872Y1055D01*
X870Y1055D01*
X870Y1059D01*
X868Y1059D01*
X868Y1063D01*
X818Y1063D01*
G37*
D02*
G36*
X1350Y1057D02*
X1350Y1053D01*
X1348Y1053D01*
X1348Y1051D01*
X1346Y1051D01*
X1346Y1049D01*
X1344Y1049D01*
X1344Y1047D01*
X1342Y1047D01*
X1342Y1045D01*
X1340Y1045D01*
X1340Y1043D01*
X1338Y1043D01*
X1338Y1041D01*
X1336Y1041D01*
X1336Y1021D01*
X1338Y1021D01*
X1338Y1019D01*
X1340Y1019D01*
X1340Y1017D01*
X1344Y1017D01*
X1344Y1015D01*
X1346Y1015D01*
X1346Y1011D01*
X1348Y1011D01*
X1348Y1009D01*
X1350Y1009D01*
X1350Y1007D01*
X1372Y1007D01*
X1372Y1011D01*
X1374Y1011D01*
X1374Y1013D01*
X1376Y1013D01*
X1376Y1015D01*
X1378Y1015D01*
X1378Y1017D01*
X1380Y1017D01*
X1380Y1019D01*
X1382Y1019D01*
X1382Y1021D01*
X1386Y1021D01*
X1386Y1041D01*
X1384Y1041D01*
X1384Y1043D01*
X1382Y1043D01*
X1382Y1045D01*
X1380Y1045D01*
X1380Y1047D01*
X1378Y1047D01*
X1378Y1049D01*
X1376Y1049D01*
X1376Y1051D01*
X1374Y1051D01*
X1374Y1053D01*
X1372Y1053D01*
X1372Y1055D01*
X1370Y1055D01*
X1370Y1057D01*
X1350Y1057D01*
G37*
D02*
G36*
X1450Y1057D02*
X1450Y1053D01*
X1448Y1053D01*
X1448Y1051D01*
X1446Y1051D01*
X1446Y1049D01*
X1444Y1049D01*
X1444Y1047D01*
X1442Y1047D01*
X1442Y1045D01*
X1440Y1045D01*
X1440Y1043D01*
X1438Y1043D01*
X1438Y1041D01*
X1436Y1041D01*
X1436Y1021D01*
X1438Y1021D01*
X1438Y1019D01*
X1440Y1019D01*
X1440Y1017D01*
X1444Y1017D01*
X1444Y1015D01*
X1446Y1015D01*
X1446Y1011D01*
X1448Y1011D01*
X1448Y1009D01*
X1450Y1009D01*
X1450Y1007D01*
X1472Y1007D01*
X1472Y1009D01*
X1474Y1009D01*
X1474Y1011D01*
X1476Y1011D01*
X1476Y1015D01*
X1478Y1015D01*
X1478Y1017D01*
X1482Y1017D01*
X1482Y1019D01*
X1484Y1019D01*
X1484Y1021D01*
X1486Y1021D01*
X1486Y1041D01*
X1484Y1041D01*
X1484Y1043D01*
X1482Y1043D01*
X1482Y1045D01*
X1480Y1045D01*
X1480Y1047D01*
X1478Y1047D01*
X1478Y1049D01*
X1476Y1049D01*
X1476Y1051D01*
X1474Y1051D01*
X1474Y1053D01*
X1472Y1053D01*
X1472Y1055D01*
X1470Y1055D01*
X1470Y1057D01*
X1450Y1057D01*
G37*
D02*
G36*
X1050Y1055D02*
X1050Y1053D01*
X1048Y1053D01*
X1048Y1049D01*
X1046Y1049D01*
X1046Y1047D01*
X1044Y1047D01*
X1044Y1045D01*
X1040Y1045D01*
X1040Y1043D01*
X1038Y1043D01*
X1038Y1041D01*
X1036Y1041D01*
X1036Y1039D01*
X1032Y1039D01*
X1032Y1037D01*
X1028Y1037D01*
X1028Y1035D01*
X1024Y1035D01*
X1024Y1033D01*
X1100Y1033D01*
X1100Y1035D01*
X1094Y1035D01*
X1094Y1037D01*
X1090Y1037D01*
X1090Y1039D01*
X1086Y1039D01*
X1086Y1041D01*
X1084Y1041D01*
X1084Y1043D01*
X1082Y1043D01*
X1082Y1045D01*
X1080Y1045D01*
X1080Y1047D01*
X1076Y1047D01*
X1076Y1051D01*
X1074Y1051D01*
X1074Y1053D01*
X1072Y1053D01*
X1072Y1055D01*
X1050Y1055D01*
G37*
D02*
G36*
X1150Y1055D02*
X1150Y1053D01*
X1148Y1053D01*
X1148Y1051D01*
X1146Y1051D01*
X1146Y1049D01*
X1144Y1049D01*
X1144Y1047D01*
X1142Y1047D01*
X1142Y1045D01*
X1140Y1045D01*
X1140Y1043D01*
X1138Y1043D01*
X1138Y1041D01*
X1134Y1041D01*
X1134Y1039D01*
X1132Y1039D01*
X1132Y1037D01*
X1126Y1037D01*
X1126Y1035D01*
X1122Y1035D01*
X1122Y1033D01*
X1186Y1033D01*
X1186Y1041D01*
X1184Y1041D01*
X1184Y1043D01*
X1182Y1043D01*
X1182Y1045D01*
X1180Y1045D01*
X1180Y1047D01*
X1178Y1047D01*
X1178Y1049D01*
X1176Y1049D01*
X1176Y1051D01*
X1174Y1051D01*
X1174Y1053D01*
X1172Y1053D01*
X1172Y1055D01*
X1150Y1055D01*
G37*
D02*
G36*
X1022Y1033D02*
X1022Y1031D01*
X1186Y1031D01*
X1186Y1033D01*
X1022Y1033D01*
G37*
D02*
G36*
X1022Y1033D02*
X1022Y1031D01*
X1186Y1031D01*
X1186Y1033D01*
X1022Y1033D01*
G37*
D02*
G36*
X1020Y1031D02*
X1020Y1029D01*
X1018Y1029D01*
X1018Y1027D01*
X1016Y1027D01*
X1016Y1025D01*
X1014Y1025D01*
X1014Y1023D01*
X1012Y1023D01*
X1012Y1021D01*
X1010Y1021D01*
X1010Y1019D01*
X1008Y1019D01*
X1008Y1017D01*
X1006Y1017D01*
X1006Y1015D01*
X1004Y1015D01*
X1004Y1013D01*
X1002Y1013D01*
X1002Y1011D01*
X1000Y1011D01*
X1000Y1007D01*
X998Y1007D01*
X998Y1005D01*
X996Y1005D01*
X996Y1003D01*
X994Y1003D01*
X994Y1001D01*
X992Y1001D01*
X992Y999D01*
X990Y999D01*
X990Y997D01*
X988Y997D01*
X988Y995D01*
X986Y995D01*
X986Y993D01*
X984Y993D01*
X984Y991D01*
X980Y991D01*
X980Y989D01*
X978Y989D01*
X978Y969D01*
X980Y969D01*
X980Y965D01*
X982Y965D01*
X982Y959D01*
X984Y959D01*
X984Y949D01*
X982Y949D01*
X982Y945D01*
X980Y945D01*
X980Y941D01*
X978Y941D01*
X978Y937D01*
X976Y937D01*
X976Y917D01*
X1008Y917D01*
X1008Y849D01*
X1156Y849D01*
X1156Y813D01*
X1176Y813D01*
X1176Y815D01*
X1178Y815D01*
X1178Y817D01*
X1180Y817D01*
X1180Y819D01*
X1182Y819D01*
X1182Y821D01*
X1186Y821D01*
X1186Y841D01*
X1184Y841D01*
X1184Y843D01*
X1182Y843D01*
X1182Y845D01*
X1180Y845D01*
X1180Y847D01*
X1178Y847D01*
X1178Y849D01*
X1176Y849D01*
X1176Y851D01*
X1174Y851D01*
X1174Y853D01*
X1172Y853D01*
X1172Y855D01*
X1170Y855D01*
X1170Y859D01*
X1168Y859D01*
X1168Y863D01*
X1166Y863D01*
X1166Y867D01*
X1164Y867D01*
X1164Y873D01*
X1162Y873D01*
X1162Y887D01*
X1062Y887D01*
X1062Y971D01*
X1164Y971D01*
X1164Y973D01*
X1162Y973D01*
X1162Y991D01*
X1164Y991D01*
X1164Y997D01*
X1166Y997D01*
X1166Y1001D01*
X1168Y1001D01*
X1168Y1005D01*
X1170Y1005D01*
X1170Y1007D01*
X1172Y1007D01*
X1172Y1011D01*
X1174Y1011D01*
X1174Y1013D01*
X1176Y1013D01*
X1176Y1015D01*
X1178Y1015D01*
X1178Y1017D01*
X1180Y1017D01*
X1180Y1019D01*
X1182Y1019D01*
X1182Y1021D01*
X1186Y1021D01*
X1186Y1031D01*
X1020Y1031D01*
G37*
D02*
G36*
X1008Y849D02*
X1008Y827D01*
X1054Y827D01*
X1054Y829D01*
X1062Y829D01*
X1062Y849D01*
X1008Y849D01*
G37*
D02*
G36*
X1250Y1055D02*
X1250Y1053D01*
X1248Y1053D01*
X1248Y1051D01*
X1246Y1051D01*
X1246Y1049D01*
X1244Y1049D01*
X1244Y1047D01*
X1242Y1047D01*
X1242Y1045D01*
X1240Y1045D01*
X1240Y1043D01*
X1238Y1043D01*
X1238Y1041D01*
X1236Y1041D01*
X1236Y1021D01*
X1240Y1021D01*
X1240Y1019D01*
X1242Y1019D01*
X1242Y1017D01*
X1244Y1017D01*
X1244Y1015D01*
X1246Y1015D01*
X1246Y1013D01*
X1248Y1013D01*
X1248Y1011D01*
X1250Y1011D01*
X1250Y1007D01*
X1272Y1007D01*
X1272Y1011D01*
X1274Y1011D01*
X1274Y1013D01*
X1276Y1013D01*
X1276Y1015D01*
X1278Y1015D01*
X1278Y1017D01*
X1280Y1017D01*
X1280Y1019D01*
X1282Y1019D01*
X1282Y1021D01*
X1286Y1021D01*
X1286Y1041D01*
X1284Y1041D01*
X1284Y1043D01*
X1282Y1043D01*
X1282Y1045D01*
X1280Y1045D01*
X1280Y1047D01*
X1278Y1047D01*
X1278Y1049D01*
X1276Y1049D01*
X1276Y1051D01*
X1274Y1051D01*
X1274Y1053D01*
X1272Y1053D01*
X1272Y1055D01*
X1250Y1055D01*
G37*
D02*
G36*
X734Y1031D02*
X734Y1029D01*
X732Y1029D01*
X732Y1027D01*
X730Y1027D01*
X730Y1025D01*
X728Y1025D01*
X728Y1023D01*
X726Y1023D01*
X726Y1021D01*
X724Y1021D01*
X724Y1019D01*
X722Y1019D01*
X722Y1017D01*
X720Y1017D01*
X720Y1015D01*
X718Y1015D01*
X718Y1013D01*
X716Y1013D01*
X716Y1011D01*
X714Y1011D01*
X714Y1009D01*
X712Y1009D01*
X712Y969D01*
X754Y969D01*
X754Y1025D01*
X756Y1025D01*
X756Y1031D01*
X734Y1031D01*
G37*
D02*
G36*
X890Y989D02*
X890Y987D01*
X888Y987D01*
X888Y985D01*
X886Y985D01*
X886Y983D01*
X884Y983D01*
X884Y917D01*
X932Y917D01*
X932Y937D01*
X930Y937D01*
X930Y941D01*
X928Y941D01*
X928Y943D01*
X926Y943D01*
X926Y949D01*
X924Y949D01*
X924Y961D01*
X926Y961D01*
X926Y965D01*
X928Y965D01*
X928Y969D01*
X930Y969D01*
X930Y989D01*
X890Y989D01*
G37*
D02*
G36*
X404Y965D02*
X404Y963D01*
X402Y963D01*
X402Y961D01*
X400Y961D01*
X400Y959D01*
X398Y959D01*
X398Y957D01*
X396Y957D01*
X396Y955D01*
X394Y955D01*
X394Y953D01*
X390Y953D01*
X390Y951D01*
X388Y951D01*
X388Y949D01*
X386Y949D01*
X386Y947D01*
X384Y947D01*
X384Y945D01*
X380Y945D01*
X380Y943D01*
X190Y943D01*
X190Y903D01*
X276Y903D01*
X276Y901D01*
X300Y901D01*
X300Y917D01*
X424Y917D01*
X424Y965D01*
X404Y965D01*
G37*
D02*
G36*
X1350Y957D02*
X1350Y953D01*
X1348Y953D01*
X1348Y951D01*
X1346Y951D01*
X1346Y949D01*
X1344Y949D01*
X1344Y947D01*
X1342Y947D01*
X1342Y945D01*
X1340Y945D01*
X1340Y943D01*
X1338Y943D01*
X1338Y941D01*
X1336Y941D01*
X1336Y921D01*
X1338Y921D01*
X1338Y919D01*
X1340Y919D01*
X1340Y917D01*
X1344Y917D01*
X1344Y915D01*
X1346Y915D01*
X1346Y911D01*
X1348Y911D01*
X1348Y909D01*
X1350Y909D01*
X1350Y907D01*
X1372Y907D01*
X1372Y911D01*
X1374Y911D01*
X1374Y913D01*
X1376Y913D01*
X1376Y915D01*
X1378Y915D01*
X1378Y917D01*
X1380Y917D01*
X1380Y919D01*
X1382Y919D01*
X1382Y921D01*
X1386Y921D01*
X1386Y941D01*
X1384Y941D01*
X1384Y943D01*
X1382Y943D01*
X1382Y945D01*
X1380Y945D01*
X1380Y947D01*
X1378Y947D01*
X1378Y949D01*
X1376Y949D01*
X1376Y951D01*
X1374Y951D01*
X1374Y953D01*
X1372Y953D01*
X1372Y955D01*
X1370Y955D01*
X1370Y957D01*
X1350Y957D01*
G37*
D02*
G36*
X1450Y957D02*
X1450Y953D01*
X1448Y953D01*
X1448Y951D01*
X1446Y951D01*
X1446Y949D01*
X1444Y949D01*
X1444Y947D01*
X1442Y947D01*
X1442Y945D01*
X1440Y945D01*
X1440Y943D01*
X1438Y943D01*
X1438Y941D01*
X1436Y941D01*
X1436Y921D01*
X1438Y921D01*
X1438Y919D01*
X1440Y919D01*
X1440Y917D01*
X1444Y917D01*
X1444Y915D01*
X1446Y915D01*
X1446Y911D01*
X1448Y911D01*
X1448Y909D01*
X1450Y909D01*
X1450Y907D01*
X1472Y907D01*
X1472Y909D01*
X1474Y909D01*
X1474Y911D01*
X1476Y911D01*
X1476Y915D01*
X1478Y915D01*
X1478Y917D01*
X1482Y917D01*
X1482Y919D01*
X1484Y919D01*
X1484Y921D01*
X1486Y921D01*
X1486Y941D01*
X1484Y941D01*
X1484Y943D01*
X1482Y943D01*
X1482Y945D01*
X1480Y945D01*
X1480Y947D01*
X1478Y947D01*
X1478Y949D01*
X1476Y949D01*
X1476Y951D01*
X1474Y951D01*
X1474Y953D01*
X1472Y953D01*
X1472Y955D01*
X1470Y955D01*
X1470Y957D01*
X1450Y957D01*
G37*
D02*
G36*
X1250Y955D02*
X1250Y953D01*
X1248Y953D01*
X1248Y951D01*
X1246Y951D01*
X1246Y949D01*
X1244Y949D01*
X1244Y947D01*
X1242Y947D01*
X1242Y945D01*
X1240Y945D01*
X1240Y943D01*
X1238Y943D01*
X1238Y941D01*
X1236Y941D01*
X1236Y921D01*
X1240Y921D01*
X1240Y919D01*
X1242Y919D01*
X1242Y917D01*
X1244Y917D01*
X1244Y915D01*
X1246Y915D01*
X1246Y913D01*
X1248Y913D01*
X1248Y911D01*
X1250Y911D01*
X1250Y907D01*
X1272Y907D01*
X1272Y911D01*
X1274Y911D01*
X1274Y913D01*
X1276Y913D01*
X1276Y915D01*
X1278Y915D01*
X1278Y917D01*
X1280Y917D01*
X1280Y919D01*
X1282Y919D01*
X1282Y921D01*
X1286Y921D01*
X1286Y941D01*
X1284Y941D01*
X1284Y943D01*
X1282Y943D01*
X1282Y945D01*
X1280Y945D01*
X1280Y947D01*
X1278Y947D01*
X1278Y949D01*
X1276Y949D01*
X1276Y951D01*
X1274Y951D01*
X1274Y953D01*
X1272Y953D01*
X1272Y955D01*
X1250Y955D01*
G37*
D02*
G36*
X40Y945D02*
X40Y831D01*
X60Y831D01*
X60Y833D01*
X62Y833D01*
X62Y835D01*
X64Y835D01*
X64Y837D01*
X66Y837D01*
X66Y839D01*
X68Y839D01*
X68Y841D01*
X70Y841D01*
X70Y843D01*
X72Y843D01*
X72Y845D01*
X74Y845D01*
X74Y847D01*
X76Y847D01*
X76Y849D01*
X78Y849D01*
X78Y851D01*
X80Y851D01*
X80Y853D01*
X82Y853D01*
X82Y855D01*
X84Y855D01*
X84Y857D01*
X86Y857D01*
X86Y859D01*
X88Y859D01*
X88Y861D01*
X90Y861D01*
X90Y863D01*
X92Y863D01*
X92Y865D01*
X94Y865D01*
X94Y867D01*
X96Y867D01*
X96Y931D01*
X74Y931D01*
X74Y933D01*
X70Y933D01*
X70Y935D01*
X68Y935D01*
X68Y937D01*
X66Y937D01*
X66Y939D01*
X62Y939D01*
X62Y943D01*
X60Y943D01*
X60Y945D01*
X40Y945D01*
G37*
D02*
G36*
X238Y867D02*
X238Y847D01*
X242Y847D01*
X242Y845D01*
X244Y845D01*
X244Y843D01*
X246Y843D01*
X246Y839D01*
X248Y839D01*
X248Y837D01*
X250Y837D01*
X250Y833D01*
X252Y833D01*
X252Y825D01*
X254Y825D01*
X254Y823D01*
X300Y823D01*
X300Y865D01*
X274Y865D01*
X274Y867D01*
X238Y867D01*
G37*
D02*
G36*
X1350Y857D02*
X1350Y853D01*
X1348Y853D01*
X1348Y851D01*
X1346Y851D01*
X1346Y849D01*
X1344Y849D01*
X1344Y847D01*
X1342Y847D01*
X1342Y845D01*
X1340Y845D01*
X1340Y843D01*
X1338Y843D01*
X1338Y841D01*
X1336Y841D01*
X1336Y821D01*
X1338Y821D01*
X1338Y819D01*
X1340Y819D01*
X1340Y817D01*
X1344Y817D01*
X1344Y815D01*
X1346Y815D01*
X1346Y811D01*
X1348Y811D01*
X1348Y809D01*
X1350Y809D01*
X1350Y807D01*
X1372Y807D01*
X1372Y811D01*
X1374Y811D01*
X1374Y813D01*
X1376Y813D01*
X1376Y815D01*
X1378Y815D01*
X1378Y817D01*
X1380Y817D01*
X1380Y819D01*
X1382Y819D01*
X1382Y821D01*
X1386Y821D01*
X1386Y841D01*
X1384Y841D01*
X1384Y843D01*
X1382Y843D01*
X1382Y845D01*
X1380Y845D01*
X1380Y847D01*
X1378Y847D01*
X1378Y849D01*
X1376Y849D01*
X1376Y851D01*
X1374Y851D01*
X1374Y853D01*
X1372Y853D01*
X1372Y855D01*
X1370Y855D01*
X1370Y857D01*
X1350Y857D01*
G37*
D02*
G36*
X1450Y857D02*
X1450Y853D01*
X1448Y853D01*
X1448Y851D01*
X1446Y851D01*
X1446Y849D01*
X1444Y849D01*
X1444Y847D01*
X1442Y847D01*
X1442Y845D01*
X1440Y845D01*
X1440Y843D01*
X1438Y843D01*
X1438Y841D01*
X1436Y841D01*
X1436Y821D01*
X1438Y821D01*
X1438Y819D01*
X1440Y819D01*
X1440Y817D01*
X1444Y817D01*
X1444Y815D01*
X1446Y815D01*
X1446Y811D01*
X1448Y811D01*
X1448Y809D01*
X1450Y809D01*
X1450Y807D01*
X1472Y807D01*
X1472Y809D01*
X1474Y809D01*
X1474Y811D01*
X1476Y811D01*
X1476Y815D01*
X1478Y815D01*
X1478Y817D01*
X1482Y817D01*
X1482Y819D01*
X1484Y819D01*
X1484Y821D01*
X1486Y821D01*
X1486Y841D01*
X1484Y841D01*
X1484Y843D01*
X1482Y843D01*
X1482Y845D01*
X1480Y845D01*
X1480Y847D01*
X1478Y847D01*
X1478Y849D01*
X1476Y849D01*
X1476Y851D01*
X1474Y851D01*
X1474Y853D01*
X1472Y853D01*
X1472Y855D01*
X1470Y855D01*
X1470Y857D01*
X1450Y857D01*
G37*
D02*
G36*
X1250Y855D02*
X1250Y853D01*
X1248Y853D01*
X1248Y851D01*
X1246Y851D01*
X1246Y849D01*
X1244Y849D01*
X1244Y847D01*
X1242Y847D01*
X1242Y845D01*
X1240Y845D01*
X1240Y843D01*
X1238Y843D01*
X1238Y841D01*
X1236Y841D01*
X1236Y821D01*
X1240Y821D01*
X1240Y819D01*
X1242Y819D01*
X1242Y817D01*
X1244Y817D01*
X1244Y815D01*
X1246Y815D01*
X1246Y813D01*
X1248Y813D01*
X1248Y811D01*
X1250Y811D01*
X1250Y807D01*
X1272Y807D01*
X1272Y811D01*
X1274Y811D01*
X1274Y813D01*
X1276Y813D01*
X1276Y815D01*
X1278Y815D01*
X1278Y817D01*
X1280Y817D01*
X1280Y819D01*
X1282Y819D01*
X1282Y821D01*
X1286Y821D01*
X1286Y841D01*
X1284Y841D01*
X1284Y843D01*
X1282Y843D01*
X1282Y845D01*
X1280Y845D01*
X1280Y847D01*
X1278Y847D01*
X1278Y849D01*
X1276Y849D01*
X1276Y851D01*
X1274Y851D01*
X1274Y853D01*
X1272Y853D01*
X1272Y855D01*
X1250Y855D01*
G37*
D02*
G36*
X132Y843D02*
X132Y841D01*
X130Y841D01*
X130Y839D01*
X128Y839D01*
X128Y837D01*
X126Y837D01*
X126Y835D01*
X124Y835D01*
X124Y833D01*
X122Y833D01*
X122Y831D01*
X120Y831D01*
X120Y829D01*
X118Y829D01*
X118Y827D01*
X116Y827D01*
X116Y825D01*
X114Y825D01*
X114Y805D01*
X202Y805D01*
X202Y807D01*
X200Y807D01*
X200Y809D01*
X198Y809D01*
X198Y813D01*
X196Y813D01*
X196Y817D01*
X194Y817D01*
X194Y831D01*
X196Y831D01*
X196Y835D01*
X198Y835D01*
X198Y839D01*
X200Y839D01*
X200Y841D01*
X202Y841D01*
X202Y843D01*
X132Y843D01*
G37*
D02*
G36*
X190Y799D02*
X190Y745D01*
X192Y745D01*
X192Y743D01*
X194Y743D01*
X194Y741D01*
X196Y741D01*
X196Y739D01*
X198Y739D01*
X198Y737D01*
X202Y737D01*
X202Y735D01*
X204Y735D01*
X204Y733D01*
X206Y733D01*
X206Y731D01*
X208Y731D01*
X208Y729D01*
X210Y729D01*
X210Y727D01*
X212Y727D01*
X212Y725D01*
X214Y725D01*
X214Y723D01*
X216Y723D01*
X216Y721D01*
X220Y721D01*
X220Y719D01*
X222Y719D01*
X222Y717D01*
X224Y717D01*
X224Y715D01*
X226Y715D01*
X226Y713D01*
X228Y713D01*
X228Y711D01*
X230Y711D01*
X230Y709D01*
X232Y709D01*
X232Y707D01*
X234Y707D01*
X234Y705D01*
X238Y705D01*
X238Y703D01*
X240Y703D01*
X240Y701D01*
X242Y701D01*
X242Y699D01*
X244Y699D01*
X244Y697D01*
X246Y697D01*
X246Y695D01*
X248Y695D01*
X248Y693D01*
X250Y693D01*
X250Y691D01*
X252Y691D01*
X252Y689D01*
X256Y689D01*
X256Y687D01*
X258Y687D01*
X258Y685D01*
X260Y685D01*
X260Y683D01*
X262Y683D01*
X262Y681D01*
X264Y681D01*
X264Y679D01*
X266Y679D01*
X266Y677D01*
X268Y677D01*
X268Y675D01*
X270Y675D01*
X270Y673D01*
X274Y673D01*
X274Y671D01*
X276Y671D01*
X276Y669D01*
X278Y669D01*
X278Y667D01*
X280Y667D01*
X280Y665D01*
X300Y665D01*
X300Y787D01*
X238Y787D01*
X238Y789D01*
X236Y789D01*
X236Y791D01*
X232Y791D01*
X232Y793D01*
X222Y793D01*
X222Y795D01*
X214Y795D01*
X214Y797D01*
X210Y797D01*
X210Y799D01*
X190Y799D01*
G37*
D02*
G36*
X76Y787D02*
X76Y785D01*
X74Y785D01*
X74Y783D01*
X72Y783D01*
X72Y781D01*
X70Y781D01*
X70Y779D01*
X68Y779D01*
X68Y777D01*
X66Y777D01*
X66Y775D01*
X64Y775D01*
X64Y773D01*
X62Y773D01*
X62Y649D01*
X122Y649D01*
X122Y647D01*
X126Y647D01*
X126Y645D01*
X130Y645D01*
X130Y643D01*
X132Y643D01*
X132Y641D01*
X134Y641D01*
X134Y639D01*
X136Y639D01*
X136Y637D01*
X138Y637D01*
X138Y633D01*
X140Y633D01*
X140Y629D01*
X142Y629D01*
X142Y623D01*
X144Y623D01*
X144Y615D01*
X146Y615D01*
X146Y613D01*
X148Y613D01*
X148Y611D01*
X150Y611D01*
X150Y609D01*
X152Y609D01*
X152Y607D01*
X154Y607D01*
X154Y605D01*
X156Y605D01*
X156Y603D01*
X158Y603D01*
X158Y601D01*
X160Y601D01*
X160Y599D01*
X162Y599D01*
X162Y597D01*
X164Y597D01*
X164Y595D01*
X166Y595D01*
X166Y593D01*
X168Y593D01*
X168Y591D01*
X170Y591D01*
X170Y589D01*
X172Y589D01*
X172Y587D01*
X174Y587D01*
X174Y585D01*
X176Y585D01*
X176Y583D01*
X178Y583D01*
X178Y581D01*
X180Y581D01*
X180Y579D01*
X182Y579D01*
X182Y577D01*
X184Y577D01*
X184Y575D01*
X186Y575D01*
X186Y573D01*
X188Y573D01*
X188Y571D01*
X190Y571D01*
X190Y569D01*
X192Y569D01*
X192Y567D01*
X194Y567D01*
X194Y565D01*
X196Y565D01*
X196Y563D01*
X198Y563D01*
X198Y561D01*
X200Y561D01*
X200Y559D01*
X202Y559D01*
X202Y557D01*
X204Y557D01*
X204Y555D01*
X206Y555D01*
X206Y553D01*
X208Y553D01*
X208Y551D01*
X210Y551D01*
X210Y549D01*
X212Y549D01*
X212Y547D01*
X214Y547D01*
X214Y545D01*
X216Y545D01*
X216Y543D01*
X218Y543D01*
X218Y541D01*
X238Y541D01*
X238Y545D01*
X240Y545D01*
X240Y597D01*
X238Y597D01*
X238Y599D01*
X236Y599D01*
X236Y601D01*
X234Y601D01*
X234Y603D01*
X232Y603D01*
X232Y605D01*
X230Y605D01*
X230Y607D01*
X228Y607D01*
X228Y609D01*
X226Y609D01*
X226Y611D01*
X224Y611D01*
X224Y613D01*
X222Y613D01*
X222Y615D01*
X220Y615D01*
X220Y617D01*
X218Y617D01*
X218Y619D01*
X216Y619D01*
X216Y621D01*
X214Y621D01*
X214Y623D01*
X212Y623D01*
X212Y625D01*
X210Y625D01*
X210Y627D01*
X208Y627D01*
X208Y629D01*
X206Y629D01*
X206Y631D01*
X204Y631D01*
X204Y633D01*
X202Y633D01*
X202Y635D01*
X200Y635D01*
X200Y637D01*
X198Y637D01*
X198Y639D01*
X196Y639D01*
X196Y641D01*
X194Y641D01*
X194Y643D01*
X192Y643D01*
X192Y645D01*
X190Y645D01*
X190Y647D01*
X188Y647D01*
X188Y649D01*
X186Y649D01*
X186Y651D01*
X184Y651D01*
X184Y653D01*
X170Y653D01*
X170Y655D01*
X166Y655D01*
X166Y657D01*
X162Y657D01*
X162Y659D01*
X160Y659D01*
X160Y661D01*
X158Y661D01*
X158Y663D01*
X156Y663D01*
X156Y665D01*
X154Y665D01*
X154Y669D01*
X152Y669D01*
X152Y671D01*
X150Y671D01*
X150Y679D01*
X148Y679D01*
X148Y685D01*
X150Y685D01*
X150Y693D01*
X152Y693D01*
X152Y695D01*
X154Y695D01*
X154Y699D01*
X156Y699D01*
X156Y701D01*
X158Y701D01*
X158Y721D01*
X96Y721D01*
X96Y787D01*
X76Y787D01*
G37*
D02*
G36*
X62Y649D02*
X62Y565D01*
X82Y565D01*
X82Y567D01*
X86Y567D01*
X86Y569D01*
X88Y569D01*
X88Y571D01*
X92Y571D01*
X92Y573D01*
X94Y573D01*
X94Y575D01*
X100Y575D01*
X100Y595D01*
X98Y595D01*
X98Y597D01*
X96Y597D01*
X96Y599D01*
X94Y599D01*
X94Y601D01*
X92Y601D01*
X92Y603D01*
X90Y603D01*
X90Y605D01*
X88Y605D01*
X88Y609D01*
X86Y609D01*
X86Y613D01*
X84Y613D01*
X84Y627D01*
X86Y627D01*
X86Y631D01*
X88Y631D01*
X88Y635D01*
X90Y635D01*
X90Y637D01*
X92Y637D01*
X92Y641D01*
X96Y641D01*
X96Y643D01*
X98Y643D01*
X98Y645D01*
X100Y645D01*
X100Y647D01*
X104Y647D01*
X104Y649D01*
X62Y649D01*
G37*
D02*
G36*
X1008Y783D02*
X1008Y743D01*
X1120Y743D01*
X1120Y745D01*
X1122Y745D01*
X1122Y765D01*
X1062Y765D01*
X1062Y783D01*
X1008Y783D01*
G37*
D02*
G36*
X1350Y757D02*
X1350Y753D01*
X1348Y753D01*
X1348Y751D01*
X1346Y751D01*
X1346Y749D01*
X1344Y749D01*
X1344Y747D01*
X1342Y747D01*
X1342Y745D01*
X1340Y745D01*
X1340Y743D01*
X1338Y743D01*
X1338Y741D01*
X1336Y741D01*
X1336Y721D01*
X1338Y721D01*
X1338Y719D01*
X1340Y719D01*
X1340Y717D01*
X1344Y717D01*
X1344Y715D01*
X1346Y715D01*
X1346Y711D01*
X1348Y711D01*
X1348Y709D01*
X1350Y709D01*
X1350Y707D01*
X1372Y707D01*
X1372Y711D01*
X1374Y711D01*
X1374Y713D01*
X1376Y713D01*
X1376Y715D01*
X1378Y715D01*
X1378Y717D01*
X1380Y717D01*
X1380Y719D01*
X1382Y719D01*
X1382Y721D01*
X1386Y721D01*
X1386Y741D01*
X1384Y741D01*
X1384Y743D01*
X1382Y743D01*
X1382Y745D01*
X1380Y745D01*
X1380Y747D01*
X1378Y747D01*
X1378Y749D01*
X1376Y749D01*
X1376Y751D01*
X1374Y751D01*
X1374Y753D01*
X1372Y753D01*
X1372Y755D01*
X1370Y755D01*
X1370Y757D01*
X1350Y757D01*
G37*
D02*
G36*
X1450Y757D02*
X1450Y753D01*
X1448Y753D01*
X1448Y751D01*
X1446Y751D01*
X1446Y749D01*
X1444Y749D01*
X1444Y747D01*
X1442Y747D01*
X1442Y745D01*
X1440Y745D01*
X1440Y743D01*
X1438Y743D01*
X1438Y741D01*
X1436Y741D01*
X1436Y721D01*
X1438Y721D01*
X1438Y719D01*
X1440Y719D01*
X1440Y717D01*
X1444Y717D01*
X1444Y715D01*
X1446Y715D01*
X1446Y711D01*
X1448Y711D01*
X1448Y709D01*
X1450Y709D01*
X1450Y707D01*
X1472Y707D01*
X1472Y709D01*
X1474Y709D01*
X1474Y711D01*
X1476Y711D01*
X1476Y715D01*
X1478Y715D01*
X1478Y717D01*
X1482Y717D01*
X1482Y719D01*
X1484Y719D01*
X1484Y721D01*
X1486Y721D01*
X1486Y741D01*
X1484Y741D01*
X1484Y743D01*
X1482Y743D01*
X1482Y745D01*
X1480Y745D01*
X1480Y747D01*
X1478Y747D01*
X1478Y749D01*
X1476Y749D01*
X1476Y751D01*
X1474Y751D01*
X1474Y753D01*
X1472Y753D01*
X1472Y755D01*
X1470Y755D01*
X1470Y757D01*
X1450Y757D01*
G37*
D02*
G36*
X1250Y755D02*
X1250Y753D01*
X1248Y753D01*
X1248Y751D01*
X1246Y751D01*
X1246Y749D01*
X1244Y749D01*
X1244Y747D01*
X1242Y747D01*
X1242Y745D01*
X1240Y745D01*
X1240Y743D01*
X1238Y743D01*
X1238Y741D01*
X1236Y741D01*
X1236Y721D01*
X1240Y721D01*
X1240Y719D01*
X1242Y719D01*
X1242Y717D01*
X1244Y717D01*
X1244Y715D01*
X1246Y715D01*
X1246Y713D01*
X1248Y713D01*
X1248Y711D01*
X1250Y711D01*
X1250Y707D01*
X1272Y707D01*
X1272Y711D01*
X1274Y711D01*
X1274Y713D01*
X1276Y713D01*
X1276Y715D01*
X1278Y715D01*
X1278Y717D01*
X1280Y717D01*
X1280Y719D01*
X1282Y719D01*
X1282Y721D01*
X1286Y721D01*
X1286Y741D01*
X1284Y741D01*
X1284Y743D01*
X1282Y743D01*
X1282Y745D01*
X1280Y745D01*
X1280Y747D01*
X1278Y747D01*
X1278Y749D01*
X1276Y749D01*
X1276Y751D01*
X1274Y751D01*
X1274Y753D01*
X1272Y753D01*
X1272Y755D01*
X1250Y755D01*
G37*
D02*
G36*
X1008Y707D02*
X1008Y677D01*
X1128Y677D01*
X1128Y675D01*
X1134Y675D01*
X1134Y673D01*
X1138Y673D01*
X1138Y671D01*
X1142Y671D01*
X1142Y669D01*
X1144Y669D01*
X1144Y667D01*
X1146Y667D01*
X1146Y665D01*
X1166Y665D01*
X1166Y667D01*
X1164Y667D01*
X1164Y673D01*
X1162Y673D01*
X1162Y695D01*
X1138Y695D01*
X1138Y697D01*
X1132Y697D01*
X1132Y699D01*
X1128Y699D01*
X1128Y701D01*
X1124Y701D01*
X1124Y703D01*
X1122Y703D01*
X1122Y705D01*
X1120Y705D01*
X1120Y707D01*
X1008Y707D01*
G37*
D02*
G36*
X1008Y677D02*
X1008Y665D01*
X1104Y665D01*
X1104Y667D01*
X1106Y667D01*
X1106Y669D01*
X1108Y669D01*
X1108Y671D01*
X1110Y671D01*
X1110Y673D01*
X1114Y673D01*
X1114Y675D01*
X1122Y675D01*
X1122Y677D01*
X1008Y677D01*
G37*
D02*
G36*
X1350Y655D02*
X1350Y653D01*
X1348Y653D01*
X1348Y651D01*
X1346Y651D01*
X1346Y649D01*
X1344Y649D01*
X1344Y647D01*
X1342Y647D01*
X1342Y645D01*
X1340Y645D01*
X1340Y643D01*
X1338Y643D01*
X1338Y641D01*
X1334Y641D01*
X1334Y639D01*
X1330Y639D01*
X1330Y637D01*
X1326Y637D01*
X1326Y635D01*
X1320Y635D01*
X1320Y633D01*
X1400Y633D01*
X1400Y635D01*
X1394Y635D01*
X1394Y637D01*
X1390Y637D01*
X1390Y639D01*
X1388Y639D01*
X1388Y641D01*
X1384Y641D01*
X1384Y643D01*
X1382Y643D01*
X1382Y645D01*
X1380Y645D01*
X1380Y647D01*
X1378Y647D01*
X1378Y649D01*
X1376Y649D01*
X1376Y651D01*
X1374Y651D01*
X1374Y653D01*
X1372Y653D01*
X1372Y655D01*
X1350Y655D01*
G37*
D02*
G36*
X1450Y655D02*
X1450Y653D01*
X1448Y653D01*
X1448Y651D01*
X1446Y651D01*
X1446Y649D01*
X1444Y649D01*
X1444Y647D01*
X1442Y647D01*
X1442Y645D01*
X1440Y645D01*
X1440Y643D01*
X1438Y643D01*
X1438Y641D01*
X1434Y641D01*
X1434Y639D01*
X1430Y639D01*
X1430Y637D01*
X1426Y637D01*
X1426Y635D01*
X1420Y635D01*
X1420Y633D01*
X1500Y633D01*
X1500Y635D01*
X1496Y635D01*
X1496Y637D01*
X1492Y637D01*
X1492Y639D01*
X1488Y639D01*
X1488Y641D01*
X1484Y641D01*
X1484Y643D01*
X1482Y643D01*
X1482Y645D01*
X1480Y645D01*
X1480Y647D01*
X1478Y647D01*
X1478Y649D01*
X1476Y649D01*
X1476Y651D01*
X1474Y651D01*
X1474Y653D01*
X1472Y653D01*
X1472Y655D01*
X1450Y655D01*
G37*
D02*
G36*
X1288Y633D02*
X1288Y631D01*
X1534Y631D01*
X1534Y633D01*
X1288Y633D01*
G37*
D02*
G36*
X1288Y633D02*
X1288Y631D01*
X1534Y631D01*
X1534Y633D01*
X1288Y633D01*
G37*
D02*
G36*
X1286Y631D02*
X1286Y629D01*
X1284Y629D01*
X1284Y627D01*
X1282Y627D01*
X1282Y625D01*
X1280Y625D01*
X1280Y623D01*
X1278Y623D01*
X1278Y621D01*
X1276Y621D01*
X1276Y619D01*
X1274Y619D01*
X1274Y617D01*
X1272Y617D01*
X1272Y615D01*
X1270Y615D01*
X1270Y613D01*
X1268Y613D01*
X1268Y611D01*
X1266Y611D01*
X1266Y609D01*
X1264Y609D01*
X1264Y607D01*
X1262Y607D01*
X1262Y605D01*
X1260Y605D01*
X1260Y603D01*
X1258Y603D01*
X1258Y601D01*
X1256Y601D01*
X1256Y599D01*
X1254Y599D01*
X1254Y597D01*
X1252Y597D01*
X1252Y595D01*
X1250Y595D01*
X1250Y593D01*
X1248Y593D01*
X1248Y591D01*
X1246Y591D01*
X1246Y589D01*
X1244Y589D01*
X1244Y587D01*
X1242Y587D01*
X1242Y585D01*
X1240Y585D01*
X1240Y583D01*
X1238Y583D01*
X1238Y581D01*
X1236Y581D01*
X1236Y579D01*
X1234Y579D01*
X1234Y577D01*
X1232Y577D01*
X1232Y575D01*
X1230Y575D01*
X1230Y573D01*
X1228Y573D01*
X1228Y571D01*
X1226Y571D01*
X1226Y569D01*
X1224Y569D01*
X1224Y567D01*
X1222Y567D01*
X1222Y565D01*
X1220Y565D01*
X1220Y563D01*
X1218Y563D01*
X1218Y561D01*
X1216Y561D01*
X1216Y559D01*
X1214Y559D01*
X1214Y557D01*
X1212Y557D01*
X1212Y555D01*
X1210Y555D01*
X1210Y553D01*
X1208Y553D01*
X1208Y551D01*
X1206Y551D01*
X1206Y549D01*
X1204Y549D01*
X1204Y547D01*
X1202Y547D01*
X1202Y545D01*
X1200Y545D01*
X1200Y543D01*
X1198Y543D01*
X1198Y541D01*
X1196Y541D01*
X1196Y539D01*
X1194Y539D01*
X1194Y537D01*
X1192Y537D01*
X1192Y535D01*
X1190Y535D01*
X1190Y533D01*
X1418Y533D01*
X1418Y531D01*
X1426Y531D01*
X1426Y529D01*
X1430Y529D01*
X1430Y527D01*
X1434Y527D01*
X1434Y525D01*
X1436Y525D01*
X1436Y523D01*
X1440Y523D01*
X1440Y521D01*
X1442Y521D01*
X1442Y519D01*
X1444Y519D01*
X1444Y517D01*
X1446Y517D01*
X1446Y515D01*
X1448Y515D01*
X1448Y513D01*
X1450Y513D01*
X1450Y509D01*
X1452Y509D01*
X1452Y507D01*
X1454Y507D01*
X1454Y503D01*
X1456Y503D01*
X1456Y499D01*
X1458Y499D01*
X1458Y493D01*
X1460Y493D01*
X1460Y475D01*
X1458Y475D01*
X1458Y469D01*
X1456Y469D01*
X1456Y465D01*
X1454Y465D01*
X1454Y461D01*
X1452Y461D01*
X1452Y457D01*
X1450Y457D01*
X1450Y455D01*
X1448Y455D01*
X1448Y453D01*
X1446Y453D01*
X1446Y451D01*
X1444Y451D01*
X1444Y449D01*
X1442Y449D01*
X1442Y447D01*
X1440Y447D01*
X1440Y445D01*
X1438Y445D01*
X1438Y443D01*
X1436Y443D01*
X1436Y423D01*
X1440Y423D01*
X1440Y421D01*
X1442Y421D01*
X1442Y419D01*
X1444Y419D01*
X1444Y417D01*
X1446Y417D01*
X1446Y415D01*
X1448Y415D01*
X1448Y413D01*
X1450Y413D01*
X1450Y409D01*
X1452Y409D01*
X1452Y407D01*
X1454Y407D01*
X1454Y403D01*
X1456Y403D01*
X1456Y399D01*
X1458Y399D01*
X1458Y393D01*
X1460Y393D01*
X1460Y375D01*
X1458Y375D01*
X1458Y369D01*
X1456Y369D01*
X1456Y365D01*
X1454Y365D01*
X1454Y361D01*
X1452Y361D01*
X1452Y357D01*
X1450Y357D01*
X1450Y355D01*
X1448Y355D01*
X1448Y353D01*
X1446Y353D01*
X1446Y351D01*
X1444Y351D01*
X1444Y349D01*
X1442Y349D01*
X1442Y347D01*
X1440Y347D01*
X1440Y345D01*
X1438Y345D01*
X1438Y343D01*
X1436Y343D01*
X1436Y323D01*
X1440Y323D01*
X1440Y321D01*
X1442Y321D01*
X1442Y319D01*
X1444Y319D01*
X1444Y317D01*
X1446Y317D01*
X1446Y315D01*
X1448Y315D01*
X1448Y313D01*
X1450Y313D01*
X1450Y309D01*
X1452Y309D01*
X1452Y307D01*
X1454Y307D01*
X1454Y303D01*
X1456Y303D01*
X1456Y299D01*
X1458Y299D01*
X1458Y293D01*
X1460Y293D01*
X1460Y275D01*
X1458Y275D01*
X1458Y269D01*
X1456Y269D01*
X1456Y265D01*
X1454Y265D01*
X1454Y261D01*
X1452Y261D01*
X1452Y257D01*
X1450Y257D01*
X1450Y255D01*
X1448Y255D01*
X1448Y253D01*
X1446Y253D01*
X1446Y251D01*
X1444Y251D01*
X1444Y249D01*
X1442Y249D01*
X1442Y247D01*
X1440Y247D01*
X1440Y245D01*
X1438Y245D01*
X1438Y243D01*
X1436Y243D01*
X1436Y223D01*
X1440Y223D01*
X1440Y221D01*
X1442Y221D01*
X1442Y219D01*
X1444Y219D01*
X1444Y217D01*
X1446Y217D01*
X1446Y215D01*
X1448Y215D01*
X1448Y213D01*
X1450Y213D01*
X1450Y209D01*
X1452Y209D01*
X1452Y207D01*
X1454Y207D01*
X1454Y203D01*
X1456Y203D01*
X1456Y199D01*
X1458Y199D01*
X1458Y193D01*
X1460Y193D01*
X1460Y175D01*
X1458Y175D01*
X1458Y169D01*
X1456Y169D01*
X1456Y165D01*
X1454Y165D01*
X1454Y161D01*
X1452Y161D01*
X1452Y157D01*
X1450Y157D01*
X1450Y155D01*
X1448Y155D01*
X1448Y153D01*
X1446Y153D01*
X1446Y151D01*
X1444Y151D01*
X1444Y149D01*
X1442Y149D01*
X1442Y147D01*
X1440Y147D01*
X1440Y145D01*
X1438Y145D01*
X1438Y143D01*
X1434Y143D01*
X1434Y141D01*
X1430Y141D01*
X1430Y139D01*
X1426Y139D01*
X1426Y137D01*
X1420Y137D01*
X1420Y135D01*
X1392Y135D01*
X1392Y133D01*
X1494Y133D01*
X1494Y131D01*
X1506Y131D01*
X1506Y129D01*
X1510Y129D01*
X1510Y127D01*
X1514Y127D01*
X1514Y125D01*
X1534Y125D01*
X1534Y631D01*
X1286Y631D01*
G37*
D02*
G36*
X1188Y533D02*
X1188Y531D01*
X1186Y531D01*
X1186Y529D01*
X1184Y529D01*
X1184Y527D01*
X1182Y527D01*
X1182Y525D01*
X1180Y525D01*
X1180Y523D01*
X1178Y523D01*
X1178Y521D01*
X1176Y521D01*
X1176Y519D01*
X1174Y519D01*
X1174Y517D01*
X1172Y517D01*
X1172Y515D01*
X1170Y515D01*
X1170Y513D01*
X1168Y513D01*
X1168Y511D01*
X1166Y511D01*
X1166Y509D01*
X1164Y509D01*
X1164Y507D01*
X1162Y507D01*
X1162Y505D01*
X1160Y505D01*
X1160Y503D01*
X1158Y503D01*
X1158Y501D01*
X1156Y501D01*
X1156Y499D01*
X1154Y499D01*
X1154Y497D01*
X1152Y497D01*
X1152Y495D01*
X1150Y495D01*
X1150Y493D01*
X1148Y493D01*
X1148Y491D01*
X1146Y491D01*
X1146Y489D01*
X1144Y489D01*
X1144Y487D01*
X1142Y487D01*
X1142Y485D01*
X1140Y485D01*
X1140Y483D01*
X1138Y483D01*
X1138Y481D01*
X1136Y481D01*
X1136Y479D01*
X1134Y479D01*
X1134Y477D01*
X1132Y477D01*
X1132Y475D01*
X1130Y475D01*
X1130Y473D01*
X1124Y473D01*
X1124Y471D01*
X1008Y471D01*
X1008Y433D01*
X1132Y433D01*
X1132Y435D01*
X1332Y435D01*
X1332Y437D01*
X1334Y437D01*
X1334Y439D01*
X1336Y439D01*
X1336Y441D01*
X1338Y441D01*
X1338Y443D01*
X1340Y443D01*
X1340Y445D01*
X1342Y445D01*
X1342Y447D01*
X1344Y447D01*
X1344Y449D01*
X1346Y449D01*
X1346Y451D01*
X1348Y451D01*
X1348Y453D01*
X1350Y453D01*
X1350Y455D01*
X1352Y455D01*
X1352Y457D01*
X1354Y457D01*
X1354Y459D01*
X1356Y459D01*
X1356Y461D01*
X1358Y461D01*
X1358Y463D01*
X1360Y463D01*
X1360Y465D01*
X1362Y465D01*
X1362Y493D01*
X1364Y493D01*
X1364Y499D01*
X1366Y499D01*
X1366Y503D01*
X1368Y503D01*
X1368Y507D01*
X1370Y507D01*
X1370Y509D01*
X1372Y509D01*
X1372Y513D01*
X1374Y513D01*
X1374Y515D01*
X1376Y515D01*
X1376Y517D01*
X1378Y517D01*
X1378Y519D01*
X1380Y519D01*
X1380Y521D01*
X1382Y521D01*
X1382Y523D01*
X1386Y523D01*
X1386Y525D01*
X1388Y525D01*
X1388Y527D01*
X1392Y527D01*
X1392Y529D01*
X1396Y529D01*
X1396Y531D01*
X1404Y531D01*
X1404Y533D01*
X1188Y533D01*
G37*
D02*
G36*
X1390Y133D02*
X1390Y131D01*
X1388Y131D01*
X1388Y129D01*
X1386Y129D01*
X1386Y127D01*
X1384Y127D01*
X1384Y125D01*
X1382Y125D01*
X1382Y123D01*
X1380Y123D01*
X1380Y121D01*
X1378Y121D01*
X1378Y119D01*
X1376Y119D01*
X1376Y117D01*
X1374Y117D01*
X1374Y115D01*
X1372Y115D01*
X1372Y113D01*
X1370Y113D01*
X1370Y111D01*
X1368Y111D01*
X1368Y109D01*
X1366Y109D01*
X1366Y107D01*
X1364Y107D01*
X1364Y105D01*
X1362Y105D01*
X1362Y103D01*
X1360Y103D01*
X1360Y101D01*
X1358Y101D01*
X1358Y99D01*
X1356Y99D01*
X1356Y97D01*
X1354Y97D01*
X1354Y95D01*
X1352Y95D01*
X1352Y93D01*
X1350Y93D01*
X1350Y91D01*
X1348Y91D01*
X1348Y89D01*
X1346Y89D01*
X1346Y87D01*
X1344Y87D01*
X1344Y85D01*
X1342Y85D01*
X1342Y83D01*
X1340Y83D01*
X1340Y81D01*
X1338Y81D01*
X1338Y79D01*
X1336Y79D01*
X1336Y77D01*
X1334Y77D01*
X1334Y75D01*
X1332Y75D01*
X1332Y73D01*
X1330Y73D01*
X1330Y71D01*
X1328Y71D01*
X1328Y69D01*
X1326Y69D01*
X1326Y67D01*
X1324Y67D01*
X1324Y65D01*
X1322Y65D01*
X1322Y63D01*
X1320Y63D01*
X1320Y61D01*
X1318Y61D01*
X1318Y41D01*
X1442Y41D01*
X1442Y63D01*
X1440Y63D01*
X1440Y69D01*
X1438Y69D01*
X1438Y87D01*
X1440Y87D01*
X1440Y95D01*
X1442Y95D01*
X1442Y99D01*
X1444Y99D01*
X1444Y103D01*
X1446Y103D01*
X1446Y107D01*
X1448Y107D01*
X1448Y109D01*
X1450Y109D01*
X1450Y113D01*
X1452Y113D01*
X1452Y115D01*
X1454Y115D01*
X1454Y117D01*
X1456Y117D01*
X1456Y119D01*
X1460Y119D01*
X1460Y121D01*
X1462Y121D01*
X1462Y123D01*
X1464Y123D01*
X1464Y125D01*
X1468Y125D01*
X1468Y127D01*
X1472Y127D01*
X1472Y129D01*
X1478Y129D01*
X1478Y131D01*
X1488Y131D01*
X1488Y133D01*
X1390Y133D01*
G37*
D02*
G36*
X1152Y655D02*
X1152Y653D01*
X1154Y653D01*
X1154Y639D01*
X1152Y639D01*
X1152Y635D01*
X1150Y635D01*
X1150Y631D01*
X1148Y631D01*
X1148Y629D01*
X1146Y629D01*
X1146Y627D01*
X1144Y627D01*
X1144Y625D01*
X1142Y625D01*
X1142Y623D01*
X1140Y623D01*
X1140Y621D01*
X1136Y621D01*
X1136Y619D01*
X1130Y619D01*
X1130Y617D01*
X1174Y617D01*
X1174Y619D01*
X1176Y619D01*
X1176Y621D01*
X1178Y621D01*
X1178Y623D01*
X1180Y623D01*
X1180Y625D01*
X1182Y625D01*
X1182Y645D01*
X1180Y645D01*
X1180Y647D01*
X1178Y647D01*
X1178Y649D01*
X1176Y649D01*
X1176Y651D01*
X1174Y651D01*
X1174Y653D01*
X1172Y653D01*
X1172Y655D01*
X1152Y655D01*
G37*
D02*
G36*
X1008Y629D02*
X1008Y617D01*
X1118Y617D01*
X1118Y619D01*
X1114Y619D01*
X1114Y621D01*
X1110Y621D01*
X1110Y623D01*
X1108Y623D01*
X1108Y625D01*
X1106Y625D01*
X1106Y627D01*
X1104Y627D01*
X1104Y629D01*
X1008Y629D01*
G37*
D02*
G36*
X1008Y617D02*
X1008Y615D01*
X1172Y615D01*
X1172Y617D01*
X1008Y617D01*
G37*
D02*
G36*
X1008Y617D02*
X1008Y615D01*
X1172Y615D01*
X1172Y617D01*
X1008Y617D01*
G37*
D02*
G36*
X1008Y615D02*
X1008Y587D01*
X1144Y587D01*
X1144Y589D01*
X1146Y589D01*
X1146Y591D01*
X1148Y591D01*
X1148Y593D01*
X1150Y593D01*
X1150Y595D01*
X1152Y595D01*
X1152Y597D01*
X1154Y597D01*
X1154Y599D01*
X1156Y599D01*
X1156Y601D01*
X1158Y601D01*
X1158Y603D01*
X1160Y603D01*
X1160Y605D01*
X1162Y605D01*
X1162Y607D01*
X1164Y607D01*
X1164Y609D01*
X1166Y609D01*
X1166Y611D01*
X1168Y611D01*
X1168Y613D01*
X1170Y613D01*
X1170Y615D01*
X1008Y615D01*
G37*
D02*
G36*
X1008Y551D02*
X1008Y507D01*
X1114Y507D01*
X1114Y509D01*
X1116Y509D01*
X1116Y511D01*
X1118Y511D01*
X1118Y513D01*
X1120Y513D01*
X1120Y515D01*
X1122Y515D01*
X1122Y517D01*
X1124Y517D01*
X1124Y519D01*
X1126Y519D01*
X1126Y521D01*
X1128Y521D01*
X1128Y523D01*
X1130Y523D01*
X1130Y525D01*
X1132Y525D01*
X1132Y527D01*
X1134Y527D01*
X1134Y529D01*
X1136Y529D01*
X1136Y531D01*
X1138Y531D01*
X1138Y551D01*
X1008Y551D01*
G37*
D02*
G36*
X160Y529D02*
X160Y527D01*
X158Y527D01*
X158Y519D01*
X156Y519D01*
X156Y513D01*
X154Y513D01*
X154Y511D01*
X152Y511D01*
X152Y507D01*
X150Y507D01*
X150Y505D01*
X148Y505D01*
X148Y501D01*
X146Y501D01*
X146Y499D01*
X144Y499D01*
X144Y497D01*
X142Y497D01*
X142Y495D01*
X138Y495D01*
X138Y493D01*
X136Y493D01*
X136Y491D01*
X134Y491D01*
X134Y471D01*
X136Y471D01*
X136Y469D01*
X140Y469D01*
X140Y467D01*
X142Y467D01*
X142Y465D01*
X144Y465D01*
X144Y463D01*
X146Y463D01*
X146Y461D01*
X148Y461D01*
X148Y459D01*
X150Y459D01*
X150Y455D01*
X152Y455D01*
X152Y453D01*
X154Y453D01*
X154Y449D01*
X156Y449D01*
X156Y443D01*
X158Y443D01*
X158Y437D01*
X160Y437D01*
X160Y411D01*
X162Y411D01*
X162Y409D01*
X164Y409D01*
X164Y407D01*
X166Y407D01*
X166Y405D01*
X168Y405D01*
X168Y403D01*
X170Y403D01*
X170Y401D01*
X172Y401D01*
X172Y399D01*
X174Y399D01*
X174Y397D01*
X176Y397D01*
X176Y395D01*
X178Y395D01*
X178Y393D01*
X180Y393D01*
X180Y391D01*
X182Y391D01*
X182Y389D01*
X184Y389D01*
X184Y387D01*
X186Y387D01*
X186Y385D01*
X188Y385D01*
X188Y383D01*
X208Y383D01*
X208Y501D01*
X206Y501D01*
X206Y503D01*
X204Y503D01*
X204Y505D01*
X202Y505D01*
X202Y507D01*
X200Y507D01*
X200Y509D01*
X198Y509D01*
X198Y511D01*
X196Y511D01*
X196Y513D01*
X194Y513D01*
X194Y515D01*
X192Y515D01*
X192Y517D01*
X190Y517D01*
X190Y519D01*
X188Y519D01*
X188Y521D01*
X186Y521D01*
X186Y523D01*
X184Y523D01*
X184Y525D01*
X182Y525D01*
X182Y527D01*
X180Y527D01*
X180Y529D01*
X160Y529D01*
G37*
D02*
G36*
X40Y455D02*
X40Y285D01*
X102Y285D01*
X102Y287D01*
X96Y287D01*
X96Y289D01*
X92Y289D01*
X92Y291D01*
X88Y291D01*
X88Y293D01*
X86Y293D01*
X86Y295D01*
X84Y295D01*
X84Y297D01*
X82Y297D01*
X82Y299D01*
X80Y299D01*
X80Y301D01*
X78Y301D01*
X78Y303D01*
X76Y303D01*
X76Y305D01*
X74Y305D01*
X74Y307D01*
X72Y307D01*
X72Y311D01*
X70Y311D01*
X70Y315D01*
X68Y315D01*
X68Y321D01*
X66Y321D01*
X66Y341D01*
X68Y341D01*
X68Y347D01*
X70Y347D01*
X70Y351D01*
X72Y351D01*
X72Y355D01*
X74Y355D01*
X74Y357D01*
X76Y357D01*
X76Y359D01*
X78Y359D01*
X78Y363D01*
X80Y363D01*
X80Y365D01*
X82Y365D01*
X82Y367D01*
X86Y367D01*
X86Y369D01*
X88Y369D01*
X88Y371D01*
X92Y371D01*
X92Y391D01*
X88Y391D01*
X88Y393D01*
X86Y393D01*
X86Y395D01*
X84Y395D01*
X84Y397D01*
X82Y397D01*
X82Y399D01*
X80Y399D01*
X80Y401D01*
X78Y401D01*
X78Y403D01*
X76Y403D01*
X76Y405D01*
X74Y405D01*
X74Y407D01*
X72Y407D01*
X72Y411D01*
X70Y411D01*
X70Y415D01*
X68Y415D01*
X68Y421D01*
X66Y421D01*
X66Y449D01*
X64Y449D01*
X64Y451D01*
X62Y451D01*
X62Y453D01*
X60Y453D01*
X60Y455D01*
X40Y455D01*
G37*
D02*
G36*
X160Y329D02*
X160Y327D01*
X158Y327D01*
X158Y319D01*
X156Y319D01*
X156Y313D01*
X154Y313D01*
X154Y311D01*
X152Y311D01*
X152Y307D01*
X150Y307D01*
X150Y305D01*
X148Y305D01*
X148Y301D01*
X146Y301D01*
X146Y299D01*
X144Y299D01*
X144Y297D01*
X142Y297D01*
X142Y295D01*
X138Y295D01*
X138Y293D01*
X136Y293D01*
X136Y291D01*
X132Y291D01*
X132Y289D01*
X128Y289D01*
X128Y287D01*
X122Y287D01*
X122Y285D01*
X218Y285D01*
X218Y289D01*
X216Y289D01*
X216Y291D01*
X214Y291D01*
X214Y293D01*
X212Y293D01*
X212Y295D01*
X210Y295D01*
X210Y297D01*
X208Y297D01*
X208Y299D01*
X206Y299D01*
X206Y301D01*
X204Y301D01*
X204Y303D01*
X202Y303D01*
X202Y305D01*
X200Y305D01*
X200Y307D01*
X198Y307D01*
X198Y309D01*
X196Y309D01*
X196Y311D01*
X194Y311D01*
X194Y313D01*
X192Y313D01*
X192Y315D01*
X190Y315D01*
X190Y317D01*
X188Y317D01*
X188Y319D01*
X186Y319D01*
X186Y323D01*
X184Y323D01*
X184Y325D01*
X182Y325D01*
X182Y327D01*
X180Y327D01*
X180Y329D01*
X160Y329D01*
G37*
D02*
G36*
X40Y285D02*
X40Y283D01*
X220Y283D01*
X220Y285D01*
X40Y285D01*
G37*
D02*
G36*
X40Y285D02*
X40Y283D01*
X220Y283D01*
X220Y285D01*
X40Y285D01*
G37*
D02*
G36*
X40Y283D02*
X40Y133D01*
X86Y133D01*
X86Y131D01*
X92Y131D01*
X92Y129D01*
X98Y129D01*
X98Y127D01*
X100Y127D01*
X100Y125D01*
X104Y125D01*
X104Y123D01*
X106Y123D01*
X106Y121D01*
X108Y121D01*
X108Y119D01*
X112Y119D01*
X112Y117D01*
X114Y117D01*
X114Y113D01*
X116Y113D01*
X116Y111D01*
X118Y111D01*
X118Y109D01*
X120Y109D01*
X120Y105D01*
X122Y105D01*
X122Y101D01*
X124Y101D01*
X124Y97D01*
X126Y97D01*
X126Y91D01*
X128Y91D01*
X128Y69D01*
X126Y69D01*
X126Y63D01*
X124Y63D01*
X124Y41D01*
X432Y41D01*
X432Y61D01*
X430Y61D01*
X430Y63D01*
X428Y63D01*
X428Y65D01*
X426Y65D01*
X426Y67D01*
X424Y67D01*
X424Y69D01*
X422Y69D01*
X422Y71D01*
X420Y71D01*
X420Y73D01*
X418Y73D01*
X418Y75D01*
X416Y75D01*
X416Y77D01*
X414Y77D01*
X414Y79D01*
X412Y79D01*
X412Y83D01*
X410Y83D01*
X410Y85D01*
X408Y85D01*
X408Y87D01*
X406Y87D01*
X406Y89D01*
X404Y89D01*
X404Y91D01*
X402Y91D01*
X402Y93D01*
X400Y93D01*
X400Y95D01*
X398Y95D01*
X398Y97D01*
X396Y97D01*
X396Y99D01*
X394Y99D01*
X394Y101D01*
X392Y101D01*
X392Y103D01*
X390Y103D01*
X390Y105D01*
X388Y105D01*
X388Y107D01*
X386Y107D01*
X386Y109D01*
X384Y109D01*
X384Y111D01*
X382Y111D01*
X382Y113D01*
X380Y113D01*
X380Y117D01*
X378Y117D01*
X378Y119D01*
X376Y119D01*
X376Y121D01*
X374Y121D01*
X374Y123D01*
X372Y123D01*
X372Y125D01*
X370Y125D01*
X370Y127D01*
X368Y127D01*
X368Y129D01*
X366Y129D01*
X366Y131D01*
X364Y131D01*
X364Y133D01*
X362Y133D01*
X362Y135D01*
X360Y135D01*
X360Y137D01*
X358Y137D01*
X358Y139D01*
X356Y139D01*
X356Y141D01*
X354Y141D01*
X354Y143D01*
X352Y143D01*
X352Y145D01*
X350Y145D01*
X350Y147D01*
X348Y147D01*
X348Y151D01*
X346Y151D01*
X346Y153D01*
X344Y153D01*
X344Y155D01*
X342Y155D01*
X342Y157D01*
X340Y157D01*
X340Y159D01*
X338Y159D01*
X338Y161D01*
X336Y161D01*
X336Y163D01*
X334Y163D01*
X334Y165D01*
X332Y165D01*
X332Y167D01*
X330Y167D01*
X330Y169D01*
X328Y169D01*
X328Y171D01*
X326Y171D01*
X326Y173D01*
X324Y173D01*
X324Y175D01*
X322Y175D01*
X322Y177D01*
X320Y177D01*
X320Y179D01*
X318Y179D01*
X318Y181D01*
X316Y181D01*
X316Y185D01*
X314Y185D01*
X314Y187D01*
X312Y187D01*
X312Y189D01*
X310Y189D01*
X310Y191D01*
X308Y191D01*
X308Y193D01*
X306Y193D01*
X306Y195D01*
X304Y195D01*
X304Y197D01*
X302Y197D01*
X302Y199D01*
X300Y199D01*
X300Y201D01*
X298Y201D01*
X298Y203D01*
X296Y203D01*
X296Y205D01*
X294Y205D01*
X294Y207D01*
X292Y207D01*
X292Y209D01*
X290Y209D01*
X290Y211D01*
X288Y211D01*
X288Y213D01*
X286Y213D01*
X286Y215D01*
X284Y215D01*
X284Y217D01*
X282Y217D01*
X282Y221D01*
X280Y221D01*
X280Y223D01*
X278Y223D01*
X278Y225D01*
X276Y225D01*
X276Y227D01*
X274Y227D01*
X274Y229D01*
X272Y229D01*
X272Y231D01*
X270Y231D01*
X270Y233D01*
X268Y233D01*
X268Y235D01*
X266Y235D01*
X266Y237D01*
X264Y237D01*
X264Y239D01*
X262Y239D01*
X262Y241D01*
X260Y241D01*
X260Y243D01*
X258Y243D01*
X258Y245D01*
X256Y245D01*
X256Y247D01*
X254Y247D01*
X254Y249D01*
X252Y249D01*
X252Y251D01*
X250Y251D01*
X250Y255D01*
X248Y255D01*
X248Y257D01*
X246Y257D01*
X246Y259D01*
X244Y259D01*
X244Y261D01*
X242Y261D01*
X242Y263D01*
X240Y263D01*
X240Y265D01*
X238Y265D01*
X238Y267D01*
X236Y267D01*
X236Y269D01*
X234Y269D01*
X234Y271D01*
X232Y271D01*
X232Y273D01*
X230Y273D01*
X230Y275D01*
X228Y275D01*
X228Y277D01*
X226Y277D01*
X226Y279D01*
X224Y279D01*
X224Y281D01*
X222Y281D01*
X222Y283D01*
X40Y283D01*
G37*
D02*
G36*
X40Y133D02*
X40Y131D01*
X64Y131D01*
X64Y133D01*
X40Y133D01*
G37*
D02*
G36*
X244Y425D02*
X244Y393D01*
X246Y393D01*
X246Y391D01*
X248Y391D01*
X248Y389D01*
X250Y389D01*
X250Y387D01*
X252Y387D01*
X252Y385D01*
X254Y385D01*
X254Y383D01*
X256Y383D01*
X256Y381D01*
X258Y381D01*
X258Y379D01*
X260Y379D01*
X260Y377D01*
X262Y377D01*
X262Y375D01*
X264Y375D01*
X264Y373D01*
X266Y373D01*
X266Y371D01*
X268Y371D01*
X268Y369D01*
X270Y369D01*
X270Y367D01*
X272Y367D01*
X272Y365D01*
X274Y365D01*
X274Y363D01*
X276Y363D01*
X276Y361D01*
X278Y361D01*
X278Y359D01*
X280Y359D01*
X280Y357D01*
X300Y357D01*
X300Y397D01*
X292Y397D01*
X292Y399D01*
X290Y399D01*
X290Y401D01*
X286Y401D01*
X286Y403D01*
X284Y403D01*
X284Y405D01*
X282Y405D01*
X282Y407D01*
X280Y407D01*
X280Y409D01*
X278Y409D01*
X278Y411D01*
X276Y411D01*
X276Y413D01*
X274Y413D01*
X274Y415D01*
X272Y415D01*
X272Y417D01*
X270Y417D01*
X270Y419D01*
X268Y419D01*
X268Y421D01*
X266Y421D01*
X266Y423D01*
X264Y423D01*
X264Y425D01*
X244Y425D01*
G37*
D02*
G36*
X1136Y391D02*
X1136Y389D01*
X1008Y389D01*
X1008Y355D01*
X1246Y355D01*
X1246Y357D01*
X1356Y357D01*
X1356Y359D01*
X1358Y359D01*
X1358Y361D01*
X1360Y361D01*
X1360Y363D01*
X1362Y363D01*
X1362Y391D01*
X1136Y391D01*
G37*
D02*
G36*
X456Y861D02*
X456Y841D01*
X458Y841D01*
X458Y839D01*
X460Y839D01*
X460Y837D01*
X462Y837D01*
X462Y835D01*
X470Y835D01*
X470Y833D01*
X474Y833D01*
X474Y831D01*
X476Y831D01*
X476Y829D01*
X480Y829D01*
X480Y827D01*
X482Y827D01*
X482Y823D01*
X484Y823D01*
X484Y821D01*
X486Y821D01*
X486Y817D01*
X488Y817D01*
X488Y813D01*
X490Y813D01*
X490Y799D01*
X488Y799D01*
X488Y795D01*
X486Y795D01*
X486Y791D01*
X484Y791D01*
X484Y789D01*
X482Y789D01*
X482Y787D01*
X480Y787D01*
X480Y785D01*
X478Y785D01*
X478Y783D01*
X476Y783D01*
X476Y781D01*
X472Y781D01*
X472Y779D01*
X468Y779D01*
X468Y777D01*
X900Y777D01*
X900Y861D01*
X456Y861D01*
G37*
D02*
G36*
X408Y809D02*
X408Y777D01*
X454Y777D01*
X454Y779D01*
X448Y779D01*
X448Y781D01*
X446Y781D01*
X446Y783D01*
X444Y783D01*
X444Y785D01*
X440Y785D01*
X440Y787D01*
X438Y787D01*
X438Y791D01*
X436Y791D01*
X436Y793D01*
X434Y793D01*
X434Y797D01*
X432Y797D01*
X432Y805D01*
X430Y805D01*
X430Y807D01*
X428Y807D01*
X428Y809D01*
X408Y809D01*
G37*
D02*
G36*
X408Y777D02*
X408Y775D01*
X900Y775D01*
X900Y777D01*
X408Y777D01*
G37*
D02*
G36*
X408Y777D02*
X408Y775D01*
X900Y775D01*
X900Y777D01*
X408Y777D01*
G37*
D02*
G36*
X408Y775D02*
X408Y757D01*
X462Y757D01*
X462Y755D01*
X470Y755D01*
X470Y753D01*
X474Y753D01*
X474Y751D01*
X478Y751D01*
X478Y749D01*
X480Y749D01*
X480Y747D01*
X482Y747D01*
X482Y745D01*
X484Y745D01*
X484Y743D01*
X486Y743D01*
X486Y739D01*
X488Y739D01*
X488Y735D01*
X490Y735D01*
X490Y727D01*
X492Y727D01*
X492Y725D01*
X490Y725D01*
X490Y717D01*
X488Y717D01*
X488Y713D01*
X486Y713D01*
X486Y711D01*
X484Y711D01*
X484Y707D01*
X482Y707D01*
X482Y705D01*
X478Y705D01*
X478Y703D01*
X476Y703D01*
X476Y701D01*
X474Y701D01*
X474Y699D01*
X468Y699D01*
X468Y677D01*
X472Y677D01*
X472Y675D01*
X476Y675D01*
X476Y673D01*
X478Y673D01*
X478Y671D01*
X480Y671D01*
X480Y669D01*
X482Y669D01*
X482Y667D01*
X484Y667D01*
X484Y665D01*
X486Y665D01*
X486Y661D01*
X488Y661D01*
X488Y657D01*
X490Y657D01*
X490Y641D01*
X488Y641D01*
X488Y637D01*
X486Y637D01*
X486Y633D01*
X484Y633D01*
X484Y631D01*
X482Y631D01*
X482Y629D01*
X480Y629D01*
X480Y627D01*
X478Y627D01*
X478Y625D01*
X474Y625D01*
X474Y623D01*
X470Y623D01*
X470Y621D01*
X464Y621D01*
X464Y619D01*
X900Y619D01*
X900Y775D01*
X408Y775D01*
G37*
D02*
G36*
X408Y757D02*
X408Y749D01*
X446Y749D01*
X446Y751D01*
X448Y751D01*
X448Y753D01*
X452Y753D01*
X452Y755D01*
X460Y755D01*
X460Y757D01*
X408Y757D01*
G37*
D02*
G36*
X408Y627D02*
X408Y619D01*
X458Y619D01*
X458Y621D01*
X450Y621D01*
X450Y623D01*
X448Y623D01*
X448Y625D01*
X444Y625D01*
X444Y627D01*
X408Y627D01*
G37*
D02*
G36*
X408Y619D02*
X408Y617D01*
X900Y617D01*
X900Y619D01*
X408Y619D01*
G37*
D02*
G36*
X408Y619D02*
X408Y617D01*
X900Y617D01*
X900Y619D01*
X408Y619D01*
G37*
D02*
G36*
X408Y617D02*
X408Y599D01*
X460Y599D01*
X460Y597D01*
X468Y597D01*
X468Y595D01*
X472Y595D01*
X472Y593D01*
X476Y593D01*
X476Y591D01*
X478Y591D01*
X478Y589D01*
X480Y589D01*
X480Y587D01*
X482Y587D01*
X482Y585D01*
X484Y585D01*
X484Y581D01*
X486Y581D01*
X486Y577D01*
X488Y577D01*
X488Y559D01*
X486Y559D01*
X486Y555D01*
X484Y555D01*
X484Y553D01*
X482Y553D01*
X482Y551D01*
X480Y551D01*
X480Y547D01*
X476Y547D01*
X476Y545D01*
X474Y545D01*
X474Y543D01*
X470Y543D01*
X470Y541D01*
X466Y541D01*
X466Y539D01*
X900Y539D01*
X900Y617D01*
X408Y617D01*
G37*
D02*
G36*
X408Y599D02*
X408Y591D01*
X444Y591D01*
X444Y593D01*
X446Y593D01*
X446Y595D01*
X450Y595D01*
X450Y597D01*
X458Y597D01*
X458Y599D01*
X408Y599D01*
G37*
D02*
G36*
X408Y547D02*
X408Y539D01*
X452Y539D01*
X452Y541D01*
X448Y541D01*
X448Y543D01*
X444Y543D01*
X444Y545D01*
X442Y545D01*
X442Y547D01*
X408Y547D01*
G37*
D02*
G36*
X408Y539D02*
X408Y537D01*
X900Y537D01*
X900Y539D01*
X408Y539D01*
G37*
D02*
G36*
X408Y539D02*
X408Y537D01*
X900Y537D01*
X900Y539D01*
X408Y539D01*
G37*
D02*
G36*
X408Y537D02*
X408Y299D01*
X900Y299D01*
X900Y537D01*
X408Y537D01*
G37*
D02*
G36*
X254Y317D02*
X254Y311D01*
X256Y311D01*
X256Y309D01*
X258Y309D01*
X258Y307D01*
X260Y307D01*
X260Y305D01*
X262Y305D01*
X262Y303D01*
X264Y303D01*
X264Y301D01*
X266Y301D01*
X266Y299D01*
X300Y299D01*
X300Y315D01*
X274Y315D01*
X274Y317D01*
X254Y317D01*
G37*
D02*
G36*
X1248Y313D02*
X1248Y311D01*
X1008Y311D01*
X1008Y299D01*
X1364Y299D01*
X1364Y313D01*
X1248Y313D01*
G37*
D02*
G36*
X268Y299D02*
X268Y297D01*
X1364Y297D01*
X1364Y299D01*
X268Y299D01*
G37*
D02*
G36*
X268Y299D02*
X268Y297D01*
X1364Y297D01*
X1364Y299D01*
X268Y299D01*
G37*
D02*
G36*
X268Y299D02*
X268Y297D01*
X1364Y297D01*
X1364Y299D01*
X268Y299D01*
G37*
D02*
G36*
X270Y297D02*
X270Y295D01*
X272Y295D01*
X272Y293D01*
X274Y293D01*
X274Y291D01*
X276Y291D01*
X276Y289D01*
X278Y289D01*
X278Y287D01*
X280Y287D01*
X280Y285D01*
X282Y285D01*
X282Y283D01*
X284Y283D01*
X284Y281D01*
X286Y281D01*
X286Y277D01*
X288Y277D01*
X288Y275D01*
X290Y275D01*
X290Y273D01*
X292Y273D01*
X292Y271D01*
X294Y271D01*
X294Y269D01*
X296Y269D01*
X296Y267D01*
X298Y267D01*
X298Y265D01*
X300Y265D01*
X300Y263D01*
X302Y263D01*
X302Y261D01*
X304Y261D01*
X304Y259D01*
X306Y259D01*
X306Y257D01*
X308Y257D01*
X308Y255D01*
X310Y255D01*
X310Y253D01*
X312Y253D01*
X312Y251D01*
X314Y251D01*
X314Y249D01*
X316Y249D01*
X316Y247D01*
X318Y247D01*
X318Y243D01*
X320Y243D01*
X320Y241D01*
X322Y241D01*
X322Y239D01*
X324Y239D01*
X324Y237D01*
X326Y237D01*
X326Y235D01*
X328Y235D01*
X328Y233D01*
X330Y233D01*
X330Y231D01*
X332Y231D01*
X332Y229D01*
X334Y229D01*
X334Y227D01*
X336Y227D01*
X336Y225D01*
X338Y225D01*
X338Y223D01*
X340Y223D01*
X340Y221D01*
X342Y221D01*
X342Y219D01*
X344Y219D01*
X344Y217D01*
X346Y217D01*
X346Y215D01*
X348Y215D01*
X348Y213D01*
X350Y213D01*
X350Y211D01*
X352Y211D01*
X352Y207D01*
X354Y207D01*
X354Y205D01*
X356Y205D01*
X356Y203D01*
X358Y203D01*
X358Y201D01*
X360Y201D01*
X360Y199D01*
X362Y199D01*
X362Y197D01*
X364Y197D01*
X364Y195D01*
X366Y195D01*
X366Y193D01*
X368Y193D01*
X368Y191D01*
X370Y191D01*
X370Y189D01*
X372Y189D01*
X372Y187D01*
X374Y187D01*
X374Y185D01*
X376Y185D01*
X376Y183D01*
X378Y183D01*
X378Y181D01*
X380Y181D01*
X380Y179D01*
X382Y179D01*
X382Y177D01*
X384Y177D01*
X384Y173D01*
X386Y173D01*
X386Y171D01*
X388Y171D01*
X388Y169D01*
X390Y169D01*
X390Y167D01*
X392Y167D01*
X392Y165D01*
X394Y165D01*
X394Y163D01*
X396Y163D01*
X396Y161D01*
X398Y161D01*
X398Y159D01*
X400Y159D01*
X400Y157D01*
X402Y157D01*
X402Y155D01*
X404Y155D01*
X404Y153D01*
X406Y153D01*
X406Y151D01*
X408Y151D01*
X408Y149D01*
X410Y149D01*
X410Y147D01*
X412Y147D01*
X412Y145D01*
X414Y145D01*
X414Y143D01*
X416Y143D01*
X416Y139D01*
X418Y139D01*
X418Y137D01*
X420Y137D01*
X420Y135D01*
X422Y135D01*
X422Y133D01*
X424Y133D01*
X424Y131D01*
X426Y131D01*
X426Y129D01*
X428Y129D01*
X428Y127D01*
X430Y127D01*
X430Y125D01*
X432Y125D01*
X432Y123D01*
X434Y123D01*
X434Y121D01*
X436Y121D01*
X436Y119D01*
X438Y119D01*
X438Y117D01*
X440Y117D01*
X440Y115D01*
X442Y115D01*
X442Y113D01*
X444Y113D01*
X444Y111D01*
X446Y111D01*
X446Y109D01*
X448Y109D01*
X448Y105D01*
X450Y105D01*
X450Y103D01*
X452Y103D01*
X452Y101D01*
X454Y101D01*
X454Y99D01*
X456Y99D01*
X456Y97D01*
X458Y97D01*
X458Y95D01*
X460Y95D01*
X460Y93D01*
X1290Y93D01*
X1290Y95D01*
X1292Y95D01*
X1292Y97D01*
X1294Y97D01*
X1294Y99D01*
X1296Y99D01*
X1296Y101D01*
X1298Y101D01*
X1298Y103D01*
X1300Y103D01*
X1300Y105D01*
X1302Y105D01*
X1302Y107D01*
X1304Y107D01*
X1304Y109D01*
X1306Y109D01*
X1306Y111D01*
X1308Y111D01*
X1308Y113D01*
X1310Y113D01*
X1310Y115D01*
X1312Y115D01*
X1312Y117D01*
X1314Y117D01*
X1314Y119D01*
X1316Y119D01*
X1316Y121D01*
X1318Y121D01*
X1318Y123D01*
X1320Y123D01*
X1320Y125D01*
X1322Y125D01*
X1322Y127D01*
X1324Y127D01*
X1324Y129D01*
X1326Y129D01*
X1326Y131D01*
X1328Y131D01*
X1328Y133D01*
X1330Y133D01*
X1330Y135D01*
X1332Y135D01*
X1332Y137D01*
X1334Y137D01*
X1334Y139D01*
X1336Y139D01*
X1336Y141D01*
X1338Y141D01*
X1338Y143D01*
X1340Y143D01*
X1340Y145D01*
X1342Y145D01*
X1342Y147D01*
X1344Y147D01*
X1344Y149D01*
X1346Y149D01*
X1346Y151D01*
X1348Y151D01*
X1348Y153D01*
X1350Y153D01*
X1350Y155D01*
X1352Y155D01*
X1352Y157D01*
X1354Y157D01*
X1354Y159D01*
X1356Y159D01*
X1356Y161D01*
X1358Y161D01*
X1358Y163D01*
X1360Y163D01*
X1360Y165D01*
X1362Y165D01*
X1362Y193D01*
X1364Y193D01*
X1364Y199D01*
X1366Y199D01*
X1366Y203D01*
X1368Y203D01*
X1368Y207D01*
X1370Y207D01*
X1370Y209D01*
X1372Y209D01*
X1372Y213D01*
X1374Y213D01*
X1374Y215D01*
X1376Y215D01*
X1376Y217D01*
X1378Y217D01*
X1378Y219D01*
X1380Y219D01*
X1380Y221D01*
X1382Y221D01*
X1382Y223D01*
X1386Y223D01*
X1386Y243D01*
X1384Y243D01*
X1384Y245D01*
X1382Y245D01*
X1382Y247D01*
X1380Y247D01*
X1380Y249D01*
X1378Y249D01*
X1378Y251D01*
X1376Y251D01*
X1376Y253D01*
X1374Y253D01*
X1374Y255D01*
X1372Y255D01*
X1372Y257D01*
X1370Y257D01*
X1370Y261D01*
X1368Y261D01*
X1368Y265D01*
X1366Y265D01*
X1366Y269D01*
X1364Y269D01*
X1364Y275D01*
X1362Y275D01*
X1362Y293D01*
X1364Y293D01*
X1364Y297D01*
X270Y297D01*
G37*
D02*
G36*
X220Y1453D02*
X295Y1453D01*
X295Y1421D01*
X220Y1421D01*
X220Y1453D01*
G37*
D02*
G36*
X174Y1539D02*
X208Y1539D01*
X208Y1464D01*
X174Y1464D01*
X174Y1539D01*
G37*
D02*
G36*
X100Y1775D02*
X175Y1775D01*
X175Y1741D01*
X100Y1741D01*
X100Y1775D01*
G37*
D02*
G36*
X54Y1729D02*
X88Y1729D01*
X88Y1654D01*
X54Y1654D01*
X54Y1729D01*
G37*
D02*
G36*
X562Y1549D02*
X601Y1549D01*
X601Y1525D01*
X562Y1525D01*
X562Y1549D01*
G37*
D02*
G36*
X958Y968D02*
X984Y968D01*
X984Y943D01*
X958Y943D01*
X958Y968D01*
G37*
D02*
G36*
X1428Y308D02*
X1460Y308D01*
X1460Y263D01*
X1428Y263D01*
X1428Y308D01*
G37*
D02*
G36*
X1385Y665D02*
X1430Y665D01*
X1430Y633D01*
X1385Y633D01*
X1385Y665D01*
G37*
D02*
G54D21*
X434Y959D02*
X480Y959D01*
X512Y959D02*
X558Y959D01*
X591Y959D02*
X637Y959D01*
X670Y959D02*
X716Y959D01*
X748Y959D02*
X794Y959D01*
X827Y959D02*
X873Y959D01*
X433Y958D02*
X480Y958D01*
X512Y958D02*
X558Y958D01*
X591Y958D02*
X637Y958D01*
X670Y958D02*
X716Y958D01*
X748Y958D02*
X795Y958D01*
X827Y958D02*
X873Y958D01*
X433Y957D02*
X480Y957D01*
X512Y957D02*
X558Y957D01*
X591Y957D02*
X637Y957D01*
X670Y957D02*
X716Y957D01*
X748Y957D02*
X795Y957D01*
X827Y957D02*
X873Y957D01*
X433Y956D02*
X480Y956D01*
X512Y956D02*
X558Y956D01*
X591Y956D02*
X637Y956D01*
X670Y956D02*
X716Y956D01*
X748Y956D02*
X795Y956D01*
X827Y956D02*
X873Y956D01*
X433Y955D02*
X480Y955D01*
X512Y955D02*
X558Y955D01*
X591Y955D02*
X637Y955D01*
X670Y955D02*
X716Y955D01*
X748Y955D02*
X795Y955D01*
X827Y955D02*
X873Y955D01*
X433Y954D02*
X480Y954D01*
X512Y954D02*
X558Y954D01*
X591Y954D02*
X637Y954D01*
X670Y954D02*
X716Y954D01*
X748Y954D02*
X795Y954D01*
X827Y954D02*
X873Y954D01*
X433Y953D02*
X480Y953D01*
X512Y953D02*
X558Y953D01*
X591Y953D02*
X637Y953D01*
X670Y953D02*
X716Y953D01*
X748Y953D02*
X795Y953D01*
X827Y953D02*
X873Y953D01*
X433Y952D02*
X480Y952D01*
X512Y952D02*
X558Y952D01*
X591Y952D02*
X637Y952D01*
X670Y952D02*
X716Y952D01*
X748Y952D02*
X795Y952D01*
X827Y952D02*
X873Y952D01*
X433Y951D02*
X454Y951D01*
X460Y951D02*
X480Y951D01*
X512Y951D02*
X532Y951D01*
X538Y951D02*
X558Y951D01*
X591Y951D02*
X611Y951D01*
X617Y951D02*
X637Y951D01*
X670Y951D02*
X690Y951D01*
X696Y951D02*
X716Y951D01*
X748Y951D02*
X768Y951D01*
X774Y951D02*
X795Y951D01*
X827Y951D02*
X847Y951D01*
X853Y951D02*
X873Y951D01*
X433Y950D02*
X451Y950D01*
X462Y950D02*
X480Y950D01*
X512Y950D02*
X529Y950D01*
X541Y950D02*
X558Y950D01*
X591Y950D02*
X608Y950D01*
X620Y950D02*
X637Y950D01*
X670Y950D02*
X687Y950D01*
X699Y950D02*
X716Y950D01*
X748Y950D02*
X766Y950D01*
X777Y950D02*
X795Y950D01*
X827Y950D02*
X844Y950D01*
X856Y950D02*
X873Y950D01*
X433Y949D02*
X449Y949D01*
X464Y949D02*
X480Y949D01*
X512Y949D02*
X528Y949D01*
X543Y949D02*
X558Y949D01*
X591Y949D02*
X606Y949D01*
X622Y949D02*
X637Y949D01*
X670Y949D02*
X685Y949D01*
X700Y949D02*
X716Y949D01*
X748Y949D02*
X764Y949D01*
X779Y949D02*
X795Y949D01*
X827Y949D02*
X843Y949D01*
X858Y949D02*
X873Y949D01*
X433Y948D02*
X448Y948D01*
X465Y948D02*
X480Y948D01*
X512Y948D02*
X527Y948D01*
X544Y948D02*
X558Y948D01*
X591Y948D02*
X605Y948D01*
X623Y948D02*
X637Y948D01*
X670Y948D02*
X684Y948D01*
X701Y948D02*
X716Y948D01*
X748Y948D02*
X763Y948D01*
X780Y948D02*
X795Y948D01*
X827Y948D02*
X841Y948D01*
X859Y948D02*
X873Y948D01*
X433Y947D02*
X447Y947D01*
X466Y947D02*
X480Y947D01*
X512Y947D02*
X526Y947D01*
X545Y947D02*
X558Y947D01*
X591Y947D02*
X604Y947D01*
X624Y947D02*
X637Y947D01*
X670Y947D02*
X683Y947D01*
X702Y947D02*
X716Y947D01*
X748Y947D02*
X762Y947D01*
X781Y947D02*
X795Y947D01*
X827Y947D02*
X840Y947D01*
X860Y947D02*
X873Y947D01*
X433Y946D02*
X446Y946D01*
X467Y946D02*
X480Y946D01*
X512Y946D02*
X525Y946D01*
X546Y946D02*
X558Y946D01*
X591Y946D02*
X603Y946D01*
X624Y946D02*
X637Y946D01*
X670Y946D02*
X682Y946D01*
X703Y946D02*
X716Y946D01*
X748Y946D02*
X761Y946D01*
X782Y946D02*
X795Y946D01*
X827Y946D02*
X840Y946D01*
X861Y946D02*
X873Y946D01*
X433Y945D02*
X446Y945D01*
X468Y945D02*
X480Y945D01*
X512Y945D02*
X524Y945D01*
X546Y945D02*
X558Y945D01*
X591Y945D02*
X603Y945D01*
X625Y945D02*
X637Y945D01*
X670Y945D02*
X682Y945D01*
X704Y945D02*
X716Y945D01*
X748Y945D02*
X760Y945D01*
X782Y945D02*
X795Y945D01*
X827Y945D02*
X839Y945D01*
X861Y945D02*
X873Y945D01*
X433Y944D02*
X445Y944D01*
X468Y944D02*
X480Y944D01*
X512Y944D02*
X524Y944D01*
X547Y944D02*
X558Y944D01*
X591Y944D02*
X602Y944D01*
X626Y944D02*
X637Y944D01*
X670Y944D02*
X681Y944D01*
X704Y944D02*
X716Y944D01*
X748Y944D02*
X760Y944D01*
X783Y944D02*
X795Y944D01*
X827Y944D02*
X838Y944D01*
X862Y944D02*
X873Y944D01*
X433Y943D02*
X445Y943D01*
X469Y943D02*
X480Y943D01*
X512Y943D02*
X523Y943D01*
X547Y943D02*
X558Y943D01*
X591Y943D02*
X602Y943D01*
X626Y943D02*
X637Y943D01*
X670Y943D02*
X681Y943D01*
X705Y943D02*
X716Y943D01*
X748Y943D02*
X759Y943D01*
X783Y943D02*
X795Y943D01*
X827Y943D02*
X838Y943D01*
X862Y943D02*
X873Y943D01*
X433Y942D02*
X444Y942D01*
X469Y942D02*
X480Y942D01*
X512Y942D02*
X523Y942D01*
X548Y942D02*
X558Y942D01*
X591Y942D02*
X602Y942D01*
X626Y942D02*
X637Y942D01*
X670Y942D02*
X680Y942D01*
X705Y942D02*
X716Y942D01*
X748Y942D02*
X759Y942D01*
X784Y942D02*
X795Y942D01*
X827Y942D02*
X838Y942D01*
X862Y942D02*
X873Y942D01*
X433Y941D02*
X444Y941D01*
X469Y941D02*
X480Y941D01*
X512Y941D02*
X523Y941D01*
X548Y941D02*
X558Y941D01*
X591Y941D02*
X602Y941D01*
X626Y941D02*
X637Y941D01*
X670Y941D02*
X680Y941D01*
X705Y941D02*
X716Y941D01*
X748Y941D02*
X759Y941D01*
X784Y941D02*
X795Y941D01*
X827Y941D02*
X838Y941D01*
X863Y941D02*
X873Y941D01*
X433Y940D02*
X444Y940D01*
X469Y940D02*
X480Y940D01*
X512Y940D02*
X523Y940D01*
X548Y940D02*
X558Y940D01*
X591Y940D02*
X601Y940D01*
X627Y940D02*
X637Y940D01*
X670Y940D02*
X680Y940D01*
X705Y940D02*
X716Y940D01*
X748Y940D02*
X759Y940D01*
X784Y940D02*
X795Y940D01*
X827Y940D02*
X838Y940D01*
X863Y940D02*
X873Y940D01*
X433Y939D02*
X444Y939D01*
X469Y939D02*
X480Y939D01*
X512Y939D02*
X523Y939D01*
X548Y939D02*
X558Y939D01*
X591Y939D02*
X601Y939D01*
X627Y939D02*
X637Y939D01*
X670Y939D02*
X680Y939D01*
X705Y939D02*
X716Y939D01*
X748Y939D02*
X759Y939D01*
X784Y939D02*
X795Y939D01*
X827Y939D02*
X837Y939D01*
X863Y939D02*
X873Y939D01*
X433Y938D02*
X444Y938D01*
X469Y938D02*
X480Y938D01*
X512Y938D02*
X523Y938D01*
X548Y938D02*
X558Y938D01*
X591Y938D02*
X601Y938D01*
X627Y938D02*
X637Y938D01*
X670Y938D02*
X680Y938D01*
X705Y938D02*
X716Y938D01*
X748Y938D02*
X759Y938D01*
X784Y938D02*
X795Y938D01*
X827Y938D02*
X838Y938D01*
X863Y938D02*
X873Y938D01*
X433Y937D02*
X444Y937D01*
X469Y937D02*
X480Y937D01*
X512Y937D02*
X523Y937D01*
X548Y937D02*
X558Y937D01*
X591Y937D02*
X602Y937D01*
X626Y937D02*
X637Y937D01*
X670Y937D02*
X680Y937D01*
X705Y937D02*
X716Y937D01*
X748Y937D02*
X759Y937D01*
X784Y937D02*
X795Y937D01*
X827Y937D02*
X838Y937D01*
X863Y937D02*
X873Y937D01*
X433Y936D02*
X444Y936D01*
X469Y936D02*
X480Y936D01*
X512Y936D02*
X523Y936D01*
X547Y936D02*
X558Y936D01*
X591Y936D02*
X602Y936D01*
X626Y936D02*
X637Y936D01*
X670Y936D02*
X680Y936D01*
X705Y936D02*
X716Y936D01*
X748Y936D02*
X759Y936D01*
X784Y936D02*
X795Y936D01*
X827Y936D02*
X838Y936D01*
X862Y936D02*
X873Y936D01*
X433Y935D02*
X445Y935D01*
X468Y935D02*
X480Y935D01*
X512Y935D02*
X523Y935D01*
X547Y935D02*
X558Y935D01*
X591Y935D02*
X602Y935D01*
X626Y935D02*
X637Y935D01*
X670Y935D02*
X681Y935D01*
X705Y935D02*
X716Y935D01*
X748Y935D02*
X760Y935D01*
X783Y935D02*
X795Y935D01*
X827Y935D02*
X838Y935D01*
X862Y935D02*
X873Y935D01*
X433Y934D02*
X445Y934D01*
X468Y934D02*
X480Y934D01*
X512Y934D02*
X524Y934D01*
X547Y934D02*
X558Y934D01*
X591Y934D02*
X603Y934D01*
X625Y934D02*
X637Y934D01*
X670Y934D02*
X681Y934D01*
X704Y934D02*
X716Y934D01*
X748Y934D02*
X760Y934D01*
X783Y934D02*
X795Y934D01*
X827Y934D02*
X839Y934D01*
X862Y934D02*
X873Y934D01*
X433Y933D02*
X446Y933D01*
X468Y933D02*
X480Y933D01*
X512Y933D02*
X524Y933D01*
X546Y933D02*
X558Y933D01*
X591Y933D02*
X603Y933D01*
X625Y933D02*
X637Y933D01*
X670Y933D02*
X682Y933D01*
X704Y933D02*
X716Y933D01*
X748Y933D02*
X760Y933D01*
X782Y933D02*
X795Y933D01*
X827Y933D02*
X839Y933D01*
X861Y933D02*
X873Y933D01*
X433Y932D02*
X446Y932D01*
X467Y932D02*
X480Y932D01*
X512Y932D02*
X525Y932D01*
X546Y932D02*
X558Y932D01*
X591Y932D02*
X604Y932D01*
X624Y932D02*
X637Y932D01*
X670Y932D02*
X682Y932D01*
X703Y932D02*
X716Y932D01*
X748Y932D02*
X761Y932D01*
X782Y932D02*
X795Y932D01*
X827Y932D02*
X840Y932D01*
X860Y932D02*
X873Y932D01*
X433Y931D02*
X447Y931D01*
X466Y931D02*
X480Y931D01*
X512Y931D02*
X526Y931D01*
X545Y931D02*
X558Y931D01*
X591Y931D02*
X605Y931D01*
X623Y931D02*
X637Y931D01*
X670Y931D02*
X683Y931D01*
X702Y931D02*
X716Y931D01*
X748Y931D02*
X762Y931D01*
X781Y931D02*
X795Y931D01*
X827Y931D02*
X841Y931D01*
X860Y931D02*
X873Y931D01*
X433Y930D02*
X448Y930D01*
X465Y930D02*
X480Y930D01*
X512Y930D02*
X527Y930D01*
X544Y930D02*
X558Y930D01*
X591Y930D02*
X606Y930D01*
X622Y930D02*
X637Y930D01*
X670Y930D02*
X684Y930D01*
X701Y930D02*
X716Y930D01*
X748Y930D02*
X763Y930D01*
X780Y930D02*
X795Y930D01*
X827Y930D02*
X842Y930D01*
X859Y930D02*
X873Y930D01*
X433Y929D02*
X449Y929D01*
X464Y929D02*
X480Y929D01*
X512Y929D02*
X528Y929D01*
X542Y929D02*
X558Y929D01*
X591Y929D02*
X607Y929D01*
X621Y929D02*
X637Y929D01*
X670Y929D02*
X686Y929D01*
X700Y929D02*
X716Y929D01*
X748Y929D02*
X764Y929D01*
X779Y929D02*
X795Y929D01*
X827Y929D02*
X843Y929D01*
X857Y929D02*
X873Y929D01*
X433Y928D02*
X451Y928D01*
X462Y928D02*
X480Y928D01*
X512Y928D02*
X530Y928D01*
X541Y928D02*
X558Y928D01*
X591Y928D02*
X609Y928D01*
X619Y928D02*
X637Y928D01*
X670Y928D02*
X687Y928D01*
X698Y928D02*
X716Y928D01*
X748Y928D02*
X766Y928D01*
X777Y928D02*
X795Y928D01*
X827Y928D02*
X845Y928D01*
X855Y928D02*
X873Y928D01*
X433Y927D02*
X480Y927D01*
X512Y927D02*
X558Y927D01*
X591Y927D02*
X637Y927D01*
X670Y927D02*
X716Y927D01*
X748Y927D02*
X795Y927D01*
X827Y927D02*
X873Y927D01*
X433Y926D02*
X480Y926D01*
X512Y926D02*
X558Y926D01*
X591Y926D02*
X637Y926D01*
X670Y926D02*
X716Y926D01*
X748Y926D02*
X795Y926D01*
X827Y926D02*
X873Y926D01*
X433Y925D02*
X480Y925D01*
X512Y925D02*
X558Y925D01*
X591Y925D02*
X637Y925D01*
X670Y925D02*
X716Y925D01*
X748Y925D02*
X795Y925D01*
X827Y925D02*
X873Y925D01*
X433Y924D02*
X480Y924D01*
X512Y924D02*
X558Y924D01*
X591Y924D02*
X637Y924D01*
X670Y924D02*
X716Y924D01*
X748Y924D02*
X795Y924D01*
X827Y924D02*
X873Y924D01*
X433Y923D02*
X480Y923D01*
X512Y923D02*
X558Y923D01*
X591Y923D02*
X637Y923D01*
X670Y923D02*
X716Y923D01*
X748Y923D02*
X795Y923D01*
X827Y923D02*
X873Y923D01*
X433Y922D02*
X480Y922D01*
X512Y922D02*
X558Y922D01*
X591Y922D02*
X637Y922D01*
X670Y922D02*
X716Y922D01*
X748Y922D02*
X795Y922D01*
X827Y922D02*
X873Y922D01*
X433Y921D02*
X480Y921D01*
X512Y921D02*
X558Y921D01*
X591Y921D02*
X637Y921D01*
X670Y921D02*
X716Y921D01*
X748Y921D02*
X795Y921D01*
X827Y921D02*
X873Y921D01*
X433Y920D02*
X480Y920D01*
X512Y920D02*
X558Y920D01*
X591Y920D02*
X637Y920D01*
X670Y920D02*
X716Y920D01*
X748Y920D02*
X795Y920D01*
X827Y920D02*
X873Y920D01*
X433Y919D02*
X480Y919D01*
X512Y919D02*
X558Y919D01*
X591Y919D02*
X637Y919D01*
X670Y919D02*
X716Y919D01*
X748Y919D02*
X795Y919D01*
X827Y919D02*
X873Y919D01*
X433Y918D02*
X480Y918D01*
X512Y918D02*
X558Y918D01*
X591Y918D02*
X637Y918D01*
X670Y918D02*
X716Y918D01*
X748Y918D02*
X795Y918D01*
X827Y918D02*
X873Y918D01*
X433Y917D02*
X480Y917D01*
X512Y917D02*
X558Y917D01*
X591Y917D02*
X637Y917D01*
X670Y917D02*
X716Y917D01*
X748Y917D02*
X795Y917D01*
X827Y917D02*
X873Y917D01*
X433Y916D02*
X480Y916D01*
X512Y916D02*
X558Y916D01*
X591Y916D02*
X637Y916D01*
X670Y916D02*
X716Y916D01*
X748Y916D02*
X795Y916D01*
X827Y916D02*
X873Y916D01*
X433Y915D02*
X480Y915D01*
X512Y915D02*
X558Y915D01*
X591Y915D02*
X637Y915D01*
X670Y915D02*
X716Y915D01*
X748Y915D02*
X795Y915D01*
X827Y915D02*
X873Y915D01*
X433Y914D02*
X480Y914D01*
X512Y914D02*
X558Y914D01*
X591Y914D02*
X637Y914D01*
X670Y914D02*
X716Y914D01*
X748Y914D02*
X795Y914D01*
X827Y914D02*
X873Y914D01*
X433Y913D02*
X480Y913D01*
X512Y913D02*
X558Y913D01*
X591Y913D02*
X637Y913D01*
X670Y913D02*
X716Y913D01*
X748Y913D02*
X795Y913D01*
X827Y913D02*
X873Y913D01*
X433Y912D02*
X480Y912D01*
X512Y912D02*
X558Y912D01*
X591Y912D02*
X637Y912D01*
X670Y912D02*
X716Y912D01*
X748Y912D02*
X795Y912D01*
X827Y912D02*
X873Y912D01*
X433Y911D02*
X480Y911D01*
X512Y911D02*
X558Y911D01*
X591Y911D02*
X637Y911D01*
X670Y911D02*
X716Y911D01*
X748Y911D02*
X795Y911D01*
X827Y911D02*
X873Y911D01*
X433Y910D02*
X480Y910D01*
X512Y910D02*
X558Y910D01*
X591Y910D02*
X637Y910D01*
X670Y910D02*
X716Y910D01*
X748Y910D02*
X795Y910D01*
X827Y910D02*
X873Y910D01*
X433Y909D02*
X480Y909D01*
X512Y909D02*
X558Y909D01*
X591Y909D02*
X637Y909D01*
X670Y909D02*
X716Y909D01*
X748Y909D02*
X795Y909D01*
X827Y909D02*
X873Y909D01*
X433Y908D02*
X480Y908D01*
X512Y908D02*
X558Y908D01*
X591Y908D02*
X637Y908D01*
X670Y908D02*
X716Y908D01*
X748Y908D02*
X795Y908D01*
X827Y908D02*
X873Y908D01*
X310Y907D02*
X398Y907D01*
X433Y907D02*
X480Y907D01*
X512Y907D02*
X558Y907D01*
X591Y907D02*
X637Y907D01*
X670Y907D02*
X716Y907D01*
X748Y907D02*
X795Y907D01*
X827Y907D02*
X873Y907D01*
X910Y907D02*
X997Y907D01*
X310Y906D02*
X398Y906D01*
X433Y906D02*
X480Y906D01*
X512Y906D02*
X558Y906D01*
X591Y906D02*
X637Y906D01*
X670Y906D02*
X716Y906D01*
X748Y906D02*
X795Y906D01*
X827Y906D02*
X873Y906D01*
X910Y906D02*
X997Y906D01*
X310Y905D02*
X398Y905D01*
X433Y905D02*
X480Y905D01*
X512Y905D02*
X558Y905D01*
X591Y905D02*
X637Y905D01*
X670Y905D02*
X716Y905D01*
X748Y905D02*
X795Y905D01*
X827Y905D02*
X873Y905D01*
X910Y905D02*
X997Y905D01*
X310Y904D02*
X398Y904D01*
X433Y904D02*
X480Y904D01*
X512Y904D02*
X558Y904D01*
X591Y904D02*
X637Y904D01*
X670Y904D02*
X716Y904D01*
X748Y904D02*
X795Y904D01*
X827Y904D02*
X873Y904D01*
X910Y904D02*
X997Y904D01*
X310Y903D02*
X398Y903D01*
X433Y903D02*
X480Y903D01*
X512Y903D02*
X558Y903D01*
X591Y903D02*
X637Y903D01*
X670Y903D02*
X716Y903D01*
X748Y903D02*
X795Y903D01*
X827Y903D02*
X873Y903D01*
X910Y903D02*
X997Y903D01*
X310Y902D02*
X398Y902D01*
X433Y902D02*
X480Y902D01*
X512Y902D02*
X558Y902D01*
X591Y902D02*
X637Y902D01*
X670Y902D02*
X716Y902D01*
X748Y902D02*
X795Y902D01*
X827Y902D02*
X873Y902D01*
X910Y902D02*
X997Y902D01*
X310Y901D02*
X398Y901D01*
X433Y901D02*
X480Y901D01*
X512Y901D02*
X558Y901D01*
X591Y901D02*
X637Y901D01*
X670Y901D02*
X716Y901D01*
X748Y901D02*
X795Y901D01*
X827Y901D02*
X873Y901D01*
X910Y901D02*
X997Y901D01*
X310Y900D02*
X398Y900D01*
X433Y900D02*
X480Y900D01*
X512Y900D02*
X558Y900D01*
X591Y900D02*
X637Y900D01*
X670Y900D02*
X716Y900D01*
X748Y900D02*
X795Y900D01*
X827Y900D02*
X873Y900D01*
X910Y900D02*
X997Y900D01*
X310Y899D02*
X398Y899D01*
X433Y899D02*
X480Y899D01*
X512Y899D02*
X558Y899D01*
X591Y899D02*
X637Y899D01*
X670Y899D02*
X716Y899D01*
X748Y899D02*
X795Y899D01*
X827Y899D02*
X873Y899D01*
X910Y899D02*
X997Y899D01*
X310Y898D02*
X398Y898D01*
X433Y898D02*
X480Y898D01*
X512Y898D02*
X558Y898D01*
X591Y898D02*
X637Y898D01*
X670Y898D02*
X716Y898D01*
X748Y898D02*
X795Y898D01*
X827Y898D02*
X873Y898D01*
X910Y898D02*
X997Y898D01*
X310Y897D02*
X398Y897D01*
X433Y897D02*
X480Y897D01*
X512Y897D02*
X558Y897D01*
X591Y897D02*
X637Y897D01*
X670Y897D02*
X716Y897D01*
X748Y897D02*
X795Y897D01*
X827Y897D02*
X873Y897D01*
X910Y897D02*
X997Y897D01*
X310Y896D02*
X375Y896D01*
X381Y896D02*
X398Y896D01*
X433Y896D02*
X480Y896D01*
X512Y896D02*
X558Y896D01*
X591Y896D02*
X637Y896D01*
X670Y896D02*
X716Y896D01*
X748Y896D02*
X795Y896D01*
X827Y896D02*
X873Y896D01*
X910Y896D02*
X927Y896D01*
X933Y896D02*
X997Y896D01*
X310Y895D02*
X372Y895D01*
X384Y895D02*
X398Y895D01*
X433Y895D02*
X480Y895D01*
X512Y895D02*
X558Y895D01*
X591Y895D02*
X637Y895D01*
X670Y895D02*
X716Y895D01*
X748Y895D02*
X795Y895D01*
X827Y895D02*
X873Y895D01*
X910Y895D02*
X924Y895D01*
X936Y895D02*
X997Y895D01*
X310Y894D02*
X370Y894D01*
X385Y894D02*
X398Y894D01*
X433Y894D02*
X480Y894D01*
X512Y894D02*
X558Y894D01*
X591Y894D02*
X637Y894D01*
X670Y894D02*
X716Y894D01*
X748Y894D02*
X795Y894D01*
X827Y894D02*
X873Y894D01*
X910Y894D02*
X922Y894D01*
X937Y894D02*
X997Y894D01*
X310Y893D02*
X369Y893D01*
X386Y893D02*
X398Y893D01*
X433Y893D02*
X480Y893D01*
X512Y893D02*
X558Y893D01*
X591Y893D02*
X637Y893D01*
X670Y893D02*
X716Y893D01*
X748Y893D02*
X795Y893D01*
X827Y893D02*
X873Y893D01*
X910Y893D02*
X921Y893D01*
X939Y893D02*
X997Y893D01*
X310Y892D02*
X368Y892D01*
X387Y892D02*
X398Y892D01*
X433Y892D02*
X480Y892D01*
X512Y892D02*
X558Y892D01*
X591Y892D02*
X637Y892D01*
X670Y892D02*
X716Y892D01*
X748Y892D02*
X795Y892D01*
X827Y892D02*
X873Y892D01*
X910Y892D02*
X920Y892D01*
X939Y892D02*
X997Y892D01*
X310Y891D02*
X367Y891D01*
X388Y891D02*
X398Y891D01*
X433Y891D02*
X480Y891D01*
X512Y891D02*
X558Y891D01*
X591Y891D02*
X637Y891D01*
X670Y891D02*
X716Y891D01*
X748Y891D02*
X795Y891D01*
X827Y891D02*
X873Y891D01*
X910Y891D02*
X919Y891D01*
X940Y891D02*
X997Y891D01*
X310Y890D02*
X367Y890D01*
X389Y890D02*
X398Y890D01*
X433Y890D02*
X480Y890D01*
X512Y890D02*
X558Y890D01*
X591Y890D02*
X637Y890D01*
X670Y890D02*
X716Y890D01*
X748Y890D02*
X795Y890D01*
X827Y890D02*
X873Y890D01*
X910Y890D02*
X919Y890D01*
X941Y890D02*
X997Y890D01*
X310Y889D02*
X366Y889D01*
X389Y889D02*
X398Y889D01*
X433Y889D02*
X480Y889D01*
X512Y889D02*
X558Y889D01*
X591Y889D02*
X637Y889D01*
X670Y889D02*
X716Y889D01*
X748Y889D02*
X795Y889D01*
X827Y889D02*
X873Y889D01*
X910Y889D02*
X918Y889D01*
X941Y889D02*
X997Y889D01*
X310Y888D02*
X366Y888D01*
X390Y888D02*
X398Y888D01*
X433Y888D02*
X480Y888D01*
X512Y888D02*
X558Y888D01*
X591Y888D02*
X637Y888D01*
X670Y888D02*
X716Y888D01*
X748Y888D02*
X795Y888D01*
X827Y888D02*
X873Y888D01*
X910Y888D02*
X918Y888D01*
X942Y888D02*
X997Y888D01*
X310Y887D02*
X365Y887D01*
X390Y887D02*
X398Y887D01*
X433Y887D02*
X480Y887D01*
X512Y887D02*
X558Y887D01*
X591Y887D02*
X637Y887D01*
X670Y887D02*
X716Y887D01*
X748Y887D02*
X795Y887D01*
X827Y887D02*
X873Y887D01*
X910Y887D02*
X917Y887D01*
X942Y887D02*
X997Y887D01*
X310Y886D02*
X365Y886D01*
X390Y886D02*
X398Y886D01*
X433Y886D02*
X480Y886D01*
X512Y886D02*
X558Y886D01*
X591Y886D02*
X637Y886D01*
X670Y886D02*
X716Y886D01*
X748Y886D02*
X795Y886D01*
X827Y886D02*
X873Y886D01*
X910Y886D02*
X917Y886D01*
X942Y886D02*
X997Y886D01*
X310Y885D02*
X365Y885D01*
X390Y885D02*
X398Y885D01*
X433Y885D02*
X480Y885D01*
X512Y885D02*
X558Y885D01*
X591Y885D02*
X637Y885D01*
X670Y885D02*
X716Y885D01*
X748Y885D02*
X795Y885D01*
X827Y885D02*
X873Y885D01*
X910Y885D02*
X917Y885D01*
X942Y885D02*
X997Y885D01*
X310Y884D02*
X365Y884D01*
X390Y884D02*
X398Y884D01*
X433Y884D02*
X480Y884D01*
X512Y884D02*
X558Y884D01*
X591Y884D02*
X637Y884D01*
X670Y884D02*
X716Y884D01*
X748Y884D02*
X795Y884D01*
X827Y884D02*
X873Y884D01*
X910Y884D02*
X917Y884D01*
X942Y884D02*
X997Y884D01*
X310Y883D02*
X365Y883D01*
X390Y883D02*
X398Y883D01*
X433Y883D02*
X480Y883D01*
X512Y883D02*
X558Y883D01*
X591Y883D02*
X637Y883D01*
X670Y883D02*
X716Y883D01*
X748Y883D02*
X795Y883D01*
X827Y883D02*
X873Y883D01*
X910Y883D02*
X917Y883D01*
X942Y883D02*
X997Y883D01*
X310Y882D02*
X365Y882D01*
X390Y882D02*
X398Y882D01*
X433Y882D02*
X480Y882D01*
X512Y882D02*
X558Y882D01*
X591Y882D02*
X637Y882D01*
X670Y882D02*
X716Y882D01*
X748Y882D02*
X795Y882D01*
X827Y882D02*
X873Y882D01*
X910Y882D02*
X917Y882D01*
X942Y882D02*
X997Y882D01*
X310Y881D02*
X366Y881D01*
X390Y881D02*
X398Y881D01*
X433Y881D02*
X480Y881D01*
X512Y881D02*
X558Y881D01*
X591Y881D02*
X637Y881D01*
X670Y881D02*
X716Y881D01*
X748Y881D02*
X795Y881D01*
X827Y881D02*
X873Y881D01*
X910Y881D02*
X918Y881D01*
X942Y881D02*
X997Y881D01*
X310Y880D02*
X366Y880D01*
X390Y880D02*
X398Y880D01*
X433Y880D02*
X480Y880D01*
X512Y880D02*
X558Y880D01*
X591Y880D02*
X637Y880D01*
X670Y880D02*
X716Y880D01*
X748Y880D02*
X795Y880D01*
X827Y880D02*
X873Y880D01*
X910Y880D02*
X918Y880D01*
X942Y880D02*
X997Y880D01*
X310Y879D02*
X366Y879D01*
X389Y879D02*
X398Y879D01*
X433Y879D02*
X480Y879D01*
X512Y879D02*
X558Y879D01*
X591Y879D02*
X637Y879D01*
X670Y879D02*
X716Y879D01*
X748Y879D02*
X795Y879D01*
X827Y879D02*
X873Y879D01*
X910Y879D02*
X918Y879D01*
X941Y879D02*
X997Y879D01*
X310Y878D02*
X367Y878D01*
X389Y878D02*
X398Y878D01*
X433Y878D02*
X480Y878D01*
X512Y878D02*
X558Y878D01*
X591Y878D02*
X637Y878D01*
X670Y878D02*
X716Y878D01*
X748Y878D02*
X795Y878D01*
X827Y878D02*
X873Y878D01*
X910Y878D02*
X919Y878D01*
X941Y878D02*
X997Y878D01*
X310Y877D02*
X367Y877D01*
X388Y877D02*
X398Y877D01*
X433Y877D02*
X480Y877D01*
X512Y877D02*
X558Y877D01*
X591Y877D02*
X637Y877D01*
X670Y877D02*
X716Y877D01*
X748Y877D02*
X795Y877D01*
X827Y877D02*
X873Y877D01*
X910Y877D02*
X919Y877D01*
X940Y877D02*
X997Y877D01*
X310Y876D02*
X368Y876D01*
X387Y876D02*
X398Y876D01*
X433Y876D02*
X480Y876D01*
X512Y876D02*
X558Y876D01*
X591Y876D02*
X637Y876D01*
X670Y876D02*
X716Y876D01*
X748Y876D02*
X795Y876D01*
X827Y876D02*
X873Y876D01*
X910Y876D02*
X920Y876D01*
X939Y876D02*
X997Y876D01*
X310Y875D02*
X369Y875D01*
X386Y875D02*
X398Y875D01*
X433Y875D02*
X480Y875D01*
X512Y875D02*
X558Y875D01*
X591Y875D02*
X637Y875D01*
X670Y875D02*
X716Y875D01*
X748Y875D02*
X795Y875D01*
X827Y875D02*
X873Y875D01*
X910Y875D02*
X921Y875D01*
X938Y875D02*
X997Y875D01*
X310Y874D02*
X371Y874D01*
X385Y874D02*
X398Y874D01*
X433Y874D02*
X480Y874D01*
X512Y874D02*
X558Y874D01*
X591Y874D02*
X637Y874D01*
X670Y874D02*
X716Y874D01*
X748Y874D02*
X795Y874D01*
X827Y874D02*
X873Y874D01*
X910Y874D02*
X923Y874D01*
X937Y874D02*
X997Y874D01*
X310Y873D02*
X372Y873D01*
X383Y873D02*
X398Y873D01*
X433Y873D02*
X480Y873D01*
X512Y873D02*
X558Y873D01*
X591Y873D02*
X637Y873D01*
X670Y873D02*
X716Y873D01*
X748Y873D02*
X795Y873D01*
X827Y873D02*
X873Y873D01*
X910Y873D02*
X924Y873D01*
X935Y873D02*
X997Y873D01*
X310Y872D02*
X398Y872D01*
X433Y872D02*
X480Y872D01*
X512Y872D02*
X558Y872D01*
X591Y872D02*
X637Y872D01*
X670Y872D02*
X716Y872D01*
X748Y872D02*
X795Y872D01*
X827Y872D02*
X873Y872D01*
X910Y872D02*
X997Y872D01*
X310Y871D02*
X398Y871D01*
X434Y871D02*
X479Y871D01*
X512Y871D02*
X558Y871D01*
X591Y871D02*
X637Y871D01*
X670Y871D02*
X715Y871D01*
X749Y871D02*
X794Y871D01*
X827Y871D02*
X873Y871D01*
X910Y871D02*
X997Y871D01*
X310Y870D02*
X398Y870D01*
X910Y870D02*
X997Y870D01*
X310Y869D02*
X398Y869D01*
X910Y869D02*
X997Y869D01*
X310Y868D02*
X398Y868D01*
X910Y868D02*
X997Y868D01*
X310Y867D02*
X398Y867D01*
X910Y867D02*
X997Y867D01*
X310Y866D02*
X398Y866D01*
X910Y866D02*
X997Y866D01*
X310Y865D02*
X398Y865D01*
X910Y865D02*
X997Y865D01*
X310Y864D02*
X398Y864D01*
X910Y864D02*
X997Y864D01*
X310Y863D02*
X398Y863D01*
X910Y863D02*
X997Y863D01*
X310Y862D02*
X398Y862D01*
X910Y862D02*
X997Y862D01*
X310Y861D02*
X398Y861D01*
X910Y861D02*
X997Y861D01*
X310Y829D02*
X397Y829D01*
X910Y829D02*
X997Y829D01*
X310Y828D02*
X398Y828D01*
X910Y828D02*
X997Y828D01*
X310Y827D02*
X398Y827D01*
X910Y827D02*
X997Y827D01*
X310Y826D02*
X398Y826D01*
X910Y826D02*
X997Y826D01*
X310Y825D02*
X398Y825D01*
X910Y825D02*
X997Y825D01*
X310Y824D02*
X398Y824D01*
X910Y824D02*
X997Y824D01*
X310Y823D02*
X398Y823D01*
X910Y823D02*
X997Y823D01*
X310Y822D02*
X398Y822D01*
X910Y822D02*
X997Y822D01*
X310Y821D02*
X398Y821D01*
X910Y821D02*
X997Y821D01*
X310Y820D02*
X398Y820D01*
X910Y820D02*
X997Y820D01*
X310Y819D02*
X398Y819D01*
X910Y819D02*
X997Y819D01*
X310Y818D02*
X398Y818D01*
X910Y818D02*
X997Y818D01*
X310Y817D02*
X374Y817D01*
X382Y817D02*
X398Y817D01*
X910Y817D02*
X926Y817D01*
X934Y817D02*
X997Y817D01*
X310Y816D02*
X371Y816D01*
X384Y816D02*
X398Y816D01*
X910Y816D02*
X923Y816D01*
X936Y816D02*
X997Y816D01*
X310Y815D02*
X370Y815D01*
X386Y815D02*
X398Y815D01*
X910Y815D02*
X922Y815D01*
X938Y815D02*
X997Y815D01*
X310Y814D02*
X369Y814D01*
X387Y814D02*
X398Y814D01*
X910Y814D02*
X921Y814D01*
X939Y814D02*
X997Y814D01*
X310Y813D02*
X368Y813D01*
X388Y813D02*
X398Y813D01*
X910Y813D02*
X920Y813D01*
X940Y813D02*
X997Y813D01*
X310Y812D02*
X367Y812D01*
X388Y812D02*
X398Y812D01*
X910Y812D02*
X919Y812D01*
X940Y812D02*
X997Y812D01*
X310Y811D02*
X366Y811D01*
X389Y811D02*
X398Y811D01*
X910Y811D02*
X919Y811D01*
X941Y811D02*
X997Y811D01*
X310Y810D02*
X366Y810D01*
X389Y810D02*
X398Y810D01*
X910Y810D02*
X918Y810D01*
X941Y810D02*
X997Y810D01*
X310Y809D02*
X366Y809D01*
X390Y809D02*
X398Y809D01*
X910Y809D02*
X918Y809D01*
X942Y809D02*
X997Y809D01*
X310Y808D02*
X365Y808D01*
X390Y808D02*
X398Y808D01*
X910Y808D02*
X917Y808D01*
X942Y808D02*
X997Y808D01*
X310Y807D02*
X365Y807D01*
X390Y807D02*
X398Y807D01*
X910Y807D02*
X917Y807D01*
X942Y807D02*
X997Y807D01*
X310Y806D02*
X365Y806D01*
X390Y806D02*
X398Y806D01*
X910Y806D02*
X917Y806D01*
X942Y806D02*
X997Y806D01*
X310Y805D02*
X365Y805D01*
X390Y805D02*
X398Y805D01*
X910Y805D02*
X917Y805D01*
X942Y805D02*
X997Y805D01*
X310Y804D02*
X365Y804D01*
X390Y804D02*
X398Y804D01*
X910Y804D02*
X917Y804D01*
X942Y804D02*
X997Y804D01*
X310Y803D02*
X365Y803D01*
X390Y803D02*
X398Y803D01*
X910Y803D02*
X917Y803D01*
X942Y803D02*
X997Y803D01*
X310Y802D02*
X366Y802D01*
X390Y802D02*
X398Y802D01*
X910Y802D02*
X918Y802D01*
X942Y802D02*
X997Y802D01*
X310Y801D02*
X366Y801D01*
X390Y801D02*
X398Y801D01*
X910Y801D02*
X918Y801D01*
X942Y801D02*
X997Y801D01*
X310Y800D02*
X366Y800D01*
X389Y800D02*
X398Y800D01*
X910Y800D02*
X918Y800D01*
X941Y800D02*
X997Y800D01*
X310Y799D02*
X367Y799D01*
X388Y799D02*
X398Y799D01*
X910Y799D02*
X919Y799D01*
X941Y799D02*
X997Y799D01*
X310Y798D02*
X368Y798D01*
X388Y798D02*
X398Y798D01*
X910Y798D02*
X920Y798D01*
X940Y798D02*
X997Y798D01*
X310Y797D02*
X369Y797D01*
X387Y797D02*
X398Y797D01*
X910Y797D02*
X921Y797D01*
X939Y797D02*
X997Y797D01*
X310Y796D02*
X370Y796D01*
X386Y796D02*
X398Y796D01*
X910Y796D02*
X922Y796D01*
X938Y796D02*
X997Y796D01*
X310Y795D02*
X371Y795D01*
X384Y795D02*
X398Y795D01*
X910Y795D02*
X923Y795D01*
X936Y795D02*
X997Y795D01*
X310Y794D02*
X373Y794D01*
X382Y794D02*
X398Y794D01*
X910Y794D02*
X925Y794D01*
X934Y794D02*
X997Y794D01*
X310Y793D02*
X398Y793D01*
X910Y793D02*
X997Y793D01*
X310Y792D02*
X398Y792D01*
X910Y792D02*
X997Y792D01*
X310Y791D02*
X398Y791D01*
X910Y791D02*
X997Y791D01*
X310Y790D02*
X398Y790D01*
X910Y790D02*
X997Y790D01*
X310Y789D02*
X398Y789D01*
X910Y789D02*
X997Y789D01*
X310Y788D02*
X398Y788D01*
X910Y788D02*
X997Y788D01*
X310Y787D02*
X398Y787D01*
X910Y787D02*
X997Y787D01*
X310Y786D02*
X398Y786D01*
X910Y786D02*
X997Y786D01*
X310Y785D02*
X398Y785D01*
X910Y785D02*
X997Y785D01*
X310Y784D02*
X398Y784D01*
X910Y784D02*
X997Y784D01*
X310Y783D02*
X398Y783D01*
X910Y783D02*
X997Y783D01*
X310Y782D02*
X397Y782D01*
X910Y782D02*
X997Y782D01*
X310Y750D02*
X397Y750D01*
X910Y750D02*
X997Y750D01*
X310Y749D02*
X398Y749D01*
X910Y749D02*
X997Y749D01*
X310Y748D02*
X398Y748D01*
X910Y748D02*
X997Y748D01*
X310Y747D02*
X398Y747D01*
X910Y747D02*
X997Y747D01*
X310Y746D02*
X398Y746D01*
X910Y746D02*
X997Y746D01*
X310Y745D02*
X398Y745D01*
X910Y745D02*
X997Y745D01*
X310Y744D02*
X398Y744D01*
X910Y744D02*
X997Y744D01*
X310Y743D02*
X398Y743D01*
X910Y743D02*
X997Y743D01*
X310Y742D02*
X398Y742D01*
X910Y742D02*
X997Y742D01*
X310Y741D02*
X398Y741D01*
X910Y741D02*
X997Y741D01*
X310Y740D02*
X398Y740D01*
X910Y740D02*
X997Y740D01*
X310Y739D02*
X398Y739D01*
X910Y739D02*
X997Y739D01*
X310Y738D02*
X373Y738D01*
X383Y738D02*
X398Y738D01*
X910Y738D02*
X925Y738D01*
X935Y738D02*
X997Y738D01*
X310Y737D02*
X371Y737D01*
X385Y737D02*
X398Y737D01*
X910Y737D02*
X923Y737D01*
X937Y737D02*
X997Y737D01*
X310Y736D02*
X369Y736D01*
X386Y736D02*
X398Y736D01*
X910Y736D02*
X921Y736D01*
X938Y736D02*
X997Y736D01*
X310Y735D02*
X368Y735D01*
X387Y735D02*
X398Y735D01*
X910Y735D02*
X920Y735D01*
X939Y735D02*
X997Y735D01*
X310Y734D02*
X368Y734D01*
X388Y734D02*
X398Y734D01*
X910Y734D02*
X920Y734D01*
X940Y734D02*
X997Y734D01*
X310Y733D02*
X367Y733D01*
X389Y733D02*
X398Y733D01*
X910Y733D02*
X919Y733D01*
X941Y733D02*
X997Y733D01*
X310Y732D02*
X366Y732D01*
X389Y732D02*
X398Y732D01*
X910Y732D02*
X918Y732D01*
X941Y732D02*
X997Y732D01*
X310Y731D02*
X366Y731D01*
X390Y731D02*
X398Y731D01*
X910Y731D02*
X918Y731D01*
X942Y731D02*
X997Y731D01*
X310Y730D02*
X366Y730D01*
X390Y730D02*
X398Y730D01*
X910Y730D02*
X918Y730D01*
X942Y730D02*
X997Y730D01*
X310Y729D02*
X365Y729D01*
X390Y729D02*
X398Y729D01*
X910Y729D02*
X917Y729D01*
X942Y729D02*
X997Y729D01*
X310Y728D02*
X365Y728D01*
X390Y728D02*
X398Y728D01*
X910Y728D02*
X917Y728D01*
X942Y728D02*
X997Y728D01*
X310Y727D02*
X365Y727D01*
X390Y727D02*
X398Y727D01*
X910Y727D02*
X917Y727D01*
X942Y727D02*
X997Y727D01*
X310Y726D02*
X365Y726D01*
X390Y726D02*
X398Y726D01*
X910Y726D02*
X917Y726D01*
X942Y726D02*
X997Y726D01*
X310Y725D02*
X365Y725D01*
X390Y725D02*
X398Y725D01*
X910Y725D02*
X917Y725D01*
X942Y725D02*
X997Y725D01*
X310Y724D02*
X365Y724D01*
X390Y724D02*
X398Y724D01*
X910Y724D02*
X917Y724D01*
X942Y724D02*
X997Y724D01*
X310Y723D02*
X366Y723D01*
X390Y723D02*
X398Y723D01*
X910Y723D02*
X918Y723D01*
X942Y723D02*
X997Y723D01*
X310Y722D02*
X366Y722D01*
X389Y722D02*
X398Y722D01*
X910Y722D02*
X918Y722D01*
X941Y722D02*
X997Y722D01*
X310Y721D02*
X367Y721D01*
X389Y721D02*
X398Y721D01*
X910Y721D02*
X919Y721D01*
X941Y721D02*
X997Y721D01*
X310Y720D02*
X367Y720D01*
X388Y720D02*
X398Y720D01*
X910Y720D02*
X919Y720D01*
X940Y720D02*
X997Y720D01*
X310Y719D02*
X368Y719D01*
X388Y719D02*
X398Y719D01*
X910Y719D02*
X920Y719D01*
X940Y719D02*
X997Y719D01*
X310Y718D02*
X369Y718D01*
X387Y718D02*
X398Y718D01*
X910Y718D02*
X921Y718D01*
X939Y718D02*
X997Y718D01*
X310Y717D02*
X370Y717D01*
X385Y717D02*
X398Y717D01*
X910Y717D02*
X922Y717D01*
X937Y717D02*
X997Y717D01*
X310Y716D02*
X372Y716D01*
X384Y716D02*
X398Y716D01*
X910Y716D02*
X924Y716D01*
X936Y716D02*
X997Y716D01*
X310Y715D02*
X374Y715D01*
X381Y715D02*
X398Y715D01*
X910Y715D02*
X926Y715D01*
X933Y715D02*
X997Y715D01*
X310Y714D02*
X398Y714D01*
X910Y714D02*
X997Y714D01*
X310Y713D02*
X398Y713D01*
X910Y713D02*
X997Y713D01*
X310Y712D02*
X398Y712D01*
X910Y712D02*
X997Y712D01*
X310Y711D02*
X398Y711D01*
X910Y711D02*
X997Y711D01*
X310Y710D02*
X398Y710D01*
X910Y710D02*
X997Y710D01*
X310Y709D02*
X398Y709D01*
X910Y709D02*
X997Y709D01*
X310Y708D02*
X398Y708D01*
X910Y708D02*
X997Y708D01*
X310Y707D02*
X398Y707D01*
X910Y707D02*
X997Y707D01*
X310Y706D02*
X398Y706D01*
X910Y706D02*
X997Y706D01*
X310Y705D02*
X398Y705D01*
X910Y705D02*
X997Y705D01*
X310Y704D02*
X398Y704D01*
X910Y704D02*
X997Y704D01*
X310Y671D02*
X398Y671D01*
X910Y671D02*
X997Y671D01*
X310Y670D02*
X398Y670D01*
X910Y670D02*
X997Y670D01*
X310Y669D02*
X398Y669D01*
X910Y669D02*
X997Y669D01*
X310Y668D02*
X398Y668D01*
X910Y668D02*
X997Y668D01*
X310Y667D02*
X398Y667D01*
X910Y667D02*
X997Y667D01*
X310Y666D02*
X398Y666D01*
X910Y666D02*
X997Y666D01*
X310Y665D02*
X398Y665D01*
X910Y665D02*
X997Y665D01*
X310Y664D02*
X398Y664D01*
X910Y664D02*
X997Y664D01*
X310Y663D02*
X398Y663D01*
X910Y663D02*
X997Y663D01*
X310Y662D02*
X398Y662D01*
X910Y662D02*
X997Y662D01*
X310Y661D02*
X398Y661D01*
X910Y661D02*
X997Y661D01*
X310Y660D02*
X376Y660D01*
X380Y660D02*
X398Y660D01*
X910Y660D02*
X928Y660D01*
X932Y660D02*
X997Y660D01*
X310Y659D02*
X372Y659D01*
X383Y659D02*
X398Y659D01*
X910Y659D02*
X924Y659D01*
X935Y659D02*
X997Y659D01*
X310Y658D02*
X370Y658D01*
X385Y658D02*
X398Y658D01*
X910Y658D02*
X922Y658D01*
X937Y658D02*
X997Y658D01*
X310Y657D02*
X369Y657D01*
X386Y657D02*
X398Y657D01*
X910Y657D02*
X921Y657D01*
X938Y657D02*
X997Y657D01*
X310Y656D02*
X368Y656D01*
X387Y656D02*
X398Y656D01*
X910Y656D02*
X920Y656D01*
X939Y656D02*
X997Y656D01*
X310Y655D02*
X367Y655D01*
X388Y655D02*
X398Y655D01*
X910Y655D02*
X919Y655D01*
X940Y655D02*
X997Y655D01*
X310Y654D02*
X367Y654D01*
X389Y654D02*
X398Y654D01*
X910Y654D02*
X919Y654D01*
X941Y654D02*
X997Y654D01*
X310Y653D02*
X366Y653D01*
X389Y653D02*
X398Y653D01*
X910Y653D02*
X918Y653D01*
X941Y653D02*
X997Y653D01*
X310Y652D02*
X366Y652D01*
X390Y652D02*
X398Y652D01*
X910Y652D02*
X918Y652D01*
X942Y652D02*
X997Y652D01*
X310Y651D02*
X366Y651D01*
X390Y651D02*
X398Y651D01*
X910Y651D02*
X918Y651D01*
X942Y651D02*
X997Y651D01*
X310Y650D02*
X365Y650D01*
X390Y650D02*
X398Y650D01*
X910Y650D02*
X917Y650D01*
X942Y650D02*
X997Y650D01*
X310Y649D02*
X365Y649D01*
X390Y649D02*
X398Y649D01*
X910Y649D02*
X917Y649D01*
X942Y649D02*
X997Y649D01*
X310Y648D02*
X365Y648D01*
X390Y648D02*
X398Y648D01*
X910Y648D02*
X917Y648D01*
X942Y648D02*
X997Y648D01*
X310Y647D02*
X365Y647D01*
X390Y647D02*
X398Y647D01*
X910Y647D02*
X917Y647D01*
X942Y647D02*
X997Y647D01*
X310Y646D02*
X365Y646D01*
X390Y646D02*
X398Y646D01*
X910Y646D02*
X917Y646D01*
X942Y646D02*
X997Y646D01*
X310Y645D02*
X365Y645D01*
X390Y645D02*
X398Y645D01*
X910Y645D02*
X918Y645D01*
X942Y645D02*
X997Y645D01*
X310Y644D02*
X366Y644D01*
X390Y644D02*
X398Y644D01*
X910Y644D02*
X918Y644D01*
X942Y644D02*
X997Y644D01*
X310Y643D02*
X366Y643D01*
X389Y643D02*
X398Y643D01*
X910Y643D02*
X918Y643D01*
X941Y643D02*
X997Y643D01*
X310Y642D02*
X367Y642D01*
X389Y642D02*
X398Y642D01*
X910Y642D02*
X919Y642D01*
X941Y642D02*
X997Y642D01*
X310Y641D02*
X367Y641D01*
X388Y641D02*
X398Y641D01*
X910Y641D02*
X919Y641D01*
X940Y641D02*
X997Y641D01*
X310Y640D02*
X368Y640D01*
X387Y640D02*
X398Y640D01*
X910Y640D02*
X920Y640D01*
X939Y640D02*
X997Y640D01*
X310Y639D02*
X369Y639D01*
X386Y639D02*
X398Y639D01*
X910Y639D02*
X921Y639D01*
X938Y639D02*
X997Y639D01*
X310Y638D02*
X370Y638D01*
X385Y638D02*
X398Y638D01*
X910Y638D02*
X922Y638D01*
X937Y638D02*
X997Y638D01*
X310Y637D02*
X372Y637D01*
X383Y637D02*
X398Y637D01*
X910Y637D02*
X924Y637D01*
X935Y637D02*
X997Y637D01*
X310Y636D02*
X376Y636D01*
X380Y636D02*
X398Y636D01*
X910Y636D02*
X928Y636D01*
X932Y636D02*
X997Y636D01*
X310Y635D02*
X398Y635D01*
X910Y635D02*
X997Y635D01*
X310Y634D02*
X398Y634D01*
X910Y634D02*
X997Y634D01*
X310Y633D02*
X398Y633D01*
X910Y633D02*
X997Y633D01*
X310Y632D02*
X398Y632D01*
X910Y632D02*
X997Y632D01*
X310Y631D02*
X398Y631D01*
X910Y631D02*
X997Y631D01*
X310Y630D02*
X398Y630D01*
X910Y630D02*
X997Y630D01*
X310Y629D02*
X398Y629D01*
X910Y629D02*
X997Y629D01*
X310Y628D02*
X398Y628D01*
X910Y628D02*
X997Y628D01*
X310Y627D02*
X398Y627D01*
X910Y627D02*
X997Y627D01*
X310Y626D02*
X398Y626D01*
X910Y626D02*
X997Y626D01*
X310Y625D02*
X398Y625D01*
X910Y625D02*
X997Y625D01*
X310Y592D02*
X398Y592D01*
X910Y592D02*
X997Y592D01*
X310Y591D02*
X398Y591D01*
X910Y591D02*
X997Y591D01*
X310Y590D02*
X398Y590D01*
X910Y590D02*
X997Y590D01*
X310Y589D02*
X398Y589D01*
X910Y589D02*
X997Y589D01*
X310Y588D02*
X398Y588D01*
X910Y588D02*
X997Y588D01*
X310Y587D02*
X398Y587D01*
X910Y587D02*
X997Y587D01*
X310Y586D02*
X398Y586D01*
X910Y586D02*
X997Y586D01*
X310Y585D02*
X398Y585D01*
X910Y585D02*
X997Y585D01*
X310Y584D02*
X398Y584D01*
X910Y584D02*
X997Y584D01*
X310Y583D02*
X398Y583D01*
X910Y583D02*
X997Y583D01*
X310Y582D02*
X398Y582D01*
X910Y582D02*
X997Y582D01*
X310Y581D02*
X374Y581D01*
X381Y581D02*
X398Y581D01*
X910Y581D02*
X926Y581D01*
X933Y581D02*
X997Y581D01*
X310Y580D02*
X372Y580D01*
X384Y580D02*
X398Y580D01*
X910Y580D02*
X924Y580D01*
X936Y580D02*
X997Y580D01*
X310Y579D02*
X370Y579D01*
X385Y579D02*
X398Y579D01*
X910Y579D02*
X922Y579D01*
X937Y579D02*
X997Y579D01*
X310Y578D02*
X369Y578D01*
X387Y578D02*
X398Y578D01*
X910Y578D02*
X921Y578D01*
X939Y578D02*
X997Y578D01*
X310Y577D02*
X368Y577D01*
X388Y577D02*
X398Y577D01*
X910Y577D02*
X920Y577D01*
X940Y577D02*
X997Y577D01*
X310Y576D02*
X367Y576D01*
X388Y576D02*
X398Y576D01*
X910Y576D02*
X919Y576D01*
X940Y576D02*
X997Y576D01*
X310Y575D02*
X367Y575D01*
X389Y575D02*
X398Y575D01*
X910Y575D02*
X919Y575D01*
X941Y575D02*
X997Y575D01*
X310Y574D02*
X366Y574D01*
X389Y574D02*
X398Y574D01*
X910Y574D02*
X918Y574D01*
X941Y574D02*
X997Y574D01*
X310Y573D02*
X366Y573D01*
X390Y573D02*
X398Y573D01*
X910Y573D02*
X918Y573D01*
X942Y573D02*
X997Y573D01*
X310Y572D02*
X365Y572D01*
X390Y572D02*
X398Y572D01*
X910Y572D02*
X917Y572D01*
X942Y572D02*
X997Y572D01*
X310Y571D02*
X365Y571D01*
X390Y571D02*
X398Y571D01*
X910Y571D02*
X917Y571D01*
X942Y571D02*
X997Y571D01*
X310Y570D02*
X365Y570D01*
X390Y570D02*
X398Y570D01*
X910Y570D02*
X917Y570D01*
X942Y570D02*
X997Y570D01*
X310Y569D02*
X365Y569D01*
X390Y569D02*
X398Y569D01*
X910Y569D02*
X917Y569D01*
X942Y569D02*
X997Y569D01*
X310Y568D02*
X365Y568D01*
X390Y568D02*
X398Y568D01*
X910Y568D02*
X917Y568D01*
X942Y568D02*
X997Y568D01*
X310Y567D02*
X365Y567D01*
X390Y567D02*
X398Y567D01*
X910Y567D02*
X917Y567D01*
X942Y567D02*
X997Y567D01*
X310Y566D02*
X366Y566D01*
X390Y566D02*
X398Y566D01*
X910Y566D02*
X918Y566D01*
X942Y566D02*
X997Y566D01*
X310Y565D02*
X366Y565D01*
X390Y565D02*
X398Y565D01*
X910Y565D02*
X918Y565D01*
X942Y565D02*
X997Y565D01*
X310Y564D02*
X366Y564D01*
X389Y564D02*
X398Y564D01*
X910Y564D02*
X918Y564D01*
X941Y564D02*
X997Y564D01*
X310Y563D02*
X367Y563D01*
X389Y563D02*
X398Y563D01*
X910Y563D02*
X919Y563D01*
X941Y563D02*
X997Y563D01*
X310Y562D02*
X368Y562D01*
X388Y562D02*
X398Y562D01*
X910Y562D02*
X920Y562D01*
X940Y562D02*
X997Y562D01*
X310Y561D02*
X368Y561D01*
X387Y561D02*
X398Y561D01*
X910Y561D02*
X920Y561D01*
X939Y561D02*
X997Y561D01*
X310Y560D02*
X369Y560D01*
X386Y560D02*
X398Y560D01*
X910Y560D02*
X921Y560D01*
X938Y560D02*
X997Y560D01*
X310Y559D02*
X371Y559D01*
X385Y559D02*
X398Y559D01*
X910Y559D02*
X923Y559D01*
X937Y559D02*
X997Y559D01*
X310Y558D02*
X373Y558D01*
X383Y558D02*
X398Y558D01*
X910Y558D02*
X925Y558D01*
X935Y558D02*
X997Y558D01*
X310Y557D02*
X398Y557D01*
X910Y557D02*
X997Y557D01*
X310Y556D02*
X398Y556D01*
X910Y556D02*
X997Y556D01*
X310Y555D02*
X398Y555D01*
X910Y555D02*
X997Y555D01*
X310Y554D02*
X398Y554D01*
X910Y554D02*
X997Y554D01*
X310Y553D02*
X398Y553D01*
X910Y553D02*
X997Y553D01*
X310Y552D02*
X398Y552D01*
X910Y552D02*
X997Y552D01*
X310Y551D02*
X398Y551D01*
X910Y551D02*
X997Y551D01*
X310Y550D02*
X398Y550D01*
X910Y550D02*
X997Y550D01*
X310Y549D02*
X398Y549D01*
X910Y549D02*
X997Y549D01*
X310Y548D02*
X398Y548D01*
X910Y548D02*
X997Y548D01*
X310Y547D02*
X398Y547D01*
X910Y547D02*
X997Y547D01*
X310Y546D02*
X397Y546D01*
X910Y546D02*
X997Y546D01*
X310Y514D02*
X397Y514D01*
X910Y514D02*
X997Y514D01*
X310Y513D02*
X398Y513D01*
X910Y513D02*
X997Y513D01*
X310Y512D02*
X398Y512D01*
X910Y512D02*
X997Y512D01*
X310Y511D02*
X398Y511D01*
X910Y511D02*
X997Y511D01*
X310Y510D02*
X398Y510D01*
X910Y510D02*
X997Y510D01*
X310Y509D02*
X398Y509D01*
X910Y509D02*
X997Y509D01*
X310Y508D02*
X398Y508D01*
X910Y508D02*
X997Y508D01*
X310Y507D02*
X398Y507D01*
X910Y507D02*
X997Y507D01*
X310Y506D02*
X398Y506D01*
X910Y506D02*
X997Y506D01*
X310Y505D02*
X398Y505D01*
X910Y505D02*
X997Y505D01*
X310Y504D02*
X398Y504D01*
X910Y504D02*
X997Y504D01*
X310Y503D02*
X398Y503D01*
X910Y503D02*
X997Y503D01*
X310Y502D02*
X373Y502D01*
X382Y502D02*
X398Y502D01*
X910Y502D02*
X925Y502D01*
X934Y502D02*
X997Y502D01*
X310Y501D02*
X371Y501D01*
X384Y501D02*
X398Y501D01*
X910Y501D02*
X923Y501D01*
X936Y501D02*
X997Y501D01*
X310Y500D02*
X370Y500D01*
X386Y500D02*
X398Y500D01*
X910Y500D02*
X922Y500D01*
X938Y500D02*
X997Y500D01*
X310Y499D02*
X369Y499D01*
X387Y499D02*
X398Y499D01*
X910Y499D02*
X921Y499D01*
X939Y499D02*
X997Y499D01*
X310Y498D02*
X368Y498D01*
X388Y498D02*
X398Y498D01*
X910Y498D02*
X920Y498D01*
X940Y498D02*
X997Y498D01*
X310Y497D02*
X367Y497D01*
X388Y497D02*
X398Y497D01*
X910Y497D02*
X919Y497D01*
X940Y497D02*
X997Y497D01*
X310Y496D02*
X366Y496D01*
X389Y496D02*
X398Y496D01*
X910Y496D02*
X918Y496D01*
X941Y496D02*
X997Y496D01*
X310Y495D02*
X366Y495D01*
X389Y495D02*
X398Y495D01*
X910Y495D02*
X918Y495D01*
X942Y495D02*
X997Y495D01*
X310Y494D02*
X366Y494D01*
X390Y494D02*
X398Y494D01*
X910Y494D02*
X918Y494D01*
X942Y494D02*
X997Y494D01*
X310Y493D02*
X365Y493D01*
X390Y493D02*
X398Y493D01*
X910Y493D02*
X917Y493D01*
X942Y493D02*
X997Y493D01*
X310Y492D02*
X365Y492D01*
X390Y492D02*
X398Y492D01*
X910Y492D02*
X917Y492D01*
X942Y492D02*
X997Y492D01*
X310Y491D02*
X365Y491D01*
X390Y491D02*
X398Y491D01*
X910Y491D02*
X917Y491D01*
X942Y491D02*
X997Y491D01*
X310Y490D02*
X365Y490D01*
X390Y490D02*
X398Y490D01*
X910Y490D02*
X917Y490D01*
X942Y490D02*
X997Y490D01*
X310Y489D02*
X365Y489D01*
X390Y489D02*
X398Y489D01*
X910Y489D02*
X917Y489D01*
X942Y489D02*
X997Y489D01*
X310Y488D02*
X365Y488D01*
X390Y488D02*
X398Y488D01*
X910Y488D02*
X917Y488D01*
X942Y488D02*
X997Y488D01*
X310Y487D02*
X366Y487D01*
X390Y487D02*
X398Y487D01*
X910Y487D02*
X918Y487D01*
X942Y487D02*
X997Y487D01*
X310Y486D02*
X366Y486D01*
X389Y486D02*
X398Y486D01*
X910Y486D02*
X918Y486D01*
X941Y486D02*
X997Y486D01*
X310Y485D02*
X366Y485D01*
X389Y485D02*
X398Y485D01*
X910Y485D02*
X918Y485D01*
X941Y485D02*
X997Y485D01*
X310Y484D02*
X367Y484D01*
X388Y484D02*
X398Y484D01*
X910Y484D02*
X919Y484D01*
X940Y484D02*
X997Y484D01*
X310Y483D02*
X368Y483D01*
X388Y483D02*
X398Y483D01*
X910Y483D02*
X920Y483D01*
X940Y483D02*
X997Y483D01*
X310Y482D02*
X369Y482D01*
X387Y482D02*
X398Y482D01*
X910Y482D02*
X921Y482D01*
X939Y482D02*
X997Y482D01*
X310Y481D02*
X370Y481D01*
X386Y481D02*
X398Y481D01*
X910Y481D02*
X922Y481D01*
X938Y481D02*
X997Y481D01*
X310Y480D02*
X371Y480D01*
X384Y480D02*
X398Y480D01*
X910Y480D02*
X923Y480D01*
X936Y480D02*
X997Y480D01*
X310Y479D02*
X374Y479D01*
X382Y479D02*
X398Y479D01*
X910Y479D02*
X926Y479D01*
X934Y479D02*
X997Y479D01*
X310Y478D02*
X398Y478D01*
X910Y478D02*
X997Y478D01*
X310Y477D02*
X398Y477D01*
X910Y477D02*
X997Y477D01*
X310Y476D02*
X398Y476D01*
X910Y476D02*
X997Y476D01*
X310Y475D02*
X398Y475D01*
X910Y475D02*
X997Y475D01*
X310Y474D02*
X398Y474D01*
X910Y474D02*
X997Y474D01*
X310Y473D02*
X398Y473D01*
X910Y473D02*
X997Y473D01*
X310Y472D02*
X398Y472D01*
X910Y472D02*
X997Y472D01*
X310Y471D02*
X398Y471D01*
X910Y471D02*
X997Y471D01*
X310Y470D02*
X398Y470D01*
X910Y470D02*
X997Y470D01*
X310Y469D02*
X398Y469D01*
X910Y469D02*
X997Y469D01*
X310Y468D02*
X398Y468D01*
X910Y468D02*
X997Y468D01*
X310Y467D02*
X397Y467D01*
X910Y467D02*
X997Y467D01*
X310Y435D02*
X398Y435D01*
X910Y435D02*
X997Y435D01*
X310Y434D02*
X398Y434D01*
X910Y434D02*
X997Y434D01*
X310Y433D02*
X398Y433D01*
X910Y433D02*
X997Y433D01*
X310Y432D02*
X398Y432D01*
X910Y432D02*
X997Y432D01*
X310Y431D02*
X398Y431D01*
X910Y431D02*
X997Y431D01*
X310Y430D02*
X398Y430D01*
X910Y430D02*
X997Y430D01*
X310Y429D02*
X398Y429D01*
X910Y429D02*
X997Y429D01*
X310Y428D02*
X398Y428D01*
X910Y428D02*
X997Y428D01*
X310Y427D02*
X398Y427D01*
X910Y427D02*
X997Y427D01*
X310Y426D02*
X398Y426D01*
X910Y426D02*
X997Y426D01*
X310Y425D02*
X398Y425D01*
X910Y425D02*
X997Y425D01*
X310Y424D02*
X398Y424D01*
X910Y424D02*
X997Y424D01*
X310Y423D02*
X372Y423D01*
X383Y423D02*
X398Y423D01*
X910Y423D02*
X925Y423D01*
X935Y423D02*
X997Y423D01*
X310Y422D02*
X371Y422D01*
X385Y422D02*
X398Y422D01*
X910Y422D02*
X923Y422D01*
X937Y422D02*
X997Y422D01*
X310Y421D02*
X369Y421D01*
X386Y421D02*
X398Y421D01*
X910Y421D02*
X921Y421D01*
X938Y421D02*
X997Y421D01*
X310Y420D02*
X368Y420D01*
X387Y420D02*
X398Y420D01*
X910Y420D02*
X920Y420D01*
X939Y420D02*
X997Y420D01*
X310Y419D02*
X367Y419D01*
X388Y419D02*
X398Y419D01*
X910Y419D02*
X919Y419D01*
X940Y419D02*
X997Y419D01*
X310Y418D02*
X367Y418D01*
X389Y418D02*
X398Y418D01*
X910Y418D02*
X919Y418D01*
X941Y418D02*
X997Y418D01*
X310Y417D02*
X366Y417D01*
X389Y417D02*
X398Y417D01*
X910Y417D02*
X918Y417D01*
X941Y417D02*
X997Y417D01*
X310Y416D02*
X366Y416D01*
X390Y416D02*
X398Y416D01*
X910Y416D02*
X918Y416D01*
X942Y416D02*
X997Y416D01*
X310Y415D02*
X366Y415D01*
X390Y415D02*
X398Y415D01*
X910Y415D02*
X918Y415D01*
X942Y415D02*
X997Y415D01*
X310Y414D02*
X365Y414D01*
X390Y414D02*
X398Y414D01*
X910Y414D02*
X917Y414D01*
X942Y414D02*
X997Y414D01*
X310Y413D02*
X365Y413D01*
X390Y413D02*
X398Y413D01*
X910Y413D02*
X917Y413D01*
X942Y413D02*
X997Y413D01*
X310Y412D02*
X365Y412D01*
X390Y412D02*
X398Y412D01*
X910Y412D02*
X917Y412D01*
X942Y412D02*
X997Y412D01*
X310Y411D02*
X365Y411D01*
X390Y411D02*
X398Y411D01*
X910Y411D02*
X917Y411D01*
X942Y411D02*
X997Y411D01*
X310Y410D02*
X365Y410D01*
X390Y410D02*
X398Y410D01*
X910Y410D02*
X917Y410D01*
X942Y410D02*
X997Y410D01*
X310Y409D02*
X365Y409D01*
X390Y409D02*
X398Y409D01*
X910Y409D02*
X917Y409D01*
X942Y409D02*
X997Y409D01*
X310Y408D02*
X366Y408D01*
X390Y408D02*
X398Y408D01*
X910Y408D02*
X918Y408D01*
X942Y408D02*
X997Y408D01*
X310Y407D02*
X366Y407D01*
X389Y407D02*
X398Y407D01*
X910Y407D02*
X918Y407D01*
X941Y407D02*
X997Y407D01*
X310Y406D02*
X367Y406D01*
X389Y406D02*
X398Y406D01*
X910Y406D02*
X919Y406D01*
X941Y406D02*
X997Y406D01*
X310Y405D02*
X367Y405D01*
X388Y405D02*
X398Y405D01*
X910Y405D02*
X919Y405D01*
X940Y405D02*
X997Y405D01*
X310Y404D02*
X368Y404D01*
X387Y404D02*
X398Y404D01*
X910Y404D02*
X920Y404D01*
X939Y404D02*
X997Y404D01*
X310Y403D02*
X369Y403D01*
X387Y403D02*
X398Y403D01*
X910Y403D02*
X921Y403D01*
X939Y403D02*
X997Y403D01*
X310Y402D02*
X370Y402D01*
X385Y402D02*
X398Y402D01*
X910Y402D02*
X922Y402D01*
X937Y402D02*
X997Y402D01*
X310Y401D02*
X372Y401D01*
X384Y401D02*
X398Y401D01*
X910Y401D02*
X924Y401D01*
X936Y401D02*
X997Y401D01*
X310Y400D02*
X375Y400D01*
X381Y400D02*
X398Y400D01*
X910Y400D02*
X927Y400D01*
X933Y400D02*
X997Y400D01*
X310Y399D02*
X398Y399D01*
X910Y399D02*
X997Y399D01*
X310Y398D02*
X398Y398D01*
X910Y398D02*
X997Y398D01*
X310Y397D02*
X398Y397D01*
X910Y397D02*
X997Y397D01*
X310Y396D02*
X398Y396D01*
X910Y396D02*
X997Y396D01*
X310Y395D02*
X398Y395D01*
X910Y395D02*
X997Y395D01*
X310Y394D02*
X398Y394D01*
X910Y394D02*
X997Y394D01*
X310Y393D02*
X398Y393D01*
X910Y393D02*
X997Y393D01*
X310Y392D02*
X398Y392D01*
X910Y392D02*
X997Y392D01*
X310Y391D02*
X398Y391D01*
X910Y391D02*
X997Y391D01*
X310Y390D02*
X398Y390D01*
X910Y390D02*
X997Y390D01*
X310Y389D02*
X398Y389D01*
X910Y389D02*
X997Y389D01*
X310Y356D02*
X398Y356D01*
X910Y356D02*
X997Y356D01*
X310Y355D02*
X398Y355D01*
X910Y355D02*
X997Y355D01*
X310Y354D02*
X398Y354D01*
X910Y354D02*
X997Y354D01*
X310Y353D02*
X398Y353D01*
X910Y353D02*
X997Y353D01*
X310Y352D02*
X398Y352D01*
X910Y352D02*
X997Y352D01*
X310Y351D02*
X398Y351D01*
X910Y351D02*
X997Y351D01*
X310Y350D02*
X398Y350D01*
X910Y350D02*
X997Y350D01*
X310Y349D02*
X398Y349D01*
X910Y349D02*
X997Y349D01*
X310Y348D02*
X398Y348D01*
X910Y348D02*
X997Y348D01*
X310Y347D02*
X398Y347D01*
X910Y347D02*
X997Y347D01*
X310Y346D02*
X398Y346D01*
X910Y346D02*
X997Y346D01*
X310Y345D02*
X375Y345D01*
X381Y345D02*
X398Y345D01*
X910Y345D02*
X927Y345D01*
X933Y345D02*
X997Y345D01*
X310Y344D02*
X372Y344D01*
X384Y344D02*
X398Y344D01*
X910Y344D02*
X924Y344D01*
X936Y344D02*
X997Y344D01*
X310Y343D02*
X370Y343D01*
X385Y343D02*
X398Y343D01*
X910Y343D02*
X922Y343D01*
X937Y343D02*
X997Y343D01*
X310Y342D02*
X369Y342D01*
X386Y342D02*
X398Y342D01*
X910Y342D02*
X921Y342D01*
X938Y342D02*
X997Y342D01*
X310Y341D02*
X368Y341D01*
X387Y341D02*
X398Y341D01*
X910Y341D02*
X920Y341D01*
X939Y341D02*
X997Y341D01*
X310Y340D02*
X367Y340D01*
X388Y340D02*
X398Y340D01*
X910Y340D02*
X919Y340D01*
X940Y340D02*
X997Y340D01*
X310Y339D02*
X367Y339D01*
X389Y339D02*
X398Y339D01*
X910Y339D02*
X919Y339D01*
X941Y339D02*
X997Y339D01*
X310Y338D02*
X366Y338D01*
X389Y338D02*
X398Y338D01*
X910Y338D02*
X918Y338D01*
X941Y338D02*
X997Y338D01*
X310Y337D02*
X366Y337D01*
X390Y337D02*
X398Y337D01*
X910Y337D02*
X918Y337D01*
X942Y337D02*
X997Y337D01*
X310Y336D02*
X365Y336D01*
X390Y336D02*
X398Y336D01*
X910Y336D02*
X917Y336D01*
X942Y336D02*
X997Y336D01*
X310Y335D02*
X365Y335D01*
X390Y335D02*
X398Y335D01*
X910Y335D02*
X917Y335D01*
X942Y335D02*
X997Y335D01*
X310Y334D02*
X365Y334D01*
X390Y334D02*
X398Y334D01*
X910Y334D02*
X917Y334D01*
X942Y334D02*
X997Y334D01*
X310Y333D02*
X365Y333D01*
X390Y333D02*
X398Y333D01*
X910Y333D02*
X917Y333D01*
X942Y333D02*
X997Y333D01*
X310Y332D02*
X365Y332D01*
X390Y332D02*
X398Y332D01*
X910Y332D02*
X917Y332D01*
X942Y332D02*
X997Y332D01*
X310Y331D02*
X365Y331D01*
X390Y331D02*
X398Y331D01*
X910Y331D02*
X917Y331D01*
X942Y331D02*
X997Y331D01*
X310Y330D02*
X366Y330D01*
X390Y330D02*
X398Y330D01*
X910Y330D02*
X918Y330D01*
X942Y330D02*
X997Y330D01*
X310Y329D02*
X366Y329D01*
X390Y329D02*
X398Y329D01*
X910Y329D02*
X918Y329D01*
X942Y329D02*
X997Y329D01*
X310Y328D02*
X366Y328D01*
X389Y328D02*
X398Y328D01*
X910Y328D02*
X918Y328D01*
X941Y328D02*
X997Y328D01*
X310Y327D02*
X367Y327D01*
X389Y327D02*
X398Y327D01*
X910Y327D02*
X919Y327D01*
X941Y327D02*
X997Y327D01*
X310Y326D02*
X367Y326D01*
X388Y326D02*
X398Y326D01*
X910Y326D02*
X919Y326D01*
X940Y326D02*
X997Y326D01*
X310Y325D02*
X368Y325D01*
X387Y325D02*
X398Y325D01*
X910Y325D02*
X920Y325D01*
X939Y325D02*
X997Y325D01*
X310Y324D02*
X369Y324D01*
X386Y324D02*
X398Y324D01*
X910Y324D02*
X921Y324D01*
X938Y324D02*
X997Y324D01*
X310Y323D02*
X371Y323D01*
X385Y323D02*
X398Y323D01*
X910Y323D02*
X923Y323D01*
X937Y323D02*
X997Y323D01*
X310Y322D02*
X372Y322D01*
X383Y322D02*
X398Y322D01*
X910Y322D02*
X924Y322D01*
X935Y322D02*
X997Y322D01*
X310Y321D02*
X377Y321D01*
X379Y321D02*
X398Y321D01*
X910Y321D02*
X929Y321D01*
X931Y321D02*
X997Y321D01*
X310Y320D02*
X398Y320D01*
X910Y320D02*
X997Y320D01*
X310Y319D02*
X398Y319D01*
X910Y319D02*
X997Y319D01*
X310Y318D02*
X398Y318D01*
X910Y318D02*
X997Y318D01*
X310Y317D02*
X398Y317D01*
X910Y317D02*
X997Y317D01*
X310Y316D02*
X398Y316D01*
X910Y316D02*
X997Y316D01*
X310Y315D02*
X398Y315D01*
X910Y315D02*
X997Y315D01*
X310Y314D02*
X398Y314D01*
X910Y314D02*
X997Y314D01*
X310Y313D02*
X398Y313D01*
X910Y313D02*
X997Y313D01*
X310Y312D02*
X398Y312D01*
X910Y312D02*
X997Y312D01*
X310Y311D02*
X398Y311D01*
X910Y311D02*
X997Y311D01*
X310Y310D02*
X398Y310D01*
X910Y310D02*
X997Y310D01*
D02*
G04 End of Copper0*
M02*