; NON-PLATED HOLES START AT T1
; THROUGH (PLATED) HOLES START AT T100
M48
INCH
T1C0.086614
T100C0.041111
T101C0.015748
T102C0.038000
T103C0.040000
T104C0.100000
%
T1
X000749Y000797
X014914Y000783
T100
X005841Y015010
X007278Y015010
X005841Y012451
X007278Y012451
T101
X004592Y005678
X004614Y007259
X001226Y010007
X002235Y008230
X009539Y009540
X000834Y009592
X001781Y006814
X002943Y010409
X011413Y007247
X004608Y006488
X001135Y006198
X011245Y006462
X004605Y008059
T102
X012110Y008811
X010112Y014805
X015112Y008809
X013106Y007809
X014106Y012809
X012110Y015811
X015112Y015809
X013106Y014809
X011106Y015808
X014106Y018809
X009112Y014805
X012110Y010811
X014106Y006809
X015112Y010809
X012110Y009811
X010112Y015805
X011106Y010808
X015112Y009809
X013106Y008809
X014106Y013809
X012110Y016811
X015112Y016809
X014110Y001833
X013106Y015809
X011106Y016808
X010112Y010805
X009112Y015805
X012110Y011811
X014106Y007809
X015112Y011809
X013106Y010809
X010112Y016805
X011106Y011808
X013106Y009809
X014106Y014809
X009112Y010805
X012110Y017811
X015112Y017809
X014110Y002833
X013106Y016809
X011106Y017808
X010112Y011805
X009112Y016805
X012110Y012811
X014106Y008809
X015112Y012809
X013106Y011809
X011106Y012808
X014106Y015809
X009112Y011805
X012110Y018811
X015112Y018809
X014110Y003833
X013106Y017809
X011106Y018808
X012110Y006811
X010112Y012805
X015112Y006809
X014106Y010809
X012110Y013811
X014106Y009809
X015112Y013809
X013106Y012809
X011106Y013808
X014106Y016809
X009112Y012805
X014110Y004833
X013106Y018809
X012110Y007811
X010112Y013805
X015112Y007809
X013106Y006809
X014106Y011809
X012110Y014811
X015112Y014809
X013106Y013809
X011106Y014808
X014106Y017809
X009112Y013805
T103
X001123Y005307
X001123Y003307
X009671Y018348
X006827Y018339
X008293Y018348
X001123Y004307
X005449Y018339
T104
X002585Y015001
X001385Y016901
X003785Y016901
T00
M30
