G04 MADE WITH FRITZING*
G04 WWW.FRITZING.ORG*
G04 DOUBLE SIDED*
G04 HOLES PLATED*
G04 CONTOUR ON CENTER OF CONTOUR VECTOR*
%ASAXBY*%
%FSLAX23Y23*%
%MOIN*%
%OFA0B0*%
%SFA1.0B1.0*%
%ADD10C,0.088000*%
%ADD11C,0.049370*%
%ADD12C,0.085000*%
%ADD13C,0.096614*%
%ADD14C,0.084000*%
%ADD15C,0.150000*%
%ADD16C,0.090000*%
%ADD17R,0.072992X0.084803*%
%ADD18R,0.088740X0.057244*%
%ADD19R,0.058000X0.098000*%
%ADD20R,0.151732X0.096614*%
%ADD21R,0.090000X0.090000*%
%ADD22R,0.001000X0.001000*%
%LNMASK1*%
G90*
G70*
G54D10*
X1387Y86D03*
X1287Y86D03*
X1187Y86D03*
X1087Y86D03*
G54D11*
X422Y724D03*
X422Y644D03*
X422Y563D03*
G54D12*
X814Y1404D03*
X559Y1404D03*
X814Y1581D03*
X559Y1581D03*
X815Y1076D03*
X560Y1076D03*
X815Y1253D03*
X560Y1253D03*
G54D11*
X791Y882D03*
X425Y882D03*
G54D13*
X1548Y1763D03*
X1547Y82D03*
X86Y84D03*
X555Y1764D03*
G54D14*
X168Y574D03*
X168Y474D03*
X168Y374D03*
X168Y574D03*
X168Y474D03*
X168Y374D03*
G54D15*
X401Y1661D03*
X161Y1661D03*
X281Y1471D03*
G54D16*
X993Y1753D03*
X1131Y1753D03*
X709Y1752D03*
X847Y1752D03*
G54D10*
X1399Y1766D03*
X1299Y1766D03*
X1399Y1766D03*
X1299Y1766D03*
G54D17*
X706Y755D03*
X584Y755D03*
X706Y637D03*
X584Y637D03*
X707Y504D03*
X585Y504D03*
X585Y883D03*
X707Y883D03*
G54D18*
X200Y1224D03*
X310Y1224D03*
G54D19*
X312Y1086D03*
X221Y1086D03*
X130Y1086D03*
G54D20*
X221Y842D03*
G54D21*
X993Y1753D03*
X709Y1752D03*
G54D22*
X1272Y1591D02*
X1612Y1591D01*
X1272Y1590D02*
X1612Y1590D01*
X1272Y1589D02*
X1612Y1589D01*
X1272Y1588D02*
X1612Y1588D01*
X1272Y1587D02*
X1612Y1587D01*
X1272Y1586D02*
X1612Y1586D01*
X1272Y1585D02*
X1612Y1585D01*
X1272Y1584D02*
X1612Y1584D01*
X1272Y1583D02*
X1612Y1583D01*
X1272Y1582D02*
X1612Y1582D01*
X1272Y1581D02*
X1612Y1581D01*
X1272Y1580D02*
X1612Y1580D01*
X1272Y1579D02*
X1612Y1579D01*
X1272Y1578D02*
X1612Y1578D01*
X1272Y1577D02*
X1612Y1577D01*
X1272Y1576D02*
X1612Y1576D01*
X1272Y1575D02*
X1612Y1575D01*
X1272Y1574D02*
X1612Y1574D01*
X1272Y1573D02*
X1612Y1573D01*
X1272Y1572D02*
X1612Y1572D01*
X1272Y1571D02*
X1612Y1571D01*
X1272Y1570D02*
X1612Y1570D01*
X1272Y1569D02*
X1612Y1569D01*
X1272Y1568D02*
X1612Y1568D01*
X1272Y1567D02*
X1612Y1567D01*
X1272Y1566D02*
X1612Y1566D01*
X1272Y1565D02*
X1612Y1565D01*
X1272Y1564D02*
X1612Y1564D01*
X1272Y1563D02*
X1612Y1563D01*
X1272Y1562D02*
X1612Y1562D01*
X1272Y1561D02*
X1612Y1561D01*
X1272Y1560D02*
X1612Y1560D01*
X1272Y1559D02*
X1612Y1559D01*
X1272Y1558D02*
X1612Y1558D01*
X1272Y1557D02*
X1612Y1557D01*
X1272Y1556D02*
X1612Y1556D01*
X1272Y1555D02*
X1612Y1555D01*
X1272Y1554D02*
X1612Y1554D01*
X1272Y1553D02*
X1612Y1553D01*
X1272Y1552D02*
X1612Y1552D01*
X1272Y1551D02*
X1612Y1551D01*
X1272Y1550D02*
X1612Y1550D01*
X1272Y1549D02*
X1612Y1549D01*
X1272Y1548D02*
X1612Y1548D01*
X1272Y1547D02*
X1612Y1547D01*
X1272Y1546D02*
X1612Y1546D01*
X1272Y1545D02*
X1612Y1545D01*
X1272Y1544D02*
X1612Y1544D01*
X1272Y1543D02*
X1612Y1543D01*
X1272Y1542D02*
X1612Y1542D01*
X1272Y1541D02*
X1612Y1541D01*
X1272Y1540D02*
X1612Y1540D01*
X1272Y1539D02*
X1612Y1539D01*
X1272Y1538D02*
X1612Y1538D01*
X1272Y1537D02*
X1612Y1537D01*
X1272Y1536D02*
X1612Y1536D01*
X1272Y1535D02*
X1612Y1535D01*
X1272Y1534D02*
X1612Y1534D01*
X1272Y1533D02*
X1612Y1533D01*
X1272Y1532D02*
X1612Y1532D01*
X1272Y1531D02*
X1612Y1531D01*
X1272Y1530D02*
X1612Y1530D01*
X1272Y1529D02*
X1612Y1529D01*
X1272Y1528D02*
X1612Y1528D01*
X1272Y1527D02*
X1612Y1527D01*
X1272Y1526D02*
X1612Y1526D01*
X1272Y1525D02*
X1612Y1525D01*
X1272Y1524D02*
X1612Y1524D01*
X1272Y1523D02*
X1612Y1523D01*
X1272Y1522D02*
X1612Y1522D01*
X1272Y1521D02*
X1612Y1521D01*
X1272Y1520D02*
X1612Y1520D01*
X1272Y1519D02*
X1612Y1519D01*
X1272Y1518D02*
X1612Y1518D01*
X1272Y1517D02*
X1612Y1517D01*
X1272Y1516D02*
X1612Y1516D01*
X1272Y1515D02*
X1612Y1515D01*
X1272Y1514D02*
X1612Y1514D01*
X1272Y1513D02*
X1612Y1513D01*
X1272Y1512D02*
X1612Y1512D01*
X1272Y1511D02*
X1612Y1511D01*
X1272Y1510D02*
X1612Y1510D01*
X1272Y1509D02*
X1612Y1509D01*
X1272Y1508D02*
X1612Y1508D01*
X1272Y1507D02*
X1612Y1507D01*
X1272Y1506D02*
X1612Y1506D01*
X1272Y1505D02*
X1612Y1505D01*
X1272Y1504D02*
X1612Y1504D01*
X1272Y1503D02*
X1612Y1503D01*
X1272Y1502D02*
X1612Y1502D01*
X1272Y1501D02*
X1612Y1501D01*
X1272Y1500D02*
X1612Y1500D01*
X934Y1499D02*
X1060Y1499D01*
X1272Y1499D02*
X1612Y1499D01*
X934Y1498D02*
X1061Y1498D01*
X1272Y1498D02*
X1612Y1498D01*
X934Y1497D02*
X1061Y1497D01*
X1272Y1497D02*
X1612Y1497D01*
X934Y1496D02*
X1061Y1496D01*
X1272Y1496D02*
X1612Y1496D01*
X934Y1495D02*
X1061Y1495D01*
X1272Y1495D02*
X1612Y1495D01*
X934Y1494D02*
X1061Y1494D01*
X1272Y1494D02*
X1612Y1494D01*
X934Y1493D02*
X1061Y1493D01*
X1272Y1493D02*
X1612Y1493D01*
X934Y1492D02*
X1061Y1492D01*
X1272Y1492D02*
X1612Y1492D01*
X934Y1491D02*
X1061Y1491D01*
X1272Y1491D02*
X1612Y1491D01*
X934Y1490D02*
X1061Y1490D01*
X1272Y1490D02*
X1612Y1490D01*
X934Y1489D02*
X1061Y1489D01*
X1272Y1489D02*
X1612Y1489D01*
X934Y1488D02*
X1061Y1488D01*
X1272Y1488D02*
X1612Y1488D01*
X934Y1487D02*
X1061Y1487D01*
X1272Y1487D02*
X1612Y1487D01*
X934Y1486D02*
X1061Y1486D01*
X1272Y1486D02*
X1612Y1486D01*
X934Y1485D02*
X1061Y1485D01*
X1272Y1485D02*
X1612Y1485D01*
X934Y1484D02*
X1061Y1484D01*
X1272Y1484D02*
X1612Y1484D01*
X934Y1483D02*
X1061Y1483D01*
X1272Y1483D02*
X1612Y1483D01*
X934Y1482D02*
X1061Y1482D01*
X1272Y1482D02*
X1612Y1482D01*
X934Y1481D02*
X1061Y1481D01*
X1272Y1481D02*
X1612Y1481D01*
X934Y1480D02*
X1061Y1480D01*
X1272Y1480D02*
X1612Y1480D01*
X934Y1479D02*
X1061Y1479D01*
X1272Y1479D02*
X1612Y1479D01*
X934Y1478D02*
X1061Y1478D01*
X1272Y1478D02*
X1612Y1478D01*
X934Y1477D02*
X1061Y1477D01*
X1272Y1477D02*
X1612Y1477D01*
X934Y1476D02*
X1061Y1476D01*
X1272Y1476D02*
X1612Y1476D01*
X934Y1475D02*
X1061Y1475D01*
X1272Y1475D02*
X1612Y1475D01*
X934Y1474D02*
X1061Y1474D01*
X1272Y1474D02*
X1612Y1474D01*
X934Y1473D02*
X1061Y1473D01*
X1272Y1473D02*
X1612Y1473D01*
X934Y1472D02*
X1061Y1472D01*
X1272Y1472D02*
X1612Y1472D01*
X934Y1471D02*
X1061Y1471D01*
X1272Y1471D02*
X1612Y1471D01*
X934Y1470D02*
X1061Y1470D01*
X1272Y1470D02*
X1612Y1470D01*
X934Y1469D02*
X1061Y1469D01*
X1272Y1469D02*
X1612Y1469D01*
X934Y1468D02*
X1061Y1468D01*
X1272Y1468D02*
X1612Y1468D01*
X934Y1467D02*
X1061Y1467D01*
X1272Y1467D02*
X1612Y1467D01*
X934Y1466D02*
X1061Y1466D01*
X1272Y1466D02*
X1612Y1466D01*
X934Y1465D02*
X1061Y1465D01*
X1272Y1465D02*
X1612Y1465D01*
X934Y1464D02*
X1061Y1464D01*
X1272Y1464D02*
X1612Y1464D01*
X934Y1463D02*
X1061Y1463D01*
X1272Y1463D02*
X1612Y1463D01*
X934Y1462D02*
X1061Y1462D01*
X1272Y1462D02*
X1612Y1462D01*
X934Y1461D02*
X1061Y1461D01*
X1272Y1461D02*
X1612Y1461D01*
X934Y1460D02*
X1061Y1460D01*
X1272Y1460D02*
X1612Y1460D01*
X934Y1459D02*
X1061Y1459D01*
X1272Y1459D02*
X1612Y1459D01*
X934Y1458D02*
X1061Y1458D01*
X1272Y1458D02*
X1612Y1458D01*
X934Y1457D02*
X1061Y1457D01*
X1272Y1457D02*
X1612Y1457D01*
X934Y1456D02*
X1061Y1456D01*
X1272Y1456D02*
X1612Y1456D01*
X934Y1455D02*
X1061Y1455D01*
X1272Y1455D02*
X1612Y1455D01*
X934Y1454D02*
X1061Y1454D01*
X1272Y1454D02*
X1612Y1454D01*
X934Y1453D02*
X1061Y1453D01*
X1272Y1453D02*
X1612Y1453D01*
X934Y1452D02*
X1061Y1452D01*
X1272Y1452D02*
X1612Y1452D01*
X934Y1451D02*
X1061Y1451D01*
X1272Y1451D02*
X1612Y1451D01*
X934Y1450D02*
X1060Y1450D01*
X1272Y1450D02*
X1612Y1450D01*
X1272Y1449D02*
X1612Y1449D01*
X1272Y1448D02*
X1612Y1448D01*
X1272Y1447D02*
X1612Y1447D01*
X1272Y1446D02*
X1612Y1446D01*
X1272Y1445D02*
X1612Y1445D01*
X1272Y1444D02*
X1612Y1444D01*
X1272Y1443D02*
X1612Y1443D01*
X1272Y1442D02*
X1612Y1442D01*
X1272Y1441D02*
X1612Y1441D01*
X1272Y1440D02*
X1612Y1440D01*
X1272Y1439D02*
X1612Y1439D01*
X1272Y1438D02*
X1612Y1438D01*
X1272Y1437D02*
X1612Y1437D01*
X1272Y1436D02*
X1612Y1436D01*
X1272Y1435D02*
X1612Y1435D01*
X1272Y1434D02*
X1612Y1434D01*
X1272Y1433D02*
X1612Y1433D01*
X1272Y1432D02*
X1612Y1432D01*
X1272Y1431D02*
X1612Y1431D01*
X1272Y1430D02*
X1612Y1430D01*
X1272Y1429D02*
X1612Y1429D01*
X1272Y1428D02*
X1612Y1428D01*
X1272Y1427D02*
X1612Y1427D01*
X1272Y1426D02*
X1612Y1426D01*
X1272Y1425D02*
X1612Y1425D01*
X1272Y1424D02*
X1612Y1424D01*
X1272Y1423D02*
X1612Y1423D01*
X1272Y1422D02*
X1612Y1422D01*
X1272Y1421D02*
X1612Y1421D01*
X1272Y1420D02*
X1612Y1420D01*
X1272Y1419D02*
X1612Y1419D01*
X1272Y1418D02*
X1612Y1418D01*
X1272Y1417D02*
X1612Y1417D01*
X1272Y1416D02*
X1612Y1416D01*
X1272Y1415D02*
X1612Y1415D01*
X1272Y1414D02*
X1612Y1414D01*
X1272Y1413D02*
X1612Y1413D01*
X1272Y1412D02*
X1612Y1412D01*
X1272Y1411D02*
X1612Y1411D01*
X1272Y1410D02*
X1612Y1410D01*
X1272Y1409D02*
X1612Y1409D01*
X1272Y1408D02*
X1612Y1408D01*
X1272Y1407D02*
X1612Y1407D01*
X1272Y1406D02*
X1612Y1406D01*
X1272Y1405D02*
X1612Y1405D01*
X1272Y1404D02*
X1612Y1404D01*
X1272Y1403D02*
X1612Y1403D01*
X1272Y1402D02*
X1612Y1402D01*
X1272Y1401D02*
X1612Y1401D01*
X1272Y1400D02*
X1612Y1400D01*
X1272Y1399D02*
X1612Y1399D01*
X1272Y1398D02*
X1612Y1398D01*
X1272Y1397D02*
X1612Y1397D01*
X1272Y1396D02*
X1612Y1396D01*
X1272Y1395D02*
X1612Y1395D01*
X1272Y1394D02*
X1612Y1394D01*
X1272Y1393D02*
X1612Y1393D01*
X1272Y1392D02*
X1612Y1392D01*
X1272Y1391D02*
X1612Y1391D01*
X1272Y1390D02*
X1612Y1390D01*
X1272Y1389D02*
X1612Y1389D01*
X1272Y1388D02*
X1612Y1388D01*
X1272Y1387D02*
X1612Y1387D01*
X1272Y1386D02*
X1612Y1386D01*
X1272Y1385D02*
X1612Y1385D01*
X1272Y1384D02*
X1612Y1384D01*
X1272Y1383D02*
X1612Y1383D01*
X1272Y1382D02*
X1612Y1382D01*
X1272Y1381D02*
X1612Y1381D01*
X1272Y1380D02*
X1612Y1380D01*
X1272Y1379D02*
X1612Y1379D01*
X1272Y1378D02*
X1612Y1378D01*
X1272Y1377D02*
X1612Y1377D01*
X1272Y1376D02*
X1612Y1376D01*
X1272Y1375D02*
X1612Y1375D01*
X1272Y1374D02*
X1612Y1374D01*
X1272Y1373D02*
X1612Y1373D01*
X1272Y1372D02*
X1612Y1372D01*
X1272Y1371D02*
X1612Y1371D01*
X1272Y1370D02*
X1612Y1370D01*
X1272Y1369D02*
X1612Y1369D01*
X1272Y1368D02*
X1612Y1368D01*
X1272Y1367D02*
X1612Y1367D01*
X1272Y1366D02*
X1612Y1366D01*
X1272Y1365D02*
X1612Y1365D01*
X1272Y1364D02*
X1612Y1364D01*
X1272Y1363D02*
X1612Y1363D01*
X1272Y1362D02*
X1612Y1362D01*
X1272Y1361D02*
X1612Y1361D01*
X1272Y1360D02*
X1612Y1360D01*
X1272Y1359D02*
X1612Y1359D01*
X1272Y1358D02*
X1612Y1358D01*
X1272Y1357D02*
X1612Y1357D01*
X1272Y1356D02*
X1612Y1356D01*
X1272Y1355D02*
X1612Y1355D01*
X1272Y1354D02*
X1612Y1354D01*
X1272Y1353D02*
X1612Y1353D01*
X1272Y1352D02*
X1612Y1352D01*
X1272Y1351D02*
X1612Y1351D01*
X1272Y1350D02*
X1612Y1350D01*
X1272Y1349D02*
X1612Y1349D01*
X1272Y1348D02*
X1612Y1348D01*
X1272Y1347D02*
X1612Y1347D01*
X1272Y1346D02*
X1612Y1346D01*
X1272Y1345D02*
X1612Y1345D01*
X1272Y1344D02*
X1612Y1344D01*
X1272Y1343D02*
X1612Y1343D01*
X1272Y1342D02*
X1612Y1342D01*
X1272Y1341D02*
X1612Y1341D01*
X1272Y1340D02*
X1612Y1340D01*
X1272Y1339D02*
X1612Y1339D01*
X1272Y1338D02*
X1612Y1338D01*
X1272Y1337D02*
X1612Y1337D01*
X1272Y1336D02*
X1612Y1336D01*
X1272Y1335D02*
X1612Y1335D01*
X1272Y1334D02*
X1612Y1334D01*
X1272Y1333D02*
X1612Y1333D01*
X1272Y1332D02*
X1612Y1332D01*
X1272Y1331D02*
X1612Y1331D01*
X1272Y1330D02*
X1612Y1330D01*
X1272Y1329D02*
X1612Y1329D01*
X1272Y1328D02*
X1612Y1328D01*
X1272Y1327D02*
X1612Y1327D01*
X1272Y1326D02*
X1612Y1326D01*
X1272Y1325D02*
X1612Y1325D01*
X1272Y1324D02*
X1612Y1324D01*
X1272Y1323D02*
X1612Y1323D01*
X1272Y1322D02*
X1612Y1322D01*
X1272Y1321D02*
X1612Y1321D01*
X1272Y1320D02*
X1612Y1320D01*
X1272Y1319D02*
X1612Y1319D01*
X1272Y1318D02*
X1612Y1318D01*
X1272Y1317D02*
X1612Y1317D01*
X1272Y1316D02*
X1612Y1316D01*
X1272Y1315D02*
X1612Y1315D01*
X1272Y1314D02*
X1612Y1314D01*
X1272Y1313D02*
X1612Y1313D01*
X1272Y1312D02*
X1612Y1312D01*
X1272Y1311D02*
X1612Y1311D01*
X1272Y1310D02*
X1612Y1310D01*
X1272Y1309D02*
X1612Y1309D01*
X1272Y1308D02*
X1612Y1308D01*
X1272Y1307D02*
X1612Y1307D01*
X1272Y1306D02*
X1612Y1306D01*
X1272Y1305D02*
X1612Y1305D01*
X1272Y1304D02*
X1612Y1304D01*
X1272Y1303D02*
X1612Y1303D01*
X934Y1302D02*
X1061Y1302D01*
X1272Y1302D02*
X1612Y1302D01*
X934Y1301D02*
X1061Y1301D01*
X1272Y1301D02*
X1612Y1301D01*
X934Y1300D02*
X1061Y1300D01*
X1272Y1300D02*
X1612Y1300D01*
X934Y1299D02*
X1061Y1299D01*
X1272Y1299D02*
X1612Y1299D01*
X934Y1298D02*
X1061Y1298D01*
X1272Y1298D02*
X1612Y1298D01*
X934Y1297D02*
X1061Y1297D01*
X1272Y1297D02*
X1612Y1297D01*
X934Y1296D02*
X1061Y1296D01*
X1272Y1296D02*
X1612Y1296D01*
X934Y1295D02*
X1061Y1295D01*
X1272Y1295D02*
X1612Y1295D01*
X934Y1294D02*
X1061Y1294D01*
X1272Y1294D02*
X1612Y1294D01*
X934Y1293D02*
X1061Y1293D01*
X1272Y1293D02*
X1612Y1293D01*
X934Y1292D02*
X1061Y1292D01*
X1272Y1292D02*
X1612Y1292D01*
X934Y1291D02*
X1061Y1291D01*
X1272Y1291D02*
X1612Y1291D01*
X934Y1290D02*
X1061Y1290D01*
X1272Y1290D02*
X1612Y1290D01*
X934Y1289D02*
X1061Y1289D01*
X1272Y1289D02*
X1612Y1289D01*
X934Y1288D02*
X1061Y1288D01*
X1272Y1288D02*
X1612Y1288D01*
X934Y1287D02*
X1061Y1287D01*
X1272Y1287D02*
X1612Y1287D01*
X934Y1286D02*
X1061Y1286D01*
X1272Y1286D02*
X1612Y1286D01*
X934Y1285D02*
X1061Y1285D01*
X1272Y1285D02*
X1612Y1285D01*
X934Y1284D02*
X1061Y1284D01*
X1272Y1284D02*
X1612Y1284D01*
X934Y1283D02*
X1061Y1283D01*
X1272Y1283D02*
X1612Y1283D01*
X934Y1282D02*
X1061Y1282D01*
X1272Y1282D02*
X1612Y1282D01*
X934Y1281D02*
X1061Y1281D01*
X1272Y1281D02*
X1612Y1281D01*
X934Y1280D02*
X1061Y1280D01*
X1272Y1280D02*
X1612Y1280D01*
X934Y1279D02*
X1061Y1279D01*
X1272Y1279D02*
X1612Y1279D01*
X934Y1278D02*
X1061Y1278D01*
X1272Y1278D02*
X1612Y1278D01*
X934Y1277D02*
X1061Y1277D01*
X1272Y1277D02*
X1612Y1277D01*
X934Y1276D02*
X1061Y1276D01*
X1272Y1276D02*
X1612Y1276D01*
X934Y1275D02*
X1061Y1275D01*
X1272Y1275D02*
X1612Y1275D01*
X934Y1274D02*
X1061Y1274D01*
X1272Y1274D02*
X1612Y1274D01*
X934Y1273D02*
X1061Y1273D01*
X1272Y1273D02*
X1612Y1273D01*
X934Y1272D02*
X1061Y1272D01*
X1272Y1272D02*
X1612Y1272D01*
X934Y1271D02*
X1061Y1271D01*
X1272Y1271D02*
X1612Y1271D01*
X934Y1270D02*
X1061Y1270D01*
X1272Y1270D02*
X1612Y1270D01*
X934Y1269D02*
X1061Y1269D01*
X1272Y1269D02*
X1612Y1269D01*
X934Y1268D02*
X1061Y1268D01*
X1272Y1268D02*
X1612Y1268D01*
X934Y1267D02*
X1061Y1267D01*
X1272Y1267D02*
X1612Y1267D01*
X934Y1266D02*
X1061Y1266D01*
X1272Y1266D02*
X1612Y1266D01*
X934Y1265D02*
X1061Y1265D01*
X1272Y1265D02*
X1612Y1265D01*
X934Y1264D02*
X1061Y1264D01*
X1272Y1264D02*
X1612Y1264D01*
X934Y1263D02*
X1061Y1263D01*
X1272Y1263D02*
X1612Y1263D01*
X934Y1262D02*
X1061Y1262D01*
X1272Y1262D02*
X1612Y1262D01*
X934Y1261D02*
X1061Y1261D01*
X1272Y1261D02*
X1612Y1261D01*
X934Y1260D02*
X1061Y1260D01*
X1272Y1260D02*
X1612Y1260D01*
X934Y1259D02*
X1061Y1259D01*
X1272Y1259D02*
X1612Y1259D01*
X934Y1258D02*
X1061Y1258D01*
X1272Y1258D02*
X1612Y1258D01*
X934Y1257D02*
X1061Y1257D01*
X1272Y1257D02*
X1612Y1257D01*
X934Y1256D02*
X1061Y1256D01*
X1272Y1256D02*
X1612Y1256D01*
X934Y1255D02*
X1061Y1255D01*
X1272Y1255D02*
X1612Y1255D01*
X934Y1254D02*
X1061Y1254D01*
X1272Y1254D02*
X1612Y1254D01*
X1272Y1253D02*
X1612Y1253D01*
X1272Y1252D02*
X1612Y1252D01*
X1272Y1251D02*
X1612Y1251D01*
X1272Y1250D02*
X1612Y1250D01*
X1272Y1249D02*
X1612Y1249D01*
X1272Y1248D02*
X1612Y1248D01*
X1272Y1247D02*
X1612Y1247D01*
X1272Y1246D02*
X1612Y1246D01*
X1272Y1245D02*
X1612Y1245D01*
X1272Y1244D02*
X1612Y1244D01*
X1272Y1243D02*
X1612Y1243D01*
X1272Y1242D02*
X1612Y1242D01*
X1272Y1241D02*
X1612Y1241D01*
X1272Y1240D02*
X1612Y1240D01*
X1272Y1239D02*
X1612Y1239D01*
X1272Y1238D02*
X1612Y1238D01*
X1272Y1237D02*
X1612Y1237D01*
X1272Y1236D02*
X1612Y1236D01*
X1272Y1235D02*
X1612Y1235D01*
X1272Y1234D02*
X1612Y1234D01*
X1272Y1233D02*
X1612Y1233D01*
X1272Y1232D02*
X1612Y1232D01*
X1272Y1231D02*
X1612Y1231D01*
X1272Y1230D02*
X1612Y1230D01*
X1272Y1229D02*
X1612Y1229D01*
X1272Y1228D02*
X1612Y1228D01*
X1272Y1227D02*
X1612Y1227D01*
X1272Y1226D02*
X1612Y1226D01*
X1272Y1225D02*
X1612Y1225D01*
X1272Y1224D02*
X1612Y1224D01*
X1272Y1223D02*
X1612Y1223D01*
X1272Y1222D02*
X1612Y1222D01*
X1272Y1221D02*
X1612Y1221D01*
X1272Y1220D02*
X1612Y1220D01*
X1272Y1219D02*
X1612Y1219D01*
X1272Y1218D02*
X1612Y1218D01*
X1272Y1217D02*
X1612Y1217D01*
X1272Y1216D02*
X1612Y1216D01*
X1272Y1215D02*
X1612Y1215D01*
X1272Y1214D02*
X1612Y1214D01*
X1272Y1213D02*
X1612Y1213D01*
X1272Y1212D02*
X1612Y1212D01*
X1272Y1211D02*
X1612Y1211D01*
X1272Y1210D02*
X1612Y1210D01*
X1272Y1209D02*
X1612Y1209D01*
X1272Y1208D02*
X1612Y1208D01*
X1272Y1207D02*
X1612Y1207D01*
X1272Y1206D02*
X1612Y1206D01*
X1272Y1205D02*
X1612Y1205D01*
X1272Y1204D02*
X1612Y1204D01*
X1272Y1203D02*
X1612Y1203D01*
X1272Y1202D02*
X1612Y1202D01*
X1272Y1201D02*
X1612Y1201D01*
X1272Y1200D02*
X1612Y1200D01*
X1272Y1199D02*
X1612Y1199D01*
X1272Y1198D02*
X1612Y1198D01*
X1272Y1197D02*
X1612Y1197D01*
X1272Y1196D02*
X1612Y1196D01*
X1272Y1195D02*
X1612Y1195D01*
X1272Y1194D02*
X1612Y1194D01*
X1272Y1193D02*
X1612Y1193D01*
X1272Y1192D02*
X1612Y1192D01*
X1272Y1191D02*
X1612Y1191D01*
X1272Y1190D02*
X1612Y1190D01*
X1272Y1189D02*
X1612Y1189D01*
X1272Y1188D02*
X1612Y1188D01*
X1272Y1187D02*
X1612Y1187D01*
X1272Y1186D02*
X1612Y1186D01*
X1272Y1185D02*
X1612Y1185D01*
X1272Y1184D02*
X1612Y1184D01*
X1272Y1183D02*
X1612Y1183D01*
X1272Y1182D02*
X1612Y1182D01*
X1272Y1181D02*
X1612Y1181D01*
X1272Y1180D02*
X1612Y1180D01*
X1272Y1179D02*
X1612Y1179D01*
X1272Y1178D02*
X1612Y1178D01*
X1272Y1177D02*
X1612Y1177D01*
X1272Y1176D02*
X1612Y1176D01*
X1272Y1175D02*
X1612Y1175D01*
X1272Y1174D02*
X1612Y1174D01*
X1272Y1173D02*
X1612Y1173D01*
X1272Y1172D02*
X1612Y1172D01*
X1272Y1171D02*
X1612Y1171D01*
X1272Y1170D02*
X1612Y1170D01*
X1272Y1169D02*
X1612Y1169D01*
X1272Y1168D02*
X1612Y1168D01*
X1272Y1167D02*
X1612Y1167D01*
X1272Y1166D02*
X1612Y1166D01*
X1272Y1165D02*
X1612Y1165D01*
X1272Y1164D02*
X1612Y1164D01*
X1272Y1163D02*
X1612Y1163D01*
X1272Y1162D02*
X1612Y1162D01*
X1272Y1161D02*
X1612Y1161D01*
X1272Y1109D02*
X1612Y1109D01*
X1272Y1108D02*
X1612Y1108D01*
X1272Y1107D02*
X1612Y1107D01*
X1272Y1106D02*
X1612Y1106D01*
X1272Y1105D02*
X1612Y1105D01*
X1272Y1104D02*
X1612Y1104D01*
X1272Y1103D02*
X1612Y1103D01*
X1272Y1102D02*
X1612Y1102D01*
X1272Y1101D02*
X1612Y1101D01*
X1272Y1100D02*
X1612Y1100D01*
X1272Y1099D02*
X1612Y1099D01*
X1272Y1098D02*
X1612Y1098D01*
X1272Y1097D02*
X1612Y1097D01*
X1272Y1096D02*
X1612Y1096D01*
X1272Y1095D02*
X1612Y1095D01*
X1272Y1094D02*
X1612Y1094D01*
X1272Y1093D02*
X1612Y1093D01*
X1272Y1092D02*
X1612Y1092D01*
X1272Y1091D02*
X1612Y1091D01*
X1272Y1090D02*
X1612Y1090D01*
X1272Y1089D02*
X1612Y1089D01*
X1272Y1088D02*
X1612Y1088D01*
X1272Y1087D02*
X1612Y1087D01*
X1272Y1086D02*
X1612Y1086D01*
X1272Y1085D02*
X1612Y1085D01*
X1272Y1084D02*
X1612Y1084D01*
X1272Y1083D02*
X1612Y1083D01*
X1272Y1082D02*
X1612Y1082D01*
X1272Y1081D02*
X1612Y1081D01*
X1272Y1080D02*
X1612Y1080D01*
X1272Y1079D02*
X1612Y1079D01*
X1272Y1078D02*
X1612Y1078D01*
X1272Y1077D02*
X1612Y1077D01*
X1272Y1076D02*
X1612Y1076D01*
X1272Y1075D02*
X1612Y1075D01*
X1272Y1074D02*
X1612Y1074D01*
X1272Y1073D02*
X1612Y1073D01*
X1272Y1072D02*
X1612Y1072D01*
X1272Y1071D02*
X1612Y1071D01*
X1272Y1070D02*
X1612Y1070D01*
X1272Y1069D02*
X1612Y1069D01*
X1272Y1068D02*
X1612Y1068D01*
X1272Y1067D02*
X1612Y1067D01*
X1272Y1066D02*
X1612Y1066D01*
X1272Y1065D02*
X1612Y1065D01*
X1272Y1064D02*
X1612Y1064D01*
X1272Y1063D02*
X1612Y1063D01*
X1272Y1062D02*
X1612Y1062D01*
X1272Y1061D02*
X1612Y1061D01*
X1272Y1060D02*
X1612Y1060D01*
X1272Y1059D02*
X1612Y1059D01*
X1272Y1058D02*
X1612Y1058D01*
X1272Y1057D02*
X1612Y1057D01*
X1272Y1056D02*
X1612Y1056D01*
X1272Y1055D02*
X1612Y1055D01*
X1272Y1054D02*
X1612Y1054D01*
X1272Y1053D02*
X1612Y1053D01*
X1272Y1052D02*
X1612Y1052D01*
X1272Y1051D02*
X1612Y1051D01*
X1272Y1050D02*
X1612Y1050D01*
X1272Y1049D02*
X1612Y1049D01*
X1272Y1048D02*
X1612Y1048D01*
X1272Y1047D02*
X1612Y1047D01*
X1272Y1046D02*
X1612Y1046D01*
X1272Y1045D02*
X1612Y1045D01*
X1272Y1044D02*
X1612Y1044D01*
X1272Y1043D02*
X1612Y1043D01*
X1272Y1042D02*
X1612Y1042D01*
X1272Y1041D02*
X1612Y1041D01*
X1272Y1040D02*
X1612Y1040D01*
X1272Y1039D02*
X1612Y1039D01*
X1272Y1038D02*
X1612Y1038D01*
X1272Y1037D02*
X1612Y1037D01*
X1272Y1036D02*
X1612Y1036D01*
X1272Y1035D02*
X1612Y1035D01*
X1272Y1034D02*
X1612Y1034D01*
X1272Y1033D02*
X1612Y1033D01*
X1272Y1032D02*
X1612Y1032D01*
X1272Y1031D02*
X1612Y1031D01*
X1272Y1030D02*
X1612Y1030D01*
X1272Y1029D02*
X1612Y1029D01*
X1272Y1028D02*
X1612Y1028D01*
X1272Y1027D02*
X1612Y1027D01*
X1272Y1026D02*
X1612Y1026D01*
X1272Y1025D02*
X1612Y1025D01*
X1272Y1024D02*
X1612Y1024D01*
X1272Y1023D02*
X1612Y1023D01*
X1272Y1022D02*
X1612Y1022D01*
X1272Y1021D02*
X1612Y1021D01*
X1272Y1020D02*
X1612Y1020D01*
X1272Y1019D02*
X1612Y1019D01*
X1272Y1018D02*
X1612Y1018D01*
X1272Y1017D02*
X1612Y1017D01*
X934Y1016D02*
X1061Y1016D01*
X1272Y1016D02*
X1612Y1016D01*
X934Y1015D02*
X1061Y1015D01*
X1272Y1015D02*
X1612Y1015D01*
X934Y1014D02*
X1061Y1014D01*
X1272Y1014D02*
X1612Y1014D01*
X934Y1013D02*
X1061Y1013D01*
X1272Y1013D02*
X1612Y1013D01*
X934Y1012D02*
X1061Y1012D01*
X1272Y1012D02*
X1612Y1012D01*
X934Y1011D02*
X1061Y1011D01*
X1272Y1011D02*
X1612Y1011D01*
X934Y1010D02*
X1061Y1010D01*
X1272Y1010D02*
X1612Y1010D01*
X934Y1009D02*
X1061Y1009D01*
X1272Y1009D02*
X1612Y1009D01*
X934Y1008D02*
X1061Y1008D01*
X1272Y1008D02*
X1612Y1008D01*
X934Y1007D02*
X1061Y1007D01*
X1272Y1007D02*
X1612Y1007D01*
X934Y1006D02*
X1061Y1006D01*
X1272Y1006D02*
X1612Y1006D01*
X934Y1005D02*
X1061Y1005D01*
X1272Y1005D02*
X1612Y1005D01*
X934Y1004D02*
X1061Y1004D01*
X1272Y1004D02*
X1612Y1004D01*
X934Y1003D02*
X1061Y1003D01*
X1272Y1003D02*
X1612Y1003D01*
X934Y1002D02*
X1061Y1002D01*
X1272Y1002D02*
X1612Y1002D01*
X934Y1001D02*
X1061Y1001D01*
X1272Y1001D02*
X1612Y1001D01*
X934Y1000D02*
X1061Y1000D01*
X1272Y1000D02*
X1612Y1000D01*
X934Y999D02*
X1061Y999D01*
X1272Y999D02*
X1612Y999D01*
X934Y998D02*
X1061Y998D01*
X1272Y998D02*
X1612Y998D01*
X934Y997D02*
X1061Y997D01*
X1272Y997D02*
X1612Y997D01*
X934Y996D02*
X1061Y996D01*
X1272Y996D02*
X1612Y996D01*
X934Y995D02*
X1061Y995D01*
X1272Y995D02*
X1612Y995D01*
X934Y994D02*
X1061Y994D01*
X1272Y994D02*
X1612Y994D01*
X934Y993D02*
X1061Y993D01*
X1272Y993D02*
X1612Y993D01*
X934Y992D02*
X1061Y992D01*
X1272Y992D02*
X1612Y992D01*
X934Y991D02*
X1061Y991D01*
X1272Y991D02*
X1612Y991D01*
X934Y990D02*
X1061Y990D01*
X1272Y990D02*
X1612Y990D01*
X934Y989D02*
X1061Y989D01*
X1272Y989D02*
X1612Y989D01*
X934Y988D02*
X1061Y988D01*
X1272Y988D02*
X1612Y988D01*
X934Y987D02*
X1061Y987D01*
X1272Y987D02*
X1612Y987D01*
X934Y986D02*
X1061Y986D01*
X1272Y986D02*
X1612Y986D01*
X934Y985D02*
X1061Y985D01*
X1272Y985D02*
X1612Y985D01*
X934Y984D02*
X1061Y984D01*
X1272Y984D02*
X1612Y984D01*
X934Y983D02*
X1061Y983D01*
X1272Y983D02*
X1612Y983D01*
X934Y982D02*
X1061Y982D01*
X1272Y982D02*
X1612Y982D01*
X934Y981D02*
X1061Y981D01*
X1272Y981D02*
X1612Y981D01*
X934Y980D02*
X1061Y980D01*
X1272Y980D02*
X1612Y980D01*
X934Y979D02*
X1061Y979D01*
X1272Y979D02*
X1612Y979D01*
X934Y978D02*
X1061Y978D01*
X1272Y978D02*
X1612Y978D01*
X934Y977D02*
X1061Y977D01*
X1272Y977D02*
X1612Y977D01*
X934Y976D02*
X1061Y976D01*
X1272Y976D02*
X1612Y976D01*
X934Y975D02*
X1061Y975D01*
X1272Y975D02*
X1612Y975D01*
X934Y974D02*
X1061Y974D01*
X1272Y974D02*
X1612Y974D01*
X934Y973D02*
X1061Y973D01*
X1272Y973D02*
X1612Y973D01*
X934Y972D02*
X1061Y972D01*
X1272Y972D02*
X1612Y972D01*
X934Y971D02*
X1061Y971D01*
X1272Y971D02*
X1612Y971D01*
X934Y970D02*
X1061Y970D01*
X1272Y970D02*
X1612Y970D01*
X934Y969D02*
X1061Y969D01*
X1272Y969D02*
X1612Y969D01*
X934Y968D02*
X1061Y968D01*
X1272Y968D02*
X1612Y968D01*
X1272Y967D02*
X1612Y967D01*
X1272Y966D02*
X1612Y966D01*
X1272Y965D02*
X1612Y965D01*
X1272Y964D02*
X1612Y964D01*
X1272Y963D02*
X1612Y963D01*
X1272Y962D02*
X1612Y962D01*
X1272Y961D02*
X1612Y961D01*
X1272Y960D02*
X1612Y960D01*
X1272Y959D02*
X1612Y959D01*
X1272Y958D02*
X1612Y958D01*
X1272Y957D02*
X1612Y957D01*
X1272Y956D02*
X1612Y956D01*
X1272Y955D02*
X1612Y955D01*
X1272Y954D02*
X1612Y954D01*
X1272Y953D02*
X1612Y953D01*
X1272Y952D02*
X1612Y952D01*
X1272Y951D02*
X1612Y951D01*
X1272Y950D02*
X1612Y950D01*
X1272Y949D02*
X1612Y949D01*
X1272Y948D02*
X1612Y948D01*
X1272Y947D02*
X1612Y947D01*
X1272Y946D02*
X1612Y946D01*
X1272Y945D02*
X1612Y945D01*
X1272Y944D02*
X1612Y944D01*
X1272Y943D02*
X1612Y943D01*
X1272Y942D02*
X1612Y942D01*
X1272Y941D02*
X1612Y941D01*
X1272Y940D02*
X1612Y940D01*
X1272Y939D02*
X1612Y939D01*
X1272Y938D02*
X1612Y938D01*
X1272Y937D02*
X1612Y937D01*
X1272Y936D02*
X1612Y936D01*
X1272Y935D02*
X1612Y935D01*
X1272Y934D02*
X1612Y934D01*
X1272Y933D02*
X1612Y933D01*
X1272Y932D02*
X1612Y932D01*
X1272Y931D02*
X1612Y931D01*
X1272Y930D02*
X1612Y930D01*
X1272Y929D02*
X1612Y929D01*
X1272Y928D02*
X1612Y928D01*
X1272Y927D02*
X1612Y927D01*
X1272Y926D02*
X1612Y926D01*
X1272Y925D02*
X1612Y925D01*
X1272Y924D02*
X1612Y924D01*
X1272Y923D02*
X1612Y923D01*
X1272Y922D02*
X1612Y922D01*
X1272Y921D02*
X1612Y921D01*
X1272Y920D02*
X1612Y920D01*
X1272Y919D02*
X1612Y919D01*
X1272Y918D02*
X1612Y918D01*
X1272Y917D02*
X1612Y917D01*
X1272Y916D02*
X1612Y916D01*
X1272Y915D02*
X1612Y915D01*
X1272Y914D02*
X1612Y914D01*
X1272Y913D02*
X1612Y913D01*
X1272Y912D02*
X1612Y912D01*
X1272Y911D02*
X1612Y911D01*
X1272Y910D02*
X1612Y910D01*
X1272Y909D02*
X1612Y909D01*
X1272Y908D02*
X1612Y908D01*
X1272Y907D02*
X1612Y907D01*
X1272Y906D02*
X1612Y906D01*
X1272Y905D02*
X1612Y905D01*
X1272Y904D02*
X1612Y904D01*
X1272Y903D02*
X1612Y903D01*
X1272Y902D02*
X1612Y902D01*
X1272Y901D02*
X1612Y901D01*
X1272Y900D02*
X1612Y900D01*
X1272Y899D02*
X1612Y899D01*
X1272Y898D02*
X1612Y898D01*
X1272Y897D02*
X1612Y897D01*
X1272Y896D02*
X1612Y896D01*
X1272Y895D02*
X1612Y895D01*
X1272Y894D02*
X1612Y894D01*
X1272Y893D02*
X1612Y893D01*
X1272Y892D02*
X1612Y892D01*
X1272Y891D02*
X1612Y891D01*
X1272Y890D02*
X1612Y890D01*
X1272Y889D02*
X1612Y889D01*
X1272Y888D02*
X1612Y888D01*
X1272Y887D02*
X1612Y887D01*
X1272Y886D02*
X1612Y886D01*
X1272Y885D02*
X1612Y885D01*
X1272Y884D02*
X1612Y884D01*
X1272Y883D02*
X1612Y883D01*
X1272Y882D02*
X1612Y882D01*
X1272Y881D02*
X1612Y881D01*
X1272Y880D02*
X1612Y880D01*
X1272Y879D02*
X1612Y879D01*
X1272Y878D02*
X1612Y878D01*
X1272Y877D02*
X1612Y877D01*
X1272Y876D02*
X1612Y876D01*
X1272Y875D02*
X1612Y875D01*
X1272Y874D02*
X1612Y874D01*
X1272Y873D02*
X1612Y873D01*
X1272Y872D02*
X1612Y872D01*
X1272Y871D02*
X1612Y871D01*
X1272Y870D02*
X1612Y870D01*
X1272Y869D02*
X1612Y869D01*
X1272Y868D02*
X1612Y868D01*
X1272Y867D02*
X1612Y867D01*
X1272Y866D02*
X1612Y866D01*
X1272Y865D02*
X1612Y865D01*
X1272Y864D02*
X1612Y864D01*
X1272Y863D02*
X1612Y863D01*
X1272Y862D02*
X1612Y862D01*
X1272Y861D02*
X1612Y861D01*
X1272Y860D02*
X1612Y860D01*
X1272Y859D02*
X1612Y859D01*
X1272Y858D02*
X1612Y858D01*
X1272Y857D02*
X1612Y857D01*
X1272Y856D02*
X1612Y856D01*
X1272Y855D02*
X1612Y855D01*
X1272Y854D02*
X1612Y854D01*
X1272Y853D02*
X1612Y853D01*
X1272Y852D02*
X1612Y852D01*
X1272Y851D02*
X1612Y851D01*
X1272Y850D02*
X1612Y850D01*
X1272Y849D02*
X1612Y849D01*
X1272Y848D02*
X1612Y848D01*
X1272Y847D02*
X1612Y847D01*
X1272Y846D02*
X1612Y846D01*
X1272Y845D02*
X1612Y845D01*
X1272Y844D02*
X1612Y844D01*
X1272Y843D02*
X1612Y843D01*
X1272Y842D02*
X1612Y842D01*
X1272Y841D02*
X1612Y841D01*
X1272Y840D02*
X1612Y840D01*
X1272Y839D02*
X1612Y839D01*
X1272Y838D02*
X1612Y838D01*
X1272Y837D02*
X1612Y837D01*
X1272Y836D02*
X1612Y836D01*
X1272Y835D02*
X1612Y835D01*
X1272Y834D02*
X1612Y834D01*
X1272Y833D02*
X1612Y833D01*
X1272Y832D02*
X1612Y832D01*
X1272Y831D02*
X1612Y831D01*
X1272Y830D02*
X1612Y830D01*
X1272Y829D02*
X1612Y829D01*
X1272Y828D02*
X1612Y828D01*
X1272Y827D02*
X1612Y827D01*
X1272Y826D02*
X1612Y826D01*
X1272Y825D02*
X1612Y825D01*
X1272Y824D02*
X1612Y824D01*
X1272Y823D02*
X1612Y823D01*
X1272Y822D02*
X1612Y822D01*
X1272Y821D02*
X1612Y821D01*
X934Y820D02*
X1060Y820D01*
X1272Y820D02*
X1612Y820D01*
X934Y819D02*
X1061Y819D01*
X1272Y819D02*
X1612Y819D01*
X934Y818D02*
X1061Y818D01*
X1272Y818D02*
X1612Y818D01*
X934Y817D02*
X1061Y817D01*
X1272Y817D02*
X1612Y817D01*
X934Y816D02*
X1061Y816D01*
X1272Y816D02*
X1612Y816D01*
X934Y815D02*
X1061Y815D01*
X1272Y815D02*
X1612Y815D01*
X934Y814D02*
X1061Y814D01*
X1272Y814D02*
X1612Y814D01*
X934Y813D02*
X1061Y813D01*
X1272Y813D02*
X1612Y813D01*
X934Y812D02*
X1061Y812D01*
X1272Y812D02*
X1612Y812D01*
X934Y811D02*
X1061Y811D01*
X1272Y811D02*
X1612Y811D01*
X934Y810D02*
X1061Y810D01*
X1272Y810D02*
X1612Y810D01*
X934Y809D02*
X1061Y809D01*
X1272Y809D02*
X1612Y809D01*
X934Y808D02*
X1061Y808D01*
X1272Y808D02*
X1612Y808D01*
X934Y807D02*
X1061Y807D01*
X1272Y807D02*
X1612Y807D01*
X934Y806D02*
X1061Y806D01*
X1272Y806D02*
X1612Y806D01*
X934Y805D02*
X1061Y805D01*
X1272Y805D02*
X1612Y805D01*
X934Y804D02*
X1061Y804D01*
X1272Y804D02*
X1612Y804D01*
X934Y803D02*
X1061Y803D01*
X1272Y803D02*
X1612Y803D01*
X934Y802D02*
X1061Y802D01*
X1272Y802D02*
X1612Y802D01*
X934Y801D02*
X1061Y801D01*
X1272Y801D02*
X1612Y801D01*
X934Y800D02*
X1061Y800D01*
X1272Y800D02*
X1612Y800D01*
X934Y799D02*
X1061Y799D01*
X1272Y799D02*
X1612Y799D01*
X934Y798D02*
X1061Y798D01*
X1272Y798D02*
X1612Y798D01*
X934Y797D02*
X1061Y797D01*
X1272Y797D02*
X1612Y797D01*
X934Y796D02*
X1061Y796D01*
X1272Y796D02*
X1612Y796D01*
X934Y795D02*
X1061Y795D01*
X1272Y795D02*
X1612Y795D01*
X934Y794D02*
X1061Y794D01*
X1272Y794D02*
X1612Y794D01*
X934Y793D02*
X1061Y793D01*
X1272Y793D02*
X1612Y793D01*
X934Y792D02*
X1061Y792D01*
X1272Y792D02*
X1612Y792D01*
X934Y791D02*
X1061Y791D01*
X1272Y791D02*
X1612Y791D01*
X934Y790D02*
X1061Y790D01*
X1272Y790D02*
X1612Y790D01*
X934Y789D02*
X1061Y789D01*
X1272Y789D02*
X1612Y789D01*
X934Y788D02*
X1061Y788D01*
X1272Y788D02*
X1612Y788D01*
X934Y787D02*
X1061Y787D01*
X1272Y787D02*
X1612Y787D01*
X934Y786D02*
X1061Y786D01*
X1272Y786D02*
X1612Y786D01*
X934Y785D02*
X1061Y785D01*
X1272Y785D02*
X1612Y785D01*
X934Y784D02*
X1061Y784D01*
X1272Y784D02*
X1612Y784D01*
X934Y783D02*
X1061Y783D01*
X1272Y783D02*
X1612Y783D01*
X934Y782D02*
X1061Y782D01*
X1272Y782D02*
X1612Y782D01*
X934Y781D02*
X1061Y781D01*
X1272Y781D02*
X1612Y781D01*
X934Y780D02*
X1061Y780D01*
X1272Y780D02*
X1612Y780D01*
X934Y779D02*
X1061Y779D01*
X1272Y779D02*
X1612Y779D01*
X934Y778D02*
X1061Y778D01*
X1272Y778D02*
X1612Y778D01*
X934Y777D02*
X1061Y777D01*
X1272Y777D02*
X1612Y777D01*
X934Y776D02*
X1061Y776D01*
X1272Y776D02*
X1612Y776D01*
X934Y775D02*
X1061Y775D01*
X1272Y775D02*
X1612Y775D01*
X934Y774D02*
X1061Y774D01*
X1272Y774D02*
X1612Y774D01*
X934Y773D02*
X1061Y773D01*
X1272Y773D02*
X1612Y773D01*
X934Y772D02*
X1061Y772D01*
X1272Y772D02*
X1612Y772D01*
X934Y771D02*
X1060Y771D01*
X1272Y771D02*
X1612Y771D01*
X1272Y770D02*
X1612Y770D01*
X1272Y769D02*
X1612Y769D01*
X1272Y768D02*
X1612Y768D01*
X1272Y767D02*
X1612Y767D01*
X1272Y766D02*
X1612Y766D01*
X1272Y765D02*
X1612Y765D01*
X1272Y764D02*
X1612Y764D01*
X1272Y763D02*
X1612Y763D01*
X1272Y762D02*
X1612Y762D01*
X1272Y761D02*
X1612Y761D01*
X1272Y760D02*
X1612Y760D01*
X1272Y759D02*
X1612Y759D01*
X1272Y758D02*
X1612Y758D01*
X1272Y757D02*
X1612Y757D01*
X1272Y756D02*
X1612Y756D01*
X1272Y755D02*
X1612Y755D01*
X1272Y754D02*
X1612Y754D01*
X1272Y753D02*
X1612Y753D01*
X1272Y752D02*
X1612Y752D01*
X1272Y751D02*
X1612Y751D01*
X1272Y750D02*
X1612Y750D01*
X1272Y749D02*
X1612Y749D01*
X1272Y748D02*
X1612Y748D01*
X1272Y747D02*
X1612Y747D01*
X1272Y746D02*
X1612Y746D01*
X1272Y745D02*
X1612Y745D01*
X1272Y744D02*
X1612Y744D01*
X1272Y743D02*
X1612Y743D01*
X1272Y742D02*
X1612Y742D01*
X1272Y741D02*
X1612Y741D01*
X1272Y740D02*
X1612Y740D01*
X1272Y739D02*
X1612Y739D01*
X1272Y738D02*
X1612Y738D01*
X1272Y737D02*
X1612Y737D01*
X1272Y736D02*
X1612Y736D01*
X1272Y735D02*
X1612Y735D01*
X1272Y734D02*
X1612Y734D01*
X1272Y733D02*
X1612Y733D01*
X1272Y732D02*
X1612Y732D01*
X1272Y731D02*
X1612Y731D01*
X1272Y730D02*
X1612Y730D01*
X1272Y729D02*
X1612Y729D01*
X1272Y728D02*
X1612Y728D01*
X1272Y727D02*
X1612Y727D01*
X1272Y726D02*
X1612Y726D01*
X1272Y725D02*
X1612Y725D01*
X1272Y724D02*
X1612Y724D01*
X1272Y723D02*
X1612Y723D01*
X1272Y722D02*
X1612Y722D01*
X1272Y721D02*
X1612Y721D01*
X1272Y720D02*
X1612Y720D01*
X1272Y719D02*
X1612Y719D01*
X1272Y718D02*
X1612Y718D01*
X1272Y717D02*
X1612Y717D01*
X1272Y716D02*
X1612Y716D01*
X1272Y715D02*
X1612Y715D01*
X1272Y714D02*
X1612Y714D01*
X1272Y713D02*
X1612Y713D01*
X1272Y712D02*
X1612Y712D01*
X1272Y711D02*
X1612Y711D01*
X1272Y710D02*
X1612Y710D01*
X1272Y709D02*
X1612Y709D01*
X1272Y708D02*
X1612Y708D01*
X1272Y707D02*
X1612Y707D01*
X1272Y706D02*
X1612Y706D01*
X1272Y705D02*
X1612Y705D01*
X1272Y704D02*
X1612Y704D01*
X1272Y703D02*
X1612Y703D01*
X1272Y702D02*
X1612Y702D01*
X1272Y701D02*
X1612Y701D01*
X1272Y700D02*
X1612Y700D01*
X1272Y699D02*
X1612Y699D01*
X1272Y698D02*
X1612Y698D01*
X1272Y697D02*
X1612Y697D01*
X1272Y696D02*
X1612Y696D01*
X1272Y695D02*
X1612Y695D01*
X1272Y694D02*
X1612Y694D01*
X1272Y693D02*
X1612Y693D01*
X1272Y692D02*
X1612Y692D01*
X1272Y691D02*
X1612Y691D01*
X1272Y690D02*
X1612Y690D01*
X1272Y689D02*
X1612Y689D01*
X1272Y688D02*
X1612Y688D01*
X1272Y687D02*
X1612Y687D01*
X1272Y686D02*
X1612Y686D01*
X1272Y685D02*
X1612Y685D01*
X1272Y684D02*
X1612Y684D01*
X1272Y683D02*
X1612Y683D01*
X1272Y682D02*
X1612Y682D01*
X1272Y681D02*
X1612Y681D01*
X1272Y680D02*
X1612Y680D01*
X1272Y679D02*
X1612Y679D01*
X1271Y623D02*
X1611Y623D01*
X1271Y622D02*
X1611Y622D01*
X1271Y621D02*
X1611Y621D01*
X1271Y620D02*
X1611Y620D01*
X1271Y619D02*
X1611Y619D01*
X1271Y618D02*
X1611Y618D01*
X1271Y617D02*
X1611Y617D01*
X1271Y616D02*
X1611Y616D01*
X1271Y615D02*
X1611Y615D01*
X1271Y614D02*
X1611Y614D01*
X1271Y613D02*
X1611Y613D01*
X1271Y612D02*
X1611Y612D01*
X1271Y611D02*
X1611Y611D01*
X1271Y610D02*
X1611Y610D01*
X1271Y609D02*
X1611Y609D01*
X1271Y608D02*
X1611Y608D01*
X1271Y607D02*
X1611Y607D01*
X1271Y606D02*
X1611Y606D01*
X1271Y605D02*
X1611Y605D01*
X1271Y604D02*
X1611Y604D01*
X1271Y603D02*
X1611Y603D01*
X1271Y602D02*
X1611Y602D01*
X1271Y601D02*
X1611Y601D01*
X1271Y600D02*
X1611Y600D01*
X1271Y599D02*
X1611Y599D01*
X1271Y598D02*
X1611Y598D01*
X1271Y597D02*
X1611Y597D01*
X1271Y596D02*
X1611Y596D01*
X1271Y595D02*
X1611Y595D01*
X1271Y594D02*
X1611Y594D01*
X1271Y593D02*
X1611Y593D01*
X1271Y592D02*
X1611Y592D01*
X1271Y591D02*
X1611Y591D01*
X1271Y590D02*
X1611Y590D01*
X1271Y589D02*
X1611Y589D01*
X1271Y588D02*
X1611Y588D01*
X1271Y587D02*
X1611Y587D01*
X1271Y586D02*
X1611Y586D01*
X1271Y585D02*
X1611Y585D01*
X1271Y584D02*
X1611Y584D01*
X1271Y583D02*
X1611Y583D01*
X1271Y582D02*
X1611Y582D01*
X1271Y581D02*
X1611Y581D01*
X1271Y580D02*
X1611Y580D01*
X1271Y579D02*
X1611Y579D01*
X1271Y578D02*
X1611Y578D01*
X1271Y577D02*
X1611Y577D01*
X1271Y576D02*
X1611Y576D01*
X1271Y575D02*
X1611Y575D01*
X1271Y574D02*
X1611Y574D01*
X1271Y573D02*
X1611Y573D01*
X1271Y572D02*
X1611Y572D01*
X1271Y571D02*
X1611Y571D01*
X1271Y570D02*
X1611Y570D01*
X1271Y569D02*
X1611Y569D01*
X1271Y568D02*
X1611Y568D01*
X1271Y567D02*
X1611Y567D01*
X1271Y566D02*
X1611Y566D01*
X1271Y565D02*
X1611Y565D01*
X1271Y564D02*
X1611Y564D01*
X1271Y563D02*
X1611Y563D01*
X1271Y562D02*
X1611Y562D01*
X1271Y561D02*
X1611Y561D01*
X1271Y560D02*
X1611Y560D01*
X1271Y559D02*
X1611Y559D01*
X1271Y558D02*
X1611Y558D01*
X1271Y557D02*
X1611Y557D01*
X1271Y556D02*
X1611Y556D01*
X1271Y555D02*
X1611Y555D01*
X1271Y554D02*
X1611Y554D01*
X1271Y553D02*
X1611Y553D01*
X1271Y552D02*
X1611Y552D01*
X1271Y551D02*
X1611Y551D01*
X1271Y550D02*
X1611Y550D01*
X1271Y549D02*
X1611Y549D01*
X1271Y548D02*
X1611Y548D01*
X1271Y547D02*
X1611Y547D01*
X1271Y546D02*
X1611Y546D01*
X1271Y545D02*
X1611Y545D01*
X1271Y544D02*
X1611Y544D01*
X1271Y543D02*
X1611Y543D01*
X1271Y542D02*
X1611Y542D01*
X1271Y541D02*
X1611Y541D01*
X1271Y540D02*
X1611Y540D01*
X1271Y539D02*
X1611Y539D01*
X1271Y538D02*
X1611Y538D01*
X1271Y537D02*
X1611Y537D01*
X1271Y536D02*
X1611Y536D01*
X1271Y535D02*
X1611Y535D01*
X1271Y534D02*
X1611Y534D01*
X1271Y533D02*
X1611Y533D01*
X1271Y532D02*
X1611Y532D01*
X933Y531D02*
X1060Y531D01*
X1271Y531D02*
X1611Y531D01*
X933Y530D02*
X1060Y530D01*
X1271Y530D02*
X1611Y530D01*
X933Y529D02*
X1060Y529D01*
X1271Y529D02*
X1611Y529D01*
X933Y528D02*
X1060Y528D01*
X1271Y528D02*
X1611Y528D01*
X933Y527D02*
X1060Y527D01*
X1271Y527D02*
X1611Y527D01*
X933Y526D02*
X1060Y526D01*
X1271Y526D02*
X1611Y526D01*
X933Y525D02*
X1060Y525D01*
X1271Y525D02*
X1611Y525D01*
X933Y524D02*
X1060Y524D01*
X1271Y524D02*
X1611Y524D01*
X933Y523D02*
X1060Y523D01*
X1271Y523D02*
X1611Y523D01*
X933Y522D02*
X1060Y522D01*
X1271Y522D02*
X1611Y522D01*
X933Y521D02*
X1060Y521D01*
X1271Y521D02*
X1611Y521D01*
X933Y520D02*
X1060Y520D01*
X1271Y520D02*
X1611Y520D01*
X933Y519D02*
X1060Y519D01*
X1271Y519D02*
X1611Y519D01*
X933Y518D02*
X1060Y518D01*
X1271Y518D02*
X1611Y518D01*
X933Y517D02*
X1060Y517D01*
X1271Y517D02*
X1611Y517D01*
X933Y516D02*
X1060Y516D01*
X1271Y516D02*
X1611Y516D01*
X933Y515D02*
X1060Y515D01*
X1271Y515D02*
X1611Y515D01*
X933Y514D02*
X1060Y514D01*
X1271Y514D02*
X1611Y514D01*
X933Y513D02*
X1060Y513D01*
X1271Y513D02*
X1611Y513D01*
X933Y512D02*
X1060Y512D01*
X1271Y512D02*
X1611Y512D01*
X933Y511D02*
X1060Y511D01*
X1271Y511D02*
X1611Y511D01*
X933Y510D02*
X1060Y510D01*
X1271Y510D02*
X1611Y510D01*
X933Y509D02*
X1060Y509D01*
X1271Y509D02*
X1611Y509D01*
X933Y508D02*
X1060Y508D01*
X1271Y508D02*
X1611Y508D01*
X933Y507D02*
X1060Y507D01*
X1271Y507D02*
X1611Y507D01*
X933Y506D02*
X1060Y506D01*
X1271Y506D02*
X1611Y506D01*
X933Y505D02*
X1060Y505D01*
X1271Y505D02*
X1611Y505D01*
X933Y504D02*
X1060Y504D01*
X1271Y504D02*
X1611Y504D01*
X933Y503D02*
X1060Y503D01*
X1271Y503D02*
X1611Y503D01*
X933Y502D02*
X1060Y502D01*
X1271Y502D02*
X1611Y502D01*
X933Y501D02*
X1060Y501D01*
X1271Y501D02*
X1611Y501D01*
X933Y500D02*
X1060Y500D01*
X1271Y500D02*
X1611Y500D01*
X933Y499D02*
X1060Y499D01*
X1271Y499D02*
X1611Y499D01*
X933Y498D02*
X1060Y498D01*
X1271Y498D02*
X1611Y498D01*
X933Y497D02*
X1060Y497D01*
X1271Y497D02*
X1611Y497D01*
X933Y496D02*
X1060Y496D01*
X1271Y496D02*
X1611Y496D01*
X933Y495D02*
X1060Y495D01*
X1271Y495D02*
X1611Y495D01*
X933Y494D02*
X1060Y494D01*
X1271Y494D02*
X1611Y494D01*
X933Y493D02*
X1060Y493D01*
X1271Y493D02*
X1611Y493D01*
X933Y492D02*
X1060Y492D01*
X1271Y492D02*
X1611Y492D01*
X933Y491D02*
X1060Y491D01*
X1271Y491D02*
X1611Y491D01*
X933Y490D02*
X1060Y490D01*
X1271Y490D02*
X1611Y490D01*
X933Y489D02*
X1060Y489D01*
X1271Y489D02*
X1611Y489D01*
X933Y488D02*
X1060Y488D01*
X1271Y488D02*
X1611Y488D01*
X933Y487D02*
X1060Y487D01*
X1271Y487D02*
X1611Y487D01*
X933Y486D02*
X1060Y486D01*
X1271Y486D02*
X1611Y486D01*
X933Y485D02*
X1060Y485D01*
X1271Y485D02*
X1611Y485D01*
X933Y484D02*
X1060Y484D01*
X1271Y484D02*
X1611Y484D01*
X933Y483D02*
X1060Y483D01*
X1271Y483D02*
X1611Y483D01*
X933Y482D02*
X1060Y482D01*
X1271Y482D02*
X1611Y482D01*
X1271Y481D02*
X1611Y481D01*
X1271Y480D02*
X1611Y480D01*
X1271Y479D02*
X1611Y479D01*
X1271Y478D02*
X1611Y478D01*
X1271Y477D02*
X1611Y477D01*
X1271Y476D02*
X1611Y476D01*
X1271Y475D02*
X1611Y475D01*
X1271Y474D02*
X1611Y474D01*
X1271Y473D02*
X1611Y473D01*
X1271Y472D02*
X1611Y472D01*
X1271Y471D02*
X1611Y471D01*
X1271Y470D02*
X1611Y470D01*
X1271Y469D02*
X1611Y469D01*
X1271Y468D02*
X1611Y468D01*
X1271Y467D02*
X1611Y467D01*
X1271Y466D02*
X1611Y466D01*
X1271Y465D02*
X1611Y465D01*
X1271Y464D02*
X1611Y464D01*
X1271Y463D02*
X1611Y463D01*
X1271Y462D02*
X1611Y462D01*
X1271Y461D02*
X1611Y461D01*
X1271Y460D02*
X1611Y460D01*
X1271Y459D02*
X1611Y459D01*
X1271Y458D02*
X1611Y458D01*
X1271Y457D02*
X1611Y457D01*
X1271Y456D02*
X1611Y456D01*
X1271Y455D02*
X1611Y455D01*
X1271Y454D02*
X1611Y454D01*
X1271Y453D02*
X1611Y453D01*
X1271Y452D02*
X1611Y452D01*
X1271Y451D02*
X1611Y451D01*
X1271Y450D02*
X1611Y450D01*
X1271Y449D02*
X1611Y449D01*
X1271Y448D02*
X1611Y448D01*
X1271Y447D02*
X1611Y447D01*
X1271Y446D02*
X1611Y446D01*
X1271Y445D02*
X1611Y445D01*
X1271Y444D02*
X1611Y444D01*
X1271Y443D02*
X1611Y443D01*
X1271Y442D02*
X1611Y442D01*
X1271Y441D02*
X1611Y441D01*
X1271Y440D02*
X1611Y440D01*
X1271Y439D02*
X1611Y439D01*
X1271Y438D02*
X1611Y438D01*
X1271Y437D02*
X1611Y437D01*
X1271Y436D02*
X1611Y436D01*
X1271Y435D02*
X1611Y435D01*
X1271Y434D02*
X1611Y434D01*
X1271Y433D02*
X1611Y433D01*
X1271Y432D02*
X1611Y432D01*
X1271Y431D02*
X1611Y431D01*
X1271Y430D02*
X1611Y430D01*
X1271Y429D02*
X1611Y429D01*
X1271Y428D02*
X1611Y428D01*
X1271Y427D02*
X1611Y427D01*
X1271Y426D02*
X1611Y426D01*
X1271Y425D02*
X1611Y425D01*
X1271Y424D02*
X1611Y424D01*
X1271Y423D02*
X1611Y423D01*
X1271Y422D02*
X1611Y422D01*
X1271Y421D02*
X1611Y421D01*
X1271Y420D02*
X1611Y420D01*
X1271Y419D02*
X1611Y419D01*
X1271Y418D02*
X1611Y418D01*
X1271Y417D02*
X1611Y417D01*
X1271Y416D02*
X1611Y416D01*
X1271Y415D02*
X1611Y415D01*
X1271Y414D02*
X1611Y414D01*
X1271Y413D02*
X1611Y413D01*
X1271Y412D02*
X1611Y412D01*
X1271Y411D02*
X1611Y411D01*
X1271Y410D02*
X1611Y410D01*
X1271Y409D02*
X1611Y409D01*
X1271Y408D02*
X1611Y408D01*
X1271Y407D02*
X1611Y407D01*
X1271Y406D02*
X1611Y406D01*
X1271Y405D02*
X1611Y405D01*
X1271Y404D02*
X1611Y404D01*
X1271Y403D02*
X1611Y403D01*
X1271Y402D02*
X1611Y402D01*
X1271Y401D02*
X1611Y401D01*
X1271Y400D02*
X1611Y400D01*
X1271Y399D02*
X1611Y399D01*
X1271Y398D02*
X1611Y398D01*
X1271Y397D02*
X1611Y397D01*
X1271Y396D02*
X1611Y396D01*
X1271Y395D02*
X1611Y395D01*
X1271Y394D02*
X1611Y394D01*
X1271Y393D02*
X1611Y393D01*
X1271Y392D02*
X1611Y392D01*
X1271Y391D02*
X1611Y391D01*
X1271Y390D02*
X1611Y390D01*
X1271Y389D02*
X1611Y389D01*
X1271Y388D02*
X1611Y388D01*
X1271Y387D02*
X1611Y387D01*
X1271Y386D02*
X1611Y386D01*
X1271Y385D02*
X1611Y385D01*
X1271Y384D02*
X1611Y384D01*
X1271Y383D02*
X1611Y383D01*
X1271Y382D02*
X1611Y382D01*
X1271Y381D02*
X1611Y381D01*
X1271Y380D02*
X1611Y380D01*
X1271Y379D02*
X1611Y379D01*
X1271Y378D02*
X1611Y378D01*
X1271Y377D02*
X1611Y377D01*
X1271Y376D02*
X1611Y376D01*
X1271Y375D02*
X1611Y375D01*
X1271Y374D02*
X1611Y374D01*
X1271Y373D02*
X1611Y373D01*
X1271Y372D02*
X1611Y372D01*
X1271Y371D02*
X1611Y371D01*
X1271Y370D02*
X1611Y370D01*
X1271Y369D02*
X1611Y369D01*
X1271Y368D02*
X1611Y368D01*
X1271Y367D02*
X1611Y367D01*
X1271Y366D02*
X1611Y366D01*
X1271Y365D02*
X1611Y365D01*
X1271Y364D02*
X1611Y364D01*
X1271Y363D02*
X1611Y363D01*
X1271Y362D02*
X1611Y362D01*
X1271Y361D02*
X1611Y361D01*
X1271Y360D02*
X1611Y360D01*
X1271Y359D02*
X1611Y359D01*
X1271Y358D02*
X1611Y358D01*
X1271Y357D02*
X1611Y357D01*
X1271Y356D02*
X1611Y356D01*
X1271Y355D02*
X1611Y355D01*
X1271Y354D02*
X1611Y354D01*
X1271Y353D02*
X1611Y353D01*
X1271Y352D02*
X1611Y352D01*
X1271Y351D02*
X1611Y351D01*
X1271Y350D02*
X1611Y350D01*
X1271Y349D02*
X1611Y349D01*
X1271Y348D02*
X1611Y348D01*
X1271Y347D02*
X1611Y347D01*
X1271Y346D02*
X1611Y346D01*
X1271Y345D02*
X1611Y345D01*
X1271Y344D02*
X1611Y344D01*
X1271Y343D02*
X1611Y343D01*
X1271Y342D02*
X1611Y342D01*
X1271Y341D02*
X1611Y341D01*
X1271Y340D02*
X1611Y340D01*
X1271Y339D02*
X1611Y339D01*
X1271Y338D02*
X1611Y338D01*
X1271Y337D02*
X1611Y337D01*
X1271Y336D02*
X1611Y336D01*
X1271Y335D02*
X1611Y335D01*
X933Y334D02*
X1060Y334D01*
X1271Y334D02*
X1611Y334D01*
X933Y333D02*
X1060Y333D01*
X1271Y333D02*
X1611Y333D01*
X933Y332D02*
X1060Y332D01*
X1271Y332D02*
X1611Y332D01*
X933Y331D02*
X1060Y331D01*
X1271Y331D02*
X1611Y331D01*
X933Y330D02*
X1060Y330D01*
X1271Y330D02*
X1611Y330D01*
X933Y329D02*
X1060Y329D01*
X1271Y329D02*
X1611Y329D01*
X933Y328D02*
X1060Y328D01*
X1271Y328D02*
X1611Y328D01*
X933Y327D02*
X1060Y327D01*
X1271Y327D02*
X1611Y327D01*
X933Y326D02*
X1060Y326D01*
X1271Y326D02*
X1611Y326D01*
X933Y325D02*
X1060Y325D01*
X1271Y325D02*
X1611Y325D01*
X933Y324D02*
X1060Y324D01*
X1271Y324D02*
X1611Y324D01*
X933Y323D02*
X1060Y323D01*
X1271Y323D02*
X1611Y323D01*
X933Y322D02*
X1060Y322D01*
X1271Y322D02*
X1611Y322D01*
X933Y321D02*
X1060Y321D01*
X1271Y321D02*
X1611Y321D01*
X933Y320D02*
X1060Y320D01*
X1271Y320D02*
X1611Y320D01*
X933Y319D02*
X1060Y319D01*
X1271Y319D02*
X1611Y319D01*
X933Y318D02*
X1060Y318D01*
X1271Y318D02*
X1611Y318D01*
X933Y317D02*
X1060Y317D01*
X1271Y317D02*
X1611Y317D01*
X933Y316D02*
X1060Y316D01*
X1271Y316D02*
X1611Y316D01*
X933Y315D02*
X1060Y315D01*
X1271Y315D02*
X1611Y315D01*
X933Y314D02*
X1060Y314D01*
X1271Y314D02*
X1611Y314D01*
X933Y313D02*
X1060Y313D01*
X1271Y313D02*
X1611Y313D01*
X933Y312D02*
X1060Y312D01*
X1271Y312D02*
X1611Y312D01*
X933Y311D02*
X1060Y311D01*
X1271Y311D02*
X1611Y311D01*
X933Y310D02*
X1060Y310D01*
X1271Y310D02*
X1611Y310D01*
X933Y309D02*
X1060Y309D01*
X1271Y309D02*
X1611Y309D01*
X933Y308D02*
X1060Y308D01*
X1271Y308D02*
X1611Y308D01*
X933Y307D02*
X1060Y307D01*
X1271Y307D02*
X1611Y307D01*
X933Y306D02*
X1060Y306D01*
X1271Y306D02*
X1611Y306D01*
X933Y305D02*
X1060Y305D01*
X1271Y305D02*
X1611Y305D01*
X933Y304D02*
X1060Y304D01*
X1271Y304D02*
X1611Y304D01*
X933Y303D02*
X1060Y303D01*
X1271Y303D02*
X1611Y303D01*
X933Y302D02*
X1060Y302D01*
X1271Y302D02*
X1611Y302D01*
X933Y301D02*
X1060Y301D01*
X1271Y301D02*
X1611Y301D01*
X933Y300D02*
X1060Y300D01*
X1271Y300D02*
X1611Y300D01*
X933Y299D02*
X1060Y299D01*
X1271Y299D02*
X1611Y299D01*
X933Y298D02*
X1060Y298D01*
X1271Y298D02*
X1611Y298D01*
X933Y297D02*
X1060Y297D01*
X1271Y297D02*
X1611Y297D01*
X933Y296D02*
X1060Y296D01*
X1271Y296D02*
X1611Y296D01*
X933Y295D02*
X1060Y295D01*
X1271Y295D02*
X1611Y295D01*
X933Y294D02*
X1060Y294D01*
X1271Y294D02*
X1611Y294D01*
X933Y293D02*
X1060Y293D01*
X1271Y293D02*
X1611Y293D01*
X933Y292D02*
X1060Y292D01*
X1271Y292D02*
X1611Y292D01*
X933Y291D02*
X1060Y291D01*
X1271Y291D02*
X1611Y291D01*
X933Y290D02*
X1060Y290D01*
X1271Y290D02*
X1611Y290D01*
X933Y289D02*
X1060Y289D01*
X1271Y289D02*
X1611Y289D01*
X933Y288D02*
X1060Y288D01*
X1271Y288D02*
X1611Y288D01*
X933Y287D02*
X1060Y287D01*
X1271Y287D02*
X1611Y287D01*
X933Y286D02*
X1060Y286D01*
X1271Y286D02*
X1611Y286D01*
X1271Y285D02*
X1611Y285D01*
X1271Y284D02*
X1611Y284D01*
X1271Y283D02*
X1611Y283D01*
X1271Y282D02*
X1611Y282D01*
X1271Y281D02*
X1611Y281D01*
X1271Y280D02*
X1611Y280D01*
X1271Y279D02*
X1611Y279D01*
X1271Y278D02*
X1611Y278D01*
X1271Y277D02*
X1611Y277D01*
X1271Y276D02*
X1611Y276D01*
X1271Y275D02*
X1611Y275D01*
X1271Y274D02*
X1611Y274D01*
X1271Y273D02*
X1611Y273D01*
X1271Y272D02*
X1611Y272D01*
X1271Y271D02*
X1611Y271D01*
X1271Y270D02*
X1611Y270D01*
X1271Y269D02*
X1611Y269D01*
X1271Y268D02*
X1611Y268D01*
X1271Y267D02*
X1611Y267D01*
X1271Y266D02*
X1611Y266D01*
X1271Y265D02*
X1611Y265D01*
X1271Y264D02*
X1611Y264D01*
X1271Y263D02*
X1611Y263D01*
X1271Y262D02*
X1611Y262D01*
X1271Y261D02*
X1611Y261D01*
X1271Y260D02*
X1611Y260D01*
X1271Y259D02*
X1611Y259D01*
X1271Y258D02*
X1611Y258D01*
X1271Y257D02*
X1611Y257D01*
X1271Y256D02*
X1611Y256D01*
X1271Y255D02*
X1611Y255D01*
X1271Y254D02*
X1611Y254D01*
X1271Y253D02*
X1611Y253D01*
X1271Y252D02*
X1611Y252D01*
X1271Y251D02*
X1611Y251D01*
X1271Y250D02*
X1611Y250D01*
X1271Y249D02*
X1611Y249D01*
X1271Y248D02*
X1611Y248D01*
X1271Y247D02*
X1611Y247D01*
X1271Y246D02*
X1611Y246D01*
X1271Y245D02*
X1611Y245D01*
X1271Y244D02*
X1611Y244D01*
X1271Y243D02*
X1611Y243D01*
X1271Y242D02*
X1611Y242D01*
X1271Y241D02*
X1611Y241D01*
X1271Y240D02*
X1611Y240D01*
X1271Y239D02*
X1611Y239D01*
X1271Y238D02*
X1611Y238D01*
X1271Y237D02*
X1611Y237D01*
X1271Y236D02*
X1611Y236D01*
X1271Y235D02*
X1611Y235D01*
X1271Y234D02*
X1611Y234D01*
X1271Y233D02*
X1611Y233D01*
X1271Y232D02*
X1611Y232D01*
X1271Y231D02*
X1611Y231D01*
X1271Y230D02*
X1611Y230D01*
X1271Y229D02*
X1611Y229D01*
X1271Y228D02*
X1611Y228D01*
X1271Y227D02*
X1611Y227D01*
X1271Y226D02*
X1611Y226D01*
X1271Y225D02*
X1611Y225D01*
X1271Y224D02*
X1611Y224D01*
X1271Y223D02*
X1611Y223D01*
X1271Y222D02*
X1611Y222D01*
X1271Y221D02*
X1611Y221D01*
X1271Y220D02*
X1611Y220D01*
X1271Y219D02*
X1611Y219D01*
X1271Y218D02*
X1611Y218D01*
X1271Y217D02*
X1611Y217D01*
X1271Y216D02*
X1611Y216D01*
X1271Y215D02*
X1611Y215D01*
X1271Y214D02*
X1611Y214D01*
X1271Y213D02*
X1611Y213D01*
X1271Y212D02*
X1611Y212D01*
X1271Y211D02*
X1611Y211D01*
X1271Y210D02*
X1611Y210D01*
X1271Y209D02*
X1611Y209D01*
X1271Y208D02*
X1611Y208D01*
X1271Y207D02*
X1611Y207D01*
X1271Y206D02*
X1611Y206D01*
X1271Y205D02*
X1611Y205D01*
X1271Y204D02*
X1611Y204D01*
X1271Y203D02*
X1611Y203D01*
X1271Y202D02*
X1611Y202D01*
X1271Y201D02*
X1611Y201D01*
X1271Y200D02*
X1611Y200D01*
X1271Y199D02*
X1611Y199D01*
X1271Y198D02*
X1611Y198D01*
X1271Y197D02*
X1611Y197D01*
X1271Y196D02*
X1611Y196D01*
X1271Y195D02*
X1611Y195D01*
X1271Y194D02*
X1611Y194D01*
X1271Y193D02*
X1611Y193D01*
D02*
G04 End of Mask1*
M02*