G04 MADE WITH FRITZING*
G04 WWW.FRITZING.ORG*
G04 DOUBLE SIDED*
G04 HOLES PLATED*
G04 CONTOUR ON CENTER OF CONTOUR VECTOR*
%ASAXBY*%
%FSLAX23Y23*%
%MOIN*%
%OFA0B0*%
%SFA1.0B1.0*%
%ADD10C,0.075000*%
%ADD11C,0.078000*%
%ADD12C,0.039370*%
%ADD13C,0.074000*%
%ADD14C,0.140000*%
%ADD15C,0.080000*%
%ADD16R,0.062992X0.074803*%
%ADD17R,0.078740X0.047244*%
%ADD18R,0.048000X0.088000*%
%ADD19R,0.141732X0.086614*%
%ADD20R,0.080000X0.080000*%
%ADD21C,0.024000*%
%ADD22R,0.001000X0.001000*%
%LNCOPPER1*%
G90*
G70*
G54D10*
X1339Y1655D03*
X139Y1487D03*
G54D11*
X1387Y86D03*
X1287Y86D03*
X1187Y86D03*
X1087Y86D03*
G54D12*
X422Y724D03*
X422Y644D03*
X422Y563D03*
G54D10*
X814Y1404D03*
X559Y1404D03*
X814Y1581D03*
X559Y1581D03*
X815Y1076D03*
X560Y1076D03*
X815Y1253D03*
X560Y1253D03*
G54D12*
X791Y882D03*
X425Y882D03*
G54D13*
X168Y574D03*
X168Y474D03*
X168Y374D03*
X168Y574D03*
X168Y474D03*
X168Y374D03*
G54D14*
X401Y1661D03*
X161Y1661D03*
X281Y1471D03*
G54D15*
X993Y1753D03*
X1131Y1753D03*
X709Y1752D03*
X847Y1752D03*
G54D11*
X1399Y1766D03*
X1299Y1766D03*
X1399Y1766D03*
X1299Y1766D03*
G54D16*
X706Y755D03*
X584Y755D03*
X706Y637D03*
X584Y637D03*
X707Y504D03*
X585Y504D03*
X585Y883D03*
X707Y883D03*
G54D17*
X200Y1224D03*
X310Y1224D03*
G54D18*
X312Y1086D03*
X221Y1086D03*
X130Y1086D03*
G54D19*
X221Y842D03*
G54D20*
X993Y1753D03*
X709Y1752D03*
G54D21*
X1129Y357D02*
X1080Y309D01*
D02*
X1055Y790D02*
X1129Y716D01*
D02*
X1061Y795D02*
X1114Y852D01*
D02*
X1114Y852D02*
X1112Y1225D01*
D02*
X1112Y1225D02*
X1047Y1280D01*
D02*
X1047Y1280D02*
X998Y1278D01*
D02*
X1051Y795D02*
X1061Y795D01*
D02*
X1080Y309D02*
X1050Y309D01*
D02*
X1129Y716D02*
X1129Y357D01*
D02*
X1051Y790D02*
X1055Y790D01*
D02*
X815Y1446D02*
X815Y1432D01*
D02*
X1046Y1276D02*
X1114Y1339D01*
D02*
X1114Y1339D02*
X1114Y1491D01*
D02*
X1114Y1491D02*
X1055Y1551D01*
D02*
X1055Y1551D02*
X925Y1551D01*
D02*
X925Y1551D02*
X815Y1446D01*
D02*
X998Y1278D02*
X1046Y1276D01*
D02*
X311Y1437D02*
X321Y1425D01*
D02*
X310Y1242D02*
X311Y1437D01*
D02*
X281Y1774D02*
X118Y1774D01*
D02*
X118Y1774D02*
X48Y1701D01*
D02*
X48Y1701D02*
X46Y1170D01*
D02*
X46Y1170D02*
X112Y1104D01*
D02*
X356Y1703D02*
X281Y1774D01*
D02*
X566Y85D02*
X190Y452D01*
D02*
X1057Y86D02*
X566Y85D01*
D02*
X1081Y309D02*
X1189Y207D01*
D02*
X1189Y207D02*
X1187Y116D01*
D02*
X1050Y309D02*
X1081Y309D01*
D02*
X1285Y1585D02*
X1288Y1581D01*
D02*
X1152Y1730D02*
X1285Y1585D01*
D02*
X1225Y1521D02*
X1015Y1731D01*
D02*
X1229Y1166D02*
X1225Y1521D01*
D02*
X1283Y1098D02*
X1229Y1166D01*
D02*
X921Y1666D02*
X867Y1728D01*
D02*
X1008Y1666D02*
X920Y1666D01*
D02*
X1171Y1503D02*
X1008Y1666D01*
D02*
X1176Y717D02*
X1171Y1503D01*
D02*
X1282Y619D02*
X1176Y717D01*
D02*
X1287Y613D02*
X1282Y619D01*
D02*
X943Y506D02*
X733Y504D01*
D02*
X998Y926D02*
X998Y978D01*
D02*
X732Y663D02*
X998Y926D01*
D02*
X758Y757D02*
X732Y756D01*
D02*
X891Y889D02*
X758Y757D01*
D02*
X891Y1327D02*
X891Y889D01*
D02*
X998Y1429D02*
X891Y1327D01*
D02*
X489Y505D02*
X559Y504D01*
D02*
X437Y550D02*
X489Y505D01*
D02*
X584Y644D02*
X584Y637D01*
D02*
X441Y644D02*
X584Y644D01*
D02*
X455Y756D02*
X558Y755D01*
D02*
X436Y737D02*
X455Y756D01*
D02*
X772Y883D02*
X733Y883D01*
D02*
X444Y882D02*
X559Y883D01*
D02*
X998Y1429D02*
X998Y1460D01*
D02*
X221Y1212D02*
X221Y1124D01*
D02*
X200Y1224D02*
X221Y1212D01*
D02*
X311Y1206D02*
X312Y1124D01*
D02*
X296Y1520D02*
X299Y1529D01*
D02*
X203Y1617D02*
X296Y1520D01*
D02*
X351Y767D02*
X352Y910D01*
D02*
X223Y1039D02*
X223Y1047D01*
D02*
X352Y910D02*
X223Y1039D01*
D02*
X189Y596D02*
X351Y767D01*
G36*
X40Y1810D02*
X40Y1744D01*
X60Y1744D01*
X60Y1746D01*
X62Y1746D01*
X62Y1748D01*
X64Y1748D01*
X64Y1750D01*
X66Y1750D01*
X66Y1752D01*
X68Y1752D01*
X68Y1754D01*
X70Y1754D01*
X70Y1756D01*
X72Y1756D01*
X72Y1758D01*
X74Y1758D01*
X74Y1760D01*
X76Y1760D01*
X76Y1762D01*
X78Y1762D01*
X78Y1764D01*
X80Y1764D01*
X80Y1766D01*
X82Y1766D01*
X82Y1768D01*
X84Y1768D01*
X84Y1770D01*
X86Y1770D01*
X86Y1774D01*
X88Y1774D01*
X88Y1776D01*
X90Y1776D01*
X90Y1778D01*
X92Y1778D01*
X92Y1780D01*
X94Y1780D01*
X94Y1782D01*
X96Y1782D01*
X96Y1784D01*
X98Y1784D01*
X98Y1786D01*
X100Y1786D01*
X100Y1788D01*
X102Y1788D01*
X102Y1790D01*
X104Y1790D01*
X104Y1810D01*
X40Y1810D01*
G37*
D02*
G36*
X874Y1810D02*
X874Y1790D01*
X878Y1790D01*
X878Y1788D01*
X880Y1788D01*
X880Y1786D01*
X882Y1786D01*
X882Y1784D01*
X884Y1784D01*
X884Y1782D01*
X886Y1782D01*
X886Y1778D01*
X888Y1778D01*
X888Y1776D01*
X890Y1776D01*
X890Y1772D01*
X892Y1772D01*
X892Y1768D01*
X894Y1768D01*
X894Y1762D01*
X896Y1762D01*
X896Y1726D01*
X898Y1726D01*
X898Y1724D01*
X900Y1724D01*
X900Y1722D01*
X902Y1722D01*
X902Y1720D01*
X904Y1720D01*
X904Y1718D01*
X906Y1718D01*
X906Y1716D01*
X908Y1716D01*
X908Y1712D01*
X910Y1712D01*
X910Y1710D01*
X912Y1710D01*
X912Y1708D01*
X914Y1708D01*
X914Y1706D01*
X916Y1706D01*
X916Y1704D01*
X918Y1704D01*
X918Y1702D01*
X920Y1702D01*
X920Y1698D01*
X922Y1698D01*
X922Y1696D01*
X924Y1696D01*
X924Y1694D01*
X944Y1694D01*
X944Y1810D01*
X874Y1810D01*
G37*
D02*
G36*
X1044Y1810D02*
X1044Y1732D01*
X1046Y1732D01*
X1046Y1730D01*
X1048Y1730D01*
X1048Y1728D01*
X1050Y1728D01*
X1050Y1726D01*
X1052Y1726D01*
X1052Y1724D01*
X1054Y1724D01*
X1054Y1722D01*
X1056Y1722D01*
X1056Y1720D01*
X1058Y1720D01*
X1058Y1718D01*
X1060Y1718D01*
X1060Y1716D01*
X1062Y1716D01*
X1062Y1714D01*
X1064Y1714D01*
X1064Y1712D01*
X1066Y1712D01*
X1066Y1710D01*
X1068Y1710D01*
X1068Y1708D01*
X1070Y1708D01*
X1070Y1706D01*
X1072Y1706D01*
X1072Y1704D01*
X1074Y1704D01*
X1074Y1702D01*
X1076Y1702D01*
X1076Y1700D01*
X1078Y1700D01*
X1078Y1698D01*
X1080Y1698D01*
X1080Y1696D01*
X1082Y1696D01*
X1082Y1694D01*
X1084Y1694D01*
X1084Y1692D01*
X1086Y1692D01*
X1086Y1690D01*
X1088Y1690D01*
X1088Y1688D01*
X1090Y1688D01*
X1090Y1686D01*
X1092Y1686D01*
X1092Y1684D01*
X1094Y1684D01*
X1094Y1682D01*
X1096Y1682D01*
X1096Y1680D01*
X1098Y1680D01*
X1098Y1678D01*
X1100Y1678D01*
X1100Y1676D01*
X1102Y1676D01*
X1102Y1674D01*
X1104Y1674D01*
X1104Y1672D01*
X1106Y1672D01*
X1106Y1670D01*
X1108Y1670D01*
X1108Y1668D01*
X1110Y1668D01*
X1110Y1666D01*
X1112Y1666D01*
X1112Y1664D01*
X1114Y1664D01*
X1114Y1662D01*
X1116Y1662D01*
X1116Y1660D01*
X1118Y1660D01*
X1118Y1658D01*
X1120Y1658D01*
X1120Y1656D01*
X1122Y1656D01*
X1122Y1654D01*
X1124Y1654D01*
X1124Y1652D01*
X1126Y1652D01*
X1126Y1650D01*
X1128Y1650D01*
X1128Y1648D01*
X1130Y1648D01*
X1130Y1646D01*
X1132Y1646D01*
X1132Y1644D01*
X1134Y1644D01*
X1134Y1642D01*
X1136Y1642D01*
X1136Y1640D01*
X1138Y1640D01*
X1138Y1638D01*
X1140Y1638D01*
X1140Y1636D01*
X1142Y1636D01*
X1142Y1634D01*
X1144Y1634D01*
X1144Y1632D01*
X1146Y1632D01*
X1146Y1630D01*
X1148Y1630D01*
X1148Y1628D01*
X1150Y1628D01*
X1150Y1626D01*
X1152Y1626D01*
X1152Y1624D01*
X1154Y1624D01*
X1154Y1622D01*
X1156Y1622D01*
X1156Y1620D01*
X1158Y1620D01*
X1158Y1618D01*
X1160Y1618D01*
X1160Y1616D01*
X1162Y1616D01*
X1162Y1614D01*
X1164Y1614D01*
X1164Y1612D01*
X1166Y1612D01*
X1166Y1610D01*
X1168Y1610D01*
X1168Y1608D01*
X1170Y1608D01*
X1170Y1606D01*
X1172Y1606D01*
X1172Y1604D01*
X1174Y1604D01*
X1174Y1602D01*
X1176Y1602D01*
X1176Y1600D01*
X1178Y1600D01*
X1178Y1598D01*
X1180Y1598D01*
X1180Y1596D01*
X1182Y1596D01*
X1182Y1594D01*
X1184Y1594D01*
X1184Y1592D01*
X1186Y1592D01*
X1186Y1590D01*
X1188Y1590D01*
X1188Y1588D01*
X1190Y1588D01*
X1190Y1586D01*
X1192Y1586D01*
X1192Y1584D01*
X1194Y1584D01*
X1194Y1582D01*
X1196Y1582D01*
X1196Y1580D01*
X1198Y1580D01*
X1198Y1578D01*
X1200Y1578D01*
X1200Y1576D01*
X1202Y1576D01*
X1202Y1574D01*
X1204Y1574D01*
X1204Y1572D01*
X1206Y1572D01*
X1206Y1570D01*
X1208Y1570D01*
X1208Y1568D01*
X1210Y1568D01*
X1210Y1566D01*
X1212Y1566D01*
X1212Y1564D01*
X1214Y1564D01*
X1214Y1562D01*
X1216Y1562D01*
X1216Y1560D01*
X1218Y1560D01*
X1218Y1558D01*
X1220Y1558D01*
X1220Y1556D01*
X1222Y1556D01*
X1222Y1554D01*
X1224Y1554D01*
X1224Y1552D01*
X1226Y1552D01*
X1226Y1550D01*
X1228Y1550D01*
X1228Y1548D01*
X1230Y1548D01*
X1230Y1546D01*
X1232Y1546D01*
X1232Y1544D01*
X1234Y1544D01*
X1234Y1542D01*
X1236Y1542D01*
X1236Y1540D01*
X1238Y1540D01*
X1238Y1538D01*
X1240Y1538D01*
X1240Y1536D01*
X1242Y1536D01*
X1242Y1534D01*
X1244Y1534D01*
X1244Y1530D01*
X1246Y1530D01*
X1246Y1524D01*
X1248Y1524D01*
X1248Y1356D01*
X1268Y1356D01*
X1268Y1572D01*
X1266Y1572D01*
X1266Y1574D01*
X1264Y1574D01*
X1264Y1576D01*
X1262Y1576D01*
X1262Y1578D01*
X1260Y1578D01*
X1260Y1580D01*
X1258Y1580D01*
X1258Y1582D01*
X1256Y1582D01*
X1256Y1584D01*
X1254Y1584D01*
X1254Y1586D01*
X1252Y1586D01*
X1252Y1590D01*
X1250Y1590D01*
X1250Y1592D01*
X1248Y1592D01*
X1248Y1594D01*
X1246Y1594D01*
X1246Y1596D01*
X1244Y1596D01*
X1244Y1598D01*
X1242Y1598D01*
X1242Y1600D01*
X1240Y1600D01*
X1240Y1602D01*
X1238Y1602D01*
X1238Y1604D01*
X1236Y1604D01*
X1236Y1606D01*
X1234Y1606D01*
X1234Y1608D01*
X1232Y1608D01*
X1232Y1610D01*
X1230Y1610D01*
X1230Y1614D01*
X1228Y1614D01*
X1228Y1616D01*
X1226Y1616D01*
X1226Y1618D01*
X1224Y1618D01*
X1224Y1620D01*
X1222Y1620D01*
X1222Y1622D01*
X1220Y1622D01*
X1220Y1624D01*
X1218Y1624D01*
X1218Y1626D01*
X1216Y1626D01*
X1216Y1628D01*
X1214Y1628D01*
X1214Y1630D01*
X1212Y1630D01*
X1212Y1632D01*
X1210Y1632D01*
X1210Y1634D01*
X1208Y1634D01*
X1208Y1638D01*
X1206Y1638D01*
X1206Y1640D01*
X1204Y1640D01*
X1204Y1642D01*
X1202Y1642D01*
X1202Y1644D01*
X1200Y1644D01*
X1200Y1646D01*
X1198Y1646D01*
X1198Y1648D01*
X1196Y1648D01*
X1196Y1650D01*
X1194Y1650D01*
X1194Y1652D01*
X1192Y1652D01*
X1192Y1654D01*
X1190Y1654D01*
X1190Y1656D01*
X1188Y1656D01*
X1188Y1658D01*
X1186Y1658D01*
X1186Y1662D01*
X1184Y1662D01*
X1184Y1664D01*
X1182Y1664D01*
X1182Y1666D01*
X1180Y1666D01*
X1180Y1668D01*
X1178Y1668D01*
X1178Y1670D01*
X1176Y1670D01*
X1176Y1672D01*
X1174Y1672D01*
X1174Y1674D01*
X1172Y1674D01*
X1172Y1676D01*
X1170Y1676D01*
X1170Y1678D01*
X1168Y1678D01*
X1168Y1680D01*
X1166Y1680D01*
X1166Y1682D01*
X1164Y1682D01*
X1164Y1686D01*
X1162Y1686D01*
X1162Y1688D01*
X1160Y1688D01*
X1160Y1690D01*
X1158Y1690D01*
X1158Y1692D01*
X1156Y1692D01*
X1156Y1694D01*
X1154Y1694D01*
X1154Y1696D01*
X1152Y1696D01*
X1152Y1698D01*
X1150Y1698D01*
X1150Y1700D01*
X1148Y1700D01*
X1148Y1702D01*
X1126Y1702D01*
X1126Y1704D01*
X1118Y1704D01*
X1118Y1706D01*
X1112Y1706D01*
X1112Y1708D01*
X1108Y1708D01*
X1108Y1710D01*
X1106Y1710D01*
X1106Y1712D01*
X1102Y1712D01*
X1102Y1714D01*
X1100Y1714D01*
X1100Y1716D01*
X1098Y1716D01*
X1098Y1718D01*
X1096Y1718D01*
X1096Y1720D01*
X1094Y1720D01*
X1094Y1722D01*
X1092Y1722D01*
X1092Y1724D01*
X1090Y1724D01*
X1090Y1728D01*
X1088Y1728D01*
X1088Y1732D01*
X1086Y1732D01*
X1086Y1736D01*
X1084Y1736D01*
X1084Y1740D01*
X1082Y1740D01*
X1082Y1764D01*
X1084Y1764D01*
X1084Y1770D01*
X1086Y1770D01*
X1086Y1774D01*
X1088Y1774D01*
X1088Y1776D01*
X1090Y1776D01*
X1090Y1780D01*
X1092Y1780D01*
X1092Y1782D01*
X1094Y1782D01*
X1094Y1784D01*
X1096Y1784D01*
X1096Y1786D01*
X1098Y1786D01*
X1098Y1788D01*
X1100Y1788D01*
X1100Y1790D01*
X1102Y1790D01*
X1102Y1810D01*
X1044Y1810D01*
G37*
D02*
G36*
X1160Y1810D02*
X1160Y1790D01*
X1162Y1790D01*
X1162Y1788D01*
X1166Y1788D01*
X1166Y1784D01*
X1168Y1784D01*
X1168Y1782D01*
X1170Y1782D01*
X1170Y1780D01*
X1172Y1780D01*
X1172Y1778D01*
X1174Y1778D01*
X1174Y1774D01*
X1176Y1774D01*
X1176Y1770D01*
X1178Y1770D01*
X1178Y1764D01*
X1180Y1764D01*
X1180Y1754D01*
X1182Y1754D01*
X1182Y1752D01*
X1180Y1752D01*
X1180Y1730D01*
X1182Y1730D01*
X1182Y1728D01*
X1184Y1728D01*
X1184Y1726D01*
X1186Y1726D01*
X1186Y1724D01*
X1188Y1724D01*
X1188Y1722D01*
X1190Y1722D01*
X1190Y1720D01*
X1192Y1720D01*
X1192Y1718D01*
X1194Y1718D01*
X1194Y1716D01*
X1292Y1716D01*
X1292Y1718D01*
X1286Y1718D01*
X1286Y1720D01*
X1280Y1720D01*
X1280Y1722D01*
X1276Y1722D01*
X1276Y1724D01*
X1274Y1724D01*
X1274Y1726D01*
X1270Y1726D01*
X1270Y1728D01*
X1268Y1728D01*
X1268Y1730D01*
X1266Y1730D01*
X1266Y1732D01*
X1264Y1732D01*
X1264Y1734D01*
X1262Y1734D01*
X1262Y1736D01*
X1260Y1736D01*
X1260Y1740D01*
X1258Y1740D01*
X1258Y1742D01*
X1256Y1742D01*
X1256Y1746D01*
X1254Y1746D01*
X1254Y1752D01*
X1252Y1752D01*
X1252Y1758D01*
X1250Y1758D01*
X1250Y1774D01*
X1252Y1774D01*
X1252Y1780D01*
X1254Y1780D01*
X1254Y1784D01*
X1256Y1784D01*
X1256Y1788D01*
X1258Y1788D01*
X1258Y1810D01*
X1160Y1810D01*
G37*
D02*
G36*
X1440Y1810D02*
X1440Y1788D01*
X1442Y1788D01*
X1442Y1784D01*
X1444Y1784D01*
X1444Y1780D01*
X1446Y1780D01*
X1446Y1774D01*
X1448Y1774D01*
X1448Y1756D01*
X1446Y1756D01*
X1446Y1750D01*
X1444Y1750D01*
X1444Y1746D01*
X1442Y1746D01*
X1442Y1742D01*
X1440Y1742D01*
X1440Y1740D01*
X1438Y1740D01*
X1438Y1736D01*
X1436Y1736D01*
X1436Y1734D01*
X1434Y1734D01*
X1434Y1732D01*
X1432Y1732D01*
X1432Y1730D01*
X1430Y1730D01*
X1430Y1728D01*
X1428Y1728D01*
X1428Y1726D01*
X1424Y1726D01*
X1424Y1724D01*
X1422Y1724D01*
X1422Y1722D01*
X1418Y1722D01*
X1418Y1720D01*
X1412Y1720D01*
X1412Y1718D01*
X1406Y1718D01*
X1406Y1716D01*
X1522Y1716D01*
X1522Y1718D01*
X1518Y1718D01*
X1518Y1720D01*
X1516Y1720D01*
X1516Y1722D01*
X1514Y1722D01*
X1514Y1724D01*
X1512Y1724D01*
X1512Y1726D01*
X1510Y1726D01*
X1510Y1728D01*
X1508Y1728D01*
X1508Y1730D01*
X1506Y1730D01*
X1506Y1732D01*
X1504Y1732D01*
X1504Y1736D01*
X1502Y1736D01*
X1502Y1738D01*
X1500Y1738D01*
X1500Y1742D01*
X1498Y1742D01*
X1498Y1748D01*
X1496Y1748D01*
X1496Y1756D01*
X1494Y1756D01*
X1494Y1770D01*
X1496Y1770D01*
X1496Y1778D01*
X1498Y1778D01*
X1498Y1784D01*
X1500Y1784D01*
X1500Y1788D01*
X1502Y1788D01*
X1502Y1790D01*
X1504Y1790D01*
X1504Y1810D01*
X1440Y1810D01*
G37*
D02*
G36*
X1338Y1740D02*
X1338Y1736D01*
X1336Y1736D01*
X1336Y1734D01*
X1334Y1734D01*
X1334Y1732D01*
X1332Y1732D01*
X1332Y1730D01*
X1330Y1730D01*
X1330Y1728D01*
X1328Y1728D01*
X1328Y1726D01*
X1324Y1726D01*
X1324Y1724D01*
X1322Y1724D01*
X1322Y1722D01*
X1318Y1722D01*
X1318Y1720D01*
X1312Y1720D01*
X1312Y1718D01*
X1306Y1718D01*
X1306Y1716D01*
X1392Y1716D01*
X1392Y1718D01*
X1386Y1718D01*
X1386Y1720D01*
X1380Y1720D01*
X1380Y1722D01*
X1376Y1722D01*
X1376Y1724D01*
X1374Y1724D01*
X1374Y1726D01*
X1370Y1726D01*
X1370Y1728D01*
X1368Y1728D01*
X1368Y1730D01*
X1366Y1730D01*
X1366Y1732D01*
X1364Y1732D01*
X1364Y1734D01*
X1362Y1734D01*
X1362Y1736D01*
X1360Y1736D01*
X1360Y1740D01*
X1338Y1740D01*
G37*
D02*
G36*
X1574Y1718D02*
X1574Y1716D01*
X1570Y1716D01*
X1570Y1714D01*
X1566Y1714D01*
X1566Y1712D01*
X1560Y1712D01*
X1560Y1710D01*
X1594Y1710D01*
X1594Y1718D01*
X1574Y1718D01*
G37*
D02*
G36*
X1196Y1716D02*
X1196Y1714D01*
X1526Y1714D01*
X1526Y1716D01*
X1196Y1716D01*
G37*
D02*
G36*
X1196Y1716D02*
X1196Y1714D01*
X1526Y1714D01*
X1526Y1716D01*
X1196Y1716D01*
G37*
D02*
G36*
X1196Y1716D02*
X1196Y1714D01*
X1526Y1714D01*
X1526Y1716D01*
X1196Y1716D01*
G37*
D02*
G36*
X1198Y1714D02*
X1198Y1710D01*
X1536Y1710D01*
X1536Y1712D01*
X1530Y1712D01*
X1530Y1714D01*
X1198Y1714D01*
G37*
D02*
G36*
X1200Y1710D02*
X1200Y1708D01*
X1594Y1708D01*
X1594Y1710D01*
X1200Y1710D01*
G37*
D02*
G36*
X1200Y1710D02*
X1200Y1708D01*
X1594Y1708D01*
X1594Y1710D01*
X1200Y1710D01*
G37*
D02*
G36*
X1202Y1708D02*
X1202Y1706D01*
X1204Y1706D01*
X1204Y1704D01*
X1206Y1704D01*
X1206Y1702D01*
X1208Y1702D01*
X1208Y1700D01*
X1210Y1700D01*
X1210Y1698D01*
X1212Y1698D01*
X1212Y1696D01*
X1214Y1696D01*
X1214Y1694D01*
X1216Y1694D01*
X1216Y1692D01*
X1218Y1692D01*
X1218Y1690D01*
X1220Y1690D01*
X1220Y1686D01*
X1222Y1686D01*
X1222Y1684D01*
X1224Y1684D01*
X1224Y1682D01*
X1226Y1682D01*
X1226Y1680D01*
X1228Y1680D01*
X1228Y1678D01*
X1230Y1678D01*
X1230Y1676D01*
X1232Y1676D01*
X1232Y1674D01*
X1234Y1674D01*
X1234Y1672D01*
X1236Y1672D01*
X1236Y1670D01*
X1238Y1670D01*
X1238Y1668D01*
X1240Y1668D01*
X1240Y1666D01*
X1242Y1666D01*
X1242Y1662D01*
X1244Y1662D01*
X1244Y1660D01*
X1246Y1660D01*
X1246Y1658D01*
X1248Y1658D01*
X1248Y1656D01*
X1250Y1656D01*
X1250Y1654D01*
X1252Y1654D01*
X1252Y1652D01*
X1254Y1652D01*
X1254Y1650D01*
X1256Y1650D01*
X1256Y1648D01*
X1258Y1648D01*
X1258Y1646D01*
X1260Y1646D01*
X1260Y1644D01*
X1262Y1644D01*
X1262Y1642D01*
X1264Y1642D01*
X1264Y1638D01*
X1266Y1638D01*
X1266Y1636D01*
X1268Y1636D01*
X1268Y1634D01*
X1270Y1634D01*
X1270Y1632D01*
X1272Y1632D01*
X1272Y1630D01*
X1274Y1630D01*
X1274Y1628D01*
X1276Y1628D01*
X1276Y1626D01*
X1278Y1626D01*
X1278Y1624D01*
X1280Y1624D01*
X1280Y1622D01*
X1282Y1622D01*
X1282Y1620D01*
X1284Y1620D01*
X1284Y1618D01*
X1286Y1618D01*
X1286Y1614D01*
X1288Y1614D01*
X1288Y1612D01*
X1290Y1612D01*
X1290Y1610D01*
X1292Y1610D01*
X1292Y1608D01*
X1294Y1608D01*
X1294Y1606D01*
X1296Y1606D01*
X1296Y1604D01*
X1298Y1604D01*
X1298Y1602D01*
X1300Y1602D01*
X1300Y1600D01*
X1302Y1600D01*
X1302Y1598D01*
X1304Y1598D01*
X1304Y1596D01*
X1594Y1596D01*
X1594Y1708D01*
X1202Y1708D01*
G37*
D02*
G36*
X1282Y1154D02*
X1282Y1132D01*
X1284Y1132D01*
X1284Y1130D01*
X1286Y1130D01*
X1286Y1128D01*
X1288Y1128D01*
X1288Y1124D01*
X1290Y1124D01*
X1290Y1122D01*
X1292Y1122D01*
X1292Y1120D01*
X1294Y1120D01*
X1294Y1118D01*
X1296Y1118D01*
X1296Y1114D01*
X1594Y1114D01*
X1594Y1154D01*
X1282Y1154D01*
G37*
D02*
G36*
X1194Y1150D02*
X1194Y1124D01*
X1196Y1124D01*
X1196Y822D01*
X1198Y822D01*
X1198Y726D01*
X1200Y726D01*
X1200Y724D01*
X1202Y724D01*
X1202Y722D01*
X1204Y722D01*
X1204Y720D01*
X1206Y720D01*
X1206Y718D01*
X1208Y718D01*
X1208Y716D01*
X1210Y716D01*
X1210Y714D01*
X1212Y714D01*
X1212Y712D01*
X1214Y712D01*
X1214Y710D01*
X1216Y710D01*
X1216Y708D01*
X1218Y708D01*
X1218Y706D01*
X1222Y706D01*
X1222Y704D01*
X1224Y704D01*
X1224Y702D01*
X1226Y702D01*
X1226Y700D01*
X1228Y700D01*
X1228Y698D01*
X1230Y698D01*
X1230Y696D01*
X1232Y696D01*
X1232Y694D01*
X1234Y694D01*
X1234Y692D01*
X1236Y692D01*
X1236Y690D01*
X1238Y690D01*
X1238Y688D01*
X1240Y688D01*
X1240Y686D01*
X1242Y686D01*
X1242Y684D01*
X1246Y684D01*
X1246Y682D01*
X1248Y682D01*
X1248Y680D01*
X1268Y680D01*
X1268Y1082D01*
X1266Y1082D01*
X1266Y1084D01*
X1264Y1084D01*
X1264Y1086D01*
X1262Y1086D01*
X1262Y1090D01*
X1260Y1090D01*
X1260Y1092D01*
X1258Y1092D01*
X1258Y1094D01*
X1256Y1094D01*
X1256Y1096D01*
X1254Y1096D01*
X1254Y1100D01*
X1252Y1100D01*
X1252Y1102D01*
X1250Y1102D01*
X1250Y1104D01*
X1248Y1104D01*
X1248Y1108D01*
X1246Y1108D01*
X1246Y1110D01*
X1244Y1110D01*
X1244Y1112D01*
X1242Y1112D01*
X1242Y1114D01*
X1240Y1114D01*
X1240Y1118D01*
X1238Y1118D01*
X1238Y1120D01*
X1236Y1120D01*
X1236Y1122D01*
X1234Y1122D01*
X1234Y1124D01*
X1232Y1124D01*
X1232Y1128D01*
X1230Y1128D01*
X1230Y1130D01*
X1228Y1130D01*
X1228Y1132D01*
X1226Y1132D01*
X1226Y1136D01*
X1224Y1136D01*
X1224Y1138D01*
X1222Y1138D01*
X1222Y1140D01*
X1220Y1140D01*
X1220Y1142D01*
X1218Y1142D01*
X1218Y1146D01*
X1216Y1146D01*
X1216Y1148D01*
X1214Y1148D01*
X1214Y1150D01*
X1194Y1150D01*
G37*
D02*
G36*
X912Y962D02*
X912Y890D01*
X932Y890D01*
X932Y892D01*
X934Y892D01*
X934Y894D01*
X936Y894D01*
X936Y896D01*
X938Y896D01*
X938Y898D01*
X940Y898D01*
X940Y900D01*
X942Y900D01*
X942Y902D01*
X944Y902D01*
X944Y904D01*
X946Y904D01*
X946Y906D01*
X948Y906D01*
X948Y908D01*
X950Y908D01*
X950Y910D01*
X952Y910D01*
X952Y912D01*
X954Y912D01*
X954Y914D01*
X956Y914D01*
X956Y916D01*
X958Y916D01*
X958Y918D01*
X960Y918D01*
X960Y920D01*
X962Y920D01*
X962Y922D01*
X964Y922D01*
X964Y924D01*
X966Y924D01*
X966Y926D01*
X968Y926D01*
X968Y928D01*
X970Y928D01*
X970Y930D01*
X972Y930D01*
X972Y932D01*
X974Y932D01*
X974Y934D01*
X976Y934D01*
X976Y962D01*
X912Y962D01*
G37*
D02*
G36*
X1278Y672D02*
X1278Y652D01*
X1280Y652D01*
X1280Y650D01*
X1282Y650D01*
X1282Y648D01*
X1284Y648D01*
X1284Y646D01*
X1286Y646D01*
X1286Y644D01*
X1288Y644D01*
X1288Y642D01*
X1290Y642D01*
X1290Y640D01*
X1294Y640D01*
X1294Y638D01*
X1296Y638D01*
X1296Y636D01*
X1298Y636D01*
X1298Y634D01*
X1300Y634D01*
X1300Y630D01*
X1302Y630D01*
X1302Y628D01*
X1594Y628D01*
X1594Y672D01*
X1278Y672D01*
G37*
D02*
G36*
X294Y1810D02*
X294Y1790D01*
X298Y1790D01*
X298Y1788D01*
X300Y1788D01*
X300Y1786D01*
X302Y1786D01*
X302Y1784D01*
X304Y1784D01*
X304Y1782D01*
X306Y1782D01*
X306Y1780D01*
X308Y1780D01*
X308Y1778D01*
X310Y1778D01*
X310Y1776D01*
X312Y1776D01*
X312Y1774D01*
X314Y1774D01*
X314Y1772D01*
X316Y1772D01*
X316Y1770D01*
X318Y1770D01*
X318Y1768D01*
X320Y1768D01*
X320Y1766D01*
X322Y1766D01*
X322Y1764D01*
X324Y1764D01*
X324Y1762D01*
X326Y1762D01*
X326Y1760D01*
X328Y1760D01*
X328Y1758D01*
X332Y1758D01*
X332Y1756D01*
X334Y1756D01*
X334Y1754D01*
X336Y1754D01*
X336Y1752D01*
X338Y1752D01*
X338Y1750D01*
X340Y1750D01*
X340Y1748D01*
X342Y1748D01*
X342Y1746D01*
X344Y1746D01*
X344Y1744D01*
X346Y1744D01*
X346Y1742D01*
X348Y1742D01*
X348Y1740D01*
X416Y1740D01*
X416Y1738D01*
X422Y1738D01*
X422Y1736D01*
X428Y1736D01*
X428Y1734D01*
X432Y1734D01*
X432Y1732D01*
X436Y1732D01*
X436Y1730D01*
X440Y1730D01*
X440Y1728D01*
X444Y1728D01*
X444Y1726D01*
X446Y1726D01*
X446Y1724D01*
X448Y1724D01*
X448Y1722D01*
X450Y1722D01*
X450Y1720D01*
X454Y1720D01*
X454Y1718D01*
X456Y1718D01*
X456Y1716D01*
X458Y1716D01*
X458Y1714D01*
X460Y1714D01*
X460Y1710D01*
X546Y1710D01*
X546Y1712D01*
X538Y1712D01*
X538Y1714D01*
X534Y1714D01*
X534Y1716D01*
X530Y1716D01*
X530Y1718D01*
X526Y1718D01*
X526Y1720D01*
X524Y1720D01*
X524Y1722D01*
X522Y1722D01*
X522Y1724D01*
X520Y1724D01*
X520Y1726D01*
X518Y1726D01*
X518Y1728D01*
X516Y1728D01*
X516Y1730D01*
X514Y1730D01*
X514Y1732D01*
X512Y1732D01*
X512Y1734D01*
X510Y1734D01*
X510Y1738D01*
X508Y1738D01*
X508Y1742D01*
X506Y1742D01*
X506Y1746D01*
X504Y1746D01*
X504Y1752D01*
X502Y1752D01*
X502Y1776D01*
X504Y1776D01*
X504Y1782D01*
X506Y1782D01*
X506Y1786D01*
X508Y1786D01*
X508Y1790D01*
X510Y1790D01*
X510Y1810D01*
X294Y1810D01*
G37*
D02*
G36*
X600Y1810D02*
X600Y1788D01*
X602Y1788D01*
X602Y1786D01*
X604Y1786D01*
X604Y1780D01*
X606Y1780D01*
X606Y1774D01*
X608Y1774D01*
X608Y1754D01*
X606Y1754D01*
X606Y1746D01*
X604Y1746D01*
X604Y1742D01*
X602Y1742D01*
X602Y1738D01*
X600Y1738D01*
X600Y1734D01*
X598Y1734D01*
X598Y1732D01*
X596Y1732D01*
X596Y1730D01*
X594Y1730D01*
X594Y1728D01*
X592Y1728D01*
X592Y1726D01*
X590Y1726D01*
X590Y1724D01*
X588Y1724D01*
X588Y1722D01*
X586Y1722D01*
X586Y1720D01*
X582Y1720D01*
X582Y1718D01*
X580Y1718D01*
X580Y1716D01*
X576Y1716D01*
X576Y1714D01*
X570Y1714D01*
X570Y1712D01*
X562Y1712D01*
X562Y1710D01*
X658Y1710D01*
X658Y1810D01*
X600Y1810D01*
G37*
D02*
G36*
X758Y1810D02*
X758Y1702D01*
X836Y1702D01*
X836Y1704D01*
X830Y1704D01*
X830Y1706D01*
X826Y1706D01*
X826Y1708D01*
X824Y1708D01*
X824Y1710D01*
X820Y1710D01*
X820Y1712D01*
X818Y1712D01*
X818Y1714D01*
X814Y1714D01*
X814Y1716D01*
X812Y1716D01*
X812Y1718D01*
X810Y1718D01*
X810Y1722D01*
X808Y1722D01*
X808Y1724D01*
X806Y1724D01*
X806Y1726D01*
X804Y1726D01*
X804Y1730D01*
X802Y1730D01*
X802Y1734D01*
X800Y1734D01*
X800Y1738D01*
X798Y1738D01*
X798Y1746D01*
X796Y1746D01*
X796Y1756D01*
X798Y1756D01*
X798Y1764D01*
X800Y1764D01*
X800Y1770D01*
X802Y1770D01*
X802Y1774D01*
X804Y1774D01*
X804Y1776D01*
X806Y1776D01*
X806Y1780D01*
X808Y1780D01*
X808Y1782D01*
X810Y1782D01*
X810Y1784D01*
X812Y1784D01*
X812Y1786D01*
X814Y1786D01*
X814Y1788D01*
X816Y1788D01*
X816Y1790D01*
X818Y1790D01*
X818Y1810D01*
X758Y1810D01*
G37*
D02*
G36*
X192Y1752D02*
X192Y1732D01*
X196Y1732D01*
X196Y1730D01*
X200Y1730D01*
X200Y1728D01*
X204Y1728D01*
X204Y1726D01*
X206Y1726D01*
X206Y1724D01*
X208Y1724D01*
X208Y1722D01*
X210Y1722D01*
X210Y1720D01*
X214Y1720D01*
X214Y1718D01*
X216Y1718D01*
X216Y1716D01*
X218Y1716D01*
X218Y1714D01*
X220Y1714D01*
X220Y1710D01*
X222Y1710D01*
X222Y1708D01*
X224Y1708D01*
X224Y1706D01*
X226Y1706D01*
X226Y1704D01*
X228Y1704D01*
X228Y1700D01*
X230Y1700D01*
X230Y1696D01*
X232Y1696D01*
X232Y1692D01*
X234Y1692D01*
X234Y1688D01*
X236Y1688D01*
X236Y1684D01*
X238Y1684D01*
X238Y1676D01*
X240Y1676D01*
X240Y1646D01*
X238Y1646D01*
X238Y1638D01*
X236Y1638D01*
X236Y1632D01*
X234Y1632D01*
X234Y1628D01*
X232Y1628D01*
X232Y1624D01*
X230Y1624D01*
X230Y1622D01*
X228Y1622D01*
X228Y1618D01*
X226Y1618D01*
X226Y1616D01*
X224Y1616D01*
X224Y1612D01*
X222Y1612D01*
X222Y1610D01*
X220Y1610D01*
X220Y1608D01*
X218Y1608D01*
X218Y1606D01*
X216Y1606D01*
X216Y1604D01*
X214Y1604D01*
X214Y1602D01*
X212Y1602D01*
X212Y1600D01*
X210Y1600D01*
X210Y1598D01*
X206Y1598D01*
X206Y1596D01*
X204Y1596D01*
X204Y1594D01*
X202Y1594D01*
X202Y1592D01*
X198Y1592D01*
X198Y1590D01*
X194Y1590D01*
X194Y1588D01*
X190Y1588D01*
X190Y1586D01*
X186Y1586D01*
X186Y1584D01*
X178Y1584D01*
X178Y1582D01*
X168Y1582D01*
X168Y1580D01*
X394Y1580D01*
X394Y1582D01*
X384Y1582D01*
X384Y1584D01*
X376Y1584D01*
X376Y1586D01*
X372Y1586D01*
X372Y1588D01*
X368Y1588D01*
X368Y1590D01*
X364Y1590D01*
X364Y1592D01*
X360Y1592D01*
X360Y1594D01*
X358Y1594D01*
X358Y1596D01*
X354Y1596D01*
X354Y1598D01*
X352Y1598D01*
X352Y1600D01*
X350Y1600D01*
X350Y1602D01*
X348Y1602D01*
X348Y1604D01*
X346Y1604D01*
X346Y1606D01*
X344Y1606D01*
X344Y1608D01*
X342Y1608D01*
X342Y1610D01*
X340Y1610D01*
X340Y1612D01*
X338Y1612D01*
X338Y1614D01*
X336Y1614D01*
X336Y1618D01*
X334Y1618D01*
X334Y1620D01*
X332Y1620D01*
X332Y1624D01*
X330Y1624D01*
X330Y1628D01*
X328Y1628D01*
X328Y1632D01*
X326Y1632D01*
X326Y1636D01*
X324Y1636D01*
X324Y1644D01*
X322Y1644D01*
X322Y1656D01*
X320Y1656D01*
X320Y1664D01*
X322Y1664D01*
X322Y1678D01*
X324Y1678D01*
X324Y1704D01*
X322Y1704D01*
X322Y1706D01*
X320Y1706D01*
X320Y1708D01*
X318Y1708D01*
X318Y1710D01*
X316Y1710D01*
X316Y1712D01*
X314Y1712D01*
X314Y1714D01*
X312Y1714D01*
X312Y1716D01*
X310Y1716D01*
X310Y1718D01*
X308Y1718D01*
X308Y1720D01*
X306Y1720D01*
X306Y1722D01*
X302Y1722D01*
X302Y1724D01*
X300Y1724D01*
X300Y1726D01*
X298Y1726D01*
X298Y1728D01*
X296Y1728D01*
X296Y1730D01*
X294Y1730D01*
X294Y1732D01*
X292Y1732D01*
X292Y1734D01*
X290Y1734D01*
X290Y1736D01*
X288Y1736D01*
X288Y1738D01*
X286Y1738D01*
X286Y1740D01*
X284Y1740D01*
X284Y1742D01*
X282Y1742D01*
X282Y1744D01*
X280Y1744D01*
X280Y1746D01*
X278Y1746D01*
X278Y1748D01*
X276Y1748D01*
X276Y1750D01*
X274Y1750D01*
X274Y1752D01*
X192Y1752D01*
G37*
D02*
G36*
X350Y1740D02*
X350Y1738D01*
X352Y1738D01*
X352Y1736D01*
X354Y1736D01*
X354Y1734D01*
X374Y1734D01*
X374Y1736D01*
X378Y1736D01*
X378Y1738D01*
X386Y1738D01*
X386Y1740D01*
X350Y1740D01*
G37*
D02*
G36*
X462Y1710D02*
X462Y1708D01*
X658Y1708D01*
X658Y1710D01*
X462Y1710D01*
G37*
D02*
G36*
X462Y1710D02*
X462Y1708D01*
X658Y1708D01*
X658Y1710D01*
X462Y1710D01*
G37*
D02*
G36*
X464Y1708D02*
X464Y1706D01*
X466Y1706D01*
X466Y1704D01*
X468Y1704D01*
X468Y1702D01*
X658Y1702D01*
X658Y1708D01*
X464Y1708D01*
G37*
D02*
G36*
X468Y1702D02*
X468Y1700D01*
X862Y1700D01*
X862Y1702D01*
X468Y1702D01*
G37*
D02*
G36*
X468Y1702D02*
X468Y1700D01*
X862Y1700D01*
X862Y1702D01*
X468Y1702D01*
G37*
D02*
G36*
X470Y1700D02*
X470Y1696D01*
X472Y1696D01*
X472Y1692D01*
X474Y1692D01*
X474Y1688D01*
X476Y1688D01*
X476Y1684D01*
X478Y1684D01*
X478Y1676D01*
X480Y1676D01*
X480Y1646D01*
X478Y1646D01*
X478Y1638D01*
X476Y1638D01*
X476Y1632D01*
X474Y1632D01*
X474Y1628D01*
X822Y1628D01*
X822Y1626D01*
X828Y1626D01*
X828Y1624D01*
X834Y1624D01*
X834Y1622D01*
X836Y1622D01*
X836Y1620D01*
X840Y1620D01*
X840Y1618D01*
X842Y1618D01*
X842Y1616D01*
X844Y1616D01*
X844Y1614D01*
X848Y1614D01*
X848Y1610D01*
X850Y1610D01*
X850Y1608D01*
X852Y1608D01*
X852Y1606D01*
X854Y1606D01*
X854Y1602D01*
X856Y1602D01*
X856Y1600D01*
X858Y1600D01*
X858Y1594D01*
X860Y1594D01*
X860Y1588D01*
X862Y1588D01*
X862Y1572D01*
X860Y1572D01*
X860Y1566D01*
X858Y1566D01*
X858Y1562D01*
X856Y1562D01*
X856Y1558D01*
X854Y1558D01*
X854Y1556D01*
X852Y1556D01*
X852Y1552D01*
X850Y1552D01*
X850Y1550D01*
X848Y1550D01*
X848Y1548D01*
X846Y1548D01*
X846Y1546D01*
X844Y1546D01*
X844Y1544D01*
X842Y1544D01*
X842Y1542D01*
X838Y1542D01*
X838Y1540D01*
X834Y1540D01*
X834Y1538D01*
X832Y1538D01*
X832Y1536D01*
X826Y1536D01*
X826Y1534D01*
X1108Y1534D01*
X1108Y1536D01*
X1106Y1536D01*
X1106Y1538D01*
X1104Y1538D01*
X1104Y1540D01*
X1102Y1540D01*
X1102Y1542D01*
X1100Y1542D01*
X1100Y1544D01*
X1098Y1544D01*
X1098Y1546D01*
X1096Y1546D01*
X1096Y1548D01*
X1094Y1548D01*
X1094Y1550D01*
X1092Y1550D01*
X1092Y1552D01*
X1090Y1552D01*
X1090Y1554D01*
X1088Y1554D01*
X1088Y1556D01*
X1086Y1556D01*
X1086Y1558D01*
X1084Y1558D01*
X1084Y1560D01*
X1082Y1560D01*
X1082Y1562D01*
X1080Y1562D01*
X1080Y1564D01*
X1078Y1564D01*
X1078Y1566D01*
X1076Y1566D01*
X1076Y1568D01*
X1074Y1568D01*
X1074Y1570D01*
X1072Y1570D01*
X1072Y1572D01*
X1070Y1572D01*
X1070Y1574D01*
X1068Y1574D01*
X1068Y1576D01*
X1066Y1576D01*
X1066Y1578D01*
X1064Y1578D01*
X1064Y1580D01*
X1062Y1580D01*
X1062Y1582D01*
X1060Y1582D01*
X1060Y1584D01*
X1058Y1584D01*
X1058Y1586D01*
X1056Y1586D01*
X1056Y1588D01*
X1054Y1588D01*
X1054Y1590D01*
X1052Y1590D01*
X1052Y1592D01*
X1050Y1592D01*
X1050Y1594D01*
X1048Y1594D01*
X1048Y1596D01*
X1046Y1596D01*
X1046Y1598D01*
X1044Y1598D01*
X1044Y1600D01*
X1042Y1600D01*
X1042Y1602D01*
X1040Y1602D01*
X1040Y1604D01*
X1038Y1604D01*
X1038Y1606D01*
X1036Y1606D01*
X1036Y1608D01*
X1034Y1608D01*
X1034Y1610D01*
X1032Y1610D01*
X1032Y1612D01*
X1030Y1612D01*
X1030Y1614D01*
X1028Y1614D01*
X1028Y1616D01*
X1026Y1616D01*
X1026Y1618D01*
X1024Y1618D01*
X1024Y1620D01*
X1022Y1620D01*
X1022Y1622D01*
X1020Y1622D01*
X1020Y1624D01*
X1018Y1624D01*
X1018Y1626D01*
X1016Y1626D01*
X1016Y1628D01*
X1014Y1628D01*
X1014Y1630D01*
X1012Y1630D01*
X1012Y1632D01*
X1010Y1632D01*
X1010Y1634D01*
X1008Y1634D01*
X1008Y1636D01*
X1006Y1636D01*
X1006Y1638D01*
X1004Y1638D01*
X1004Y1640D01*
X1002Y1640D01*
X1002Y1642D01*
X1000Y1642D01*
X1000Y1644D01*
X914Y1644D01*
X914Y1646D01*
X910Y1646D01*
X910Y1648D01*
X906Y1648D01*
X906Y1650D01*
X904Y1650D01*
X904Y1652D01*
X902Y1652D01*
X902Y1654D01*
X900Y1654D01*
X900Y1656D01*
X898Y1656D01*
X898Y1660D01*
X896Y1660D01*
X896Y1662D01*
X894Y1662D01*
X894Y1664D01*
X892Y1664D01*
X892Y1666D01*
X890Y1666D01*
X890Y1668D01*
X888Y1668D01*
X888Y1670D01*
X886Y1670D01*
X886Y1674D01*
X884Y1674D01*
X884Y1676D01*
X882Y1676D01*
X882Y1678D01*
X880Y1678D01*
X880Y1680D01*
X878Y1680D01*
X878Y1682D01*
X876Y1682D01*
X876Y1684D01*
X874Y1684D01*
X874Y1688D01*
X872Y1688D01*
X872Y1690D01*
X870Y1690D01*
X870Y1692D01*
X868Y1692D01*
X868Y1694D01*
X866Y1694D01*
X866Y1696D01*
X864Y1696D01*
X864Y1698D01*
X862Y1698D01*
X862Y1700D01*
X470Y1700D01*
G37*
D02*
G36*
X70Y1628D02*
X70Y1580D01*
X154Y1580D01*
X154Y1582D01*
X144Y1582D01*
X144Y1584D01*
X136Y1584D01*
X136Y1586D01*
X132Y1586D01*
X132Y1588D01*
X128Y1588D01*
X128Y1590D01*
X124Y1590D01*
X124Y1592D01*
X120Y1592D01*
X120Y1594D01*
X118Y1594D01*
X118Y1596D01*
X114Y1596D01*
X114Y1598D01*
X112Y1598D01*
X112Y1600D01*
X110Y1600D01*
X110Y1602D01*
X108Y1602D01*
X108Y1604D01*
X106Y1604D01*
X106Y1606D01*
X104Y1606D01*
X104Y1608D01*
X102Y1608D01*
X102Y1610D01*
X100Y1610D01*
X100Y1612D01*
X98Y1612D01*
X98Y1614D01*
X96Y1614D01*
X96Y1618D01*
X94Y1618D01*
X94Y1620D01*
X92Y1620D01*
X92Y1624D01*
X90Y1624D01*
X90Y1628D01*
X70Y1628D01*
G37*
D02*
G36*
X472Y1628D02*
X472Y1624D01*
X470Y1624D01*
X470Y1622D01*
X468Y1622D01*
X468Y1618D01*
X466Y1618D01*
X466Y1616D01*
X464Y1616D01*
X464Y1612D01*
X462Y1612D01*
X462Y1610D01*
X460Y1610D01*
X460Y1608D01*
X458Y1608D01*
X458Y1606D01*
X456Y1606D01*
X456Y1604D01*
X454Y1604D01*
X454Y1602D01*
X452Y1602D01*
X452Y1600D01*
X450Y1600D01*
X450Y1598D01*
X446Y1598D01*
X446Y1596D01*
X444Y1596D01*
X444Y1594D01*
X442Y1594D01*
X442Y1592D01*
X438Y1592D01*
X438Y1590D01*
X434Y1590D01*
X434Y1588D01*
X430Y1588D01*
X430Y1586D01*
X426Y1586D01*
X426Y1584D01*
X418Y1584D01*
X418Y1582D01*
X408Y1582D01*
X408Y1580D01*
X512Y1580D01*
X512Y1592D01*
X514Y1592D01*
X514Y1598D01*
X516Y1598D01*
X516Y1602D01*
X518Y1602D01*
X518Y1604D01*
X520Y1604D01*
X520Y1608D01*
X522Y1608D01*
X522Y1610D01*
X524Y1610D01*
X524Y1612D01*
X526Y1612D01*
X526Y1614D01*
X528Y1614D01*
X528Y1616D01*
X530Y1616D01*
X530Y1618D01*
X534Y1618D01*
X534Y1620D01*
X536Y1620D01*
X536Y1622D01*
X540Y1622D01*
X540Y1624D01*
X544Y1624D01*
X544Y1626D01*
X550Y1626D01*
X550Y1628D01*
X472Y1628D01*
G37*
D02*
G36*
X568Y1628D02*
X568Y1626D01*
X572Y1626D01*
X572Y1624D01*
X578Y1624D01*
X578Y1622D01*
X580Y1622D01*
X580Y1620D01*
X584Y1620D01*
X584Y1618D01*
X586Y1618D01*
X586Y1616D01*
X588Y1616D01*
X588Y1614D01*
X592Y1614D01*
X592Y1610D01*
X594Y1610D01*
X594Y1608D01*
X596Y1608D01*
X596Y1606D01*
X598Y1606D01*
X598Y1602D01*
X600Y1602D01*
X600Y1600D01*
X602Y1600D01*
X602Y1594D01*
X604Y1594D01*
X604Y1590D01*
X606Y1590D01*
X606Y1572D01*
X604Y1572D01*
X604Y1566D01*
X602Y1566D01*
X602Y1562D01*
X600Y1562D01*
X600Y1558D01*
X598Y1558D01*
X598Y1554D01*
X596Y1554D01*
X596Y1552D01*
X594Y1552D01*
X594Y1550D01*
X592Y1550D01*
X592Y1548D01*
X590Y1548D01*
X590Y1546D01*
X588Y1546D01*
X588Y1544D01*
X586Y1544D01*
X586Y1542D01*
X582Y1542D01*
X582Y1540D01*
X580Y1540D01*
X580Y1538D01*
X576Y1538D01*
X576Y1536D01*
X570Y1536D01*
X570Y1534D01*
X804Y1534D01*
X804Y1536D01*
X798Y1536D01*
X798Y1538D01*
X794Y1538D01*
X794Y1540D01*
X790Y1540D01*
X790Y1542D01*
X788Y1542D01*
X788Y1544D01*
X786Y1544D01*
X786Y1546D01*
X784Y1546D01*
X784Y1548D01*
X782Y1548D01*
X782Y1550D01*
X780Y1550D01*
X780Y1552D01*
X778Y1552D01*
X778Y1554D01*
X776Y1554D01*
X776Y1556D01*
X774Y1556D01*
X774Y1560D01*
X772Y1560D01*
X772Y1564D01*
X770Y1564D01*
X770Y1570D01*
X768Y1570D01*
X768Y1580D01*
X766Y1580D01*
X766Y1582D01*
X768Y1582D01*
X768Y1592D01*
X770Y1592D01*
X770Y1598D01*
X772Y1598D01*
X772Y1602D01*
X774Y1602D01*
X774Y1604D01*
X776Y1604D01*
X776Y1608D01*
X778Y1608D01*
X778Y1610D01*
X780Y1610D01*
X780Y1612D01*
X782Y1612D01*
X782Y1614D01*
X784Y1614D01*
X784Y1616D01*
X786Y1616D01*
X786Y1618D01*
X788Y1618D01*
X788Y1620D01*
X792Y1620D01*
X792Y1622D01*
X796Y1622D01*
X796Y1624D01*
X800Y1624D01*
X800Y1626D01*
X806Y1626D01*
X806Y1628D01*
X568Y1628D01*
G37*
D02*
G36*
X70Y1580D02*
X70Y1578D01*
X512Y1578D01*
X512Y1580D01*
X70Y1580D01*
G37*
D02*
G36*
X70Y1580D02*
X70Y1578D01*
X512Y1578D01*
X512Y1580D01*
X70Y1580D01*
G37*
D02*
G36*
X70Y1580D02*
X70Y1578D01*
X512Y1578D01*
X512Y1580D01*
X70Y1580D01*
G37*
D02*
G36*
X70Y1578D02*
X70Y1550D01*
X296Y1550D01*
X296Y1548D01*
X302Y1548D01*
X302Y1546D01*
X308Y1546D01*
X308Y1544D01*
X312Y1544D01*
X312Y1542D01*
X316Y1542D01*
X316Y1540D01*
X320Y1540D01*
X320Y1538D01*
X324Y1538D01*
X324Y1536D01*
X326Y1536D01*
X326Y1534D01*
X548Y1534D01*
X548Y1536D01*
X542Y1536D01*
X542Y1538D01*
X538Y1538D01*
X538Y1540D01*
X534Y1540D01*
X534Y1542D01*
X532Y1542D01*
X532Y1544D01*
X530Y1544D01*
X530Y1546D01*
X528Y1546D01*
X528Y1548D01*
X526Y1548D01*
X526Y1550D01*
X524Y1550D01*
X524Y1552D01*
X522Y1552D01*
X522Y1554D01*
X520Y1554D01*
X520Y1556D01*
X518Y1556D01*
X518Y1560D01*
X516Y1560D01*
X516Y1564D01*
X514Y1564D01*
X514Y1570D01*
X512Y1570D01*
X512Y1578D01*
X70Y1578D01*
G37*
D02*
G36*
X70Y1550D02*
X70Y1390D01*
X274Y1390D01*
X274Y1392D01*
X264Y1392D01*
X264Y1394D01*
X256Y1394D01*
X256Y1396D01*
X252Y1396D01*
X252Y1398D01*
X248Y1398D01*
X248Y1400D01*
X244Y1400D01*
X244Y1402D01*
X240Y1402D01*
X240Y1404D01*
X238Y1404D01*
X238Y1406D01*
X234Y1406D01*
X234Y1408D01*
X232Y1408D01*
X232Y1410D01*
X230Y1410D01*
X230Y1412D01*
X228Y1412D01*
X228Y1414D01*
X226Y1414D01*
X226Y1416D01*
X224Y1416D01*
X224Y1418D01*
X222Y1418D01*
X222Y1420D01*
X220Y1420D01*
X220Y1422D01*
X218Y1422D01*
X218Y1424D01*
X216Y1424D01*
X216Y1428D01*
X214Y1428D01*
X214Y1430D01*
X212Y1430D01*
X212Y1434D01*
X210Y1434D01*
X210Y1438D01*
X208Y1438D01*
X208Y1442D01*
X206Y1442D01*
X206Y1446D01*
X204Y1446D01*
X204Y1454D01*
X202Y1454D01*
X202Y1466D01*
X200Y1466D01*
X200Y1474D01*
X202Y1474D01*
X202Y1488D01*
X204Y1488D01*
X204Y1494D01*
X206Y1494D01*
X206Y1500D01*
X208Y1500D01*
X208Y1504D01*
X210Y1504D01*
X210Y1508D01*
X212Y1508D01*
X212Y1510D01*
X214Y1510D01*
X214Y1514D01*
X216Y1514D01*
X216Y1516D01*
X218Y1516D01*
X218Y1520D01*
X220Y1520D01*
X220Y1522D01*
X222Y1522D01*
X222Y1524D01*
X224Y1524D01*
X224Y1526D01*
X226Y1526D01*
X226Y1528D01*
X228Y1528D01*
X228Y1530D01*
X230Y1530D01*
X230Y1532D01*
X234Y1532D01*
X234Y1534D01*
X236Y1534D01*
X236Y1536D01*
X238Y1536D01*
X238Y1538D01*
X242Y1538D01*
X242Y1540D01*
X246Y1540D01*
X246Y1542D01*
X250Y1542D01*
X250Y1544D01*
X254Y1544D01*
X254Y1546D01*
X258Y1546D01*
X258Y1548D01*
X266Y1548D01*
X266Y1550D01*
X70Y1550D01*
G37*
D02*
G36*
X328Y1534D02*
X328Y1532D01*
X1110Y1532D01*
X1110Y1534D01*
X328Y1534D01*
G37*
D02*
G36*
X328Y1534D02*
X328Y1532D01*
X1110Y1532D01*
X1110Y1534D01*
X328Y1534D01*
G37*
D02*
G36*
X328Y1534D02*
X328Y1532D01*
X1110Y1532D01*
X1110Y1534D01*
X328Y1534D01*
G37*
D02*
G36*
X330Y1532D02*
X330Y1530D01*
X334Y1530D01*
X334Y1528D01*
X336Y1528D01*
X336Y1526D01*
X338Y1526D01*
X338Y1524D01*
X340Y1524D01*
X340Y1520D01*
X342Y1520D01*
X342Y1518D01*
X344Y1518D01*
X344Y1516D01*
X346Y1516D01*
X346Y1514D01*
X348Y1514D01*
X348Y1510D01*
X350Y1510D01*
X350Y1506D01*
X352Y1506D01*
X352Y1504D01*
X1066Y1504D01*
X1066Y1444D01*
X1020Y1444D01*
X1020Y1422D01*
X1018Y1422D01*
X1018Y1418D01*
X1016Y1418D01*
X1016Y1414D01*
X1014Y1414D01*
X1014Y1412D01*
X1012Y1412D01*
X1012Y1410D01*
X1010Y1410D01*
X1010Y1408D01*
X1008Y1408D01*
X1008Y1406D01*
X1006Y1406D01*
X1006Y1404D01*
X1004Y1404D01*
X1004Y1402D01*
X1002Y1402D01*
X1002Y1400D01*
X1000Y1400D01*
X1000Y1398D01*
X996Y1398D01*
X996Y1396D01*
X994Y1396D01*
X994Y1394D01*
X992Y1394D01*
X992Y1392D01*
X990Y1392D01*
X990Y1390D01*
X988Y1390D01*
X988Y1388D01*
X986Y1388D01*
X986Y1386D01*
X984Y1386D01*
X984Y1384D01*
X982Y1384D01*
X982Y1382D01*
X980Y1382D01*
X980Y1380D01*
X978Y1380D01*
X978Y1378D01*
X976Y1378D01*
X976Y1376D01*
X974Y1376D01*
X974Y1374D01*
X972Y1374D01*
X972Y1372D01*
X970Y1372D01*
X970Y1370D01*
X968Y1370D01*
X968Y1368D01*
X966Y1368D01*
X966Y1366D01*
X964Y1366D01*
X964Y1364D01*
X962Y1364D01*
X962Y1362D01*
X958Y1362D01*
X958Y1360D01*
X956Y1360D01*
X956Y1358D01*
X954Y1358D01*
X954Y1356D01*
X952Y1356D01*
X952Y1354D01*
X950Y1354D01*
X950Y1352D01*
X948Y1352D01*
X948Y1350D01*
X946Y1350D01*
X946Y1348D01*
X944Y1348D01*
X944Y1346D01*
X942Y1346D01*
X942Y1344D01*
X940Y1344D01*
X940Y1342D01*
X938Y1342D01*
X938Y1340D01*
X936Y1340D01*
X936Y1338D01*
X934Y1338D01*
X934Y1336D01*
X932Y1336D01*
X932Y1334D01*
X930Y1334D01*
X930Y1332D01*
X928Y1332D01*
X928Y1330D01*
X926Y1330D01*
X926Y1328D01*
X924Y1328D01*
X924Y1326D01*
X920Y1326D01*
X920Y1324D01*
X918Y1324D01*
X918Y1322D01*
X916Y1322D01*
X916Y1320D01*
X914Y1320D01*
X914Y1318D01*
X912Y1318D01*
X912Y1306D01*
X1066Y1306D01*
X1066Y1248D01*
X912Y1248D01*
X912Y1022D01*
X1066Y1022D01*
X1066Y962D01*
X1020Y962D01*
X1020Y918D01*
X1018Y918D01*
X1018Y914D01*
X1016Y914D01*
X1016Y910D01*
X1014Y910D01*
X1014Y908D01*
X1012Y908D01*
X1012Y906D01*
X1010Y906D01*
X1010Y904D01*
X1008Y904D01*
X1008Y902D01*
X1006Y902D01*
X1006Y900D01*
X1004Y900D01*
X1004Y898D01*
X1002Y898D01*
X1002Y896D01*
X1000Y896D01*
X1000Y894D01*
X998Y894D01*
X998Y892D01*
X996Y892D01*
X996Y890D01*
X994Y890D01*
X994Y888D01*
X990Y888D01*
X990Y886D01*
X988Y886D01*
X988Y884D01*
X986Y884D01*
X986Y882D01*
X984Y882D01*
X984Y880D01*
X982Y880D01*
X982Y878D01*
X980Y878D01*
X980Y876D01*
X978Y876D01*
X978Y874D01*
X976Y874D01*
X976Y872D01*
X974Y872D01*
X974Y870D01*
X972Y870D01*
X972Y868D01*
X970Y868D01*
X970Y866D01*
X968Y866D01*
X968Y864D01*
X966Y864D01*
X966Y862D01*
X964Y862D01*
X964Y860D01*
X962Y860D01*
X962Y858D01*
X960Y858D01*
X960Y856D01*
X958Y856D01*
X958Y854D01*
X956Y854D01*
X956Y852D01*
X954Y852D01*
X954Y850D01*
X952Y850D01*
X952Y848D01*
X950Y848D01*
X950Y846D01*
X948Y846D01*
X948Y844D01*
X946Y844D01*
X946Y824D01*
X1066Y824D01*
X1066Y766D01*
X1154Y766D01*
X1154Y820D01*
X1152Y820D01*
X1152Y1122D01*
X1150Y1122D01*
X1150Y1426D01*
X1148Y1426D01*
X1148Y1496D01*
X1146Y1496D01*
X1146Y1498D01*
X1144Y1498D01*
X1144Y1500D01*
X1142Y1500D01*
X1142Y1502D01*
X1140Y1502D01*
X1140Y1504D01*
X1138Y1504D01*
X1138Y1506D01*
X1136Y1506D01*
X1136Y1508D01*
X1134Y1508D01*
X1134Y1510D01*
X1132Y1510D01*
X1132Y1512D01*
X1130Y1512D01*
X1130Y1514D01*
X1128Y1514D01*
X1128Y1516D01*
X1126Y1516D01*
X1126Y1518D01*
X1124Y1518D01*
X1124Y1520D01*
X1122Y1520D01*
X1122Y1522D01*
X1120Y1522D01*
X1120Y1524D01*
X1118Y1524D01*
X1118Y1526D01*
X1116Y1526D01*
X1116Y1528D01*
X1114Y1528D01*
X1114Y1530D01*
X1112Y1530D01*
X1112Y1532D01*
X330Y1532D01*
G37*
D02*
G36*
X352Y1504D02*
X352Y1502D01*
X354Y1502D01*
X354Y1498D01*
X356Y1498D01*
X356Y1494D01*
X358Y1494D01*
X358Y1486D01*
X360Y1486D01*
X360Y1456D01*
X358Y1456D01*
X358Y1450D01*
X826Y1450D01*
X826Y1448D01*
X832Y1448D01*
X832Y1446D01*
X834Y1446D01*
X834Y1444D01*
X838Y1444D01*
X838Y1442D01*
X842Y1442D01*
X842Y1440D01*
X844Y1440D01*
X844Y1438D01*
X846Y1438D01*
X846Y1436D01*
X848Y1436D01*
X848Y1434D01*
X850Y1434D01*
X850Y1432D01*
X852Y1432D01*
X852Y1428D01*
X854Y1428D01*
X854Y1426D01*
X856Y1426D01*
X856Y1422D01*
X858Y1422D01*
X858Y1418D01*
X860Y1418D01*
X860Y1412D01*
X862Y1412D01*
X862Y1396D01*
X860Y1396D01*
X860Y1390D01*
X858Y1390D01*
X858Y1384D01*
X856Y1384D01*
X856Y1382D01*
X854Y1382D01*
X854Y1378D01*
X852Y1378D01*
X852Y1376D01*
X850Y1376D01*
X850Y1374D01*
X848Y1374D01*
X848Y1370D01*
X844Y1370D01*
X844Y1368D01*
X842Y1368D01*
X842Y1366D01*
X840Y1366D01*
X840Y1364D01*
X836Y1364D01*
X836Y1362D01*
X834Y1362D01*
X834Y1360D01*
X828Y1360D01*
X828Y1358D01*
X824Y1358D01*
X824Y1356D01*
X890Y1356D01*
X890Y1358D01*
X892Y1358D01*
X892Y1360D01*
X894Y1360D01*
X894Y1362D01*
X898Y1362D01*
X898Y1364D01*
X900Y1364D01*
X900Y1366D01*
X902Y1366D01*
X902Y1368D01*
X904Y1368D01*
X904Y1370D01*
X906Y1370D01*
X906Y1372D01*
X908Y1372D01*
X908Y1374D01*
X910Y1374D01*
X910Y1376D01*
X912Y1376D01*
X912Y1378D01*
X914Y1378D01*
X914Y1380D01*
X916Y1380D01*
X916Y1382D01*
X918Y1382D01*
X918Y1384D01*
X920Y1384D01*
X920Y1386D01*
X922Y1386D01*
X922Y1388D01*
X924Y1388D01*
X924Y1390D01*
X926Y1390D01*
X926Y1392D01*
X928Y1392D01*
X928Y1394D01*
X930Y1394D01*
X930Y1396D01*
X932Y1396D01*
X932Y1398D01*
X936Y1398D01*
X936Y1400D01*
X938Y1400D01*
X938Y1402D01*
X940Y1402D01*
X940Y1404D01*
X942Y1404D01*
X942Y1406D01*
X944Y1406D01*
X944Y1408D01*
X946Y1408D01*
X946Y1410D01*
X948Y1410D01*
X948Y1412D01*
X950Y1412D01*
X950Y1414D01*
X952Y1414D01*
X952Y1416D01*
X954Y1416D01*
X954Y1418D01*
X956Y1418D01*
X956Y1420D01*
X958Y1420D01*
X958Y1422D01*
X960Y1422D01*
X960Y1424D01*
X962Y1424D01*
X962Y1444D01*
X928Y1444D01*
X928Y1504D01*
X352Y1504D01*
G37*
D02*
G36*
X358Y1450D02*
X358Y1448D01*
X356Y1448D01*
X356Y1442D01*
X354Y1442D01*
X354Y1438D01*
X352Y1438D01*
X352Y1434D01*
X350Y1434D01*
X350Y1432D01*
X348Y1432D01*
X348Y1428D01*
X346Y1428D01*
X346Y1426D01*
X344Y1426D01*
X344Y1422D01*
X342Y1422D01*
X342Y1420D01*
X340Y1420D01*
X340Y1418D01*
X338Y1418D01*
X338Y1416D01*
X336Y1416D01*
X336Y1414D01*
X334Y1414D01*
X334Y1412D01*
X332Y1412D01*
X332Y1410D01*
X330Y1410D01*
X330Y1408D01*
X326Y1408D01*
X326Y1406D01*
X324Y1406D01*
X324Y1404D01*
X322Y1404D01*
X322Y1402D01*
X318Y1402D01*
X318Y1400D01*
X314Y1400D01*
X314Y1398D01*
X310Y1398D01*
X310Y1396D01*
X306Y1396D01*
X306Y1394D01*
X298Y1394D01*
X298Y1392D01*
X288Y1392D01*
X288Y1390D01*
X514Y1390D01*
X514Y1392D01*
X512Y1392D01*
X512Y1414D01*
X514Y1414D01*
X514Y1420D01*
X516Y1420D01*
X516Y1424D01*
X518Y1424D01*
X518Y1428D01*
X520Y1428D01*
X520Y1430D01*
X522Y1430D01*
X522Y1432D01*
X524Y1432D01*
X524Y1434D01*
X526Y1434D01*
X526Y1436D01*
X528Y1436D01*
X528Y1438D01*
X530Y1438D01*
X530Y1440D01*
X532Y1440D01*
X532Y1442D01*
X534Y1442D01*
X534Y1444D01*
X538Y1444D01*
X538Y1446D01*
X542Y1446D01*
X542Y1448D01*
X548Y1448D01*
X548Y1450D01*
X358Y1450D01*
G37*
D02*
G36*
X570Y1450D02*
X570Y1448D01*
X576Y1448D01*
X576Y1446D01*
X578Y1446D01*
X578Y1444D01*
X582Y1444D01*
X582Y1442D01*
X586Y1442D01*
X586Y1440D01*
X588Y1440D01*
X588Y1438D01*
X590Y1438D01*
X590Y1436D01*
X592Y1436D01*
X592Y1434D01*
X594Y1434D01*
X594Y1432D01*
X596Y1432D01*
X596Y1428D01*
X598Y1428D01*
X598Y1426D01*
X600Y1426D01*
X600Y1422D01*
X602Y1422D01*
X602Y1418D01*
X604Y1418D01*
X604Y1412D01*
X606Y1412D01*
X606Y1394D01*
X604Y1394D01*
X604Y1390D01*
X602Y1390D01*
X602Y1384D01*
X600Y1384D01*
X600Y1382D01*
X598Y1382D01*
X598Y1378D01*
X596Y1378D01*
X596Y1376D01*
X594Y1376D01*
X594Y1374D01*
X592Y1374D01*
X592Y1370D01*
X588Y1370D01*
X588Y1368D01*
X586Y1368D01*
X586Y1366D01*
X584Y1366D01*
X584Y1364D01*
X580Y1364D01*
X580Y1362D01*
X578Y1362D01*
X578Y1360D01*
X574Y1360D01*
X574Y1358D01*
X568Y1358D01*
X568Y1356D01*
X806Y1356D01*
X806Y1358D01*
X800Y1358D01*
X800Y1360D01*
X796Y1360D01*
X796Y1362D01*
X792Y1362D01*
X792Y1364D01*
X788Y1364D01*
X788Y1366D01*
X786Y1366D01*
X786Y1368D01*
X784Y1368D01*
X784Y1370D01*
X782Y1370D01*
X782Y1372D01*
X780Y1372D01*
X780Y1374D01*
X778Y1374D01*
X778Y1376D01*
X776Y1376D01*
X776Y1380D01*
X774Y1380D01*
X774Y1382D01*
X772Y1382D01*
X772Y1386D01*
X770Y1386D01*
X770Y1392D01*
X768Y1392D01*
X768Y1402D01*
X766Y1402D01*
X766Y1404D01*
X768Y1404D01*
X768Y1414D01*
X770Y1414D01*
X770Y1420D01*
X772Y1420D01*
X772Y1424D01*
X774Y1424D01*
X774Y1428D01*
X776Y1428D01*
X776Y1430D01*
X778Y1430D01*
X778Y1432D01*
X780Y1432D01*
X780Y1434D01*
X782Y1434D01*
X782Y1436D01*
X784Y1436D01*
X784Y1438D01*
X786Y1438D01*
X786Y1440D01*
X788Y1440D01*
X788Y1442D01*
X790Y1442D01*
X790Y1444D01*
X794Y1444D01*
X794Y1446D01*
X798Y1446D01*
X798Y1448D01*
X804Y1448D01*
X804Y1450D01*
X570Y1450D01*
G37*
D02*
G36*
X70Y1390D02*
X70Y1388D01*
X514Y1388D01*
X514Y1390D01*
X70Y1390D01*
G37*
D02*
G36*
X70Y1390D02*
X70Y1388D01*
X514Y1388D01*
X514Y1390D01*
X70Y1390D01*
G37*
D02*
G36*
X70Y1388D02*
X70Y1356D01*
X550Y1356D01*
X550Y1358D01*
X544Y1358D01*
X544Y1360D01*
X540Y1360D01*
X540Y1362D01*
X536Y1362D01*
X536Y1364D01*
X532Y1364D01*
X532Y1366D01*
X530Y1366D01*
X530Y1368D01*
X528Y1368D01*
X528Y1370D01*
X526Y1370D01*
X526Y1372D01*
X524Y1372D01*
X524Y1374D01*
X522Y1374D01*
X522Y1376D01*
X520Y1376D01*
X520Y1380D01*
X518Y1380D01*
X518Y1382D01*
X516Y1382D01*
X516Y1386D01*
X514Y1386D01*
X514Y1388D01*
X70Y1388D01*
G37*
D02*
G36*
X68Y1356D02*
X68Y1354D01*
X888Y1354D01*
X888Y1356D01*
X68Y1356D01*
G37*
D02*
G36*
X68Y1356D02*
X68Y1354D01*
X888Y1354D01*
X888Y1356D01*
X68Y1356D01*
G37*
D02*
G36*
X68Y1356D02*
X68Y1354D01*
X888Y1354D01*
X888Y1356D01*
X68Y1356D01*
G37*
D02*
G36*
X68Y1354D02*
X68Y1300D01*
X826Y1300D01*
X826Y1298D01*
X832Y1298D01*
X832Y1296D01*
X836Y1296D01*
X836Y1294D01*
X838Y1294D01*
X838Y1292D01*
X842Y1292D01*
X842Y1290D01*
X844Y1290D01*
X844Y1288D01*
X846Y1288D01*
X846Y1286D01*
X848Y1286D01*
X848Y1284D01*
X868Y1284D01*
X868Y1328D01*
X870Y1328D01*
X870Y1336D01*
X872Y1336D01*
X872Y1340D01*
X874Y1340D01*
X874Y1342D01*
X876Y1342D01*
X876Y1344D01*
X878Y1344D01*
X878Y1346D01*
X880Y1346D01*
X880Y1348D01*
X882Y1348D01*
X882Y1350D01*
X884Y1350D01*
X884Y1352D01*
X886Y1352D01*
X886Y1354D01*
X68Y1354D01*
G37*
D02*
G36*
X68Y1300D02*
X68Y1258D01*
X360Y1258D01*
X360Y1206D01*
X550Y1206D01*
X550Y1208D01*
X544Y1208D01*
X544Y1210D01*
X540Y1210D01*
X540Y1212D01*
X536Y1212D01*
X536Y1214D01*
X534Y1214D01*
X534Y1216D01*
X532Y1216D01*
X532Y1218D01*
X528Y1218D01*
X528Y1220D01*
X526Y1220D01*
X526Y1222D01*
X524Y1222D01*
X524Y1226D01*
X522Y1226D01*
X522Y1228D01*
X520Y1228D01*
X520Y1230D01*
X518Y1230D01*
X518Y1234D01*
X516Y1234D01*
X516Y1238D01*
X514Y1238D01*
X514Y1244D01*
X512Y1244D01*
X512Y1262D01*
X514Y1262D01*
X514Y1268D01*
X516Y1268D01*
X516Y1272D01*
X518Y1272D01*
X518Y1276D01*
X520Y1276D01*
X520Y1278D01*
X522Y1278D01*
X522Y1280D01*
X524Y1280D01*
X524Y1284D01*
X526Y1284D01*
X526Y1286D01*
X528Y1286D01*
X528Y1288D01*
X532Y1288D01*
X532Y1290D01*
X534Y1290D01*
X534Y1292D01*
X536Y1292D01*
X536Y1294D01*
X540Y1294D01*
X540Y1296D01*
X544Y1296D01*
X544Y1298D01*
X550Y1298D01*
X550Y1300D01*
X68Y1300D01*
G37*
D02*
G36*
X570Y1300D02*
X570Y1298D01*
X576Y1298D01*
X576Y1296D01*
X580Y1296D01*
X580Y1294D01*
X582Y1294D01*
X582Y1292D01*
X586Y1292D01*
X586Y1290D01*
X588Y1290D01*
X588Y1288D01*
X590Y1288D01*
X590Y1286D01*
X592Y1286D01*
X592Y1284D01*
X594Y1284D01*
X594Y1282D01*
X596Y1282D01*
X596Y1280D01*
X598Y1280D01*
X598Y1276D01*
X600Y1276D01*
X600Y1274D01*
X602Y1274D01*
X602Y1270D01*
X604Y1270D01*
X604Y1264D01*
X606Y1264D01*
X606Y1254D01*
X608Y1254D01*
X608Y1252D01*
X606Y1252D01*
X606Y1242D01*
X604Y1242D01*
X604Y1236D01*
X602Y1236D01*
X602Y1232D01*
X600Y1232D01*
X600Y1230D01*
X598Y1230D01*
X598Y1226D01*
X596Y1226D01*
X596Y1224D01*
X594Y1224D01*
X594Y1222D01*
X592Y1222D01*
X592Y1220D01*
X590Y1220D01*
X590Y1218D01*
X588Y1218D01*
X588Y1216D01*
X586Y1216D01*
X586Y1214D01*
X582Y1214D01*
X582Y1212D01*
X580Y1212D01*
X580Y1210D01*
X576Y1210D01*
X576Y1208D01*
X570Y1208D01*
X570Y1206D01*
X806Y1206D01*
X806Y1208D01*
X800Y1208D01*
X800Y1210D01*
X796Y1210D01*
X796Y1212D01*
X792Y1212D01*
X792Y1214D01*
X790Y1214D01*
X790Y1216D01*
X786Y1216D01*
X786Y1218D01*
X784Y1218D01*
X784Y1220D01*
X782Y1220D01*
X782Y1222D01*
X780Y1222D01*
X780Y1224D01*
X778Y1224D01*
X778Y1228D01*
X776Y1228D01*
X776Y1230D01*
X774Y1230D01*
X774Y1234D01*
X772Y1234D01*
X772Y1238D01*
X770Y1238D01*
X770Y1244D01*
X768Y1244D01*
X768Y1262D01*
X770Y1262D01*
X770Y1268D01*
X772Y1268D01*
X772Y1272D01*
X774Y1272D01*
X774Y1276D01*
X776Y1276D01*
X776Y1278D01*
X778Y1278D01*
X778Y1280D01*
X780Y1280D01*
X780Y1284D01*
X782Y1284D01*
X782Y1286D01*
X784Y1286D01*
X784Y1288D01*
X786Y1288D01*
X786Y1290D01*
X790Y1290D01*
X790Y1292D01*
X792Y1292D01*
X792Y1294D01*
X796Y1294D01*
X796Y1296D01*
X800Y1296D01*
X800Y1298D01*
X806Y1298D01*
X806Y1300D01*
X570Y1300D01*
G37*
D02*
G36*
X68Y1258D02*
X68Y1178D01*
X70Y1178D01*
X70Y1176D01*
X72Y1176D01*
X72Y1174D01*
X74Y1174D01*
X74Y1172D01*
X76Y1172D01*
X76Y1170D01*
X78Y1170D01*
X78Y1168D01*
X80Y1168D01*
X80Y1166D01*
X82Y1166D01*
X82Y1164D01*
X84Y1164D01*
X84Y1162D01*
X86Y1162D01*
X86Y1160D01*
X88Y1160D01*
X88Y1158D01*
X90Y1158D01*
X90Y1156D01*
X92Y1156D01*
X92Y1154D01*
X94Y1154D01*
X94Y1152D01*
X96Y1152D01*
X96Y1150D01*
X98Y1150D01*
X98Y1148D01*
X100Y1148D01*
X100Y1146D01*
X102Y1146D01*
X102Y1144D01*
X104Y1144D01*
X104Y1142D01*
X106Y1142D01*
X106Y1140D01*
X164Y1140D01*
X164Y1032D01*
X188Y1032D01*
X188Y1140D01*
X200Y1140D01*
X200Y1190D01*
X150Y1190D01*
X150Y1256D01*
X152Y1256D01*
X152Y1258D01*
X68Y1258D01*
G37*
D02*
G36*
X848Y1222D02*
X848Y1220D01*
X846Y1220D01*
X846Y1218D01*
X844Y1218D01*
X844Y1216D01*
X842Y1216D01*
X842Y1214D01*
X838Y1214D01*
X838Y1212D01*
X836Y1212D01*
X836Y1210D01*
X832Y1210D01*
X832Y1208D01*
X826Y1208D01*
X826Y1206D01*
X868Y1206D01*
X868Y1222D01*
X848Y1222D01*
G37*
D02*
G36*
X360Y1206D02*
X360Y1204D01*
X868Y1204D01*
X868Y1206D01*
X360Y1206D01*
G37*
D02*
G36*
X360Y1206D02*
X360Y1204D01*
X868Y1204D01*
X868Y1206D01*
X360Y1206D01*
G37*
D02*
G36*
X360Y1206D02*
X360Y1204D01*
X868Y1204D01*
X868Y1206D01*
X360Y1206D01*
G37*
D02*
G36*
X360Y1204D02*
X360Y1190D01*
X244Y1190D01*
X244Y1140D01*
X346Y1140D01*
X346Y1124D01*
X820Y1124D01*
X820Y1122D01*
X828Y1122D01*
X828Y1120D01*
X834Y1120D01*
X834Y1118D01*
X836Y1118D01*
X836Y1116D01*
X840Y1116D01*
X840Y1114D01*
X842Y1114D01*
X842Y1112D01*
X844Y1112D01*
X844Y1110D01*
X848Y1110D01*
X848Y1108D01*
X868Y1108D01*
X868Y1204D01*
X360Y1204D01*
G37*
D02*
G36*
X254Y1140D02*
X254Y1138D01*
X256Y1138D01*
X256Y1036D01*
X258Y1036D01*
X258Y1034D01*
X278Y1034D01*
X278Y1140D01*
X254Y1140D01*
G37*
D02*
G36*
X40Y1126D02*
X40Y1032D01*
X96Y1032D01*
X96Y1090D01*
X94Y1090D01*
X94Y1092D01*
X92Y1092D01*
X92Y1094D01*
X90Y1094D01*
X90Y1096D01*
X88Y1096D01*
X88Y1098D01*
X86Y1098D01*
X86Y1100D01*
X84Y1100D01*
X84Y1102D01*
X82Y1102D01*
X82Y1104D01*
X80Y1104D01*
X80Y1106D01*
X78Y1106D01*
X78Y1108D01*
X76Y1108D01*
X76Y1110D01*
X74Y1110D01*
X74Y1112D01*
X72Y1112D01*
X72Y1114D01*
X70Y1114D01*
X70Y1116D01*
X68Y1116D01*
X68Y1118D01*
X66Y1118D01*
X66Y1120D01*
X64Y1120D01*
X64Y1122D01*
X62Y1122D01*
X62Y1124D01*
X60Y1124D01*
X60Y1126D01*
X40Y1126D01*
G37*
D02*
G36*
X346Y1124D02*
X346Y1032D01*
X280Y1032D01*
X280Y1028D01*
X552Y1028D01*
X552Y1030D01*
X546Y1030D01*
X546Y1032D01*
X542Y1032D01*
X542Y1034D01*
X538Y1034D01*
X538Y1036D01*
X534Y1036D01*
X534Y1038D01*
X532Y1038D01*
X532Y1040D01*
X530Y1040D01*
X530Y1042D01*
X528Y1042D01*
X528Y1044D01*
X526Y1044D01*
X526Y1046D01*
X524Y1046D01*
X524Y1048D01*
X522Y1048D01*
X522Y1050D01*
X520Y1050D01*
X520Y1054D01*
X518Y1054D01*
X518Y1058D01*
X516Y1058D01*
X516Y1062D01*
X514Y1062D01*
X514Y1068D01*
X512Y1068D01*
X512Y1084D01*
X514Y1084D01*
X514Y1090D01*
X516Y1090D01*
X516Y1094D01*
X518Y1094D01*
X518Y1098D01*
X520Y1098D01*
X520Y1102D01*
X522Y1102D01*
X522Y1104D01*
X524Y1104D01*
X524Y1106D01*
X526Y1106D01*
X526Y1108D01*
X528Y1108D01*
X528Y1110D01*
X530Y1110D01*
X530Y1112D01*
X532Y1112D01*
X532Y1114D01*
X536Y1114D01*
X536Y1116D01*
X538Y1116D01*
X538Y1118D01*
X542Y1118D01*
X542Y1120D01*
X548Y1120D01*
X548Y1122D01*
X556Y1122D01*
X556Y1124D01*
X346Y1124D01*
G37*
D02*
G36*
X564Y1124D02*
X564Y1122D01*
X572Y1122D01*
X572Y1120D01*
X578Y1120D01*
X578Y1118D01*
X580Y1118D01*
X580Y1116D01*
X584Y1116D01*
X584Y1114D01*
X586Y1114D01*
X586Y1112D01*
X588Y1112D01*
X588Y1110D01*
X592Y1110D01*
X592Y1108D01*
X594Y1108D01*
X594Y1104D01*
X596Y1104D01*
X596Y1102D01*
X598Y1102D01*
X598Y1100D01*
X600Y1100D01*
X600Y1096D01*
X602Y1096D01*
X602Y1092D01*
X604Y1092D01*
X604Y1088D01*
X606Y1088D01*
X606Y1064D01*
X604Y1064D01*
X604Y1058D01*
X602Y1058D01*
X602Y1056D01*
X600Y1056D01*
X600Y1052D01*
X598Y1052D01*
X598Y1050D01*
X596Y1050D01*
X596Y1046D01*
X594Y1046D01*
X594Y1044D01*
X592Y1044D01*
X592Y1042D01*
X590Y1042D01*
X590Y1040D01*
X588Y1040D01*
X588Y1038D01*
X584Y1038D01*
X584Y1036D01*
X582Y1036D01*
X582Y1034D01*
X578Y1034D01*
X578Y1032D01*
X572Y1032D01*
X572Y1030D01*
X566Y1030D01*
X566Y1028D01*
X808Y1028D01*
X808Y1030D01*
X802Y1030D01*
X802Y1032D01*
X798Y1032D01*
X798Y1034D01*
X794Y1034D01*
X794Y1036D01*
X790Y1036D01*
X790Y1038D01*
X788Y1038D01*
X788Y1040D01*
X786Y1040D01*
X786Y1042D01*
X784Y1042D01*
X784Y1044D01*
X782Y1044D01*
X782Y1046D01*
X780Y1046D01*
X780Y1048D01*
X778Y1048D01*
X778Y1050D01*
X776Y1050D01*
X776Y1054D01*
X774Y1054D01*
X774Y1056D01*
X772Y1056D01*
X772Y1062D01*
X770Y1062D01*
X770Y1068D01*
X768Y1068D01*
X768Y1084D01*
X770Y1084D01*
X770Y1090D01*
X772Y1090D01*
X772Y1094D01*
X774Y1094D01*
X774Y1098D01*
X776Y1098D01*
X776Y1102D01*
X778Y1102D01*
X778Y1104D01*
X780Y1104D01*
X780Y1106D01*
X782Y1106D01*
X782Y1108D01*
X784Y1108D01*
X784Y1110D01*
X786Y1110D01*
X786Y1112D01*
X788Y1112D01*
X788Y1114D01*
X790Y1114D01*
X790Y1116D01*
X794Y1116D01*
X794Y1118D01*
X798Y1118D01*
X798Y1120D01*
X804Y1120D01*
X804Y1122D01*
X810Y1122D01*
X810Y1124D01*
X564Y1124D01*
G37*
D02*
G36*
X848Y1044D02*
X848Y1042D01*
X846Y1042D01*
X846Y1040D01*
X842Y1040D01*
X842Y1038D01*
X840Y1038D01*
X840Y1036D01*
X838Y1036D01*
X838Y1034D01*
X834Y1034D01*
X834Y1032D01*
X828Y1032D01*
X828Y1030D01*
X822Y1030D01*
X822Y1028D01*
X868Y1028D01*
X868Y1044D01*
X848Y1044D01*
G37*
D02*
G36*
X40Y1032D02*
X40Y1030D01*
X202Y1030D01*
X202Y1032D01*
X40Y1032D01*
G37*
D02*
G36*
X40Y1032D02*
X40Y1030D01*
X202Y1030D01*
X202Y1032D01*
X40Y1032D01*
G37*
D02*
G36*
X40Y1030D02*
X40Y894D01*
X302Y894D01*
X302Y788D01*
X328Y788D01*
X328Y806D01*
X330Y806D01*
X330Y902D01*
X328Y902D01*
X328Y904D01*
X326Y904D01*
X326Y906D01*
X324Y906D01*
X324Y908D01*
X322Y908D01*
X322Y910D01*
X320Y910D01*
X320Y912D01*
X318Y912D01*
X318Y914D01*
X316Y914D01*
X316Y916D01*
X314Y916D01*
X314Y918D01*
X312Y918D01*
X312Y920D01*
X310Y920D01*
X310Y922D01*
X308Y922D01*
X308Y924D01*
X306Y924D01*
X306Y926D01*
X304Y926D01*
X304Y928D01*
X302Y928D01*
X302Y930D01*
X300Y930D01*
X300Y932D01*
X298Y932D01*
X298Y934D01*
X296Y934D01*
X296Y936D01*
X294Y936D01*
X294Y938D01*
X292Y938D01*
X292Y940D01*
X290Y940D01*
X290Y942D01*
X288Y942D01*
X288Y944D01*
X286Y944D01*
X286Y946D01*
X284Y946D01*
X284Y948D01*
X282Y948D01*
X282Y950D01*
X280Y950D01*
X280Y952D01*
X278Y952D01*
X278Y954D01*
X276Y954D01*
X276Y956D01*
X274Y956D01*
X274Y958D01*
X272Y958D01*
X272Y960D01*
X270Y960D01*
X270Y962D01*
X268Y962D01*
X268Y964D01*
X266Y964D01*
X266Y966D01*
X264Y966D01*
X264Y968D01*
X262Y968D01*
X262Y970D01*
X260Y970D01*
X260Y972D01*
X258Y972D01*
X258Y974D01*
X256Y974D01*
X256Y976D01*
X254Y976D01*
X254Y978D01*
X252Y978D01*
X252Y980D01*
X250Y980D01*
X250Y982D01*
X248Y982D01*
X248Y984D01*
X246Y984D01*
X246Y986D01*
X244Y986D01*
X244Y988D01*
X242Y988D01*
X242Y990D01*
X240Y990D01*
X240Y992D01*
X238Y992D01*
X238Y994D01*
X236Y994D01*
X236Y996D01*
X234Y996D01*
X234Y998D01*
X232Y998D01*
X232Y1000D01*
X230Y1000D01*
X230Y1002D01*
X228Y1002D01*
X228Y1004D01*
X226Y1004D01*
X226Y1006D01*
X224Y1006D01*
X224Y1008D01*
X222Y1008D01*
X222Y1010D01*
X220Y1010D01*
X220Y1012D01*
X218Y1012D01*
X218Y1014D01*
X216Y1014D01*
X216Y1016D01*
X214Y1016D01*
X214Y1018D01*
X212Y1018D01*
X212Y1020D01*
X210Y1020D01*
X210Y1022D01*
X208Y1022D01*
X208Y1024D01*
X206Y1024D01*
X206Y1026D01*
X204Y1026D01*
X204Y1028D01*
X202Y1028D01*
X202Y1030D01*
X40Y1030D01*
G37*
D02*
G36*
X280Y1028D02*
X280Y1026D01*
X868Y1026D01*
X868Y1028D01*
X280Y1028D01*
G37*
D02*
G36*
X280Y1028D02*
X280Y1026D01*
X868Y1026D01*
X868Y1028D01*
X280Y1028D01*
G37*
D02*
G36*
X280Y1028D02*
X280Y1026D01*
X868Y1026D01*
X868Y1028D01*
X280Y1028D01*
G37*
D02*
G36*
X280Y1026D02*
X280Y1012D01*
X282Y1012D01*
X282Y1010D01*
X284Y1010D01*
X284Y1008D01*
X286Y1008D01*
X286Y1006D01*
X288Y1006D01*
X288Y1004D01*
X290Y1004D01*
X290Y1002D01*
X292Y1002D01*
X292Y1000D01*
X294Y1000D01*
X294Y998D01*
X296Y998D01*
X296Y996D01*
X298Y996D01*
X298Y994D01*
X300Y994D01*
X300Y992D01*
X302Y992D01*
X302Y990D01*
X304Y990D01*
X304Y988D01*
X306Y988D01*
X306Y986D01*
X308Y986D01*
X308Y984D01*
X310Y984D01*
X310Y982D01*
X312Y982D01*
X312Y980D01*
X314Y980D01*
X314Y978D01*
X316Y978D01*
X316Y976D01*
X318Y976D01*
X318Y974D01*
X320Y974D01*
X320Y972D01*
X322Y972D01*
X322Y970D01*
X324Y970D01*
X324Y968D01*
X326Y968D01*
X326Y966D01*
X328Y966D01*
X328Y964D01*
X330Y964D01*
X330Y962D01*
X332Y962D01*
X332Y960D01*
X334Y960D01*
X334Y958D01*
X336Y958D01*
X336Y956D01*
X338Y956D01*
X338Y954D01*
X340Y954D01*
X340Y952D01*
X342Y952D01*
X342Y950D01*
X344Y950D01*
X344Y948D01*
X346Y948D01*
X346Y946D01*
X348Y946D01*
X348Y944D01*
X350Y944D01*
X350Y942D01*
X352Y942D01*
X352Y940D01*
X354Y940D01*
X354Y938D01*
X356Y938D01*
X356Y936D01*
X358Y936D01*
X358Y934D01*
X360Y934D01*
X360Y932D01*
X362Y932D01*
X362Y930D01*
X748Y930D01*
X748Y912D01*
X796Y912D01*
X796Y910D01*
X802Y910D01*
X802Y908D01*
X806Y908D01*
X806Y906D01*
X808Y906D01*
X808Y904D01*
X810Y904D01*
X810Y902D01*
X812Y902D01*
X812Y900D01*
X814Y900D01*
X814Y898D01*
X816Y898D01*
X816Y894D01*
X818Y894D01*
X818Y890D01*
X820Y890D01*
X820Y874D01*
X818Y874D01*
X818Y870D01*
X816Y870D01*
X816Y866D01*
X814Y866D01*
X814Y864D01*
X812Y864D01*
X812Y862D01*
X810Y862D01*
X810Y860D01*
X808Y860D01*
X808Y858D01*
X804Y858D01*
X804Y856D01*
X802Y856D01*
X802Y854D01*
X796Y854D01*
X796Y852D01*
X824Y852D01*
X824Y854D01*
X826Y854D01*
X826Y856D01*
X828Y856D01*
X828Y858D01*
X830Y858D01*
X830Y860D01*
X832Y860D01*
X832Y862D01*
X834Y862D01*
X834Y864D01*
X836Y864D01*
X836Y866D01*
X838Y866D01*
X838Y868D01*
X840Y868D01*
X840Y870D01*
X842Y870D01*
X842Y872D01*
X844Y872D01*
X844Y874D01*
X846Y874D01*
X846Y876D01*
X848Y876D01*
X848Y878D01*
X850Y878D01*
X850Y880D01*
X852Y880D01*
X852Y882D01*
X854Y882D01*
X854Y884D01*
X856Y884D01*
X856Y886D01*
X858Y886D01*
X858Y888D01*
X860Y888D01*
X860Y890D01*
X862Y890D01*
X862Y892D01*
X864Y892D01*
X864Y894D01*
X866Y894D01*
X866Y896D01*
X868Y896D01*
X868Y1026D01*
X280Y1026D01*
G37*
D02*
G36*
X364Y930D02*
X364Y928D01*
X366Y928D01*
X366Y926D01*
X368Y926D01*
X368Y922D01*
X370Y922D01*
X370Y920D01*
X372Y920D01*
X372Y916D01*
X374Y916D01*
X374Y912D01*
X430Y912D01*
X430Y910D01*
X436Y910D01*
X436Y908D01*
X440Y908D01*
X440Y906D01*
X442Y906D01*
X442Y904D01*
X544Y904D01*
X544Y930D01*
X364Y930D01*
G37*
D02*
G36*
X626Y930D02*
X626Y836D01*
X666Y836D01*
X666Y930D01*
X626Y930D01*
G37*
D02*
G36*
X374Y912D02*
X374Y852D01*
X420Y852D01*
X420Y854D01*
X414Y854D01*
X414Y856D01*
X412Y856D01*
X412Y858D01*
X408Y858D01*
X408Y860D01*
X406Y860D01*
X406Y862D01*
X404Y862D01*
X404Y864D01*
X402Y864D01*
X402Y866D01*
X400Y866D01*
X400Y870D01*
X398Y870D01*
X398Y874D01*
X396Y874D01*
X396Y888D01*
X398Y888D01*
X398Y894D01*
X400Y894D01*
X400Y896D01*
X402Y896D01*
X402Y900D01*
X404Y900D01*
X404Y902D01*
X406Y902D01*
X406Y904D01*
X408Y904D01*
X408Y906D01*
X412Y906D01*
X412Y908D01*
X416Y908D01*
X416Y910D01*
X422Y910D01*
X422Y912D01*
X374Y912D01*
G37*
D02*
G36*
X748Y912D02*
X748Y898D01*
X768Y898D01*
X768Y900D01*
X770Y900D01*
X770Y902D01*
X772Y902D01*
X772Y904D01*
X774Y904D01*
X774Y906D01*
X776Y906D01*
X776Y908D01*
X780Y908D01*
X780Y910D01*
X786Y910D01*
X786Y912D01*
X748Y912D01*
G37*
D02*
G36*
X40Y894D02*
X40Y788D01*
X140Y788D01*
X140Y894D01*
X40Y894D01*
G37*
D02*
G36*
X748Y866D02*
X748Y852D01*
X786Y852D01*
X786Y854D01*
X780Y854D01*
X780Y856D01*
X778Y856D01*
X778Y858D01*
X774Y858D01*
X774Y860D01*
X772Y860D01*
X772Y862D01*
X770Y862D01*
X770Y864D01*
X768Y864D01*
X768Y866D01*
X748Y866D01*
G37*
D02*
G36*
X442Y860D02*
X442Y858D01*
X440Y858D01*
X440Y856D01*
X436Y856D01*
X436Y854D01*
X430Y854D01*
X430Y852D01*
X544Y852D01*
X544Y860D01*
X442Y860D01*
G37*
D02*
G36*
X374Y852D02*
X374Y850D01*
X544Y850D01*
X544Y852D01*
X374Y852D01*
G37*
D02*
G36*
X374Y852D02*
X374Y850D01*
X544Y850D01*
X544Y852D01*
X374Y852D01*
G37*
D02*
G36*
X748Y852D02*
X748Y850D01*
X822Y850D01*
X822Y852D01*
X748Y852D01*
G37*
D02*
G36*
X748Y852D02*
X748Y850D01*
X822Y850D01*
X822Y852D01*
X748Y852D01*
G37*
D02*
G36*
X374Y850D02*
X374Y836D01*
X544Y836D01*
X544Y850D01*
X374Y850D01*
G37*
D02*
G36*
X748Y850D02*
X748Y836D01*
X808Y836D01*
X808Y838D01*
X810Y838D01*
X810Y840D01*
X812Y840D01*
X812Y842D01*
X814Y842D01*
X814Y844D01*
X816Y844D01*
X816Y846D01*
X818Y846D01*
X818Y848D01*
X820Y848D01*
X820Y850D01*
X748Y850D01*
G37*
D02*
G36*
X374Y836D02*
X374Y834D01*
X806Y834D01*
X806Y836D01*
X374Y836D01*
G37*
D02*
G36*
X374Y836D02*
X374Y834D01*
X806Y834D01*
X806Y836D01*
X374Y836D01*
G37*
D02*
G36*
X374Y836D02*
X374Y834D01*
X806Y834D01*
X806Y836D01*
X374Y836D01*
G37*
D02*
G36*
X374Y834D02*
X374Y806D01*
X372Y806D01*
X372Y802D01*
X746Y802D01*
X746Y800D01*
X748Y800D01*
X748Y796D01*
X768Y796D01*
X768Y798D01*
X770Y798D01*
X770Y800D01*
X772Y800D01*
X772Y802D01*
X774Y802D01*
X774Y804D01*
X776Y804D01*
X776Y806D01*
X778Y806D01*
X778Y808D01*
X780Y808D01*
X780Y810D01*
X782Y810D01*
X782Y812D01*
X784Y812D01*
X784Y814D01*
X786Y814D01*
X786Y816D01*
X788Y816D01*
X788Y818D01*
X790Y818D01*
X790Y820D01*
X792Y820D01*
X792Y822D01*
X794Y822D01*
X794Y824D01*
X796Y824D01*
X796Y826D01*
X798Y826D01*
X798Y828D01*
X800Y828D01*
X800Y830D01*
X802Y830D01*
X802Y832D01*
X804Y832D01*
X804Y834D01*
X374Y834D01*
G37*
D02*
G36*
X908Y806D02*
X908Y804D01*
X906Y804D01*
X906Y802D01*
X904Y802D01*
X904Y800D01*
X902Y800D01*
X902Y798D01*
X900Y798D01*
X900Y796D01*
X898Y796D01*
X898Y794D01*
X896Y794D01*
X896Y792D01*
X894Y792D01*
X894Y790D01*
X892Y790D01*
X892Y788D01*
X890Y788D01*
X890Y786D01*
X888Y786D01*
X888Y784D01*
X886Y784D01*
X886Y782D01*
X884Y782D01*
X884Y780D01*
X882Y780D01*
X882Y778D01*
X880Y778D01*
X880Y776D01*
X878Y776D01*
X878Y774D01*
X876Y774D01*
X876Y772D01*
X874Y772D01*
X874Y770D01*
X872Y770D01*
X872Y768D01*
X870Y768D01*
X870Y766D01*
X928Y766D01*
X928Y806D01*
X908Y806D01*
G37*
D02*
G36*
X372Y802D02*
X372Y778D01*
X514Y778D01*
X514Y776D01*
X542Y776D01*
X542Y802D01*
X372Y802D01*
G37*
D02*
G36*
X624Y802D02*
X624Y800D01*
X626Y800D01*
X626Y708D01*
X624Y708D01*
X624Y706D01*
X666Y706D01*
X666Y708D01*
X664Y708D01*
X664Y802D01*
X624Y802D01*
G37*
D02*
G36*
X40Y788D02*
X40Y786D01*
X328Y786D01*
X328Y788D01*
X40Y788D01*
G37*
D02*
G36*
X40Y788D02*
X40Y786D01*
X328Y786D01*
X328Y788D01*
X40Y788D01*
G37*
D02*
G36*
X40Y786D02*
X40Y326D01*
X162Y326D01*
X162Y328D01*
X154Y328D01*
X154Y330D01*
X150Y330D01*
X150Y332D01*
X146Y332D01*
X146Y334D01*
X142Y334D01*
X142Y336D01*
X140Y336D01*
X140Y338D01*
X138Y338D01*
X138Y340D01*
X136Y340D01*
X136Y342D01*
X134Y342D01*
X134Y344D01*
X132Y344D01*
X132Y346D01*
X130Y346D01*
X130Y350D01*
X128Y350D01*
X128Y352D01*
X126Y352D01*
X126Y356D01*
X124Y356D01*
X124Y362D01*
X122Y362D01*
X122Y372D01*
X120Y372D01*
X120Y374D01*
X122Y374D01*
X122Y386D01*
X124Y386D01*
X124Y390D01*
X126Y390D01*
X126Y394D01*
X128Y394D01*
X128Y398D01*
X130Y398D01*
X130Y400D01*
X132Y400D01*
X132Y402D01*
X134Y402D01*
X134Y404D01*
X136Y404D01*
X136Y406D01*
X138Y406D01*
X138Y408D01*
X140Y408D01*
X140Y410D01*
X142Y410D01*
X142Y412D01*
X144Y412D01*
X144Y414D01*
X146Y414D01*
X146Y434D01*
X142Y434D01*
X142Y436D01*
X140Y436D01*
X140Y438D01*
X138Y438D01*
X138Y440D01*
X136Y440D01*
X136Y442D01*
X134Y442D01*
X134Y444D01*
X132Y444D01*
X132Y446D01*
X130Y446D01*
X130Y450D01*
X128Y450D01*
X128Y452D01*
X126Y452D01*
X126Y456D01*
X124Y456D01*
X124Y462D01*
X122Y462D01*
X122Y472D01*
X120Y472D01*
X120Y474D01*
X122Y474D01*
X122Y486D01*
X124Y486D01*
X124Y490D01*
X126Y490D01*
X126Y494D01*
X128Y494D01*
X128Y498D01*
X130Y498D01*
X130Y500D01*
X132Y500D01*
X132Y502D01*
X134Y502D01*
X134Y504D01*
X136Y504D01*
X136Y506D01*
X138Y506D01*
X138Y508D01*
X140Y508D01*
X140Y510D01*
X142Y510D01*
X142Y512D01*
X144Y512D01*
X144Y514D01*
X146Y514D01*
X146Y534D01*
X142Y534D01*
X142Y536D01*
X140Y536D01*
X140Y538D01*
X138Y538D01*
X138Y540D01*
X136Y540D01*
X136Y542D01*
X134Y542D01*
X134Y544D01*
X132Y544D01*
X132Y546D01*
X130Y546D01*
X130Y550D01*
X128Y550D01*
X128Y552D01*
X126Y552D01*
X126Y556D01*
X124Y556D01*
X124Y562D01*
X122Y562D01*
X122Y572D01*
X120Y572D01*
X120Y574D01*
X122Y574D01*
X122Y586D01*
X124Y586D01*
X124Y590D01*
X126Y590D01*
X126Y594D01*
X128Y594D01*
X128Y598D01*
X130Y598D01*
X130Y600D01*
X132Y600D01*
X132Y602D01*
X134Y602D01*
X134Y604D01*
X136Y604D01*
X136Y606D01*
X138Y606D01*
X138Y608D01*
X140Y608D01*
X140Y610D01*
X142Y610D01*
X142Y612D01*
X144Y612D01*
X144Y614D01*
X148Y614D01*
X148Y616D01*
X152Y616D01*
X152Y618D01*
X158Y618D01*
X158Y620D01*
X182Y620D01*
X182Y622D01*
X184Y622D01*
X184Y624D01*
X186Y624D01*
X186Y626D01*
X188Y626D01*
X188Y628D01*
X190Y628D01*
X190Y630D01*
X192Y630D01*
X192Y632D01*
X194Y632D01*
X194Y634D01*
X196Y634D01*
X196Y636D01*
X198Y636D01*
X198Y638D01*
X200Y638D01*
X200Y640D01*
X202Y640D01*
X202Y642D01*
X204Y642D01*
X204Y644D01*
X206Y644D01*
X206Y646D01*
X208Y646D01*
X208Y648D01*
X210Y648D01*
X210Y652D01*
X212Y652D01*
X212Y654D01*
X214Y654D01*
X214Y656D01*
X216Y656D01*
X216Y658D01*
X218Y658D01*
X218Y660D01*
X220Y660D01*
X220Y662D01*
X222Y662D01*
X222Y664D01*
X224Y664D01*
X224Y666D01*
X226Y666D01*
X226Y668D01*
X228Y668D01*
X228Y670D01*
X230Y670D01*
X230Y672D01*
X232Y672D01*
X232Y674D01*
X234Y674D01*
X234Y676D01*
X236Y676D01*
X236Y678D01*
X238Y678D01*
X238Y680D01*
X240Y680D01*
X240Y682D01*
X242Y682D01*
X242Y684D01*
X244Y684D01*
X244Y688D01*
X246Y688D01*
X246Y690D01*
X248Y690D01*
X248Y692D01*
X250Y692D01*
X250Y694D01*
X252Y694D01*
X252Y696D01*
X254Y696D01*
X254Y698D01*
X256Y698D01*
X256Y700D01*
X258Y700D01*
X258Y702D01*
X260Y702D01*
X260Y704D01*
X262Y704D01*
X262Y706D01*
X264Y706D01*
X264Y708D01*
X266Y708D01*
X266Y710D01*
X268Y710D01*
X268Y712D01*
X270Y712D01*
X270Y714D01*
X272Y714D01*
X272Y716D01*
X274Y716D01*
X274Y718D01*
X276Y718D01*
X276Y720D01*
X278Y720D01*
X278Y722D01*
X280Y722D01*
X280Y726D01*
X282Y726D01*
X282Y728D01*
X284Y728D01*
X284Y730D01*
X286Y730D01*
X286Y732D01*
X288Y732D01*
X288Y734D01*
X290Y734D01*
X290Y736D01*
X292Y736D01*
X292Y738D01*
X294Y738D01*
X294Y740D01*
X296Y740D01*
X296Y742D01*
X298Y742D01*
X298Y744D01*
X300Y744D01*
X300Y746D01*
X302Y746D01*
X302Y748D01*
X304Y748D01*
X304Y750D01*
X306Y750D01*
X306Y752D01*
X308Y752D01*
X308Y754D01*
X310Y754D01*
X310Y756D01*
X312Y756D01*
X312Y758D01*
X314Y758D01*
X314Y762D01*
X316Y762D01*
X316Y764D01*
X318Y764D01*
X318Y766D01*
X320Y766D01*
X320Y768D01*
X322Y768D01*
X322Y770D01*
X324Y770D01*
X324Y772D01*
X326Y772D01*
X326Y774D01*
X328Y774D01*
X328Y786D01*
X40Y786D01*
G37*
D02*
G36*
X372Y778D02*
X372Y758D01*
X370Y758D01*
X370Y754D01*
X368Y754D01*
X368Y752D01*
X366Y752D01*
X366Y750D01*
X364Y750D01*
X364Y748D01*
X362Y748D01*
X362Y746D01*
X360Y746D01*
X360Y744D01*
X358Y744D01*
X358Y742D01*
X356Y742D01*
X356Y740D01*
X354Y740D01*
X354Y738D01*
X352Y738D01*
X352Y736D01*
X350Y736D01*
X350Y734D01*
X348Y734D01*
X348Y730D01*
X346Y730D01*
X346Y728D01*
X344Y728D01*
X344Y726D01*
X342Y726D01*
X342Y724D01*
X340Y724D01*
X340Y722D01*
X338Y722D01*
X338Y720D01*
X336Y720D01*
X336Y718D01*
X334Y718D01*
X334Y716D01*
X332Y716D01*
X332Y714D01*
X330Y714D01*
X330Y712D01*
X328Y712D01*
X328Y710D01*
X326Y710D01*
X326Y708D01*
X324Y708D01*
X324Y706D01*
X322Y706D01*
X322Y704D01*
X320Y704D01*
X320Y702D01*
X318Y702D01*
X318Y700D01*
X316Y700D01*
X316Y698D01*
X314Y698D01*
X314Y694D01*
X416Y694D01*
X416Y696D01*
X410Y696D01*
X410Y698D01*
X408Y698D01*
X408Y700D01*
X404Y700D01*
X404Y702D01*
X402Y702D01*
X402Y704D01*
X400Y704D01*
X400Y708D01*
X398Y708D01*
X398Y710D01*
X396Y710D01*
X396Y714D01*
X394Y714D01*
X394Y720D01*
X392Y720D01*
X392Y726D01*
X394Y726D01*
X394Y734D01*
X396Y734D01*
X396Y736D01*
X398Y736D01*
X398Y740D01*
X400Y740D01*
X400Y742D01*
X402Y742D01*
X402Y744D01*
X404Y744D01*
X404Y746D01*
X406Y746D01*
X406Y748D01*
X410Y748D01*
X410Y750D01*
X412Y750D01*
X412Y752D01*
X420Y752D01*
X420Y754D01*
X424Y754D01*
X424Y756D01*
X426Y756D01*
X426Y758D01*
X428Y758D01*
X428Y760D01*
X430Y760D01*
X430Y762D01*
X432Y762D01*
X432Y764D01*
X434Y764D01*
X434Y766D01*
X436Y766D01*
X436Y768D01*
X438Y768D01*
X438Y770D01*
X440Y770D01*
X440Y772D01*
X442Y772D01*
X442Y774D01*
X446Y774D01*
X446Y776D01*
X450Y776D01*
X450Y778D01*
X372Y778D01*
G37*
D02*
G36*
X868Y766D02*
X868Y764D01*
X1154Y764D01*
X1154Y766D01*
X868Y766D01*
G37*
D02*
G36*
X868Y766D02*
X868Y764D01*
X1154Y764D01*
X1154Y766D01*
X868Y766D01*
G37*
D02*
G36*
X866Y764D02*
X866Y762D01*
X864Y762D01*
X864Y760D01*
X862Y760D01*
X862Y758D01*
X860Y758D01*
X860Y756D01*
X858Y756D01*
X858Y754D01*
X856Y754D01*
X856Y752D01*
X852Y752D01*
X852Y750D01*
X850Y750D01*
X850Y748D01*
X848Y748D01*
X848Y746D01*
X846Y746D01*
X846Y744D01*
X844Y744D01*
X844Y742D01*
X842Y742D01*
X842Y740D01*
X840Y740D01*
X840Y738D01*
X838Y738D01*
X838Y736D01*
X836Y736D01*
X836Y734D01*
X834Y734D01*
X834Y732D01*
X832Y732D01*
X832Y730D01*
X830Y730D01*
X830Y728D01*
X828Y728D01*
X828Y726D01*
X826Y726D01*
X826Y724D01*
X824Y724D01*
X824Y722D01*
X822Y722D01*
X822Y720D01*
X820Y720D01*
X820Y718D01*
X818Y718D01*
X818Y716D01*
X816Y716D01*
X816Y714D01*
X814Y714D01*
X814Y712D01*
X812Y712D01*
X812Y710D01*
X810Y710D01*
X810Y708D01*
X808Y708D01*
X808Y706D01*
X806Y706D01*
X806Y704D01*
X804Y704D01*
X804Y702D01*
X802Y702D01*
X802Y700D01*
X800Y700D01*
X800Y698D01*
X798Y698D01*
X798Y696D01*
X796Y696D01*
X796Y694D01*
X794Y694D01*
X794Y692D01*
X792Y692D01*
X792Y690D01*
X790Y690D01*
X790Y688D01*
X788Y688D01*
X788Y686D01*
X786Y686D01*
X786Y684D01*
X784Y684D01*
X784Y682D01*
X782Y682D01*
X782Y680D01*
X780Y680D01*
X780Y678D01*
X778Y678D01*
X778Y676D01*
X776Y676D01*
X776Y674D01*
X774Y674D01*
X774Y672D01*
X772Y672D01*
X772Y670D01*
X770Y670D01*
X770Y668D01*
X768Y668D01*
X768Y666D01*
X766Y666D01*
X766Y664D01*
X764Y664D01*
X764Y662D01*
X762Y662D01*
X762Y660D01*
X760Y660D01*
X760Y658D01*
X758Y658D01*
X758Y656D01*
X756Y656D01*
X756Y654D01*
X754Y654D01*
X754Y652D01*
X752Y652D01*
X752Y650D01*
X750Y650D01*
X750Y648D01*
X748Y648D01*
X748Y590D01*
X1266Y590D01*
X1266Y606D01*
X1262Y606D01*
X1262Y608D01*
X1260Y608D01*
X1260Y610D01*
X1258Y610D01*
X1258Y612D01*
X1256Y612D01*
X1256Y614D01*
X1254Y614D01*
X1254Y616D01*
X1252Y616D01*
X1252Y618D01*
X1250Y618D01*
X1250Y620D01*
X1248Y620D01*
X1248Y622D01*
X1246Y622D01*
X1246Y624D01*
X1244Y624D01*
X1244Y626D01*
X1242Y626D01*
X1242Y628D01*
X1238Y628D01*
X1238Y630D01*
X1236Y630D01*
X1236Y632D01*
X1234Y632D01*
X1234Y634D01*
X1232Y634D01*
X1232Y636D01*
X1230Y636D01*
X1230Y638D01*
X1228Y638D01*
X1228Y640D01*
X1226Y640D01*
X1226Y642D01*
X1224Y642D01*
X1224Y644D01*
X1222Y644D01*
X1222Y646D01*
X1220Y646D01*
X1220Y648D01*
X1218Y648D01*
X1218Y650D01*
X1214Y650D01*
X1214Y652D01*
X1212Y652D01*
X1212Y654D01*
X1210Y654D01*
X1210Y656D01*
X1208Y656D01*
X1208Y658D01*
X1206Y658D01*
X1206Y660D01*
X1204Y660D01*
X1204Y662D01*
X1202Y662D01*
X1202Y664D01*
X1200Y664D01*
X1200Y666D01*
X1198Y666D01*
X1198Y668D01*
X1196Y668D01*
X1196Y670D01*
X1194Y670D01*
X1194Y672D01*
X1190Y672D01*
X1190Y674D01*
X1188Y674D01*
X1188Y676D01*
X1186Y676D01*
X1186Y678D01*
X1184Y678D01*
X1184Y680D01*
X1182Y680D01*
X1182Y682D01*
X1180Y682D01*
X1180Y684D01*
X1178Y684D01*
X1178Y686D01*
X1176Y686D01*
X1176Y688D01*
X1174Y688D01*
X1174Y690D01*
X1172Y690D01*
X1172Y692D01*
X1170Y692D01*
X1170Y694D01*
X1166Y694D01*
X1166Y696D01*
X1164Y696D01*
X1164Y698D01*
X1162Y698D01*
X1162Y700D01*
X1160Y700D01*
X1160Y702D01*
X1158Y702D01*
X1158Y706D01*
X1156Y706D01*
X1156Y710D01*
X1154Y710D01*
X1154Y764D01*
X866Y764D01*
G37*
D02*
G36*
X464Y734D02*
X464Y732D01*
X462Y732D01*
X462Y730D01*
X460Y730D01*
X460Y728D01*
X458Y728D01*
X458Y726D01*
X456Y726D01*
X456Y724D01*
X454Y724D01*
X454Y722D01*
X452Y722D01*
X452Y718D01*
X450Y718D01*
X450Y712D01*
X448Y712D01*
X448Y708D01*
X446Y708D01*
X446Y706D01*
X544Y706D01*
X544Y708D01*
X542Y708D01*
X542Y732D01*
X512Y732D01*
X512Y734D01*
X464Y734D01*
G37*
D02*
G36*
X444Y706D02*
X444Y704D01*
X726Y704D01*
X726Y706D01*
X444Y706D01*
G37*
D02*
G36*
X444Y706D02*
X444Y704D01*
X726Y704D01*
X726Y706D01*
X444Y706D01*
G37*
D02*
G36*
X442Y704D02*
X442Y702D01*
X440Y702D01*
X440Y700D01*
X438Y700D01*
X438Y698D01*
X434Y698D01*
X434Y696D01*
X430Y696D01*
X430Y694D01*
X726Y694D01*
X726Y704D01*
X442Y704D01*
G37*
D02*
G36*
X312Y694D02*
X312Y692D01*
X726Y692D01*
X726Y694D01*
X312Y694D01*
G37*
D02*
G36*
X312Y694D02*
X312Y692D01*
X726Y692D01*
X726Y694D01*
X312Y694D01*
G37*
D02*
G36*
X310Y692D02*
X310Y690D01*
X308Y690D01*
X308Y688D01*
X306Y688D01*
X306Y686D01*
X304Y686D01*
X304Y684D01*
X626Y684D01*
X626Y590D01*
X664Y590D01*
X664Y684D01*
X724Y684D01*
X724Y686D01*
X726Y686D01*
X726Y692D01*
X310Y692D01*
G37*
D02*
G36*
X302Y684D02*
X302Y682D01*
X300Y682D01*
X300Y680D01*
X298Y680D01*
X298Y678D01*
X296Y678D01*
X296Y676D01*
X294Y676D01*
X294Y674D01*
X424Y674D01*
X424Y672D01*
X432Y672D01*
X432Y670D01*
X436Y670D01*
X436Y668D01*
X438Y668D01*
X438Y666D01*
X542Y666D01*
X542Y684D01*
X302Y684D01*
G37*
D02*
G36*
X292Y674D02*
X292Y672D01*
X290Y672D01*
X290Y670D01*
X288Y670D01*
X288Y668D01*
X286Y668D01*
X286Y666D01*
X284Y666D01*
X284Y664D01*
X282Y664D01*
X282Y662D01*
X280Y662D01*
X280Y658D01*
X278Y658D01*
X278Y656D01*
X276Y656D01*
X276Y654D01*
X274Y654D01*
X274Y652D01*
X272Y652D01*
X272Y650D01*
X270Y650D01*
X270Y648D01*
X268Y648D01*
X268Y646D01*
X266Y646D01*
X266Y644D01*
X264Y644D01*
X264Y642D01*
X262Y642D01*
X262Y640D01*
X260Y640D01*
X260Y638D01*
X258Y638D01*
X258Y636D01*
X256Y636D01*
X256Y634D01*
X254Y634D01*
X254Y632D01*
X252Y632D01*
X252Y630D01*
X250Y630D01*
X250Y628D01*
X248Y628D01*
X248Y626D01*
X246Y626D01*
X246Y622D01*
X244Y622D01*
X244Y620D01*
X242Y620D01*
X242Y618D01*
X240Y618D01*
X240Y616D01*
X238Y616D01*
X238Y614D01*
X416Y614D01*
X416Y616D01*
X410Y616D01*
X410Y618D01*
X408Y618D01*
X408Y620D01*
X404Y620D01*
X404Y622D01*
X402Y622D01*
X402Y624D01*
X400Y624D01*
X400Y628D01*
X398Y628D01*
X398Y630D01*
X396Y630D01*
X396Y634D01*
X394Y634D01*
X394Y640D01*
X392Y640D01*
X392Y646D01*
X394Y646D01*
X394Y654D01*
X396Y654D01*
X396Y656D01*
X398Y656D01*
X398Y660D01*
X400Y660D01*
X400Y662D01*
X402Y662D01*
X402Y664D01*
X404Y664D01*
X404Y666D01*
X406Y666D01*
X406Y668D01*
X410Y668D01*
X410Y670D01*
X412Y670D01*
X412Y672D01*
X420Y672D01*
X420Y674D01*
X292Y674D01*
G37*
D02*
G36*
X440Y622D02*
X440Y620D01*
X438Y620D01*
X438Y618D01*
X434Y618D01*
X434Y616D01*
X430Y616D01*
X430Y614D01*
X542Y614D01*
X542Y622D01*
X440Y622D01*
G37*
D02*
G36*
X236Y614D02*
X236Y612D01*
X542Y612D01*
X542Y614D01*
X236Y614D01*
G37*
D02*
G36*
X236Y614D02*
X236Y612D01*
X542Y612D01*
X542Y614D01*
X236Y614D01*
G37*
D02*
G36*
X234Y612D02*
X234Y610D01*
X232Y610D01*
X232Y608D01*
X230Y608D01*
X230Y606D01*
X228Y606D01*
X228Y604D01*
X226Y604D01*
X226Y602D01*
X224Y602D01*
X224Y600D01*
X222Y600D01*
X222Y598D01*
X220Y598D01*
X220Y596D01*
X218Y596D01*
X218Y594D01*
X216Y594D01*
X216Y592D01*
X428Y592D01*
X428Y590D01*
X542Y590D01*
X542Y612D01*
X234Y612D01*
G37*
D02*
G36*
X214Y592D02*
X214Y562D01*
X212Y562D01*
X212Y556D01*
X210Y556D01*
X210Y552D01*
X208Y552D01*
X208Y550D01*
X206Y550D01*
X206Y546D01*
X204Y546D01*
X204Y544D01*
X202Y544D01*
X202Y542D01*
X200Y542D01*
X200Y540D01*
X198Y540D01*
X198Y538D01*
X196Y538D01*
X196Y536D01*
X192Y536D01*
X192Y534D01*
X190Y534D01*
X190Y512D01*
X194Y512D01*
X194Y510D01*
X196Y510D01*
X196Y508D01*
X198Y508D01*
X198Y506D01*
X200Y506D01*
X200Y504D01*
X202Y504D01*
X202Y502D01*
X204Y502D01*
X204Y500D01*
X206Y500D01*
X206Y498D01*
X208Y498D01*
X208Y494D01*
X210Y494D01*
X210Y490D01*
X212Y490D01*
X212Y484D01*
X214Y484D01*
X214Y458D01*
X216Y458D01*
X216Y456D01*
X544Y456D01*
X544Y482D01*
X486Y482D01*
X486Y484D01*
X480Y484D01*
X480Y486D01*
X476Y486D01*
X476Y488D01*
X474Y488D01*
X474Y490D01*
X472Y490D01*
X472Y492D01*
X468Y492D01*
X468Y494D01*
X466Y494D01*
X466Y496D01*
X464Y496D01*
X464Y498D01*
X462Y498D01*
X462Y500D01*
X460Y500D01*
X460Y502D01*
X458Y502D01*
X458Y504D01*
X454Y504D01*
X454Y506D01*
X452Y506D01*
X452Y508D01*
X450Y508D01*
X450Y510D01*
X448Y510D01*
X448Y512D01*
X446Y512D01*
X446Y514D01*
X444Y514D01*
X444Y516D01*
X442Y516D01*
X442Y518D01*
X438Y518D01*
X438Y520D01*
X436Y520D01*
X436Y522D01*
X434Y522D01*
X434Y524D01*
X432Y524D01*
X432Y526D01*
X430Y526D01*
X430Y528D01*
X428Y528D01*
X428Y530D01*
X424Y530D01*
X424Y532D01*
X420Y532D01*
X420Y534D01*
X412Y534D01*
X412Y536D01*
X408Y536D01*
X408Y538D01*
X406Y538D01*
X406Y540D01*
X404Y540D01*
X404Y542D01*
X402Y542D01*
X402Y544D01*
X400Y544D01*
X400Y546D01*
X398Y546D01*
X398Y548D01*
X396Y548D01*
X396Y552D01*
X394Y552D01*
X394Y560D01*
X392Y560D01*
X392Y566D01*
X394Y566D01*
X394Y572D01*
X396Y572D01*
X396Y576D01*
X398Y576D01*
X398Y578D01*
X400Y578D01*
X400Y582D01*
X402Y582D01*
X402Y584D01*
X406Y584D01*
X406Y586D01*
X408Y586D01*
X408Y588D01*
X412Y588D01*
X412Y590D01*
X416Y590D01*
X416Y592D01*
X214Y592D01*
G37*
D02*
G36*
X434Y590D02*
X434Y588D01*
X1266Y588D01*
X1266Y590D01*
X434Y590D01*
G37*
D02*
G36*
X434Y590D02*
X434Y588D01*
X1266Y588D01*
X1266Y590D01*
X434Y590D01*
G37*
D02*
G36*
X434Y590D02*
X434Y588D01*
X1266Y588D01*
X1266Y590D01*
X434Y590D01*
G37*
D02*
G36*
X436Y588D02*
X436Y586D01*
X440Y586D01*
X440Y584D01*
X442Y584D01*
X442Y582D01*
X444Y582D01*
X444Y580D01*
X446Y580D01*
X446Y576D01*
X448Y576D01*
X448Y574D01*
X450Y574D01*
X450Y568D01*
X452Y568D01*
X452Y564D01*
X456Y564D01*
X456Y562D01*
X458Y562D01*
X458Y560D01*
X460Y560D01*
X460Y558D01*
X462Y558D01*
X462Y556D01*
X464Y556D01*
X464Y554D01*
X466Y554D01*
X466Y552D01*
X470Y552D01*
X470Y550D01*
X748Y550D01*
X748Y536D01*
X1066Y536D01*
X1066Y476D01*
X1266Y476D01*
X1266Y588D01*
X436Y588D01*
G37*
D02*
G36*
X472Y550D02*
X472Y548D01*
X474Y548D01*
X474Y546D01*
X476Y546D01*
X476Y544D01*
X478Y544D01*
X478Y542D01*
X480Y542D01*
X480Y540D01*
X482Y540D01*
X482Y538D01*
X486Y538D01*
X486Y536D01*
X488Y536D01*
X488Y534D01*
X490Y534D01*
X490Y532D01*
X492Y532D01*
X492Y530D01*
X494Y530D01*
X494Y528D01*
X496Y528D01*
X496Y526D01*
X544Y526D01*
X544Y550D01*
X472Y550D01*
G37*
D02*
G36*
X626Y550D02*
X626Y456D01*
X666Y456D01*
X666Y550D01*
X626Y550D01*
G37*
D02*
G36*
X748Y536D02*
X748Y526D01*
X908Y526D01*
X908Y528D01*
X928Y528D01*
X928Y536D01*
X748Y536D01*
G37*
D02*
G36*
X748Y482D02*
X748Y476D01*
X928Y476D01*
X928Y482D01*
X748Y482D01*
G37*
D02*
G36*
X748Y476D02*
X748Y474D01*
X1266Y474D01*
X1266Y476D01*
X748Y476D01*
G37*
D02*
G36*
X748Y476D02*
X748Y474D01*
X1266Y474D01*
X1266Y476D01*
X748Y476D01*
G37*
D02*
G36*
X748Y474D02*
X748Y456D01*
X1266Y456D01*
X1266Y474D01*
X748Y474D01*
G37*
D02*
G36*
X218Y456D02*
X218Y454D01*
X1266Y454D01*
X1266Y456D01*
X218Y456D01*
G37*
D02*
G36*
X218Y456D02*
X218Y454D01*
X1266Y454D01*
X1266Y456D01*
X218Y456D01*
G37*
D02*
G36*
X218Y456D02*
X218Y454D01*
X1266Y454D01*
X1266Y456D01*
X218Y456D01*
G37*
D02*
G36*
X220Y454D02*
X220Y452D01*
X222Y452D01*
X222Y450D01*
X224Y450D01*
X224Y448D01*
X226Y448D01*
X226Y446D01*
X228Y446D01*
X228Y444D01*
X230Y444D01*
X230Y442D01*
X232Y442D01*
X232Y440D01*
X234Y440D01*
X234Y438D01*
X236Y438D01*
X236Y436D01*
X238Y436D01*
X238Y434D01*
X240Y434D01*
X240Y432D01*
X242Y432D01*
X242Y430D01*
X244Y430D01*
X244Y428D01*
X246Y428D01*
X246Y426D01*
X248Y426D01*
X248Y424D01*
X252Y424D01*
X252Y422D01*
X254Y422D01*
X254Y420D01*
X256Y420D01*
X256Y418D01*
X258Y418D01*
X258Y416D01*
X260Y416D01*
X260Y414D01*
X262Y414D01*
X262Y412D01*
X264Y412D01*
X264Y410D01*
X266Y410D01*
X266Y408D01*
X268Y408D01*
X268Y406D01*
X270Y406D01*
X270Y404D01*
X272Y404D01*
X272Y402D01*
X274Y402D01*
X274Y400D01*
X276Y400D01*
X276Y398D01*
X278Y398D01*
X278Y396D01*
X280Y396D01*
X280Y394D01*
X282Y394D01*
X282Y392D01*
X284Y392D01*
X284Y390D01*
X286Y390D01*
X286Y388D01*
X288Y388D01*
X288Y386D01*
X290Y386D01*
X290Y384D01*
X292Y384D01*
X292Y382D01*
X294Y382D01*
X294Y380D01*
X296Y380D01*
X296Y378D01*
X298Y378D01*
X298Y376D01*
X300Y376D01*
X300Y374D01*
X302Y374D01*
X302Y372D01*
X304Y372D01*
X304Y370D01*
X306Y370D01*
X306Y368D01*
X308Y368D01*
X308Y366D01*
X310Y366D01*
X310Y364D01*
X312Y364D01*
X312Y362D01*
X314Y362D01*
X314Y360D01*
X316Y360D01*
X316Y358D01*
X318Y358D01*
X318Y356D01*
X320Y356D01*
X320Y354D01*
X322Y354D01*
X322Y352D01*
X324Y352D01*
X324Y350D01*
X326Y350D01*
X326Y348D01*
X328Y348D01*
X328Y346D01*
X330Y346D01*
X330Y344D01*
X332Y344D01*
X332Y342D01*
X336Y342D01*
X336Y340D01*
X338Y340D01*
X338Y338D01*
X1066Y338D01*
X1066Y280D01*
X1266Y280D01*
X1266Y454D01*
X220Y454D01*
G37*
D02*
G36*
X214Y380D02*
X214Y362D01*
X212Y362D01*
X212Y356D01*
X210Y356D01*
X210Y352D01*
X208Y352D01*
X208Y350D01*
X206Y350D01*
X206Y346D01*
X204Y346D01*
X204Y344D01*
X202Y344D01*
X202Y342D01*
X200Y342D01*
X200Y340D01*
X198Y340D01*
X198Y338D01*
X196Y338D01*
X196Y336D01*
X192Y336D01*
X192Y334D01*
X190Y334D01*
X190Y332D01*
X186Y332D01*
X186Y330D01*
X182Y330D01*
X182Y328D01*
X174Y328D01*
X174Y326D01*
X286Y326D01*
X286Y328D01*
X284Y328D01*
X284Y330D01*
X282Y330D01*
X282Y332D01*
X280Y332D01*
X280Y334D01*
X278Y334D01*
X278Y336D01*
X276Y336D01*
X276Y338D01*
X274Y338D01*
X274Y340D01*
X272Y340D01*
X272Y342D01*
X270Y342D01*
X270Y344D01*
X268Y344D01*
X268Y346D01*
X266Y346D01*
X266Y348D01*
X264Y348D01*
X264Y350D01*
X262Y350D01*
X262Y352D01*
X260Y352D01*
X260Y354D01*
X258Y354D01*
X258Y356D01*
X256Y356D01*
X256Y358D01*
X254Y358D01*
X254Y360D01*
X252Y360D01*
X252Y362D01*
X250Y362D01*
X250Y364D01*
X248Y364D01*
X248Y366D01*
X246Y366D01*
X246Y368D01*
X244Y368D01*
X244Y370D01*
X242Y370D01*
X242Y372D01*
X240Y372D01*
X240Y374D01*
X238Y374D01*
X238Y376D01*
X236Y376D01*
X236Y378D01*
X234Y378D01*
X234Y380D01*
X214Y380D01*
G37*
D02*
G36*
X340Y338D02*
X340Y336D01*
X342Y336D01*
X342Y334D01*
X344Y334D01*
X344Y332D01*
X346Y332D01*
X346Y330D01*
X348Y330D01*
X348Y328D01*
X350Y328D01*
X350Y326D01*
X352Y326D01*
X352Y324D01*
X354Y324D01*
X354Y322D01*
X356Y322D01*
X356Y320D01*
X358Y320D01*
X358Y318D01*
X360Y318D01*
X360Y316D01*
X362Y316D01*
X362Y314D01*
X364Y314D01*
X364Y312D01*
X366Y312D01*
X366Y310D01*
X368Y310D01*
X368Y308D01*
X370Y308D01*
X370Y306D01*
X372Y306D01*
X372Y304D01*
X374Y304D01*
X374Y302D01*
X376Y302D01*
X376Y300D01*
X378Y300D01*
X378Y298D01*
X380Y298D01*
X380Y296D01*
X382Y296D01*
X382Y294D01*
X384Y294D01*
X384Y292D01*
X386Y292D01*
X386Y290D01*
X388Y290D01*
X388Y288D01*
X390Y288D01*
X390Y286D01*
X392Y286D01*
X392Y284D01*
X394Y284D01*
X394Y282D01*
X396Y282D01*
X396Y280D01*
X928Y280D01*
X928Y338D01*
X340Y338D01*
G37*
D02*
G36*
X40Y326D02*
X40Y324D01*
X288Y324D01*
X288Y326D01*
X40Y326D01*
G37*
D02*
G36*
X40Y326D02*
X40Y324D01*
X288Y324D01*
X288Y326D01*
X40Y326D01*
G37*
D02*
G36*
X40Y324D02*
X40Y136D01*
X98Y136D01*
X98Y134D01*
X104Y134D01*
X104Y132D01*
X108Y132D01*
X108Y130D01*
X112Y130D01*
X112Y128D01*
X116Y128D01*
X116Y126D01*
X118Y126D01*
X118Y124D01*
X120Y124D01*
X120Y122D01*
X122Y122D01*
X122Y120D01*
X124Y120D01*
X124Y118D01*
X126Y118D01*
X126Y116D01*
X128Y116D01*
X128Y114D01*
X130Y114D01*
X130Y110D01*
X132Y110D01*
X132Y108D01*
X134Y108D01*
X134Y104D01*
X136Y104D01*
X136Y98D01*
X138Y98D01*
X138Y88D01*
X140Y88D01*
X140Y78D01*
X138Y78D01*
X138Y68D01*
X136Y68D01*
X136Y64D01*
X134Y64D01*
X134Y60D01*
X132Y60D01*
X132Y40D01*
X1048Y40D01*
X1048Y60D01*
X1046Y60D01*
X1046Y62D01*
X1044Y62D01*
X1044Y64D01*
X556Y64D01*
X556Y66D01*
X554Y66D01*
X554Y68D01*
X550Y68D01*
X550Y70D01*
X548Y70D01*
X548Y72D01*
X546Y72D01*
X546Y74D01*
X544Y74D01*
X544Y76D01*
X542Y76D01*
X542Y78D01*
X540Y78D01*
X540Y80D01*
X538Y80D01*
X538Y82D01*
X536Y82D01*
X536Y84D01*
X534Y84D01*
X534Y86D01*
X532Y86D01*
X532Y88D01*
X530Y88D01*
X530Y90D01*
X528Y90D01*
X528Y92D01*
X526Y92D01*
X526Y94D01*
X524Y94D01*
X524Y96D01*
X522Y96D01*
X522Y98D01*
X520Y98D01*
X520Y100D01*
X518Y100D01*
X518Y102D01*
X516Y102D01*
X516Y104D01*
X514Y104D01*
X514Y106D01*
X512Y106D01*
X512Y108D01*
X510Y108D01*
X510Y110D01*
X508Y110D01*
X508Y112D01*
X506Y112D01*
X506Y114D01*
X504Y114D01*
X504Y116D01*
X502Y116D01*
X502Y118D01*
X500Y118D01*
X500Y120D01*
X498Y120D01*
X498Y122D01*
X496Y122D01*
X496Y124D01*
X494Y124D01*
X494Y126D01*
X492Y126D01*
X492Y128D01*
X490Y128D01*
X490Y130D01*
X488Y130D01*
X488Y132D01*
X486Y132D01*
X486Y134D01*
X484Y134D01*
X484Y136D01*
X480Y136D01*
X480Y138D01*
X478Y138D01*
X478Y140D01*
X476Y140D01*
X476Y142D01*
X474Y142D01*
X474Y144D01*
X472Y144D01*
X472Y146D01*
X470Y146D01*
X470Y148D01*
X468Y148D01*
X468Y150D01*
X466Y150D01*
X466Y152D01*
X464Y152D01*
X464Y154D01*
X462Y154D01*
X462Y156D01*
X460Y156D01*
X460Y158D01*
X458Y158D01*
X458Y160D01*
X456Y160D01*
X456Y162D01*
X454Y162D01*
X454Y164D01*
X452Y164D01*
X452Y166D01*
X450Y166D01*
X450Y168D01*
X448Y168D01*
X448Y170D01*
X446Y170D01*
X446Y172D01*
X444Y172D01*
X444Y174D01*
X442Y174D01*
X442Y176D01*
X440Y176D01*
X440Y178D01*
X438Y178D01*
X438Y180D01*
X436Y180D01*
X436Y182D01*
X434Y182D01*
X434Y184D01*
X432Y184D01*
X432Y186D01*
X430Y186D01*
X430Y188D01*
X428Y188D01*
X428Y190D01*
X426Y190D01*
X426Y192D01*
X424Y192D01*
X424Y194D01*
X422Y194D01*
X422Y196D01*
X420Y196D01*
X420Y198D01*
X418Y198D01*
X418Y200D01*
X416Y200D01*
X416Y202D01*
X414Y202D01*
X414Y204D01*
X412Y204D01*
X412Y206D01*
X410Y206D01*
X410Y208D01*
X408Y208D01*
X408Y210D01*
X406Y210D01*
X406Y212D01*
X404Y212D01*
X404Y214D01*
X402Y214D01*
X402Y216D01*
X400Y216D01*
X400Y218D01*
X396Y218D01*
X396Y220D01*
X394Y220D01*
X394Y222D01*
X392Y222D01*
X392Y224D01*
X390Y224D01*
X390Y226D01*
X388Y226D01*
X388Y228D01*
X386Y228D01*
X386Y230D01*
X384Y230D01*
X384Y232D01*
X382Y232D01*
X382Y234D01*
X380Y234D01*
X380Y236D01*
X378Y236D01*
X378Y238D01*
X376Y238D01*
X376Y240D01*
X374Y240D01*
X374Y242D01*
X372Y242D01*
X372Y244D01*
X370Y244D01*
X370Y246D01*
X368Y246D01*
X368Y248D01*
X366Y248D01*
X366Y250D01*
X364Y250D01*
X364Y252D01*
X362Y252D01*
X362Y254D01*
X360Y254D01*
X360Y256D01*
X358Y256D01*
X358Y258D01*
X356Y258D01*
X356Y260D01*
X354Y260D01*
X354Y262D01*
X352Y262D01*
X352Y264D01*
X350Y264D01*
X350Y266D01*
X348Y266D01*
X348Y268D01*
X346Y268D01*
X346Y270D01*
X344Y270D01*
X344Y272D01*
X342Y272D01*
X342Y274D01*
X340Y274D01*
X340Y276D01*
X338Y276D01*
X338Y278D01*
X336Y278D01*
X336Y280D01*
X334Y280D01*
X334Y282D01*
X332Y282D01*
X332Y284D01*
X330Y284D01*
X330Y286D01*
X328Y286D01*
X328Y288D01*
X326Y288D01*
X326Y290D01*
X324Y290D01*
X324Y292D01*
X322Y292D01*
X322Y294D01*
X320Y294D01*
X320Y296D01*
X318Y296D01*
X318Y298D01*
X316Y298D01*
X316Y300D01*
X314Y300D01*
X314Y302D01*
X310Y302D01*
X310Y304D01*
X308Y304D01*
X308Y306D01*
X306Y306D01*
X306Y308D01*
X304Y308D01*
X304Y310D01*
X302Y310D01*
X302Y312D01*
X300Y312D01*
X300Y314D01*
X298Y314D01*
X298Y316D01*
X296Y316D01*
X296Y318D01*
X294Y318D01*
X294Y320D01*
X292Y320D01*
X292Y322D01*
X290Y322D01*
X290Y324D01*
X40Y324D01*
G37*
D02*
G36*
X398Y280D02*
X398Y278D01*
X1266Y278D01*
X1266Y280D01*
X398Y280D01*
G37*
D02*
G36*
X398Y280D02*
X398Y278D01*
X1266Y278D01*
X1266Y280D01*
X398Y280D01*
G37*
D02*
G36*
X400Y278D02*
X400Y276D01*
X402Y276D01*
X402Y274D01*
X404Y274D01*
X404Y272D01*
X406Y272D01*
X406Y270D01*
X408Y270D01*
X408Y268D01*
X410Y268D01*
X410Y266D01*
X412Y266D01*
X412Y264D01*
X414Y264D01*
X414Y262D01*
X416Y262D01*
X416Y260D01*
X420Y260D01*
X420Y258D01*
X422Y258D01*
X422Y256D01*
X424Y256D01*
X424Y254D01*
X426Y254D01*
X426Y252D01*
X428Y252D01*
X428Y250D01*
X430Y250D01*
X430Y248D01*
X432Y248D01*
X432Y246D01*
X434Y246D01*
X434Y244D01*
X436Y244D01*
X436Y242D01*
X438Y242D01*
X438Y240D01*
X440Y240D01*
X440Y238D01*
X442Y238D01*
X442Y236D01*
X444Y236D01*
X444Y234D01*
X446Y234D01*
X446Y232D01*
X448Y232D01*
X448Y230D01*
X450Y230D01*
X450Y228D01*
X452Y228D01*
X452Y226D01*
X454Y226D01*
X454Y224D01*
X456Y224D01*
X456Y222D01*
X458Y222D01*
X458Y220D01*
X460Y220D01*
X460Y218D01*
X462Y218D01*
X462Y216D01*
X464Y216D01*
X464Y214D01*
X466Y214D01*
X466Y212D01*
X468Y212D01*
X468Y210D01*
X470Y210D01*
X470Y208D01*
X472Y208D01*
X472Y206D01*
X474Y206D01*
X474Y204D01*
X476Y204D01*
X476Y202D01*
X478Y202D01*
X478Y200D01*
X480Y200D01*
X480Y198D01*
X482Y198D01*
X482Y196D01*
X484Y196D01*
X484Y194D01*
X486Y194D01*
X486Y192D01*
X488Y192D01*
X488Y190D01*
X490Y190D01*
X490Y188D01*
X492Y188D01*
X492Y186D01*
X494Y186D01*
X494Y184D01*
X496Y184D01*
X496Y182D01*
X498Y182D01*
X498Y180D01*
X500Y180D01*
X500Y178D01*
X502Y178D01*
X502Y176D01*
X506Y176D01*
X506Y174D01*
X508Y174D01*
X508Y172D01*
X510Y172D01*
X510Y170D01*
X512Y170D01*
X512Y168D01*
X514Y168D01*
X514Y166D01*
X516Y166D01*
X516Y164D01*
X518Y164D01*
X518Y162D01*
X520Y162D01*
X520Y160D01*
X522Y160D01*
X522Y158D01*
X524Y158D01*
X524Y156D01*
X526Y156D01*
X526Y154D01*
X528Y154D01*
X528Y152D01*
X530Y152D01*
X530Y150D01*
X532Y150D01*
X532Y148D01*
X534Y148D01*
X534Y146D01*
X536Y146D01*
X536Y144D01*
X538Y144D01*
X538Y142D01*
X540Y142D01*
X540Y140D01*
X542Y140D01*
X542Y138D01*
X544Y138D01*
X544Y136D01*
X1552Y136D01*
X1552Y134D01*
X1562Y134D01*
X1562Y132D01*
X1568Y132D01*
X1568Y130D01*
X1570Y130D01*
X1570Y128D01*
X1574Y128D01*
X1574Y126D01*
X1594Y126D01*
X1594Y186D01*
X1266Y186D01*
X1266Y278D01*
X400Y278D01*
G37*
D02*
G36*
X40Y136D02*
X40Y128D01*
X60Y128D01*
X60Y130D01*
X64Y130D01*
X64Y132D01*
X68Y132D01*
X68Y134D01*
X74Y134D01*
X74Y136D01*
X40Y136D01*
G37*
D02*
G36*
X546Y136D02*
X546Y134D01*
X1396Y134D01*
X1396Y132D01*
X1402Y132D01*
X1402Y130D01*
X1406Y130D01*
X1406Y128D01*
X1410Y128D01*
X1410Y126D01*
X1414Y126D01*
X1414Y124D01*
X1416Y124D01*
X1416Y122D01*
X1418Y122D01*
X1418Y120D01*
X1420Y120D01*
X1420Y118D01*
X1422Y118D01*
X1422Y116D01*
X1424Y116D01*
X1424Y114D01*
X1426Y114D01*
X1426Y112D01*
X1428Y112D01*
X1428Y108D01*
X1430Y108D01*
X1430Y104D01*
X1432Y104D01*
X1432Y100D01*
X1434Y100D01*
X1434Y92D01*
X1436Y92D01*
X1436Y78D01*
X1434Y78D01*
X1434Y72D01*
X1432Y72D01*
X1432Y66D01*
X1430Y66D01*
X1430Y64D01*
X1428Y64D01*
X1428Y60D01*
X1426Y60D01*
X1426Y40D01*
X1500Y40D01*
X1500Y60D01*
X1498Y60D01*
X1498Y64D01*
X1496Y64D01*
X1496Y72D01*
X1494Y72D01*
X1494Y94D01*
X1496Y94D01*
X1496Y100D01*
X1498Y100D01*
X1498Y104D01*
X1500Y104D01*
X1500Y108D01*
X1502Y108D01*
X1502Y110D01*
X1504Y110D01*
X1504Y114D01*
X1506Y114D01*
X1506Y116D01*
X1508Y116D01*
X1508Y118D01*
X1510Y118D01*
X1510Y120D01*
X1512Y120D01*
X1512Y122D01*
X1514Y122D01*
X1514Y124D01*
X1516Y124D01*
X1516Y126D01*
X1520Y126D01*
X1520Y128D01*
X1524Y128D01*
X1524Y130D01*
X1526Y130D01*
X1526Y132D01*
X1532Y132D01*
X1532Y134D01*
X1542Y134D01*
X1542Y136D01*
X546Y136D01*
G37*
D02*
G36*
X548Y134D02*
X548Y132D01*
X550Y132D01*
X550Y130D01*
X552Y130D01*
X552Y128D01*
X554Y128D01*
X554Y126D01*
X556Y126D01*
X556Y124D01*
X558Y124D01*
X558Y122D01*
X560Y122D01*
X560Y120D01*
X562Y120D01*
X562Y118D01*
X564Y118D01*
X564Y116D01*
X566Y116D01*
X566Y114D01*
X568Y114D01*
X568Y112D01*
X570Y112D01*
X570Y110D01*
X572Y110D01*
X572Y108D01*
X1046Y108D01*
X1046Y112D01*
X1048Y112D01*
X1048Y114D01*
X1050Y114D01*
X1050Y116D01*
X1052Y116D01*
X1052Y118D01*
X1054Y118D01*
X1054Y120D01*
X1056Y120D01*
X1056Y122D01*
X1058Y122D01*
X1058Y124D01*
X1060Y124D01*
X1060Y126D01*
X1064Y126D01*
X1064Y128D01*
X1066Y128D01*
X1066Y130D01*
X1070Y130D01*
X1070Y132D01*
X1076Y132D01*
X1076Y134D01*
X548Y134D01*
G37*
D02*
G36*
X1096Y134D02*
X1096Y132D01*
X1102Y132D01*
X1102Y130D01*
X1106Y130D01*
X1106Y128D01*
X1110Y128D01*
X1110Y126D01*
X1114Y126D01*
X1114Y124D01*
X1116Y124D01*
X1116Y122D01*
X1118Y122D01*
X1118Y120D01*
X1120Y120D01*
X1120Y118D01*
X1122Y118D01*
X1122Y116D01*
X1124Y116D01*
X1124Y114D01*
X1126Y114D01*
X1126Y112D01*
X1148Y112D01*
X1148Y114D01*
X1150Y114D01*
X1150Y116D01*
X1152Y116D01*
X1152Y118D01*
X1154Y118D01*
X1154Y120D01*
X1156Y120D01*
X1156Y122D01*
X1158Y122D01*
X1158Y124D01*
X1160Y124D01*
X1160Y126D01*
X1164Y126D01*
X1164Y128D01*
X1166Y128D01*
X1166Y130D01*
X1170Y130D01*
X1170Y132D01*
X1176Y132D01*
X1176Y134D01*
X1096Y134D01*
G37*
D02*
G36*
X1196Y134D02*
X1196Y132D01*
X1202Y132D01*
X1202Y130D01*
X1206Y130D01*
X1206Y128D01*
X1210Y128D01*
X1210Y126D01*
X1214Y126D01*
X1214Y124D01*
X1216Y124D01*
X1216Y122D01*
X1218Y122D01*
X1218Y120D01*
X1220Y120D01*
X1220Y118D01*
X1222Y118D01*
X1222Y116D01*
X1224Y116D01*
X1224Y114D01*
X1226Y114D01*
X1226Y112D01*
X1248Y112D01*
X1248Y114D01*
X1250Y114D01*
X1250Y116D01*
X1252Y116D01*
X1252Y118D01*
X1254Y118D01*
X1254Y120D01*
X1256Y120D01*
X1256Y122D01*
X1258Y122D01*
X1258Y124D01*
X1260Y124D01*
X1260Y126D01*
X1264Y126D01*
X1264Y128D01*
X1266Y128D01*
X1266Y130D01*
X1270Y130D01*
X1270Y132D01*
X1276Y132D01*
X1276Y134D01*
X1196Y134D01*
G37*
D02*
G36*
X1296Y134D02*
X1296Y132D01*
X1302Y132D01*
X1302Y130D01*
X1306Y130D01*
X1306Y128D01*
X1310Y128D01*
X1310Y126D01*
X1314Y126D01*
X1314Y124D01*
X1316Y124D01*
X1316Y122D01*
X1318Y122D01*
X1318Y120D01*
X1320Y120D01*
X1320Y118D01*
X1322Y118D01*
X1322Y116D01*
X1324Y116D01*
X1324Y114D01*
X1326Y114D01*
X1326Y112D01*
X1348Y112D01*
X1348Y114D01*
X1350Y114D01*
X1350Y116D01*
X1352Y116D01*
X1352Y118D01*
X1354Y118D01*
X1354Y120D01*
X1356Y120D01*
X1356Y122D01*
X1358Y122D01*
X1358Y124D01*
X1360Y124D01*
X1360Y126D01*
X1364Y126D01*
X1364Y128D01*
X1366Y128D01*
X1366Y130D01*
X1370Y130D01*
X1370Y132D01*
X1376Y132D01*
X1376Y134D01*
X1296Y134D01*
G37*
D02*
G36*
X328Y1510D02*
X360Y1510D01*
X360Y1435D01*
X328Y1435D01*
X328Y1510D01*
G37*
D02*
G36*
X310Y1239D02*
X360Y1239D01*
X360Y1210D01*
X310Y1210D01*
X310Y1239D01*
G37*
D02*
G36*
X536Y1454D02*
X579Y1454D01*
X579Y1422D01*
X536Y1422D01*
X536Y1454D01*
G37*
D02*
G36*
X508Y1426D02*
X540Y1426D01*
X540Y1383D01*
X508Y1383D01*
X508Y1426D01*
G37*
D02*
G36*
X574Y1426D02*
X606Y1426D01*
X606Y1383D01*
X574Y1383D01*
X574Y1426D01*
G37*
D02*
G36*
X963Y342D02*
X1028Y342D01*
X1028Y312D01*
X963Y312D01*
X963Y342D01*
G37*
D02*
G36*
X963Y310D02*
X1028Y310D01*
X1028Y280D01*
X963Y280D01*
X963Y310D01*
G37*
D02*
G36*
X924Y323D02*
X994Y323D01*
X994Y298D01*
X924Y298D01*
X924Y323D01*
G37*
D02*
G36*
X762Y1426D02*
X794Y1426D01*
X794Y1383D01*
X762Y1383D01*
X762Y1426D01*
G37*
D02*
G36*
X312Y1111D02*
X346Y1111D01*
X346Y1062D01*
X312Y1062D01*
X312Y1111D01*
G37*
D02*
G36*
X536Y1238D02*
X579Y1238D01*
X579Y1206D01*
X536Y1206D01*
X536Y1238D01*
G37*
D02*
G36*
X508Y1276D02*
X540Y1276D01*
X540Y1233D01*
X508Y1233D01*
X508Y1276D01*
G37*
D02*
G36*
X574Y1276D02*
X608Y1276D01*
X608Y1233D01*
X574Y1233D01*
X574Y1276D01*
G37*
D02*
G36*
X792Y1238D02*
X835Y1238D01*
X835Y1206D01*
X792Y1206D01*
X792Y1238D01*
G37*
D02*
G36*
X764Y1276D02*
X796Y1276D01*
X796Y1233D01*
X764Y1233D01*
X764Y1276D01*
G37*
D02*
G36*
X777Y916D02*
X802Y916D01*
X802Y892D01*
X777Y892D01*
X777Y916D01*
G37*
D02*
G36*
X1163Y68D02*
X1208Y68D01*
X1208Y40D01*
X1163Y40D01*
X1163Y68D01*
G37*
D02*
G36*
X687Y934D02*
X724Y934D01*
X724Y886D01*
X687Y886D01*
X687Y934D01*
G37*
D02*
G54D22*
X1277Y1586D02*
X1607Y1586D01*
X1277Y1585D02*
X1607Y1585D01*
X1277Y1584D02*
X1607Y1584D01*
X1277Y1583D02*
X1607Y1583D01*
X1277Y1582D02*
X1607Y1582D01*
X1277Y1581D02*
X1607Y1581D01*
X1277Y1580D02*
X1607Y1580D01*
X1277Y1579D02*
X1607Y1579D01*
X1277Y1578D02*
X1607Y1578D01*
X1277Y1577D02*
X1607Y1577D01*
X1277Y1576D02*
X1607Y1576D01*
X1277Y1575D02*
X1607Y1575D01*
X1277Y1574D02*
X1607Y1574D01*
X1277Y1573D02*
X1607Y1573D01*
X1277Y1572D02*
X1607Y1572D01*
X1277Y1571D02*
X1607Y1571D01*
X1277Y1570D02*
X1607Y1570D01*
X1277Y1569D02*
X1607Y1569D01*
X1277Y1568D02*
X1607Y1568D01*
X1277Y1567D02*
X1607Y1567D01*
X1277Y1566D02*
X1607Y1566D01*
X1277Y1565D02*
X1607Y1565D01*
X1277Y1564D02*
X1607Y1564D01*
X1277Y1563D02*
X1607Y1563D01*
X1277Y1562D02*
X1607Y1562D01*
X1277Y1561D02*
X1607Y1561D01*
X1277Y1560D02*
X1607Y1560D01*
X1277Y1559D02*
X1607Y1559D01*
X1277Y1558D02*
X1607Y1558D01*
X1277Y1557D02*
X1607Y1557D01*
X1277Y1556D02*
X1607Y1556D01*
X1277Y1555D02*
X1607Y1555D01*
X1277Y1554D02*
X1607Y1554D01*
X1277Y1553D02*
X1607Y1553D01*
X1277Y1552D02*
X1607Y1552D01*
X1277Y1551D02*
X1607Y1551D01*
X1277Y1550D02*
X1607Y1550D01*
X1277Y1549D02*
X1607Y1549D01*
X1277Y1548D02*
X1607Y1548D01*
X1277Y1547D02*
X1607Y1547D01*
X1277Y1546D02*
X1607Y1546D01*
X1277Y1545D02*
X1607Y1545D01*
X1277Y1544D02*
X1607Y1544D01*
X1277Y1543D02*
X1607Y1543D01*
X1277Y1542D02*
X1607Y1542D01*
X1277Y1541D02*
X1607Y1541D01*
X1277Y1540D02*
X1607Y1540D01*
X1277Y1539D02*
X1607Y1539D01*
X1277Y1538D02*
X1607Y1538D01*
X1277Y1537D02*
X1607Y1537D01*
X1277Y1536D02*
X1607Y1536D01*
X1277Y1535D02*
X1607Y1535D01*
X1277Y1534D02*
X1607Y1534D01*
X1277Y1533D02*
X1607Y1533D01*
X1277Y1532D02*
X1607Y1532D01*
X1277Y1531D02*
X1607Y1531D01*
X1277Y1530D02*
X1607Y1530D01*
X1277Y1529D02*
X1607Y1529D01*
X1277Y1528D02*
X1607Y1528D01*
X1277Y1527D02*
X1607Y1527D01*
X1277Y1526D02*
X1607Y1526D01*
X1277Y1525D02*
X1607Y1525D01*
X1277Y1524D02*
X1607Y1524D01*
X1277Y1523D02*
X1607Y1523D01*
X1277Y1522D02*
X1607Y1522D01*
X1277Y1521D02*
X1607Y1521D01*
X1277Y1520D02*
X1607Y1520D01*
X1277Y1519D02*
X1607Y1519D01*
X1277Y1518D02*
X1607Y1518D01*
X1277Y1517D02*
X1607Y1517D01*
X1277Y1516D02*
X1607Y1516D01*
X1277Y1515D02*
X1607Y1515D01*
X1277Y1514D02*
X1607Y1514D01*
X1277Y1513D02*
X1607Y1513D01*
X1277Y1512D02*
X1607Y1512D01*
X1277Y1511D02*
X1607Y1511D01*
X1277Y1510D02*
X1607Y1510D01*
X1277Y1509D02*
X1607Y1509D01*
X1277Y1508D02*
X1607Y1508D01*
X1277Y1507D02*
X1607Y1507D01*
X1277Y1506D02*
X1607Y1506D01*
X1277Y1505D02*
X1607Y1505D01*
X1277Y1504D02*
X1607Y1504D01*
X1277Y1503D02*
X1607Y1503D01*
X1277Y1502D02*
X1607Y1502D01*
X1277Y1501D02*
X1607Y1501D01*
X1277Y1500D02*
X1607Y1500D01*
X1277Y1499D02*
X1607Y1499D01*
X1277Y1498D02*
X1607Y1498D01*
X1277Y1497D02*
X1607Y1497D01*
X1277Y1496D02*
X1607Y1496D01*
X1277Y1495D02*
X1607Y1495D01*
X939Y1494D02*
X1055Y1494D01*
X1277Y1494D02*
X1607Y1494D01*
X939Y1493D02*
X1056Y1493D01*
X1277Y1493D02*
X1607Y1493D01*
X939Y1492D02*
X1056Y1492D01*
X1277Y1492D02*
X1607Y1492D01*
X939Y1491D02*
X1056Y1491D01*
X1277Y1491D02*
X1607Y1491D01*
X939Y1490D02*
X1056Y1490D01*
X1277Y1490D02*
X1607Y1490D01*
X939Y1489D02*
X1056Y1489D01*
X1277Y1489D02*
X1607Y1489D01*
X939Y1488D02*
X1056Y1488D01*
X1277Y1488D02*
X1607Y1488D01*
X939Y1487D02*
X1056Y1487D01*
X1277Y1487D02*
X1607Y1487D01*
X939Y1486D02*
X1056Y1486D01*
X1277Y1486D02*
X1607Y1486D01*
X939Y1485D02*
X1056Y1485D01*
X1277Y1485D02*
X1607Y1485D01*
X939Y1484D02*
X1056Y1484D01*
X1277Y1484D02*
X1607Y1484D01*
X939Y1483D02*
X1056Y1483D01*
X1277Y1483D02*
X1607Y1483D01*
X939Y1482D02*
X1056Y1482D01*
X1277Y1482D02*
X1607Y1482D01*
X939Y1481D02*
X1056Y1481D01*
X1277Y1481D02*
X1607Y1481D01*
X939Y1480D02*
X1056Y1480D01*
X1277Y1480D02*
X1607Y1480D01*
X939Y1479D02*
X1056Y1479D01*
X1277Y1479D02*
X1607Y1479D01*
X939Y1478D02*
X1056Y1478D01*
X1277Y1478D02*
X1607Y1478D01*
X939Y1477D02*
X1056Y1477D01*
X1277Y1477D02*
X1607Y1477D01*
X939Y1476D02*
X1056Y1476D01*
X1277Y1476D02*
X1607Y1476D01*
X939Y1475D02*
X1056Y1475D01*
X1277Y1475D02*
X1607Y1475D01*
X939Y1474D02*
X1056Y1474D01*
X1277Y1474D02*
X1607Y1474D01*
X939Y1473D02*
X1056Y1473D01*
X1277Y1473D02*
X1607Y1473D01*
X939Y1472D02*
X1056Y1472D01*
X1277Y1472D02*
X1607Y1472D01*
X939Y1471D02*
X1056Y1471D01*
X1277Y1471D02*
X1607Y1471D01*
X939Y1470D02*
X1056Y1470D01*
X1277Y1470D02*
X1607Y1470D01*
X939Y1469D02*
X1056Y1469D01*
X1277Y1469D02*
X1607Y1469D01*
X939Y1468D02*
X1056Y1468D01*
X1277Y1468D02*
X1607Y1468D01*
X939Y1467D02*
X1056Y1467D01*
X1277Y1467D02*
X1607Y1467D01*
X939Y1466D02*
X1056Y1466D01*
X1277Y1466D02*
X1607Y1466D01*
X939Y1465D02*
X1056Y1465D01*
X1277Y1465D02*
X1607Y1465D01*
X939Y1464D02*
X1056Y1464D01*
X1277Y1464D02*
X1607Y1464D01*
X939Y1463D02*
X1056Y1463D01*
X1277Y1463D02*
X1607Y1463D01*
X939Y1462D02*
X1056Y1462D01*
X1277Y1462D02*
X1607Y1462D01*
X939Y1461D02*
X1056Y1461D01*
X1277Y1461D02*
X1607Y1461D01*
X939Y1460D02*
X1056Y1460D01*
X1277Y1460D02*
X1607Y1460D01*
X939Y1459D02*
X1056Y1459D01*
X1277Y1459D02*
X1607Y1459D01*
X939Y1458D02*
X1056Y1458D01*
X1277Y1458D02*
X1607Y1458D01*
X939Y1457D02*
X1056Y1457D01*
X1277Y1457D02*
X1607Y1457D01*
X939Y1456D02*
X1056Y1456D01*
X1277Y1456D02*
X1607Y1456D01*
X939Y1455D02*
X1055Y1455D01*
X1277Y1455D02*
X1607Y1455D01*
X1277Y1454D02*
X1607Y1454D01*
X1277Y1453D02*
X1607Y1453D01*
X1277Y1452D02*
X1607Y1452D01*
X1277Y1451D02*
X1607Y1451D01*
X1277Y1450D02*
X1607Y1450D01*
X1277Y1449D02*
X1607Y1449D01*
X1277Y1448D02*
X1607Y1448D01*
X1277Y1447D02*
X1607Y1447D01*
X1277Y1446D02*
X1607Y1446D01*
X1277Y1445D02*
X1607Y1445D01*
X1277Y1444D02*
X1607Y1444D01*
X1277Y1443D02*
X1607Y1443D01*
X1277Y1442D02*
X1607Y1442D01*
X1277Y1441D02*
X1607Y1441D01*
X1277Y1440D02*
X1607Y1440D01*
X1277Y1439D02*
X1607Y1439D01*
X1277Y1438D02*
X1607Y1438D01*
X1277Y1437D02*
X1607Y1437D01*
X1277Y1436D02*
X1607Y1436D01*
X1277Y1435D02*
X1607Y1435D01*
X1277Y1434D02*
X1607Y1434D01*
X1277Y1433D02*
X1607Y1433D01*
X1277Y1432D02*
X1607Y1432D01*
X1277Y1431D02*
X1607Y1431D01*
X1277Y1430D02*
X1607Y1430D01*
X1277Y1429D02*
X1607Y1429D01*
X1277Y1428D02*
X1607Y1428D01*
X1277Y1427D02*
X1607Y1427D01*
X1277Y1426D02*
X1607Y1426D01*
X1277Y1425D02*
X1607Y1425D01*
X1277Y1424D02*
X1607Y1424D01*
X1277Y1423D02*
X1607Y1423D01*
X1277Y1422D02*
X1607Y1422D01*
X1277Y1421D02*
X1607Y1421D01*
X1277Y1420D02*
X1607Y1420D01*
X1277Y1419D02*
X1607Y1419D01*
X1277Y1418D02*
X1607Y1418D01*
X1277Y1417D02*
X1607Y1417D01*
X1277Y1416D02*
X1607Y1416D01*
X1277Y1415D02*
X1607Y1415D01*
X1277Y1414D02*
X1607Y1414D01*
X1277Y1413D02*
X1607Y1413D01*
X1277Y1412D02*
X1607Y1412D01*
X1277Y1411D02*
X1607Y1411D01*
X1277Y1410D02*
X1607Y1410D01*
X1277Y1409D02*
X1607Y1409D01*
X1277Y1408D02*
X1607Y1408D01*
X1277Y1407D02*
X1607Y1407D01*
X1277Y1406D02*
X1607Y1406D01*
X1277Y1405D02*
X1607Y1405D01*
X1277Y1404D02*
X1607Y1404D01*
X1277Y1403D02*
X1607Y1403D01*
X1277Y1402D02*
X1607Y1402D01*
X1277Y1401D02*
X1607Y1401D01*
X1277Y1400D02*
X1607Y1400D01*
X1277Y1399D02*
X1607Y1399D01*
X1277Y1398D02*
X1607Y1398D01*
X1277Y1397D02*
X1607Y1397D01*
X1277Y1396D02*
X1607Y1396D01*
X1277Y1395D02*
X1607Y1395D01*
X1277Y1394D02*
X1607Y1394D01*
X1277Y1393D02*
X1607Y1393D01*
X1277Y1392D02*
X1607Y1392D01*
X1277Y1391D02*
X1607Y1391D01*
X1277Y1390D02*
X1607Y1390D01*
X1277Y1389D02*
X1607Y1389D01*
X1277Y1388D02*
X1607Y1388D01*
X1277Y1387D02*
X1607Y1387D01*
X1277Y1386D02*
X1607Y1386D01*
X1277Y1385D02*
X1607Y1385D01*
X1277Y1384D02*
X1607Y1384D01*
X1277Y1383D02*
X1607Y1383D01*
X1277Y1382D02*
X1607Y1382D01*
X1277Y1381D02*
X1607Y1381D01*
X1277Y1380D02*
X1607Y1380D01*
X1277Y1379D02*
X1607Y1379D01*
X1277Y1378D02*
X1607Y1378D01*
X1277Y1377D02*
X1607Y1377D01*
X1277Y1376D02*
X1607Y1376D01*
X1277Y1375D02*
X1607Y1375D01*
X1277Y1374D02*
X1607Y1374D01*
X1277Y1373D02*
X1607Y1373D01*
X1277Y1372D02*
X1607Y1372D01*
X1277Y1371D02*
X1607Y1371D01*
X1277Y1370D02*
X1607Y1370D01*
X1277Y1369D02*
X1607Y1369D01*
X1277Y1368D02*
X1607Y1368D01*
X1277Y1367D02*
X1607Y1367D01*
X1277Y1366D02*
X1607Y1366D01*
X1277Y1365D02*
X1607Y1365D01*
X1277Y1364D02*
X1607Y1364D01*
X1277Y1363D02*
X1607Y1363D01*
X1277Y1362D02*
X1607Y1362D01*
X1277Y1361D02*
X1607Y1361D01*
X1277Y1360D02*
X1607Y1360D01*
X1277Y1359D02*
X1607Y1359D01*
X1277Y1358D02*
X1607Y1358D01*
X1277Y1357D02*
X1607Y1357D01*
X1277Y1356D02*
X1607Y1356D01*
X1277Y1355D02*
X1607Y1355D01*
X1277Y1354D02*
X1607Y1354D01*
X1277Y1353D02*
X1607Y1353D01*
X1277Y1352D02*
X1607Y1352D01*
X1277Y1351D02*
X1607Y1351D01*
X1277Y1350D02*
X1607Y1350D01*
X1277Y1349D02*
X1607Y1349D01*
X1277Y1348D02*
X1607Y1348D01*
X1277Y1347D02*
X1607Y1347D01*
X1277Y1346D02*
X1607Y1346D01*
X1277Y1345D02*
X1607Y1345D01*
X1277Y1344D02*
X1607Y1344D01*
X1277Y1343D02*
X1607Y1343D01*
X1277Y1342D02*
X1607Y1342D01*
X1277Y1341D02*
X1607Y1341D01*
X1277Y1340D02*
X1607Y1340D01*
X1277Y1339D02*
X1607Y1339D01*
X1277Y1338D02*
X1607Y1338D01*
X1277Y1337D02*
X1607Y1337D01*
X1277Y1336D02*
X1607Y1336D01*
X1277Y1335D02*
X1607Y1335D01*
X1277Y1334D02*
X1607Y1334D01*
X1277Y1333D02*
X1607Y1333D01*
X1277Y1332D02*
X1607Y1332D01*
X1277Y1331D02*
X1607Y1331D01*
X1277Y1330D02*
X1607Y1330D01*
X1277Y1329D02*
X1607Y1329D01*
X1277Y1328D02*
X1607Y1328D01*
X1277Y1327D02*
X1607Y1327D01*
X1277Y1326D02*
X1607Y1326D01*
X1277Y1325D02*
X1607Y1325D01*
X1277Y1324D02*
X1607Y1324D01*
X1277Y1323D02*
X1607Y1323D01*
X1277Y1322D02*
X1607Y1322D01*
X1277Y1321D02*
X1607Y1321D01*
X1277Y1320D02*
X1607Y1320D01*
X1277Y1319D02*
X1607Y1319D01*
X1277Y1318D02*
X1607Y1318D01*
X1277Y1317D02*
X1607Y1317D01*
X1277Y1316D02*
X1607Y1316D01*
X1277Y1315D02*
X1607Y1315D01*
X1277Y1314D02*
X1607Y1314D01*
X1277Y1313D02*
X1607Y1313D01*
X1277Y1312D02*
X1607Y1312D01*
X1277Y1311D02*
X1607Y1311D01*
X1277Y1310D02*
X1607Y1310D01*
X1277Y1309D02*
X1607Y1309D01*
X1277Y1308D02*
X1607Y1308D01*
X1277Y1307D02*
X1607Y1307D01*
X1277Y1306D02*
X1607Y1306D01*
X1277Y1305D02*
X1607Y1305D01*
X1277Y1304D02*
X1607Y1304D01*
X1277Y1303D02*
X1607Y1303D01*
X1277Y1302D02*
X1607Y1302D01*
X1277Y1301D02*
X1607Y1301D01*
X1277Y1300D02*
X1607Y1300D01*
X1277Y1299D02*
X1607Y1299D01*
X1277Y1298D02*
X1607Y1298D01*
X939Y1297D02*
X1056Y1297D01*
X1277Y1297D02*
X1607Y1297D01*
X939Y1296D02*
X1056Y1296D01*
X1277Y1296D02*
X1607Y1296D01*
X939Y1295D02*
X1056Y1295D01*
X1277Y1295D02*
X1607Y1295D01*
X939Y1294D02*
X1056Y1294D01*
X1277Y1294D02*
X1607Y1294D01*
X939Y1293D02*
X1056Y1293D01*
X1277Y1293D02*
X1607Y1293D01*
X939Y1292D02*
X1056Y1292D01*
X1277Y1292D02*
X1607Y1292D01*
X939Y1291D02*
X1056Y1291D01*
X1277Y1291D02*
X1607Y1291D01*
X939Y1290D02*
X1056Y1290D01*
X1277Y1290D02*
X1607Y1290D01*
X939Y1289D02*
X1056Y1289D01*
X1277Y1289D02*
X1607Y1289D01*
X939Y1288D02*
X1056Y1288D01*
X1277Y1288D02*
X1607Y1288D01*
X939Y1287D02*
X1056Y1287D01*
X1277Y1287D02*
X1607Y1287D01*
X939Y1286D02*
X1056Y1286D01*
X1277Y1286D02*
X1607Y1286D01*
X939Y1285D02*
X1056Y1285D01*
X1277Y1285D02*
X1607Y1285D01*
X939Y1284D02*
X1056Y1284D01*
X1277Y1284D02*
X1607Y1284D01*
X939Y1283D02*
X1056Y1283D01*
X1277Y1283D02*
X1607Y1283D01*
X939Y1282D02*
X1056Y1282D01*
X1277Y1282D02*
X1607Y1282D01*
X939Y1281D02*
X1056Y1281D01*
X1277Y1281D02*
X1607Y1281D01*
X939Y1280D02*
X1056Y1280D01*
X1277Y1280D02*
X1607Y1280D01*
X939Y1279D02*
X1056Y1279D01*
X1277Y1279D02*
X1607Y1279D01*
X939Y1278D02*
X1056Y1278D01*
X1277Y1278D02*
X1607Y1278D01*
X939Y1277D02*
X1056Y1277D01*
X1277Y1277D02*
X1607Y1277D01*
X939Y1276D02*
X1056Y1276D01*
X1277Y1276D02*
X1607Y1276D01*
X939Y1275D02*
X1056Y1275D01*
X1277Y1275D02*
X1607Y1275D01*
X939Y1274D02*
X1056Y1274D01*
X1277Y1274D02*
X1607Y1274D01*
X939Y1273D02*
X1056Y1273D01*
X1277Y1273D02*
X1607Y1273D01*
X939Y1272D02*
X1056Y1272D01*
X1277Y1272D02*
X1607Y1272D01*
X939Y1271D02*
X1056Y1271D01*
X1277Y1271D02*
X1607Y1271D01*
X939Y1270D02*
X1056Y1270D01*
X1277Y1270D02*
X1607Y1270D01*
X939Y1269D02*
X1056Y1269D01*
X1277Y1269D02*
X1607Y1269D01*
X939Y1268D02*
X1056Y1268D01*
X1277Y1268D02*
X1607Y1268D01*
X939Y1267D02*
X1056Y1267D01*
X1277Y1267D02*
X1607Y1267D01*
X939Y1266D02*
X1056Y1266D01*
X1277Y1266D02*
X1607Y1266D01*
X939Y1265D02*
X1056Y1265D01*
X1277Y1265D02*
X1607Y1265D01*
X939Y1264D02*
X1056Y1264D01*
X1277Y1264D02*
X1607Y1264D01*
X939Y1263D02*
X1056Y1263D01*
X1277Y1263D02*
X1607Y1263D01*
X939Y1262D02*
X1056Y1262D01*
X1277Y1262D02*
X1607Y1262D01*
X939Y1261D02*
X1056Y1261D01*
X1277Y1261D02*
X1607Y1261D01*
X939Y1260D02*
X1056Y1260D01*
X1277Y1260D02*
X1607Y1260D01*
X939Y1259D02*
X1056Y1259D01*
X1277Y1259D02*
X1607Y1259D01*
X1277Y1258D02*
X1607Y1258D01*
X1277Y1257D02*
X1607Y1257D01*
X1277Y1256D02*
X1607Y1256D01*
X1277Y1255D02*
X1607Y1255D01*
X1277Y1254D02*
X1607Y1254D01*
X1277Y1253D02*
X1607Y1253D01*
X1277Y1252D02*
X1607Y1252D01*
X1277Y1251D02*
X1607Y1251D01*
X1277Y1250D02*
X1607Y1250D01*
X1277Y1249D02*
X1607Y1249D01*
X1277Y1248D02*
X1607Y1248D01*
X1277Y1247D02*
X1607Y1247D01*
X1277Y1246D02*
X1607Y1246D01*
X1277Y1245D02*
X1607Y1245D01*
X1277Y1244D02*
X1607Y1244D01*
X1277Y1243D02*
X1607Y1243D01*
X1277Y1242D02*
X1607Y1242D01*
X1277Y1241D02*
X1607Y1241D01*
X1277Y1240D02*
X1607Y1240D01*
X1277Y1239D02*
X1607Y1239D01*
X1277Y1238D02*
X1607Y1238D01*
X1277Y1237D02*
X1607Y1237D01*
X1277Y1236D02*
X1607Y1236D01*
X1277Y1235D02*
X1607Y1235D01*
X1277Y1234D02*
X1607Y1234D01*
X1277Y1233D02*
X1607Y1233D01*
X1277Y1232D02*
X1607Y1232D01*
X1277Y1231D02*
X1607Y1231D01*
X1277Y1230D02*
X1607Y1230D01*
X1277Y1229D02*
X1607Y1229D01*
X1277Y1228D02*
X1607Y1228D01*
X1277Y1227D02*
X1607Y1227D01*
X1277Y1226D02*
X1607Y1226D01*
X1277Y1225D02*
X1607Y1225D01*
X1277Y1224D02*
X1607Y1224D01*
X1277Y1223D02*
X1607Y1223D01*
X1277Y1222D02*
X1607Y1222D01*
X1277Y1221D02*
X1607Y1221D01*
X1277Y1220D02*
X1607Y1220D01*
X1277Y1219D02*
X1607Y1219D01*
X1277Y1218D02*
X1607Y1218D01*
X1277Y1217D02*
X1607Y1217D01*
X1277Y1216D02*
X1607Y1216D01*
X1277Y1215D02*
X1607Y1215D01*
X1277Y1214D02*
X1607Y1214D01*
X1277Y1213D02*
X1607Y1213D01*
X1277Y1212D02*
X1607Y1212D01*
X1277Y1211D02*
X1607Y1211D01*
X1277Y1210D02*
X1607Y1210D01*
X1277Y1209D02*
X1607Y1209D01*
X1277Y1208D02*
X1607Y1208D01*
X1277Y1207D02*
X1607Y1207D01*
X1277Y1206D02*
X1607Y1206D01*
X1277Y1205D02*
X1607Y1205D01*
X1277Y1204D02*
X1607Y1204D01*
X1277Y1203D02*
X1607Y1203D01*
X1277Y1202D02*
X1607Y1202D01*
X1277Y1201D02*
X1607Y1201D01*
X1277Y1200D02*
X1607Y1200D01*
X1277Y1199D02*
X1607Y1199D01*
X1277Y1198D02*
X1607Y1198D01*
X1277Y1197D02*
X1607Y1197D01*
X1277Y1196D02*
X1607Y1196D01*
X1277Y1195D02*
X1607Y1195D01*
X1277Y1194D02*
X1607Y1194D01*
X1277Y1193D02*
X1607Y1193D01*
X1277Y1192D02*
X1607Y1192D01*
X1277Y1191D02*
X1607Y1191D01*
X1277Y1190D02*
X1607Y1190D01*
X1277Y1189D02*
X1607Y1189D01*
X1277Y1188D02*
X1607Y1188D01*
X1277Y1187D02*
X1607Y1187D01*
X1277Y1186D02*
X1607Y1186D01*
X1277Y1185D02*
X1607Y1185D01*
X1277Y1184D02*
X1607Y1184D01*
X1277Y1183D02*
X1607Y1183D01*
X1277Y1182D02*
X1607Y1182D01*
X1277Y1181D02*
X1607Y1181D01*
X1277Y1180D02*
X1607Y1180D01*
X1277Y1179D02*
X1607Y1179D01*
X1277Y1178D02*
X1607Y1178D01*
X1277Y1177D02*
X1607Y1177D01*
X1277Y1176D02*
X1607Y1176D01*
X1277Y1175D02*
X1607Y1175D01*
X1277Y1174D02*
X1607Y1174D01*
X1277Y1173D02*
X1607Y1173D01*
X1277Y1172D02*
X1607Y1172D01*
X1277Y1171D02*
X1607Y1171D01*
X1277Y1170D02*
X1607Y1170D01*
X1277Y1169D02*
X1607Y1169D01*
X1277Y1168D02*
X1607Y1168D01*
X1277Y1167D02*
X1607Y1167D01*
X1277Y1166D02*
X1607Y1166D01*
X1277Y1104D02*
X1607Y1104D01*
X1277Y1103D02*
X1607Y1103D01*
X1277Y1102D02*
X1607Y1102D01*
X1277Y1101D02*
X1607Y1101D01*
X1277Y1100D02*
X1607Y1100D01*
X1277Y1099D02*
X1607Y1099D01*
X1277Y1098D02*
X1607Y1098D01*
X1277Y1097D02*
X1607Y1097D01*
X1277Y1096D02*
X1607Y1096D01*
X1277Y1095D02*
X1607Y1095D01*
X1277Y1094D02*
X1607Y1094D01*
X1277Y1093D02*
X1607Y1093D01*
X1277Y1092D02*
X1607Y1092D01*
X1277Y1091D02*
X1607Y1091D01*
X1277Y1090D02*
X1607Y1090D01*
X1277Y1089D02*
X1607Y1089D01*
X1277Y1088D02*
X1607Y1088D01*
X1277Y1087D02*
X1607Y1087D01*
X1277Y1086D02*
X1607Y1086D01*
X1277Y1085D02*
X1607Y1085D01*
X1277Y1084D02*
X1607Y1084D01*
X1277Y1083D02*
X1607Y1083D01*
X1277Y1082D02*
X1607Y1082D01*
X1277Y1081D02*
X1607Y1081D01*
X1277Y1080D02*
X1607Y1080D01*
X1277Y1079D02*
X1607Y1079D01*
X1277Y1078D02*
X1607Y1078D01*
X1277Y1077D02*
X1607Y1077D01*
X1277Y1076D02*
X1607Y1076D01*
X1277Y1075D02*
X1607Y1075D01*
X1277Y1074D02*
X1607Y1074D01*
X1277Y1073D02*
X1607Y1073D01*
X1277Y1072D02*
X1607Y1072D01*
X1277Y1071D02*
X1607Y1071D01*
X1277Y1070D02*
X1607Y1070D01*
X1277Y1069D02*
X1607Y1069D01*
X1277Y1068D02*
X1607Y1068D01*
X1277Y1067D02*
X1607Y1067D01*
X1277Y1066D02*
X1607Y1066D01*
X1277Y1065D02*
X1607Y1065D01*
X1277Y1064D02*
X1607Y1064D01*
X1277Y1063D02*
X1607Y1063D01*
X1277Y1062D02*
X1607Y1062D01*
X1277Y1061D02*
X1607Y1061D01*
X1277Y1060D02*
X1607Y1060D01*
X1277Y1059D02*
X1607Y1059D01*
X1277Y1058D02*
X1607Y1058D01*
X1277Y1057D02*
X1607Y1057D01*
X1277Y1056D02*
X1607Y1056D01*
X1277Y1055D02*
X1607Y1055D01*
X1277Y1054D02*
X1607Y1054D01*
X1277Y1053D02*
X1607Y1053D01*
X1277Y1052D02*
X1607Y1052D01*
X1277Y1051D02*
X1607Y1051D01*
X1277Y1050D02*
X1607Y1050D01*
X1277Y1049D02*
X1607Y1049D01*
X1277Y1048D02*
X1607Y1048D01*
X1277Y1047D02*
X1607Y1047D01*
X1277Y1046D02*
X1607Y1046D01*
X1277Y1045D02*
X1607Y1045D01*
X1277Y1044D02*
X1607Y1044D01*
X1277Y1043D02*
X1607Y1043D01*
X1277Y1042D02*
X1607Y1042D01*
X1277Y1041D02*
X1607Y1041D01*
X1277Y1040D02*
X1607Y1040D01*
X1277Y1039D02*
X1607Y1039D01*
X1277Y1038D02*
X1607Y1038D01*
X1277Y1037D02*
X1607Y1037D01*
X1277Y1036D02*
X1607Y1036D01*
X1277Y1035D02*
X1607Y1035D01*
X1277Y1034D02*
X1607Y1034D01*
X1277Y1033D02*
X1607Y1033D01*
X1277Y1032D02*
X1607Y1032D01*
X1277Y1031D02*
X1607Y1031D01*
X1277Y1030D02*
X1607Y1030D01*
X1277Y1029D02*
X1607Y1029D01*
X1277Y1028D02*
X1607Y1028D01*
X1277Y1027D02*
X1607Y1027D01*
X1277Y1026D02*
X1607Y1026D01*
X1277Y1025D02*
X1607Y1025D01*
X1277Y1024D02*
X1607Y1024D01*
X1277Y1023D02*
X1607Y1023D01*
X1277Y1022D02*
X1607Y1022D01*
X1277Y1021D02*
X1607Y1021D01*
X1277Y1020D02*
X1607Y1020D01*
X1277Y1019D02*
X1607Y1019D01*
X1277Y1018D02*
X1607Y1018D01*
X1277Y1017D02*
X1607Y1017D01*
X1277Y1016D02*
X1607Y1016D01*
X1277Y1015D02*
X1607Y1015D01*
X1277Y1014D02*
X1607Y1014D01*
X1277Y1013D02*
X1607Y1013D01*
X1277Y1012D02*
X1607Y1012D01*
X939Y1011D02*
X1056Y1011D01*
X1277Y1011D02*
X1607Y1011D01*
X939Y1010D02*
X1056Y1010D01*
X1277Y1010D02*
X1607Y1010D01*
X939Y1009D02*
X1056Y1009D01*
X1277Y1009D02*
X1607Y1009D01*
X939Y1008D02*
X1056Y1008D01*
X1277Y1008D02*
X1607Y1008D01*
X939Y1007D02*
X1056Y1007D01*
X1277Y1007D02*
X1607Y1007D01*
X939Y1006D02*
X1056Y1006D01*
X1277Y1006D02*
X1607Y1006D01*
X939Y1005D02*
X1056Y1005D01*
X1277Y1005D02*
X1607Y1005D01*
X939Y1004D02*
X1056Y1004D01*
X1277Y1004D02*
X1607Y1004D01*
X939Y1003D02*
X1056Y1003D01*
X1277Y1003D02*
X1607Y1003D01*
X939Y1002D02*
X1056Y1002D01*
X1277Y1002D02*
X1607Y1002D01*
X939Y1001D02*
X1056Y1001D01*
X1277Y1001D02*
X1607Y1001D01*
X939Y1000D02*
X1056Y1000D01*
X1277Y1000D02*
X1607Y1000D01*
X939Y999D02*
X1056Y999D01*
X1277Y999D02*
X1607Y999D01*
X939Y998D02*
X1056Y998D01*
X1277Y998D02*
X1607Y998D01*
X939Y997D02*
X1056Y997D01*
X1277Y997D02*
X1607Y997D01*
X939Y996D02*
X1056Y996D01*
X1277Y996D02*
X1607Y996D01*
X939Y995D02*
X1056Y995D01*
X1277Y995D02*
X1607Y995D01*
X939Y994D02*
X1056Y994D01*
X1277Y994D02*
X1607Y994D01*
X939Y993D02*
X1056Y993D01*
X1277Y993D02*
X1607Y993D01*
X939Y992D02*
X1056Y992D01*
X1277Y992D02*
X1607Y992D01*
X939Y991D02*
X1056Y991D01*
X1277Y991D02*
X1607Y991D01*
X939Y990D02*
X1056Y990D01*
X1277Y990D02*
X1607Y990D01*
X939Y989D02*
X1056Y989D01*
X1277Y989D02*
X1607Y989D01*
X939Y988D02*
X1056Y988D01*
X1277Y988D02*
X1607Y988D01*
X939Y987D02*
X1056Y987D01*
X1277Y987D02*
X1607Y987D01*
X939Y986D02*
X1056Y986D01*
X1277Y986D02*
X1607Y986D01*
X939Y985D02*
X1056Y985D01*
X1277Y985D02*
X1607Y985D01*
X939Y984D02*
X1056Y984D01*
X1277Y984D02*
X1607Y984D01*
X939Y983D02*
X1056Y983D01*
X1277Y983D02*
X1607Y983D01*
X939Y982D02*
X1056Y982D01*
X1277Y982D02*
X1607Y982D01*
X939Y981D02*
X1056Y981D01*
X1277Y981D02*
X1607Y981D01*
X939Y980D02*
X1056Y980D01*
X1277Y980D02*
X1607Y980D01*
X939Y979D02*
X1056Y979D01*
X1277Y979D02*
X1607Y979D01*
X939Y978D02*
X1056Y978D01*
X1277Y978D02*
X1607Y978D01*
X939Y977D02*
X1056Y977D01*
X1277Y977D02*
X1607Y977D01*
X939Y976D02*
X1056Y976D01*
X1277Y976D02*
X1607Y976D01*
X939Y975D02*
X1056Y975D01*
X1277Y975D02*
X1607Y975D01*
X939Y974D02*
X1056Y974D01*
X1277Y974D02*
X1607Y974D01*
X939Y973D02*
X1056Y973D01*
X1277Y973D02*
X1607Y973D01*
X1277Y972D02*
X1607Y972D01*
X1277Y971D02*
X1607Y971D01*
X1277Y970D02*
X1607Y970D01*
X1277Y969D02*
X1607Y969D01*
X1277Y968D02*
X1607Y968D01*
X1277Y967D02*
X1607Y967D01*
X1277Y966D02*
X1607Y966D01*
X1277Y965D02*
X1607Y965D01*
X1277Y964D02*
X1607Y964D01*
X1277Y963D02*
X1607Y963D01*
X1277Y962D02*
X1607Y962D01*
X1277Y961D02*
X1607Y961D01*
X1277Y960D02*
X1607Y960D01*
X1277Y959D02*
X1607Y959D01*
X1277Y958D02*
X1607Y958D01*
X1277Y957D02*
X1607Y957D01*
X1277Y956D02*
X1607Y956D01*
X1277Y955D02*
X1607Y955D01*
X1277Y954D02*
X1607Y954D01*
X1277Y953D02*
X1607Y953D01*
X1277Y952D02*
X1607Y952D01*
X1277Y951D02*
X1607Y951D01*
X1277Y950D02*
X1607Y950D01*
X1277Y949D02*
X1607Y949D01*
X1277Y948D02*
X1607Y948D01*
X1277Y947D02*
X1607Y947D01*
X1277Y946D02*
X1607Y946D01*
X1277Y945D02*
X1607Y945D01*
X1277Y944D02*
X1607Y944D01*
X1277Y943D02*
X1607Y943D01*
X1277Y942D02*
X1607Y942D01*
X1277Y941D02*
X1607Y941D01*
X1277Y940D02*
X1607Y940D01*
X1277Y939D02*
X1607Y939D01*
X1277Y938D02*
X1607Y938D01*
X1277Y937D02*
X1607Y937D01*
X1277Y936D02*
X1607Y936D01*
X1277Y935D02*
X1607Y935D01*
X1277Y934D02*
X1607Y934D01*
X1277Y933D02*
X1607Y933D01*
X1277Y932D02*
X1607Y932D01*
X1277Y931D02*
X1607Y931D01*
X1277Y930D02*
X1607Y930D01*
X1277Y929D02*
X1607Y929D01*
X1277Y928D02*
X1607Y928D01*
X1277Y927D02*
X1607Y927D01*
X1277Y926D02*
X1607Y926D01*
X1277Y925D02*
X1607Y925D01*
X1277Y924D02*
X1607Y924D01*
X1277Y923D02*
X1607Y923D01*
X1277Y922D02*
X1607Y922D01*
X1277Y921D02*
X1607Y921D01*
X1277Y920D02*
X1607Y920D01*
X1277Y919D02*
X1607Y919D01*
X1277Y918D02*
X1607Y918D01*
X1277Y917D02*
X1607Y917D01*
X1277Y916D02*
X1607Y916D01*
X1277Y915D02*
X1607Y915D01*
X1277Y914D02*
X1607Y914D01*
X1277Y913D02*
X1607Y913D01*
X1277Y912D02*
X1607Y912D01*
X1277Y911D02*
X1607Y911D01*
X1277Y910D02*
X1607Y910D01*
X1277Y909D02*
X1607Y909D01*
X1277Y908D02*
X1607Y908D01*
X1277Y907D02*
X1607Y907D01*
X1277Y906D02*
X1607Y906D01*
X1277Y905D02*
X1607Y905D01*
X1277Y904D02*
X1607Y904D01*
X1277Y903D02*
X1607Y903D01*
X1277Y902D02*
X1607Y902D01*
X1277Y901D02*
X1607Y901D01*
X1277Y900D02*
X1607Y900D01*
X1277Y899D02*
X1607Y899D01*
X1277Y898D02*
X1607Y898D01*
X1277Y897D02*
X1607Y897D01*
X1277Y896D02*
X1607Y896D01*
X1277Y895D02*
X1607Y895D01*
X1277Y894D02*
X1607Y894D01*
X1277Y893D02*
X1607Y893D01*
X1277Y892D02*
X1607Y892D01*
X1277Y891D02*
X1607Y891D01*
X1277Y890D02*
X1607Y890D01*
X1277Y889D02*
X1607Y889D01*
X1277Y888D02*
X1607Y888D01*
X1277Y887D02*
X1607Y887D01*
X1277Y886D02*
X1607Y886D01*
X1277Y885D02*
X1607Y885D01*
X1277Y884D02*
X1607Y884D01*
X1277Y883D02*
X1607Y883D01*
X1277Y882D02*
X1607Y882D01*
X1277Y881D02*
X1607Y881D01*
X1277Y880D02*
X1607Y880D01*
X1277Y879D02*
X1607Y879D01*
X1277Y878D02*
X1607Y878D01*
X1277Y877D02*
X1607Y877D01*
X1277Y876D02*
X1607Y876D01*
X1277Y875D02*
X1607Y875D01*
X1277Y874D02*
X1607Y874D01*
X1277Y873D02*
X1607Y873D01*
X1277Y872D02*
X1607Y872D01*
X1277Y871D02*
X1607Y871D01*
X1277Y870D02*
X1607Y870D01*
X1277Y869D02*
X1607Y869D01*
X1277Y868D02*
X1607Y868D01*
X1277Y867D02*
X1607Y867D01*
X1277Y866D02*
X1607Y866D01*
X1277Y865D02*
X1607Y865D01*
X1277Y864D02*
X1607Y864D01*
X1277Y863D02*
X1607Y863D01*
X1277Y862D02*
X1607Y862D01*
X1277Y861D02*
X1607Y861D01*
X1277Y860D02*
X1607Y860D01*
X1277Y859D02*
X1607Y859D01*
X1277Y858D02*
X1607Y858D01*
X1277Y857D02*
X1607Y857D01*
X1277Y856D02*
X1607Y856D01*
X1277Y855D02*
X1607Y855D01*
X1277Y854D02*
X1607Y854D01*
X1277Y853D02*
X1607Y853D01*
X1277Y852D02*
X1607Y852D01*
X1277Y851D02*
X1607Y851D01*
X1277Y850D02*
X1607Y850D01*
X1277Y849D02*
X1607Y849D01*
X1277Y848D02*
X1607Y848D01*
X1277Y847D02*
X1607Y847D01*
X1277Y846D02*
X1607Y846D01*
X1277Y845D02*
X1607Y845D01*
X1277Y844D02*
X1607Y844D01*
X1277Y843D02*
X1607Y843D01*
X1277Y842D02*
X1607Y842D01*
X1277Y841D02*
X1607Y841D01*
X1277Y840D02*
X1607Y840D01*
X1277Y839D02*
X1607Y839D01*
X1277Y838D02*
X1607Y838D01*
X1277Y837D02*
X1607Y837D01*
X1277Y836D02*
X1607Y836D01*
X1277Y835D02*
X1607Y835D01*
X1277Y834D02*
X1607Y834D01*
X1277Y833D02*
X1607Y833D01*
X1277Y832D02*
X1607Y832D01*
X1277Y831D02*
X1607Y831D01*
X1277Y830D02*
X1607Y830D01*
X1277Y829D02*
X1607Y829D01*
X1277Y828D02*
X1607Y828D01*
X1277Y827D02*
X1607Y827D01*
X1277Y826D02*
X1607Y826D01*
X1277Y825D02*
X1607Y825D01*
X1277Y824D02*
X1607Y824D01*
X1277Y823D02*
X1607Y823D01*
X1277Y822D02*
X1607Y822D01*
X1277Y821D02*
X1607Y821D01*
X1277Y820D02*
X1607Y820D01*
X1277Y819D02*
X1607Y819D01*
X1277Y818D02*
X1607Y818D01*
X1277Y817D02*
X1607Y817D01*
X1277Y816D02*
X1607Y816D01*
X939Y815D02*
X1055Y815D01*
X1277Y815D02*
X1607Y815D01*
X939Y814D02*
X1056Y814D01*
X1277Y814D02*
X1607Y814D01*
X939Y813D02*
X1056Y813D01*
X1277Y813D02*
X1607Y813D01*
X939Y812D02*
X1056Y812D01*
X1277Y812D02*
X1607Y812D01*
X939Y811D02*
X1056Y811D01*
X1277Y811D02*
X1607Y811D01*
X939Y810D02*
X1056Y810D01*
X1277Y810D02*
X1607Y810D01*
X939Y809D02*
X1056Y809D01*
X1277Y809D02*
X1607Y809D01*
X939Y808D02*
X1056Y808D01*
X1277Y808D02*
X1607Y808D01*
X939Y807D02*
X1056Y807D01*
X1277Y807D02*
X1607Y807D01*
X939Y806D02*
X1056Y806D01*
X1277Y806D02*
X1607Y806D01*
X939Y805D02*
X1056Y805D01*
X1277Y805D02*
X1607Y805D01*
X939Y804D02*
X1056Y804D01*
X1277Y804D02*
X1607Y804D01*
X939Y803D02*
X1056Y803D01*
X1277Y803D02*
X1607Y803D01*
X939Y802D02*
X1056Y802D01*
X1277Y802D02*
X1607Y802D01*
X939Y801D02*
X1056Y801D01*
X1277Y801D02*
X1607Y801D01*
X939Y800D02*
X1056Y800D01*
X1277Y800D02*
X1607Y800D01*
X939Y799D02*
X1056Y799D01*
X1277Y799D02*
X1607Y799D01*
X939Y798D02*
X1056Y798D01*
X1277Y798D02*
X1607Y798D01*
X939Y797D02*
X1056Y797D01*
X1277Y797D02*
X1607Y797D01*
X939Y796D02*
X1056Y796D01*
X1277Y796D02*
X1607Y796D01*
X939Y795D02*
X1056Y795D01*
X1277Y795D02*
X1607Y795D01*
X939Y794D02*
X1056Y794D01*
X1277Y794D02*
X1607Y794D01*
X939Y793D02*
X1056Y793D01*
X1277Y793D02*
X1607Y793D01*
X939Y792D02*
X1056Y792D01*
X1277Y792D02*
X1607Y792D01*
X939Y791D02*
X1056Y791D01*
X1277Y791D02*
X1607Y791D01*
X939Y790D02*
X1056Y790D01*
X1277Y790D02*
X1607Y790D01*
X939Y789D02*
X1056Y789D01*
X1277Y789D02*
X1607Y789D01*
X939Y788D02*
X1056Y788D01*
X1277Y788D02*
X1607Y788D01*
X939Y787D02*
X1056Y787D01*
X1277Y787D02*
X1607Y787D01*
X939Y786D02*
X1056Y786D01*
X1277Y786D02*
X1607Y786D01*
X939Y785D02*
X1056Y785D01*
X1277Y785D02*
X1607Y785D01*
X939Y784D02*
X1056Y784D01*
X1277Y784D02*
X1607Y784D01*
X939Y783D02*
X1056Y783D01*
X1277Y783D02*
X1607Y783D01*
X939Y782D02*
X1056Y782D01*
X1277Y782D02*
X1607Y782D01*
X939Y781D02*
X1056Y781D01*
X1277Y781D02*
X1607Y781D01*
X939Y780D02*
X1056Y780D01*
X1277Y780D02*
X1607Y780D01*
X939Y779D02*
X1056Y779D01*
X1277Y779D02*
X1607Y779D01*
X939Y778D02*
X1056Y778D01*
X1277Y778D02*
X1607Y778D01*
X939Y777D02*
X1056Y777D01*
X1277Y777D02*
X1607Y777D01*
X939Y776D02*
X1055Y776D01*
X1277Y776D02*
X1607Y776D01*
X1277Y775D02*
X1607Y775D01*
X1277Y774D02*
X1607Y774D01*
X1277Y773D02*
X1607Y773D01*
X1277Y772D02*
X1607Y772D01*
X1277Y771D02*
X1607Y771D01*
X1277Y770D02*
X1607Y770D01*
X1277Y769D02*
X1607Y769D01*
X1277Y768D02*
X1607Y768D01*
X1277Y767D02*
X1607Y767D01*
X1277Y766D02*
X1607Y766D01*
X1277Y765D02*
X1607Y765D01*
X1277Y764D02*
X1607Y764D01*
X1277Y763D02*
X1607Y763D01*
X1277Y762D02*
X1607Y762D01*
X1277Y761D02*
X1607Y761D01*
X1277Y760D02*
X1607Y760D01*
X1277Y759D02*
X1607Y759D01*
X1277Y758D02*
X1607Y758D01*
X1277Y757D02*
X1607Y757D01*
X1277Y756D02*
X1607Y756D01*
X1277Y755D02*
X1607Y755D01*
X1277Y754D02*
X1607Y754D01*
X1277Y753D02*
X1607Y753D01*
X1277Y752D02*
X1607Y752D01*
X1277Y751D02*
X1607Y751D01*
X1277Y750D02*
X1607Y750D01*
X1277Y749D02*
X1607Y749D01*
X1277Y748D02*
X1607Y748D01*
X1277Y747D02*
X1607Y747D01*
X1277Y746D02*
X1607Y746D01*
X1277Y745D02*
X1607Y745D01*
X1277Y744D02*
X1607Y744D01*
X1277Y743D02*
X1607Y743D01*
X1277Y742D02*
X1607Y742D01*
X1277Y741D02*
X1607Y741D01*
X1277Y740D02*
X1607Y740D01*
X1277Y739D02*
X1607Y739D01*
X1277Y738D02*
X1607Y738D01*
X1277Y737D02*
X1607Y737D01*
X1277Y736D02*
X1607Y736D01*
X1277Y735D02*
X1607Y735D01*
X1277Y734D02*
X1607Y734D01*
X1277Y733D02*
X1607Y733D01*
X1277Y732D02*
X1607Y732D01*
X1277Y731D02*
X1607Y731D01*
X1277Y730D02*
X1607Y730D01*
X1277Y729D02*
X1607Y729D01*
X1277Y728D02*
X1607Y728D01*
X1277Y727D02*
X1607Y727D01*
X1277Y726D02*
X1607Y726D01*
X1277Y725D02*
X1607Y725D01*
X1277Y724D02*
X1607Y724D01*
X1277Y723D02*
X1607Y723D01*
X1277Y722D02*
X1607Y722D01*
X1277Y721D02*
X1607Y721D01*
X1277Y720D02*
X1607Y720D01*
X1277Y719D02*
X1607Y719D01*
X1277Y718D02*
X1607Y718D01*
X1277Y717D02*
X1607Y717D01*
X1277Y716D02*
X1607Y716D01*
X1277Y715D02*
X1607Y715D01*
X1277Y714D02*
X1607Y714D01*
X1277Y713D02*
X1607Y713D01*
X1277Y712D02*
X1607Y712D01*
X1277Y711D02*
X1607Y711D01*
X1277Y710D02*
X1607Y710D01*
X1277Y709D02*
X1607Y709D01*
X1277Y708D02*
X1607Y708D01*
X1277Y707D02*
X1607Y707D01*
X1277Y706D02*
X1607Y706D01*
X1277Y705D02*
X1607Y705D01*
X1277Y704D02*
X1607Y704D01*
X1277Y703D02*
X1607Y703D01*
X1277Y702D02*
X1607Y702D01*
X1277Y701D02*
X1607Y701D01*
X1277Y700D02*
X1607Y700D01*
X1277Y699D02*
X1607Y699D01*
X1277Y698D02*
X1607Y698D01*
X1277Y697D02*
X1607Y697D01*
X1277Y696D02*
X1607Y696D01*
X1277Y695D02*
X1607Y695D01*
X1277Y694D02*
X1607Y694D01*
X1277Y693D02*
X1607Y693D01*
X1277Y692D02*
X1607Y692D01*
X1277Y691D02*
X1607Y691D01*
X1277Y690D02*
X1607Y690D01*
X1277Y689D02*
X1607Y689D01*
X1277Y688D02*
X1607Y688D01*
X1277Y687D02*
X1607Y687D01*
X1277Y686D02*
X1607Y686D01*
X1277Y685D02*
X1607Y685D01*
X1277Y684D02*
X1607Y684D01*
X1276Y618D02*
X1606Y618D01*
X1276Y617D02*
X1606Y617D01*
X1276Y616D02*
X1606Y616D01*
X1276Y615D02*
X1606Y615D01*
X1276Y614D02*
X1606Y614D01*
X1276Y613D02*
X1606Y613D01*
X1276Y612D02*
X1606Y612D01*
X1276Y611D02*
X1606Y611D01*
X1276Y610D02*
X1606Y610D01*
X1276Y609D02*
X1606Y609D01*
X1276Y608D02*
X1606Y608D01*
X1276Y607D02*
X1606Y607D01*
X1276Y606D02*
X1606Y606D01*
X1276Y605D02*
X1606Y605D01*
X1276Y604D02*
X1606Y604D01*
X1276Y603D02*
X1606Y603D01*
X1276Y602D02*
X1606Y602D01*
X1276Y601D02*
X1606Y601D01*
X1276Y600D02*
X1606Y600D01*
X1276Y599D02*
X1606Y599D01*
X1276Y598D02*
X1606Y598D01*
X1276Y597D02*
X1606Y597D01*
X1276Y596D02*
X1606Y596D01*
X1276Y595D02*
X1606Y595D01*
X1276Y594D02*
X1606Y594D01*
X1276Y593D02*
X1606Y593D01*
X1276Y592D02*
X1606Y592D01*
X1276Y591D02*
X1606Y591D01*
X1276Y590D02*
X1606Y590D01*
X1276Y589D02*
X1606Y589D01*
X1276Y588D02*
X1606Y588D01*
X1276Y587D02*
X1606Y587D01*
X1276Y586D02*
X1606Y586D01*
X1276Y585D02*
X1606Y585D01*
X1276Y584D02*
X1606Y584D01*
X1276Y583D02*
X1606Y583D01*
X1276Y582D02*
X1606Y582D01*
X1276Y581D02*
X1606Y581D01*
X1276Y580D02*
X1606Y580D01*
X1276Y579D02*
X1606Y579D01*
X1276Y578D02*
X1606Y578D01*
X1276Y577D02*
X1606Y577D01*
X1276Y576D02*
X1606Y576D01*
X1276Y575D02*
X1606Y575D01*
X1276Y574D02*
X1606Y574D01*
X1276Y573D02*
X1606Y573D01*
X1276Y572D02*
X1606Y572D01*
X1276Y571D02*
X1606Y571D01*
X1276Y570D02*
X1606Y570D01*
X1276Y569D02*
X1606Y569D01*
X1276Y568D02*
X1606Y568D01*
X1276Y567D02*
X1606Y567D01*
X1276Y566D02*
X1606Y566D01*
X1276Y565D02*
X1606Y565D01*
X1276Y564D02*
X1606Y564D01*
X1276Y563D02*
X1606Y563D01*
X1276Y562D02*
X1606Y562D01*
X1276Y561D02*
X1606Y561D01*
X1276Y560D02*
X1606Y560D01*
X1276Y559D02*
X1606Y559D01*
X1276Y558D02*
X1606Y558D01*
X1276Y557D02*
X1606Y557D01*
X1276Y556D02*
X1606Y556D01*
X1276Y555D02*
X1606Y555D01*
X1276Y554D02*
X1606Y554D01*
X1276Y553D02*
X1606Y553D01*
X1276Y552D02*
X1606Y552D01*
X1276Y551D02*
X1606Y551D01*
X1276Y550D02*
X1606Y550D01*
X1276Y549D02*
X1606Y549D01*
X1276Y548D02*
X1606Y548D01*
X1276Y547D02*
X1606Y547D01*
X1276Y546D02*
X1606Y546D01*
X1276Y545D02*
X1606Y545D01*
X1276Y544D02*
X1606Y544D01*
X1276Y543D02*
X1606Y543D01*
X1276Y542D02*
X1606Y542D01*
X1276Y541D02*
X1606Y541D01*
X1276Y540D02*
X1606Y540D01*
X1276Y539D02*
X1606Y539D01*
X1276Y538D02*
X1606Y538D01*
X1276Y537D02*
X1606Y537D01*
X1276Y536D02*
X1606Y536D01*
X1276Y535D02*
X1606Y535D01*
X1276Y534D02*
X1606Y534D01*
X1276Y533D02*
X1606Y533D01*
X1276Y532D02*
X1606Y532D01*
X1276Y531D02*
X1606Y531D01*
X1276Y530D02*
X1606Y530D01*
X1276Y529D02*
X1606Y529D01*
X1276Y528D02*
X1606Y528D01*
X1276Y527D02*
X1606Y527D01*
X938Y526D02*
X1055Y526D01*
X1276Y526D02*
X1606Y526D01*
X938Y525D02*
X1055Y525D01*
X1276Y525D02*
X1606Y525D01*
X938Y524D02*
X1055Y524D01*
X1276Y524D02*
X1606Y524D01*
X938Y523D02*
X1055Y523D01*
X1276Y523D02*
X1606Y523D01*
X938Y522D02*
X1055Y522D01*
X1276Y522D02*
X1606Y522D01*
X938Y521D02*
X1055Y521D01*
X1276Y521D02*
X1606Y521D01*
X938Y520D02*
X1055Y520D01*
X1276Y520D02*
X1606Y520D01*
X938Y519D02*
X1055Y519D01*
X1276Y519D02*
X1606Y519D01*
X938Y518D02*
X1055Y518D01*
X1276Y518D02*
X1606Y518D01*
X938Y517D02*
X1055Y517D01*
X1276Y517D02*
X1606Y517D01*
X938Y516D02*
X1055Y516D01*
X1276Y516D02*
X1606Y516D01*
X938Y515D02*
X1055Y515D01*
X1276Y515D02*
X1606Y515D01*
X938Y514D02*
X1055Y514D01*
X1276Y514D02*
X1606Y514D01*
X938Y513D02*
X1055Y513D01*
X1276Y513D02*
X1606Y513D01*
X938Y512D02*
X1055Y512D01*
X1276Y512D02*
X1606Y512D01*
X938Y511D02*
X1055Y511D01*
X1276Y511D02*
X1606Y511D01*
X938Y510D02*
X1055Y510D01*
X1276Y510D02*
X1606Y510D01*
X938Y509D02*
X1055Y509D01*
X1276Y509D02*
X1606Y509D01*
X938Y508D02*
X1055Y508D01*
X1276Y508D02*
X1606Y508D01*
X938Y507D02*
X1055Y507D01*
X1276Y507D02*
X1606Y507D01*
X938Y506D02*
X1055Y506D01*
X1276Y506D02*
X1606Y506D01*
X938Y505D02*
X1055Y505D01*
X1276Y505D02*
X1606Y505D01*
X938Y504D02*
X1055Y504D01*
X1276Y504D02*
X1606Y504D01*
X938Y503D02*
X1055Y503D01*
X1276Y503D02*
X1606Y503D01*
X938Y502D02*
X1055Y502D01*
X1276Y502D02*
X1606Y502D01*
X938Y501D02*
X1055Y501D01*
X1276Y501D02*
X1606Y501D01*
X938Y500D02*
X1055Y500D01*
X1276Y500D02*
X1606Y500D01*
X938Y499D02*
X1055Y499D01*
X1276Y499D02*
X1606Y499D01*
X938Y498D02*
X1055Y498D01*
X1276Y498D02*
X1606Y498D01*
X938Y497D02*
X1055Y497D01*
X1276Y497D02*
X1606Y497D01*
X938Y496D02*
X1055Y496D01*
X1276Y496D02*
X1606Y496D01*
X938Y495D02*
X1055Y495D01*
X1276Y495D02*
X1606Y495D01*
X938Y494D02*
X1055Y494D01*
X1276Y494D02*
X1606Y494D01*
X938Y493D02*
X1055Y493D01*
X1276Y493D02*
X1606Y493D01*
X938Y492D02*
X1055Y492D01*
X1276Y492D02*
X1606Y492D01*
X938Y491D02*
X1055Y491D01*
X1276Y491D02*
X1606Y491D01*
X938Y490D02*
X1055Y490D01*
X1276Y490D02*
X1606Y490D01*
X938Y489D02*
X1055Y489D01*
X1276Y489D02*
X1606Y489D01*
X938Y488D02*
X1055Y488D01*
X1276Y488D02*
X1606Y488D01*
X938Y487D02*
X1055Y487D01*
X1276Y487D02*
X1606Y487D01*
X1276Y486D02*
X1606Y486D01*
X1276Y485D02*
X1606Y485D01*
X1276Y484D02*
X1606Y484D01*
X1276Y483D02*
X1606Y483D01*
X1276Y482D02*
X1606Y482D01*
X1276Y481D02*
X1606Y481D01*
X1276Y480D02*
X1606Y480D01*
X1276Y479D02*
X1606Y479D01*
X1276Y478D02*
X1606Y478D01*
X1276Y477D02*
X1606Y477D01*
X1276Y476D02*
X1606Y476D01*
X1276Y475D02*
X1606Y475D01*
X1276Y474D02*
X1606Y474D01*
X1276Y473D02*
X1606Y473D01*
X1276Y472D02*
X1606Y472D01*
X1276Y471D02*
X1606Y471D01*
X1276Y470D02*
X1606Y470D01*
X1276Y469D02*
X1606Y469D01*
X1276Y468D02*
X1606Y468D01*
X1276Y467D02*
X1606Y467D01*
X1276Y466D02*
X1606Y466D01*
X1276Y465D02*
X1606Y465D01*
X1276Y464D02*
X1606Y464D01*
X1276Y463D02*
X1606Y463D01*
X1276Y462D02*
X1606Y462D01*
X1276Y461D02*
X1606Y461D01*
X1276Y460D02*
X1606Y460D01*
X1276Y459D02*
X1606Y459D01*
X1276Y458D02*
X1606Y458D01*
X1276Y457D02*
X1606Y457D01*
X1276Y456D02*
X1606Y456D01*
X1276Y455D02*
X1606Y455D01*
X1276Y454D02*
X1606Y454D01*
X1276Y453D02*
X1606Y453D01*
X1276Y452D02*
X1606Y452D01*
X1276Y451D02*
X1606Y451D01*
X1276Y450D02*
X1606Y450D01*
X1276Y449D02*
X1606Y449D01*
X1276Y448D02*
X1606Y448D01*
X1276Y447D02*
X1606Y447D01*
X1276Y446D02*
X1606Y446D01*
X1276Y445D02*
X1606Y445D01*
X1276Y444D02*
X1606Y444D01*
X1276Y443D02*
X1606Y443D01*
X1276Y442D02*
X1606Y442D01*
X1276Y441D02*
X1606Y441D01*
X1276Y440D02*
X1606Y440D01*
X1276Y439D02*
X1606Y439D01*
X1276Y438D02*
X1606Y438D01*
X1276Y437D02*
X1606Y437D01*
X1276Y436D02*
X1606Y436D01*
X1276Y435D02*
X1606Y435D01*
X1276Y434D02*
X1606Y434D01*
X1276Y433D02*
X1606Y433D01*
X1276Y432D02*
X1606Y432D01*
X1276Y431D02*
X1606Y431D01*
X1276Y430D02*
X1606Y430D01*
X1276Y429D02*
X1606Y429D01*
X1276Y428D02*
X1606Y428D01*
X1276Y427D02*
X1606Y427D01*
X1276Y426D02*
X1606Y426D01*
X1276Y425D02*
X1606Y425D01*
X1276Y424D02*
X1606Y424D01*
X1276Y423D02*
X1606Y423D01*
X1276Y422D02*
X1606Y422D01*
X1276Y421D02*
X1606Y421D01*
X1276Y420D02*
X1606Y420D01*
X1276Y419D02*
X1606Y419D01*
X1276Y418D02*
X1606Y418D01*
X1276Y417D02*
X1606Y417D01*
X1276Y416D02*
X1606Y416D01*
X1276Y415D02*
X1606Y415D01*
X1276Y414D02*
X1606Y414D01*
X1276Y413D02*
X1606Y413D01*
X1276Y412D02*
X1606Y412D01*
X1276Y411D02*
X1606Y411D01*
X1276Y410D02*
X1606Y410D01*
X1276Y409D02*
X1606Y409D01*
X1276Y408D02*
X1606Y408D01*
X1276Y407D02*
X1606Y407D01*
X1276Y406D02*
X1606Y406D01*
X1276Y405D02*
X1606Y405D01*
X1276Y404D02*
X1606Y404D01*
X1276Y403D02*
X1606Y403D01*
X1276Y402D02*
X1606Y402D01*
X1276Y401D02*
X1606Y401D01*
X1276Y400D02*
X1606Y400D01*
X1276Y399D02*
X1606Y399D01*
X1276Y398D02*
X1606Y398D01*
X1276Y397D02*
X1606Y397D01*
X1276Y396D02*
X1606Y396D01*
X1276Y395D02*
X1606Y395D01*
X1276Y394D02*
X1606Y394D01*
X1276Y393D02*
X1606Y393D01*
X1276Y392D02*
X1606Y392D01*
X1276Y391D02*
X1606Y391D01*
X1276Y390D02*
X1606Y390D01*
X1276Y389D02*
X1606Y389D01*
X1276Y388D02*
X1606Y388D01*
X1276Y387D02*
X1606Y387D01*
X1276Y386D02*
X1606Y386D01*
X1276Y385D02*
X1606Y385D01*
X1276Y384D02*
X1606Y384D01*
X1276Y383D02*
X1606Y383D01*
X1276Y382D02*
X1606Y382D01*
X1276Y381D02*
X1606Y381D01*
X1276Y380D02*
X1606Y380D01*
X1276Y379D02*
X1606Y379D01*
X1276Y378D02*
X1606Y378D01*
X1276Y377D02*
X1606Y377D01*
X1276Y376D02*
X1606Y376D01*
X1276Y375D02*
X1606Y375D01*
X1276Y374D02*
X1606Y374D01*
X1276Y373D02*
X1606Y373D01*
X1276Y372D02*
X1606Y372D01*
X1276Y371D02*
X1606Y371D01*
X1276Y370D02*
X1606Y370D01*
X1276Y369D02*
X1606Y369D01*
X1276Y368D02*
X1606Y368D01*
X1276Y367D02*
X1606Y367D01*
X1276Y366D02*
X1606Y366D01*
X1276Y365D02*
X1606Y365D01*
X1276Y364D02*
X1606Y364D01*
X1276Y363D02*
X1606Y363D01*
X1276Y362D02*
X1606Y362D01*
X1276Y361D02*
X1606Y361D01*
X1276Y360D02*
X1606Y360D01*
X1276Y359D02*
X1606Y359D01*
X1276Y358D02*
X1606Y358D01*
X1276Y357D02*
X1606Y357D01*
X1276Y356D02*
X1606Y356D01*
X1276Y355D02*
X1606Y355D01*
X1276Y354D02*
X1606Y354D01*
X1276Y353D02*
X1606Y353D01*
X1276Y352D02*
X1606Y352D01*
X1276Y351D02*
X1606Y351D01*
X1276Y350D02*
X1606Y350D01*
X1276Y349D02*
X1606Y349D01*
X1276Y348D02*
X1606Y348D01*
X1276Y347D02*
X1606Y347D01*
X1276Y346D02*
X1606Y346D01*
X1276Y345D02*
X1606Y345D01*
X1276Y344D02*
X1606Y344D01*
X1276Y343D02*
X1606Y343D01*
X1276Y342D02*
X1606Y342D01*
X1276Y341D02*
X1606Y341D01*
X1276Y340D02*
X1606Y340D01*
X1276Y339D02*
X1606Y339D01*
X1276Y338D02*
X1606Y338D01*
X1276Y337D02*
X1606Y337D01*
X1276Y336D02*
X1606Y336D01*
X1276Y335D02*
X1606Y335D01*
X1276Y334D02*
X1606Y334D01*
X1276Y333D02*
X1606Y333D01*
X1276Y332D02*
X1606Y332D01*
X1276Y331D02*
X1606Y331D01*
X1276Y330D02*
X1606Y330D01*
X938Y329D02*
X1055Y329D01*
X1276Y329D02*
X1606Y329D01*
X938Y328D02*
X1055Y328D01*
X1276Y328D02*
X1606Y328D01*
X938Y327D02*
X1055Y327D01*
X1276Y327D02*
X1606Y327D01*
X938Y326D02*
X1055Y326D01*
X1276Y326D02*
X1606Y326D01*
X938Y325D02*
X1055Y325D01*
X1276Y325D02*
X1606Y325D01*
X938Y324D02*
X1055Y324D01*
X1276Y324D02*
X1606Y324D01*
X938Y323D02*
X1055Y323D01*
X1276Y323D02*
X1606Y323D01*
X938Y322D02*
X1055Y322D01*
X1276Y322D02*
X1606Y322D01*
X938Y321D02*
X1055Y321D01*
X1276Y321D02*
X1606Y321D01*
X938Y320D02*
X1055Y320D01*
X1276Y320D02*
X1606Y320D01*
X938Y319D02*
X1055Y319D01*
X1276Y319D02*
X1606Y319D01*
X938Y318D02*
X1055Y318D01*
X1276Y318D02*
X1606Y318D01*
X938Y317D02*
X1055Y317D01*
X1276Y317D02*
X1606Y317D01*
X938Y316D02*
X1055Y316D01*
X1276Y316D02*
X1606Y316D01*
X938Y315D02*
X1055Y315D01*
X1276Y315D02*
X1606Y315D01*
X938Y314D02*
X1055Y314D01*
X1276Y314D02*
X1606Y314D01*
X938Y313D02*
X1055Y313D01*
X1276Y313D02*
X1606Y313D01*
X938Y312D02*
X1055Y312D01*
X1276Y312D02*
X1606Y312D01*
X938Y311D02*
X1055Y311D01*
X1276Y311D02*
X1606Y311D01*
X938Y310D02*
X1055Y310D01*
X1276Y310D02*
X1606Y310D01*
X938Y309D02*
X1055Y309D01*
X1276Y309D02*
X1606Y309D01*
X938Y308D02*
X1055Y308D01*
X1276Y308D02*
X1606Y308D01*
X938Y307D02*
X1055Y307D01*
X1276Y307D02*
X1606Y307D01*
X938Y306D02*
X1055Y306D01*
X1276Y306D02*
X1606Y306D01*
X938Y305D02*
X1055Y305D01*
X1276Y305D02*
X1606Y305D01*
X938Y304D02*
X1055Y304D01*
X1276Y304D02*
X1606Y304D01*
X938Y303D02*
X1055Y303D01*
X1276Y303D02*
X1606Y303D01*
X938Y302D02*
X1055Y302D01*
X1276Y302D02*
X1606Y302D01*
X938Y301D02*
X1055Y301D01*
X1276Y301D02*
X1606Y301D01*
X938Y300D02*
X1055Y300D01*
X1276Y300D02*
X1606Y300D01*
X938Y299D02*
X1055Y299D01*
X1276Y299D02*
X1606Y299D01*
X938Y298D02*
X1055Y298D01*
X1276Y298D02*
X1606Y298D01*
X938Y297D02*
X1055Y297D01*
X1276Y297D02*
X1606Y297D01*
X938Y296D02*
X1055Y296D01*
X1276Y296D02*
X1606Y296D01*
X938Y295D02*
X1055Y295D01*
X1276Y295D02*
X1606Y295D01*
X938Y294D02*
X1055Y294D01*
X1276Y294D02*
X1606Y294D01*
X938Y293D02*
X1055Y293D01*
X1276Y293D02*
X1606Y293D01*
X938Y292D02*
X1055Y292D01*
X1276Y292D02*
X1606Y292D01*
X938Y291D02*
X1055Y291D01*
X1276Y291D02*
X1606Y291D01*
X1276Y290D02*
X1606Y290D01*
X1276Y289D02*
X1606Y289D01*
X1276Y288D02*
X1606Y288D01*
X1276Y287D02*
X1606Y287D01*
X1276Y286D02*
X1606Y286D01*
X1276Y285D02*
X1606Y285D01*
X1276Y284D02*
X1606Y284D01*
X1276Y283D02*
X1606Y283D01*
X1276Y282D02*
X1606Y282D01*
X1276Y281D02*
X1606Y281D01*
X1276Y280D02*
X1606Y280D01*
X1276Y279D02*
X1606Y279D01*
X1276Y278D02*
X1606Y278D01*
X1276Y277D02*
X1606Y277D01*
X1276Y276D02*
X1606Y276D01*
X1276Y275D02*
X1606Y275D01*
X1276Y274D02*
X1606Y274D01*
X1276Y273D02*
X1606Y273D01*
X1276Y272D02*
X1606Y272D01*
X1276Y271D02*
X1606Y271D01*
X1276Y270D02*
X1606Y270D01*
X1276Y269D02*
X1606Y269D01*
X1276Y268D02*
X1606Y268D01*
X1276Y267D02*
X1606Y267D01*
X1276Y266D02*
X1606Y266D01*
X1276Y265D02*
X1606Y265D01*
X1276Y264D02*
X1606Y264D01*
X1276Y263D02*
X1606Y263D01*
X1276Y262D02*
X1606Y262D01*
X1276Y261D02*
X1606Y261D01*
X1276Y260D02*
X1606Y260D01*
X1276Y259D02*
X1606Y259D01*
X1276Y258D02*
X1606Y258D01*
X1276Y257D02*
X1606Y257D01*
X1276Y256D02*
X1606Y256D01*
X1276Y255D02*
X1606Y255D01*
X1276Y254D02*
X1606Y254D01*
X1276Y253D02*
X1606Y253D01*
X1276Y252D02*
X1606Y252D01*
X1276Y251D02*
X1606Y251D01*
X1276Y250D02*
X1606Y250D01*
X1276Y249D02*
X1606Y249D01*
X1276Y248D02*
X1606Y248D01*
X1276Y247D02*
X1606Y247D01*
X1276Y246D02*
X1606Y246D01*
X1276Y245D02*
X1606Y245D01*
X1276Y244D02*
X1606Y244D01*
X1276Y243D02*
X1606Y243D01*
X1276Y242D02*
X1606Y242D01*
X1276Y241D02*
X1606Y241D01*
X1276Y240D02*
X1606Y240D01*
X1276Y239D02*
X1606Y239D01*
X1276Y238D02*
X1606Y238D01*
X1276Y237D02*
X1606Y237D01*
X1276Y236D02*
X1606Y236D01*
X1276Y235D02*
X1606Y235D01*
X1276Y234D02*
X1606Y234D01*
X1276Y233D02*
X1606Y233D01*
X1276Y232D02*
X1606Y232D01*
X1276Y231D02*
X1606Y231D01*
X1276Y230D02*
X1606Y230D01*
X1276Y229D02*
X1606Y229D01*
X1276Y228D02*
X1606Y228D01*
X1276Y227D02*
X1606Y227D01*
X1276Y226D02*
X1606Y226D01*
X1276Y225D02*
X1606Y225D01*
X1276Y224D02*
X1606Y224D01*
X1276Y223D02*
X1606Y223D01*
X1276Y222D02*
X1606Y222D01*
X1276Y221D02*
X1606Y221D01*
X1276Y220D02*
X1606Y220D01*
X1276Y219D02*
X1606Y219D01*
X1276Y218D02*
X1606Y218D01*
X1276Y217D02*
X1606Y217D01*
X1276Y216D02*
X1606Y216D01*
X1276Y215D02*
X1606Y215D01*
X1276Y214D02*
X1606Y214D01*
X1276Y213D02*
X1606Y213D01*
X1276Y212D02*
X1606Y212D01*
X1276Y211D02*
X1606Y211D01*
X1276Y210D02*
X1606Y210D01*
X1276Y209D02*
X1606Y209D01*
X1276Y208D02*
X1606Y208D01*
X1276Y207D02*
X1606Y207D01*
X1276Y206D02*
X1606Y206D01*
X1276Y205D02*
X1606Y205D01*
X1276Y204D02*
X1606Y204D01*
X1276Y203D02*
X1606Y203D01*
X1276Y202D02*
X1606Y202D01*
X1276Y201D02*
X1606Y201D01*
X1276Y200D02*
X1606Y200D01*
X1276Y199D02*
X1606Y199D01*
X1276Y198D02*
X1606Y198D01*
D02*
G04 End of Copper1*
M02*