G04 MADE WITH FRITZING*
G04 WWW.FRITZING.ORG*
G04 DOUBLE SIDED*
G04 HOLES PLATED*
G04 CONTOUR ON CENTER OF CONTOUR VECTOR*
%ASAXBY*%
%FSLAX23Y23*%
%MOIN*%
%OFA0B0*%
%SFA1.0B1.0*%
%ADD10C,0.075000*%
%ADD11C,0.078000*%
%ADD12C,0.039370*%
%ADD13C,0.074000*%
%ADD14C,0.140000*%
%ADD15C,0.080000*%
%ADD16R,0.062992X0.074803*%
%ADD17R,0.080000X0.080000*%
%ADD18C,0.024000*%
%ADD19R,0.001000X0.001000*%
%LNCOPPER0*%
G90*
G70*
G54D10*
X99Y903D03*
X1517Y618D03*
X930Y1626D03*
X443Y415D03*
G54D11*
X1387Y86D03*
X1287Y86D03*
X1187Y86D03*
X1087Y86D03*
G54D12*
X422Y724D03*
X422Y644D03*
X422Y563D03*
G54D10*
X814Y1404D03*
X559Y1404D03*
X814Y1581D03*
X559Y1581D03*
X815Y1076D03*
X560Y1076D03*
X815Y1253D03*
X560Y1253D03*
G54D12*
X791Y882D03*
X425Y882D03*
G54D13*
X168Y574D03*
X168Y474D03*
X168Y374D03*
G54D14*
X401Y1661D03*
X161Y1661D03*
X281Y1471D03*
G54D15*
X993Y1753D03*
X1131Y1753D03*
X709Y1752D03*
X847Y1752D03*
G54D11*
X1399Y1766D03*
X1299Y1766D03*
X1399Y1766D03*
X1299Y1766D03*
G54D16*
X1336Y975D03*
X1458Y975D03*
G54D17*
X993Y1753D03*
X709Y1752D03*
G54D16*
X1212Y802D03*
X1090Y802D03*
X1213Y978D03*
X1091Y978D03*
X65Y1042D03*
X187Y1042D03*
G54D18*
X489Y1474D02*
X538Y1424D01*
D02*
X342Y1472D02*
X489Y1473D01*
D02*
X945Y920D02*
X1003Y977D01*
D02*
X1003Y977D02*
X1065Y978D01*
D02*
X944Y898D02*
X945Y920D01*
D02*
X621Y1662D02*
X687Y1730D01*
D02*
X1056Y329D02*
X982Y329D01*
D02*
X1063Y410D02*
X982Y408D01*
D02*
X1366Y107D02*
X1063Y410D01*
D02*
X1266Y108D02*
X1056Y329D01*
D02*
X462Y1661D02*
X621Y1662D01*
D02*
X362Y723D02*
X403Y724D01*
D02*
X362Y644D02*
X403Y644D01*
D02*
X403Y563D02*
X362Y564D01*
D02*
X1239Y978D02*
X1310Y976D01*
D02*
X582Y450D02*
X465Y333D01*
D02*
X465Y333D02*
X362Y330D01*
D02*
X586Y813D02*
X582Y450D01*
D02*
X584Y1054D02*
X586Y813D01*
D02*
X581Y1057D02*
X584Y1054D01*
D02*
X735Y1040D02*
X733Y1168D01*
D02*
X559Y1282D02*
X559Y1375D01*
D02*
X733Y1168D02*
X796Y1233D01*
D02*
X789Y985D02*
X735Y1040D01*
D02*
X791Y901D02*
X789Y985D01*
D02*
X815Y1282D02*
X815Y1375D01*
D02*
X1141Y879D02*
X1186Y831D01*
D02*
X982Y880D02*
X1141Y879D01*
D02*
X1064Y802D02*
X982Y802D01*
D02*
X816Y644D02*
X904Y644D01*
D02*
X695Y761D02*
X816Y644D01*
D02*
X691Y1457D02*
X695Y761D01*
D02*
X794Y1561D02*
X691Y1457D01*
D02*
X60Y715D02*
X62Y597D01*
D02*
X62Y597D02*
X148Y497D01*
D02*
X222Y877D02*
X60Y715D01*
D02*
X362Y881D02*
X406Y882D01*
D02*
X904Y881D02*
X810Y882D01*
D02*
X1309Y728D02*
X982Y723D01*
D02*
X1458Y877D02*
X1309Y728D01*
D02*
X1458Y943D02*
X1458Y877D01*
D02*
X443Y1038D02*
X213Y1042D01*
D02*
X469Y490D02*
X524Y544D01*
D02*
X524Y544D02*
X524Y949D01*
D02*
X524Y949D02*
X443Y1038D01*
D02*
X362Y487D02*
X469Y490D01*
D02*
X222Y877D02*
X91Y1015D01*
D02*
X284Y879D02*
X222Y877D01*
D02*
X1539Y1507D02*
X1539Y853D01*
D02*
X1539Y853D02*
X1247Y562D01*
D02*
X1247Y562D02*
X982Y565D01*
D02*
X1320Y1744D02*
X1539Y1507D01*
D02*
X1581Y798D02*
X1281Y486D01*
D02*
X1581Y1579D02*
X1581Y798D01*
D02*
X1420Y1744D02*
X1581Y1579D01*
D02*
X1281Y486D02*
X982Y486D01*
G36*
X1440Y1810D02*
X1440Y1788D01*
X1442Y1788D01*
X1442Y1784D01*
X1444Y1784D01*
X1444Y1780D01*
X1446Y1780D01*
X1446Y1774D01*
X1448Y1774D01*
X1448Y1746D01*
X1450Y1746D01*
X1450Y1744D01*
X1452Y1744D01*
X1452Y1742D01*
X1454Y1742D01*
X1454Y1740D01*
X1456Y1740D01*
X1456Y1738D01*
X1458Y1738D01*
X1458Y1736D01*
X1460Y1736D01*
X1460Y1734D01*
X1462Y1734D01*
X1462Y1732D01*
X1464Y1732D01*
X1464Y1730D01*
X1466Y1730D01*
X1466Y1728D01*
X1468Y1728D01*
X1468Y1726D01*
X1470Y1726D01*
X1470Y1722D01*
X1472Y1722D01*
X1472Y1720D01*
X1474Y1720D01*
X1474Y1718D01*
X1476Y1718D01*
X1476Y1716D01*
X1478Y1716D01*
X1478Y1714D01*
X1480Y1714D01*
X1480Y1712D01*
X1482Y1712D01*
X1482Y1710D01*
X1536Y1710D01*
X1536Y1712D01*
X1530Y1712D01*
X1530Y1714D01*
X1526Y1714D01*
X1526Y1716D01*
X1522Y1716D01*
X1522Y1718D01*
X1518Y1718D01*
X1518Y1720D01*
X1516Y1720D01*
X1516Y1722D01*
X1514Y1722D01*
X1514Y1724D01*
X1512Y1724D01*
X1512Y1726D01*
X1510Y1726D01*
X1510Y1728D01*
X1508Y1728D01*
X1508Y1730D01*
X1506Y1730D01*
X1506Y1732D01*
X1504Y1732D01*
X1504Y1736D01*
X1502Y1736D01*
X1502Y1738D01*
X1500Y1738D01*
X1500Y1742D01*
X1498Y1742D01*
X1498Y1748D01*
X1496Y1748D01*
X1496Y1756D01*
X1494Y1756D01*
X1494Y1770D01*
X1496Y1770D01*
X1496Y1778D01*
X1498Y1778D01*
X1498Y1784D01*
X1500Y1784D01*
X1500Y1788D01*
X1502Y1788D01*
X1502Y1790D01*
X1504Y1790D01*
X1504Y1810D01*
X1440Y1810D01*
G37*
D02*
G36*
X1574Y1718D02*
X1574Y1716D01*
X1570Y1716D01*
X1570Y1714D01*
X1566Y1714D01*
X1566Y1712D01*
X1560Y1712D01*
X1560Y1710D01*
X1594Y1710D01*
X1594Y1718D01*
X1574Y1718D01*
G37*
D02*
G36*
X1484Y1710D02*
X1484Y1708D01*
X1594Y1708D01*
X1594Y1710D01*
X1484Y1710D01*
G37*
D02*
G36*
X1484Y1710D02*
X1484Y1708D01*
X1594Y1708D01*
X1594Y1710D01*
X1484Y1710D01*
G37*
D02*
G36*
X1486Y1708D02*
X1486Y1706D01*
X1488Y1706D01*
X1488Y1704D01*
X1490Y1704D01*
X1490Y1702D01*
X1492Y1702D01*
X1492Y1700D01*
X1494Y1700D01*
X1494Y1698D01*
X1496Y1698D01*
X1496Y1696D01*
X1498Y1696D01*
X1498Y1694D01*
X1500Y1694D01*
X1500Y1692D01*
X1502Y1692D01*
X1502Y1690D01*
X1504Y1690D01*
X1504Y1688D01*
X1506Y1688D01*
X1506Y1686D01*
X1508Y1686D01*
X1508Y1684D01*
X1510Y1684D01*
X1510Y1682D01*
X1512Y1682D01*
X1512Y1680D01*
X1514Y1680D01*
X1514Y1678D01*
X1516Y1678D01*
X1516Y1676D01*
X1518Y1676D01*
X1518Y1674D01*
X1520Y1674D01*
X1520Y1672D01*
X1522Y1672D01*
X1522Y1670D01*
X1524Y1670D01*
X1524Y1668D01*
X1526Y1668D01*
X1526Y1666D01*
X1528Y1666D01*
X1528Y1664D01*
X1530Y1664D01*
X1530Y1662D01*
X1532Y1662D01*
X1532Y1660D01*
X1534Y1660D01*
X1534Y1658D01*
X1536Y1658D01*
X1536Y1656D01*
X1538Y1656D01*
X1538Y1654D01*
X1540Y1654D01*
X1540Y1652D01*
X1542Y1652D01*
X1542Y1650D01*
X1544Y1650D01*
X1544Y1648D01*
X1546Y1648D01*
X1546Y1646D01*
X1548Y1646D01*
X1548Y1642D01*
X1550Y1642D01*
X1550Y1640D01*
X1552Y1640D01*
X1552Y1638D01*
X1554Y1638D01*
X1554Y1636D01*
X1556Y1636D01*
X1556Y1634D01*
X1558Y1634D01*
X1558Y1632D01*
X1560Y1632D01*
X1560Y1630D01*
X1562Y1630D01*
X1562Y1628D01*
X1564Y1628D01*
X1564Y1626D01*
X1566Y1626D01*
X1566Y1624D01*
X1568Y1624D01*
X1568Y1622D01*
X1570Y1622D01*
X1570Y1620D01*
X1572Y1620D01*
X1572Y1618D01*
X1574Y1618D01*
X1574Y1616D01*
X1594Y1616D01*
X1594Y1708D01*
X1486Y1708D01*
G37*
D02*
G36*
X1390Y1716D02*
X1390Y1698D01*
X1392Y1698D01*
X1392Y1696D01*
X1394Y1696D01*
X1394Y1694D01*
X1396Y1694D01*
X1396Y1692D01*
X1398Y1692D01*
X1398Y1690D01*
X1400Y1690D01*
X1400Y1688D01*
X1402Y1688D01*
X1402Y1686D01*
X1404Y1686D01*
X1404Y1684D01*
X1406Y1684D01*
X1406Y1682D01*
X1408Y1682D01*
X1408Y1680D01*
X1410Y1680D01*
X1410Y1676D01*
X1412Y1676D01*
X1412Y1674D01*
X1414Y1674D01*
X1414Y1672D01*
X1416Y1672D01*
X1416Y1670D01*
X1418Y1670D01*
X1418Y1668D01*
X1420Y1668D01*
X1420Y1666D01*
X1422Y1666D01*
X1422Y1664D01*
X1424Y1664D01*
X1424Y1662D01*
X1426Y1662D01*
X1426Y1660D01*
X1428Y1660D01*
X1428Y1658D01*
X1430Y1658D01*
X1430Y1656D01*
X1432Y1656D01*
X1432Y1654D01*
X1434Y1654D01*
X1434Y1652D01*
X1436Y1652D01*
X1436Y1648D01*
X1438Y1648D01*
X1438Y1646D01*
X1440Y1646D01*
X1440Y1644D01*
X1442Y1644D01*
X1442Y1642D01*
X1444Y1642D01*
X1444Y1640D01*
X1446Y1640D01*
X1446Y1638D01*
X1448Y1638D01*
X1448Y1636D01*
X1450Y1636D01*
X1450Y1634D01*
X1452Y1634D01*
X1452Y1632D01*
X1454Y1632D01*
X1454Y1630D01*
X1456Y1630D01*
X1456Y1628D01*
X1458Y1628D01*
X1458Y1626D01*
X1460Y1626D01*
X1460Y1624D01*
X1462Y1624D01*
X1462Y1620D01*
X1464Y1620D01*
X1464Y1618D01*
X1466Y1618D01*
X1466Y1616D01*
X1468Y1616D01*
X1468Y1614D01*
X1470Y1614D01*
X1470Y1612D01*
X1472Y1612D01*
X1472Y1610D01*
X1474Y1610D01*
X1474Y1608D01*
X1476Y1608D01*
X1476Y1606D01*
X1478Y1606D01*
X1478Y1604D01*
X1480Y1604D01*
X1480Y1602D01*
X1482Y1602D01*
X1482Y1600D01*
X1484Y1600D01*
X1484Y1598D01*
X1486Y1598D01*
X1486Y1594D01*
X1488Y1594D01*
X1488Y1592D01*
X1490Y1592D01*
X1490Y1590D01*
X1492Y1590D01*
X1492Y1588D01*
X1494Y1588D01*
X1494Y1586D01*
X1496Y1586D01*
X1496Y1584D01*
X1498Y1584D01*
X1498Y1582D01*
X1500Y1582D01*
X1500Y1580D01*
X1502Y1580D01*
X1502Y1578D01*
X1504Y1578D01*
X1504Y1576D01*
X1506Y1576D01*
X1506Y1574D01*
X1508Y1574D01*
X1508Y1572D01*
X1510Y1572D01*
X1510Y1570D01*
X1512Y1570D01*
X1512Y1566D01*
X1514Y1566D01*
X1514Y1564D01*
X1516Y1564D01*
X1516Y1562D01*
X1518Y1562D01*
X1518Y1560D01*
X1520Y1560D01*
X1520Y1558D01*
X1522Y1558D01*
X1522Y1556D01*
X1524Y1556D01*
X1524Y1554D01*
X1526Y1554D01*
X1526Y1552D01*
X1528Y1552D01*
X1528Y1550D01*
X1530Y1550D01*
X1530Y1548D01*
X1532Y1548D01*
X1532Y1546D01*
X1534Y1546D01*
X1534Y1544D01*
X1536Y1544D01*
X1536Y1542D01*
X1538Y1542D01*
X1538Y1538D01*
X1540Y1538D01*
X1540Y1536D01*
X1560Y1536D01*
X1560Y1570D01*
X1558Y1570D01*
X1558Y1572D01*
X1556Y1572D01*
X1556Y1574D01*
X1554Y1574D01*
X1554Y1576D01*
X1552Y1576D01*
X1552Y1578D01*
X1550Y1578D01*
X1550Y1580D01*
X1548Y1580D01*
X1548Y1582D01*
X1546Y1582D01*
X1546Y1584D01*
X1544Y1584D01*
X1544Y1586D01*
X1542Y1586D01*
X1542Y1588D01*
X1540Y1588D01*
X1540Y1590D01*
X1538Y1590D01*
X1538Y1592D01*
X1536Y1592D01*
X1536Y1594D01*
X1534Y1594D01*
X1534Y1596D01*
X1532Y1596D01*
X1532Y1598D01*
X1530Y1598D01*
X1530Y1600D01*
X1528Y1600D01*
X1528Y1602D01*
X1526Y1602D01*
X1526Y1604D01*
X1524Y1604D01*
X1524Y1606D01*
X1522Y1606D01*
X1522Y1608D01*
X1520Y1608D01*
X1520Y1610D01*
X1518Y1610D01*
X1518Y1612D01*
X1516Y1612D01*
X1516Y1614D01*
X1514Y1614D01*
X1514Y1616D01*
X1512Y1616D01*
X1512Y1618D01*
X1510Y1618D01*
X1510Y1620D01*
X1508Y1620D01*
X1508Y1624D01*
X1506Y1624D01*
X1506Y1626D01*
X1504Y1626D01*
X1504Y1628D01*
X1502Y1628D01*
X1502Y1630D01*
X1500Y1630D01*
X1500Y1632D01*
X1498Y1632D01*
X1498Y1634D01*
X1496Y1634D01*
X1496Y1636D01*
X1494Y1636D01*
X1494Y1638D01*
X1492Y1638D01*
X1492Y1640D01*
X1490Y1640D01*
X1490Y1642D01*
X1488Y1642D01*
X1488Y1644D01*
X1486Y1644D01*
X1486Y1646D01*
X1484Y1646D01*
X1484Y1648D01*
X1482Y1648D01*
X1482Y1650D01*
X1480Y1650D01*
X1480Y1652D01*
X1478Y1652D01*
X1478Y1654D01*
X1476Y1654D01*
X1476Y1656D01*
X1474Y1656D01*
X1474Y1658D01*
X1472Y1658D01*
X1472Y1660D01*
X1470Y1660D01*
X1470Y1662D01*
X1468Y1662D01*
X1468Y1664D01*
X1466Y1664D01*
X1466Y1666D01*
X1464Y1666D01*
X1464Y1668D01*
X1462Y1668D01*
X1462Y1670D01*
X1460Y1670D01*
X1460Y1672D01*
X1458Y1672D01*
X1458Y1674D01*
X1456Y1674D01*
X1456Y1676D01*
X1454Y1676D01*
X1454Y1678D01*
X1452Y1678D01*
X1452Y1680D01*
X1450Y1680D01*
X1450Y1682D01*
X1448Y1682D01*
X1448Y1684D01*
X1446Y1684D01*
X1446Y1686D01*
X1444Y1686D01*
X1444Y1688D01*
X1442Y1688D01*
X1442Y1690D01*
X1440Y1690D01*
X1440Y1692D01*
X1438Y1692D01*
X1438Y1694D01*
X1436Y1694D01*
X1436Y1696D01*
X1434Y1696D01*
X1434Y1698D01*
X1432Y1698D01*
X1432Y1700D01*
X1430Y1700D01*
X1430Y1704D01*
X1428Y1704D01*
X1428Y1706D01*
X1426Y1706D01*
X1426Y1708D01*
X1424Y1708D01*
X1424Y1710D01*
X1422Y1710D01*
X1422Y1712D01*
X1420Y1712D01*
X1420Y1714D01*
X1418Y1714D01*
X1418Y1716D01*
X1390Y1716D01*
G37*
D02*
G36*
X40Y994D02*
X40Y744D01*
X60Y744D01*
X60Y746D01*
X62Y746D01*
X62Y748D01*
X64Y748D01*
X64Y750D01*
X66Y750D01*
X66Y752D01*
X68Y752D01*
X68Y754D01*
X70Y754D01*
X70Y756D01*
X72Y756D01*
X72Y758D01*
X74Y758D01*
X74Y760D01*
X76Y760D01*
X76Y762D01*
X78Y762D01*
X78Y764D01*
X80Y764D01*
X80Y766D01*
X82Y766D01*
X82Y768D01*
X84Y768D01*
X84Y770D01*
X86Y770D01*
X86Y772D01*
X88Y772D01*
X88Y774D01*
X90Y774D01*
X90Y776D01*
X92Y776D01*
X92Y778D01*
X94Y778D01*
X94Y780D01*
X96Y780D01*
X96Y782D01*
X98Y782D01*
X98Y784D01*
X100Y784D01*
X100Y786D01*
X102Y786D01*
X102Y788D01*
X104Y788D01*
X104Y790D01*
X106Y790D01*
X106Y792D01*
X108Y792D01*
X108Y794D01*
X110Y794D01*
X110Y796D01*
X112Y796D01*
X112Y798D01*
X114Y798D01*
X114Y800D01*
X116Y800D01*
X116Y802D01*
X118Y802D01*
X118Y804D01*
X120Y804D01*
X120Y806D01*
X122Y806D01*
X122Y808D01*
X124Y808D01*
X124Y810D01*
X126Y810D01*
X126Y812D01*
X128Y812D01*
X128Y814D01*
X130Y814D01*
X130Y816D01*
X132Y816D01*
X132Y818D01*
X134Y818D01*
X134Y820D01*
X136Y820D01*
X136Y822D01*
X138Y822D01*
X138Y824D01*
X140Y824D01*
X140Y826D01*
X142Y826D01*
X142Y828D01*
X144Y828D01*
X144Y830D01*
X146Y830D01*
X146Y832D01*
X148Y832D01*
X148Y834D01*
X150Y834D01*
X150Y836D01*
X152Y836D01*
X152Y838D01*
X154Y838D01*
X154Y840D01*
X156Y840D01*
X156Y842D01*
X158Y842D01*
X158Y844D01*
X160Y844D01*
X160Y846D01*
X162Y846D01*
X162Y848D01*
X164Y848D01*
X164Y850D01*
X166Y850D01*
X166Y852D01*
X168Y852D01*
X168Y854D01*
X170Y854D01*
X170Y856D01*
X172Y856D01*
X172Y858D01*
X174Y858D01*
X174Y860D01*
X176Y860D01*
X176Y862D01*
X178Y862D01*
X178Y864D01*
X180Y864D01*
X180Y866D01*
X182Y866D01*
X182Y888D01*
X180Y888D01*
X180Y890D01*
X178Y890D01*
X178Y892D01*
X176Y892D01*
X176Y894D01*
X174Y894D01*
X174Y896D01*
X172Y896D01*
X172Y898D01*
X170Y898D01*
X170Y902D01*
X168Y902D01*
X168Y904D01*
X166Y904D01*
X166Y906D01*
X164Y906D01*
X164Y908D01*
X162Y908D01*
X162Y910D01*
X160Y910D01*
X160Y912D01*
X158Y912D01*
X158Y914D01*
X156Y914D01*
X156Y916D01*
X154Y916D01*
X154Y918D01*
X152Y918D01*
X152Y920D01*
X150Y920D01*
X150Y922D01*
X148Y922D01*
X148Y924D01*
X146Y924D01*
X146Y926D01*
X144Y926D01*
X144Y928D01*
X142Y928D01*
X142Y930D01*
X140Y930D01*
X140Y932D01*
X138Y932D01*
X138Y934D01*
X136Y934D01*
X136Y936D01*
X134Y936D01*
X134Y938D01*
X132Y938D01*
X132Y940D01*
X130Y940D01*
X130Y944D01*
X128Y944D01*
X128Y946D01*
X126Y946D01*
X126Y948D01*
X124Y948D01*
X124Y950D01*
X122Y950D01*
X122Y952D01*
X120Y952D01*
X120Y954D01*
X118Y954D01*
X118Y956D01*
X116Y956D01*
X116Y958D01*
X114Y958D01*
X114Y960D01*
X112Y960D01*
X112Y962D01*
X110Y962D01*
X110Y964D01*
X108Y964D01*
X108Y966D01*
X106Y966D01*
X106Y968D01*
X104Y968D01*
X104Y970D01*
X102Y970D01*
X102Y972D01*
X100Y972D01*
X100Y974D01*
X98Y974D01*
X98Y976D01*
X96Y976D01*
X96Y978D01*
X94Y978D01*
X94Y980D01*
X92Y980D01*
X92Y984D01*
X90Y984D01*
X90Y986D01*
X88Y986D01*
X88Y988D01*
X86Y988D01*
X86Y990D01*
X84Y990D01*
X84Y992D01*
X82Y992D01*
X82Y994D01*
X40Y994D01*
G37*
D02*
G36*
X1480Y926D02*
X1480Y870D01*
X1478Y870D01*
X1478Y866D01*
X1476Y866D01*
X1476Y862D01*
X1474Y862D01*
X1474Y860D01*
X1472Y860D01*
X1472Y858D01*
X1470Y858D01*
X1470Y856D01*
X1468Y856D01*
X1468Y854D01*
X1466Y854D01*
X1466Y852D01*
X1464Y852D01*
X1464Y850D01*
X1462Y850D01*
X1462Y848D01*
X1460Y848D01*
X1460Y846D01*
X1458Y846D01*
X1458Y844D01*
X1456Y844D01*
X1456Y842D01*
X1454Y842D01*
X1454Y840D01*
X1452Y840D01*
X1452Y838D01*
X1450Y838D01*
X1450Y836D01*
X1448Y836D01*
X1448Y834D01*
X1446Y834D01*
X1446Y832D01*
X1444Y832D01*
X1444Y830D01*
X1442Y830D01*
X1442Y828D01*
X1440Y828D01*
X1440Y826D01*
X1438Y826D01*
X1438Y824D01*
X1436Y824D01*
X1436Y822D01*
X1434Y822D01*
X1434Y820D01*
X1432Y820D01*
X1432Y818D01*
X1430Y818D01*
X1430Y816D01*
X1428Y816D01*
X1428Y814D01*
X1426Y814D01*
X1426Y812D01*
X1424Y812D01*
X1424Y810D01*
X1422Y810D01*
X1422Y808D01*
X1420Y808D01*
X1420Y806D01*
X1418Y806D01*
X1418Y804D01*
X1416Y804D01*
X1416Y802D01*
X1414Y802D01*
X1414Y800D01*
X1412Y800D01*
X1412Y798D01*
X1410Y798D01*
X1410Y796D01*
X1408Y796D01*
X1408Y794D01*
X1406Y794D01*
X1406Y792D01*
X1404Y792D01*
X1404Y790D01*
X1402Y790D01*
X1402Y788D01*
X1400Y788D01*
X1400Y786D01*
X1398Y786D01*
X1398Y784D01*
X1396Y784D01*
X1396Y782D01*
X1394Y782D01*
X1394Y780D01*
X1392Y780D01*
X1392Y778D01*
X1390Y778D01*
X1390Y776D01*
X1388Y776D01*
X1388Y774D01*
X1386Y774D01*
X1386Y772D01*
X1384Y772D01*
X1384Y770D01*
X1382Y770D01*
X1382Y768D01*
X1380Y768D01*
X1380Y766D01*
X1378Y766D01*
X1378Y764D01*
X1376Y764D01*
X1376Y762D01*
X1374Y762D01*
X1374Y760D01*
X1372Y760D01*
X1372Y758D01*
X1370Y758D01*
X1370Y756D01*
X1368Y756D01*
X1368Y754D01*
X1366Y754D01*
X1366Y752D01*
X1364Y752D01*
X1364Y750D01*
X1362Y750D01*
X1362Y748D01*
X1360Y748D01*
X1360Y746D01*
X1358Y746D01*
X1358Y744D01*
X1356Y744D01*
X1356Y742D01*
X1354Y742D01*
X1354Y740D01*
X1352Y740D01*
X1352Y738D01*
X1350Y738D01*
X1350Y736D01*
X1348Y736D01*
X1348Y734D01*
X1346Y734D01*
X1346Y732D01*
X1344Y732D01*
X1344Y730D01*
X1342Y730D01*
X1342Y728D01*
X1340Y728D01*
X1340Y726D01*
X1338Y726D01*
X1338Y724D01*
X1336Y724D01*
X1336Y722D01*
X1334Y722D01*
X1334Y720D01*
X1332Y720D01*
X1332Y718D01*
X1330Y718D01*
X1330Y716D01*
X1328Y716D01*
X1328Y714D01*
X1326Y714D01*
X1326Y712D01*
X1324Y712D01*
X1324Y710D01*
X1320Y710D01*
X1320Y708D01*
X1316Y708D01*
X1316Y706D01*
X1264Y706D01*
X1264Y704D01*
X1128Y704D01*
X1128Y702D01*
X998Y702D01*
X998Y586D01*
X1106Y586D01*
X1106Y584D01*
X1240Y584D01*
X1240Y586D01*
X1242Y586D01*
X1242Y588D01*
X1244Y588D01*
X1244Y590D01*
X1246Y590D01*
X1246Y592D01*
X1248Y592D01*
X1248Y594D01*
X1250Y594D01*
X1250Y596D01*
X1252Y596D01*
X1252Y598D01*
X1254Y598D01*
X1254Y600D01*
X1256Y600D01*
X1256Y602D01*
X1258Y602D01*
X1258Y604D01*
X1260Y604D01*
X1260Y606D01*
X1262Y606D01*
X1262Y608D01*
X1264Y608D01*
X1264Y610D01*
X1266Y610D01*
X1266Y612D01*
X1268Y612D01*
X1268Y614D01*
X1270Y614D01*
X1270Y616D01*
X1272Y616D01*
X1272Y618D01*
X1274Y618D01*
X1274Y620D01*
X1276Y620D01*
X1276Y622D01*
X1278Y622D01*
X1278Y624D01*
X1280Y624D01*
X1280Y626D01*
X1282Y626D01*
X1282Y628D01*
X1284Y628D01*
X1284Y630D01*
X1286Y630D01*
X1286Y632D01*
X1288Y632D01*
X1288Y634D01*
X1290Y634D01*
X1290Y636D01*
X1292Y636D01*
X1292Y638D01*
X1294Y638D01*
X1294Y640D01*
X1296Y640D01*
X1296Y642D01*
X1298Y642D01*
X1298Y644D01*
X1300Y644D01*
X1300Y646D01*
X1302Y646D01*
X1302Y648D01*
X1304Y648D01*
X1304Y650D01*
X1306Y650D01*
X1306Y652D01*
X1308Y652D01*
X1308Y654D01*
X1310Y654D01*
X1310Y656D01*
X1312Y656D01*
X1312Y658D01*
X1314Y658D01*
X1314Y660D01*
X1316Y660D01*
X1316Y662D01*
X1318Y662D01*
X1318Y664D01*
X1320Y664D01*
X1320Y666D01*
X1322Y666D01*
X1322Y668D01*
X1324Y668D01*
X1324Y670D01*
X1326Y670D01*
X1326Y672D01*
X1328Y672D01*
X1328Y674D01*
X1330Y674D01*
X1330Y676D01*
X1332Y676D01*
X1332Y678D01*
X1334Y678D01*
X1334Y680D01*
X1336Y680D01*
X1336Y682D01*
X1338Y682D01*
X1338Y684D01*
X1340Y684D01*
X1340Y686D01*
X1342Y686D01*
X1342Y688D01*
X1344Y688D01*
X1344Y690D01*
X1346Y690D01*
X1346Y692D01*
X1348Y692D01*
X1348Y694D01*
X1350Y694D01*
X1350Y696D01*
X1352Y696D01*
X1352Y698D01*
X1354Y698D01*
X1354Y700D01*
X1356Y700D01*
X1356Y702D01*
X1358Y702D01*
X1358Y704D01*
X1360Y704D01*
X1360Y706D01*
X1362Y706D01*
X1362Y708D01*
X1364Y708D01*
X1364Y710D01*
X1366Y710D01*
X1366Y712D01*
X1368Y712D01*
X1368Y714D01*
X1370Y714D01*
X1370Y716D01*
X1372Y716D01*
X1372Y718D01*
X1374Y718D01*
X1374Y720D01*
X1376Y720D01*
X1376Y722D01*
X1378Y722D01*
X1378Y724D01*
X1380Y724D01*
X1380Y726D01*
X1382Y726D01*
X1382Y728D01*
X1384Y728D01*
X1384Y730D01*
X1386Y730D01*
X1386Y732D01*
X1388Y732D01*
X1388Y734D01*
X1390Y734D01*
X1390Y736D01*
X1392Y736D01*
X1392Y738D01*
X1394Y738D01*
X1394Y740D01*
X1396Y740D01*
X1396Y742D01*
X1398Y742D01*
X1398Y744D01*
X1400Y744D01*
X1400Y746D01*
X1402Y746D01*
X1402Y748D01*
X1404Y748D01*
X1404Y750D01*
X1406Y750D01*
X1406Y752D01*
X1408Y752D01*
X1408Y754D01*
X1410Y754D01*
X1410Y756D01*
X1412Y756D01*
X1412Y758D01*
X1414Y758D01*
X1414Y760D01*
X1416Y760D01*
X1416Y762D01*
X1418Y762D01*
X1418Y764D01*
X1420Y764D01*
X1420Y766D01*
X1422Y766D01*
X1422Y768D01*
X1424Y768D01*
X1424Y770D01*
X1426Y770D01*
X1426Y772D01*
X1428Y772D01*
X1428Y774D01*
X1430Y774D01*
X1430Y776D01*
X1432Y776D01*
X1432Y778D01*
X1434Y778D01*
X1434Y780D01*
X1436Y780D01*
X1436Y782D01*
X1438Y782D01*
X1438Y784D01*
X1440Y784D01*
X1440Y786D01*
X1442Y786D01*
X1442Y788D01*
X1444Y788D01*
X1444Y790D01*
X1446Y790D01*
X1446Y792D01*
X1448Y792D01*
X1448Y794D01*
X1450Y794D01*
X1450Y796D01*
X1452Y796D01*
X1452Y798D01*
X1454Y798D01*
X1454Y800D01*
X1456Y800D01*
X1456Y802D01*
X1458Y802D01*
X1458Y804D01*
X1460Y804D01*
X1460Y806D01*
X1462Y806D01*
X1462Y808D01*
X1464Y808D01*
X1464Y810D01*
X1466Y810D01*
X1466Y812D01*
X1468Y812D01*
X1468Y814D01*
X1470Y814D01*
X1470Y816D01*
X1472Y816D01*
X1472Y818D01*
X1474Y818D01*
X1474Y820D01*
X1476Y820D01*
X1476Y822D01*
X1478Y822D01*
X1478Y824D01*
X1480Y824D01*
X1480Y826D01*
X1482Y826D01*
X1482Y828D01*
X1484Y828D01*
X1484Y830D01*
X1486Y830D01*
X1486Y832D01*
X1488Y832D01*
X1488Y834D01*
X1490Y834D01*
X1490Y836D01*
X1492Y836D01*
X1492Y838D01*
X1494Y838D01*
X1494Y840D01*
X1496Y840D01*
X1496Y842D01*
X1498Y842D01*
X1498Y844D01*
X1500Y844D01*
X1500Y846D01*
X1502Y846D01*
X1502Y848D01*
X1504Y848D01*
X1504Y850D01*
X1506Y850D01*
X1506Y852D01*
X1508Y852D01*
X1508Y854D01*
X1510Y854D01*
X1510Y856D01*
X1512Y856D01*
X1512Y858D01*
X1514Y858D01*
X1514Y860D01*
X1516Y860D01*
X1516Y926D01*
X1480Y926D01*
G37*
D02*
G36*
X998Y780D02*
X998Y746D01*
X1048Y746D01*
X1048Y780D01*
X998Y780D01*
G37*
D02*
G36*
X1574Y760D02*
X1574Y758D01*
X1572Y758D01*
X1572Y756D01*
X1570Y756D01*
X1570Y754D01*
X1568Y754D01*
X1568Y752D01*
X1566Y752D01*
X1566Y750D01*
X1564Y750D01*
X1564Y748D01*
X1562Y748D01*
X1562Y746D01*
X1560Y746D01*
X1560Y744D01*
X1558Y744D01*
X1558Y742D01*
X1556Y742D01*
X1556Y740D01*
X1554Y740D01*
X1554Y736D01*
X1552Y736D01*
X1552Y734D01*
X1550Y734D01*
X1550Y732D01*
X1548Y732D01*
X1548Y730D01*
X1546Y730D01*
X1546Y728D01*
X1544Y728D01*
X1544Y726D01*
X1542Y726D01*
X1542Y724D01*
X1540Y724D01*
X1540Y722D01*
X1538Y722D01*
X1538Y720D01*
X1536Y720D01*
X1536Y718D01*
X1534Y718D01*
X1534Y716D01*
X1532Y716D01*
X1532Y714D01*
X1530Y714D01*
X1530Y712D01*
X1528Y712D01*
X1528Y710D01*
X1526Y710D01*
X1526Y708D01*
X1524Y708D01*
X1524Y706D01*
X1522Y706D01*
X1522Y704D01*
X1520Y704D01*
X1520Y702D01*
X1518Y702D01*
X1518Y700D01*
X1516Y700D01*
X1516Y698D01*
X1514Y698D01*
X1514Y696D01*
X1512Y696D01*
X1512Y694D01*
X1510Y694D01*
X1510Y692D01*
X1508Y692D01*
X1508Y690D01*
X1506Y690D01*
X1506Y688D01*
X1504Y688D01*
X1504Y684D01*
X1502Y684D01*
X1502Y682D01*
X1500Y682D01*
X1500Y680D01*
X1498Y680D01*
X1498Y678D01*
X1496Y678D01*
X1496Y676D01*
X1494Y676D01*
X1494Y674D01*
X1492Y674D01*
X1492Y672D01*
X1490Y672D01*
X1490Y670D01*
X1488Y670D01*
X1488Y668D01*
X1486Y668D01*
X1486Y666D01*
X1484Y666D01*
X1484Y664D01*
X1482Y664D01*
X1482Y662D01*
X1480Y662D01*
X1480Y660D01*
X1478Y660D01*
X1478Y658D01*
X1476Y658D01*
X1476Y656D01*
X1474Y656D01*
X1474Y654D01*
X1472Y654D01*
X1472Y652D01*
X1470Y652D01*
X1470Y650D01*
X1468Y650D01*
X1468Y648D01*
X1466Y648D01*
X1466Y646D01*
X1464Y646D01*
X1464Y644D01*
X1462Y644D01*
X1462Y642D01*
X1460Y642D01*
X1460Y640D01*
X1458Y640D01*
X1458Y638D01*
X1456Y638D01*
X1456Y636D01*
X1454Y636D01*
X1454Y632D01*
X1452Y632D01*
X1452Y630D01*
X1450Y630D01*
X1450Y628D01*
X1448Y628D01*
X1448Y626D01*
X1446Y626D01*
X1446Y624D01*
X1444Y624D01*
X1444Y622D01*
X1442Y622D01*
X1442Y620D01*
X1440Y620D01*
X1440Y618D01*
X1438Y618D01*
X1438Y616D01*
X1436Y616D01*
X1436Y614D01*
X1434Y614D01*
X1434Y612D01*
X1432Y612D01*
X1432Y610D01*
X1430Y610D01*
X1430Y608D01*
X1428Y608D01*
X1428Y606D01*
X1426Y606D01*
X1426Y604D01*
X1424Y604D01*
X1424Y602D01*
X1422Y602D01*
X1422Y600D01*
X1420Y600D01*
X1420Y598D01*
X1418Y598D01*
X1418Y596D01*
X1416Y596D01*
X1416Y594D01*
X1414Y594D01*
X1414Y592D01*
X1412Y592D01*
X1412Y590D01*
X1410Y590D01*
X1410Y588D01*
X1408Y588D01*
X1408Y586D01*
X1406Y586D01*
X1406Y584D01*
X1404Y584D01*
X1404Y580D01*
X1402Y580D01*
X1402Y578D01*
X1400Y578D01*
X1400Y576D01*
X1398Y576D01*
X1398Y574D01*
X1396Y574D01*
X1396Y572D01*
X1394Y572D01*
X1394Y570D01*
X1392Y570D01*
X1392Y568D01*
X1390Y568D01*
X1390Y566D01*
X1388Y566D01*
X1388Y564D01*
X1386Y564D01*
X1386Y562D01*
X1384Y562D01*
X1384Y560D01*
X1382Y560D01*
X1382Y558D01*
X1380Y558D01*
X1380Y556D01*
X1378Y556D01*
X1378Y554D01*
X1376Y554D01*
X1376Y552D01*
X1374Y552D01*
X1374Y550D01*
X1372Y550D01*
X1372Y548D01*
X1370Y548D01*
X1370Y546D01*
X1368Y546D01*
X1368Y544D01*
X1366Y544D01*
X1366Y542D01*
X1364Y542D01*
X1364Y540D01*
X1362Y540D01*
X1362Y538D01*
X1360Y538D01*
X1360Y536D01*
X1358Y536D01*
X1358Y534D01*
X1356Y534D01*
X1356Y532D01*
X1354Y532D01*
X1354Y528D01*
X1352Y528D01*
X1352Y526D01*
X1350Y526D01*
X1350Y524D01*
X1348Y524D01*
X1348Y522D01*
X1346Y522D01*
X1346Y520D01*
X1344Y520D01*
X1344Y518D01*
X1342Y518D01*
X1342Y516D01*
X1340Y516D01*
X1340Y514D01*
X1338Y514D01*
X1338Y512D01*
X1336Y512D01*
X1336Y510D01*
X1334Y510D01*
X1334Y508D01*
X1332Y508D01*
X1332Y506D01*
X1330Y506D01*
X1330Y504D01*
X1328Y504D01*
X1328Y502D01*
X1326Y502D01*
X1326Y500D01*
X1324Y500D01*
X1324Y498D01*
X1322Y498D01*
X1322Y496D01*
X1320Y496D01*
X1320Y494D01*
X1318Y494D01*
X1318Y492D01*
X1316Y492D01*
X1316Y490D01*
X1314Y490D01*
X1314Y488D01*
X1312Y488D01*
X1312Y486D01*
X1310Y486D01*
X1310Y484D01*
X1308Y484D01*
X1308Y482D01*
X1306Y482D01*
X1306Y480D01*
X1304Y480D01*
X1304Y476D01*
X1302Y476D01*
X1302Y474D01*
X1300Y474D01*
X1300Y472D01*
X1298Y472D01*
X1298Y470D01*
X1294Y470D01*
X1294Y468D01*
X1292Y468D01*
X1292Y466D01*
X1288Y466D01*
X1288Y464D01*
X998Y464D01*
X998Y432D01*
X1068Y432D01*
X1068Y430D01*
X1072Y430D01*
X1072Y428D01*
X1076Y428D01*
X1076Y426D01*
X1078Y426D01*
X1078Y424D01*
X1080Y424D01*
X1080Y422D01*
X1082Y422D01*
X1082Y420D01*
X1084Y420D01*
X1084Y418D01*
X1086Y418D01*
X1086Y416D01*
X1088Y416D01*
X1088Y414D01*
X1090Y414D01*
X1090Y412D01*
X1092Y412D01*
X1092Y410D01*
X1094Y410D01*
X1094Y408D01*
X1096Y408D01*
X1096Y406D01*
X1098Y406D01*
X1098Y404D01*
X1100Y404D01*
X1100Y402D01*
X1102Y402D01*
X1102Y400D01*
X1104Y400D01*
X1104Y398D01*
X1106Y398D01*
X1106Y396D01*
X1108Y396D01*
X1108Y394D01*
X1110Y394D01*
X1110Y392D01*
X1112Y392D01*
X1112Y390D01*
X1114Y390D01*
X1114Y388D01*
X1116Y388D01*
X1116Y386D01*
X1118Y386D01*
X1118Y384D01*
X1120Y384D01*
X1120Y382D01*
X1122Y382D01*
X1122Y380D01*
X1124Y380D01*
X1124Y378D01*
X1126Y378D01*
X1126Y376D01*
X1128Y376D01*
X1128Y374D01*
X1130Y374D01*
X1130Y372D01*
X1132Y372D01*
X1132Y370D01*
X1134Y370D01*
X1134Y368D01*
X1136Y368D01*
X1136Y366D01*
X1138Y366D01*
X1138Y364D01*
X1140Y364D01*
X1140Y362D01*
X1142Y362D01*
X1142Y360D01*
X1144Y360D01*
X1144Y358D01*
X1146Y358D01*
X1146Y356D01*
X1148Y356D01*
X1148Y354D01*
X1150Y354D01*
X1150Y352D01*
X1152Y352D01*
X1152Y350D01*
X1154Y350D01*
X1154Y348D01*
X1156Y348D01*
X1156Y346D01*
X1158Y346D01*
X1158Y344D01*
X1160Y344D01*
X1160Y342D01*
X1162Y342D01*
X1162Y340D01*
X1164Y340D01*
X1164Y338D01*
X1166Y338D01*
X1166Y336D01*
X1168Y336D01*
X1168Y334D01*
X1170Y334D01*
X1170Y332D01*
X1172Y332D01*
X1172Y330D01*
X1174Y330D01*
X1174Y328D01*
X1176Y328D01*
X1176Y326D01*
X1178Y326D01*
X1178Y324D01*
X1180Y324D01*
X1180Y322D01*
X1182Y322D01*
X1182Y320D01*
X1184Y320D01*
X1184Y318D01*
X1186Y318D01*
X1186Y316D01*
X1188Y316D01*
X1188Y314D01*
X1190Y314D01*
X1190Y312D01*
X1192Y312D01*
X1192Y310D01*
X1194Y310D01*
X1194Y308D01*
X1196Y308D01*
X1196Y306D01*
X1198Y306D01*
X1198Y304D01*
X1200Y304D01*
X1200Y302D01*
X1202Y302D01*
X1202Y300D01*
X1204Y300D01*
X1204Y298D01*
X1206Y298D01*
X1206Y296D01*
X1208Y296D01*
X1208Y294D01*
X1210Y294D01*
X1210Y292D01*
X1212Y292D01*
X1212Y290D01*
X1214Y290D01*
X1214Y288D01*
X1216Y288D01*
X1216Y286D01*
X1218Y286D01*
X1218Y284D01*
X1220Y284D01*
X1220Y282D01*
X1222Y282D01*
X1222Y280D01*
X1224Y280D01*
X1224Y278D01*
X1226Y278D01*
X1226Y276D01*
X1228Y276D01*
X1228Y274D01*
X1230Y274D01*
X1230Y272D01*
X1232Y272D01*
X1232Y270D01*
X1234Y270D01*
X1234Y268D01*
X1236Y268D01*
X1236Y266D01*
X1238Y266D01*
X1238Y264D01*
X1240Y264D01*
X1240Y262D01*
X1242Y262D01*
X1242Y260D01*
X1244Y260D01*
X1244Y258D01*
X1246Y258D01*
X1246Y256D01*
X1248Y256D01*
X1248Y254D01*
X1250Y254D01*
X1250Y252D01*
X1252Y252D01*
X1252Y250D01*
X1254Y250D01*
X1254Y248D01*
X1256Y248D01*
X1256Y246D01*
X1258Y246D01*
X1258Y244D01*
X1260Y244D01*
X1260Y242D01*
X1262Y242D01*
X1262Y240D01*
X1264Y240D01*
X1264Y238D01*
X1266Y238D01*
X1266Y236D01*
X1268Y236D01*
X1268Y234D01*
X1270Y234D01*
X1270Y232D01*
X1272Y232D01*
X1272Y230D01*
X1274Y230D01*
X1274Y228D01*
X1276Y228D01*
X1276Y226D01*
X1278Y226D01*
X1278Y224D01*
X1280Y224D01*
X1280Y222D01*
X1282Y222D01*
X1282Y220D01*
X1284Y220D01*
X1284Y218D01*
X1286Y218D01*
X1286Y216D01*
X1288Y216D01*
X1288Y214D01*
X1290Y214D01*
X1290Y212D01*
X1292Y212D01*
X1292Y210D01*
X1294Y210D01*
X1294Y208D01*
X1296Y208D01*
X1296Y206D01*
X1298Y206D01*
X1298Y204D01*
X1300Y204D01*
X1300Y202D01*
X1302Y202D01*
X1302Y200D01*
X1304Y200D01*
X1304Y198D01*
X1306Y198D01*
X1306Y196D01*
X1308Y196D01*
X1308Y194D01*
X1310Y194D01*
X1310Y192D01*
X1312Y192D01*
X1312Y190D01*
X1314Y190D01*
X1314Y188D01*
X1316Y188D01*
X1316Y186D01*
X1318Y186D01*
X1318Y184D01*
X1320Y184D01*
X1320Y182D01*
X1322Y182D01*
X1322Y180D01*
X1324Y180D01*
X1324Y178D01*
X1326Y178D01*
X1326Y176D01*
X1328Y176D01*
X1328Y174D01*
X1330Y174D01*
X1330Y172D01*
X1332Y172D01*
X1332Y170D01*
X1334Y170D01*
X1334Y168D01*
X1336Y168D01*
X1336Y166D01*
X1338Y166D01*
X1338Y164D01*
X1340Y164D01*
X1340Y162D01*
X1342Y162D01*
X1342Y160D01*
X1344Y160D01*
X1344Y158D01*
X1346Y158D01*
X1346Y156D01*
X1348Y156D01*
X1348Y154D01*
X1350Y154D01*
X1350Y152D01*
X1352Y152D01*
X1352Y150D01*
X1354Y150D01*
X1354Y148D01*
X1356Y148D01*
X1356Y146D01*
X1358Y146D01*
X1358Y144D01*
X1360Y144D01*
X1360Y142D01*
X1362Y142D01*
X1362Y140D01*
X1364Y140D01*
X1364Y138D01*
X1366Y138D01*
X1366Y136D01*
X1552Y136D01*
X1552Y134D01*
X1562Y134D01*
X1562Y132D01*
X1568Y132D01*
X1568Y130D01*
X1570Y130D01*
X1570Y128D01*
X1574Y128D01*
X1574Y126D01*
X1594Y126D01*
X1594Y760D01*
X1574Y760D01*
G37*
D02*
G36*
X998Y432D02*
X998Y430D01*
X1038Y430D01*
X1038Y432D01*
X998Y432D01*
G37*
D02*
G36*
X1368Y136D02*
X1368Y134D01*
X1396Y134D01*
X1396Y132D01*
X1402Y132D01*
X1402Y130D01*
X1406Y130D01*
X1406Y128D01*
X1410Y128D01*
X1410Y126D01*
X1414Y126D01*
X1414Y124D01*
X1416Y124D01*
X1416Y122D01*
X1418Y122D01*
X1418Y120D01*
X1420Y120D01*
X1420Y118D01*
X1422Y118D01*
X1422Y116D01*
X1424Y116D01*
X1424Y114D01*
X1426Y114D01*
X1426Y112D01*
X1428Y112D01*
X1428Y108D01*
X1430Y108D01*
X1430Y104D01*
X1432Y104D01*
X1432Y100D01*
X1434Y100D01*
X1434Y92D01*
X1436Y92D01*
X1436Y78D01*
X1434Y78D01*
X1434Y72D01*
X1432Y72D01*
X1432Y66D01*
X1430Y66D01*
X1430Y64D01*
X1428Y64D01*
X1428Y60D01*
X1426Y60D01*
X1426Y40D01*
X1500Y40D01*
X1500Y60D01*
X1498Y60D01*
X1498Y64D01*
X1496Y64D01*
X1496Y72D01*
X1494Y72D01*
X1494Y94D01*
X1496Y94D01*
X1496Y100D01*
X1498Y100D01*
X1498Y104D01*
X1500Y104D01*
X1500Y108D01*
X1502Y108D01*
X1502Y110D01*
X1504Y110D01*
X1504Y114D01*
X1506Y114D01*
X1506Y116D01*
X1508Y116D01*
X1508Y118D01*
X1510Y118D01*
X1510Y120D01*
X1512Y120D01*
X1512Y122D01*
X1514Y122D01*
X1514Y124D01*
X1516Y124D01*
X1516Y126D01*
X1520Y126D01*
X1520Y128D01*
X1524Y128D01*
X1524Y130D01*
X1526Y130D01*
X1526Y132D01*
X1532Y132D01*
X1532Y134D01*
X1542Y134D01*
X1542Y136D01*
X1368Y136D01*
G37*
D02*
G36*
X40Y1810D02*
X40Y1740D01*
X416Y1740D01*
X416Y1738D01*
X422Y1738D01*
X422Y1736D01*
X428Y1736D01*
X428Y1734D01*
X432Y1734D01*
X432Y1732D01*
X436Y1732D01*
X436Y1730D01*
X440Y1730D01*
X440Y1728D01*
X444Y1728D01*
X444Y1726D01*
X446Y1726D01*
X446Y1724D01*
X448Y1724D01*
X448Y1722D01*
X450Y1722D01*
X450Y1720D01*
X454Y1720D01*
X454Y1718D01*
X456Y1718D01*
X456Y1716D01*
X458Y1716D01*
X458Y1714D01*
X460Y1714D01*
X460Y1710D01*
X546Y1710D01*
X546Y1712D01*
X538Y1712D01*
X538Y1714D01*
X534Y1714D01*
X534Y1716D01*
X530Y1716D01*
X530Y1718D01*
X526Y1718D01*
X526Y1720D01*
X524Y1720D01*
X524Y1722D01*
X522Y1722D01*
X522Y1724D01*
X520Y1724D01*
X520Y1726D01*
X518Y1726D01*
X518Y1728D01*
X516Y1728D01*
X516Y1730D01*
X514Y1730D01*
X514Y1732D01*
X512Y1732D01*
X512Y1734D01*
X510Y1734D01*
X510Y1738D01*
X508Y1738D01*
X508Y1742D01*
X506Y1742D01*
X506Y1746D01*
X504Y1746D01*
X504Y1752D01*
X502Y1752D01*
X502Y1776D01*
X504Y1776D01*
X504Y1782D01*
X506Y1782D01*
X506Y1786D01*
X508Y1786D01*
X508Y1790D01*
X510Y1790D01*
X510Y1810D01*
X40Y1810D01*
G37*
D02*
G36*
X600Y1810D02*
X600Y1788D01*
X602Y1788D01*
X602Y1786D01*
X604Y1786D01*
X604Y1780D01*
X606Y1780D01*
X606Y1774D01*
X608Y1774D01*
X608Y1754D01*
X606Y1754D01*
X606Y1746D01*
X604Y1746D01*
X604Y1742D01*
X602Y1742D01*
X602Y1738D01*
X600Y1738D01*
X600Y1734D01*
X598Y1734D01*
X598Y1732D01*
X596Y1732D01*
X596Y1730D01*
X594Y1730D01*
X594Y1728D01*
X592Y1728D01*
X592Y1726D01*
X590Y1726D01*
X590Y1724D01*
X588Y1724D01*
X588Y1722D01*
X586Y1722D01*
X586Y1720D01*
X582Y1720D01*
X582Y1718D01*
X580Y1718D01*
X580Y1716D01*
X576Y1716D01*
X576Y1714D01*
X570Y1714D01*
X570Y1712D01*
X562Y1712D01*
X562Y1710D01*
X638Y1710D01*
X638Y1712D01*
X640Y1712D01*
X640Y1714D01*
X642Y1714D01*
X642Y1716D01*
X644Y1716D01*
X644Y1718D01*
X646Y1718D01*
X646Y1720D01*
X648Y1720D01*
X648Y1722D01*
X650Y1722D01*
X650Y1724D01*
X652Y1724D01*
X652Y1726D01*
X654Y1726D01*
X654Y1728D01*
X656Y1728D01*
X656Y1730D01*
X658Y1730D01*
X658Y1810D01*
X600Y1810D01*
G37*
D02*
G36*
X758Y1810D02*
X758Y1702D01*
X836Y1702D01*
X836Y1704D01*
X830Y1704D01*
X830Y1706D01*
X826Y1706D01*
X826Y1708D01*
X824Y1708D01*
X824Y1710D01*
X820Y1710D01*
X820Y1712D01*
X818Y1712D01*
X818Y1714D01*
X814Y1714D01*
X814Y1716D01*
X812Y1716D01*
X812Y1718D01*
X810Y1718D01*
X810Y1722D01*
X808Y1722D01*
X808Y1724D01*
X806Y1724D01*
X806Y1726D01*
X804Y1726D01*
X804Y1730D01*
X802Y1730D01*
X802Y1734D01*
X800Y1734D01*
X800Y1738D01*
X798Y1738D01*
X798Y1746D01*
X796Y1746D01*
X796Y1756D01*
X798Y1756D01*
X798Y1764D01*
X800Y1764D01*
X800Y1770D01*
X802Y1770D01*
X802Y1774D01*
X804Y1774D01*
X804Y1776D01*
X806Y1776D01*
X806Y1780D01*
X808Y1780D01*
X808Y1782D01*
X810Y1782D01*
X810Y1784D01*
X812Y1784D01*
X812Y1786D01*
X814Y1786D01*
X814Y1788D01*
X816Y1788D01*
X816Y1790D01*
X818Y1790D01*
X818Y1810D01*
X758Y1810D01*
G37*
D02*
G36*
X874Y1810D02*
X874Y1790D01*
X878Y1790D01*
X878Y1788D01*
X880Y1788D01*
X880Y1786D01*
X882Y1786D01*
X882Y1784D01*
X884Y1784D01*
X884Y1782D01*
X886Y1782D01*
X886Y1778D01*
X888Y1778D01*
X888Y1776D01*
X890Y1776D01*
X890Y1772D01*
X892Y1772D01*
X892Y1768D01*
X894Y1768D01*
X894Y1762D01*
X896Y1762D01*
X896Y1740D01*
X894Y1740D01*
X894Y1734D01*
X892Y1734D01*
X892Y1732D01*
X890Y1732D01*
X890Y1728D01*
X888Y1728D01*
X888Y1724D01*
X886Y1724D01*
X886Y1722D01*
X884Y1722D01*
X884Y1720D01*
X882Y1720D01*
X882Y1718D01*
X880Y1718D01*
X880Y1716D01*
X878Y1716D01*
X878Y1714D01*
X876Y1714D01*
X876Y1712D01*
X874Y1712D01*
X874Y1710D01*
X870Y1710D01*
X870Y1708D01*
X866Y1708D01*
X866Y1706D01*
X862Y1706D01*
X862Y1704D01*
X856Y1704D01*
X856Y1702D01*
X944Y1702D01*
X944Y1810D01*
X874Y1810D01*
G37*
D02*
G36*
X1044Y1810D02*
X1044Y1704D01*
X1042Y1704D01*
X1042Y1702D01*
X1126Y1702D01*
X1126Y1704D01*
X1118Y1704D01*
X1118Y1706D01*
X1112Y1706D01*
X1112Y1708D01*
X1108Y1708D01*
X1108Y1710D01*
X1106Y1710D01*
X1106Y1712D01*
X1102Y1712D01*
X1102Y1714D01*
X1100Y1714D01*
X1100Y1716D01*
X1098Y1716D01*
X1098Y1718D01*
X1096Y1718D01*
X1096Y1720D01*
X1094Y1720D01*
X1094Y1722D01*
X1092Y1722D01*
X1092Y1724D01*
X1090Y1724D01*
X1090Y1728D01*
X1088Y1728D01*
X1088Y1732D01*
X1086Y1732D01*
X1086Y1736D01*
X1084Y1736D01*
X1084Y1740D01*
X1082Y1740D01*
X1082Y1764D01*
X1084Y1764D01*
X1084Y1770D01*
X1086Y1770D01*
X1086Y1774D01*
X1088Y1774D01*
X1088Y1776D01*
X1090Y1776D01*
X1090Y1780D01*
X1092Y1780D01*
X1092Y1782D01*
X1094Y1782D01*
X1094Y1784D01*
X1096Y1784D01*
X1096Y1786D01*
X1098Y1786D01*
X1098Y1788D01*
X1100Y1788D01*
X1100Y1790D01*
X1102Y1790D01*
X1102Y1810D01*
X1044Y1810D01*
G37*
D02*
G36*
X1160Y1810D02*
X1160Y1790D01*
X1162Y1790D01*
X1162Y1788D01*
X1166Y1788D01*
X1166Y1784D01*
X1168Y1784D01*
X1168Y1782D01*
X1170Y1782D01*
X1170Y1780D01*
X1172Y1780D01*
X1172Y1778D01*
X1174Y1778D01*
X1174Y1774D01*
X1176Y1774D01*
X1176Y1770D01*
X1178Y1770D01*
X1178Y1764D01*
X1180Y1764D01*
X1180Y1754D01*
X1182Y1754D01*
X1182Y1752D01*
X1180Y1752D01*
X1180Y1740D01*
X1178Y1740D01*
X1178Y1734D01*
X1176Y1734D01*
X1176Y1732D01*
X1174Y1732D01*
X1174Y1728D01*
X1172Y1728D01*
X1172Y1724D01*
X1170Y1724D01*
X1170Y1722D01*
X1168Y1722D01*
X1168Y1720D01*
X1166Y1720D01*
X1166Y1718D01*
X1164Y1718D01*
X1164Y1716D01*
X1162Y1716D01*
X1162Y1714D01*
X1160Y1714D01*
X1160Y1712D01*
X1156Y1712D01*
X1156Y1710D01*
X1154Y1710D01*
X1154Y1708D01*
X1150Y1708D01*
X1150Y1706D01*
X1146Y1706D01*
X1146Y1704D01*
X1138Y1704D01*
X1138Y1702D01*
X1326Y1702D01*
X1326Y1704D01*
X1324Y1704D01*
X1324Y1708D01*
X1322Y1708D01*
X1322Y1710D01*
X1320Y1710D01*
X1320Y1712D01*
X1318Y1712D01*
X1318Y1714D01*
X1316Y1714D01*
X1316Y1716D01*
X1292Y1716D01*
X1292Y1718D01*
X1286Y1718D01*
X1286Y1720D01*
X1280Y1720D01*
X1280Y1722D01*
X1276Y1722D01*
X1276Y1724D01*
X1274Y1724D01*
X1274Y1726D01*
X1270Y1726D01*
X1270Y1728D01*
X1268Y1728D01*
X1268Y1730D01*
X1266Y1730D01*
X1266Y1732D01*
X1264Y1732D01*
X1264Y1734D01*
X1262Y1734D01*
X1262Y1736D01*
X1260Y1736D01*
X1260Y1740D01*
X1258Y1740D01*
X1258Y1742D01*
X1256Y1742D01*
X1256Y1746D01*
X1254Y1746D01*
X1254Y1752D01*
X1252Y1752D01*
X1252Y1758D01*
X1250Y1758D01*
X1250Y1774D01*
X1252Y1774D01*
X1252Y1780D01*
X1254Y1780D01*
X1254Y1784D01*
X1256Y1784D01*
X1256Y1788D01*
X1258Y1788D01*
X1258Y1810D01*
X1160Y1810D01*
G37*
D02*
G36*
X40Y1740D02*
X40Y1580D01*
X154Y1580D01*
X154Y1582D01*
X144Y1582D01*
X144Y1584D01*
X136Y1584D01*
X136Y1586D01*
X132Y1586D01*
X132Y1588D01*
X128Y1588D01*
X128Y1590D01*
X124Y1590D01*
X124Y1592D01*
X120Y1592D01*
X120Y1594D01*
X118Y1594D01*
X118Y1596D01*
X114Y1596D01*
X114Y1598D01*
X112Y1598D01*
X112Y1600D01*
X110Y1600D01*
X110Y1602D01*
X108Y1602D01*
X108Y1604D01*
X106Y1604D01*
X106Y1606D01*
X104Y1606D01*
X104Y1608D01*
X102Y1608D01*
X102Y1610D01*
X100Y1610D01*
X100Y1612D01*
X98Y1612D01*
X98Y1614D01*
X96Y1614D01*
X96Y1618D01*
X94Y1618D01*
X94Y1620D01*
X92Y1620D01*
X92Y1624D01*
X90Y1624D01*
X90Y1628D01*
X88Y1628D01*
X88Y1632D01*
X86Y1632D01*
X86Y1636D01*
X84Y1636D01*
X84Y1644D01*
X82Y1644D01*
X82Y1656D01*
X80Y1656D01*
X80Y1664D01*
X82Y1664D01*
X82Y1678D01*
X84Y1678D01*
X84Y1684D01*
X86Y1684D01*
X86Y1690D01*
X88Y1690D01*
X88Y1694D01*
X90Y1694D01*
X90Y1698D01*
X92Y1698D01*
X92Y1700D01*
X94Y1700D01*
X94Y1704D01*
X96Y1704D01*
X96Y1706D01*
X98Y1706D01*
X98Y1710D01*
X100Y1710D01*
X100Y1712D01*
X102Y1712D01*
X102Y1714D01*
X104Y1714D01*
X104Y1716D01*
X106Y1716D01*
X106Y1718D01*
X108Y1718D01*
X108Y1720D01*
X110Y1720D01*
X110Y1722D01*
X114Y1722D01*
X114Y1724D01*
X116Y1724D01*
X116Y1726D01*
X118Y1726D01*
X118Y1728D01*
X122Y1728D01*
X122Y1730D01*
X126Y1730D01*
X126Y1732D01*
X130Y1732D01*
X130Y1734D01*
X134Y1734D01*
X134Y1736D01*
X138Y1736D01*
X138Y1738D01*
X146Y1738D01*
X146Y1740D01*
X40Y1740D01*
G37*
D02*
G36*
X176Y1740D02*
X176Y1738D01*
X182Y1738D01*
X182Y1736D01*
X188Y1736D01*
X188Y1734D01*
X192Y1734D01*
X192Y1732D01*
X196Y1732D01*
X196Y1730D01*
X200Y1730D01*
X200Y1728D01*
X204Y1728D01*
X204Y1726D01*
X206Y1726D01*
X206Y1724D01*
X208Y1724D01*
X208Y1722D01*
X210Y1722D01*
X210Y1720D01*
X214Y1720D01*
X214Y1718D01*
X216Y1718D01*
X216Y1716D01*
X218Y1716D01*
X218Y1714D01*
X220Y1714D01*
X220Y1710D01*
X222Y1710D01*
X222Y1708D01*
X224Y1708D01*
X224Y1706D01*
X226Y1706D01*
X226Y1704D01*
X228Y1704D01*
X228Y1700D01*
X230Y1700D01*
X230Y1696D01*
X232Y1696D01*
X232Y1692D01*
X234Y1692D01*
X234Y1688D01*
X236Y1688D01*
X236Y1684D01*
X238Y1684D01*
X238Y1676D01*
X240Y1676D01*
X240Y1646D01*
X238Y1646D01*
X238Y1638D01*
X236Y1638D01*
X236Y1632D01*
X234Y1632D01*
X234Y1628D01*
X232Y1628D01*
X232Y1624D01*
X230Y1624D01*
X230Y1622D01*
X228Y1622D01*
X228Y1618D01*
X226Y1618D01*
X226Y1616D01*
X224Y1616D01*
X224Y1612D01*
X222Y1612D01*
X222Y1610D01*
X220Y1610D01*
X220Y1608D01*
X218Y1608D01*
X218Y1606D01*
X216Y1606D01*
X216Y1604D01*
X214Y1604D01*
X214Y1602D01*
X212Y1602D01*
X212Y1600D01*
X210Y1600D01*
X210Y1598D01*
X206Y1598D01*
X206Y1596D01*
X204Y1596D01*
X204Y1594D01*
X202Y1594D01*
X202Y1592D01*
X198Y1592D01*
X198Y1590D01*
X194Y1590D01*
X194Y1588D01*
X190Y1588D01*
X190Y1586D01*
X186Y1586D01*
X186Y1584D01*
X178Y1584D01*
X178Y1582D01*
X168Y1582D01*
X168Y1580D01*
X394Y1580D01*
X394Y1582D01*
X384Y1582D01*
X384Y1584D01*
X376Y1584D01*
X376Y1586D01*
X372Y1586D01*
X372Y1588D01*
X368Y1588D01*
X368Y1590D01*
X364Y1590D01*
X364Y1592D01*
X360Y1592D01*
X360Y1594D01*
X358Y1594D01*
X358Y1596D01*
X354Y1596D01*
X354Y1598D01*
X352Y1598D01*
X352Y1600D01*
X350Y1600D01*
X350Y1602D01*
X348Y1602D01*
X348Y1604D01*
X346Y1604D01*
X346Y1606D01*
X344Y1606D01*
X344Y1608D01*
X342Y1608D01*
X342Y1610D01*
X340Y1610D01*
X340Y1612D01*
X338Y1612D01*
X338Y1614D01*
X336Y1614D01*
X336Y1618D01*
X334Y1618D01*
X334Y1620D01*
X332Y1620D01*
X332Y1624D01*
X330Y1624D01*
X330Y1628D01*
X328Y1628D01*
X328Y1632D01*
X326Y1632D01*
X326Y1636D01*
X324Y1636D01*
X324Y1644D01*
X322Y1644D01*
X322Y1656D01*
X320Y1656D01*
X320Y1664D01*
X322Y1664D01*
X322Y1678D01*
X324Y1678D01*
X324Y1684D01*
X326Y1684D01*
X326Y1690D01*
X328Y1690D01*
X328Y1694D01*
X330Y1694D01*
X330Y1698D01*
X332Y1698D01*
X332Y1700D01*
X334Y1700D01*
X334Y1704D01*
X336Y1704D01*
X336Y1706D01*
X338Y1706D01*
X338Y1710D01*
X340Y1710D01*
X340Y1712D01*
X342Y1712D01*
X342Y1714D01*
X344Y1714D01*
X344Y1716D01*
X346Y1716D01*
X346Y1718D01*
X348Y1718D01*
X348Y1720D01*
X350Y1720D01*
X350Y1722D01*
X354Y1722D01*
X354Y1724D01*
X356Y1724D01*
X356Y1726D01*
X358Y1726D01*
X358Y1728D01*
X362Y1728D01*
X362Y1730D01*
X366Y1730D01*
X366Y1732D01*
X370Y1732D01*
X370Y1734D01*
X374Y1734D01*
X374Y1736D01*
X378Y1736D01*
X378Y1738D01*
X386Y1738D01*
X386Y1740D01*
X176Y1740D01*
G37*
D02*
G36*
X462Y1710D02*
X462Y1708D01*
X636Y1708D01*
X636Y1710D01*
X462Y1710D01*
G37*
D02*
G36*
X462Y1710D02*
X462Y1708D01*
X636Y1708D01*
X636Y1710D01*
X462Y1710D01*
G37*
D02*
G36*
X464Y1708D02*
X464Y1706D01*
X466Y1706D01*
X466Y1704D01*
X468Y1704D01*
X468Y1700D01*
X470Y1700D01*
X470Y1696D01*
X472Y1696D01*
X472Y1692D01*
X474Y1692D01*
X474Y1688D01*
X476Y1688D01*
X476Y1684D01*
X614Y1684D01*
X614Y1686D01*
X616Y1686D01*
X616Y1688D01*
X618Y1688D01*
X618Y1690D01*
X620Y1690D01*
X620Y1692D01*
X622Y1692D01*
X622Y1694D01*
X624Y1694D01*
X624Y1696D01*
X626Y1696D01*
X626Y1700D01*
X628Y1700D01*
X628Y1702D01*
X630Y1702D01*
X630Y1704D01*
X632Y1704D01*
X632Y1706D01*
X634Y1706D01*
X634Y1708D01*
X464Y1708D01*
G37*
D02*
G36*
X690Y1702D02*
X690Y1700D01*
X1328Y1700D01*
X1328Y1702D01*
X690Y1702D01*
G37*
D02*
G36*
X690Y1702D02*
X690Y1700D01*
X1328Y1700D01*
X1328Y1702D01*
X690Y1702D01*
G37*
D02*
G36*
X690Y1702D02*
X690Y1700D01*
X1328Y1700D01*
X1328Y1702D01*
X690Y1702D01*
G37*
D02*
G36*
X690Y1702D02*
X690Y1700D01*
X1328Y1700D01*
X1328Y1702D01*
X690Y1702D01*
G37*
D02*
G36*
X688Y1700D02*
X688Y1698D01*
X686Y1698D01*
X686Y1696D01*
X684Y1696D01*
X684Y1694D01*
X682Y1694D01*
X682Y1692D01*
X680Y1692D01*
X680Y1690D01*
X678Y1690D01*
X678Y1688D01*
X676Y1688D01*
X676Y1686D01*
X674Y1686D01*
X674Y1684D01*
X672Y1684D01*
X672Y1682D01*
X670Y1682D01*
X670Y1680D01*
X668Y1680D01*
X668Y1678D01*
X666Y1678D01*
X666Y1674D01*
X664Y1674D01*
X664Y1672D01*
X662Y1672D01*
X662Y1670D01*
X660Y1670D01*
X660Y1668D01*
X658Y1668D01*
X658Y1666D01*
X656Y1666D01*
X656Y1664D01*
X654Y1664D01*
X654Y1662D01*
X652Y1662D01*
X652Y1660D01*
X650Y1660D01*
X650Y1658D01*
X648Y1658D01*
X648Y1656D01*
X646Y1656D01*
X646Y1654D01*
X644Y1654D01*
X644Y1652D01*
X642Y1652D01*
X642Y1650D01*
X640Y1650D01*
X640Y1648D01*
X638Y1648D01*
X638Y1646D01*
X636Y1646D01*
X636Y1644D01*
X632Y1644D01*
X632Y1642D01*
X628Y1642D01*
X628Y1640D01*
X580Y1640D01*
X580Y1628D01*
X822Y1628D01*
X822Y1626D01*
X828Y1626D01*
X828Y1624D01*
X834Y1624D01*
X834Y1622D01*
X836Y1622D01*
X836Y1620D01*
X840Y1620D01*
X840Y1618D01*
X842Y1618D01*
X842Y1616D01*
X844Y1616D01*
X844Y1614D01*
X848Y1614D01*
X848Y1610D01*
X850Y1610D01*
X850Y1608D01*
X852Y1608D01*
X852Y1606D01*
X854Y1606D01*
X854Y1602D01*
X856Y1602D01*
X856Y1600D01*
X858Y1600D01*
X858Y1594D01*
X860Y1594D01*
X860Y1588D01*
X862Y1588D01*
X862Y1572D01*
X860Y1572D01*
X860Y1566D01*
X858Y1566D01*
X858Y1562D01*
X856Y1562D01*
X856Y1558D01*
X854Y1558D01*
X854Y1556D01*
X852Y1556D01*
X852Y1552D01*
X850Y1552D01*
X850Y1550D01*
X848Y1550D01*
X848Y1548D01*
X846Y1548D01*
X846Y1546D01*
X844Y1546D01*
X844Y1544D01*
X842Y1544D01*
X842Y1542D01*
X838Y1542D01*
X838Y1540D01*
X834Y1540D01*
X834Y1538D01*
X832Y1538D01*
X832Y1536D01*
X826Y1536D01*
X826Y1534D01*
X798Y1534D01*
X798Y1532D01*
X796Y1532D01*
X796Y1530D01*
X794Y1530D01*
X794Y1528D01*
X792Y1528D01*
X792Y1526D01*
X790Y1526D01*
X790Y1524D01*
X788Y1524D01*
X788Y1522D01*
X786Y1522D01*
X786Y1520D01*
X784Y1520D01*
X784Y1518D01*
X782Y1518D01*
X782Y1516D01*
X780Y1516D01*
X780Y1514D01*
X778Y1514D01*
X778Y1512D01*
X776Y1512D01*
X776Y1510D01*
X774Y1510D01*
X774Y1508D01*
X772Y1508D01*
X772Y1506D01*
X770Y1506D01*
X770Y1504D01*
X768Y1504D01*
X768Y1502D01*
X766Y1502D01*
X766Y1500D01*
X764Y1500D01*
X764Y1498D01*
X762Y1498D01*
X762Y1496D01*
X760Y1496D01*
X760Y1494D01*
X758Y1494D01*
X758Y1492D01*
X756Y1492D01*
X756Y1490D01*
X754Y1490D01*
X754Y1488D01*
X752Y1488D01*
X752Y1486D01*
X750Y1486D01*
X750Y1484D01*
X748Y1484D01*
X748Y1482D01*
X746Y1482D01*
X746Y1480D01*
X744Y1480D01*
X744Y1478D01*
X742Y1478D01*
X742Y1476D01*
X740Y1476D01*
X740Y1474D01*
X738Y1474D01*
X738Y1472D01*
X736Y1472D01*
X736Y1470D01*
X734Y1470D01*
X734Y1468D01*
X732Y1468D01*
X732Y1466D01*
X730Y1466D01*
X730Y1464D01*
X728Y1464D01*
X728Y1462D01*
X726Y1462D01*
X726Y1460D01*
X724Y1460D01*
X724Y1458D01*
X722Y1458D01*
X722Y1456D01*
X720Y1456D01*
X720Y1454D01*
X718Y1454D01*
X718Y1452D01*
X716Y1452D01*
X716Y1450D01*
X826Y1450D01*
X826Y1448D01*
X832Y1448D01*
X832Y1446D01*
X834Y1446D01*
X834Y1444D01*
X838Y1444D01*
X838Y1442D01*
X842Y1442D01*
X842Y1440D01*
X844Y1440D01*
X844Y1438D01*
X846Y1438D01*
X846Y1436D01*
X848Y1436D01*
X848Y1434D01*
X850Y1434D01*
X850Y1432D01*
X852Y1432D01*
X852Y1428D01*
X854Y1428D01*
X854Y1426D01*
X856Y1426D01*
X856Y1422D01*
X858Y1422D01*
X858Y1418D01*
X860Y1418D01*
X860Y1412D01*
X862Y1412D01*
X862Y1396D01*
X860Y1396D01*
X860Y1390D01*
X858Y1390D01*
X858Y1384D01*
X856Y1384D01*
X856Y1382D01*
X854Y1382D01*
X854Y1378D01*
X852Y1378D01*
X852Y1376D01*
X850Y1376D01*
X850Y1374D01*
X848Y1374D01*
X848Y1370D01*
X844Y1370D01*
X844Y1368D01*
X842Y1368D01*
X842Y1366D01*
X840Y1366D01*
X840Y1364D01*
X836Y1364D01*
X836Y1362D01*
X834Y1362D01*
X834Y1360D01*
X828Y1360D01*
X828Y1358D01*
X824Y1358D01*
X824Y1356D01*
X1516Y1356D01*
X1516Y1500D01*
X1514Y1500D01*
X1514Y1502D01*
X1512Y1502D01*
X1512Y1504D01*
X1510Y1504D01*
X1510Y1506D01*
X1508Y1506D01*
X1508Y1508D01*
X1506Y1508D01*
X1506Y1510D01*
X1504Y1510D01*
X1504Y1514D01*
X1502Y1514D01*
X1502Y1516D01*
X1500Y1516D01*
X1500Y1518D01*
X1498Y1518D01*
X1498Y1520D01*
X1496Y1520D01*
X1496Y1522D01*
X1494Y1522D01*
X1494Y1524D01*
X1492Y1524D01*
X1492Y1526D01*
X1490Y1526D01*
X1490Y1528D01*
X1488Y1528D01*
X1488Y1530D01*
X1486Y1530D01*
X1486Y1532D01*
X1484Y1532D01*
X1484Y1534D01*
X1482Y1534D01*
X1482Y1536D01*
X1480Y1536D01*
X1480Y1538D01*
X1478Y1538D01*
X1478Y1542D01*
X1476Y1542D01*
X1476Y1544D01*
X1474Y1544D01*
X1474Y1546D01*
X1472Y1546D01*
X1472Y1548D01*
X1470Y1548D01*
X1470Y1550D01*
X1468Y1550D01*
X1468Y1552D01*
X1466Y1552D01*
X1466Y1554D01*
X1464Y1554D01*
X1464Y1556D01*
X1462Y1556D01*
X1462Y1558D01*
X1460Y1558D01*
X1460Y1560D01*
X1458Y1560D01*
X1458Y1562D01*
X1456Y1562D01*
X1456Y1564D01*
X1454Y1564D01*
X1454Y1566D01*
X1452Y1566D01*
X1452Y1570D01*
X1450Y1570D01*
X1450Y1572D01*
X1448Y1572D01*
X1448Y1574D01*
X1446Y1574D01*
X1446Y1576D01*
X1444Y1576D01*
X1444Y1578D01*
X1442Y1578D01*
X1442Y1580D01*
X1440Y1580D01*
X1440Y1582D01*
X1438Y1582D01*
X1438Y1584D01*
X1436Y1584D01*
X1436Y1586D01*
X1434Y1586D01*
X1434Y1588D01*
X1432Y1588D01*
X1432Y1590D01*
X1430Y1590D01*
X1430Y1592D01*
X1428Y1592D01*
X1428Y1596D01*
X1426Y1596D01*
X1426Y1598D01*
X1424Y1598D01*
X1424Y1600D01*
X1422Y1600D01*
X1422Y1602D01*
X1420Y1602D01*
X1420Y1604D01*
X1418Y1604D01*
X1418Y1606D01*
X1416Y1606D01*
X1416Y1608D01*
X1414Y1608D01*
X1414Y1610D01*
X1412Y1610D01*
X1412Y1612D01*
X1410Y1612D01*
X1410Y1614D01*
X1408Y1614D01*
X1408Y1616D01*
X1406Y1616D01*
X1406Y1618D01*
X1404Y1618D01*
X1404Y1620D01*
X1402Y1620D01*
X1402Y1624D01*
X1400Y1624D01*
X1400Y1626D01*
X1398Y1626D01*
X1398Y1628D01*
X1396Y1628D01*
X1396Y1630D01*
X1394Y1630D01*
X1394Y1632D01*
X1392Y1632D01*
X1392Y1634D01*
X1390Y1634D01*
X1390Y1636D01*
X1388Y1636D01*
X1388Y1638D01*
X1386Y1638D01*
X1386Y1640D01*
X1384Y1640D01*
X1384Y1642D01*
X1382Y1642D01*
X1382Y1644D01*
X1380Y1644D01*
X1380Y1646D01*
X1378Y1646D01*
X1378Y1648D01*
X1376Y1648D01*
X1376Y1652D01*
X1374Y1652D01*
X1374Y1654D01*
X1372Y1654D01*
X1372Y1656D01*
X1370Y1656D01*
X1370Y1658D01*
X1368Y1658D01*
X1368Y1660D01*
X1366Y1660D01*
X1366Y1662D01*
X1364Y1662D01*
X1364Y1664D01*
X1362Y1664D01*
X1362Y1666D01*
X1360Y1666D01*
X1360Y1668D01*
X1358Y1668D01*
X1358Y1670D01*
X1356Y1670D01*
X1356Y1672D01*
X1354Y1672D01*
X1354Y1674D01*
X1352Y1674D01*
X1352Y1676D01*
X1350Y1676D01*
X1350Y1680D01*
X1348Y1680D01*
X1348Y1682D01*
X1346Y1682D01*
X1346Y1684D01*
X1344Y1684D01*
X1344Y1686D01*
X1342Y1686D01*
X1342Y1688D01*
X1340Y1688D01*
X1340Y1690D01*
X1338Y1690D01*
X1338Y1692D01*
X1336Y1692D01*
X1336Y1694D01*
X1334Y1694D01*
X1334Y1696D01*
X1332Y1696D01*
X1332Y1698D01*
X1330Y1698D01*
X1330Y1700D01*
X688Y1700D01*
G37*
D02*
G36*
X496Y1640D02*
X496Y1638D01*
X476Y1638D01*
X476Y1632D01*
X474Y1632D01*
X474Y1628D01*
X472Y1628D01*
X472Y1624D01*
X470Y1624D01*
X470Y1622D01*
X468Y1622D01*
X468Y1618D01*
X466Y1618D01*
X466Y1616D01*
X464Y1616D01*
X464Y1612D01*
X462Y1612D01*
X462Y1610D01*
X460Y1610D01*
X460Y1608D01*
X458Y1608D01*
X458Y1606D01*
X456Y1606D01*
X456Y1604D01*
X454Y1604D01*
X454Y1602D01*
X452Y1602D01*
X452Y1600D01*
X450Y1600D01*
X450Y1598D01*
X446Y1598D01*
X446Y1596D01*
X444Y1596D01*
X444Y1594D01*
X442Y1594D01*
X442Y1592D01*
X438Y1592D01*
X438Y1590D01*
X434Y1590D01*
X434Y1588D01*
X430Y1588D01*
X430Y1586D01*
X426Y1586D01*
X426Y1584D01*
X418Y1584D01*
X418Y1582D01*
X408Y1582D01*
X408Y1580D01*
X512Y1580D01*
X512Y1592D01*
X514Y1592D01*
X514Y1598D01*
X516Y1598D01*
X516Y1602D01*
X518Y1602D01*
X518Y1604D01*
X520Y1604D01*
X520Y1608D01*
X522Y1608D01*
X522Y1610D01*
X524Y1610D01*
X524Y1612D01*
X526Y1612D01*
X526Y1614D01*
X528Y1614D01*
X528Y1616D01*
X530Y1616D01*
X530Y1618D01*
X534Y1618D01*
X534Y1620D01*
X536Y1620D01*
X536Y1640D01*
X496Y1640D01*
G37*
D02*
G36*
X580Y1628D02*
X580Y1620D01*
X584Y1620D01*
X584Y1618D01*
X586Y1618D01*
X586Y1616D01*
X588Y1616D01*
X588Y1614D01*
X592Y1614D01*
X592Y1610D01*
X594Y1610D01*
X594Y1608D01*
X596Y1608D01*
X596Y1606D01*
X598Y1606D01*
X598Y1602D01*
X600Y1602D01*
X600Y1600D01*
X602Y1600D01*
X602Y1594D01*
X604Y1594D01*
X604Y1590D01*
X606Y1590D01*
X606Y1572D01*
X604Y1572D01*
X604Y1566D01*
X602Y1566D01*
X602Y1562D01*
X600Y1562D01*
X600Y1558D01*
X598Y1558D01*
X598Y1554D01*
X596Y1554D01*
X596Y1552D01*
X594Y1552D01*
X594Y1550D01*
X592Y1550D01*
X592Y1548D01*
X590Y1548D01*
X590Y1546D01*
X588Y1546D01*
X588Y1544D01*
X586Y1544D01*
X586Y1542D01*
X582Y1542D01*
X582Y1540D01*
X580Y1540D01*
X580Y1538D01*
X576Y1538D01*
X576Y1536D01*
X570Y1536D01*
X570Y1534D01*
X738Y1534D01*
X738Y1536D01*
X740Y1536D01*
X740Y1538D01*
X742Y1538D01*
X742Y1540D01*
X744Y1540D01*
X744Y1542D01*
X746Y1542D01*
X746Y1544D01*
X748Y1544D01*
X748Y1546D01*
X750Y1546D01*
X750Y1548D01*
X752Y1548D01*
X752Y1550D01*
X754Y1550D01*
X754Y1552D01*
X756Y1552D01*
X756Y1554D01*
X758Y1554D01*
X758Y1556D01*
X760Y1556D01*
X760Y1558D01*
X762Y1558D01*
X762Y1560D01*
X764Y1560D01*
X764Y1562D01*
X766Y1562D01*
X766Y1582D01*
X768Y1582D01*
X768Y1592D01*
X770Y1592D01*
X770Y1598D01*
X772Y1598D01*
X772Y1602D01*
X774Y1602D01*
X774Y1604D01*
X776Y1604D01*
X776Y1608D01*
X778Y1608D01*
X778Y1610D01*
X780Y1610D01*
X780Y1612D01*
X782Y1612D01*
X782Y1614D01*
X784Y1614D01*
X784Y1616D01*
X786Y1616D01*
X786Y1618D01*
X788Y1618D01*
X788Y1620D01*
X792Y1620D01*
X792Y1622D01*
X796Y1622D01*
X796Y1624D01*
X800Y1624D01*
X800Y1626D01*
X806Y1626D01*
X806Y1628D01*
X580Y1628D01*
G37*
D02*
G36*
X40Y1580D02*
X40Y1578D01*
X512Y1578D01*
X512Y1580D01*
X40Y1580D01*
G37*
D02*
G36*
X40Y1580D02*
X40Y1578D01*
X512Y1578D01*
X512Y1580D01*
X40Y1580D01*
G37*
D02*
G36*
X40Y1580D02*
X40Y1578D01*
X512Y1578D01*
X512Y1580D01*
X40Y1580D01*
G37*
D02*
G36*
X40Y1578D02*
X40Y1550D01*
X296Y1550D01*
X296Y1548D01*
X302Y1548D01*
X302Y1546D01*
X308Y1546D01*
X308Y1544D01*
X312Y1544D01*
X312Y1542D01*
X316Y1542D01*
X316Y1540D01*
X320Y1540D01*
X320Y1538D01*
X324Y1538D01*
X324Y1536D01*
X326Y1536D01*
X326Y1534D01*
X548Y1534D01*
X548Y1536D01*
X542Y1536D01*
X542Y1538D01*
X538Y1538D01*
X538Y1540D01*
X534Y1540D01*
X534Y1542D01*
X532Y1542D01*
X532Y1544D01*
X530Y1544D01*
X530Y1546D01*
X528Y1546D01*
X528Y1548D01*
X526Y1548D01*
X526Y1550D01*
X524Y1550D01*
X524Y1552D01*
X522Y1552D01*
X522Y1554D01*
X520Y1554D01*
X520Y1556D01*
X518Y1556D01*
X518Y1560D01*
X516Y1560D01*
X516Y1564D01*
X514Y1564D01*
X514Y1570D01*
X512Y1570D01*
X512Y1578D01*
X40Y1578D01*
G37*
D02*
G36*
X40Y1550D02*
X40Y1390D01*
X274Y1390D01*
X274Y1392D01*
X264Y1392D01*
X264Y1394D01*
X256Y1394D01*
X256Y1396D01*
X252Y1396D01*
X252Y1398D01*
X248Y1398D01*
X248Y1400D01*
X244Y1400D01*
X244Y1402D01*
X240Y1402D01*
X240Y1404D01*
X238Y1404D01*
X238Y1406D01*
X234Y1406D01*
X234Y1408D01*
X232Y1408D01*
X232Y1410D01*
X230Y1410D01*
X230Y1412D01*
X228Y1412D01*
X228Y1414D01*
X226Y1414D01*
X226Y1416D01*
X224Y1416D01*
X224Y1418D01*
X222Y1418D01*
X222Y1420D01*
X220Y1420D01*
X220Y1422D01*
X218Y1422D01*
X218Y1424D01*
X216Y1424D01*
X216Y1428D01*
X214Y1428D01*
X214Y1430D01*
X212Y1430D01*
X212Y1434D01*
X210Y1434D01*
X210Y1438D01*
X208Y1438D01*
X208Y1442D01*
X206Y1442D01*
X206Y1446D01*
X204Y1446D01*
X204Y1454D01*
X202Y1454D01*
X202Y1466D01*
X200Y1466D01*
X200Y1474D01*
X202Y1474D01*
X202Y1488D01*
X204Y1488D01*
X204Y1494D01*
X206Y1494D01*
X206Y1500D01*
X208Y1500D01*
X208Y1504D01*
X210Y1504D01*
X210Y1508D01*
X212Y1508D01*
X212Y1510D01*
X214Y1510D01*
X214Y1514D01*
X216Y1514D01*
X216Y1516D01*
X218Y1516D01*
X218Y1520D01*
X220Y1520D01*
X220Y1522D01*
X222Y1522D01*
X222Y1524D01*
X224Y1524D01*
X224Y1526D01*
X226Y1526D01*
X226Y1528D01*
X228Y1528D01*
X228Y1530D01*
X230Y1530D01*
X230Y1532D01*
X234Y1532D01*
X234Y1534D01*
X236Y1534D01*
X236Y1536D01*
X238Y1536D01*
X238Y1538D01*
X242Y1538D01*
X242Y1540D01*
X246Y1540D01*
X246Y1542D01*
X250Y1542D01*
X250Y1544D01*
X254Y1544D01*
X254Y1546D01*
X258Y1546D01*
X258Y1548D01*
X266Y1548D01*
X266Y1550D01*
X40Y1550D01*
G37*
D02*
G36*
X328Y1534D02*
X328Y1532D01*
X736Y1532D01*
X736Y1534D01*
X328Y1534D01*
G37*
D02*
G36*
X328Y1534D02*
X328Y1532D01*
X736Y1532D01*
X736Y1534D01*
X328Y1534D01*
G37*
D02*
G36*
X330Y1532D02*
X330Y1530D01*
X334Y1530D01*
X334Y1528D01*
X336Y1528D01*
X336Y1526D01*
X338Y1526D01*
X338Y1524D01*
X340Y1524D01*
X340Y1520D01*
X342Y1520D01*
X342Y1518D01*
X344Y1518D01*
X344Y1516D01*
X346Y1516D01*
X346Y1514D01*
X348Y1514D01*
X348Y1510D01*
X350Y1510D01*
X350Y1506D01*
X352Y1506D01*
X352Y1502D01*
X354Y1502D01*
X354Y1498D01*
X356Y1498D01*
X356Y1494D01*
X358Y1494D01*
X358Y1486D01*
X360Y1486D01*
X360Y1456D01*
X358Y1456D01*
X358Y1450D01*
X570Y1450D01*
X570Y1448D01*
X576Y1448D01*
X576Y1446D01*
X578Y1446D01*
X578Y1444D01*
X582Y1444D01*
X582Y1442D01*
X586Y1442D01*
X586Y1440D01*
X588Y1440D01*
X588Y1438D01*
X590Y1438D01*
X590Y1436D01*
X592Y1436D01*
X592Y1434D01*
X594Y1434D01*
X594Y1432D01*
X596Y1432D01*
X596Y1428D01*
X598Y1428D01*
X598Y1426D01*
X600Y1426D01*
X600Y1422D01*
X602Y1422D01*
X602Y1418D01*
X604Y1418D01*
X604Y1412D01*
X606Y1412D01*
X606Y1394D01*
X604Y1394D01*
X604Y1390D01*
X602Y1390D01*
X602Y1384D01*
X600Y1384D01*
X600Y1382D01*
X598Y1382D01*
X598Y1378D01*
X596Y1378D01*
X596Y1376D01*
X594Y1376D01*
X594Y1374D01*
X592Y1374D01*
X592Y1370D01*
X588Y1370D01*
X588Y1368D01*
X586Y1368D01*
X586Y1366D01*
X584Y1366D01*
X584Y1364D01*
X580Y1364D01*
X580Y1362D01*
X578Y1362D01*
X578Y1360D01*
X574Y1360D01*
X574Y1358D01*
X568Y1358D01*
X568Y1356D01*
X670Y1356D01*
X670Y1430D01*
X668Y1430D01*
X668Y1458D01*
X670Y1458D01*
X670Y1466D01*
X672Y1466D01*
X672Y1470D01*
X674Y1470D01*
X674Y1472D01*
X676Y1472D01*
X676Y1474D01*
X678Y1474D01*
X678Y1476D01*
X680Y1476D01*
X680Y1478D01*
X682Y1478D01*
X682Y1480D01*
X684Y1480D01*
X684Y1482D01*
X686Y1482D01*
X686Y1484D01*
X688Y1484D01*
X688Y1486D01*
X690Y1486D01*
X690Y1488D01*
X692Y1488D01*
X692Y1490D01*
X694Y1490D01*
X694Y1492D01*
X696Y1492D01*
X696Y1494D01*
X698Y1494D01*
X698Y1496D01*
X700Y1496D01*
X700Y1498D01*
X702Y1498D01*
X702Y1500D01*
X704Y1500D01*
X704Y1502D01*
X706Y1502D01*
X706Y1504D01*
X708Y1504D01*
X708Y1506D01*
X710Y1506D01*
X710Y1508D01*
X712Y1508D01*
X712Y1510D01*
X714Y1510D01*
X714Y1512D01*
X716Y1512D01*
X716Y1514D01*
X718Y1514D01*
X718Y1516D01*
X720Y1516D01*
X720Y1518D01*
X722Y1518D01*
X722Y1520D01*
X724Y1520D01*
X724Y1522D01*
X726Y1522D01*
X726Y1524D01*
X728Y1524D01*
X728Y1526D01*
X730Y1526D01*
X730Y1528D01*
X732Y1528D01*
X732Y1530D01*
X734Y1530D01*
X734Y1532D01*
X330Y1532D01*
G37*
D02*
G36*
X358Y1450D02*
X358Y1448D01*
X356Y1448D01*
X356Y1442D01*
X354Y1442D01*
X354Y1438D01*
X352Y1438D01*
X352Y1434D01*
X350Y1434D01*
X350Y1432D01*
X348Y1432D01*
X348Y1428D01*
X346Y1428D01*
X346Y1426D01*
X344Y1426D01*
X344Y1422D01*
X342Y1422D01*
X342Y1420D01*
X340Y1420D01*
X340Y1418D01*
X338Y1418D01*
X338Y1416D01*
X336Y1416D01*
X336Y1414D01*
X334Y1414D01*
X334Y1412D01*
X332Y1412D01*
X332Y1410D01*
X330Y1410D01*
X330Y1408D01*
X326Y1408D01*
X326Y1406D01*
X324Y1406D01*
X324Y1404D01*
X322Y1404D01*
X322Y1402D01*
X318Y1402D01*
X318Y1400D01*
X314Y1400D01*
X314Y1398D01*
X310Y1398D01*
X310Y1396D01*
X306Y1396D01*
X306Y1394D01*
X298Y1394D01*
X298Y1392D01*
X288Y1392D01*
X288Y1390D01*
X514Y1390D01*
X514Y1392D01*
X512Y1392D01*
X512Y1414D01*
X514Y1414D01*
X514Y1420D01*
X516Y1420D01*
X516Y1424D01*
X518Y1424D01*
X518Y1428D01*
X520Y1428D01*
X520Y1430D01*
X522Y1430D01*
X522Y1432D01*
X524Y1432D01*
X524Y1434D01*
X526Y1434D01*
X526Y1436D01*
X528Y1436D01*
X528Y1438D01*
X530Y1438D01*
X530Y1440D01*
X532Y1440D01*
X532Y1442D01*
X534Y1442D01*
X534Y1444D01*
X538Y1444D01*
X538Y1446D01*
X542Y1446D01*
X542Y1448D01*
X548Y1448D01*
X548Y1450D01*
X358Y1450D01*
G37*
D02*
G36*
X714Y1450D02*
X714Y1356D01*
X806Y1356D01*
X806Y1358D01*
X800Y1358D01*
X800Y1360D01*
X796Y1360D01*
X796Y1362D01*
X792Y1362D01*
X792Y1364D01*
X788Y1364D01*
X788Y1366D01*
X786Y1366D01*
X786Y1368D01*
X784Y1368D01*
X784Y1370D01*
X782Y1370D01*
X782Y1372D01*
X780Y1372D01*
X780Y1374D01*
X778Y1374D01*
X778Y1376D01*
X776Y1376D01*
X776Y1380D01*
X774Y1380D01*
X774Y1382D01*
X772Y1382D01*
X772Y1386D01*
X770Y1386D01*
X770Y1392D01*
X768Y1392D01*
X768Y1402D01*
X766Y1402D01*
X766Y1404D01*
X768Y1404D01*
X768Y1414D01*
X770Y1414D01*
X770Y1420D01*
X772Y1420D01*
X772Y1424D01*
X774Y1424D01*
X774Y1428D01*
X776Y1428D01*
X776Y1430D01*
X778Y1430D01*
X778Y1432D01*
X780Y1432D01*
X780Y1434D01*
X782Y1434D01*
X782Y1436D01*
X784Y1436D01*
X784Y1438D01*
X786Y1438D01*
X786Y1440D01*
X788Y1440D01*
X788Y1442D01*
X790Y1442D01*
X790Y1444D01*
X794Y1444D01*
X794Y1446D01*
X798Y1446D01*
X798Y1448D01*
X804Y1448D01*
X804Y1450D01*
X714Y1450D01*
G37*
D02*
G36*
X40Y1390D02*
X40Y1388D01*
X514Y1388D01*
X514Y1390D01*
X40Y1390D01*
G37*
D02*
G36*
X40Y1390D02*
X40Y1388D01*
X514Y1388D01*
X514Y1390D01*
X40Y1390D01*
G37*
D02*
G36*
X40Y1388D02*
X40Y1356D01*
X550Y1356D01*
X550Y1358D01*
X544Y1358D01*
X544Y1360D01*
X540Y1360D01*
X540Y1362D01*
X536Y1362D01*
X536Y1364D01*
X532Y1364D01*
X532Y1366D01*
X530Y1366D01*
X530Y1368D01*
X528Y1368D01*
X528Y1370D01*
X526Y1370D01*
X526Y1372D01*
X524Y1372D01*
X524Y1374D01*
X522Y1374D01*
X522Y1376D01*
X520Y1376D01*
X520Y1380D01*
X518Y1380D01*
X518Y1382D01*
X516Y1382D01*
X516Y1386D01*
X514Y1386D01*
X514Y1388D01*
X40Y1388D01*
G37*
D02*
G36*
X40Y1356D02*
X40Y1354D01*
X670Y1354D01*
X670Y1356D01*
X40Y1356D01*
G37*
D02*
G36*
X40Y1356D02*
X40Y1354D01*
X670Y1354D01*
X670Y1356D01*
X40Y1356D01*
G37*
D02*
G36*
X714Y1356D02*
X714Y1354D01*
X1516Y1354D01*
X1516Y1356D01*
X714Y1356D01*
G37*
D02*
G36*
X714Y1356D02*
X714Y1354D01*
X1516Y1354D01*
X1516Y1356D01*
X714Y1356D01*
G37*
D02*
G36*
X40Y1354D02*
X40Y1300D01*
X570Y1300D01*
X570Y1298D01*
X576Y1298D01*
X576Y1296D01*
X580Y1296D01*
X580Y1294D01*
X582Y1294D01*
X582Y1292D01*
X586Y1292D01*
X586Y1290D01*
X588Y1290D01*
X588Y1288D01*
X590Y1288D01*
X590Y1286D01*
X592Y1286D01*
X592Y1284D01*
X594Y1284D01*
X594Y1282D01*
X596Y1282D01*
X596Y1280D01*
X598Y1280D01*
X598Y1276D01*
X600Y1276D01*
X600Y1274D01*
X602Y1274D01*
X602Y1270D01*
X604Y1270D01*
X604Y1264D01*
X606Y1264D01*
X606Y1254D01*
X608Y1254D01*
X608Y1252D01*
X606Y1252D01*
X606Y1242D01*
X604Y1242D01*
X604Y1236D01*
X602Y1236D01*
X602Y1232D01*
X600Y1232D01*
X600Y1230D01*
X598Y1230D01*
X598Y1226D01*
X596Y1226D01*
X596Y1224D01*
X594Y1224D01*
X594Y1222D01*
X592Y1222D01*
X592Y1220D01*
X590Y1220D01*
X590Y1218D01*
X588Y1218D01*
X588Y1216D01*
X586Y1216D01*
X586Y1214D01*
X582Y1214D01*
X582Y1212D01*
X580Y1212D01*
X580Y1210D01*
X576Y1210D01*
X576Y1208D01*
X570Y1208D01*
X570Y1206D01*
X670Y1206D01*
X670Y1354D01*
X40Y1354D01*
G37*
D02*
G36*
X714Y1354D02*
X714Y1300D01*
X826Y1300D01*
X826Y1298D01*
X832Y1298D01*
X832Y1296D01*
X836Y1296D01*
X836Y1294D01*
X838Y1294D01*
X838Y1292D01*
X842Y1292D01*
X842Y1290D01*
X844Y1290D01*
X844Y1288D01*
X846Y1288D01*
X846Y1286D01*
X848Y1286D01*
X848Y1284D01*
X850Y1284D01*
X850Y1282D01*
X852Y1282D01*
X852Y1280D01*
X854Y1280D01*
X854Y1276D01*
X856Y1276D01*
X856Y1274D01*
X858Y1274D01*
X858Y1270D01*
X860Y1270D01*
X860Y1264D01*
X862Y1264D01*
X862Y1242D01*
X860Y1242D01*
X860Y1236D01*
X858Y1236D01*
X858Y1232D01*
X856Y1232D01*
X856Y1230D01*
X854Y1230D01*
X854Y1226D01*
X852Y1226D01*
X852Y1224D01*
X850Y1224D01*
X850Y1222D01*
X848Y1222D01*
X848Y1220D01*
X846Y1220D01*
X846Y1218D01*
X844Y1218D01*
X844Y1216D01*
X842Y1216D01*
X842Y1214D01*
X838Y1214D01*
X838Y1212D01*
X836Y1212D01*
X836Y1210D01*
X832Y1210D01*
X832Y1208D01*
X826Y1208D01*
X826Y1206D01*
X1516Y1206D01*
X1516Y1354D01*
X714Y1354D01*
G37*
D02*
G36*
X40Y1300D02*
X40Y1206D01*
X550Y1206D01*
X550Y1208D01*
X544Y1208D01*
X544Y1210D01*
X540Y1210D01*
X540Y1212D01*
X536Y1212D01*
X536Y1214D01*
X534Y1214D01*
X534Y1216D01*
X532Y1216D01*
X532Y1218D01*
X528Y1218D01*
X528Y1220D01*
X526Y1220D01*
X526Y1222D01*
X524Y1222D01*
X524Y1226D01*
X522Y1226D01*
X522Y1228D01*
X520Y1228D01*
X520Y1230D01*
X518Y1230D01*
X518Y1234D01*
X516Y1234D01*
X516Y1238D01*
X514Y1238D01*
X514Y1244D01*
X512Y1244D01*
X512Y1262D01*
X514Y1262D01*
X514Y1268D01*
X516Y1268D01*
X516Y1272D01*
X518Y1272D01*
X518Y1276D01*
X520Y1276D01*
X520Y1278D01*
X522Y1278D01*
X522Y1280D01*
X524Y1280D01*
X524Y1284D01*
X526Y1284D01*
X526Y1286D01*
X528Y1286D01*
X528Y1288D01*
X532Y1288D01*
X532Y1290D01*
X534Y1290D01*
X534Y1292D01*
X536Y1292D01*
X536Y1294D01*
X540Y1294D01*
X540Y1296D01*
X544Y1296D01*
X544Y1298D01*
X550Y1298D01*
X550Y1300D01*
X40Y1300D01*
G37*
D02*
G36*
X714Y1300D02*
X714Y1206D01*
X806Y1206D01*
X806Y1208D01*
X800Y1208D01*
X800Y1210D01*
X796Y1210D01*
X796Y1212D01*
X792Y1212D01*
X792Y1214D01*
X790Y1214D01*
X790Y1216D01*
X786Y1216D01*
X786Y1218D01*
X784Y1218D01*
X784Y1220D01*
X782Y1220D01*
X782Y1222D01*
X780Y1222D01*
X780Y1224D01*
X778Y1224D01*
X778Y1228D01*
X776Y1228D01*
X776Y1230D01*
X774Y1230D01*
X774Y1234D01*
X772Y1234D01*
X772Y1238D01*
X770Y1238D01*
X770Y1244D01*
X768Y1244D01*
X768Y1262D01*
X770Y1262D01*
X770Y1268D01*
X772Y1268D01*
X772Y1272D01*
X774Y1272D01*
X774Y1276D01*
X776Y1276D01*
X776Y1278D01*
X778Y1278D01*
X778Y1280D01*
X780Y1280D01*
X780Y1284D01*
X782Y1284D01*
X782Y1286D01*
X784Y1286D01*
X784Y1288D01*
X786Y1288D01*
X786Y1290D01*
X790Y1290D01*
X790Y1292D01*
X792Y1292D01*
X792Y1294D01*
X796Y1294D01*
X796Y1296D01*
X800Y1296D01*
X800Y1298D01*
X806Y1298D01*
X806Y1300D01*
X714Y1300D01*
G37*
D02*
G36*
X40Y1206D02*
X40Y1204D01*
X670Y1204D01*
X670Y1206D01*
X40Y1206D01*
G37*
D02*
G36*
X40Y1206D02*
X40Y1204D01*
X670Y1204D01*
X670Y1206D01*
X40Y1206D01*
G37*
D02*
G36*
X714Y1206D02*
X714Y1204D01*
X1516Y1204D01*
X1516Y1206D01*
X714Y1206D01*
G37*
D02*
G36*
X714Y1206D02*
X714Y1204D01*
X1516Y1204D01*
X1516Y1206D01*
X714Y1206D01*
G37*
D02*
G36*
X40Y1204D02*
X40Y1124D01*
X564Y1124D01*
X564Y1122D01*
X572Y1122D01*
X572Y1120D01*
X578Y1120D01*
X578Y1118D01*
X580Y1118D01*
X580Y1116D01*
X584Y1116D01*
X584Y1114D01*
X586Y1114D01*
X586Y1112D01*
X588Y1112D01*
X588Y1110D01*
X592Y1110D01*
X592Y1108D01*
X594Y1108D01*
X594Y1104D01*
X596Y1104D01*
X596Y1102D01*
X598Y1102D01*
X598Y1100D01*
X600Y1100D01*
X600Y1096D01*
X602Y1096D01*
X602Y1092D01*
X604Y1092D01*
X604Y1088D01*
X606Y1088D01*
X606Y958D01*
X608Y958D01*
X608Y714D01*
X606Y714D01*
X606Y552D01*
X604Y552D01*
X604Y444D01*
X602Y444D01*
X602Y438D01*
X600Y438D01*
X600Y436D01*
X598Y436D01*
X598Y434D01*
X596Y434D01*
X596Y432D01*
X594Y432D01*
X594Y430D01*
X592Y430D01*
X592Y428D01*
X590Y428D01*
X590Y426D01*
X588Y426D01*
X588Y424D01*
X586Y424D01*
X586Y422D01*
X584Y422D01*
X584Y420D01*
X582Y420D01*
X582Y418D01*
X580Y418D01*
X580Y416D01*
X578Y416D01*
X578Y414D01*
X576Y414D01*
X576Y412D01*
X574Y412D01*
X574Y410D01*
X572Y410D01*
X572Y408D01*
X570Y408D01*
X570Y406D01*
X568Y406D01*
X568Y404D01*
X566Y404D01*
X566Y402D01*
X564Y402D01*
X564Y400D01*
X562Y400D01*
X562Y398D01*
X560Y398D01*
X560Y396D01*
X558Y396D01*
X558Y394D01*
X556Y394D01*
X556Y392D01*
X554Y392D01*
X554Y390D01*
X552Y390D01*
X552Y388D01*
X550Y388D01*
X550Y386D01*
X548Y386D01*
X548Y384D01*
X546Y384D01*
X546Y382D01*
X544Y382D01*
X544Y380D01*
X542Y380D01*
X542Y378D01*
X540Y378D01*
X540Y376D01*
X538Y376D01*
X538Y374D01*
X536Y374D01*
X536Y372D01*
X534Y372D01*
X534Y370D01*
X532Y370D01*
X532Y368D01*
X530Y368D01*
X530Y366D01*
X528Y366D01*
X528Y364D01*
X526Y364D01*
X526Y362D01*
X524Y362D01*
X524Y360D01*
X522Y360D01*
X522Y358D01*
X520Y358D01*
X520Y356D01*
X518Y356D01*
X518Y354D01*
X516Y354D01*
X516Y352D01*
X514Y352D01*
X514Y350D01*
X512Y350D01*
X512Y348D01*
X510Y348D01*
X510Y346D01*
X508Y346D01*
X508Y344D01*
X506Y344D01*
X506Y342D01*
X504Y342D01*
X504Y340D01*
X502Y340D01*
X502Y338D01*
X500Y338D01*
X500Y336D01*
X498Y336D01*
X498Y334D01*
X496Y334D01*
X496Y332D01*
X494Y332D01*
X494Y330D01*
X492Y330D01*
X492Y328D01*
X490Y328D01*
X490Y326D01*
X488Y326D01*
X488Y324D01*
X486Y324D01*
X486Y322D01*
X484Y322D01*
X484Y320D01*
X482Y320D01*
X482Y318D01*
X480Y318D01*
X480Y316D01*
X478Y316D01*
X478Y314D01*
X476Y314D01*
X476Y312D01*
X470Y312D01*
X470Y310D01*
X414Y310D01*
X414Y308D01*
X378Y308D01*
X378Y296D01*
X376Y296D01*
X376Y294D01*
X890Y294D01*
X890Y296D01*
X888Y296D01*
X888Y622D01*
X808Y622D01*
X808Y624D01*
X804Y624D01*
X804Y626D01*
X802Y626D01*
X802Y628D01*
X800Y628D01*
X800Y630D01*
X798Y630D01*
X798Y632D01*
X796Y632D01*
X796Y634D01*
X794Y634D01*
X794Y636D01*
X792Y636D01*
X792Y638D01*
X788Y638D01*
X788Y640D01*
X786Y640D01*
X786Y642D01*
X784Y642D01*
X784Y644D01*
X782Y644D01*
X782Y646D01*
X780Y646D01*
X780Y648D01*
X778Y648D01*
X778Y650D01*
X776Y650D01*
X776Y652D01*
X774Y652D01*
X774Y654D01*
X772Y654D01*
X772Y656D01*
X770Y656D01*
X770Y658D01*
X768Y658D01*
X768Y660D01*
X766Y660D01*
X766Y662D01*
X764Y662D01*
X764Y664D01*
X762Y664D01*
X762Y666D01*
X760Y666D01*
X760Y668D01*
X758Y668D01*
X758Y670D01*
X756Y670D01*
X756Y672D01*
X754Y672D01*
X754Y674D01*
X752Y674D01*
X752Y676D01*
X750Y676D01*
X750Y678D01*
X748Y678D01*
X748Y680D01*
X746Y680D01*
X746Y682D01*
X744Y682D01*
X744Y684D01*
X742Y684D01*
X742Y686D01*
X738Y686D01*
X738Y688D01*
X736Y688D01*
X736Y690D01*
X734Y690D01*
X734Y692D01*
X732Y692D01*
X732Y694D01*
X730Y694D01*
X730Y696D01*
X728Y696D01*
X728Y698D01*
X726Y698D01*
X726Y700D01*
X724Y700D01*
X724Y702D01*
X722Y702D01*
X722Y704D01*
X720Y704D01*
X720Y706D01*
X718Y706D01*
X718Y708D01*
X716Y708D01*
X716Y710D01*
X714Y710D01*
X714Y712D01*
X712Y712D01*
X712Y714D01*
X710Y714D01*
X710Y716D01*
X708Y716D01*
X708Y718D01*
X706Y718D01*
X706Y720D01*
X704Y720D01*
X704Y722D01*
X702Y722D01*
X702Y724D01*
X700Y724D01*
X700Y726D01*
X698Y726D01*
X698Y728D01*
X696Y728D01*
X696Y730D01*
X694Y730D01*
X694Y732D01*
X692Y732D01*
X692Y734D01*
X688Y734D01*
X688Y736D01*
X686Y736D01*
X686Y738D01*
X684Y738D01*
X684Y740D01*
X682Y740D01*
X682Y742D01*
X680Y742D01*
X680Y744D01*
X678Y744D01*
X678Y748D01*
X676Y748D01*
X676Y750D01*
X674Y750D01*
X674Y756D01*
X672Y756D01*
X672Y1054D01*
X670Y1054D01*
X670Y1204D01*
X40Y1204D01*
G37*
D02*
G36*
X714Y1204D02*
X714Y1124D01*
X820Y1124D01*
X820Y1122D01*
X828Y1122D01*
X828Y1120D01*
X834Y1120D01*
X834Y1118D01*
X836Y1118D01*
X836Y1116D01*
X840Y1116D01*
X840Y1114D01*
X842Y1114D01*
X842Y1112D01*
X844Y1112D01*
X844Y1110D01*
X848Y1110D01*
X848Y1108D01*
X850Y1108D01*
X850Y1104D01*
X852Y1104D01*
X852Y1102D01*
X854Y1102D01*
X854Y1100D01*
X856Y1100D01*
X856Y1096D01*
X858Y1096D01*
X858Y1092D01*
X860Y1092D01*
X860Y1088D01*
X862Y1088D01*
X862Y1064D01*
X860Y1064D01*
X860Y1060D01*
X858Y1060D01*
X858Y1056D01*
X856Y1056D01*
X856Y1052D01*
X854Y1052D01*
X854Y1050D01*
X852Y1050D01*
X852Y1046D01*
X850Y1046D01*
X850Y1044D01*
X848Y1044D01*
X848Y1042D01*
X846Y1042D01*
X846Y1040D01*
X842Y1040D01*
X842Y1038D01*
X840Y1038D01*
X840Y1036D01*
X838Y1036D01*
X838Y1034D01*
X834Y1034D01*
X834Y1032D01*
X828Y1032D01*
X828Y1030D01*
X822Y1030D01*
X822Y1028D01*
X1516Y1028D01*
X1516Y1204D01*
X714Y1204D01*
G37*
D02*
G36*
X40Y1124D02*
X40Y1090D01*
X228Y1090D01*
X228Y1064D01*
X252Y1064D01*
X252Y1062D01*
X376Y1062D01*
X376Y1060D01*
X448Y1060D01*
X448Y1058D01*
X454Y1058D01*
X454Y1056D01*
X456Y1056D01*
X456Y1054D01*
X458Y1054D01*
X458Y1052D01*
X460Y1052D01*
X460Y1050D01*
X462Y1050D01*
X462Y1048D01*
X464Y1048D01*
X464Y1046D01*
X466Y1046D01*
X466Y1044D01*
X468Y1044D01*
X468Y1042D01*
X470Y1042D01*
X470Y1040D01*
X472Y1040D01*
X472Y1038D01*
X474Y1038D01*
X474Y1036D01*
X476Y1036D01*
X476Y1034D01*
X478Y1034D01*
X478Y1030D01*
X480Y1030D01*
X480Y1028D01*
X482Y1028D01*
X482Y1026D01*
X484Y1026D01*
X484Y1024D01*
X486Y1024D01*
X486Y1022D01*
X488Y1022D01*
X488Y1020D01*
X490Y1020D01*
X490Y1018D01*
X492Y1018D01*
X492Y1016D01*
X494Y1016D01*
X494Y1014D01*
X496Y1014D01*
X496Y1012D01*
X498Y1012D01*
X498Y1010D01*
X500Y1010D01*
X500Y1006D01*
X502Y1006D01*
X502Y1004D01*
X504Y1004D01*
X504Y1002D01*
X506Y1002D01*
X506Y1000D01*
X508Y1000D01*
X508Y998D01*
X510Y998D01*
X510Y996D01*
X512Y996D01*
X512Y994D01*
X514Y994D01*
X514Y992D01*
X516Y992D01*
X516Y990D01*
X518Y990D01*
X518Y988D01*
X520Y988D01*
X520Y986D01*
X522Y986D01*
X522Y982D01*
X524Y982D01*
X524Y980D01*
X526Y980D01*
X526Y978D01*
X528Y978D01*
X528Y976D01*
X530Y976D01*
X530Y974D01*
X532Y974D01*
X532Y972D01*
X534Y972D01*
X534Y970D01*
X536Y970D01*
X536Y968D01*
X538Y968D01*
X538Y966D01*
X540Y966D01*
X540Y964D01*
X542Y964D01*
X542Y960D01*
X562Y960D01*
X562Y1028D01*
X552Y1028D01*
X552Y1030D01*
X546Y1030D01*
X546Y1032D01*
X542Y1032D01*
X542Y1034D01*
X538Y1034D01*
X538Y1036D01*
X534Y1036D01*
X534Y1038D01*
X532Y1038D01*
X532Y1040D01*
X530Y1040D01*
X530Y1042D01*
X528Y1042D01*
X528Y1044D01*
X526Y1044D01*
X526Y1046D01*
X524Y1046D01*
X524Y1048D01*
X522Y1048D01*
X522Y1050D01*
X520Y1050D01*
X520Y1054D01*
X518Y1054D01*
X518Y1058D01*
X516Y1058D01*
X516Y1062D01*
X514Y1062D01*
X514Y1068D01*
X512Y1068D01*
X512Y1084D01*
X514Y1084D01*
X514Y1090D01*
X516Y1090D01*
X516Y1094D01*
X518Y1094D01*
X518Y1098D01*
X520Y1098D01*
X520Y1102D01*
X522Y1102D01*
X522Y1104D01*
X524Y1104D01*
X524Y1106D01*
X526Y1106D01*
X526Y1108D01*
X528Y1108D01*
X528Y1110D01*
X530Y1110D01*
X530Y1112D01*
X532Y1112D01*
X532Y1114D01*
X536Y1114D01*
X536Y1116D01*
X538Y1116D01*
X538Y1118D01*
X542Y1118D01*
X542Y1120D01*
X548Y1120D01*
X548Y1122D01*
X556Y1122D01*
X556Y1124D01*
X40Y1124D01*
G37*
D02*
G36*
X714Y1124D02*
X714Y1056D01*
X716Y1056D01*
X716Y1028D01*
X808Y1028D01*
X808Y1030D01*
X802Y1030D01*
X802Y1032D01*
X798Y1032D01*
X798Y1034D01*
X794Y1034D01*
X794Y1036D01*
X790Y1036D01*
X790Y1038D01*
X788Y1038D01*
X788Y1040D01*
X786Y1040D01*
X786Y1042D01*
X784Y1042D01*
X784Y1044D01*
X782Y1044D01*
X782Y1046D01*
X780Y1046D01*
X780Y1048D01*
X778Y1048D01*
X778Y1050D01*
X776Y1050D01*
X776Y1054D01*
X774Y1054D01*
X774Y1056D01*
X772Y1056D01*
X772Y1062D01*
X770Y1062D01*
X770Y1068D01*
X768Y1068D01*
X768Y1084D01*
X770Y1084D01*
X770Y1090D01*
X772Y1090D01*
X772Y1094D01*
X774Y1094D01*
X774Y1098D01*
X776Y1098D01*
X776Y1102D01*
X778Y1102D01*
X778Y1104D01*
X780Y1104D01*
X780Y1106D01*
X782Y1106D01*
X782Y1108D01*
X784Y1108D01*
X784Y1110D01*
X786Y1110D01*
X786Y1112D01*
X788Y1112D01*
X788Y1114D01*
X790Y1114D01*
X790Y1116D01*
X794Y1116D01*
X794Y1118D01*
X798Y1118D01*
X798Y1120D01*
X804Y1120D01*
X804Y1122D01*
X810Y1122D01*
X810Y1124D01*
X714Y1124D01*
G37*
D02*
G36*
X106Y1090D02*
X106Y1030D01*
X108Y1030D01*
X108Y1028D01*
X110Y1028D01*
X110Y1026D01*
X112Y1026D01*
X112Y1024D01*
X114Y1024D01*
X114Y1022D01*
X116Y1022D01*
X116Y1020D01*
X118Y1020D01*
X118Y1018D01*
X120Y1018D01*
X120Y1016D01*
X122Y1016D01*
X122Y1014D01*
X124Y1014D01*
X124Y1012D01*
X126Y1012D01*
X126Y1010D01*
X146Y1010D01*
X146Y1090D01*
X106Y1090D01*
G37*
D02*
G36*
X716Y1028D02*
X716Y1026D01*
X1516Y1026D01*
X1516Y1028D01*
X716Y1028D01*
G37*
D02*
G36*
X716Y1028D02*
X716Y1026D01*
X1516Y1026D01*
X1516Y1028D01*
X716Y1028D01*
G37*
D02*
G36*
X716Y1026D02*
X716Y930D01*
X1050Y930D01*
X1050Y1026D01*
X716Y1026D01*
G37*
D02*
G36*
X1132Y1026D02*
X1132Y930D01*
X1172Y930D01*
X1172Y1026D01*
X1132Y1026D01*
G37*
D02*
G36*
X1254Y1026D02*
X1254Y1022D01*
X1378Y1022D01*
X1378Y928D01*
X1376Y928D01*
X1376Y926D01*
X1418Y926D01*
X1418Y928D01*
X1416Y928D01*
X1416Y1022D01*
X1516Y1022D01*
X1516Y1026D01*
X1254Y1026D01*
G37*
D02*
G36*
X1254Y1022D02*
X1254Y998D01*
X1294Y998D01*
X1294Y1022D01*
X1254Y1022D01*
G37*
D02*
G36*
X1254Y954D02*
X1254Y930D01*
X1294Y930D01*
X1294Y954D01*
X1254Y954D01*
G37*
D02*
G36*
X716Y930D02*
X716Y928D01*
X1294Y928D01*
X1294Y930D01*
X716Y930D01*
G37*
D02*
G36*
X716Y930D02*
X716Y928D01*
X1294Y928D01*
X1294Y930D01*
X716Y930D01*
G37*
D02*
G36*
X716Y930D02*
X716Y928D01*
X1294Y928D01*
X1294Y930D01*
X716Y930D01*
G37*
D02*
G36*
X716Y928D02*
X716Y926D01*
X1296Y926D01*
X1296Y928D01*
X716Y928D01*
G37*
D02*
G36*
X716Y926D02*
X716Y924D01*
X1436Y924D01*
X1436Y926D01*
X716Y926D01*
G37*
D02*
G36*
X716Y926D02*
X716Y924D01*
X1436Y924D01*
X1436Y926D01*
X716Y926D01*
G37*
D02*
G36*
X716Y924D02*
X716Y914D01*
X996Y914D01*
X996Y912D01*
X998Y912D01*
X998Y850D01*
X1252Y850D01*
X1252Y848D01*
X1254Y848D01*
X1254Y750D01*
X1302Y750D01*
X1302Y752D01*
X1304Y752D01*
X1304Y754D01*
X1306Y754D01*
X1306Y756D01*
X1308Y756D01*
X1308Y758D01*
X1310Y758D01*
X1310Y760D01*
X1312Y760D01*
X1312Y762D01*
X1314Y762D01*
X1314Y764D01*
X1316Y764D01*
X1316Y766D01*
X1318Y766D01*
X1318Y768D01*
X1320Y768D01*
X1320Y770D01*
X1322Y770D01*
X1322Y772D01*
X1324Y772D01*
X1324Y774D01*
X1326Y774D01*
X1326Y776D01*
X1328Y776D01*
X1328Y778D01*
X1330Y778D01*
X1330Y780D01*
X1332Y780D01*
X1332Y782D01*
X1334Y782D01*
X1334Y784D01*
X1336Y784D01*
X1336Y786D01*
X1338Y786D01*
X1338Y788D01*
X1340Y788D01*
X1340Y790D01*
X1342Y790D01*
X1342Y792D01*
X1344Y792D01*
X1344Y794D01*
X1346Y794D01*
X1346Y796D01*
X1348Y796D01*
X1348Y798D01*
X1350Y798D01*
X1350Y800D01*
X1352Y800D01*
X1352Y802D01*
X1354Y802D01*
X1354Y804D01*
X1356Y804D01*
X1356Y806D01*
X1358Y806D01*
X1358Y808D01*
X1360Y808D01*
X1360Y810D01*
X1362Y810D01*
X1362Y812D01*
X1364Y812D01*
X1364Y814D01*
X1366Y814D01*
X1366Y816D01*
X1368Y816D01*
X1368Y818D01*
X1370Y818D01*
X1370Y820D01*
X1372Y820D01*
X1372Y822D01*
X1374Y822D01*
X1374Y824D01*
X1376Y824D01*
X1376Y826D01*
X1378Y826D01*
X1378Y828D01*
X1380Y828D01*
X1380Y830D01*
X1382Y830D01*
X1382Y832D01*
X1384Y832D01*
X1384Y834D01*
X1386Y834D01*
X1386Y836D01*
X1388Y836D01*
X1388Y838D01*
X1390Y838D01*
X1390Y840D01*
X1392Y840D01*
X1392Y842D01*
X1394Y842D01*
X1394Y844D01*
X1396Y844D01*
X1396Y846D01*
X1398Y846D01*
X1398Y848D01*
X1400Y848D01*
X1400Y850D01*
X1402Y850D01*
X1402Y852D01*
X1404Y852D01*
X1404Y854D01*
X1406Y854D01*
X1406Y856D01*
X1408Y856D01*
X1408Y858D01*
X1410Y858D01*
X1410Y860D01*
X1412Y860D01*
X1412Y862D01*
X1414Y862D01*
X1414Y864D01*
X1416Y864D01*
X1416Y866D01*
X1418Y866D01*
X1418Y868D01*
X1420Y868D01*
X1420Y870D01*
X1422Y870D01*
X1422Y872D01*
X1424Y872D01*
X1424Y874D01*
X1426Y874D01*
X1426Y876D01*
X1428Y876D01*
X1428Y878D01*
X1430Y878D01*
X1430Y880D01*
X1432Y880D01*
X1432Y882D01*
X1434Y882D01*
X1434Y884D01*
X1436Y884D01*
X1436Y924D01*
X716Y924D01*
G37*
D02*
G36*
X716Y914D02*
X716Y912D01*
X796Y912D01*
X796Y910D01*
X802Y910D01*
X802Y908D01*
X806Y908D01*
X806Y906D01*
X808Y906D01*
X808Y904D01*
X810Y904D01*
X810Y902D01*
X812Y902D01*
X812Y900D01*
X814Y900D01*
X814Y898D01*
X816Y898D01*
X816Y894D01*
X818Y894D01*
X818Y890D01*
X820Y890D01*
X820Y874D01*
X818Y874D01*
X818Y870D01*
X816Y870D01*
X816Y866D01*
X814Y866D01*
X814Y864D01*
X812Y864D01*
X812Y862D01*
X810Y862D01*
X810Y860D01*
X808Y860D01*
X808Y858D01*
X804Y858D01*
X804Y856D01*
X802Y856D01*
X802Y854D01*
X796Y854D01*
X796Y852D01*
X888Y852D01*
X888Y912D01*
X890Y912D01*
X890Y914D01*
X716Y914D01*
G37*
D02*
G36*
X716Y912D02*
X716Y852D01*
X786Y852D01*
X786Y854D01*
X780Y854D01*
X780Y856D01*
X778Y856D01*
X778Y858D01*
X774Y858D01*
X774Y860D01*
X772Y860D01*
X772Y862D01*
X770Y862D01*
X770Y864D01*
X768Y864D01*
X768Y866D01*
X766Y866D01*
X766Y870D01*
X764Y870D01*
X764Y874D01*
X762Y874D01*
X762Y890D01*
X764Y890D01*
X764Y894D01*
X766Y894D01*
X766Y898D01*
X768Y898D01*
X768Y900D01*
X770Y900D01*
X770Y902D01*
X772Y902D01*
X772Y904D01*
X774Y904D01*
X774Y906D01*
X776Y906D01*
X776Y908D01*
X780Y908D01*
X780Y910D01*
X786Y910D01*
X786Y912D01*
X716Y912D01*
G37*
D02*
G36*
X232Y856D02*
X232Y854D01*
X230Y854D01*
X230Y852D01*
X228Y852D01*
X228Y850D01*
X226Y850D01*
X226Y848D01*
X224Y848D01*
X224Y846D01*
X222Y846D01*
X222Y844D01*
X220Y844D01*
X220Y842D01*
X218Y842D01*
X218Y840D01*
X216Y840D01*
X216Y838D01*
X214Y838D01*
X214Y836D01*
X212Y836D01*
X212Y834D01*
X210Y834D01*
X210Y832D01*
X208Y832D01*
X208Y830D01*
X206Y830D01*
X206Y828D01*
X204Y828D01*
X204Y826D01*
X202Y826D01*
X202Y824D01*
X200Y824D01*
X200Y822D01*
X198Y822D01*
X198Y820D01*
X196Y820D01*
X196Y818D01*
X194Y818D01*
X194Y816D01*
X192Y816D01*
X192Y814D01*
X190Y814D01*
X190Y812D01*
X188Y812D01*
X188Y810D01*
X186Y810D01*
X186Y808D01*
X184Y808D01*
X184Y806D01*
X182Y806D01*
X182Y804D01*
X180Y804D01*
X180Y802D01*
X178Y802D01*
X178Y800D01*
X176Y800D01*
X176Y798D01*
X174Y798D01*
X174Y796D01*
X172Y796D01*
X172Y794D01*
X170Y794D01*
X170Y792D01*
X168Y792D01*
X168Y790D01*
X166Y790D01*
X166Y788D01*
X164Y788D01*
X164Y786D01*
X162Y786D01*
X162Y784D01*
X160Y784D01*
X160Y782D01*
X158Y782D01*
X158Y780D01*
X156Y780D01*
X156Y778D01*
X154Y778D01*
X154Y776D01*
X152Y776D01*
X152Y774D01*
X150Y774D01*
X150Y772D01*
X148Y772D01*
X148Y770D01*
X146Y770D01*
X146Y768D01*
X144Y768D01*
X144Y766D01*
X142Y766D01*
X142Y764D01*
X140Y764D01*
X140Y762D01*
X138Y762D01*
X138Y760D01*
X136Y760D01*
X136Y758D01*
X134Y758D01*
X134Y756D01*
X132Y756D01*
X132Y754D01*
X130Y754D01*
X130Y752D01*
X128Y752D01*
X128Y750D01*
X126Y750D01*
X126Y748D01*
X124Y748D01*
X124Y746D01*
X122Y746D01*
X122Y744D01*
X120Y744D01*
X120Y742D01*
X118Y742D01*
X118Y740D01*
X116Y740D01*
X116Y738D01*
X114Y738D01*
X114Y736D01*
X112Y736D01*
X112Y734D01*
X110Y734D01*
X110Y732D01*
X108Y732D01*
X108Y730D01*
X106Y730D01*
X106Y728D01*
X104Y728D01*
X104Y726D01*
X102Y726D01*
X102Y724D01*
X100Y724D01*
X100Y722D01*
X98Y722D01*
X98Y720D01*
X96Y720D01*
X96Y718D01*
X94Y718D01*
X94Y716D01*
X92Y716D01*
X92Y714D01*
X90Y714D01*
X90Y712D01*
X88Y712D01*
X88Y710D01*
X86Y710D01*
X86Y708D01*
X84Y708D01*
X84Y706D01*
X82Y706D01*
X82Y670D01*
X84Y670D01*
X84Y620D01*
X178Y620D01*
X178Y618D01*
X184Y618D01*
X184Y616D01*
X188Y616D01*
X188Y614D01*
X190Y614D01*
X190Y612D01*
X194Y612D01*
X194Y610D01*
X196Y610D01*
X196Y608D01*
X198Y608D01*
X198Y606D01*
X200Y606D01*
X200Y604D01*
X202Y604D01*
X202Y602D01*
X204Y602D01*
X204Y600D01*
X206Y600D01*
X206Y598D01*
X208Y598D01*
X208Y594D01*
X210Y594D01*
X210Y590D01*
X212Y590D01*
X212Y584D01*
X214Y584D01*
X214Y562D01*
X212Y562D01*
X212Y556D01*
X210Y556D01*
X210Y552D01*
X208Y552D01*
X208Y550D01*
X206Y550D01*
X206Y546D01*
X204Y546D01*
X204Y544D01*
X202Y544D01*
X202Y542D01*
X200Y542D01*
X200Y540D01*
X198Y540D01*
X198Y538D01*
X196Y538D01*
X196Y536D01*
X192Y536D01*
X192Y534D01*
X190Y534D01*
X190Y512D01*
X194Y512D01*
X194Y510D01*
X196Y510D01*
X196Y508D01*
X198Y508D01*
X198Y506D01*
X200Y506D01*
X200Y504D01*
X202Y504D01*
X202Y502D01*
X204Y502D01*
X204Y500D01*
X206Y500D01*
X206Y498D01*
X208Y498D01*
X208Y494D01*
X210Y494D01*
X210Y490D01*
X212Y490D01*
X212Y484D01*
X214Y484D01*
X214Y462D01*
X212Y462D01*
X212Y456D01*
X210Y456D01*
X210Y452D01*
X208Y452D01*
X208Y450D01*
X206Y450D01*
X206Y446D01*
X204Y446D01*
X204Y444D01*
X202Y444D01*
X202Y442D01*
X200Y442D01*
X200Y440D01*
X198Y440D01*
X198Y438D01*
X196Y438D01*
X196Y436D01*
X192Y436D01*
X192Y434D01*
X190Y434D01*
X190Y412D01*
X194Y412D01*
X194Y410D01*
X196Y410D01*
X196Y408D01*
X198Y408D01*
X198Y406D01*
X200Y406D01*
X200Y404D01*
X202Y404D01*
X202Y402D01*
X204Y402D01*
X204Y400D01*
X206Y400D01*
X206Y398D01*
X208Y398D01*
X208Y394D01*
X210Y394D01*
X210Y390D01*
X212Y390D01*
X212Y384D01*
X214Y384D01*
X214Y362D01*
X212Y362D01*
X212Y356D01*
X210Y356D01*
X210Y352D01*
X208Y352D01*
X208Y350D01*
X206Y350D01*
X206Y346D01*
X204Y346D01*
X204Y344D01*
X202Y344D01*
X202Y342D01*
X200Y342D01*
X200Y340D01*
X198Y340D01*
X198Y338D01*
X196Y338D01*
X196Y336D01*
X192Y336D01*
X192Y334D01*
X190Y334D01*
X190Y332D01*
X186Y332D01*
X186Y330D01*
X182Y330D01*
X182Y328D01*
X174Y328D01*
X174Y326D01*
X268Y326D01*
X268Y856D01*
X232Y856D01*
G37*
D02*
G36*
X716Y852D02*
X716Y850D01*
X888Y850D01*
X888Y852D01*
X716Y852D01*
G37*
D02*
G36*
X716Y852D02*
X716Y850D01*
X888Y850D01*
X888Y852D01*
X716Y852D01*
G37*
D02*
G36*
X716Y850D02*
X716Y770D01*
X718Y770D01*
X718Y768D01*
X720Y768D01*
X720Y766D01*
X722Y766D01*
X722Y764D01*
X724Y764D01*
X724Y762D01*
X726Y762D01*
X726Y760D01*
X728Y760D01*
X728Y758D01*
X730Y758D01*
X730Y756D01*
X732Y756D01*
X732Y754D01*
X734Y754D01*
X734Y752D01*
X736Y752D01*
X736Y750D01*
X738Y750D01*
X738Y748D01*
X740Y748D01*
X740Y746D01*
X742Y746D01*
X742Y744D01*
X744Y744D01*
X744Y742D01*
X746Y742D01*
X746Y740D01*
X748Y740D01*
X748Y738D01*
X750Y738D01*
X750Y736D01*
X752Y736D01*
X752Y734D01*
X754Y734D01*
X754Y732D01*
X756Y732D01*
X756Y730D01*
X758Y730D01*
X758Y728D01*
X760Y728D01*
X760Y726D01*
X762Y726D01*
X762Y724D01*
X766Y724D01*
X766Y722D01*
X768Y722D01*
X768Y720D01*
X770Y720D01*
X770Y718D01*
X772Y718D01*
X772Y716D01*
X774Y716D01*
X774Y714D01*
X776Y714D01*
X776Y712D01*
X778Y712D01*
X778Y710D01*
X780Y710D01*
X780Y708D01*
X782Y708D01*
X782Y706D01*
X784Y706D01*
X784Y704D01*
X786Y704D01*
X786Y702D01*
X788Y702D01*
X788Y700D01*
X790Y700D01*
X790Y698D01*
X792Y698D01*
X792Y696D01*
X794Y696D01*
X794Y694D01*
X796Y694D01*
X796Y692D01*
X798Y692D01*
X798Y690D01*
X800Y690D01*
X800Y688D01*
X802Y688D01*
X802Y686D01*
X804Y686D01*
X804Y684D01*
X806Y684D01*
X806Y682D01*
X808Y682D01*
X808Y680D01*
X810Y680D01*
X810Y678D01*
X812Y678D01*
X812Y676D01*
X814Y676D01*
X814Y674D01*
X818Y674D01*
X818Y672D01*
X820Y672D01*
X820Y670D01*
X822Y670D01*
X822Y668D01*
X824Y668D01*
X824Y666D01*
X888Y666D01*
X888Y850D01*
X716Y850D01*
G37*
D02*
G36*
X998Y850D02*
X998Y824D01*
X1048Y824D01*
X1048Y850D01*
X998Y850D01*
G37*
D02*
G36*
X1130Y850D02*
X1130Y848D01*
X1132Y848D01*
X1132Y748D01*
X1170Y748D01*
X1170Y850D01*
X1130Y850D01*
G37*
D02*
G36*
X84Y620D02*
X84Y604D01*
X86Y604D01*
X86Y602D01*
X88Y602D01*
X88Y600D01*
X90Y600D01*
X90Y598D01*
X92Y598D01*
X92Y594D01*
X94Y594D01*
X94Y592D01*
X96Y592D01*
X96Y590D01*
X98Y590D01*
X98Y588D01*
X100Y588D01*
X100Y586D01*
X102Y586D01*
X102Y584D01*
X122Y584D01*
X122Y586D01*
X124Y586D01*
X124Y590D01*
X126Y590D01*
X126Y594D01*
X128Y594D01*
X128Y598D01*
X130Y598D01*
X130Y600D01*
X132Y600D01*
X132Y602D01*
X134Y602D01*
X134Y604D01*
X136Y604D01*
X136Y606D01*
X138Y606D01*
X138Y608D01*
X140Y608D01*
X140Y610D01*
X142Y610D01*
X142Y612D01*
X144Y612D01*
X144Y614D01*
X148Y614D01*
X148Y616D01*
X152Y616D01*
X152Y618D01*
X158Y618D01*
X158Y620D01*
X84Y620D01*
G37*
D02*
G36*
X40Y566D02*
X40Y326D01*
X162Y326D01*
X162Y328D01*
X154Y328D01*
X154Y330D01*
X150Y330D01*
X150Y332D01*
X146Y332D01*
X146Y334D01*
X142Y334D01*
X142Y336D01*
X140Y336D01*
X140Y338D01*
X138Y338D01*
X138Y340D01*
X136Y340D01*
X136Y342D01*
X134Y342D01*
X134Y344D01*
X132Y344D01*
X132Y346D01*
X130Y346D01*
X130Y350D01*
X128Y350D01*
X128Y352D01*
X126Y352D01*
X126Y356D01*
X124Y356D01*
X124Y362D01*
X122Y362D01*
X122Y372D01*
X120Y372D01*
X120Y374D01*
X122Y374D01*
X122Y386D01*
X124Y386D01*
X124Y390D01*
X126Y390D01*
X126Y394D01*
X128Y394D01*
X128Y398D01*
X130Y398D01*
X130Y400D01*
X132Y400D01*
X132Y402D01*
X134Y402D01*
X134Y404D01*
X136Y404D01*
X136Y406D01*
X138Y406D01*
X138Y408D01*
X140Y408D01*
X140Y410D01*
X142Y410D01*
X142Y412D01*
X144Y412D01*
X144Y414D01*
X146Y414D01*
X146Y434D01*
X142Y434D01*
X142Y436D01*
X140Y436D01*
X140Y438D01*
X138Y438D01*
X138Y440D01*
X136Y440D01*
X136Y442D01*
X134Y442D01*
X134Y444D01*
X132Y444D01*
X132Y446D01*
X130Y446D01*
X130Y450D01*
X128Y450D01*
X128Y452D01*
X126Y452D01*
X126Y456D01*
X124Y456D01*
X124Y462D01*
X122Y462D01*
X122Y472D01*
X120Y472D01*
X120Y474D01*
X122Y474D01*
X122Y494D01*
X120Y494D01*
X120Y496D01*
X118Y496D01*
X118Y500D01*
X116Y500D01*
X116Y502D01*
X114Y502D01*
X114Y504D01*
X112Y504D01*
X112Y506D01*
X110Y506D01*
X110Y508D01*
X108Y508D01*
X108Y510D01*
X106Y510D01*
X106Y514D01*
X104Y514D01*
X104Y516D01*
X102Y516D01*
X102Y518D01*
X100Y518D01*
X100Y520D01*
X98Y520D01*
X98Y522D01*
X96Y522D01*
X96Y524D01*
X94Y524D01*
X94Y528D01*
X92Y528D01*
X92Y530D01*
X90Y530D01*
X90Y532D01*
X88Y532D01*
X88Y534D01*
X86Y534D01*
X86Y536D01*
X84Y536D01*
X84Y538D01*
X82Y538D01*
X82Y542D01*
X80Y542D01*
X80Y544D01*
X78Y544D01*
X78Y546D01*
X76Y546D01*
X76Y548D01*
X74Y548D01*
X74Y550D01*
X72Y550D01*
X72Y552D01*
X70Y552D01*
X70Y556D01*
X68Y556D01*
X68Y558D01*
X66Y558D01*
X66Y560D01*
X64Y560D01*
X64Y562D01*
X62Y562D01*
X62Y564D01*
X60Y564D01*
X60Y566D01*
X40Y566D01*
G37*
D02*
G36*
X40Y326D02*
X40Y324D01*
X268Y324D01*
X268Y326D01*
X40Y326D01*
G37*
D02*
G36*
X40Y326D02*
X40Y324D01*
X268Y324D01*
X268Y326D01*
X40Y326D01*
G37*
D02*
G36*
X40Y324D02*
X40Y294D01*
X270Y294D01*
X270Y296D01*
X268Y296D01*
X268Y324D01*
X40Y324D01*
G37*
D02*
G36*
X998Y306D02*
X998Y296D01*
X996Y296D01*
X996Y294D01*
X1058Y294D01*
X1058Y296D01*
X1056Y296D01*
X1056Y298D01*
X1054Y298D01*
X1054Y300D01*
X1052Y300D01*
X1052Y302D01*
X1050Y302D01*
X1050Y304D01*
X1048Y304D01*
X1048Y306D01*
X998Y306D01*
G37*
D02*
G36*
X40Y294D02*
X40Y292D01*
X1060Y292D01*
X1060Y294D01*
X40Y294D01*
G37*
D02*
G36*
X40Y294D02*
X40Y292D01*
X1060Y292D01*
X1060Y294D01*
X40Y294D01*
G37*
D02*
G36*
X40Y294D02*
X40Y292D01*
X1060Y292D01*
X1060Y294D01*
X40Y294D01*
G37*
D02*
G36*
X40Y292D02*
X40Y136D01*
X98Y136D01*
X98Y134D01*
X1096Y134D01*
X1096Y132D01*
X1102Y132D01*
X1102Y130D01*
X1106Y130D01*
X1106Y128D01*
X1110Y128D01*
X1110Y126D01*
X1114Y126D01*
X1114Y124D01*
X1116Y124D01*
X1116Y122D01*
X1118Y122D01*
X1118Y120D01*
X1120Y120D01*
X1120Y118D01*
X1122Y118D01*
X1122Y116D01*
X1124Y116D01*
X1124Y114D01*
X1126Y114D01*
X1126Y112D01*
X1148Y112D01*
X1148Y114D01*
X1150Y114D01*
X1150Y116D01*
X1152Y116D01*
X1152Y118D01*
X1154Y118D01*
X1154Y120D01*
X1156Y120D01*
X1156Y122D01*
X1158Y122D01*
X1158Y124D01*
X1160Y124D01*
X1160Y126D01*
X1164Y126D01*
X1164Y128D01*
X1166Y128D01*
X1166Y130D01*
X1170Y130D01*
X1170Y132D01*
X1176Y132D01*
X1176Y134D01*
X1192Y134D01*
X1192Y154D01*
X1190Y154D01*
X1190Y156D01*
X1188Y156D01*
X1188Y158D01*
X1186Y158D01*
X1186Y160D01*
X1184Y160D01*
X1184Y162D01*
X1182Y162D01*
X1182Y164D01*
X1180Y164D01*
X1180Y166D01*
X1178Y166D01*
X1178Y170D01*
X1176Y170D01*
X1176Y172D01*
X1174Y172D01*
X1174Y174D01*
X1172Y174D01*
X1172Y176D01*
X1170Y176D01*
X1170Y178D01*
X1168Y178D01*
X1168Y180D01*
X1166Y180D01*
X1166Y182D01*
X1164Y182D01*
X1164Y184D01*
X1162Y184D01*
X1162Y186D01*
X1160Y186D01*
X1160Y188D01*
X1158Y188D01*
X1158Y190D01*
X1156Y190D01*
X1156Y192D01*
X1154Y192D01*
X1154Y194D01*
X1152Y194D01*
X1152Y196D01*
X1150Y196D01*
X1150Y198D01*
X1148Y198D01*
X1148Y200D01*
X1146Y200D01*
X1146Y202D01*
X1144Y202D01*
X1144Y204D01*
X1142Y204D01*
X1142Y206D01*
X1140Y206D01*
X1140Y210D01*
X1138Y210D01*
X1138Y212D01*
X1136Y212D01*
X1136Y214D01*
X1134Y214D01*
X1134Y216D01*
X1132Y216D01*
X1132Y218D01*
X1130Y218D01*
X1130Y220D01*
X1128Y220D01*
X1128Y222D01*
X1126Y222D01*
X1126Y224D01*
X1124Y224D01*
X1124Y226D01*
X1122Y226D01*
X1122Y228D01*
X1120Y228D01*
X1120Y230D01*
X1118Y230D01*
X1118Y232D01*
X1116Y232D01*
X1116Y234D01*
X1114Y234D01*
X1114Y236D01*
X1112Y236D01*
X1112Y238D01*
X1110Y238D01*
X1110Y240D01*
X1108Y240D01*
X1108Y242D01*
X1106Y242D01*
X1106Y244D01*
X1104Y244D01*
X1104Y246D01*
X1102Y246D01*
X1102Y248D01*
X1100Y248D01*
X1100Y252D01*
X1098Y252D01*
X1098Y254D01*
X1096Y254D01*
X1096Y256D01*
X1094Y256D01*
X1094Y258D01*
X1092Y258D01*
X1092Y260D01*
X1090Y260D01*
X1090Y262D01*
X1088Y262D01*
X1088Y264D01*
X1086Y264D01*
X1086Y266D01*
X1084Y266D01*
X1084Y268D01*
X1082Y268D01*
X1082Y270D01*
X1080Y270D01*
X1080Y272D01*
X1078Y272D01*
X1078Y274D01*
X1076Y274D01*
X1076Y276D01*
X1074Y276D01*
X1074Y278D01*
X1072Y278D01*
X1072Y280D01*
X1070Y280D01*
X1070Y282D01*
X1068Y282D01*
X1068Y284D01*
X1066Y284D01*
X1066Y286D01*
X1064Y286D01*
X1064Y288D01*
X1062Y288D01*
X1062Y292D01*
X40Y292D01*
G37*
D02*
G36*
X40Y136D02*
X40Y128D01*
X60Y128D01*
X60Y130D01*
X64Y130D01*
X64Y132D01*
X68Y132D01*
X68Y134D01*
X74Y134D01*
X74Y136D01*
X40Y136D01*
G37*
D02*
G36*
X104Y134D02*
X104Y132D01*
X108Y132D01*
X108Y130D01*
X112Y130D01*
X112Y128D01*
X116Y128D01*
X116Y126D01*
X118Y126D01*
X118Y124D01*
X120Y124D01*
X120Y122D01*
X122Y122D01*
X122Y120D01*
X124Y120D01*
X124Y118D01*
X126Y118D01*
X126Y116D01*
X128Y116D01*
X128Y114D01*
X130Y114D01*
X130Y110D01*
X132Y110D01*
X132Y108D01*
X134Y108D01*
X134Y104D01*
X136Y104D01*
X136Y98D01*
X138Y98D01*
X138Y88D01*
X140Y88D01*
X140Y78D01*
X138Y78D01*
X138Y68D01*
X136Y68D01*
X136Y64D01*
X134Y64D01*
X134Y60D01*
X132Y60D01*
X132Y40D01*
X1048Y40D01*
X1048Y60D01*
X1046Y60D01*
X1046Y62D01*
X1044Y62D01*
X1044Y66D01*
X1042Y66D01*
X1042Y70D01*
X1040Y70D01*
X1040Y76D01*
X1038Y76D01*
X1038Y94D01*
X1040Y94D01*
X1040Y100D01*
X1042Y100D01*
X1042Y106D01*
X1044Y106D01*
X1044Y108D01*
X1046Y108D01*
X1046Y112D01*
X1048Y112D01*
X1048Y114D01*
X1050Y114D01*
X1050Y116D01*
X1052Y116D01*
X1052Y118D01*
X1054Y118D01*
X1054Y120D01*
X1056Y120D01*
X1056Y122D01*
X1058Y122D01*
X1058Y124D01*
X1060Y124D01*
X1060Y126D01*
X1064Y126D01*
X1064Y128D01*
X1066Y128D01*
X1066Y130D01*
X1070Y130D01*
X1070Y132D01*
X1076Y132D01*
X1076Y134D01*
X104Y134D01*
G37*
D02*
G36*
X1540Y824D02*
X1540Y822D01*
X1538Y822D01*
X1538Y820D01*
X1536Y820D01*
X1536Y818D01*
X1534Y818D01*
X1534Y816D01*
X1532Y816D01*
X1532Y814D01*
X1530Y814D01*
X1530Y812D01*
X1528Y812D01*
X1528Y810D01*
X1526Y810D01*
X1526Y808D01*
X1524Y808D01*
X1524Y806D01*
X1522Y806D01*
X1522Y804D01*
X1520Y804D01*
X1520Y802D01*
X1518Y802D01*
X1518Y800D01*
X1516Y800D01*
X1516Y798D01*
X1514Y798D01*
X1514Y796D01*
X1512Y796D01*
X1512Y794D01*
X1510Y794D01*
X1510Y792D01*
X1508Y792D01*
X1508Y790D01*
X1506Y790D01*
X1506Y788D01*
X1504Y788D01*
X1504Y786D01*
X1502Y786D01*
X1502Y784D01*
X1500Y784D01*
X1500Y782D01*
X1498Y782D01*
X1498Y780D01*
X1496Y780D01*
X1496Y778D01*
X1494Y778D01*
X1494Y776D01*
X1492Y776D01*
X1492Y774D01*
X1490Y774D01*
X1490Y772D01*
X1488Y772D01*
X1488Y770D01*
X1486Y770D01*
X1486Y768D01*
X1484Y768D01*
X1484Y766D01*
X1482Y766D01*
X1482Y764D01*
X1480Y764D01*
X1480Y762D01*
X1478Y762D01*
X1478Y760D01*
X1476Y760D01*
X1476Y758D01*
X1474Y758D01*
X1474Y756D01*
X1472Y756D01*
X1472Y754D01*
X1470Y754D01*
X1470Y752D01*
X1468Y752D01*
X1468Y750D01*
X1466Y750D01*
X1466Y748D01*
X1464Y748D01*
X1464Y746D01*
X1462Y746D01*
X1462Y744D01*
X1460Y744D01*
X1460Y742D01*
X1458Y742D01*
X1458Y740D01*
X1456Y740D01*
X1456Y738D01*
X1454Y738D01*
X1454Y736D01*
X1452Y736D01*
X1452Y734D01*
X1450Y734D01*
X1450Y732D01*
X1448Y732D01*
X1448Y730D01*
X1446Y730D01*
X1446Y728D01*
X1444Y728D01*
X1444Y726D01*
X1442Y726D01*
X1442Y724D01*
X1440Y724D01*
X1440Y722D01*
X1438Y722D01*
X1438Y720D01*
X1436Y720D01*
X1436Y718D01*
X1434Y718D01*
X1434Y716D01*
X1432Y716D01*
X1432Y714D01*
X1430Y714D01*
X1430Y712D01*
X1428Y712D01*
X1428Y710D01*
X1426Y710D01*
X1426Y708D01*
X1424Y708D01*
X1424Y706D01*
X1422Y706D01*
X1422Y704D01*
X1420Y704D01*
X1420Y702D01*
X1418Y702D01*
X1418Y700D01*
X1416Y700D01*
X1416Y698D01*
X1414Y698D01*
X1414Y696D01*
X1412Y696D01*
X1412Y694D01*
X1410Y694D01*
X1410Y692D01*
X1408Y692D01*
X1408Y690D01*
X1406Y690D01*
X1406Y688D01*
X1404Y688D01*
X1404Y686D01*
X1402Y686D01*
X1402Y684D01*
X1400Y684D01*
X1400Y682D01*
X1398Y682D01*
X1398Y680D01*
X1396Y680D01*
X1396Y678D01*
X1394Y678D01*
X1394Y676D01*
X1392Y676D01*
X1392Y674D01*
X1390Y674D01*
X1390Y672D01*
X1388Y672D01*
X1388Y670D01*
X1386Y670D01*
X1386Y668D01*
X1384Y668D01*
X1384Y666D01*
X1382Y666D01*
X1382Y664D01*
X1380Y664D01*
X1380Y662D01*
X1378Y662D01*
X1378Y660D01*
X1376Y660D01*
X1376Y658D01*
X1374Y658D01*
X1374Y656D01*
X1372Y656D01*
X1372Y654D01*
X1370Y654D01*
X1370Y652D01*
X1368Y652D01*
X1368Y650D01*
X1366Y650D01*
X1366Y648D01*
X1364Y648D01*
X1364Y646D01*
X1362Y646D01*
X1362Y644D01*
X1360Y644D01*
X1360Y642D01*
X1358Y642D01*
X1358Y640D01*
X1356Y640D01*
X1356Y638D01*
X1354Y638D01*
X1354Y636D01*
X1352Y636D01*
X1352Y634D01*
X1350Y634D01*
X1350Y632D01*
X1348Y632D01*
X1348Y630D01*
X1346Y630D01*
X1346Y628D01*
X1344Y628D01*
X1344Y626D01*
X1342Y626D01*
X1342Y624D01*
X1340Y624D01*
X1340Y622D01*
X1338Y622D01*
X1338Y620D01*
X1336Y620D01*
X1336Y618D01*
X1334Y618D01*
X1334Y616D01*
X1332Y616D01*
X1332Y614D01*
X1330Y614D01*
X1330Y612D01*
X1328Y612D01*
X1328Y610D01*
X1326Y610D01*
X1326Y608D01*
X1324Y608D01*
X1324Y606D01*
X1322Y606D01*
X1322Y604D01*
X1320Y604D01*
X1320Y602D01*
X1318Y602D01*
X1318Y600D01*
X1316Y600D01*
X1316Y598D01*
X1314Y598D01*
X1314Y596D01*
X1312Y596D01*
X1312Y594D01*
X1310Y594D01*
X1310Y592D01*
X1308Y592D01*
X1308Y590D01*
X1306Y590D01*
X1306Y588D01*
X1304Y588D01*
X1304Y586D01*
X1302Y586D01*
X1302Y584D01*
X1300Y584D01*
X1300Y582D01*
X1298Y582D01*
X1298Y580D01*
X1296Y580D01*
X1296Y578D01*
X1294Y578D01*
X1294Y576D01*
X1292Y576D01*
X1292Y574D01*
X1290Y574D01*
X1290Y572D01*
X1288Y572D01*
X1288Y570D01*
X1286Y570D01*
X1286Y568D01*
X1284Y568D01*
X1284Y566D01*
X1282Y566D01*
X1282Y564D01*
X1280Y564D01*
X1280Y562D01*
X1278Y562D01*
X1278Y560D01*
X1276Y560D01*
X1276Y558D01*
X1274Y558D01*
X1274Y556D01*
X1272Y556D01*
X1272Y554D01*
X1270Y554D01*
X1270Y552D01*
X1268Y552D01*
X1268Y550D01*
X1266Y550D01*
X1266Y548D01*
X1264Y548D01*
X1264Y546D01*
X1262Y546D01*
X1262Y544D01*
X1258Y544D01*
X1258Y542D01*
X1256Y542D01*
X1256Y540D01*
X1304Y540D01*
X1304Y542D01*
X1306Y542D01*
X1306Y544D01*
X1308Y544D01*
X1308Y546D01*
X1310Y546D01*
X1310Y548D01*
X1312Y548D01*
X1312Y550D01*
X1314Y550D01*
X1314Y552D01*
X1316Y552D01*
X1316Y556D01*
X1318Y556D01*
X1318Y558D01*
X1320Y558D01*
X1320Y560D01*
X1322Y560D01*
X1322Y562D01*
X1324Y562D01*
X1324Y564D01*
X1326Y564D01*
X1326Y566D01*
X1328Y566D01*
X1328Y568D01*
X1330Y568D01*
X1330Y570D01*
X1332Y570D01*
X1332Y572D01*
X1334Y572D01*
X1334Y574D01*
X1336Y574D01*
X1336Y576D01*
X1338Y576D01*
X1338Y578D01*
X1340Y578D01*
X1340Y580D01*
X1342Y580D01*
X1342Y582D01*
X1344Y582D01*
X1344Y584D01*
X1346Y584D01*
X1346Y586D01*
X1348Y586D01*
X1348Y588D01*
X1350Y588D01*
X1350Y590D01*
X1352Y590D01*
X1352Y592D01*
X1354Y592D01*
X1354Y594D01*
X1356Y594D01*
X1356Y596D01*
X1358Y596D01*
X1358Y598D01*
X1360Y598D01*
X1360Y600D01*
X1362Y600D01*
X1362Y602D01*
X1364Y602D01*
X1364Y604D01*
X1366Y604D01*
X1366Y608D01*
X1368Y608D01*
X1368Y610D01*
X1370Y610D01*
X1370Y612D01*
X1372Y612D01*
X1372Y614D01*
X1374Y614D01*
X1374Y616D01*
X1376Y616D01*
X1376Y618D01*
X1378Y618D01*
X1378Y620D01*
X1380Y620D01*
X1380Y622D01*
X1382Y622D01*
X1382Y624D01*
X1384Y624D01*
X1384Y626D01*
X1386Y626D01*
X1386Y628D01*
X1388Y628D01*
X1388Y630D01*
X1390Y630D01*
X1390Y632D01*
X1392Y632D01*
X1392Y634D01*
X1394Y634D01*
X1394Y636D01*
X1396Y636D01*
X1396Y638D01*
X1398Y638D01*
X1398Y640D01*
X1400Y640D01*
X1400Y642D01*
X1402Y642D01*
X1402Y644D01*
X1404Y644D01*
X1404Y646D01*
X1406Y646D01*
X1406Y648D01*
X1408Y648D01*
X1408Y650D01*
X1410Y650D01*
X1410Y652D01*
X1412Y652D01*
X1412Y654D01*
X1414Y654D01*
X1414Y656D01*
X1416Y656D01*
X1416Y660D01*
X1418Y660D01*
X1418Y662D01*
X1420Y662D01*
X1420Y664D01*
X1422Y664D01*
X1422Y666D01*
X1424Y666D01*
X1424Y668D01*
X1426Y668D01*
X1426Y670D01*
X1428Y670D01*
X1428Y672D01*
X1430Y672D01*
X1430Y674D01*
X1432Y674D01*
X1432Y676D01*
X1434Y676D01*
X1434Y678D01*
X1436Y678D01*
X1436Y680D01*
X1438Y680D01*
X1438Y682D01*
X1440Y682D01*
X1440Y684D01*
X1442Y684D01*
X1442Y686D01*
X1444Y686D01*
X1444Y688D01*
X1446Y688D01*
X1446Y690D01*
X1448Y690D01*
X1448Y692D01*
X1450Y692D01*
X1450Y694D01*
X1452Y694D01*
X1452Y696D01*
X1454Y696D01*
X1454Y698D01*
X1456Y698D01*
X1456Y700D01*
X1458Y700D01*
X1458Y702D01*
X1460Y702D01*
X1460Y704D01*
X1462Y704D01*
X1462Y706D01*
X1464Y706D01*
X1464Y708D01*
X1466Y708D01*
X1466Y712D01*
X1468Y712D01*
X1468Y714D01*
X1470Y714D01*
X1470Y716D01*
X1472Y716D01*
X1472Y718D01*
X1474Y718D01*
X1474Y720D01*
X1476Y720D01*
X1476Y722D01*
X1478Y722D01*
X1478Y724D01*
X1480Y724D01*
X1480Y726D01*
X1482Y726D01*
X1482Y728D01*
X1484Y728D01*
X1484Y730D01*
X1486Y730D01*
X1486Y732D01*
X1488Y732D01*
X1488Y734D01*
X1490Y734D01*
X1490Y736D01*
X1492Y736D01*
X1492Y738D01*
X1494Y738D01*
X1494Y740D01*
X1496Y740D01*
X1496Y742D01*
X1498Y742D01*
X1498Y744D01*
X1500Y744D01*
X1500Y746D01*
X1502Y746D01*
X1502Y748D01*
X1504Y748D01*
X1504Y750D01*
X1506Y750D01*
X1506Y752D01*
X1508Y752D01*
X1508Y754D01*
X1510Y754D01*
X1510Y756D01*
X1512Y756D01*
X1512Y758D01*
X1514Y758D01*
X1514Y760D01*
X1516Y760D01*
X1516Y764D01*
X1518Y764D01*
X1518Y766D01*
X1520Y766D01*
X1520Y768D01*
X1522Y768D01*
X1522Y770D01*
X1524Y770D01*
X1524Y772D01*
X1526Y772D01*
X1526Y774D01*
X1528Y774D01*
X1528Y776D01*
X1530Y776D01*
X1530Y778D01*
X1532Y778D01*
X1532Y780D01*
X1534Y780D01*
X1534Y782D01*
X1536Y782D01*
X1536Y784D01*
X1538Y784D01*
X1538Y786D01*
X1540Y786D01*
X1540Y788D01*
X1542Y788D01*
X1542Y790D01*
X1544Y790D01*
X1544Y792D01*
X1546Y792D01*
X1546Y794D01*
X1548Y794D01*
X1548Y796D01*
X1550Y796D01*
X1550Y798D01*
X1552Y798D01*
X1552Y800D01*
X1554Y800D01*
X1554Y802D01*
X1556Y802D01*
X1556Y804D01*
X1558Y804D01*
X1558Y806D01*
X1560Y806D01*
X1560Y824D01*
X1540Y824D01*
G37*
D02*
G36*
X998Y542D02*
X998Y540D01*
X1104Y540D01*
X1104Y542D01*
X998Y542D01*
G37*
D02*
G36*
X998Y540D02*
X998Y538D01*
X1302Y538D01*
X1302Y540D01*
X998Y540D01*
G37*
D02*
G36*
X998Y540D02*
X998Y538D01*
X1302Y538D01*
X1302Y540D01*
X998Y540D01*
G37*
D02*
G36*
X998Y538D02*
X998Y508D01*
X1272Y508D01*
X1272Y510D01*
X1274Y510D01*
X1274Y512D01*
X1276Y512D01*
X1276Y514D01*
X1278Y514D01*
X1278Y516D01*
X1280Y516D01*
X1280Y518D01*
X1282Y518D01*
X1282Y520D01*
X1284Y520D01*
X1284Y522D01*
X1286Y522D01*
X1286Y524D01*
X1288Y524D01*
X1288Y526D01*
X1290Y526D01*
X1290Y528D01*
X1292Y528D01*
X1292Y530D01*
X1294Y530D01*
X1294Y532D01*
X1296Y532D01*
X1296Y534D01*
X1298Y534D01*
X1298Y536D01*
X1300Y536D01*
X1300Y538D01*
X998Y538D01*
G37*
D02*
G36*
X228Y1020D02*
X228Y994D01*
X160Y994D01*
X160Y974D01*
X162Y974D01*
X162Y972D01*
X164Y972D01*
X164Y970D01*
X166Y970D01*
X166Y966D01*
X168Y966D01*
X168Y964D01*
X170Y964D01*
X170Y962D01*
X172Y962D01*
X172Y960D01*
X174Y960D01*
X174Y958D01*
X176Y958D01*
X176Y956D01*
X178Y956D01*
X178Y954D01*
X180Y954D01*
X180Y952D01*
X182Y952D01*
X182Y950D01*
X184Y950D01*
X184Y948D01*
X186Y948D01*
X186Y946D01*
X188Y946D01*
X188Y944D01*
X190Y944D01*
X190Y942D01*
X192Y942D01*
X192Y940D01*
X194Y940D01*
X194Y938D01*
X196Y938D01*
X196Y936D01*
X198Y936D01*
X198Y934D01*
X200Y934D01*
X200Y932D01*
X202Y932D01*
X202Y930D01*
X204Y930D01*
X204Y926D01*
X206Y926D01*
X206Y924D01*
X208Y924D01*
X208Y922D01*
X210Y922D01*
X210Y920D01*
X212Y920D01*
X212Y918D01*
X214Y918D01*
X214Y916D01*
X216Y916D01*
X216Y914D01*
X378Y914D01*
X378Y912D01*
X430Y912D01*
X430Y910D01*
X436Y910D01*
X436Y908D01*
X440Y908D01*
X440Y906D01*
X442Y906D01*
X442Y904D01*
X444Y904D01*
X444Y902D01*
X446Y902D01*
X446Y900D01*
X448Y900D01*
X448Y898D01*
X450Y898D01*
X450Y894D01*
X452Y894D01*
X452Y890D01*
X454Y890D01*
X454Y872D01*
X452Y872D01*
X452Y868D01*
X450Y868D01*
X450Y866D01*
X448Y866D01*
X448Y864D01*
X446Y864D01*
X446Y862D01*
X444Y862D01*
X444Y860D01*
X442Y860D01*
X442Y858D01*
X440Y858D01*
X440Y856D01*
X436Y856D01*
X436Y854D01*
X430Y854D01*
X430Y852D01*
X502Y852D01*
X502Y942D01*
X500Y942D01*
X500Y944D01*
X498Y944D01*
X498Y946D01*
X496Y946D01*
X496Y948D01*
X494Y948D01*
X494Y950D01*
X492Y950D01*
X492Y952D01*
X490Y952D01*
X490Y954D01*
X488Y954D01*
X488Y958D01*
X486Y958D01*
X486Y960D01*
X484Y960D01*
X484Y962D01*
X482Y962D01*
X482Y964D01*
X480Y964D01*
X480Y966D01*
X478Y966D01*
X478Y968D01*
X476Y968D01*
X476Y970D01*
X474Y970D01*
X474Y972D01*
X472Y972D01*
X472Y974D01*
X470Y974D01*
X470Y976D01*
X468Y976D01*
X468Y978D01*
X466Y978D01*
X466Y982D01*
X464Y982D01*
X464Y984D01*
X462Y984D01*
X462Y986D01*
X460Y986D01*
X460Y988D01*
X458Y988D01*
X458Y990D01*
X456Y990D01*
X456Y992D01*
X454Y992D01*
X454Y994D01*
X452Y994D01*
X452Y996D01*
X450Y996D01*
X450Y998D01*
X448Y998D01*
X448Y1000D01*
X446Y1000D01*
X446Y1002D01*
X444Y1002D01*
X444Y1006D01*
X442Y1006D01*
X442Y1008D01*
X440Y1008D01*
X440Y1010D01*
X438Y1010D01*
X438Y1012D01*
X436Y1012D01*
X436Y1014D01*
X434Y1014D01*
X434Y1016D01*
X376Y1016D01*
X376Y1018D01*
X250Y1018D01*
X250Y1020D01*
X228Y1020D01*
G37*
D02*
G36*
X218Y914D02*
X218Y912D01*
X220Y912D01*
X220Y910D01*
X222Y910D01*
X222Y908D01*
X224Y908D01*
X224Y906D01*
X226Y906D01*
X226Y904D01*
X228Y904D01*
X228Y902D01*
X230Y902D01*
X230Y900D01*
X268Y900D01*
X268Y912D01*
X270Y912D01*
X270Y914D01*
X218Y914D01*
G37*
D02*
G36*
X378Y912D02*
X378Y904D01*
X408Y904D01*
X408Y906D01*
X412Y906D01*
X412Y908D01*
X416Y908D01*
X416Y910D01*
X422Y910D01*
X422Y912D01*
X378Y912D01*
G37*
D02*
G36*
X384Y860D02*
X384Y858D01*
X378Y858D01*
X378Y852D01*
X420Y852D01*
X420Y854D01*
X414Y854D01*
X414Y856D01*
X412Y856D01*
X412Y858D01*
X408Y858D01*
X408Y860D01*
X384Y860D01*
G37*
D02*
G36*
X378Y852D02*
X378Y850D01*
X502Y850D01*
X502Y852D01*
X378Y852D01*
G37*
D02*
G36*
X378Y852D02*
X378Y850D01*
X502Y850D01*
X502Y852D01*
X378Y852D01*
G37*
D02*
G36*
X378Y850D02*
X378Y754D01*
X424Y754D01*
X424Y752D01*
X432Y752D01*
X432Y750D01*
X436Y750D01*
X436Y748D01*
X438Y748D01*
X438Y746D01*
X440Y746D01*
X440Y744D01*
X444Y744D01*
X444Y740D01*
X446Y740D01*
X446Y738D01*
X448Y738D01*
X448Y734D01*
X450Y734D01*
X450Y730D01*
X452Y730D01*
X452Y718D01*
X450Y718D01*
X450Y712D01*
X448Y712D01*
X448Y708D01*
X446Y708D01*
X446Y706D01*
X444Y706D01*
X444Y704D01*
X442Y704D01*
X442Y702D01*
X440Y702D01*
X440Y700D01*
X438Y700D01*
X438Y698D01*
X434Y698D01*
X434Y696D01*
X430Y696D01*
X430Y694D01*
X502Y694D01*
X502Y850D01*
X378Y850D01*
G37*
D02*
G36*
X378Y754D02*
X378Y746D01*
X406Y746D01*
X406Y748D01*
X410Y748D01*
X410Y750D01*
X412Y750D01*
X412Y752D01*
X420Y752D01*
X420Y754D01*
X378Y754D01*
G37*
D02*
G36*
X384Y702D02*
X384Y700D01*
X378Y700D01*
X378Y694D01*
X416Y694D01*
X416Y696D01*
X410Y696D01*
X410Y698D01*
X408Y698D01*
X408Y700D01*
X404Y700D01*
X404Y702D01*
X384Y702D01*
G37*
D02*
G36*
X378Y694D02*
X378Y692D01*
X502Y692D01*
X502Y694D01*
X378Y694D01*
G37*
D02*
G36*
X378Y694D02*
X378Y692D01*
X502Y692D01*
X502Y694D01*
X378Y694D01*
G37*
D02*
G36*
X378Y692D02*
X378Y674D01*
X424Y674D01*
X424Y672D01*
X432Y672D01*
X432Y670D01*
X436Y670D01*
X436Y668D01*
X438Y668D01*
X438Y666D01*
X440Y666D01*
X440Y664D01*
X444Y664D01*
X444Y660D01*
X446Y660D01*
X446Y658D01*
X448Y658D01*
X448Y654D01*
X450Y654D01*
X450Y650D01*
X452Y650D01*
X452Y638D01*
X450Y638D01*
X450Y632D01*
X448Y632D01*
X448Y628D01*
X446Y628D01*
X446Y626D01*
X444Y626D01*
X444Y624D01*
X442Y624D01*
X442Y622D01*
X440Y622D01*
X440Y620D01*
X438Y620D01*
X438Y618D01*
X434Y618D01*
X434Y616D01*
X430Y616D01*
X430Y614D01*
X502Y614D01*
X502Y692D01*
X378Y692D01*
G37*
D02*
G36*
X378Y674D02*
X378Y666D01*
X406Y666D01*
X406Y668D01*
X410Y668D01*
X410Y670D01*
X412Y670D01*
X412Y672D01*
X420Y672D01*
X420Y674D01*
X378Y674D01*
G37*
D02*
G36*
X378Y622D02*
X378Y614D01*
X416Y614D01*
X416Y616D01*
X410Y616D01*
X410Y618D01*
X408Y618D01*
X408Y620D01*
X404Y620D01*
X404Y622D01*
X378Y622D01*
G37*
D02*
G36*
X378Y614D02*
X378Y612D01*
X502Y612D01*
X502Y614D01*
X378Y614D01*
G37*
D02*
G36*
X378Y614D02*
X378Y612D01*
X502Y612D01*
X502Y614D01*
X378Y614D01*
G37*
D02*
G36*
X378Y612D02*
X378Y592D01*
X428Y592D01*
X428Y590D01*
X434Y590D01*
X434Y588D01*
X436Y588D01*
X436Y586D01*
X440Y586D01*
X440Y584D01*
X442Y584D01*
X442Y582D01*
X444Y582D01*
X444Y580D01*
X446Y580D01*
X446Y576D01*
X448Y576D01*
X448Y574D01*
X450Y574D01*
X450Y568D01*
X452Y568D01*
X452Y556D01*
X450Y556D01*
X450Y552D01*
X448Y552D01*
X448Y548D01*
X446Y548D01*
X446Y546D01*
X444Y546D01*
X444Y542D01*
X442Y542D01*
X442Y540D01*
X438Y540D01*
X438Y538D01*
X436Y538D01*
X436Y536D01*
X432Y536D01*
X432Y534D01*
X424Y534D01*
X424Y532D01*
X482Y532D01*
X482Y534D01*
X484Y534D01*
X484Y536D01*
X486Y536D01*
X486Y538D01*
X488Y538D01*
X488Y540D01*
X490Y540D01*
X490Y542D01*
X492Y542D01*
X492Y544D01*
X494Y544D01*
X494Y546D01*
X496Y546D01*
X496Y548D01*
X498Y548D01*
X498Y550D01*
X500Y550D01*
X500Y552D01*
X502Y552D01*
X502Y612D01*
X378Y612D01*
G37*
D02*
G36*
X378Y592D02*
X378Y586D01*
X408Y586D01*
X408Y588D01*
X412Y588D01*
X412Y590D01*
X416Y590D01*
X416Y592D01*
X378Y592D01*
G37*
D02*
G36*
X378Y540D02*
X378Y532D01*
X420Y532D01*
X420Y534D01*
X412Y534D01*
X412Y536D01*
X408Y536D01*
X408Y538D01*
X406Y538D01*
X406Y540D01*
X378Y540D01*
G37*
D02*
G36*
X378Y532D02*
X378Y530D01*
X480Y530D01*
X480Y532D01*
X378Y532D01*
G37*
D02*
G36*
X378Y532D02*
X378Y530D01*
X480Y530D01*
X480Y532D01*
X378Y532D01*
G37*
D02*
G36*
X378Y530D02*
X378Y510D01*
X438Y510D01*
X438Y512D01*
X460Y512D01*
X460Y514D01*
X464Y514D01*
X464Y516D01*
X466Y516D01*
X466Y518D01*
X468Y518D01*
X468Y520D01*
X470Y520D01*
X470Y522D01*
X472Y522D01*
X472Y524D01*
X474Y524D01*
X474Y526D01*
X476Y526D01*
X476Y528D01*
X478Y528D01*
X478Y530D01*
X378Y530D01*
G37*
D02*
G36*
X540Y530D02*
X540Y528D01*
X538Y528D01*
X538Y526D01*
X536Y526D01*
X536Y524D01*
X534Y524D01*
X534Y522D01*
X532Y522D01*
X532Y520D01*
X530Y520D01*
X530Y518D01*
X528Y518D01*
X528Y516D01*
X526Y516D01*
X526Y514D01*
X524Y514D01*
X524Y512D01*
X522Y512D01*
X522Y510D01*
X520Y510D01*
X520Y508D01*
X518Y508D01*
X518Y506D01*
X516Y506D01*
X516Y504D01*
X514Y504D01*
X514Y502D01*
X512Y502D01*
X512Y500D01*
X510Y500D01*
X510Y498D01*
X508Y498D01*
X508Y496D01*
X506Y496D01*
X506Y494D01*
X504Y494D01*
X504Y492D01*
X502Y492D01*
X502Y490D01*
X500Y490D01*
X500Y488D01*
X498Y488D01*
X498Y486D01*
X496Y486D01*
X496Y484D01*
X494Y484D01*
X494Y482D01*
X492Y482D01*
X492Y480D01*
X490Y480D01*
X490Y478D01*
X488Y478D01*
X488Y476D01*
X486Y476D01*
X486Y474D01*
X482Y474D01*
X482Y472D01*
X480Y472D01*
X480Y470D01*
X476Y470D01*
X476Y468D01*
X438Y468D01*
X438Y466D01*
X378Y466D01*
X378Y352D01*
X412Y352D01*
X412Y354D01*
X456Y354D01*
X456Y356D01*
X458Y356D01*
X458Y358D01*
X460Y358D01*
X460Y360D01*
X462Y360D01*
X462Y362D01*
X464Y362D01*
X464Y364D01*
X466Y364D01*
X466Y366D01*
X468Y366D01*
X468Y368D01*
X470Y368D01*
X470Y370D01*
X472Y370D01*
X472Y372D01*
X474Y372D01*
X474Y374D01*
X476Y374D01*
X476Y376D01*
X478Y376D01*
X478Y378D01*
X480Y378D01*
X480Y380D01*
X482Y380D01*
X482Y382D01*
X484Y382D01*
X484Y384D01*
X486Y384D01*
X486Y386D01*
X488Y386D01*
X488Y388D01*
X490Y388D01*
X490Y390D01*
X492Y390D01*
X492Y392D01*
X494Y392D01*
X494Y394D01*
X496Y394D01*
X496Y396D01*
X498Y396D01*
X498Y398D01*
X500Y398D01*
X500Y400D01*
X502Y400D01*
X502Y402D01*
X504Y402D01*
X504Y404D01*
X506Y404D01*
X506Y406D01*
X508Y406D01*
X508Y408D01*
X510Y408D01*
X510Y410D01*
X512Y410D01*
X512Y412D01*
X514Y412D01*
X514Y414D01*
X516Y414D01*
X516Y416D01*
X518Y416D01*
X518Y418D01*
X520Y418D01*
X520Y420D01*
X522Y420D01*
X522Y422D01*
X524Y422D01*
X524Y424D01*
X526Y424D01*
X526Y426D01*
X528Y426D01*
X528Y428D01*
X530Y428D01*
X530Y430D01*
X532Y430D01*
X532Y432D01*
X534Y432D01*
X534Y434D01*
X536Y434D01*
X536Y436D01*
X538Y436D01*
X538Y438D01*
X540Y438D01*
X540Y440D01*
X542Y440D01*
X542Y442D01*
X544Y442D01*
X544Y444D01*
X546Y444D01*
X546Y446D01*
X548Y446D01*
X548Y448D01*
X550Y448D01*
X550Y450D01*
X552Y450D01*
X552Y452D01*
X554Y452D01*
X554Y454D01*
X556Y454D01*
X556Y456D01*
X558Y456D01*
X558Y458D01*
X560Y458D01*
X560Y530D01*
X540Y530D01*
G37*
D02*
G36*
X998Y386D02*
X998Y350D01*
X1064Y350D01*
X1064Y348D01*
X1068Y348D01*
X1068Y346D01*
X1070Y346D01*
X1070Y344D01*
X1072Y344D01*
X1072Y342D01*
X1074Y342D01*
X1074Y340D01*
X1076Y340D01*
X1076Y338D01*
X1078Y338D01*
X1078Y336D01*
X1080Y336D01*
X1080Y334D01*
X1082Y334D01*
X1082Y332D01*
X1084Y332D01*
X1084Y330D01*
X1086Y330D01*
X1086Y328D01*
X1088Y328D01*
X1088Y326D01*
X1090Y326D01*
X1090Y324D01*
X1092Y324D01*
X1092Y322D01*
X1094Y322D01*
X1094Y320D01*
X1096Y320D01*
X1096Y318D01*
X1098Y318D01*
X1098Y314D01*
X1100Y314D01*
X1100Y312D01*
X1102Y312D01*
X1102Y310D01*
X1104Y310D01*
X1104Y308D01*
X1106Y308D01*
X1106Y306D01*
X1108Y306D01*
X1108Y304D01*
X1110Y304D01*
X1110Y302D01*
X1112Y302D01*
X1112Y300D01*
X1114Y300D01*
X1114Y298D01*
X1116Y298D01*
X1116Y296D01*
X1118Y296D01*
X1118Y294D01*
X1120Y294D01*
X1120Y292D01*
X1122Y292D01*
X1122Y290D01*
X1124Y290D01*
X1124Y288D01*
X1126Y288D01*
X1126Y286D01*
X1128Y286D01*
X1128Y284D01*
X1130Y284D01*
X1130Y282D01*
X1132Y282D01*
X1132Y280D01*
X1134Y280D01*
X1134Y278D01*
X1136Y278D01*
X1136Y274D01*
X1138Y274D01*
X1138Y272D01*
X1140Y272D01*
X1140Y270D01*
X1142Y270D01*
X1142Y268D01*
X1144Y268D01*
X1144Y266D01*
X1146Y266D01*
X1146Y264D01*
X1148Y264D01*
X1148Y262D01*
X1150Y262D01*
X1150Y260D01*
X1152Y260D01*
X1152Y258D01*
X1154Y258D01*
X1154Y256D01*
X1156Y256D01*
X1156Y254D01*
X1158Y254D01*
X1158Y252D01*
X1160Y252D01*
X1160Y250D01*
X1162Y250D01*
X1162Y248D01*
X1164Y248D01*
X1164Y246D01*
X1166Y246D01*
X1166Y244D01*
X1168Y244D01*
X1168Y242D01*
X1170Y242D01*
X1170Y240D01*
X1172Y240D01*
X1172Y238D01*
X1174Y238D01*
X1174Y236D01*
X1176Y236D01*
X1176Y232D01*
X1178Y232D01*
X1178Y230D01*
X1180Y230D01*
X1180Y228D01*
X1182Y228D01*
X1182Y226D01*
X1184Y226D01*
X1184Y224D01*
X1186Y224D01*
X1186Y222D01*
X1188Y222D01*
X1188Y220D01*
X1190Y220D01*
X1190Y218D01*
X1192Y218D01*
X1192Y216D01*
X1194Y216D01*
X1194Y214D01*
X1196Y214D01*
X1196Y212D01*
X1198Y212D01*
X1198Y210D01*
X1200Y210D01*
X1200Y208D01*
X1202Y208D01*
X1202Y206D01*
X1204Y206D01*
X1204Y204D01*
X1206Y204D01*
X1206Y202D01*
X1208Y202D01*
X1208Y200D01*
X1210Y200D01*
X1210Y198D01*
X1212Y198D01*
X1212Y196D01*
X1214Y196D01*
X1214Y192D01*
X1216Y192D01*
X1216Y190D01*
X1218Y190D01*
X1218Y188D01*
X1220Y188D01*
X1220Y186D01*
X1222Y186D01*
X1222Y184D01*
X1224Y184D01*
X1224Y182D01*
X1226Y182D01*
X1226Y180D01*
X1228Y180D01*
X1228Y178D01*
X1230Y178D01*
X1230Y176D01*
X1232Y176D01*
X1232Y174D01*
X1234Y174D01*
X1234Y172D01*
X1236Y172D01*
X1236Y170D01*
X1238Y170D01*
X1238Y168D01*
X1240Y168D01*
X1240Y166D01*
X1242Y166D01*
X1242Y164D01*
X1244Y164D01*
X1244Y162D01*
X1246Y162D01*
X1246Y160D01*
X1248Y160D01*
X1248Y158D01*
X1250Y158D01*
X1250Y156D01*
X1252Y156D01*
X1252Y152D01*
X1254Y152D01*
X1254Y150D01*
X1256Y150D01*
X1256Y148D01*
X1258Y148D01*
X1258Y146D01*
X1260Y146D01*
X1260Y144D01*
X1262Y144D01*
X1262Y142D01*
X1264Y142D01*
X1264Y140D01*
X1266Y140D01*
X1266Y138D01*
X1268Y138D01*
X1268Y136D01*
X1288Y136D01*
X1288Y154D01*
X1286Y154D01*
X1286Y156D01*
X1284Y156D01*
X1284Y158D01*
X1282Y158D01*
X1282Y160D01*
X1280Y160D01*
X1280Y162D01*
X1278Y162D01*
X1278Y164D01*
X1276Y164D01*
X1276Y166D01*
X1274Y166D01*
X1274Y168D01*
X1272Y168D01*
X1272Y170D01*
X1270Y170D01*
X1270Y172D01*
X1268Y172D01*
X1268Y174D01*
X1266Y174D01*
X1266Y176D01*
X1264Y176D01*
X1264Y178D01*
X1262Y178D01*
X1262Y180D01*
X1260Y180D01*
X1260Y182D01*
X1258Y182D01*
X1258Y184D01*
X1256Y184D01*
X1256Y186D01*
X1254Y186D01*
X1254Y188D01*
X1252Y188D01*
X1252Y190D01*
X1250Y190D01*
X1250Y192D01*
X1248Y192D01*
X1248Y194D01*
X1246Y194D01*
X1246Y196D01*
X1244Y196D01*
X1244Y198D01*
X1242Y198D01*
X1242Y200D01*
X1240Y200D01*
X1240Y202D01*
X1238Y202D01*
X1238Y204D01*
X1236Y204D01*
X1236Y206D01*
X1234Y206D01*
X1234Y208D01*
X1232Y208D01*
X1232Y210D01*
X1230Y210D01*
X1230Y212D01*
X1228Y212D01*
X1228Y214D01*
X1226Y214D01*
X1226Y216D01*
X1224Y216D01*
X1224Y218D01*
X1222Y218D01*
X1222Y220D01*
X1220Y220D01*
X1220Y222D01*
X1218Y222D01*
X1218Y224D01*
X1216Y224D01*
X1216Y226D01*
X1214Y226D01*
X1214Y228D01*
X1212Y228D01*
X1212Y230D01*
X1210Y230D01*
X1210Y232D01*
X1208Y232D01*
X1208Y234D01*
X1206Y234D01*
X1206Y236D01*
X1204Y236D01*
X1204Y238D01*
X1202Y238D01*
X1202Y240D01*
X1200Y240D01*
X1200Y242D01*
X1198Y242D01*
X1198Y244D01*
X1196Y244D01*
X1196Y246D01*
X1194Y246D01*
X1194Y248D01*
X1192Y248D01*
X1192Y250D01*
X1190Y250D01*
X1190Y252D01*
X1188Y252D01*
X1188Y254D01*
X1186Y254D01*
X1186Y256D01*
X1184Y256D01*
X1184Y258D01*
X1182Y258D01*
X1182Y260D01*
X1180Y260D01*
X1180Y262D01*
X1178Y262D01*
X1178Y264D01*
X1176Y264D01*
X1176Y266D01*
X1174Y266D01*
X1174Y268D01*
X1172Y268D01*
X1172Y270D01*
X1170Y270D01*
X1170Y272D01*
X1168Y272D01*
X1168Y274D01*
X1166Y274D01*
X1166Y276D01*
X1164Y276D01*
X1164Y278D01*
X1162Y278D01*
X1162Y280D01*
X1160Y280D01*
X1160Y282D01*
X1158Y282D01*
X1158Y284D01*
X1156Y284D01*
X1156Y286D01*
X1154Y286D01*
X1154Y288D01*
X1152Y288D01*
X1152Y290D01*
X1150Y290D01*
X1150Y292D01*
X1148Y292D01*
X1148Y294D01*
X1146Y294D01*
X1146Y296D01*
X1144Y296D01*
X1144Y298D01*
X1142Y298D01*
X1142Y300D01*
X1140Y300D01*
X1140Y302D01*
X1138Y302D01*
X1138Y304D01*
X1136Y304D01*
X1136Y306D01*
X1134Y306D01*
X1134Y308D01*
X1132Y308D01*
X1132Y310D01*
X1130Y310D01*
X1130Y312D01*
X1128Y312D01*
X1128Y314D01*
X1126Y314D01*
X1126Y316D01*
X1124Y316D01*
X1124Y318D01*
X1122Y318D01*
X1122Y320D01*
X1120Y320D01*
X1120Y322D01*
X1118Y322D01*
X1118Y324D01*
X1116Y324D01*
X1116Y326D01*
X1114Y326D01*
X1114Y328D01*
X1112Y328D01*
X1112Y330D01*
X1110Y330D01*
X1110Y332D01*
X1108Y332D01*
X1108Y334D01*
X1106Y334D01*
X1106Y336D01*
X1104Y336D01*
X1104Y338D01*
X1102Y338D01*
X1102Y340D01*
X1100Y340D01*
X1100Y342D01*
X1098Y342D01*
X1098Y344D01*
X1096Y344D01*
X1096Y346D01*
X1094Y346D01*
X1094Y348D01*
X1092Y348D01*
X1092Y350D01*
X1090Y350D01*
X1090Y352D01*
X1088Y352D01*
X1088Y354D01*
X1086Y354D01*
X1086Y356D01*
X1084Y356D01*
X1084Y358D01*
X1082Y358D01*
X1082Y360D01*
X1080Y360D01*
X1080Y362D01*
X1078Y362D01*
X1078Y364D01*
X1076Y364D01*
X1076Y366D01*
X1074Y366D01*
X1074Y368D01*
X1072Y368D01*
X1072Y370D01*
X1070Y370D01*
X1070Y372D01*
X1068Y372D01*
X1068Y374D01*
X1066Y374D01*
X1066Y376D01*
X1064Y376D01*
X1064Y378D01*
X1062Y378D01*
X1062Y380D01*
X1060Y380D01*
X1060Y382D01*
X1058Y382D01*
X1058Y384D01*
X1056Y384D01*
X1056Y386D01*
X998Y386D01*
G37*
D02*
G36*
X242Y1424D02*
X317Y1424D01*
X317Y1390D01*
X242Y1390D01*
X242Y1424D01*
G37*
D02*
G36*
X196Y1510D02*
X230Y1510D01*
X230Y1435D01*
X196Y1435D01*
X196Y1510D01*
G37*
D02*
G36*
X122Y1744D02*
X197Y1744D01*
X197Y1712D01*
X122Y1712D01*
X122Y1744D01*
G37*
D02*
G36*
X76Y1700D02*
X110Y1700D01*
X110Y1625D01*
X76Y1625D01*
X76Y1700D01*
G37*
D02*
G36*
X828Y1426D02*
X862Y1426D01*
X862Y1383D01*
X828Y1383D01*
X828Y1426D01*
G37*
D02*
G36*
X1069Y1030D02*
X1106Y1030D01*
X1106Y982D01*
X1069Y982D01*
X1069Y1030D01*
G37*
D02*
G36*
X1210Y826D02*
X1254Y826D01*
X1254Y783D01*
X1210Y783D01*
X1210Y826D01*
G37*
D02*
G36*
X536Y1238D02*
X579Y1238D01*
X579Y1206D01*
X536Y1206D01*
X536Y1238D01*
G37*
D02*
G36*
X508Y1276D02*
X540Y1276D01*
X540Y1233D01*
X508Y1233D01*
X508Y1276D01*
G37*
D02*
G36*
X830Y1276D02*
X862Y1276D01*
X862Y1233D01*
X830Y1233D01*
X830Y1276D01*
G37*
D02*
G36*
X777Y878D02*
X802Y878D01*
X802Y852D01*
X777Y852D01*
X777Y878D01*
G37*
D02*
G36*
X758Y897D02*
X782Y897D01*
X782Y872D01*
X758Y872D01*
X758Y897D01*
G37*
D02*
G36*
X1163Y68D02*
X1208Y68D01*
X1208Y40D01*
X1163Y40D01*
X1163Y68D01*
G37*
D02*
G54D19*
X279Y904D02*
X366Y904D01*
X899Y904D02*
X986Y904D01*
X279Y903D02*
X367Y903D01*
X899Y903D02*
X986Y903D01*
X279Y902D02*
X367Y902D01*
X899Y902D02*
X986Y902D01*
X279Y901D02*
X367Y901D01*
X899Y901D02*
X986Y901D01*
X279Y900D02*
X367Y900D01*
X899Y900D02*
X986Y900D01*
X279Y899D02*
X367Y899D01*
X899Y899D02*
X986Y899D01*
X279Y898D02*
X367Y898D01*
X899Y898D02*
X986Y898D01*
X279Y897D02*
X367Y897D01*
X899Y897D02*
X986Y897D01*
X279Y896D02*
X367Y896D01*
X899Y896D02*
X986Y896D01*
X279Y895D02*
X367Y895D01*
X899Y895D02*
X986Y895D01*
X279Y894D02*
X367Y894D01*
X899Y894D02*
X986Y894D01*
X279Y893D02*
X367Y893D01*
X899Y893D02*
X986Y893D01*
X279Y892D02*
X342Y892D01*
X351Y892D02*
X367Y892D01*
X899Y892D02*
X914Y892D01*
X923Y892D02*
X986Y892D01*
X279Y891D02*
X340Y891D01*
X353Y891D02*
X367Y891D01*
X899Y891D02*
X912Y891D01*
X925Y891D02*
X986Y891D01*
X279Y890D02*
X339Y890D01*
X355Y890D02*
X367Y890D01*
X899Y890D02*
X911Y890D01*
X927Y890D02*
X986Y890D01*
X279Y889D02*
X338Y889D01*
X356Y889D02*
X367Y889D01*
X899Y889D02*
X910Y889D01*
X928Y889D02*
X986Y889D01*
X279Y888D02*
X337Y888D01*
X357Y888D02*
X367Y888D01*
X899Y888D02*
X909Y888D01*
X929Y888D02*
X986Y888D01*
X279Y887D02*
X336Y887D01*
X357Y887D02*
X367Y887D01*
X899Y887D02*
X908Y887D01*
X929Y887D02*
X986Y887D01*
X279Y886D02*
X335Y886D01*
X358Y886D02*
X367Y886D01*
X899Y886D02*
X907Y886D01*
X930Y886D02*
X986Y886D01*
X279Y885D02*
X335Y885D01*
X358Y885D02*
X367Y885D01*
X899Y885D02*
X907Y885D01*
X930Y885D02*
X986Y885D01*
X279Y884D02*
X335Y884D01*
X359Y884D02*
X367Y884D01*
X899Y884D02*
X907Y884D01*
X931Y884D02*
X986Y884D01*
X279Y883D02*
X334Y883D01*
X359Y883D02*
X367Y883D01*
X899Y883D02*
X906Y883D01*
X931Y883D02*
X986Y883D01*
X279Y882D02*
X334Y882D01*
X359Y882D02*
X367Y882D01*
X899Y882D02*
X906Y882D01*
X931Y882D02*
X986Y882D01*
X279Y881D02*
X334Y881D01*
X359Y881D02*
X367Y881D01*
X899Y881D02*
X906Y881D01*
X931Y881D02*
X986Y881D01*
X279Y880D02*
X334Y880D01*
X359Y880D02*
X367Y880D01*
X899Y880D02*
X906Y880D01*
X931Y880D02*
X986Y880D01*
X279Y879D02*
X334Y879D01*
X359Y879D02*
X367Y879D01*
X899Y879D02*
X906Y879D01*
X931Y879D02*
X986Y879D01*
X279Y878D02*
X334Y878D01*
X359Y878D02*
X367Y878D01*
X899Y878D02*
X906Y878D01*
X931Y878D02*
X986Y878D01*
X279Y877D02*
X335Y877D01*
X359Y877D02*
X367Y877D01*
X899Y877D02*
X907Y877D01*
X931Y877D02*
X986Y877D01*
X279Y876D02*
X335Y876D01*
X358Y876D02*
X367Y876D01*
X899Y876D02*
X907Y876D01*
X930Y876D02*
X986Y876D01*
X279Y875D02*
X335Y875D01*
X358Y875D02*
X367Y875D01*
X899Y875D02*
X907Y875D01*
X930Y875D02*
X986Y875D01*
X279Y874D02*
X336Y874D01*
X357Y874D02*
X367Y874D01*
X899Y874D02*
X908Y874D01*
X929Y874D02*
X986Y874D01*
X279Y873D02*
X337Y873D01*
X357Y873D02*
X367Y873D01*
X899Y873D02*
X909Y873D01*
X929Y873D02*
X986Y873D01*
X279Y872D02*
X338Y872D01*
X356Y872D02*
X367Y872D01*
X899Y872D02*
X909Y872D01*
X928Y872D02*
X986Y872D01*
X279Y871D02*
X339Y871D01*
X355Y871D02*
X367Y871D01*
X899Y871D02*
X911Y871D01*
X927Y871D02*
X986Y871D01*
X279Y870D02*
X340Y870D01*
X353Y870D02*
X367Y870D01*
X899Y870D02*
X912Y870D01*
X925Y870D02*
X986Y870D01*
X279Y869D02*
X342Y869D01*
X351Y869D02*
X367Y869D01*
X899Y869D02*
X914Y869D01*
X923Y869D02*
X986Y869D01*
X279Y868D02*
X367Y868D01*
X899Y868D02*
X986Y868D01*
X279Y867D02*
X367Y867D01*
X899Y867D02*
X986Y867D01*
X279Y866D02*
X367Y866D01*
X899Y866D02*
X986Y866D01*
X279Y865D02*
X367Y865D01*
X899Y865D02*
X986Y865D01*
X279Y864D02*
X367Y864D01*
X899Y864D02*
X986Y864D01*
X279Y863D02*
X367Y863D01*
X899Y863D02*
X986Y863D01*
X279Y862D02*
X367Y862D01*
X899Y862D02*
X986Y862D01*
X279Y861D02*
X367Y861D01*
X899Y861D02*
X986Y861D01*
X279Y860D02*
X367Y860D01*
X899Y860D02*
X986Y860D01*
X279Y859D02*
X367Y859D01*
X899Y859D02*
X986Y859D01*
X279Y858D02*
X367Y858D01*
X899Y858D02*
X986Y858D01*
X279Y857D02*
X366Y857D01*
X899Y857D02*
X986Y857D01*
X279Y825D02*
X366Y825D01*
X899Y825D02*
X986Y825D01*
X279Y824D02*
X367Y824D01*
X899Y824D02*
X986Y824D01*
X279Y823D02*
X367Y823D01*
X899Y823D02*
X986Y823D01*
X279Y822D02*
X367Y822D01*
X899Y822D02*
X986Y822D01*
X279Y821D02*
X367Y821D01*
X899Y821D02*
X986Y821D01*
X279Y820D02*
X367Y820D01*
X899Y820D02*
X986Y820D01*
X279Y819D02*
X367Y819D01*
X899Y819D02*
X986Y819D01*
X279Y818D02*
X367Y818D01*
X899Y818D02*
X986Y818D01*
X279Y817D02*
X367Y817D01*
X899Y817D02*
X986Y817D01*
X279Y816D02*
X367Y816D01*
X899Y816D02*
X986Y816D01*
X279Y815D02*
X367Y815D01*
X899Y815D02*
X986Y815D01*
X279Y814D02*
X367Y814D01*
X899Y814D02*
X986Y814D01*
X279Y813D02*
X342Y813D01*
X352Y813D02*
X367Y813D01*
X899Y813D02*
X914Y813D01*
X924Y813D02*
X986Y813D01*
X279Y812D02*
X340Y812D01*
X354Y812D02*
X367Y812D01*
X899Y812D02*
X912Y812D01*
X926Y812D02*
X986Y812D01*
X279Y811D02*
X338Y811D01*
X355Y811D02*
X367Y811D01*
X899Y811D02*
X910Y811D01*
X927Y811D02*
X986Y811D01*
X279Y810D02*
X337Y810D01*
X356Y810D02*
X367Y810D01*
X899Y810D02*
X909Y810D01*
X928Y810D02*
X986Y810D01*
X279Y809D02*
X336Y809D01*
X357Y809D02*
X367Y809D01*
X899Y809D02*
X908Y809D01*
X929Y809D02*
X986Y809D01*
X279Y808D02*
X336Y808D01*
X358Y808D02*
X367Y808D01*
X899Y808D02*
X908Y808D01*
X930Y808D02*
X986Y808D01*
X279Y807D02*
X335Y807D01*
X358Y807D02*
X367Y807D01*
X899Y807D02*
X907Y807D01*
X930Y807D02*
X986Y807D01*
X279Y806D02*
X335Y806D01*
X359Y806D02*
X367Y806D01*
X899Y806D02*
X907Y806D01*
X930Y806D02*
X986Y806D01*
X279Y805D02*
X335Y805D01*
X359Y805D02*
X367Y805D01*
X899Y805D02*
X906Y805D01*
X931Y805D02*
X986Y805D01*
X279Y804D02*
X334Y804D01*
X359Y804D02*
X367Y804D01*
X899Y804D02*
X906Y804D01*
X931Y804D02*
X986Y804D01*
X279Y803D02*
X334Y803D01*
X359Y803D02*
X367Y803D01*
X899Y803D02*
X906Y803D01*
X931Y803D02*
X986Y803D01*
X279Y802D02*
X334Y802D01*
X359Y802D02*
X367Y802D01*
X899Y802D02*
X906Y802D01*
X931Y802D02*
X986Y802D01*
X279Y801D02*
X334Y801D01*
X359Y801D02*
X367Y801D01*
X899Y801D02*
X906Y801D01*
X931Y801D02*
X986Y801D01*
X279Y800D02*
X334Y800D01*
X359Y800D02*
X367Y800D01*
X899Y800D02*
X906Y800D01*
X931Y800D02*
X986Y800D01*
X279Y799D02*
X334Y799D01*
X359Y799D02*
X367Y799D01*
X899Y799D02*
X906Y799D01*
X931Y799D02*
X986Y799D01*
X279Y798D02*
X335Y798D01*
X359Y798D02*
X367Y798D01*
X899Y798D02*
X907Y798D01*
X931Y798D02*
X986Y798D01*
X279Y797D02*
X335Y797D01*
X358Y797D02*
X367Y797D01*
X899Y797D02*
X907Y797D01*
X930Y797D02*
X986Y797D01*
X279Y796D02*
X336Y796D01*
X358Y796D02*
X367Y796D01*
X899Y796D02*
X908Y796D01*
X930Y796D02*
X986Y796D01*
X279Y795D02*
X336Y795D01*
X357Y795D02*
X367Y795D01*
X899Y795D02*
X908Y795D01*
X929Y795D02*
X986Y795D01*
X279Y794D02*
X337Y794D01*
X356Y794D02*
X367Y794D01*
X899Y794D02*
X909Y794D01*
X928Y794D02*
X986Y794D01*
X279Y793D02*
X338Y793D01*
X356Y793D02*
X367Y793D01*
X899Y793D02*
X910Y793D01*
X928Y793D02*
X986Y793D01*
X279Y792D02*
X339Y792D01*
X354Y792D02*
X367Y792D01*
X899Y792D02*
X911Y792D01*
X926Y792D02*
X986Y792D01*
X279Y791D02*
X341Y791D01*
X353Y791D02*
X367Y791D01*
X899Y791D02*
X913Y791D01*
X925Y791D02*
X986Y791D01*
X279Y790D02*
X343Y790D01*
X350Y790D02*
X367Y790D01*
X899Y790D02*
X915Y790D01*
X922Y790D02*
X986Y790D01*
X279Y789D02*
X367Y789D01*
X899Y789D02*
X986Y789D01*
X279Y788D02*
X367Y788D01*
X899Y788D02*
X986Y788D01*
X279Y787D02*
X367Y787D01*
X899Y787D02*
X986Y787D01*
X279Y786D02*
X367Y786D01*
X899Y786D02*
X986Y786D01*
X279Y785D02*
X367Y785D01*
X899Y785D02*
X986Y785D01*
X279Y784D02*
X367Y784D01*
X899Y784D02*
X986Y784D01*
X279Y783D02*
X367Y783D01*
X899Y783D02*
X986Y783D01*
X279Y782D02*
X367Y782D01*
X899Y782D02*
X986Y782D01*
X279Y781D02*
X367Y781D01*
X899Y781D02*
X986Y781D01*
X279Y780D02*
X367Y780D01*
X899Y780D02*
X986Y780D01*
X279Y779D02*
X367Y779D01*
X899Y779D02*
X986Y779D01*
X279Y746D02*
X367Y746D01*
X899Y746D02*
X986Y746D01*
X279Y745D02*
X367Y745D01*
X899Y745D02*
X986Y745D01*
X279Y744D02*
X367Y744D01*
X899Y744D02*
X986Y744D01*
X279Y743D02*
X367Y743D01*
X899Y743D02*
X986Y743D01*
X279Y742D02*
X367Y742D01*
X899Y742D02*
X986Y742D01*
X279Y741D02*
X367Y741D01*
X899Y741D02*
X986Y741D01*
X279Y740D02*
X367Y740D01*
X899Y740D02*
X986Y740D01*
X279Y739D02*
X367Y739D01*
X899Y739D02*
X986Y739D01*
X279Y738D02*
X367Y738D01*
X899Y738D02*
X986Y738D01*
X279Y737D02*
X367Y737D01*
X899Y737D02*
X986Y737D01*
X279Y736D02*
X367Y736D01*
X899Y736D02*
X986Y736D01*
X279Y735D02*
X344Y735D01*
X349Y735D02*
X367Y735D01*
X899Y735D02*
X916Y735D01*
X921Y735D02*
X986Y735D01*
X279Y734D02*
X341Y734D01*
X352Y734D02*
X367Y734D01*
X899Y734D02*
X913Y734D01*
X924Y734D02*
X986Y734D01*
X279Y733D02*
X339Y733D01*
X354Y733D02*
X367Y733D01*
X899Y733D02*
X911Y733D01*
X926Y733D02*
X986Y733D01*
X279Y732D02*
X338Y732D01*
X355Y732D02*
X367Y732D01*
X899Y732D02*
X910Y732D01*
X927Y732D02*
X986Y732D01*
X279Y731D02*
X337Y731D01*
X356Y731D02*
X367Y731D01*
X899Y731D02*
X909Y731D01*
X928Y731D02*
X986Y731D01*
X279Y730D02*
X336Y730D01*
X357Y730D02*
X367Y730D01*
X899Y730D02*
X908Y730D01*
X929Y730D02*
X986Y730D01*
X279Y729D02*
X336Y729D01*
X358Y729D02*
X367Y729D01*
X899Y729D02*
X908Y729D01*
X930Y729D02*
X986Y729D01*
X279Y728D02*
X335Y728D01*
X358Y728D02*
X367Y728D01*
X899Y728D02*
X907Y728D01*
X930Y728D02*
X986Y728D01*
X279Y727D02*
X335Y727D01*
X359Y727D02*
X367Y727D01*
X899Y727D02*
X907Y727D01*
X931Y727D02*
X986Y727D01*
X279Y726D02*
X334Y726D01*
X359Y726D02*
X367Y726D01*
X899Y726D02*
X906Y726D01*
X931Y726D02*
X986Y726D01*
X279Y725D02*
X334Y725D01*
X359Y725D02*
X367Y725D01*
X899Y725D02*
X906Y725D01*
X931Y725D02*
X986Y725D01*
X279Y724D02*
X334Y724D01*
X359Y724D02*
X367Y724D01*
X899Y724D02*
X906Y724D01*
X931Y724D02*
X986Y724D01*
X279Y723D02*
X334Y723D01*
X359Y723D02*
X367Y723D01*
X899Y723D02*
X906Y723D01*
X931Y723D02*
X986Y723D01*
X279Y722D02*
X334Y722D01*
X359Y722D02*
X367Y722D01*
X899Y722D02*
X906Y722D01*
X931Y722D02*
X986Y722D01*
X279Y721D02*
X334Y721D01*
X359Y721D02*
X367Y721D01*
X899Y721D02*
X906Y721D01*
X931Y721D02*
X986Y721D01*
X279Y720D02*
X334Y720D01*
X359Y720D02*
X367Y720D01*
X899Y720D02*
X906Y720D01*
X931Y720D02*
X986Y720D01*
X279Y719D02*
X335Y719D01*
X359Y719D02*
X367Y719D01*
X899Y719D02*
X907Y719D01*
X931Y719D02*
X986Y719D01*
X279Y718D02*
X335Y718D01*
X358Y718D02*
X367Y718D01*
X899Y718D02*
X907Y718D01*
X930Y718D02*
X986Y718D01*
X279Y717D02*
X336Y717D01*
X358Y717D02*
X367Y717D01*
X899Y717D02*
X908Y717D01*
X930Y717D02*
X986Y717D01*
X279Y716D02*
X336Y716D01*
X357Y716D02*
X367Y716D01*
X899Y716D02*
X908Y716D01*
X929Y716D02*
X986Y716D01*
X279Y715D02*
X337Y715D01*
X356Y715D02*
X367Y715D01*
X899Y715D02*
X909Y715D01*
X928Y715D02*
X986Y715D01*
X279Y714D02*
X338Y714D01*
X355Y714D02*
X367Y714D01*
X899Y714D02*
X910Y714D01*
X927Y714D02*
X986Y714D01*
X279Y713D02*
X339Y713D01*
X354Y713D02*
X367Y713D01*
X899Y713D02*
X911Y713D01*
X926Y713D02*
X986Y713D01*
X279Y712D02*
X341Y712D01*
X352Y712D02*
X367Y712D01*
X899Y712D02*
X913Y712D01*
X924Y712D02*
X986Y712D01*
X279Y711D02*
X345Y711D01*
X348Y711D02*
X367Y711D01*
X899Y711D02*
X917Y711D01*
X921Y711D02*
X986Y711D01*
X279Y710D02*
X367Y710D01*
X899Y710D02*
X986Y710D01*
X279Y709D02*
X367Y709D01*
X899Y709D02*
X986Y709D01*
X279Y708D02*
X367Y708D01*
X899Y708D02*
X986Y708D01*
X279Y707D02*
X367Y707D01*
X899Y707D02*
X986Y707D01*
X279Y706D02*
X367Y706D01*
X899Y706D02*
X986Y706D01*
X279Y705D02*
X367Y705D01*
X899Y705D02*
X986Y705D01*
X279Y704D02*
X367Y704D01*
X899Y704D02*
X986Y704D01*
X279Y703D02*
X367Y703D01*
X899Y703D02*
X986Y703D01*
X279Y702D02*
X367Y702D01*
X899Y702D02*
X986Y702D01*
X279Y701D02*
X367Y701D01*
X899Y701D02*
X986Y701D01*
X279Y700D02*
X367Y700D01*
X899Y700D02*
X986Y700D01*
X279Y667D02*
X367Y667D01*
X899Y667D02*
X986Y667D01*
X279Y666D02*
X367Y666D01*
X899Y666D02*
X986Y666D01*
X279Y665D02*
X367Y665D01*
X899Y665D02*
X986Y665D01*
X279Y664D02*
X367Y664D01*
X899Y664D02*
X986Y664D01*
X279Y663D02*
X367Y663D01*
X899Y663D02*
X986Y663D01*
X279Y662D02*
X367Y662D01*
X899Y662D02*
X986Y662D01*
X279Y661D02*
X367Y661D01*
X899Y661D02*
X986Y661D01*
X279Y660D02*
X367Y660D01*
X899Y660D02*
X986Y660D01*
X279Y659D02*
X367Y659D01*
X899Y659D02*
X986Y659D01*
X279Y658D02*
X367Y658D01*
X899Y658D02*
X986Y658D01*
X279Y657D02*
X367Y657D01*
X899Y657D02*
X986Y657D01*
X279Y656D02*
X343Y656D01*
X350Y656D02*
X367Y656D01*
X899Y656D02*
X915Y656D01*
X922Y656D02*
X986Y656D01*
X279Y655D02*
X341Y655D01*
X353Y655D02*
X367Y655D01*
X899Y655D02*
X913Y655D01*
X925Y655D02*
X986Y655D01*
X279Y654D02*
X339Y654D01*
X354Y654D02*
X367Y654D01*
X899Y654D02*
X911Y654D01*
X926Y654D02*
X986Y654D01*
X279Y653D02*
X338Y653D01*
X356Y653D02*
X367Y653D01*
X899Y653D02*
X910Y653D01*
X928Y653D02*
X986Y653D01*
X279Y652D02*
X337Y652D01*
X356Y652D02*
X367Y652D01*
X899Y652D02*
X909Y652D01*
X928Y652D02*
X986Y652D01*
X279Y651D02*
X336Y651D01*
X357Y651D02*
X367Y651D01*
X899Y651D02*
X908Y651D01*
X929Y651D02*
X986Y651D01*
X279Y650D02*
X335Y650D01*
X358Y650D02*
X367Y650D01*
X899Y650D02*
X907Y650D01*
X930Y650D02*
X986Y650D01*
X279Y649D02*
X335Y649D01*
X358Y649D02*
X367Y649D01*
X899Y649D02*
X907Y649D01*
X930Y649D02*
X986Y649D01*
X279Y648D02*
X335Y648D01*
X359Y648D02*
X367Y648D01*
X899Y648D02*
X907Y648D01*
X931Y648D02*
X986Y648D01*
X279Y647D02*
X334Y647D01*
X359Y647D02*
X367Y647D01*
X899Y647D02*
X906Y647D01*
X931Y647D02*
X986Y647D01*
X279Y646D02*
X334Y646D01*
X359Y646D02*
X367Y646D01*
X899Y646D02*
X906Y646D01*
X931Y646D02*
X986Y646D01*
X279Y645D02*
X334Y645D01*
X359Y645D02*
X367Y645D01*
X899Y645D02*
X906Y645D01*
X931Y645D02*
X986Y645D01*
X279Y644D02*
X334Y644D01*
X359Y644D02*
X367Y644D01*
X899Y644D02*
X906Y644D01*
X931Y644D02*
X986Y644D01*
X279Y643D02*
X334Y643D01*
X359Y643D02*
X367Y643D01*
X899Y643D02*
X906Y643D01*
X931Y643D02*
X986Y643D01*
X279Y642D02*
X334Y642D01*
X359Y642D02*
X367Y642D01*
X899Y642D02*
X906Y642D01*
X931Y642D02*
X986Y642D01*
X279Y641D02*
X335Y641D01*
X359Y641D02*
X367Y641D01*
X899Y641D02*
X907Y641D01*
X931Y641D02*
X986Y641D01*
X279Y640D02*
X335Y640D01*
X358Y640D02*
X367Y640D01*
X899Y640D02*
X907Y640D01*
X930Y640D02*
X986Y640D01*
X279Y639D02*
X335Y639D01*
X358Y639D02*
X367Y639D01*
X899Y639D02*
X907Y639D01*
X930Y639D02*
X986Y639D01*
X279Y638D02*
X336Y638D01*
X358Y638D02*
X367Y638D01*
X899Y638D02*
X908Y638D01*
X929Y638D02*
X986Y638D01*
X279Y637D02*
X337Y637D01*
X357Y637D02*
X367Y637D01*
X899Y637D02*
X908Y637D01*
X929Y637D02*
X986Y637D01*
X279Y636D02*
X337Y636D01*
X356Y636D02*
X367Y636D01*
X899Y636D02*
X909Y636D01*
X928Y636D02*
X986Y636D01*
X279Y635D02*
X338Y635D01*
X355Y635D02*
X367Y635D01*
X899Y635D02*
X910Y635D01*
X927Y635D02*
X986Y635D01*
X279Y634D02*
X340Y634D01*
X354Y634D02*
X367Y634D01*
X899Y634D02*
X912Y634D01*
X926Y634D02*
X986Y634D01*
X279Y633D02*
X342Y633D01*
X352Y633D02*
X367Y633D01*
X899Y633D02*
X914Y633D01*
X924Y633D02*
X986Y633D01*
X279Y632D02*
X367Y632D01*
X899Y632D02*
X986Y632D01*
X279Y631D02*
X367Y631D01*
X899Y631D02*
X986Y631D01*
X279Y630D02*
X367Y630D01*
X899Y630D02*
X986Y630D01*
X279Y629D02*
X367Y629D01*
X899Y629D02*
X986Y629D01*
X279Y628D02*
X367Y628D01*
X899Y628D02*
X986Y628D01*
X279Y627D02*
X367Y627D01*
X899Y627D02*
X986Y627D01*
X279Y626D02*
X367Y626D01*
X899Y626D02*
X986Y626D01*
X279Y625D02*
X367Y625D01*
X899Y625D02*
X986Y625D01*
X279Y624D02*
X367Y624D01*
X899Y624D02*
X986Y624D01*
X279Y623D02*
X367Y623D01*
X899Y623D02*
X986Y623D01*
X279Y622D02*
X367Y622D01*
X899Y622D02*
X986Y622D01*
X279Y621D02*
X366Y621D01*
X899Y621D02*
X986Y621D01*
X279Y589D02*
X366Y589D01*
X899Y589D02*
X986Y589D01*
X279Y588D02*
X367Y588D01*
X899Y588D02*
X986Y588D01*
X279Y587D02*
X367Y587D01*
X899Y587D02*
X986Y587D01*
X279Y586D02*
X367Y586D01*
X899Y586D02*
X986Y586D01*
X279Y585D02*
X367Y585D01*
X899Y585D02*
X986Y585D01*
X279Y584D02*
X367Y584D01*
X899Y584D02*
X986Y584D01*
X279Y583D02*
X367Y583D01*
X899Y583D02*
X986Y583D01*
X279Y582D02*
X367Y582D01*
X899Y582D02*
X986Y582D01*
X279Y581D02*
X367Y581D01*
X899Y581D02*
X986Y581D01*
X279Y580D02*
X367Y580D01*
X899Y580D02*
X986Y580D01*
X279Y579D02*
X367Y579D01*
X899Y579D02*
X986Y579D01*
X279Y578D02*
X367Y578D01*
X899Y578D02*
X986Y578D01*
X279Y577D02*
X342Y577D01*
X351Y577D02*
X367Y577D01*
X899Y577D02*
X914Y577D01*
X923Y577D02*
X986Y577D01*
X279Y576D02*
X340Y576D01*
X353Y576D02*
X367Y576D01*
X899Y576D02*
X912Y576D01*
X925Y576D02*
X986Y576D01*
X279Y575D02*
X339Y575D01*
X355Y575D02*
X367Y575D01*
X899Y575D02*
X911Y575D01*
X927Y575D02*
X986Y575D01*
X279Y574D02*
X337Y574D01*
X356Y574D02*
X367Y574D01*
X899Y574D02*
X909Y574D01*
X928Y574D02*
X986Y574D01*
X279Y573D02*
X337Y573D01*
X357Y573D02*
X367Y573D01*
X899Y573D02*
X909Y573D01*
X929Y573D02*
X986Y573D01*
X279Y572D02*
X336Y572D01*
X357Y572D02*
X367Y572D01*
X899Y572D02*
X908Y572D01*
X929Y572D02*
X986Y572D01*
X279Y571D02*
X335Y571D01*
X358Y571D02*
X367Y571D01*
X899Y571D02*
X907Y571D01*
X930Y571D02*
X986Y571D01*
X279Y570D02*
X335Y570D01*
X358Y570D02*
X367Y570D01*
X899Y570D02*
X907Y570D01*
X930Y570D02*
X986Y570D01*
X279Y569D02*
X335Y569D01*
X359Y569D02*
X367Y569D01*
X899Y569D02*
X907Y569D01*
X931Y569D02*
X986Y569D01*
X279Y568D02*
X334Y568D01*
X359Y568D02*
X367Y568D01*
X899Y568D02*
X906Y568D01*
X931Y568D02*
X986Y568D01*
X279Y567D02*
X334Y567D01*
X359Y567D02*
X367Y567D01*
X899Y567D02*
X906Y567D01*
X931Y567D02*
X986Y567D01*
X279Y566D02*
X334Y566D01*
X359Y566D02*
X367Y566D01*
X899Y566D02*
X906Y566D01*
X931Y566D02*
X986Y566D01*
X279Y565D02*
X334Y565D01*
X359Y565D02*
X367Y565D01*
X899Y565D02*
X906Y565D01*
X931Y565D02*
X986Y565D01*
X279Y564D02*
X334Y564D01*
X359Y564D02*
X367Y564D01*
X899Y564D02*
X906Y564D01*
X931Y564D02*
X986Y564D01*
X279Y563D02*
X334Y563D01*
X359Y563D02*
X367Y563D01*
X899Y563D02*
X906Y563D01*
X931Y563D02*
X986Y563D01*
X279Y562D02*
X335Y562D01*
X359Y562D02*
X367Y562D01*
X899Y562D02*
X907Y562D01*
X931Y562D02*
X986Y562D01*
X279Y561D02*
X335Y561D01*
X358Y561D02*
X367Y561D01*
X899Y561D02*
X907Y561D01*
X930Y561D02*
X986Y561D01*
X279Y560D02*
X335Y560D01*
X358Y560D02*
X367Y560D01*
X899Y560D02*
X907Y560D01*
X930Y560D02*
X986Y560D01*
X279Y559D02*
X336Y559D01*
X357Y559D02*
X367Y559D01*
X899Y559D02*
X908Y559D01*
X929Y559D02*
X986Y559D01*
X279Y558D02*
X337Y558D01*
X357Y558D02*
X367Y558D01*
X899Y558D02*
X909Y558D01*
X929Y558D02*
X986Y558D01*
X279Y557D02*
X338Y557D01*
X356Y557D02*
X367Y557D01*
X899Y557D02*
X910Y557D01*
X928Y557D02*
X986Y557D01*
X279Y556D02*
X339Y556D01*
X355Y556D02*
X367Y556D01*
X899Y556D02*
X911Y556D01*
X927Y556D02*
X986Y556D01*
X279Y555D02*
X340Y555D01*
X353Y555D02*
X367Y555D01*
X899Y555D02*
X912Y555D01*
X925Y555D02*
X986Y555D01*
X279Y554D02*
X343Y554D01*
X351Y554D02*
X367Y554D01*
X899Y554D02*
X915Y554D01*
X923Y554D02*
X986Y554D01*
X279Y553D02*
X367Y553D01*
X899Y553D02*
X986Y553D01*
X279Y552D02*
X367Y552D01*
X899Y552D02*
X986Y552D01*
X279Y551D02*
X367Y551D01*
X899Y551D02*
X986Y551D01*
X279Y550D02*
X367Y550D01*
X899Y550D02*
X986Y550D01*
X279Y549D02*
X367Y549D01*
X899Y549D02*
X986Y549D01*
X279Y548D02*
X367Y548D01*
X899Y548D02*
X986Y548D01*
X279Y547D02*
X367Y547D01*
X899Y547D02*
X986Y547D01*
X279Y546D02*
X367Y546D01*
X899Y546D02*
X986Y546D01*
X279Y545D02*
X367Y545D01*
X899Y545D02*
X986Y545D01*
X279Y544D02*
X367Y544D01*
X899Y544D02*
X986Y544D01*
X279Y543D02*
X367Y543D01*
X899Y543D02*
X986Y543D01*
X279Y542D02*
X366Y542D01*
X899Y542D02*
X986Y542D01*
X279Y510D02*
X366Y510D01*
X899Y510D02*
X986Y510D01*
X279Y509D02*
X367Y509D01*
X899Y509D02*
X986Y509D01*
X279Y508D02*
X367Y508D01*
X899Y508D02*
X986Y508D01*
X279Y507D02*
X367Y507D01*
X899Y507D02*
X986Y507D01*
X279Y506D02*
X367Y506D01*
X899Y506D02*
X986Y506D01*
X279Y505D02*
X367Y505D01*
X899Y505D02*
X986Y505D01*
X279Y504D02*
X367Y504D01*
X899Y504D02*
X986Y504D01*
X279Y503D02*
X367Y503D01*
X899Y503D02*
X986Y503D01*
X279Y502D02*
X367Y502D01*
X899Y502D02*
X986Y502D01*
X279Y501D02*
X367Y501D01*
X899Y501D02*
X986Y501D01*
X279Y500D02*
X367Y500D01*
X899Y500D02*
X986Y500D01*
X279Y499D02*
X367Y499D01*
X899Y499D02*
X986Y499D01*
X279Y498D02*
X341Y498D01*
X352Y498D02*
X367Y498D01*
X899Y498D02*
X913Y498D01*
X924Y498D02*
X986Y498D01*
X279Y497D02*
X340Y497D01*
X354Y497D02*
X367Y497D01*
X899Y497D02*
X912Y497D01*
X926Y497D02*
X986Y497D01*
X279Y496D02*
X338Y496D01*
X355Y496D02*
X367Y496D01*
X899Y496D02*
X910Y496D01*
X927Y496D02*
X986Y496D01*
X279Y495D02*
X337Y495D01*
X356Y495D02*
X367Y495D01*
X899Y495D02*
X909Y495D01*
X928Y495D02*
X986Y495D01*
X279Y494D02*
X336Y494D01*
X357Y494D02*
X367Y494D01*
X899Y494D02*
X908Y494D01*
X929Y494D02*
X986Y494D01*
X279Y493D02*
X336Y493D01*
X358Y493D02*
X367Y493D01*
X899Y493D02*
X908Y493D01*
X930Y493D02*
X986Y493D01*
X279Y492D02*
X335Y492D01*
X358Y492D02*
X367Y492D01*
X899Y492D02*
X907Y492D01*
X930Y492D02*
X986Y492D01*
X279Y491D02*
X335Y491D01*
X359Y491D02*
X367Y491D01*
X899Y491D02*
X907Y491D01*
X931Y491D02*
X986Y491D01*
X279Y490D02*
X334Y490D01*
X359Y490D02*
X367Y490D01*
X899Y490D02*
X906Y490D01*
X931Y490D02*
X986Y490D01*
X279Y489D02*
X334Y489D01*
X359Y489D02*
X367Y489D01*
X899Y489D02*
X906Y489D01*
X931Y489D02*
X986Y489D01*
X279Y488D02*
X334Y488D01*
X359Y488D02*
X367Y488D01*
X899Y488D02*
X906Y488D01*
X931Y488D02*
X986Y488D01*
X279Y487D02*
X334Y487D01*
X359Y487D02*
X367Y487D01*
X899Y487D02*
X906Y487D01*
X931Y487D02*
X986Y487D01*
X279Y486D02*
X334Y486D01*
X359Y486D02*
X367Y486D01*
X899Y486D02*
X906Y486D01*
X931Y486D02*
X986Y486D01*
X279Y485D02*
X334Y485D01*
X359Y485D02*
X367Y485D01*
X899Y485D02*
X906Y485D01*
X931Y485D02*
X986Y485D01*
X279Y484D02*
X334Y484D01*
X359Y484D02*
X367Y484D01*
X899Y484D02*
X906Y484D01*
X931Y484D02*
X986Y484D01*
X279Y483D02*
X335Y483D01*
X359Y483D02*
X367Y483D01*
X899Y483D02*
X907Y483D01*
X931Y483D02*
X986Y483D01*
X279Y482D02*
X335Y482D01*
X358Y482D02*
X367Y482D01*
X899Y482D02*
X907Y482D01*
X930Y482D02*
X986Y482D01*
X279Y481D02*
X336Y481D01*
X358Y481D02*
X367Y481D01*
X899Y481D02*
X908Y481D01*
X930Y481D02*
X986Y481D01*
X279Y480D02*
X336Y480D01*
X357Y480D02*
X367Y480D01*
X899Y480D02*
X908Y480D01*
X929Y480D02*
X986Y480D01*
X279Y479D02*
X337Y479D01*
X356Y479D02*
X367Y479D01*
X899Y479D02*
X909Y479D01*
X928Y479D02*
X986Y479D01*
X279Y478D02*
X338Y478D01*
X355Y478D02*
X367Y478D01*
X899Y478D02*
X910Y478D01*
X927Y478D02*
X986Y478D01*
X279Y477D02*
X339Y477D01*
X354Y477D02*
X367Y477D01*
X899Y477D02*
X911Y477D01*
X926Y477D02*
X986Y477D01*
X279Y476D02*
X341Y476D01*
X353Y476D02*
X367Y476D01*
X899Y476D02*
X913Y476D01*
X925Y476D02*
X986Y476D01*
X279Y475D02*
X344Y475D01*
X350Y475D02*
X367Y475D01*
X899Y475D02*
X916Y475D01*
X922Y475D02*
X986Y475D01*
X279Y474D02*
X367Y474D01*
X899Y474D02*
X986Y474D01*
X279Y473D02*
X367Y473D01*
X899Y473D02*
X986Y473D01*
X279Y472D02*
X367Y472D01*
X899Y472D02*
X986Y472D01*
X279Y471D02*
X367Y471D01*
X899Y471D02*
X986Y471D01*
X279Y470D02*
X367Y470D01*
X899Y470D02*
X986Y470D01*
X279Y469D02*
X367Y469D01*
X899Y469D02*
X986Y469D01*
X279Y468D02*
X367Y468D01*
X899Y468D02*
X986Y468D01*
X279Y467D02*
X367Y467D01*
X899Y467D02*
X986Y467D01*
X279Y466D02*
X367Y466D01*
X899Y466D02*
X986Y466D01*
X279Y465D02*
X367Y465D01*
X899Y465D02*
X986Y465D01*
X279Y464D02*
X367Y464D01*
X899Y464D02*
X986Y464D01*
X279Y431D02*
X367Y431D01*
X899Y431D02*
X986Y431D01*
X279Y430D02*
X367Y430D01*
X899Y430D02*
X986Y430D01*
X279Y429D02*
X367Y429D01*
X899Y429D02*
X986Y429D01*
X279Y428D02*
X367Y428D01*
X899Y428D02*
X986Y428D01*
X279Y427D02*
X367Y427D01*
X899Y427D02*
X986Y427D01*
X279Y426D02*
X367Y426D01*
X899Y426D02*
X986Y426D01*
X279Y425D02*
X367Y425D01*
X899Y425D02*
X986Y425D01*
X279Y424D02*
X367Y424D01*
X899Y424D02*
X986Y424D01*
X279Y423D02*
X367Y423D01*
X899Y423D02*
X986Y423D01*
X279Y422D02*
X367Y422D01*
X899Y422D02*
X986Y422D01*
X279Y421D02*
X367Y421D01*
X899Y421D02*
X986Y421D01*
X279Y420D02*
X344Y420D01*
X350Y420D02*
X367Y420D01*
X899Y420D02*
X916Y420D01*
X922Y420D02*
X986Y420D01*
X279Y419D02*
X341Y419D01*
X353Y419D02*
X367Y419D01*
X899Y419D02*
X913Y419D01*
X925Y419D02*
X986Y419D01*
X279Y418D02*
X339Y418D01*
X354Y418D02*
X367Y418D01*
X899Y418D02*
X911Y418D01*
X926Y418D02*
X986Y418D01*
X279Y417D02*
X338Y417D01*
X355Y417D02*
X367Y417D01*
X899Y417D02*
X910Y417D01*
X927Y417D02*
X986Y417D01*
X279Y416D02*
X337Y416D01*
X356Y416D02*
X367Y416D01*
X899Y416D02*
X909Y416D01*
X928Y416D02*
X986Y416D01*
X279Y415D02*
X336Y415D01*
X357Y415D02*
X367Y415D01*
X899Y415D02*
X908Y415D01*
X929Y415D02*
X986Y415D01*
X279Y414D02*
X336Y414D01*
X358Y414D02*
X367Y414D01*
X899Y414D02*
X908Y414D01*
X930Y414D02*
X986Y414D01*
X279Y413D02*
X335Y413D01*
X358Y413D02*
X367Y413D01*
X899Y413D02*
X907Y413D01*
X930Y413D02*
X986Y413D01*
X279Y412D02*
X335Y412D01*
X359Y412D02*
X367Y412D01*
X899Y412D02*
X907Y412D01*
X931Y412D02*
X986Y412D01*
X279Y411D02*
X334Y411D01*
X359Y411D02*
X367Y411D01*
X899Y411D02*
X906Y411D01*
X931Y411D02*
X986Y411D01*
X279Y410D02*
X334Y410D01*
X359Y410D02*
X367Y410D01*
X899Y410D02*
X906Y410D01*
X931Y410D02*
X986Y410D01*
X279Y409D02*
X334Y409D01*
X359Y409D02*
X367Y409D01*
X899Y409D02*
X906Y409D01*
X931Y409D02*
X986Y409D01*
X279Y408D02*
X334Y408D01*
X359Y408D02*
X367Y408D01*
X899Y408D02*
X906Y408D01*
X931Y408D02*
X986Y408D01*
X279Y407D02*
X334Y407D01*
X359Y407D02*
X367Y407D01*
X899Y407D02*
X906Y407D01*
X931Y407D02*
X986Y407D01*
X279Y406D02*
X334Y406D01*
X359Y406D02*
X367Y406D01*
X899Y406D02*
X906Y406D01*
X931Y406D02*
X986Y406D01*
X279Y405D02*
X334Y405D01*
X359Y405D02*
X367Y405D01*
X899Y405D02*
X906Y405D01*
X931Y405D02*
X986Y405D01*
X279Y404D02*
X335Y404D01*
X359Y404D02*
X367Y404D01*
X899Y404D02*
X907Y404D01*
X931Y404D02*
X986Y404D01*
X279Y403D02*
X335Y403D01*
X358Y403D02*
X367Y403D01*
X899Y403D02*
X907Y403D01*
X930Y403D02*
X986Y403D01*
X279Y402D02*
X336Y402D01*
X358Y402D02*
X367Y402D01*
X899Y402D02*
X908Y402D01*
X930Y402D02*
X986Y402D01*
X279Y401D02*
X336Y401D01*
X357Y401D02*
X367Y401D01*
X899Y401D02*
X908Y401D01*
X929Y401D02*
X986Y401D01*
X279Y400D02*
X337Y400D01*
X356Y400D02*
X367Y400D01*
X899Y400D02*
X909Y400D01*
X928Y400D02*
X986Y400D01*
X279Y399D02*
X338Y399D01*
X355Y399D02*
X367Y399D01*
X899Y399D02*
X910Y399D01*
X927Y399D02*
X986Y399D01*
X279Y398D02*
X340Y398D01*
X354Y398D02*
X367Y398D01*
X899Y398D02*
X911Y398D01*
X926Y398D02*
X986Y398D01*
X279Y397D02*
X341Y397D01*
X352Y397D02*
X367Y397D01*
X899Y397D02*
X913Y397D01*
X924Y397D02*
X986Y397D01*
X279Y396D02*
X367Y396D01*
X899Y396D02*
X986Y396D01*
X279Y395D02*
X367Y395D01*
X899Y395D02*
X986Y395D01*
X279Y394D02*
X367Y394D01*
X899Y394D02*
X986Y394D01*
X279Y393D02*
X367Y393D01*
X899Y393D02*
X986Y393D01*
X279Y392D02*
X367Y392D01*
X899Y392D02*
X986Y392D01*
X279Y391D02*
X367Y391D01*
X899Y391D02*
X986Y391D01*
X279Y390D02*
X367Y390D01*
X899Y390D02*
X986Y390D01*
X279Y389D02*
X367Y389D01*
X899Y389D02*
X986Y389D01*
X279Y388D02*
X367Y388D01*
X899Y388D02*
X986Y388D01*
X279Y387D02*
X367Y387D01*
X899Y387D02*
X986Y387D01*
X279Y386D02*
X367Y386D01*
X899Y386D02*
X986Y386D01*
X279Y385D02*
X366Y385D01*
X899Y385D02*
X986Y385D01*
X279Y353D02*
X366Y353D01*
X899Y353D02*
X986Y353D01*
X279Y352D02*
X367Y352D01*
X899Y352D02*
X986Y352D01*
X279Y351D02*
X367Y351D01*
X899Y351D02*
X986Y351D01*
X279Y350D02*
X367Y350D01*
X899Y350D02*
X986Y350D01*
X279Y349D02*
X367Y349D01*
X899Y349D02*
X986Y349D01*
X279Y348D02*
X367Y348D01*
X899Y348D02*
X986Y348D01*
X279Y347D02*
X367Y347D01*
X899Y347D02*
X986Y347D01*
X279Y346D02*
X367Y346D01*
X899Y346D02*
X986Y346D01*
X279Y345D02*
X367Y345D01*
X899Y345D02*
X986Y345D01*
X279Y344D02*
X367Y344D01*
X899Y344D02*
X986Y344D01*
X279Y343D02*
X367Y343D01*
X899Y343D02*
X986Y343D01*
X279Y342D02*
X367Y342D01*
X899Y342D02*
X986Y342D01*
X279Y341D02*
X343Y341D01*
X351Y341D02*
X367Y341D01*
X899Y341D02*
X915Y341D01*
X923Y341D02*
X986Y341D01*
X279Y340D02*
X340Y340D01*
X353Y340D02*
X367Y340D01*
X899Y340D02*
X912Y340D01*
X925Y340D02*
X986Y340D01*
X279Y339D02*
X339Y339D01*
X355Y339D02*
X367Y339D01*
X899Y339D02*
X911Y339D01*
X927Y339D02*
X986Y339D01*
X279Y338D02*
X338Y338D01*
X356Y338D02*
X367Y338D01*
X899Y338D02*
X910Y338D01*
X928Y338D02*
X986Y338D01*
X279Y337D02*
X337Y337D01*
X357Y337D02*
X367Y337D01*
X899Y337D02*
X909Y337D01*
X929Y337D02*
X986Y337D01*
X279Y336D02*
X336Y336D01*
X357Y336D02*
X367Y336D01*
X899Y336D02*
X908Y336D01*
X929Y336D02*
X986Y336D01*
X279Y335D02*
X335Y335D01*
X358Y335D02*
X367Y335D01*
X899Y335D02*
X907Y335D01*
X930Y335D02*
X986Y335D01*
X279Y334D02*
X335Y334D01*
X358Y334D02*
X367Y334D01*
X899Y334D02*
X907Y334D01*
X930Y334D02*
X986Y334D01*
X279Y333D02*
X335Y333D01*
X359Y333D02*
X367Y333D01*
X899Y333D02*
X907Y333D01*
X931Y333D02*
X986Y333D01*
X279Y332D02*
X334Y332D01*
X359Y332D02*
X367Y332D01*
X899Y332D02*
X906Y332D01*
X931Y332D02*
X986Y332D01*
X279Y331D02*
X334Y331D01*
X359Y331D02*
X367Y331D01*
X899Y331D02*
X906Y331D01*
X931Y331D02*
X986Y331D01*
X279Y330D02*
X334Y330D01*
X359Y330D02*
X367Y330D01*
X899Y330D02*
X906Y330D01*
X931Y330D02*
X986Y330D01*
X279Y329D02*
X334Y329D01*
X359Y329D02*
X367Y329D01*
X899Y329D02*
X906Y329D01*
X931Y329D02*
X986Y329D01*
X279Y328D02*
X334Y328D01*
X359Y328D02*
X367Y328D01*
X899Y328D02*
X906Y328D01*
X931Y328D02*
X986Y328D01*
X279Y327D02*
X334Y327D01*
X359Y327D02*
X367Y327D01*
X899Y327D02*
X906Y327D01*
X931Y327D02*
X986Y327D01*
X279Y326D02*
X335Y326D01*
X359Y326D02*
X367Y326D01*
X899Y326D02*
X907Y326D01*
X931Y326D02*
X986Y326D01*
X279Y325D02*
X335Y325D01*
X358Y325D02*
X367Y325D01*
X899Y325D02*
X907Y325D01*
X930Y325D02*
X986Y325D01*
X279Y324D02*
X335Y324D01*
X358Y324D02*
X367Y324D01*
X899Y324D02*
X907Y324D01*
X930Y324D02*
X986Y324D01*
X279Y323D02*
X336Y323D01*
X357Y323D02*
X367Y323D01*
X899Y323D02*
X908Y323D01*
X929Y323D02*
X986Y323D01*
X279Y322D02*
X337Y322D01*
X357Y322D02*
X367Y322D01*
X899Y322D02*
X909Y322D01*
X929Y322D02*
X986Y322D01*
X279Y321D02*
X337Y321D01*
X356Y321D02*
X367Y321D01*
X899Y321D02*
X909Y321D01*
X928Y321D02*
X986Y321D01*
X279Y320D02*
X339Y320D01*
X355Y320D02*
X367Y320D01*
X899Y320D02*
X911Y320D01*
X927Y320D02*
X986Y320D01*
X279Y319D02*
X340Y319D01*
X353Y319D02*
X367Y319D01*
X899Y319D02*
X912Y319D01*
X925Y319D02*
X986Y319D01*
X279Y318D02*
X342Y318D01*
X351Y318D02*
X367Y318D01*
X899Y318D02*
X914Y318D01*
X923Y318D02*
X986Y318D01*
X279Y317D02*
X367Y317D01*
X899Y317D02*
X986Y317D01*
X279Y316D02*
X367Y316D01*
X899Y316D02*
X986Y316D01*
X279Y315D02*
X367Y315D01*
X899Y315D02*
X986Y315D01*
X279Y314D02*
X367Y314D01*
X899Y314D02*
X986Y314D01*
X279Y313D02*
X367Y313D01*
X899Y313D02*
X986Y313D01*
X279Y312D02*
X367Y312D01*
X899Y312D02*
X986Y312D01*
X279Y311D02*
X367Y311D01*
X899Y311D02*
X986Y311D01*
X279Y310D02*
X367Y310D01*
X899Y310D02*
X986Y310D01*
X279Y309D02*
X367Y309D01*
X899Y309D02*
X986Y309D01*
X279Y308D02*
X367Y308D01*
X899Y308D02*
X986Y308D01*
X279Y307D02*
X367Y307D01*
X899Y307D02*
X986Y307D01*
X279Y306D02*
X366Y306D01*
X899Y306D02*
X986Y306D01*
D02*
G04 End of Copper0*
M02*