; NON-PLATED HOLES START AT T1
; THROUGH (PLATED) HOLES START AT T100
M48
INCH
T1C0.086614
T100C0.015748
T101C0.040000
T102C0.100000
T103C0.038000
T104C0.035000
%
T1
X015477Y017632
X000860Y000838
X015469Y000824
X005548Y017639
T100
X004223Y007238
X004253Y008822
X004223Y005627
X007910Y008824
X004223Y006438
T101
X007088Y017519
X011310Y017528
X009932Y017528
X001679Y004737
X001679Y005737
X008466Y017519
X001679Y003737
T102
X001608Y016609
X004008Y016609
X002808Y014709
T103
X013991Y017656
X012991Y017656
X013868Y000858
X012868Y000858
X011868Y000858
X010868Y000858
T104
X005595Y012533
X008154Y010761
X005585Y014037
X008154Y012533
X005585Y015809
X005595Y010761
X008144Y014037
X008144Y015809
T00
M30
